%
M48
M72
T01C0.0130
T02C0.0400
T03C0.0900
%
T01
X3237Y1460
X2687Y3960
X2637Y5710
X4487Y5074
X5737Y3960
X6487Y3460
X7862Y5460
X8237Y5460
X8487Y5210
X8737Y4960
X8987Y4710
X8737Y4460
X8487Y4710
X8987Y5210
X8737Y5460
X8487Y5710
X9237Y5460
X9487Y5210
X9737Y4960
X9987Y4710
X10237Y4460
X9987Y4210
X10237Y3960
X9737Y3960
X9487Y3710
X9237Y3460
X9487Y3210
X9237Y2960
X9487Y2710
X9737Y2460
X9487Y2210
X9237Y2460
X8987Y2210
X8737Y2460
X8987Y2710
X8737Y2960
X8987Y3210
X8737Y3460
X8987Y3710
X8737Y3960
X8987Y4210
X9237Y4460
X9487Y4710
X9737Y4460
X9487Y4210
X9237Y3960
X8487Y3710
X8487Y4210
X9237Y4960
X9737Y5460
X9987Y5210
X10237Y4960
X10237Y5460
X9987Y5710
X10237Y5960
X9987Y6210
X10237Y6460
X10487Y6710
X10737Y6960
X10987Y6710
X11237Y6960
X11487Y6710
X11737Y6960
X11987Y6710
X12237Y6960
X12487Y6710
X12737Y6960
X12987Y6710
X13237Y6460
X13487Y6210
X13737Y5960
X13487Y5710
X13237Y5960
X12987Y5710
X12737Y5960
X12987Y6210
X12737Y6460
X12487Y6210
X12237Y5960
X12487Y5710
X12737Y5460
X12987Y5210
X12737Y4960
X12987Y4710
X12737Y4460
X12487Y4710
X12237Y4460
X11987Y4710
X12237Y4960
X12487Y5210
X12237Y5460
X11987Y5210
X11987Y5710
X11987Y6210
X12237Y6460
X11737Y6460
X11237Y6460
X10737Y6460
X9987Y6710
X10487Y7710
X10737Y7960
X10987Y7710
X11237Y7960
X11487Y7710
X11737Y7960
X11987Y7710
X12237Y7960
X12487Y7710
X12737Y7960
X12987Y7710
X13237Y7960
X13487Y7710
X13737Y7960
X13487Y8210
X13737Y8460
X13487Y8710
X13237Y8460
X12987Y8210
X12987Y8710
X13237Y8960
X13487Y9210
X13737Y8960
X13737Y9460
X13487Y9710
X13237Y9460
X12987Y9210
X12737Y8960
X12237Y8960
X11987Y9210
X11987Y9710
X12237Y9960
X12487Y10210
X12737Y9960
X12987Y10210
X12737Y10460
X12987Y10710
X13237Y10960
X13487Y11210
X13737Y10960
X13487Y10710
X13737Y10460
X13487Y10210
X13737Y9960
X13237Y9960
X12987Y9710
X13237Y10460
X12737Y10960
X12987Y11210
X12737Y11460
X12987Y11710
X13237Y11960
X13487Y12210
X13737Y11960
X13487Y11710
X13737Y11460
X13237Y11460
X12737Y11960
X12987Y12210
X12737Y12460
X12487Y12210
X12237Y11960
X11987Y12210
X12237Y12460
X11737Y12460
X11487Y12210
X11737Y11960
X11987Y11710
X12237Y11460
X12487Y11210
X12237Y10960
X11987Y11210
X12487Y11710
X13237Y12460
X13737Y12460
X13487Y13210
X13737Y13460
X13487Y13710
X13737Y13960
X13487Y14210
X13737Y14460
X13487Y14710
X13737Y14960
X13487Y15210
X13737Y15460
X13487Y15710
X13737Y15960
X13487Y16210
X13737Y16460
X13487Y16710
X13737Y16960
X13487Y17210
X13237Y16960
X12987Y16710
X12737Y16460
X12987Y16210
X13237Y15960
X12987Y15710
X12737Y15460
X12987Y15210
X13237Y14960
X12987Y14710
X12737Y14460
X12987Y14210
X13237Y13960
X12987Y13710
X12737Y13460
X12987Y13210
X13237Y13460
X12487Y13210
X12237Y13460
X11987Y13210
X11737Y13460
X11487Y13210
X11237Y13460
X10987Y13210
X10737Y13460
X10487Y13210
X10237Y13460
X9737Y13460
X9487Y13710
X9237Y13460
X8987Y13710
X8737Y13460
X8487Y13210
X8237Y13460
X8487Y13710
X8737Y13960
X8487Y14210
X8237Y13960
X7987Y13710
X7737Y13460
X7487Y13710
X7737Y13960
X7987Y14210
X7487Y14210
X7237Y13210
X6737Y12960
X6987Y12460
X7487Y12460
X7737Y12710
X7987Y13210
X7237Y11710
X5737Y11460
X4362Y10460
X4427Y9745
X3537Y8875
X2737Y7960
X3737Y7710
X4987Y7960
X5487Y7960
X5937Y8880
X6477Y8880
X7237Y7710
X8237Y7960
X8487Y7710
X8737Y7960
X8987Y7710
X9237Y7960
X9487Y7710
X9737Y7960
X9487Y8210
X8987Y8210
X8737Y8460
X8487Y8210
X8237Y8460
X8487Y8710
X9237Y9460
X9487Y9710
X9737Y9460
X9987Y9710
X10237Y9460
X10737Y9960
X11237Y9960
X11737Y9960
X11987Y10210
X12237Y10460
X12487Y10710
X11987Y10710
X11237Y11960
X10987Y12210
X11237Y12460
X10737Y12460
X10737Y11960
X11987Y13710
X12237Y14460
X11987Y14710
X11987Y15210
X12237Y15460
X12487Y15710
X12737Y15960
X12487Y16210
X12237Y16460
X12487Y16710
X12737Y16960
X12987Y17210
X13237Y17460
X13737Y17460
X13487Y17960
X13737Y18210
X13487Y18460
X13737Y18710
X13487Y18960
X13737Y19210
X14237Y19210
X14487Y18960
X14237Y18710
X14487Y18460
X14237Y18210
X14487Y17960
X15737Y18210
X15987Y17960
X16237Y18210
X16487Y17960
X16737Y18210
X16987Y17960
X17237Y18210
X17487Y17960
X17737Y18210
X17987Y17960
X18237Y18210
X18487Y18460
X18737Y18710
X18487Y18960
X18737Y19210
X18237Y19210
X17987Y18960
X18237Y18710
X17987Y18460
X17737Y18710
X17487Y18460
X17237Y18710
X17487Y18960
X17737Y19210
X17237Y19210
X16987Y18960
X16737Y18710
X16987Y18460
X16487Y18460
X16237Y18710
X16487Y18960
X16737Y19210
X16237Y19210
X15987Y18960
X15737Y18710
X15987Y18460
X15737Y19210
X17987Y16835
X18237Y17085
X18487Y16835
X18487Y17960
X18737Y18210
X18487Y15710
X18237Y15460
X17987Y15210
X17987Y15710
X18487Y15210
X18487Y14085
X18237Y13835
X17987Y14085
X18237Y12960
X18487Y12710
X18237Y12460
X18237Y11585
X18487Y11335
X17987Y11335
X17987Y10210
X18237Y9960
X18487Y9710
X18487Y10210
X17987Y9710
X17987Y8585
X18237Y8335
X18487Y8585
X18237Y7460
X18487Y7210
X18237Y6960
X18237Y6085
X18487Y5835
X17987Y5835
X17987Y4710
X18237Y4460
X18487Y4210
X18487Y4710
X17987Y4210
X17987Y3085
X18237Y2835
X18487Y3085
X17487Y960
X16487Y960
X15487Y960
X14487Y960
X13487Y960
X13487Y2210
X13737Y2460
X13487Y2710
X13737Y2960
X13487Y3210
X13237Y2960
X12987Y2710
X12737Y2460
X12987Y2210
X13237Y2460
X12987Y3210
X13237Y3460
X13487Y3710
X13737Y3460
X13737Y3960
X13487Y4210
X13237Y3960
X12987Y3710
X12737Y3460
X12237Y3460
X11987Y3710
X11987Y4210
X11737Y4460
X11237Y4460
X10737Y4460
X11987Y2710
X12237Y2460
X12487Y2210
X11987Y2210
X11737Y2460
X11487Y2210
X11237Y2460
X10987Y2210
X10737Y2460
X10487Y2210
X10237Y2460
X8487Y2210
X8487Y2710
X8487Y3210
X8487Y1460
X12987Y4210
X13237Y4460
X13487Y4710
X13737Y4460
X13737Y4960
X13487Y5210
X13737Y5460
X13237Y5460
X13237Y4960
X13737Y6460
X13487Y6710
X13737Y6960
X13237Y6960
X11987Y8210
X10237Y7960
X8987Y9710
X7987Y6710
X3237Y11960
X2487Y11710
X1987Y9960
X5737Y13210
X4237Y13960
X4237Y14960
X3237Y15210
X3237Y16710
X3487Y18960
X4487Y18960
X5487Y18960
X6487Y18960
X7487Y18960
X9237Y18710
X9487Y18460
X9737Y18710
X9987Y18460
X10237Y18710
X9987Y18960
X10237Y19210
X10487Y18960
X10737Y18710
X10987Y18460
X11237Y18710
X11487Y18460
X11737Y18710
X11487Y18960
X11737Y19210
X11987Y18960
X12237Y18710
X11987Y18460
X12237Y18210
X11987Y17960
X11737Y18210
X11487Y17960
X11237Y18210
X10987Y17960
X10737Y18210
X10487Y17960
X10237Y18210
X9987Y17960
X9737Y18210
X9487Y17960
X9237Y18210
X9487Y18960
X9737Y19210
X9237Y19210
X10487Y18460
X10987Y18960
X11237Y19210
X10737Y19210
X12237Y19210
X12237Y17460
X12487Y17210
X12237Y16960
X11987Y16710
X11987Y16210
X12237Y15960
X11987Y15710
X11737Y15460
X11237Y15460
X10737Y15460
X10237Y15210
X9987Y14960
X9737Y15210
X9487Y14960
X9237Y15210
X8987Y14960
X10737Y17460
X11237Y17460
X11737Y17460
X11987Y17210
X12737Y17460
X13237Y16460
X13237Y15460
X13237Y14460
X16987Y12710
X17237Y12460
X17237Y12960
X17237Y7460
X16987Y7210
X17237Y6960
T02
X19487Y6460
X19487Y5460
X19487Y4460
X19487Y3460
X19487Y2460
X19487Y7460
X19487Y8460
X19487Y9460
X19487Y10460
X19487Y11460
X19487Y12460
X19487Y13460
X19487Y14460
X19487Y15460
X19487Y16460
X19487Y17460
X1487Y17460
X1487Y16460
X1487Y15460
X1487Y14460
X1487Y13460
X1487Y12460
X1487Y11460
X1487Y10460
X1487Y9460
X1487Y8460
X1487Y7460
X1487Y6460
X1487Y5460
X1487Y4460
X1487Y3460
X1487Y2460
T03
X1487Y960
X9237Y6210
X8737Y11960
X8487Y16960
X1487Y18960
X19487Y18960
X19487Y960
M30
