G75*
G70*
%OFA0B0*%
%FSLAX24Y24*%
%IPPOS*%
%LPD*%
%AMOC8*
5,1,8,0,0,1.08239X$1,22.5*
%
%ADD10C,0.0090*%
%ADD11C,0.0070*%
%ADD12R,0.0258X0.0112*%
%ADD13C,0.0157*%
%ADD14R,0.3500X0.4500*%
%ADD15R,0.1250X0.0350*%
%ADD16R,0.0394X0.0217*%
%ADD17R,0.0600X0.0600*%
%ADD18OC8,0.0600*%
%ADD19R,0.0327X0.0248*%
%ADD20R,0.0709X0.1260*%
%ADD21R,0.0217X0.0394*%
%ADD22R,0.0500X0.0250*%
%ADD23R,0.0591X0.1575*%
%ADD24R,0.0579X0.0500*%
%ADD25R,0.0354X0.0551*%
%ADD26R,0.0551X0.0110*%
%ADD27R,0.0551X0.0354*%
%ADD28R,0.0120X0.0390*%
%ADD29R,0.0787X0.0472*%
%ADD30R,0.0472X0.0787*%
%ADD31C,0.0060*%
%ADD32R,0.0270X0.0270*%
%ADD33OC8,0.0270*%
%ADD34C,0.0080*%
%ADD35C,0.0270*%
%ADD36C,0.0100*%
%ADD37C,0.0200*%
%ADD38C,0.0320*%
%ADD39C,0.1040*%
D10*
X008656Y000687D02*
X008656Y001029D01*
X008861Y001029D01*
X008929Y000960D01*
X008929Y000823D01*
X008861Y000755D01*
X008656Y000755D01*
X008656Y000687D02*
X008724Y000618D01*
X008793Y000618D01*
X009116Y000755D02*
X009116Y000960D01*
X009185Y001029D01*
X009390Y001029D01*
X009390Y000755D01*
X009577Y000755D02*
X009577Y000960D01*
X009645Y001029D01*
X009782Y001029D01*
X009782Y000892D02*
X009577Y000892D01*
X009577Y000755D02*
X009782Y000755D01*
X009850Y000823D01*
X009782Y000892D01*
X010037Y000755D02*
X010037Y001165D01*
X010174Y000892D02*
X010037Y000755D01*
X010174Y000892D02*
X010310Y000755D01*
X010310Y001165D01*
X010958Y000960D02*
X011026Y001029D01*
X011163Y001029D01*
X011231Y000960D01*
X011231Y000823D01*
X011163Y000755D01*
X011026Y000755D01*
X010958Y000823D01*
X010958Y000960D01*
X011418Y000755D02*
X011692Y001165D01*
X011418Y001165D02*
X011692Y000755D01*
D11*
X007842Y017995D02*
X007731Y018215D01*
X007583Y018270D02*
X007528Y018325D01*
X007418Y018325D01*
X007363Y018270D01*
X007363Y018215D01*
X007583Y017995D01*
X007363Y017995D01*
X007215Y017995D02*
X007215Y018050D01*
X007160Y018050D01*
X007160Y017995D01*
X007215Y017995D01*
X007031Y018050D02*
X006811Y018270D01*
X006811Y018050D01*
X006866Y017995D01*
X006976Y017995D01*
X007031Y018050D01*
X007031Y018270D01*
X006976Y018325D01*
X006866Y018325D01*
X006811Y018270D01*
X006608Y018215D02*
X006497Y018215D01*
X006442Y018160D01*
X006442Y017995D01*
X006608Y017995D01*
X006663Y018050D01*
X006608Y018105D01*
X006442Y018105D01*
X007842Y017995D02*
X007952Y018215D01*
D12*
X006817Y008617D03*
X006817Y008421D03*
X006817Y008224D03*
X006817Y008027D03*
X006817Y007830D03*
X006817Y007633D03*
X006817Y007436D03*
X006817Y007240D03*
X006817Y007043D03*
X006817Y006846D03*
X006817Y006649D03*
X006817Y006452D03*
X006817Y006255D03*
X006817Y006058D03*
X006817Y005862D03*
X006817Y005665D03*
X006817Y005468D03*
X006817Y005271D03*
X006817Y005074D03*
X006817Y004877D03*
X006817Y004680D03*
X006817Y004484D03*
X006817Y004287D03*
X006817Y004090D03*
X006817Y003893D03*
X006817Y003696D03*
X006817Y003499D03*
X006817Y003303D03*
X004156Y003303D03*
X004156Y003499D03*
X004156Y003696D03*
X004156Y003893D03*
X004156Y004090D03*
X004156Y004287D03*
X004156Y004484D03*
X004156Y004680D03*
X004156Y004877D03*
X004156Y005074D03*
X004156Y005271D03*
X004156Y005468D03*
X004156Y005665D03*
X004156Y005862D03*
X004156Y006058D03*
X004156Y006255D03*
X004156Y006452D03*
X004156Y006649D03*
X004156Y006846D03*
X004156Y007043D03*
X004156Y007240D03*
X004156Y007436D03*
X004156Y007633D03*
X004156Y007830D03*
X004156Y008027D03*
X004156Y008224D03*
X004156Y008421D03*
X004156Y008617D03*
D13*
X006196Y007555D02*
X006196Y004365D01*
X004778Y004365D01*
X004778Y007555D01*
X006196Y007555D01*
X006196Y004521D02*
X004778Y004521D01*
X004778Y004677D02*
X006196Y004677D01*
X006196Y004833D02*
X004778Y004833D01*
X004778Y004989D02*
X006196Y004989D01*
X006196Y005145D02*
X004778Y005145D01*
X004778Y005301D02*
X006196Y005301D01*
X006196Y005457D02*
X004778Y005457D01*
X004778Y005613D02*
X006196Y005613D01*
X006196Y005769D02*
X004778Y005769D01*
X004778Y005925D02*
X006196Y005925D01*
X006196Y006081D02*
X004778Y006081D01*
X004778Y006237D02*
X006196Y006237D01*
X006196Y006393D02*
X004778Y006393D01*
X004778Y006549D02*
X006196Y006549D01*
X006196Y006705D02*
X004778Y006705D01*
X004778Y006861D02*
X006196Y006861D01*
X006196Y007017D02*
X004778Y007017D01*
X004778Y007173D02*
X006196Y007173D01*
X006196Y007329D02*
X004778Y007329D01*
X004778Y007485D02*
X006196Y007485D01*
D14*
X015737Y009960D03*
X015737Y004460D03*
X015737Y015460D03*
D15*
X011112Y014960D03*
X011112Y014460D03*
X011112Y013960D03*
X011112Y015960D03*
X011112Y016460D03*
X011112Y016960D03*
X011112Y011460D03*
X011112Y010960D03*
X011112Y010460D03*
X011112Y009460D03*
X011112Y008960D03*
X011112Y008460D03*
X011112Y005960D03*
X011112Y005460D03*
X011112Y004960D03*
X011112Y003960D03*
X011112Y003460D03*
X011112Y002960D03*
D16*
X009987Y002925D03*
X009987Y003495D03*
X007487Y003675D03*
X007487Y004245D03*
X007487Y004675D03*
X007487Y005245D03*
X007487Y005675D03*
X007487Y006245D03*
X007487Y006675D03*
X007487Y007245D03*
X009987Y008425D03*
X009987Y008995D03*
X005237Y012175D03*
X004737Y012175D03*
X004237Y012175D03*
X004237Y012745D03*
X004737Y012745D03*
X005237Y012745D03*
X003737Y012745D03*
X003737Y012175D03*
X002987Y011245D03*
X002987Y010675D03*
X002987Y010245D03*
X002987Y009675D03*
X002987Y005995D03*
X003487Y005995D03*
X003487Y005425D03*
X003487Y005120D03*
X002987Y005120D03*
X002987Y005425D03*
X002987Y004550D03*
X002987Y004245D03*
X003487Y004245D03*
X003487Y004550D03*
X003487Y003675D03*
X003487Y003245D03*
X002987Y003245D03*
X002987Y003675D03*
X002987Y002675D03*
X003487Y002675D03*
X009987Y013925D03*
X009987Y014495D03*
X005237Y016175D03*
X004737Y016175D03*
X004237Y016175D03*
X003737Y016175D03*
X003737Y016745D03*
X004237Y016745D03*
X004737Y016745D03*
X005237Y016745D03*
D17*
X019487Y017460D03*
X001487Y002460D03*
D18*
X001487Y003460D03*
X001487Y004460D03*
X001487Y005460D03*
X001487Y006460D03*
X001487Y007460D03*
X001487Y008460D03*
X001487Y009460D03*
X001487Y010460D03*
X001487Y011460D03*
X001487Y012460D03*
X001487Y013460D03*
X001487Y014460D03*
X001487Y015460D03*
X001487Y016460D03*
X001487Y017460D03*
X019487Y016460D03*
X019487Y015460D03*
X019487Y014460D03*
X019487Y013460D03*
X019487Y012460D03*
X019487Y011460D03*
X019487Y010460D03*
X019487Y009460D03*
X019487Y008460D03*
X019487Y007460D03*
X019487Y006460D03*
X019487Y005460D03*
X019487Y004460D03*
X019487Y003460D03*
X019487Y002460D03*
D19*
X012487Y003007D03*
X012487Y003913D03*
X012487Y008507D03*
X012487Y009413D03*
X012487Y014007D03*
X012487Y014913D03*
D20*
X012884Y018710D03*
X015089Y018710D03*
D21*
X009772Y012710D03*
X009201Y012710D03*
X004772Y009210D03*
X004201Y009210D03*
X002772Y012210D03*
X002772Y012710D03*
X002772Y013210D03*
X002772Y013710D03*
X002772Y014210D03*
X002772Y014710D03*
X002772Y015210D03*
X002772Y015710D03*
X002772Y016210D03*
X002772Y016710D03*
X002201Y016710D03*
X002201Y016210D03*
X002201Y015710D03*
X002201Y015210D03*
X002201Y014710D03*
X002201Y014210D03*
X002201Y013710D03*
X002201Y013210D03*
X002201Y012710D03*
X002201Y012210D03*
X009201Y007210D03*
X009772Y007210D03*
X006772Y002835D03*
X006201Y002835D03*
X005772Y002835D03*
X005201Y002835D03*
X004772Y002835D03*
X004201Y002835D03*
X003522Y002210D03*
X002951Y002210D03*
X009201Y001710D03*
X009772Y001710D03*
D22*
X002237Y003610D03*
X002237Y003960D03*
X002237Y004310D03*
D23*
X004778Y001460D03*
X006195Y001460D03*
D24*
X007487Y000614D03*
X007487Y002306D03*
D25*
X003670Y001460D03*
X002804Y001460D03*
D26*
X003644Y010066D03*
X003644Y010263D03*
X003644Y010460D03*
X003644Y010657D03*
X003644Y010854D03*
X005329Y010854D03*
X005329Y010657D03*
X005329Y010460D03*
X005329Y010263D03*
X005329Y010066D03*
D27*
X005987Y010027D03*
X005987Y010893D03*
D28*
X005237Y013390D03*
X004987Y013390D03*
X004737Y013390D03*
X004487Y013390D03*
X004237Y013390D03*
X003987Y013390D03*
X003737Y013390D03*
X003737Y015530D03*
X003987Y015530D03*
X004237Y015530D03*
X004487Y015530D03*
X004737Y015530D03*
X004987Y015530D03*
X005237Y015530D03*
D29*
X018237Y015705D03*
X018237Y015215D03*
X018237Y013955D03*
X018237Y011465D03*
X018237Y010205D03*
X018237Y009715D03*
X018237Y008455D03*
X018237Y005965D03*
X018237Y004705D03*
X018237Y004215D03*
X018237Y002955D03*
X018237Y016965D03*
D30*
X018367Y012710D03*
X017107Y012710D03*
X017107Y007210D03*
X018367Y007210D03*
D31*
X000917Y008400D02*
X000917Y001230D01*
X000953Y001317D01*
X001130Y001494D01*
X001361Y001590D01*
X001612Y001590D01*
X001844Y001494D01*
X002021Y001317D01*
X002117Y001085D01*
X002117Y000835D01*
X002021Y000603D01*
X001844Y000426D01*
X001757Y000390D01*
X008117Y000390D01*
X008117Y001646D01*
X008107Y001656D01*
X008107Y002658D01*
X007866Y002417D01*
X007866Y002019D01*
X007813Y001966D01*
X007160Y001966D01*
X007108Y002019D01*
X006581Y001492D01*
X006581Y000635D01*
X006528Y000583D01*
X005863Y000583D01*
X005810Y000635D01*
X005810Y002285D01*
X005863Y002337D01*
X006528Y002337D01*
X006581Y002285D01*
X006581Y002199D01*
X006900Y002518D01*
X006992Y002556D01*
X007107Y002556D01*
X007107Y002594D01*
X007160Y002646D01*
X007558Y002646D01*
X007797Y002885D01*
X007797Y004055D01*
X007729Y004055D01*
X007721Y004047D01*
X007298Y004047D01*
X007472Y003873D01*
X007721Y003873D01*
X007774Y003820D01*
X007774Y003529D01*
X007721Y003476D01*
X007253Y003476D01*
X007200Y003529D01*
X007200Y003778D01*
X007036Y003941D01*
X007036Y003800D01*
X007031Y003795D01*
X007036Y003790D01*
X007036Y003603D01*
X007031Y003598D01*
X007036Y003593D01*
X007036Y003406D01*
X007031Y003401D01*
X007036Y003396D01*
X007036Y003209D01*
X006984Y003156D01*
X006651Y003156D01*
X006598Y003209D01*
X006598Y003254D01*
X006580Y003235D01*
X006393Y003235D01*
X006262Y003367D01*
X006262Y003553D01*
X006347Y003638D01*
X006347Y003754D01*
X006362Y003770D01*
X006297Y003835D01*
X006297Y008400D01*
X005117Y008400D01*
X005117Y008276D01*
X004617Y007776D01*
X004572Y007732D01*
X004617Y007687D01*
X004617Y006201D01*
X004541Y006125D01*
X004375Y006125D01*
X004375Y005965D01*
X004370Y005960D01*
X004375Y005955D01*
X004375Y005768D01*
X004370Y005763D01*
X004375Y005758D01*
X004375Y005571D01*
X004322Y005519D01*
X003999Y005519D01*
X003992Y005511D01*
X003992Y005417D01*
X004322Y005417D01*
X004375Y005364D01*
X004375Y005281D01*
X004393Y005299D01*
X004580Y005299D01*
X004712Y005167D01*
X004712Y004981D01*
X004580Y004849D01*
X004393Y004849D01*
X004315Y004928D01*
X003990Y004928D01*
X003989Y004929D01*
X003916Y004855D01*
X003842Y004781D01*
X003766Y004705D01*
X003264Y004705D01*
X003274Y004695D01*
X003274Y004404D01*
X003267Y004398D01*
X003274Y004391D01*
X003274Y004100D01*
X003221Y004047D01*
X002912Y004047D01*
X002912Y003867D01*
X002780Y003735D01*
X002593Y003735D01*
X002554Y003775D01*
X002524Y003745D01*
X001949Y003745D01*
X001897Y003798D01*
X001897Y004122D01*
X001909Y004135D01*
X001897Y004148D01*
X001897Y004472D01*
X001949Y004525D01*
X002107Y004525D01*
X002107Y004896D01*
X001854Y004644D01*
X001877Y004622D01*
X001877Y004298D01*
X001648Y004070D01*
X001325Y004070D01*
X001097Y004298D01*
X001097Y004622D01*
X001325Y004850D01*
X001648Y004850D01*
X001671Y004828D01*
X002107Y005264D01*
X002107Y005896D01*
X002041Y005830D01*
X001854Y005644D01*
X001877Y005622D01*
X001877Y005298D01*
X001648Y005070D01*
X001325Y005070D01*
X001097Y005298D01*
X001097Y005622D01*
X001325Y005850D01*
X001648Y005850D01*
X001671Y005828D01*
X001857Y006014D01*
X001857Y006278D01*
X001648Y006070D01*
X001325Y006070D01*
X001097Y006298D01*
X001097Y006622D01*
X001325Y006850D01*
X001648Y006850D01*
X001671Y006828D01*
X001742Y006900D01*
X001803Y006960D01*
X001774Y006989D01*
X001671Y007092D01*
X001648Y007070D01*
X001325Y007070D01*
X001097Y007298D01*
X001097Y007622D01*
X001325Y007850D01*
X001648Y007850D01*
X001857Y007642D01*
X001857Y007906D01*
X001671Y008092D01*
X001648Y008070D01*
X001325Y008070D01*
X001097Y008298D01*
X001097Y008400D01*
X000917Y008400D01*
X000917Y008358D02*
X001097Y008358D01*
X001097Y008299D02*
X000917Y008299D01*
X000917Y008241D02*
X001155Y008241D01*
X001213Y008182D02*
X000917Y008182D01*
X000917Y008124D02*
X001272Y008124D01*
X001306Y007831D02*
X000917Y007831D01*
X000917Y007773D02*
X001248Y007773D01*
X001189Y007714D02*
X000917Y007714D01*
X000917Y007656D02*
X001131Y007656D01*
X001097Y007597D02*
X000917Y007597D01*
X000917Y007539D02*
X001097Y007539D01*
X001097Y007480D02*
X000917Y007480D01*
X000917Y007422D02*
X001097Y007422D01*
X001097Y007363D02*
X000917Y007363D01*
X000917Y007305D02*
X001097Y007305D01*
X001149Y007246D02*
X000917Y007246D01*
X000917Y007188D02*
X001208Y007188D01*
X001266Y007129D02*
X000917Y007129D01*
X000917Y007071D02*
X001325Y007071D01*
X001312Y006837D02*
X000917Y006837D01*
X000917Y006895D02*
X001738Y006895D01*
X001796Y006954D02*
X000917Y006954D01*
X000917Y007012D02*
X001751Y007012D01*
X001692Y007071D02*
X001649Y007071D01*
X001662Y006837D02*
X001679Y006837D01*
X001253Y006778D02*
X000917Y006778D01*
X000917Y006720D02*
X001195Y006720D01*
X001136Y006661D02*
X000917Y006661D01*
X000917Y006603D02*
X001097Y006603D01*
X001097Y006544D02*
X000917Y006544D01*
X000917Y006486D02*
X001097Y006486D01*
X001097Y006427D02*
X000917Y006427D01*
X000917Y006369D02*
X001097Y006369D01*
X001097Y006310D02*
X000917Y006310D01*
X000917Y006252D02*
X001144Y006252D01*
X001202Y006193D02*
X000917Y006193D01*
X000917Y006135D02*
X001261Y006135D01*
X001319Y006076D02*
X000917Y006076D01*
X000917Y006018D02*
X001857Y006018D01*
X001857Y006076D02*
X001654Y006076D01*
X001713Y006135D02*
X001857Y006135D01*
X001857Y006193D02*
X001771Y006193D01*
X001830Y006252D02*
X001857Y006252D01*
X001802Y005959D02*
X000917Y005959D01*
X000917Y005901D02*
X001743Y005901D01*
X001685Y005842D02*
X001656Y005842D01*
X001877Y005667D02*
X002107Y005667D01*
X002107Y005725D02*
X001936Y005725D01*
X001994Y005784D02*
X002107Y005784D01*
X002107Y005842D02*
X002053Y005842D01*
X002107Y005608D02*
X001877Y005608D01*
X001877Y005550D02*
X002107Y005550D01*
X002107Y005491D02*
X001877Y005491D01*
X001877Y005433D02*
X002107Y005433D01*
X002107Y005374D02*
X001877Y005374D01*
X001877Y005316D02*
X002107Y005316D01*
X002100Y005257D02*
X001835Y005257D01*
X001777Y005199D02*
X002041Y005199D01*
X001983Y005140D02*
X001718Y005140D01*
X001660Y005082D02*
X001924Y005082D01*
X001866Y005023D02*
X000917Y005023D01*
X000917Y004965D02*
X001807Y004965D01*
X001749Y004906D02*
X000917Y004906D01*
X000917Y004848D02*
X001323Y004848D01*
X001264Y004789D02*
X000917Y004789D01*
X000917Y004731D02*
X001206Y004731D01*
X001147Y004672D02*
X000917Y004672D01*
X000917Y004614D02*
X001097Y004614D01*
X001097Y004555D02*
X000917Y004555D01*
X000917Y004497D02*
X001097Y004497D01*
X001097Y004438D02*
X000917Y004438D01*
X000917Y004380D02*
X001097Y004380D01*
X001097Y004321D02*
X000917Y004321D01*
X000917Y004263D02*
X001133Y004263D01*
X001191Y004204D02*
X000917Y004204D01*
X000917Y004146D02*
X001250Y004146D01*
X001308Y004087D02*
X000917Y004087D01*
X000917Y004029D02*
X001897Y004029D01*
X001897Y004087D02*
X001665Y004087D01*
X001724Y004146D02*
X001899Y004146D01*
X001897Y004204D02*
X001782Y004204D01*
X001841Y004263D02*
X001897Y004263D01*
X001897Y004321D02*
X001877Y004321D01*
X001877Y004380D02*
X001897Y004380D01*
X001897Y004438D02*
X001877Y004438D01*
X001877Y004497D02*
X001921Y004497D01*
X001877Y004555D02*
X002107Y004555D01*
X002107Y004614D02*
X001877Y004614D01*
X001883Y004672D02*
X002107Y004672D01*
X002107Y004731D02*
X001941Y004731D01*
X002000Y004789D02*
X002107Y004789D01*
X002107Y004848D02*
X002058Y004848D01*
X001690Y004848D02*
X001651Y004848D01*
X001314Y005082D02*
X000917Y005082D01*
X000917Y005140D02*
X001255Y005140D01*
X001197Y005199D02*
X000917Y005199D01*
X000917Y005257D02*
X001138Y005257D01*
X001097Y005316D02*
X000917Y005316D01*
X000917Y005374D02*
X001097Y005374D01*
X001097Y005433D02*
X000917Y005433D01*
X000917Y005491D02*
X001097Y005491D01*
X001097Y005550D02*
X000917Y005550D01*
X000917Y005608D02*
X001097Y005608D01*
X001142Y005667D02*
X000917Y005667D01*
X000917Y005725D02*
X001200Y005725D01*
X001259Y005784D02*
X000917Y005784D01*
X000917Y005842D02*
X001317Y005842D01*
X002517Y005842D02*
X002708Y005842D01*
X002700Y005850D02*
X002753Y005797D01*
X003221Y005797D01*
X003237Y005813D01*
X003253Y005797D01*
X003390Y005797D01*
X003357Y005764D01*
X003357Y005623D01*
X003253Y005623D01*
X003200Y005570D01*
X003200Y005319D01*
X002753Y005319D01*
X002700Y005266D01*
X002700Y005250D01*
X002517Y005250D01*
X002517Y006125D01*
X002700Y006125D01*
X002700Y005850D01*
X002700Y005901D02*
X002517Y005901D01*
X002517Y005959D02*
X002700Y005959D01*
X002700Y006018D02*
X002517Y006018D01*
X002517Y006076D02*
X002700Y006076D01*
X002517Y005784D02*
X003376Y005784D01*
X003357Y005725D02*
X002517Y005725D01*
X002517Y005667D02*
X003357Y005667D01*
X003238Y005608D02*
X002517Y005608D01*
X002517Y005550D02*
X003200Y005550D01*
X003200Y005491D02*
X002517Y005491D01*
X002517Y005433D02*
X003200Y005433D01*
X003200Y005374D02*
X002517Y005374D01*
X002517Y005316D02*
X002749Y005316D01*
X002700Y005257D02*
X002517Y005257D01*
X003274Y004672D02*
X006297Y004672D01*
X006297Y004614D02*
X004541Y004614D01*
X004338Y004614D01*
X004322Y004630D01*
X003990Y004630D01*
X003937Y004577D01*
X003937Y004390D01*
X003942Y004385D01*
X003937Y004380D01*
X003937Y004193D01*
X003942Y004188D01*
X003937Y004183D01*
X003937Y003997D01*
X003942Y003991D01*
X003937Y003986D01*
X003937Y003800D01*
X003942Y003795D01*
X003937Y003790D01*
X003937Y003629D01*
X003774Y003629D01*
X003774Y003820D01*
X003721Y003873D01*
X003253Y003873D01*
X003200Y003820D01*
X003200Y003529D01*
X003253Y003476D01*
X003357Y003476D01*
X003357Y003444D01*
X003253Y003444D01*
X003200Y003391D01*
X003200Y003100D01*
X003253Y003047D01*
X003721Y003047D01*
X003732Y003058D01*
X003732Y002862D01*
X003721Y002873D01*
X003253Y002873D01*
X003237Y002857D01*
X003221Y002873D01*
X002753Y002873D01*
X002700Y002820D01*
X002700Y002529D01*
X002753Y002476D01*
X003221Y002476D01*
X003237Y002492D01*
X003253Y002476D01*
X003356Y002476D01*
X003324Y002444D01*
X003324Y001976D01*
X003377Y001923D01*
X003668Y001923D01*
X003720Y001976D01*
X003720Y002224D01*
X003992Y002496D01*
X003992Y003156D01*
X004322Y003156D01*
X004375Y003209D01*
X004375Y003396D01*
X004370Y003401D01*
X004375Y003406D01*
X004375Y003566D01*
X004683Y003566D01*
X004857Y003392D01*
X004857Y003122D01*
X004627Y003122D01*
X004574Y003069D01*
X004574Y002601D01*
X004627Y002548D01*
X004918Y002548D01*
X004970Y002601D01*
X004970Y002705D01*
X005003Y002705D01*
X005003Y002601D01*
X005056Y002548D01*
X005347Y002548D01*
X005399Y002601D01*
X005399Y003069D01*
X005347Y003122D01*
X005117Y003122D01*
X005117Y003500D01*
X005041Y003576D01*
X005041Y003576D01*
X004791Y003826D01*
X004375Y003826D01*
X004375Y003888D01*
X004433Y003830D01*
X005263Y003830D01*
X006003Y002878D01*
X006003Y002601D01*
X006056Y002548D01*
X006347Y002548D01*
X006399Y002601D01*
X006399Y003069D01*
X006347Y003122D01*
X006143Y003122D01*
X005456Y004005D01*
X005456Y004014D01*
X005424Y004046D01*
X005396Y004082D01*
X005387Y004083D01*
X005380Y004090D01*
X005334Y004090D01*
X005289Y004096D01*
X005282Y004090D01*
X004617Y004090D01*
X004617Y004537D01*
X004541Y004614D01*
X004599Y004555D02*
X006297Y004555D01*
X006297Y004497D02*
X004617Y004497D01*
X004617Y004438D02*
X006297Y004438D01*
X006297Y004380D02*
X004617Y004380D01*
X004617Y004321D02*
X006297Y004321D01*
X006297Y004263D02*
X004617Y004263D01*
X004617Y004204D02*
X006297Y004204D01*
X006297Y004146D02*
X004617Y004146D01*
X004410Y003853D02*
X004375Y003853D01*
X004375Y003561D02*
X004689Y003561D01*
X004747Y003502D02*
X004375Y003502D01*
X004375Y003444D02*
X004806Y003444D01*
X004857Y003385D02*
X004375Y003385D01*
X004375Y003327D02*
X004857Y003327D01*
X004857Y003268D02*
X004375Y003268D01*
X004375Y003210D02*
X004857Y003210D01*
X004857Y003151D02*
X003992Y003151D01*
X003992Y003093D02*
X004026Y003093D01*
X004003Y003069D02*
X004056Y003122D01*
X004347Y003122D01*
X004399Y003069D01*
X004399Y002601D01*
X004347Y002548D01*
X004331Y002548D01*
X004331Y002299D01*
X004393Y002238D01*
X004393Y002285D01*
X004445Y002337D01*
X005111Y002337D01*
X005163Y002285D01*
X005163Y000635D01*
X005111Y000583D01*
X004445Y000583D01*
X004393Y000635D01*
X004393Y001210D01*
X003937Y001210D01*
X003937Y001147D01*
X003884Y001094D01*
X003455Y001094D01*
X003403Y001147D01*
X003403Y001308D01*
X003330Y001235D01*
X003143Y001235D01*
X003012Y001367D01*
X003012Y001553D01*
X003143Y001685D01*
X003330Y001685D01*
X003403Y001612D01*
X003403Y001773D01*
X003455Y001826D01*
X003884Y001826D01*
X003937Y001773D01*
X003937Y001710D01*
X004393Y001710D01*
X004393Y001870D01*
X004071Y002192D01*
X004071Y002548D01*
X004056Y002548D01*
X004003Y002601D01*
X004003Y003069D01*
X004003Y003034D02*
X003992Y003034D01*
X003992Y002976D02*
X004003Y002976D01*
X004003Y002917D02*
X003992Y002917D01*
X003992Y002859D02*
X004003Y002859D01*
X004003Y002800D02*
X003992Y002800D01*
X003992Y002742D02*
X004003Y002742D01*
X004003Y002683D02*
X003992Y002683D01*
X003992Y002625D02*
X004003Y002625D01*
X003992Y002566D02*
X004038Y002566D01*
X004071Y002508D02*
X003992Y002508D01*
X003945Y002449D02*
X004071Y002449D01*
X004071Y002391D02*
X003886Y002391D01*
X003828Y002332D02*
X004071Y002332D01*
X004071Y002274D02*
X003769Y002274D01*
X003720Y002215D02*
X004071Y002215D01*
X004106Y002157D02*
X003720Y002157D01*
X003720Y002098D02*
X004165Y002098D01*
X004223Y002040D02*
X003720Y002040D01*
X003720Y001981D02*
X004282Y001981D01*
X004340Y001923D02*
X000917Y001923D01*
X000917Y001981D02*
X003324Y001981D01*
X003324Y002040D02*
X000917Y002040D01*
X000917Y002098D02*
X003324Y002098D01*
X003324Y002157D02*
X000917Y002157D01*
X000917Y002215D02*
X003324Y002215D01*
X003324Y002274D02*
X000917Y002274D01*
X000917Y002332D02*
X003324Y002332D01*
X003324Y002391D02*
X000917Y002391D01*
X000917Y002449D02*
X003329Y002449D01*
X003238Y002859D02*
X003235Y002859D01*
X003207Y003093D02*
X001671Y003093D01*
X001648Y003070D02*
X001877Y003298D01*
X001877Y003622D01*
X001648Y003850D01*
X001325Y003850D01*
X001097Y003622D01*
X001097Y003298D01*
X001325Y003070D01*
X001648Y003070D01*
X001729Y003151D02*
X003200Y003151D01*
X003200Y003210D02*
X001788Y003210D01*
X001846Y003268D02*
X003200Y003268D01*
X003200Y003327D02*
X001877Y003327D01*
X001877Y003385D02*
X003200Y003385D01*
X003252Y003444D02*
X001877Y003444D01*
X001877Y003502D02*
X003227Y003502D01*
X003200Y003561D02*
X001877Y003561D01*
X001877Y003619D02*
X003200Y003619D01*
X003200Y003678D02*
X001821Y003678D01*
X001762Y003736D02*
X002592Y003736D01*
X002781Y003736D02*
X003200Y003736D01*
X003200Y003795D02*
X002839Y003795D01*
X002898Y003853D02*
X003233Y003853D01*
X003261Y004087D02*
X003937Y004087D01*
X003937Y004029D02*
X002912Y004029D01*
X002912Y003970D02*
X003937Y003970D01*
X003937Y003912D02*
X002912Y003912D01*
X003274Y004146D02*
X003937Y004146D01*
X003937Y004204D02*
X003274Y004204D01*
X003274Y004263D02*
X003937Y004263D01*
X003937Y004321D02*
X003274Y004321D01*
X003274Y004380D02*
X003937Y004380D01*
X003937Y004438D02*
X003274Y004438D01*
X003274Y004497D02*
X003937Y004497D01*
X003937Y004555D02*
X003274Y004555D01*
X003274Y004614D02*
X003974Y004614D01*
X003850Y004789D02*
X006297Y004789D01*
X006297Y004731D02*
X003791Y004731D01*
X003908Y004848D02*
X006297Y004848D01*
X006297Y004906D02*
X004637Y004906D01*
X004695Y004965D02*
X006297Y004965D01*
X006297Y005023D02*
X004712Y005023D01*
X004712Y005082D02*
X006297Y005082D01*
X006297Y005140D02*
X004712Y005140D01*
X004681Y005199D02*
X006297Y005199D01*
X006297Y005257D02*
X004622Y005257D01*
X004375Y005316D02*
X006297Y005316D01*
X006297Y005374D02*
X004365Y005374D01*
X004353Y005550D02*
X006297Y005550D01*
X006297Y005608D02*
X004375Y005608D01*
X004375Y005667D02*
X006297Y005667D01*
X006297Y005725D02*
X004375Y005725D01*
X004375Y005784D02*
X006297Y005784D01*
X006297Y005842D02*
X004375Y005842D01*
X004375Y005901D02*
X006297Y005901D01*
X006297Y005959D02*
X004371Y005959D01*
X004375Y006018D02*
X006297Y006018D01*
X006297Y006076D02*
X004375Y006076D01*
X004550Y006135D02*
X006297Y006135D01*
X006297Y006193D02*
X004608Y006193D01*
X004617Y006252D02*
X006297Y006252D01*
X006297Y006310D02*
X004617Y006310D01*
X004617Y006369D02*
X006297Y006369D01*
X006297Y006427D02*
X004617Y006427D01*
X004617Y006486D02*
X006297Y006486D01*
X006297Y006544D02*
X004617Y006544D01*
X004617Y006603D02*
X006297Y006603D01*
X006297Y006661D02*
X004617Y006661D01*
X004617Y006720D02*
X006297Y006720D01*
X006297Y006778D02*
X004617Y006778D01*
X004617Y006837D02*
X006297Y006837D01*
X006297Y006895D02*
X004617Y006895D01*
X004617Y006954D02*
X006297Y006954D01*
X006297Y007012D02*
X004617Y007012D01*
X004617Y007071D02*
X006297Y007071D01*
X006297Y007129D02*
X004617Y007129D01*
X004617Y007188D02*
X006297Y007188D01*
X006297Y007246D02*
X004617Y007246D01*
X004617Y007305D02*
X006297Y007305D01*
X006297Y007363D02*
X004617Y007363D01*
X004617Y007422D02*
X006297Y007422D01*
X006297Y007480D02*
X004617Y007480D01*
X004617Y007539D02*
X006297Y007539D01*
X006297Y007597D02*
X004617Y007597D01*
X004617Y007656D02*
X006297Y007656D01*
X006297Y007714D02*
X004590Y007714D01*
X004613Y007773D02*
X006297Y007773D01*
X006297Y007831D02*
X004671Y007831D01*
X004730Y007890D02*
X006297Y007890D01*
X006297Y007948D02*
X004788Y007948D01*
X004847Y008007D02*
X006297Y008007D01*
X006297Y008065D02*
X004905Y008065D01*
X004964Y008124D02*
X006297Y008124D01*
X006297Y008182D02*
X005022Y008182D01*
X005081Y008241D02*
X006297Y008241D01*
X006297Y008299D02*
X005117Y008299D01*
X005117Y008358D02*
X006297Y008358D01*
X006297Y008520D02*
X005117Y008520D01*
X005117Y009799D01*
X005041Y009875D01*
X004615Y009875D01*
X004554Y009936D01*
X005001Y009936D01*
X005016Y009921D01*
X005642Y009921D01*
X005695Y009974D01*
X005695Y010159D01*
X005689Y010165D01*
X005695Y010171D01*
X006987Y010171D01*
X006987Y010113D02*
X005695Y010113D01*
X005695Y010171D02*
X005695Y010356D01*
X005642Y010408D01*
X005016Y010408D01*
X004964Y010356D01*
X004964Y010196D01*
X004492Y010196D01*
X004492Y010272D01*
X004587Y010367D01*
X004587Y010553D01*
X004492Y010648D01*
X004492Y010908D01*
X004416Y010984D01*
X003972Y010984D01*
X003957Y010999D01*
X003495Y010999D01*
X003826Y011330D01*
X005548Y011330D01*
X005643Y011235D01*
X005830Y011235D01*
X005962Y011367D01*
X005962Y011553D01*
X005935Y011580D01*
X006987Y011580D01*
X006987Y008761D01*
X006984Y008764D01*
X006651Y008764D01*
X006645Y008757D01*
X006379Y008757D01*
X006297Y008675D01*
X006297Y008520D01*
X006297Y008533D02*
X005117Y008533D01*
X005117Y008592D02*
X006297Y008592D01*
X006297Y008650D02*
X005117Y008650D01*
X005117Y008709D02*
X006330Y008709D01*
X006987Y008767D02*
X005117Y008767D01*
X005117Y008826D02*
X006987Y008826D01*
X006987Y008884D02*
X005117Y008884D01*
X005117Y008943D02*
X006987Y008943D01*
X006987Y009001D02*
X005117Y009001D01*
X005117Y009060D02*
X006987Y009060D01*
X006987Y009118D02*
X005117Y009118D01*
X005117Y009177D02*
X006987Y009177D01*
X006987Y009235D02*
X005117Y009235D01*
X005117Y009294D02*
X006987Y009294D01*
X006987Y009352D02*
X005117Y009352D01*
X005117Y009411D02*
X006987Y009411D01*
X006987Y009469D02*
X005117Y009469D01*
X005117Y009528D02*
X006987Y009528D01*
X006987Y009586D02*
X005117Y009586D01*
X005117Y009645D02*
X006987Y009645D01*
X006987Y009703D02*
X005117Y009703D01*
X005117Y009762D02*
X006987Y009762D01*
X006987Y009820D02*
X005096Y009820D01*
X004857Y009615D02*
X004857Y009497D01*
X004627Y009497D01*
X004574Y009444D01*
X004574Y008976D01*
X004627Y008923D01*
X004642Y008923D01*
X004642Y008724D01*
X004468Y008551D01*
X004338Y008551D01*
X004322Y008567D01*
X003990Y008567D01*
X003943Y008520D01*
X002617Y008520D01*
X002617Y011522D01*
X002712Y011617D01*
X002712Y011803D01*
X002580Y011935D01*
X002393Y011935D01*
X002262Y011803D01*
X002262Y011617D01*
X002357Y011522D01*
X002357Y008774D01*
X002291Y008840D01*
X001854Y009276D01*
X001877Y009298D01*
X001877Y009622D01*
X001648Y009850D01*
X001325Y009850D01*
X001097Y009622D01*
X001097Y009298D01*
X001325Y009070D01*
X001648Y009070D01*
X001671Y009092D01*
X002107Y008656D01*
X002107Y008520D01*
X001877Y008520D01*
X001877Y008622D01*
X001648Y008850D01*
X001325Y008850D01*
X001097Y008622D01*
X001097Y008520D01*
X000917Y008520D01*
X000917Y016960D01*
X002019Y016960D01*
X002003Y016944D01*
X002003Y016600D01*
X001877Y016600D01*
X001877Y016622D01*
X001648Y016850D01*
X001325Y016850D01*
X001097Y016622D01*
X001097Y016298D01*
X001325Y016070D01*
X001648Y016070D01*
X001877Y016298D01*
X001877Y016320D01*
X002003Y016320D01*
X002003Y015976D01*
X002019Y015960D01*
X002003Y015944D01*
X002003Y015600D01*
X001877Y015600D01*
X001877Y015622D01*
X001648Y015850D01*
X001325Y015850D01*
X001097Y015622D01*
X001097Y015298D01*
X001325Y015070D01*
X001648Y015070D01*
X001877Y015298D01*
X001877Y015320D01*
X002003Y015320D01*
X002003Y014976D01*
X002019Y014960D01*
X002003Y014944D01*
X002003Y014600D01*
X001877Y014600D01*
X001877Y014622D01*
X001648Y014850D01*
X001325Y014850D01*
X001097Y014622D01*
X001097Y014298D01*
X001325Y014070D01*
X001648Y014070D01*
X001877Y014298D01*
X001877Y014320D01*
X002003Y014320D01*
X002003Y013976D01*
X002019Y013960D01*
X002003Y013944D01*
X002003Y013600D01*
X001877Y013600D01*
X001877Y013622D01*
X001648Y013850D01*
X001325Y013850D01*
X001097Y013622D01*
X001097Y013298D01*
X001325Y013070D01*
X001648Y013070D01*
X001877Y013298D01*
X001877Y013320D01*
X002003Y013320D01*
X002003Y012976D01*
X002019Y012960D01*
X002003Y012944D01*
X002003Y012600D01*
X001877Y012600D01*
X001877Y012622D01*
X001648Y012850D01*
X001325Y012850D01*
X001097Y012622D01*
X001097Y012298D01*
X001325Y012070D01*
X001648Y012070D01*
X001877Y012298D01*
X001877Y012320D01*
X002003Y012320D01*
X002003Y011976D01*
X002056Y011923D01*
X002347Y011923D01*
X002399Y011976D01*
X002399Y012444D01*
X002384Y012460D01*
X002399Y012476D01*
X002399Y012944D01*
X002384Y012960D01*
X002399Y012976D01*
X002399Y013444D01*
X002384Y013460D01*
X002399Y013476D01*
X002399Y013944D01*
X002384Y013960D01*
X002399Y013976D01*
X002399Y014444D01*
X002384Y014460D01*
X002399Y014476D01*
X002399Y014944D01*
X002384Y014960D01*
X002399Y014976D01*
X002399Y015444D01*
X002384Y015460D01*
X002399Y015476D01*
X002399Y015944D01*
X002384Y015960D01*
X002399Y015976D01*
X002399Y016444D01*
X002384Y016460D01*
X002399Y016476D01*
X002399Y016944D01*
X002384Y016960D01*
X003607Y016960D01*
X003607Y016944D01*
X003503Y016944D01*
X003450Y016891D01*
X003450Y016600D01*
X003503Y016547D01*
X003607Y016547D01*
X003607Y016406D01*
X003640Y016373D01*
X003503Y016373D01*
X003450Y016320D01*
X003450Y016029D01*
X003503Y015976D01*
X003971Y015976D01*
X003987Y015992D01*
X004003Y015976D01*
X004097Y015976D01*
X004097Y015802D01*
X004084Y015815D01*
X003889Y015815D01*
X003862Y015787D01*
X003834Y015815D01*
X003639Y015815D01*
X003587Y015762D01*
X003587Y015670D01*
X003510Y015670D01*
X003587Y015670D01*
X003587Y015729D02*
X003452Y015729D01*
X003393Y015787D02*
X003611Y015787D01*
X003510Y015670D02*
X002970Y016210D01*
X002970Y016444D01*
X002918Y016497D01*
X002627Y016497D01*
X002574Y016444D01*
X002574Y015976D01*
X002627Y015923D01*
X002861Y015923D01*
X003394Y015390D01*
X003587Y015390D01*
X003587Y015298D01*
X003639Y015245D01*
X003834Y015245D01*
X003862Y015273D01*
X003889Y015245D01*
X004084Y015245D01*
X004112Y015273D01*
X004139Y015245D01*
X004334Y015245D01*
X004347Y015258D01*
X004347Y015168D01*
X004330Y015185D01*
X004143Y015185D01*
X004012Y015053D01*
X004012Y014867D01*
X004028Y014850D01*
X003214Y014850D01*
X002861Y014497D01*
X002627Y014497D01*
X002574Y014444D01*
X002574Y013976D01*
X002627Y013923D01*
X002918Y013923D01*
X002970Y013976D01*
X002970Y014210D01*
X003330Y014570D01*
X005045Y014570D01*
X005127Y014652D01*
X005127Y015258D01*
X005139Y015245D01*
X005334Y015245D01*
X005387Y015298D01*
X005387Y015762D01*
X005334Y015815D01*
X005139Y015815D01*
X005112Y015787D01*
X005084Y015815D01*
X004889Y015815D01*
X004877Y015802D01*
X004877Y015976D01*
X004971Y015976D01*
X004987Y015992D01*
X005003Y015976D01*
X005471Y015976D01*
X005524Y016029D01*
X005524Y016320D01*
X005514Y016330D01*
X006987Y016330D01*
X006987Y012685D01*
X006893Y012685D01*
X006798Y012590D01*
X005514Y012590D01*
X005524Y012600D01*
X005524Y012891D01*
X005471Y012944D01*
X005003Y012944D01*
X004987Y012928D01*
X004971Y012944D01*
X004877Y012944D01*
X004877Y013118D01*
X004889Y013105D01*
X005084Y013105D01*
X005112Y013133D01*
X005139Y013105D01*
X005334Y013105D01*
X005387Y013158D01*
X005387Y013622D01*
X005334Y013675D01*
X005139Y013675D01*
X005127Y013662D01*
X005127Y014268D01*
X005045Y014350D01*
X003714Y014350D01*
X002861Y013497D01*
X002627Y013497D01*
X002574Y013444D01*
X002574Y012976D01*
X002627Y012923D01*
X002918Y012923D01*
X002970Y012976D01*
X002970Y013210D01*
X003830Y014070D01*
X004028Y014070D01*
X004012Y014053D01*
X004012Y013867D01*
X004143Y013735D01*
X004330Y013735D01*
X004357Y013762D01*
X004357Y013652D01*
X004334Y013675D01*
X004139Y013675D01*
X004112Y013647D01*
X004084Y013675D01*
X003889Y013675D01*
X003862Y013647D01*
X003834Y013675D01*
X003639Y013675D01*
X003587Y013622D01*
X003587Y013438D01*
X003179Y013030D01*
X003097Y012948D01*
X003097Y012733D01*
X002861Y012497D01*
X002627Y012497D01*
X002574Y012444D01*
X002574Y011976D01*
X002627Y011923D01*
X002918Y011923D01*
X002970Y011976D01*
X002970Y012210D01*
X003377Y012617D01*
X003377Y012832D01*
X003650Y013105D01*
X003834Y013105D01*
X003862Y013133D01*
X003889Y013105D01*
X004084Y013105D01*
X004097Y013118D01*
X004097Y012944D01*
X004003Y012944D01*
X003987Y012928D01*
X003971Y012944D01*
X003503Y012944D01*
X003450Y012891D01*
X003450Y012600D01*
X003503Y012547D01*
X003971Y012547D01*
X003987Y012563D01*
X004003Y012547D01*
X004140Y012547D01*
X004107Y012514D01*
X004107Y012373D01*
X004003Y012373D01*
X003987Y012357D01*
X003971Y012373D01*
X003503Y012373D01*
X003450Y012320D01*
X003450Y012029D01*
X003503Y011976D01*
X003607Y011976D01*
X003607Y011656D01*
X003683Y011580D01*
X003708Y011580D01*
X003001Y010873D01*
X002753Y010873D01*
X002700Y010820D01*
X002700Y010529D01*
X002753Y010476D01*
X003001Y010476D01*
X003034Y010444D01*
X002753Y010444D01*
X002700Y010391D01*
X002700Y010100D01*
X002753Y010047D01*
X003221Y010047D01*
X003274Y010100D01*
X003274Y010133D01*
X003279Y010133D01*
X003279Y009974D01*
X003323Y009929D01*
X003244Y009850D01*
X003221Y009873D01*
X002753Y009873D01*
X002700Y009820D01*
X002617Y009820D01*
X002617Y009762D02*
X002700Y009762D01*
X002700Y009820D02*
X002700Y009529D01*
X002753Y009476D01*
X003221Y009476D01*
X003274Y009529D01*
X003274Y009545D01*
X003306Y009545D01*
X003683Y009921D01*
X003957Y009921D01*
X004010Y009974D01*
X004010Y010159D01*
X004004Y010165D01*
X004010Y010171D01*
X004232Y010171D01*
X004232Y010113D02*
X004010Y010113D01*
X004010Y010171D02*
X004010Y010356D01*
X004004Y010362D01*
X004010Y010368D01*
X004010Y010552D01*
X004004Y010558D01*
X004010Y010564D01*
X004010Y010724D01*
X004232Y010724D01*
X004232Y010648D01*
X004137Y010553D01*
X004137Y010367D01*
X004232Y010272D01*
X004232Y010012D01*
X004304Y009941D01*
X004202Y009839D01*
X004202Y009652D01*
X004333Y009520D01*
X004520Y009520D01*
X004615Y009615D01*
X004857Y009615D01*
X004857Y009586D02*
X004585Y009586D01*
X004527Y009528D02*
X004857Y009528D01*
X004599Y009469D02*
X002617Y009469D01*
X002617Y009411D02*
X004574Y009411D01*
X004574Y009352D02*
X002617Y009352D01*
X002617Y009294D02*
X004574Y009294D01*
X004574Y009235D02*
X002617Y009235D01*
X002617Y009177D02*
X004574Y009177D01*
X004574Y009118D02*
X002617Y009118D01*
X002617Y009060D02*
X004574Y009060D01*
X004574Y009001D02*
X002617Y009001D01*
X002617Y008943D02*
X004607Y008943D01*
X004642Y008884D02*
X002617Y008884D01*
X002617Y008826D02*
X004642Y008826D01*
X004642Y008767D02*
X002617Y008767D01*
X002617Y008709D02*
X004626Y008709D01*
X004568Y008650D02*
X002617Y008650D01*
X002617Y008592D02*
X004509Y008592D01*
X003956Y008533D02*
X002617Y008533D01*
X002357Y008826D02*
X002305Y008826D01*
X002357Y008884D02*
X002246Y008884D01*
X002188Y008943D02*
X002357Y008943D01*
X002357Y009001D02*
X002129Y009001D01*
X002071Y009060D02*
X002357Y009060D01*
X002357Y009118D02*
X002012Y009118D01*
X001954Y009177D02*
X002357Y009177D01*
X002357Y009235D02*
X001895Y009235D01*
X001872Y009294D02*
X002357Y009294D01*
X002357Y009352D02*
X001877Y009352D01*
X001877Y009411D02*
X002357Y009411D01*
X002357Y009469D02*
X001877Y009469D01*
X001877Y009528D02*
X002357Y009528D01*
X002357Y009586D02*
X001877Y009586D01*
X001854Y009645D02*
X002357Y009645D01*
X002357Y009703D02*
X001795Y009703D01*
X001737Y009762D02*
X002357Y009762D01*
X002357Y009820D02*
X001678Y009820D01*
X001648Y010070D02*
X001877Y010298D01*
X001877Y010622D01*
X001648Y010850D01*
X001325Y010850D01*
X001097Y010622D01*
X001097Y010298D01*
X001325Y010070D01*
X001648Y010070D01*
X001691Y010113D02*
X002357Y010113D01*
X002357Y010171D02*
X001749Y010171D01*
X001808Y010230D02*
X002357Y010230D01*
X002357Y010288D02*
X001866Y010288D01*
X001877Y010347D02*
X002357Y010347D01*
X002357Y010405D02*
X001877Y010405D01*
X001877Y010464D02*
X002357Y010464D01*
X002357Y010522D02*
X001877Y010522D01*
X001877Y010581D02*
X002357Y010581D01*
X002357Y010639D02*
X001859Y010639D01*
X001801Y010698D02*
X002357Y010698D01*
X002357Y010756D02*
X001742Y010756D01*
X001684Y010815D02*
X002357Y010815D01*
X002357Y010873D02*
X000917Y010873D01*
X000917Y010815D02*
X001290Y010815D01*
X001231Y010756D02*
X000917Y010756D01*
X000917Y010698D02*
X001173Y010698D01*
X001114Y010639D02*
X000917Y010639D01*
X000917Y010581D02*
X001097Y010581D01*
X001097Y010522D02*
X000917Y010522D01*
X000917Y010464D02*
X001097Y010464D01*
X001097Y010405D02*
X000917Y010405D01*
X000917Y010347D02*
X001097Y010347D01*
X001107Y010288D02*
X000917Y010288D01*
X000917Y010230D02*
X001166Y010230D01*
X001224Y010171D02*
X000917Y010171D01*
X000917Y010113D02*
X001283Y010113D01*
X001295Y009820D02*
X000917Y009820D01*
X000917Y009762D02*
X001237Y009762D01*
X001178Y009703D02*
X000917Y009703D01*
X000917Y009645D02*
X001120Y009645D01*
X001097Y009586D02*
X000917Y009586D01*
X000917Y009528D02*
X001097Y009528D01*
X001097Y009469D02*
X000917Y009469D01*
X000917Y009411D02*
X001097Y009411D01*
X001097Y009352D02*
X000917Y009352D01*
X000917Y009294D02*
X001102Y009294D01*
X001160Y009235D02*
X000917Y009235D01*
X000917Y009177D02*
X001219Y009177D01*
X001277Y009118D02*
X000917Y009118D01*
X000917Y009060D02*
X001703Y009060D01*
X001762Y009001D02*
X000917Y009001D01*
X000917Y008943D02*
X001820Y008943D01*
X001879Y008884D02*
X000917Y008884D01*
X000917Y008826D02*
X001301Y008826D01*
X001242Y008767D02*
X000917Y008767D01*
X000917Y008709D02*
X001184Y008709D01*
X001125Y008650D02*
X000917Y008650D01*
X000917Y008592D02*
X001097Y008592D01*
X001097Y008533D02*
X000917Y008533D01*
X000917Y008065D02*
X001698Y008065D01*
X001756Y008007D02*
X000917Y008007D01*
X000917Y007948D02*
X001815Y007948D01*
X001857Y007890D02*
X000917Y007890D01*
X001667Y007831D02*
X001857Y007831D01*
X001857Y007773D02*
X001726Y007773D01*
X001784Y007714D02*
X001857Y007714D01*
X001857Y007656D02*
X001843Y007656D01*
X002367Y007656D02*
X003937Y007656D01*
X003937Y007714D02*
X002367Y007714D01*
X002367Y007773D02*
X003937Y007773D01*
X003937Y007737D02*
X003942Y007732D01*
X003937Y007727D01*
X003937Y007566D01*
X002367Y007566D01*
X002367Y008160D01*
X002433Y008094D01*
X003937Y008094D01*
X003937Y007934D01*
X003942Y007929D01*
X003937Y007923D01*
X003937Y007737D01*
X003937Y007831D02*
X002367Y007831D01*
X002367Y007890D02*
X003937Y007890D01*
X003937Y007948D02*
X002367Y007948D01*
X002367Y008007D02*
X003937Y008007D01*
X003937Y008065D02*
X002367Y008065D01*
X002367Y008124D02*
X002403Y008124D01*
X002107Y008533D02*
X001877Y008533D01*
X001877Y008592D02*
X002107Y008592D01*
X002107Y008650D02*
X001848Y008650D01*
X001790Y008709D02*
X002054Y008709D01*
X001996Y008767D02*
X001731Y008767D01*
X001673Y008826D02*
X001937Y008826D01*
X002617Y009528D02*
X002701Y009528D01*
X002700Y009586D02*
X002617Y009586D01*
X002617Y009645D02*
X002700Y009645D01*
X002700Y009703D02*
X002617Y009703D01*
X002617Y009879D02*
X003273Y009879D01*
X003315Y009937D02*
X002617Y009937D01*
X002617Y009996D02*
X003279Y009996D01*
X003279Y010054D02*
X003228Y010054D01*
X003274Y010113D02*
X003279Y010113D01*
X003523Y009762D02*
X004202Y009762D01*
X004202Y009820D02*
X003582Y009820D01*
X003640Y009879D02*
X004242Y009879D01*
X004300Y009937D02*
X003973Y009937D01*
X004010Y009996D02*
X004249Y009996D01*
X004232Y010054D02*
X004010Y010054D01*
X004010Y010230D02*
X004232Y010230D01*
X004215Y010288D02*
X004010Y010288D01*
X004010Y010347D02*
X004157Y010347D01*
X004137Y010405D02*
X004010Y010405D01*
X004010Y010464D02*
X004137Y010464D01*
X004137Y010522D02*
X004010Y010522D01*
X004010Y010581D02*
X004164Y010581D01*
X004223Y010639D02*
X004010Y010639D01*
X004010Y010698D02*
X004232Y010698D01*
X004492Y010698D02*
X004964Y010698D01*
X004964Y010749D02*
X004964Y010564D01*
X005016Y010512D01*
X005642Y010512D01*
X005657Y010527D01*
X005804Y010527D01*
X005880Y010603D01*
X005903Y010626D01*
X006300Y010626D01*
X006352Y010679D01*
X006352Y011108D01*
X006300Y011160D01*
X005674Y011160D01*
X005621Y011108D01*
X005621Y010802D01*
X005016Y010802D01*
X004964Y010749D01*
X004970Y010756D02*
X004492Y010756D01*
X004492Y010815D02*
X005621Y010815D01*
X005621Y010873D02*
X004492Y010873D01*
X004468Y010932D02*
X005621Y010932D01*
X005621Y010990D02*
X003966Y010990D01*
X003720Y011224D02*
X006987Y011224D01*
X006987Y011166D02*
X003661Y011166D01*
X003603Y011107D02*
X005621Y011107D01*
X005621Y011049D02*
X003544Y011049D01*
X003352Y011224D02*
X002617Y011224D01*
X002617Y011166D02*
X003294Y011166D01*
X003235Y011107D02*
X002617Y011107D01*
X002617Y011049D02*
X003177Y011049D01*
X003118Y010990D02*
X002617Y010990D01*
X002617Y010932D02*
X003060Y010932D01*
X003001Y010873D02*
X002617Y010873D01*
X002617Y010815D02*
X002700Y010815D01*
X002700Y010756D02*
X002617Y010756D01*
X002617Y010698D02*
X002700Y010698D01*
X002700Y010639D02*
X002617Y010639D01*
X002617Y010581D02*
X002700Y010581D01*
X002707Y010522D02*
X002617Y010522D01*
X002617Y010464D02*
X003014Y010464D01*
X002714Y010405D02*
X002617Y010405D01*
X002617Y010347D02*
X002700Y010347D01*
X002700Y010288D02*
X002617Y010288D01*
X002617Y010230D02*
X002700Y010230D01*
X002700Y010171D02*
X002617Y010171D01*
X002617Y010113D02*
X002700Y010113D01*
X002746Y010054D02*
X002617Y010054D01*
X002357Y010054D02*
X000917Y010054D01*
X000917Y009996D02*
X002357Y009996D01*
X002357Y009937D02*
X000917Y009937D01*
X000917Y009879D02*
X002357Y009879D01*
X003272Y009528D02*
X004326Y009528D01*
X004268Y009586D02*
X003348Y009586D01*
X003406Y009645D02*
X004209Y009645D01*
X004202Y009703D02*
X003465Y009703D01*
X004492Y010230D02*
X004964Y010230D01*
X004964Y010288D02*
X004508Y010288D01*
X004566Y010347D02*
X004964Y010347D01*
X005013Y010405D02*
X004587Y010405D01*
X004587Y010464D02*
X006987Y010464D01*
X006987Y010522D02*
X005652Y010522D01*
X005645Y010405D02*
X006987Y010405D01*
X006987Y010347D02*
X005695Y010347D01*
X005695Y010288D02*
X006987Y010288D01*
X006987Y010230D02*
X005695Y010230D01*
X005695Y010054D02*
X006987Y010054D01*
X006987Y009996D02*
X005695Y009996D01*
X005658Y009937D02*
X006987Y009937D01*
X006987Y009879D02*
X004612Y009879D01*
X004587Y010522D02*
X005006Y010522D01*
X004964Y010581D02*
X004559Y010581D01*
X004501Y010639D02*
X004964Y010639D01*
X005596Y011283D02*
X003778Y011283D01*
X003586Y011458D02*
X002617Y011458D01*
X002617Y011400D02*
X003528Y011400D01*
X003469Y011341D02*
X002617Y011341D01*
X002617Y011283D02*
X003411Y011283D01*
X003645Y011517D02*
X002617Y011517D01*
X002670Y011575D02*
X003703Y011575D01*
X003629Y011634D02*
X002712Y011634D01*
X002712Y011692D02*
X003607Y011692D01*
X003607Y011751D02*
X002712Y011751D01*
X002706Y011809D02*
X003607Y011809D01*
X003607Y011868D02*
X002647Y011868D01*
X002624Y011926D02*
X002589Y011926D01*
X002574Y011985D02*
X002399Y011985D01*
X002399Y012043D02*
X002574Y012043D01*
X002574Y012102D02*
X002399Y012102D01*
X002399Y012160D02*
X002574Y012160D01*
X002574Y012219D02*
X002399Y012219D01*
X002399Y012277D02*
X002574Y012277D01*
X002574Y012336D02*
X002399Y012336D01*
X002399Y012394D02*
X002574Y012394D01*
X002582Y012453D02*
X002391Y012453D01*
X002399Y012511D02*
X002875Y012511D01*
X002934Y012570D02*
X002399Y012570D01*
X002399Y012628D02*
X002992Y012628D01*
X003051Y012687D02*
X002399Y012687D01*
X002399Y012745D02*
X003097Y012745D01*
X003097Y012804D02*
X002399Y012804D01*
X002399Y012862D02*
X003097Y012862D01*
X003097Y012921D02*
X002399Y012921D01*
X002399Y012979D02*
X002574Y012979D01*
X002574Y013038D02*
X002399Y013038D01*
X002399Y013096D02*
X002574Y013096D01*
X002574Y013155D02*
X002399Y013155D01*
X002399Y013213D02*
X002574Y013213D01*
X002574Y013272D02*
X002399Y013272D01*
X002399Y013330D02*
X002574Y013330D01*
X002574Y013389D02*
X002399Y013389D01*
X002397Y013447D02*
X002577Y013447D01*
X002399Y013506D02*
X002870Y013506D01*
X002928Y013564D02*
X002399Y013564D01*
X002399Y013623D02*
X002987Y013623D01*
X003045Y013681D02*
X002399Y013681D01*
X002399Y013740D02*
X003104Y013740D01*
X003162Y013798D02*
X002399Y013798D01*
X002399Y013857D02*
X003221Y013857D01*
X003279Y013915D02*
X002399Y013915D01*
X002397Y013974D02*
X002576Y013974D01*
X002574Y014032D02*
X002399Y014032D01*
X002399Y014091D02*
X002574Y014091D01*
X002574Y014149D02*
X002399Y014149D01*
X002399Y014208D02*
X002574Y014208D01*
X002574Y014266D02*
X002399Y014266D01*
X002399Y014325D02*
X002574Y014325D01*
X002574Y014383D02*
X002399Y014383D01*
X002399Y014442D02*
X002574Y014442D01*
X002399Y014500D02*
X002864Y014500D01*
X002923Y014559D02*
X002399Y014559D01*
X002399Y014617D02*
X002981Y014617D01*
X003040Y014676D02*
X002399Y014676D01*
X002399Y014734D02*
X003098Y014734D01*
X003157Y014793D02*
X002399Y014793D01*
X002399Y014851D02*
X004027Y014851D01*
X004012Y014910D02*
X002399Y014910D01*
X002392Y014968D02*
X002582Y014968D01*
X002574Y014976D02*
X002627Y014923D01*
X002918Y014923D01*
X002970Y014976D01*
X002970Y015080D01*
X003048Y015080D01*
X003143Y014985D01*
X003330Y014985D01*
X003462Y015117D01*
X003462Y015303D01*
X003330Y015435D01*
X003143Y015435D01*
X003048Y015340D01*
X002970Y015340D01*
X002970Y015444D01*
X002918Y015497D01*
X002627Y015497D01*
X002574Y015444D01*
X002574Y014976D01*
X002574Y015027D02*
X002399Y015027D01*
X002399Y015085D02*
X002574Y015085D01*
X002574Y015144D02*
X002399Y015144D01*
X002399Y015202D02*
X002574Y015202D01*
X002574Y015261D02*
X002399Y015261D01*
X002399Y015319D02*
X002574Y015319D01*
X002574Y015378D02*
X002399Y015378D01*
X002399Y015436D02*
X002574Y015436D01*
X002624Y015495D02*
X002399Y015495D01*
X002399Y015553D02*
X003231Y015553D01*
X003290Y015495D02*
X002920Y015495D01*
X002970Y015436D02*
X003348Y015436D01*
X003387Y015378D02*
X003587Y015378D01*
X003587Y015319D02*
X003446Y015319D01*
X003462Y015261D02*
X003624Y015261D01*
X003462Y015202D02*
X004347Y015202D01*
X004124Y015261D02*
X004100Y015261D01*
X004102Y015144D02*
X003462Y015144D01*
X003430Y015085D02*
X004044Y015085D01*
X004012Y015027D02*
X003371Y015027D01*
X003102Y015027D02*
X002970Y015027D01*
X002963Y014968D02*
X004012Y014968D01*
X003874Y015261D02*
X003850Y015261D01*
X004097Y015846D02*
X003335Y015846D01*
X003276Y015904D02*
X004097Y015904D01*
X004097Y015963D02*
X003218Y015963D01*
X003159Y016021D02*
X003458Y016021D01*
X003450Y016080D02*
X003101Y016080D01*
X003042Y016138D02*
X003450Y016138D01*
X003450Y016197D02*
X002984Y016197D01*
X002970Y016255D02*
X003450Y016255D01*
X003450Y016314D02*
X002970Y016314D01*
X002970Y016372D02*
X003502Y016372D01*
X003607Y016431D02*
X002970Y016431D01*
X002925Y016489D02*
X003607Y016489D01*
X003502Y016548D02*
X002399Y016548D01*
X002399Y016606D02*
X003450Y016606D01*
X003450Y016665D02*
X002399Y016665D01*
X002399Y016723D02*
X003450Y016723D01*
X003450Y016782D02*
X002399Y016782D01*
X002399Y016840D02*
X003450Y016840D01*
X003457Y016899D02*
X002399Y016899D01*
X002387Y016957D02*
X003607Y016957D01*
X003607Y017080D02*
X000917Y017080D01*
X000917Y018690D01*
X000953Y018603D01*
X001130Y018426D01*
X001361Y018330D01*
X001612Y018330D01*
X001844Y018426D01*
X002021Y018603D01*
X002117Y018835D01*
X002117Y019085D01*
X002021Y019317D01*
X001844Y019494D01*
X001757Y019530D01*
X002367Y019530D01*
X002367Y017720D01*
X002437Y017650D01*
X003607Y017650D01*
X003607Y017080D01*
X003607Y017133D02*
X000917Y017133D01*
X000917Y017191D02*
X003607Y017191D01*
X003607Y017250D02*
X000917Y017250D01*
X000917Y017308D02*
X003607Y017308D01*
X003607Y017367D02*
X000917Y017367D01*
X000917Y017425D02*
X003607Y017425D01*
X003607Y017484D02*
X000917Y017484D01*
X000917Y017542D02*
X003607Y017542D01*
X003607Y017601D02*
X000917Y017601D01*
X000917Y017659D02*
X002428Y017659D01*
X002369Y017718D02*
X000917Y017718D01*
X000917Y017776D02*
X002367Y017776D01*
X002367Y017835D02*
X000917Y017835D01*
X000917Y017893D02*
X002367Y017893D01*
X002367Y017952D02*
X000917Y017952D01*
X000917Y018010D02*
X002367Y018010D01*
X002367Y018069D02*
X000917Y018069D01*
X000917Y018127D02*
X002367Y018127D01*
X002367Y018186D02*
X000917Y018186D01*
X000917Y018244D02*
X002367Y018244D01*
X002367Y018303D02*
X000917Y018303D01*
X000917Y018361D02*
X001286Y018361D01*
X001145Y018420D02*
X000917Y018420D01*
X000917Y018478D02*
X001078Y018478D01*
X001019Y018537D02*
X000917Y018537D01*
X000917Y018595D02*
X000961Y018595D01*
X000932Y018654D02*
X000917Y018654D01*
X001687Y018361D02*
X002367Y018361D01*
X002367Y018420D02*
X001828Y018420D01*
X001896Y018478D02*
X002367Y018478D01*
X002367Y018537D02*
X001954Y018537D01*
X002013Y018595D02*
X002367Y018595D01*
X002367Y018654D02*
X002042Y018654D01*
X002066Y018712D02*
X002367Y018712D01*
X002367Y018771D02*
X002090Y018771D01*
X002114Y018829D02*
X002367Y018829D01*
X002367Y018888D02*
X002117Y018888D01*
X002117Y018946D02*
X002367Y018946D01*
X002367Y019005D02*
X002117Y019005D01*
X002117Y019063D02*
X002367Y019063D01*
X002367Y019122D02*
X002102Y019122D01*
X002077Y019180D02*
X002367Y019180D01*
X002367Y019239D02*
X002053Y019239D01*
X002029Y019297D02*
X002367Y019297D01*
X002367Y019356D02*
X001982Y019356D01*
X001924Y019414D02*
X002367Y019414D01*
X002367Y019473D02*
X001865Y019473D01*
X002487Y019473D02*
X013927Y019473D01*
X013927Y019530D02*
X013927Y017840D01*
X004433Y017840D01*
X004363Y017770D01*
X002487Y017770D01*
X002487Y019530D01*
X013927Y019530D01*
X013927Y019414D02*
X002487Y019414D01*
X002487Y019356D02*
X013927Y019356D01*
X013927Y019297D02*
X002487Y019297D01*
X002487Y019239D02*
X013927Y019239D01*
X013927Y019180D02*
X002487Y019180D01*
X002487Y019122D02*
X013927Y019122D01*
X013927Y019063D02*
X002487Y019063D01*
X002487Y019005D02*
X013927Y019005D01*
X013927Y018946D02*
X002487Y018946D01*
X002487Y018888D02*
X013927Y018888D01*
X013927Y018829D02*
X002487Y018829D01*
X002487Y018771D02*
X013927Y018771D01*
X013927Y018712D02*
X002487Y018712D01*
X002487Y018654D02*
X013927Y018654D01*
X013927Y018595D02*
X002487Y018595D01*
X002487Y018537D02*
X013927Y018537D01*
X013927Y018478D02*
X002487Y018478D01*
X002487Y018420D02*
X006783Y018420D01*
X006759Y018395D02*
X006690Y018326D01*
X006686Y018322D01*
X006686Y018314D01*
X006659Y018340D01*
X006446Y018340D01*
X006391Y018285D01*
X006317Y018212D01*
X006317Y017943D01*
X006391Y017870D01*
X006659Y017870D01*
X006714Y017925D01*
X006737Y017947D01*
X006741Y017943D01*
X006814Y017870D01*
X007028Y017870D01*
X007068Y017910D01*
X007108Y017870D01*
X007267Y017870D01*
X007289Y017892D01*
X007311Y017870D01*
X007635Y017870D01*
X007708Y017943D01*
X007708Y017982D01*
X007726Y017947D01*
X007739Y017906D01*
X007748Y017902D01*
X007753Y017893D01*
X007794Y017879D01*
X007832Y017860D01*
X007842Y017863D01*
X007851Y017860D01*
X007890Y017879D01*
X007930Y017893D01*
X007935Y017902D01*
X007944Y017906D01*
X007957Y017947D01*
X008087Y018206D01*
X008054Y018304D01*
X007961Y018350D01*
X007863Y018317D01*
X007842Y018275D01*
X007820Y018317D01*
X007722Y018350D01*
X007694Y018336D01*
X007580Y018450D01*
X007366Y018450D01*
X007293Y018377D01*
X007238Y018322D01*
X007238Y018175D01*
X007156Y018175D01*
X007156Y018322D01*
X007101Y018377D01*
X007028Y018450D01*
X006814Y018450D01*
X006759Y018395D01*
X006725Y018361D02*
X002487Y018361D01*
X002487Y018303D02*
X006408Y018303D01*
X006350Y018244D02*
X002487Y018244D01*
X002487Y018186D02*
X006317Y018186D01*
X006317Y018127D02*
X002487Y018127D01*
X002487Y018069D02*
X006317Y018069D01*
X006317Y018010D02*
X002487Y018010D01*
X002487Y017952D02*
X006317Y017952D01*
X006368Y017893D02*
X002487Y017893D01*
X002487Y017835D02*
X004427Y017835D01*
X004369Y017776D02*
X002487Y017776D01*
X002016Y016957D02*
X000917Y016957D01*
X000917Y016899D02*
X002003Y016899D01*
X002003Y016840D02*
X001658Y016840D01*
X001717Y016782D02*
X002003Y016782D01*
X002003Y016723D02*
X001775Y016723D01*
X001834Y016665D02*
X002003Y016665D01*
X002003Y016606D02*
X001877Y016606D01*
X001877Y016314D02*
X002003Y016314D01*
X002003Y016255D02*
X001833Y016255D01*
X001775Y016197D02*
X002003Y016197D01*
X002003Y016138D02*
X001716Y016138D01*
X001658Y016080D02*
X002003Y016080D01*
X002003Y016021D02*
X000917Y016021D01*
X000917Y015963D02*
X002016Y015963D01*
X002003Y015904D02*
X000917Y015904D01*
X000917Y015846D02*
X001321Y015846D01*
X001262Y015787D02*
X000917Y015787D01*
X000917Y015729D02*
X001204Y015729D01*
X001145Y015670D02*
X000917Y015670D01*
X000917Y015612D02*
X001097Y015612D01*
X001097Y015553D02*
X000917Y015553D01*
X000917Y015495D02*
X001097Y015495D01*
X001097Y015436D02*
X000917Y015436D01*
X000917Y015378D02*
X001097Y015378D01*
X001097Y015319D02*
X000917Y015319D01*
X000917Y015261D02*
X001135Y015261D01*
X001193Y015202D02*
X000917Y015202D01*
X000917Y015144D02*
X001252Y015144D01*
X001310Y015085D02*
X000917Y015085D01*
X000917Y015027D02*
X002003Y015027D01*
X002003Y015085D02*
X001663Y015085D01*
X001722Y015144D02*
X002003Y015144D01*
X002003Y015202D02*
X001780Y015202D01*
X001839Y015261D02*
X002003Y015261D01*
X002003Y015319D02*
X001877Y015319D01*
X001877Y015612D02*
X002003Y015612D01*
X002003Y015670D02*
X001828Y015670D01*
X001770Y015729D02*
X002003Y015729D01*
X002003Y015787D02*
X001711Y015787D01*
X001653Y015846D02*
X002003Y015846D01*
X002399Y015846D02*
X002939Y015846D01*
X002997Y015787D02*
X002399Y015787D01*
X002399Y015729D02*
X003056Y015729D01*
X003114Y015670D02*
X002399Y015670D01*
X002399Y015612D02*
X003173Y015612D01*
X003086Y015378D02*
X002970Y015378D01*
X002880Y015904D02*
X002399Y015904D01*
X002386Y015963D02*
X002587Y015963D01*
X002574Y016021D02*
X002399Y016021D01*
X002399Y016080D02*
X002574Y016080D01*
X002574Y016138D02*
X002399Y016138D01*
X002399Y016197D02*
X002574Y016197D01*
X002574Y016255D02*
X002399Y016255D01*
X002399Y016314D02*
X002574Y016314D01*
X002574Y016372D02*
X002399Y016372D01*
X002399Y016431D02*
X002574Y016431D01*
X002619Y016489D02*
X002399Y016489D01*
X001315Y016840D02*
X000917Y016840D01*
X000917Y016782D02*
X001257Y016782D01*
X001198Y016723D02*
X000917Y016723D01*
X000917Y016665D02*
X001140Y016665D01*
X001097Y016606D02*
X000917Y016606D01*
X000917Y016548D02*
X001097Y016548D01*
X001097Y016489D02*
X000917Y016489D01*
X000917Y016431D02*
X001097Y016431D01*
X001097Y016372D02*
X000917Y016372D01*
X000917Y016314D02*
X001097Y016314D01*
X001140Y016255D02*
X000917Y016255D01*
X000917Y016197D02*
X001199Y016197D01*
X001257Y016138D02*
X000917Y016138D01*
X000917Y016080D02*
X001316Y016080D01*
X000917Y014968D02*
X002011Y014968D01*
X002003Y014910D02*
X000917Y014910D01*
X000917Y014851D02*
X002003Y014851D01*
X002003Y014793D02*
X001706Y014793D01*
X001764Y014734D02*
X002003Y014734D01*
X002003Y014676D02*
X001823Y014676D01*
X001877Y014617D02*
X002003Y014617D01*
X002003Y014266D02*
X001844Y014266D01*
X001786Y014208D02*
X002003Y014208D01*
X002003Y014149D02*
X001727Y014149D01*
X001669Y014091D02*
X002003Y014091D01*
X002003Y014032D02*
X000917Y014032D01*
X000917Y013974D02*
X002005Y013974D01*
X002003Y013915D02*
X000917Y013915D01*
X000917Y013857D02*
X002003Y013857D01*
X002003Y013798D02*
X001700Y013798D01*
X001759Y013740D02*
X002003Y013740D01*
X002003Y013681D02*
X001817Y013681D01*
X001876Y013623D02*
X002003Y013623D01*
X002003Y013272D02*
X001850Y013272D01*
X001791Y013213D02*
X002003Y013213D01*
X002003Y013155D02*
X001733Y013155D01*
X001674Y013096D02*
X002003Y013096D01*
X002003Y013038D02*
X000917Y013038D01*
X000917Y013096D02*
X001299Y013096D01*
X001241Y013155D02*
X000917Y013155D01*
X000917Y013213D02*
X001182Y013213D01*
X001124Y013272D02*
X000917Y013272D01*
X000917Y013330D02*
X001097Y013330D01*
X001097Y013389D02*
X000917Y013389D01*
X000917Y013447D02*
X001097Y013447D01*
X001097Y013506D02*
X000917Y013506D01*
X000917Y013564D02*
X001097Y013564D01*
X001098Y013623D02*
X000917Y013623D01*
X000917Y013681D02*
X001156Y013681D01*
X001215Y013740D02*
X000917Y013740D01*
X000917Y013798D02*
X001273Y013798D01*
X001305Y014091D02*
X000917Y014091D01*
X000917Y014149D02*
X001246Y014149D01*
X001188Y014208D02*
X000917Y014208D01*
X000917Y014266D02*
X001129Y014266D01*
X001097Y014325D02*
X000917Y014325D01*
X000917Y014383D02*
X001097Y014383D01*
X001097Y014442D02*
X000917Y014442D01*
X000917Y014500D02*
X001097Y014500D01*
X001097Y014559D02*
X000917Y014559D01*
X000917Y014617D02*
X001097Y014617D01*
X001151Y014676D02*
X000917Y014676D01*
X000917Y014734D02*
X001209Y014734D01*
X001268Y014793D02*
X000917Y014793D01*
X000917Y012979D02*
X002003Y012979D01*
X002003Y012921D02*
X000917Y012921D01*
X000917Y012862D02*
X002003Y012862D01*
X002003Y012804D02*
X001695Y012804D01*
X001753Y012745D02*
X002003Y012745D01*
X002003Y012687D02*
X001812Y012687D01*
X001870Y012628D02*
X002003Y012628D01*
X002003Y012277D02*
X001855Y012277D01*
X001797Y012219D02*
X002003Y012219D01*
X002003Y012160D02*
X001738Y012160D01*
X001680Y012102D02*
X002003Y012102D01*
X002003Y012043D02*
X000917Y012043D01*
X000917Y011985D02*
X002003Y011985D01*
X002053Y011926D02*
X000917Y011926D01*
X000917Y011868D02*
X002326Y011868D01*
X002350Y011926D02*
X002385Y011926D01*
X002268Y011809D02*
X001689Y011809D01*
X001648Y011850D02*
X001877Y011622D01*
X001877Y011298D01*
X001648Y011070D01*
X001325Y011070D01*
X001097Y011298D01*
X001097Y011622D01*
X001325Y011850D01*
X001648Y011850D01*
X001748Y011751D02*
X002262Y011751D01*
X002262Y011692D02*
X001806Y011692D01*
X001865Y011634D02*
X002262Y011634D01*
X002303Y011575D02*
X001877Y011575D01*
X001877Y011517D02*
X002357Y011517D01*
X002357Y011458D02*
X001877Y011458D01*
X001877Y011400D02*
X002357Y011400D01*
X002357Y011341D02*
X001877Y011341D01*
X001861Y011283D02*
X002357Y011283D01*
X002357Y011224D02*
X001802Y011224D01*
X001744Y011166D02*
X002357Y011166D01*
X002357Y011107D02*
X001685Y011107D01*
X001288Y011107D02*
X000917Y011107D01*
X000917Y011049D02*
X002357Y011049D01*
X002357Y010990D02*
X000917Y010990D01*
X000917Y010932D02*
X002357Y010932D01*
X002921Y011926D02*
X003607Y011926D01*
X003494Y011985D02*
X002970Y011985D01*
X002970Y012043D02*
X003450Y012043D01*
X003450Y012102D02*
X002970Y012102D01*
X002970Y012160D02*
X003450Y012160D01*
X003450Y012219D02*
X002979Y012219D01*
X003037Y012277D02*
X003450Y012277D01*
X003465Y012336D02*
X003096Y012336D01*
X003154Y012394D02*
X004107Y012394D01*
X004107Y012453D02*
X003213Y012453D01*
X003271Y012511D02*
X004107Y012511D01*
X004097Y012979D02*
X003524Y012979D01*
X003479Y012921D02*
X003465Y012921D01*
X003450Y012862D02*
X003407Y012862D01*
X003377Y012804D02*
X003450Y012804D01*
X003450Y012745D02*
X003377Y012745D01*
X003377Y012687D02*
X003450Y012687D01*
X003450Y012628D02*
X003377Y012628D01*
X003330Y012570D02*
X003480Y012570D01*
X003582Y013038D02*
X004097Y013038D01*
X004097Y013096D02*
X003641Y013096D01*
X003420Y013272D02*
X003032Y013272D01*
X003090Y013330D02*
X003479Y013330D01*
X003537Y013389D02*
X003149Y013389D01*
X003207Y013447D02*
X003587Y013447D01*
X003587Y013506D02*
X003266Y013506D01*
X003324Y013564D02*
X003587Y013564D01*
X003587Y013623D02*
X003383Y013623D01*
X003441Y013681D02*
X004357Y013681D01*
X004357Y013740D02*
X004334Y013740D01*
X004139Y013740D02*
X003500Y013740D01*
X003558Y013798D02*
X004080Y013798D01*
X004022Y013857D02*
X003617Y013857D01*
X003675Y013915D02*
X004012Y013915D01*
X004012Y013974D02*
X003734Y013974D01*
X003792Y014032D02*
X004012Y014032D01*
X003689Y014325D02*
X003085Y014325D01*
X003143Y014383D02*
X006987Y014383D01*
X006987Y014325D02*
X005070Y014325D01*
X005127Y014266D02*
X006987Y014266D01*
X006987Y014208D02*
X005127Y014208D01*
X005127Y014149D02*
X006987Y014149D01*
X006987Y014091D02*
X005127Y014091D01*
X005127Y014032D02*
X006987Y014032D01*
X006987Y013974D02*
X005127Y013974D01*
X005127Y013915D02*
X006987Y013915D01*
X006987Y013857D02*
X005127Y013857D01*
X005127Y013798D02*
X006987Y013798D01*
X006987Y013740D02*
X005127Y013740D01*
X005127Y013681D02*
X006987Y013681D01*
X006987Y013623D02*
X005386Y013623D01*
X005387Y013564D02*
X006987Y013564D01*
X006987Y013506D02*
X005387Y013506D01*
X005387Y013447D02*
X006987Y013447D01*
X006987Y013389D02*
X005387Y013389D01*
X005387Y013330D02*
X006987Y013330D01*
X006987Y013272D02*
X005387Y013272D01*
X005387Y013213D02*
X006987Y013213D01*
X006987Y013155D02*
X005383Y013155D01*
X005494Y012921D02*
X006987Y012921D01*
X006987Y012979D02*
X004877Y012979D01*
X004877Y013038D02*
X006987Y013038D01*
X006987Y013096D02*
X004877Y013096D01*
X005524Y012862D02*
X006987Y012862D01*
X006987Y012804D02*
X005524Y012804D01*
X005524Y012745D02*
X006987Y012745D01*
X006987Y012687D02*
X005524Y012687D01*
X005524Y012628D02*
X006837Y012628D01*
X007435Y013090D02*
X007462Y013117D01*
X007462Y013303D01*
X007367Y013398D01*
X007367Y016514D01*
X007291Y016590D01*
X007237Y016590D01*
X007237Y017580D01*
X013897Y017580D01*
X013897Y013173D01*
X013949Y013120D01*
X013987Y013120D01*
X013987Y012960D01*
X010117Y012960D01*
X010117Y013726D01*
X010221Y013726D01*
X010274Y013779D01*
X010274Y013795D01*
X010397Y013795D01*
X010397Y013748D01*
X010449Y013695D01*
X011774Y013695D01*
X011827Y013748D01*
X011827Y013877D01*
X012233Y013877D01*
X012233Y013846D01*
X012286Y013793D01*
X012687Y013793D01*
X012740Y013846D01*
X012740Y014169D01*
X012687Y014221D01*
X012286Y014221D01*
X012233Y014169D01*
X012233Y014137D01*
X011827Y014137D01*
X011827Y014172D01*
X011774Y014225D01*
X010449Y014225D01*
X010397Y014172D01*
X010397Y014055D01*
X010274Y014055D01*
X010274Y014070D01*
X010221Y014123D01*
X009753Y014123D01*
X009700Y014070D01*
X009700Y013779D01*
X009753Y013726D01*
X009857Y013726D01*
X009857Y012997D01*
X009627Y012997D01*
X009617Y012987D01*
X009617Y013014D01*
X009541Y013090D01*
X009291Y013340D01*
X008808Y013340D01*
X008732Y013264D01*
X008732Y013264D01*
X008558Y013090D01*
X007435Y013090D01*
X007441Y013096D02*
X008564Y013096D01*
X008622Y013155D02*
X007462Y013155D01*
X007462Y013213D02*
X008681Y013213D01*
X008739Y013272D02*
X007462Y013272D01*
X007435Y013330D02*
X008798Y013330D01*
X009300Y013330D02*
X009857Y013330D01*
X009857Y013272D02*
X009359Y013272D01*
X009417Y013213D02*
X009857Y013213D01*
X009857Y013155D02*
X009476Y013155D01*
X009534Y013096D02*
X009857Y013096D01*
X009857Y013038D02*
X009593Y013038D01*
X009574Y012710D02*
X009399Y012710D01*
X009399Y012476D01*
X009347Y012423D01*
X009136Y012423D01*
X009254Y012306D01*
X009347Y012081D01*
X009347Y011839D01*
X009254Y011614D01*
X009082Y011443D01*
X008858Y011350D01*
X008615Y011350D01*
X008391Y011443D01*
X008220Y011614D01*
X008127Y011839D01*
X008127Y012081D01*
X008220Y012306D01*
X008391Y012477D01*
X008615Y012570D01*
X008858Y012570D01*
X009003Y012510D01*
X009003Y012580D01*
X008117Y012580D01*
X008117Y007460D01*
X009019Y007460D01*
X009056Y007497D01*
X009347Y007497D01*
X009384Y007460D01*
X009590Y007460D01*
X009627Y007497D01*
X009857Y007497D01*
X009857Y008226D01*
X009753Y008226D01*
X009700Y008279D01*
X009700Y008570D01*
X009753Y008623D01*
X010221Y008623D01*
X010274Y008570D01*
X010274Y008555D01*
X010397Y008555D01*
X010397Y008672D01*
X010449Y008725D01*
X011774Y008725D01*
X011827Y008672D01*
X011827Y008637D01*
X012233Y008637D01*
X012233Y008669D01*
X012286Y008721D01*
X012687Y008721D01*
X012740Y008669D01*
X012740Y008346D01*
X012687Y008293D01*
X012286Y008293D01*
X012233Y008346D01*
X012233Y008377D01*
X011827Y008377D01*
X011827Y008248D01*
X011774Y008195D01*
X010449Y008195D01*
X010397Y008248D01*
X010397Y008295D01*
X010274Y008295D01*
X010274Y008279D01*
X010221Y008226D01*
X010117Y008226D01*
X010117Y007460D01*
X013987Y007460D01*
X013987Y007620D01*
X013949Y007620D01*
X013897Y007673D01*
X013897Y012247D01*
X013949Y012300D01*
X013987Y012300D01*
X013987Y012710D01*
X010117Y012710D01*
X010117Y012656D01*
X010041Y012580D01*
X009970Y012580D01*
X009970Y012476D01*
X009918Y012423D01*
X009627Y012423D01*
X009574Y012476D01*
X009574Y012710D01*
X009574Y012687D02*
X009399Y012687D01*
X009399Y012628D02*
X009574Y012628D01*
X009574Y012570D02*
X009399Y012570D01*
X009399Y012511D02*
X009574Y012511D01*
X009597Y012453D02*
X009376Y012453D01*
X009224Y012336D02*
X013987Y012336D01*
X013987Y012394D02*
X009165Y012394D01*
X009266Y012277D02*
X013926Y012277D01*
X013897Y012219D02*
X009290Y012219D01*
X009314Y012160D02*
X013897Y012160D01*
X013897Y012102D02*
X009338Y012102D01*
X009347Y012043D02*
X013897Y012043D01*
X013897Y011985D02*
X009347Y011985D01*
X009347Y011926D02*
X013897Y011926D01*
X013897Y011868D02*
X009347Y011868D01*
X009334Y011809D02*
X013897Y011809D01*
X013897Y011751D02*
X009310Y011751D01*
X009286Y011692D02*
X013897Y011692D01*
X013897Y011634D02*
X009262Y011634D01*
X009214Y011575D02*
X013897Y011575D01*
X013897Y011517D02*
X009156Y011517D01*
X009097Y011458D02*
X013897Y011458D01*
X013897Y011400D02*
X008978Y011400D01*
X008496Y011400D02*
X008117Y011400D01*
X008117Y011458D02*
X008376Y011458D01*
X008317Y011517D02*
X008117Y011517D01*
X008117Y011575D02*
X008259Y011575D01*
X008212Y011634D02*
X008117Y011634D01*
X008117Y011692D02*
X008187Y011692D01*
X008163Y011751D02*
X008117Y011751D01*
X008117Y011809D02*
X008139Y011809D01*
X008127Y011868D02*
X008117Y011868D01*
X008117Y011926D02*
X008127Y011926D01*
X008117Y011985D02*
X008127Y011985D01*
X008117Y012043D02*
X008127Y012043D01*
X008117Y012102D02*
X008135Y012102D01*
X008117Y012160D02*
X008159Y012160D01*
X008184Y012219D02*
X008117Y012219D01*
X008117Y012277D02*
X008208Y012277D01*
X008250Y012336D02*
X008117Y012336D01*
X008117Y012394D02*
X008308Y012394D01*
X008367Y012453D02*
X008117Y012453D01*
X008117Y012511D02*
X008473Y012511D01*
X008614Y012570D02*
X008117Y012570D01*
X008859Y012570D02*
X009003Y012570D01*
X009000Y012511D02*
X009003Y012511D01*
X009947Y012453D02*
X013987Y012453D01*
X013987Y012511D02*
X009970Y012511D01*
X009970Y012570D02*
X013987Y012570D01*
X013987Y012628D02*
X010089Y012628D01*
X010117Y012687D02*
X013987Y012687D01*
X014107Y012687D02*
X017992Y012687D01*
X017992Y012745D02*
X014107Y012745D01*
X014107Y012760D02*
X014036Y012830D01*
X013987Y012830D01*
X013987Y012840D01*
X014036Y012840D01*
X014107Y012910D01*
X014107Y017590D01*
X017742Y017590D01*
X017742Y016660D01*
X017812Y016590D01*
X018867Y016590D01*
X018862Y016585D01*
X018862Y001097D01*
X018857Y001085D01*
X018857Y000835D01*
X018862Y000823D01*
X018862Y000390D01*
X008237Y000390D01*
X008237Y001580D01*
X009003Y001580D01*
X009003Y001476D01*
X009056Y001423D01*
X009347Y001423D01*
X009399Y001476D01*
X009399Y001840D01*
X009574Y001840D01*
X009574Y001476D01*
X009627Y001423D01*
X009918Y001423D01*
X009970Y001476D01*
X009970Y001580D01*
X010041Y001580D01*
X010117Y001656D01*
X010117Y001840D01*
X014036Y001840D01*
X014107Y001910D01*
X014107Y007260D01*
X014036Y007330D01*
X013987Y007330D01*
X013987Y007340D01*
X014036Y007340D01*
X014107Y007410D01*
X014107Y012760D01*
X014063Y012804D02*
X017992Y012804D01*
X017992Y012862D02*
X014058Y012862D01*
X014107Y012921D02*
X017992Y012921D01*
X017992Y012979D02*
X014107Y012979D01*
X014107Y013038D02*
X017992Y013038D01*
X017992Y013035D02*
X017992Y012385D01*
X017992Y012285D01*
X018062Y012215D01*
X018661Y012215D01*
X018732Y012285D01*
X018732Y013135D01*
X018661Y013205D01*
X018062Y013205D01*
X017992Y013135D01*
X017992Y013035D01*
X017992Y013096D02*
X014107Y013096D01*
X014107Y013155D02*
X018012Y013155D01*
X018112Y013085D02*
X018612Y013085D01*
X018612Y012335D01*
X018112Y012335D01*
X018112Y013085D01*
X018112Y013038D02*
X018612Y013038D01*
X018612Y012979D02*
X018112Y012979D01*
X018112Y012921D02*
X018612Y012921D01*
X018612Y012862D02*
X018112Y012862D01*
X018112Y012804D02*
X018612Y012804D01*
X018612Y012745D02*
X018112Y012745D01*
X018112Y012687D02*
X018612Y012687D01*
X018612Y012628D02*
X018112Y012628D01*
X018112Y012570D02*
X018612Y012570D01*
X018612Y012511D02*
X018112Y012511D01*
X018112Y012453D02*
X018612Y012453D01*
X018612Y012394D02*
X018112Y012394D01*
X018112Y012336D02*
X018612Y012336D01*
X018732Y012336D02*
X018862Y012336D01*
X018862Y012394D02*
X018732Y012394D01*
X018732Y012453D02*
X018862Y012453D01*
X018862Y012511D02*
X018732Y012511D01*
X018732Y012570D02*
X018862Y012570D01*
X018862Y012628D02*
X018732Y012628D01*
X018732Y012687D02*
X018862Y012687D01*
X018862Y012745D02*
X018732Y012745D01*
X018732Y012804D02*
X018862Y012804D01*
X018862Y012862D02*
X018732Y012862D01*
X018732Y012921D02*
X018862Y012921D01*
X018862Y012979D02*
X018732Y012979D01*
X018732Y013038D02*
X018862Y013038D01*
X018862Y013096D02*
X018732Y013096D01*
X018712Y013155D02*
X018862Y013155D01*
X018862Y013213D02*
X014107Y013213D01*
X014107Y013272D02*
X018862Y013272D01*
X018862Y013330D02*
X014107Y013330D01*
X014107Y013389D02*
X018862Y013389D01*
X018862Y013447D02*
X014107Y013447D01*
X014107Y013506D02*
X018862Y013506D01*
X018862Y013564D02*
X014107Y013564D01*
X014107Y013623D02*
X017779Y013623D01*
X017812Y013590D02*
X017911Y013590D01*
X018562Y013590D01*
X018661Y013590D01*
X018732Y013660D01*
X018732Y014260D01*
X018661Y014330D01*
X017812Y014330D01*
X017742Y014260D01*
X017742Y013660D01*
X017812Y013590D01*
X017742Y013681D02*
X014107Y013681D01*
X014107Y013740D02*
X017742Y013740D01*
X017742Y013798D02*
X014107Y013798D01*
X014107Y013857D02*
X017742Y013857D01*
X017742Y013915D02*
X014107Y013915D01*
X014107Y013974D02*
X017742Y013974D01*
X017742Y014032D02*
X014107Y014032D01*
X014107Y014091D02*
X017742Y014091D01*
X017742Y014149D02*
X014107Y014149D01*
X014107Y014208D02*
X017742Y014208D01*
X017748Y014266D02*
X014107Y014266D01*
X014107Y014325D02*
X017807Y014325D01*
X017862Y014210D02*
X018612Y014210D01*
X018612Y013710D01*
X017862Y013710D01*
X017862Y014210D01*
X017862Y014208D02*
X018612Y014208D01*
X018612Y014149D02*
X017862Y014149D01*
X017862Y014091D02*
X018612Y014091D01*
X018612Y014032D02*
X017862Y014032D01*
X017862Y013974D02*
X018612Y013974D01*
X018612Y013915D02*
X017862Y013915D01*
X017862Y013857D02*
X018612Y013857D01*
X018612Y013798D02*
X017862Y013798D01*
X017862Y013740D02*
X018612Y013740D01*
X018732Y013740D02*
X018862Y013740D01*
X018862Y013798D02*
X018732Y013798D01*
X018732Y013857D02*
X018862Y013857D01*
X018862Y013915D02*
X018732Y013915D01*
X018732Y013974D02*
X018862Y013974D01*
X018862Y014032D02*
X018732Y014032D01*
X018732Y014091D02*
X018862Y014091D01*
X018862Y014149D02*
X018732Y014149D01*
X018732Y014208D02*
X018862Y014208D01*
X018862Y014266D02*
X018725Y014266D01*
X018667Y014325D02*
X018862Y014325D01*
X018862Y014383D02*
X014107Y014383D01*
X014107Y014442D02*
X018862Y014442D01*
X018862Y014500D02*
X014107Y014500D01*
X014107Y014559D02*
X018862Y014559D01*
X018862Y014617D02*
X014107Y014617D01*
X014107Y014676D02*
X018862Y014676D01*
X018862Y014734D02*
X014107Y014734D01*
X014107Y014793D02*
X018862Y014793D01*
X018862Y014851D02*
X014107Y014851D01*
X014107Y014910D02*
X018862Y014910D01*
X018862Y014968D02*
X014107Y014968D01*
X014107Y015027D02*
X018862Y015027D01*
X018862Y015085D02*
X014107Y015085D01*
X014107Y015144D02*
X018862Y015144D01*
X018862Y015202D02*
X014107Y015202D01*
X014107Y015261D02*
X018862Y015261D01*
X018862Y015319D02*
X014107Y015319D01*
X014107Y015378D02*
X018862Y015378D01*
X018862Y015436D02*
X014107Y015436D01*
X014107Y015495D02*
X018862Y015495D01*
X018862Y015553D02*
X014107Y015553D01*
X014107Y015612D02*
X018862Y015612D01*
X018862Y015670D02*
X014107Y015670D01*
X014107Y015729D02*
X018862Y015729D01*
X018862Y015787D02*
X014107Y015787D01*
X014107Y015846D02*
X018862Y015846D01*
X018862Y015904D02*
X014107Y015904D01*
X014107Y015963D02*
X018862Y015963D01*
X018862Y016021D02*
X014107Y016021D01*
X014107Y016080D02*
X018862Y016080D01*
X018862Y016138D02*
X014107Y016138D01*
X014107Y016197D02*
X018862Y016197D01*
X018862Y016255D02*
X014107Y016255D01*
X014107Y016314D02*
X018862Y016314D01*
X018862Y016372D02*
X014107Y016372D01*
X014107Y016431D02*
X018862Y016431D01*
X018862Y016489D02*
X014107Y016489D01*
X014107Y016548D02*
X018862Y016548D01*
X018982Y016535D02*
X019107Y016660D01*
X019107Y018449D01*
X019130Y018426D01*
X019361Y018330D01*
X019612Y018330D01*
X019844Y018426D01*
X020021Y018603D01*
X020057Y018690D01*
X020057Y001230D01*
X020021Y001317D01*
X019844Y001494D01*
X019612Y001590D01*
X019361Y001590D01*
X019130Y001494D01*
X018982Y001346D01*
X018982Y016535D01*
X018994Y016548D02*
X019097Y016548D01*
X019097Y016606D02*
X019052Y016606D01*
X019097Y016622D02*
X019097Y016298D01*
X019325Y016070D01*
X019648Y016070D01*
X019877Y016298D01*
X019877Y016622D01*
X019648Y016850D01*
X019325Y016850D01*
X019097Y016622D01*
X019107Y016665D02*
X019140Y016665D01*
X019107Y016723D02*
X019198Y016723D01*
X019257Y016782D02*
X019107Y016782D01*
X019107Y016840D02*
X019315Y016840D01*
X019107Y016899D02*
X020057Y016899D01*
X020057Y016957D02*
X019107Y016957D01*
X019107Y017016D02*
X020057Y017016D01*
X020057Y017074D02*
X019107Y017074D01*
X019107Y017133D02*
X020057Y017133D01*
X020057Y017191D02*
X019107Y017191D01*
X019107Y017250D02*
X020057Y017250D01*
X020057Y017308D02*
X019107Y017308D01*
X019107Y017367D02*
X020057Y017367D01*
X020057Y017425D02*
X019107Y017425D01*
X019107Y017484D02*
X020057Y017484D01*
X020057Y017542D02*
X019107Y017542D01*
X019107Y017601D02*
X020057Y017601D01*
X020057Y017659D02*
X019107Y017659D01*
X019107Y017718D02*
X020057Y017718D01*
X020057Y017776D02*
X019107Y017776D01*
X019107Y017835D02*
X020057Y017835D01*
X020057Y017893D02*
X019107Y017893D01*
X019107Y017952D02*
X020057Y017952D01*
X020057Y018010D02*
X019107Y018010D01*
X019107Y018069D02*
X020057Y018069D01*
X020057Y018127D02*
X019107Y018127D01*
X019107Y018186D02*
X020057Y018186D01*
X020057Y018244D02*
X019107Y018244D01*
X019107Y018303D02*
X020057Y018303D01*
X020057Y018361D02*
X019687Y018361D01*
X019828Y018420D02*
X020057Y018420D01*
X020057Y018478D02*
X019896Y018478D01*
X019954Y018537D02*
X020057Y018537D01*
X020057Y018595D02*
X020013Y018595D01*
X020042Y018654D02*
X020057Y018654D01*
X019286Y018361D02*
X019107Y018361D01*
X019107Y018420D02*
X019145Y018420D01*
X018987Y018420D02*
X014047Y018420D01*
X014047Y018478D02*
X018987Y018478D01*
X018987Y018537D02*
X014047Y018537D01*
X014047Y018595D02*
X018961Y018595D01*
X018953Y018603D02*
X018987Y018569D01*
X018987Y017710D01*
X018987Y016710D01*
X017862Y016710D01*
X017862Y017710D01*
X018987Y017710D01*
X017577Y017710D01*
X017577Y017747D01*
X017524Y017800D01*
X015831Y017800D01*
X015791Y017840D01*
X014047Y017840D01*
X014047Y019530D01*
X019217Y019530D01*
X019130Y019494D01*
X018953Y019317D01*
X018857Y019085D01*
X018857Y018835D01*
X018953Y018603D01*
X018932Y018654D02*
X014047Y018654D01*
X014047Y018712D02*
X018907Y018712D01*
X018883Y018771D02*
X014047Y018771D01*
X014047Y018829D02*
X018859Y018829D01*
X018857Y018888D02*
X014047Y018888D01*
X014047Y018946D02*
X018857Y018946D01*
X018857Y019005D02*
X014047Y019005D01*
X014047Y019063D02*
X018857Y019063D01*
X018872Y019122D02*
X014047Y019122D01*
X014047Y019180D02*
X018896Y019180D01*
X018920Y019239D02*
X014047Y019239D01*
X014047Y019297D02*
X018944Y019297D01*
X018991Y019356D02*
X014047Y019356D01*
X014047Y019414D02*
X019050Y019414D01*
X019108Y019473D02*
X014047Y019473D01*
X013927Y018420D02*
X007611Y018420D01*
X007669Y018361D02*
X013927Y018361D01*
X013927Y018303D02*
X008054Y018303D01*
X008074Y018244D02*
X013927Y018244D01*
X013927Y018186D02*
X008077Y018186D01*
X008047Y018127D02*
X013927Y018127D01*
X013927Y018069D02*
X008018Y018069D01*
X007989Y018010D02*
X013927Y018010D01*
X013927Y017952D02*
X007960Y017952D01*
X007930Y017893D02*
X013927Y017893D01*
X014047Y017893D02*
X018987Y017893D01*
X018987Y017835D02*
X015796Y017835D01*
X014107Y017542D02*
X017742Y017542D01*
X017742Y017484D02*
X014107Y017484D01*
X014107Y017425D02*
X017742Y017425D01*
X017742Y017367D02*
X014107Y017367D01*
X014107Y017308D02*
X017742Y017308D01*
X017742Y017250D02*
X014107Y017250D01*
X014107Y017191D02*
X017742Y017191D01*
X017742Y017133D02*
X014107Y017133D01*
X014107Y017074D02*
X017742Y017074D01*
X017742Y017016D02*
X014107Y017016D01*
X014107Y016957D02*
X017742Y016957D01*
X017742Y016899D02*
X014107Y016899D01*
X014107Y016840D02*
X017742Y016840D01*
X017742Y016782D02*
X014107Y016782D01*
X014107Y016723D02*
X017742Y016723D01*
X017742Y016665D02*
X014107Y016665D01*
X014107Y016606D02*
X017796Y016606D01*
X017862Y016723D02*
X018987Y016723D01*
X018987Y016782D02*
X017862Y016782D01*
X017862Y016840D02*
X018987Y016840D01*
X018987Y016899D02*
X017862Y016899D01*
X017862Y016957D02*
X018987Y016957D01*
X018987Y017016D02*
X017862Y017016D01*
X017862Y017074D02*
X018987Y017074D01*
X018987Y017133D02*
X017862Y017133D01*
X017862Y017191D02*
X018987Y017191D01*
X018987Y017250D02*
X017862Y017250D01*
X017862Y017308D02*
X018987Y017308D01*
X018987Y017367D02*
X017862Y017367D01*
X017862Y017425D02*
X018987Y017425D01*
X018987Y017484D02*
X017862Y017484D01*
X017862Y017542D02*
X018987Y017542D01*
X018987Y017601D02*
X017862Y017601D01*
X017862Y017659D02*
X018987Y017659D01*
X018987Y017718D02*
X017577Y017718D01*
X017548Y017776D02*
X018987Y017776D01*
X018987Y017952D02*
X014047Y017952D01*
X014047Y018010D02*
X018987Y018010D01*
X018987Y018069D02*
X014047Y018069D01*
X014047Y018127D02*
X018987Y018127D01*
X018987Y018186D02*
X014047Y018186D01*
X014047Y018244D02*
X018987Y018244D01*
X018987Y018303D02*
X014047Y018303D01*
X014047Y018361D02*
X018987Y018361D01*
X019658Y016840D02*
X020057Y016840D01*
X020057Y016782D02*
X019717Y016782D01*
X019775Y016723D02*
X020057Y016723D01*
X020057Y016665D02*
X019834Y016665D01*
X019877Y016606D02*
X020057Y016606D01*
X020057Y016548D02*
X019877Y016548D01*
X019877Y016489D02*
X020057Y016489D01*
X020057Y016431D02*
X019877Y016431D01*
X019877Y016372D02*
X020057Y016372D01*
X020057Y016314D02*
X019877Y016314D01*
X019833Y016255D02*
X020057Y016255D01*
X020057Y016197D02*
X019775Y016197D01*
X019716Y016138D02*
X020057Y016138D01*
X020057Y016080D02*
X019658Y016080D01*
X019648Y015850D02*
X019325Y015850D01*
X019097Y015622D01*
X019097Y015298D01*
X019325Y015070D01*
X019648Y015070D01*
X019877Y015298D01*
X019877Y015622D01*
X019648Y015850D01*
X019653Y015846D02*
X020057Y015846D01*
X020057Y015904D02*
X018982Y015904D01*
X018982Y015846D02*
X019321Y015846D01*
X019262Y015787D02*
X018982Y015787D01*
X018982Y015729D02*
X019204Y015729D01*
X019145Y015670D02*
X018982Y015670D01*
X018982Y015612D02*
X019097Y015612D01*
X019097Y015553D02*
X018982Y015553D01*
X018982Y015495D02*
X019097Y015495D01*
X019097Y015436D02*
X018982Y015436D01*
X018982Y015378D02*
X019097Y015378D01*
X019097Y015319D02*
X018982Y015319D01*
X018982Y015261D02*
X019135Y015261D01*
X019193Y015202D02*
X018982Y015202D01*
X018982Y015144D02*
X019252Y015144D01*
X019310Y015085D02*
X018982Y015085D01*
X018982Y015027D02*
X020057Y015027D01*
X020057Y015085D02*
X019663Y015085D01*
X019722Y015144D02*
X020057Y015144D01*
X020057Y015202D02*
X019780Y015202D01*
X019839Y015261D02*
X020057Y015261D01*
X020057Y015319D02*
X019877Y015319D01*
X019877Y015378D02*
X020057Y015378D01*
X020057Y015436D02*
X019877Y015436D01*
X019877Y015495D02*
X020057Y015495D01*
X020057Y015553D02*
X019877Y015553D01*
X019877Y015612D02*
X020057Y015612D01*
X020057Y015670D02*
X019828Y015670D01*
X019770Y015729D02*
X020057Y015729D01*
X020057Y015787D02*
X019711Y015787D01*
X020057Y015963D02*
X018982Y015963D01*
X018982Y016021D02*
X020057Y016021D01*
X019316Y016080D02*
X018982Y016080D01*
X018982Y016138D02*
X019257Y016138D01*
X019199Y016197D02*
X018982Y016197D01*
X018982Y016255D02*
X019140Y016255D01*
X019097Y016314D02*
X018982Y016314D01*
X018982Y016372D02*
X019097Y016372D01*
X019097Y016431D02*
X018982Y016431D01*
X018982Y016489D02*
X019097Y016489D01*
X018982Y014968D02*
X020057Y014968D01*
X020057Y014910D02*
X018982Y014910D01*
X018982Y014851D02*
X020057Y014851D01*
X020057Y014793D02*
X019706Y014793D01*
X019648Y014850D02*
X019325Y014850D01*
X019097Y014622D01*
X019097Y014298D01*
X019325Y014070D01*
X019648Y014070D01*
X019877Y014298D01*
X019877Y014622D01*
X019648Y014850D01*
X019764Y014734D02*
X020057Y014734D01*
X020057Y014676D02*
X019823Y014676D01*
X019877Y014617D02*
X020057Y014617D01*
X020057Y014559D02*
X019877Y014559D01*
X019877Y014500D02*
X020057Y014500D01*
X020057Y014442D02*
X019877Y014442D01*
X019877Y014383D02*
X020057Y014383D01*
X020057Y014325D02*
X019877Y014325D01*
X019844Y014266D02*
X020057Y014266D01*
X020057Y014208D02*
X019786Y014208D01*
X019727Y014149D02*
X020057Y014149D01*
X020057Y014091D02*
X019669Y014091D01*
X019648Y013850D02*
X019325Y013850D01*
X019097Y013622D01*
X019097Y013298D01*
X019325Y013070D01*
X019648Y013070D01*
X019877Y013298D01*
X019877Y013622D01*
X019648Y013850D01*
X019700Y013798D02*
X020057Y013798D01*
X020057Y013740D02*
X019759Y013740D01*
X019817Y013681D02*
X020057Y013681D01*
X020057Y013623D02*
X019876Y013623D01*
X019877Y013564D02*
X020057Y013564D01*
X020057Y013506D02*
X019877Y013506D01*
X019877Y013447D02*
X020057Y013447D01*
X020057Y013389D02*
X019877Y013389D01*
X019877Y013330D02*
X020057Y013330D01*
X020057Y013272D02*
X019850Y013272D01*
X019791Y013213D02*
X020057Y013213D01*
X020057Y013155D02*
X019733Y013155D01*
X019674Y013096D02*
X020057Y013096D01*
X020057Y013038D02*
X018982Y013038D01*
X018982Y013096D02*
X019299Y013096D01*
X019241Y013155D02*
X018982Y013155D01*
X018982Y013213D02*
X019182Y013213D01*
X019124Y013272D02*
X018982Y013272D01*
X018982Y013330D02*
X019097Y013330D01*
X019097Y013389D02*
X018982Y013389D01*
X018982Y013447D02*
X019097Y013447D01*
X019097Y013506D02*
X018982Y013506D01*
X018982Y013564D02*
X019097Y013564D01*
X019098Y013623D02*
X018982Y013623D01*
X018982Y013681D02*
X019156Y013681D01*
X019215Y013740D02*
X018982Y013740D01*
X018982Y013798D02*
X019273Y013798D01*
X019305Y014091D02*
X018982Y014091D01*
X018982Y014149D02*
X019246Y014149D01*
X019188Y014208D02*
X018982Y014208D01*
X018982Y014266D02*
X019129Y014266D01*
X019097Y014325D02*
X018982Y014325D01*
X018982Y014383D02*
X019097Y014383D01*
X019097Y014442D02*
X018982Y014442D01*
X018982Y014500D02*
X019097Y014500D01*
X019097Y014559D02*
X018982Y014559D01*
X018982Y014617D02*
X019097Y014617D01*
X019151Y014676D02*
X018982Y014676D01*
X018982Y014734D02*
X019209Y014734D01*
X019268Y014793D02*
X018982Y014793D01*
X018982Y014032D02*
X020057Y014032D01*
X020057Y013974D02*
X018982Y013974D01*
X018982Y013915D02*
X020057Y013915D01*
X020057Y013857D02*
X018982Y013857D01*
X018862Y013681D02*
X018732Y013681D01*
X018694Y013623D02*
X018862Y013623D01*
X018982Y012979D02*
X020057Y012979D01*
X020057Y012921D02*
X018982Y012921D01*
X018982Y012862D02*
X020057Y012862D01*
X020057Y012804D02*
X019695Y012804D01*
X019648Y012850D02*
X019325Y012850D01*
X019097Y012622D01*
X019097Y012298D01*
X019325Y012070D01*
X019648Y012070D01*
X019877Y012298D01*
X019877Y012622D01*
X019648Y012850D01*
X019753Y012745D02*
X020057Y012745D01*
X020057Y012687D02*
X019812Y012687D01*
X019870Y012628D02*
X020057Y012628D01*
X020057Y012570D02*
X019877Y012570D01*
X019877Y012511D02*
X020057Y012511D01*
X020057Y012453D02*
X019877Y012453D01*
X019877Y012394D02*
X020057Y012394D01*
X020057Y012336D02*
X019877Y012336D01*
X019855Y012277D02*
X020057Y012277D01*
X020057Y012219D02*
X019797Y012219D01*
X019738Y012160D02*
X020057Y012160D01*
X020057Y012102D02*
X019680Y012102D01*
X019648Y011850D02*
X019325Y011850D01*
X019097Y011622D01*
X019097Y011298D01*
X019325Y011070D01*
X019648Y011070D01*
X019877Y011298D01*
X019877Y011622D01*
X019648Y011850D01*
X019689Y011809D02*
X020057Y011809D01*
X020057Y011751D02*
X019748Y011751D01*
X019806Y011692D02*
X020057Y011692D01*
X020057Y011634D02*
X019865Y011634D01*
X019877Y011575D02*
X020057Y011575D01*
X020057Y011517D02*
X019877Y011517D01*
X019877Y011458D02*
X020057Y011458D01*
X020057Y011400D02*
X019877Y011400D01*
X019877Y011341D02*
X020057Y011341D01*
X020057Y011283D02*
X019861Y011283D01*
X019802Y011224D02*
X020057Y011224D01*
X020057Y011166D02*
X019744Y011166D01*
X019685Y011107D02*
X020057Y011107D01*
X020057Y011049D02*
X018982Y011049D01*
X018982Y011107D02*
X019288Y011107D01*
X019230Y011166D02*
X018982Y011166D01*
X018982Y011224D02*
X019171Y011224D01*
X019113Y011283D02*
X018982Y011283D01*
X018982Y011341D02*
X019097Y011341D01*
X019097Y011400D02*
X018982Y011400D01*
X018982Y011458D02*
X019097Y011458D01*
X019097Y011517D02*
X018982Y011517D01*
X018982Y011575D02*
X019097Y011575D01*
X019109Y011634D02*
X018982Y011634D01*
X018982Y011692D02*
X019167Y011692D01*
X019226Y011751D02*
X018982Y011751D01*
X018982Y011809D02*
X019284Y011809D01*
X019294Y012102D02*
X018982Y012102D01*
X018982Y012160D02*
X019235Y012160D01*
X019177Y012219D02*
X018982Y012219D01*
X018982Y012277D02*
X019118Y012277D01*
X019097Y012336D02*
X018982Y012336D01*
X018982Y012394D02*
X019097Y012394D01*
X019097Y012453D02*
X018982Y012453D01*
X018982Y012511D02*
X019097Y012511D01*
X019097Y012570D02*
X018982Y012570D01*
X018982Y012628D02*
X019103Y012628D01*
X019162Y012687D02*
X018982Y012687D01*
X018982Y012745D02*
X019220Y012745D01*
X019279Y012804D02*
X018982Y012804D01*
X018862Y012277D02*
X018723Y012277D01*
X018665Y012219D02*
X018862Y012219D01*
X018862Y012160D02*
X014107Y012160D01*
X014107Y012102D02*
X018862Y012102D01*
X018862Y012043D02*
X014107Y012043D01*
X014107Y011985D02*
X018862Y011985D01*
X018862Y011926D02*
X014107Y011926D01*
X014107Y011868D02*
X018862Y011868D01*
X018862Y011809D02*
X018682Y011809D01*
X018661Y011830D02*
X018732Y011760D01*
X018732Y011160D01*
X018661Y011090D01*
X017812Y011090D01*
X017742Y011160D01*
X017742Y011760D01*
X017812Y011830D01*
X017911Y011830D01*
X018562Y011830D01*
X018661Y011830D01*
X018732Y011751D02*
X018862Y011751D01*
X018862Y011692D02*
X018732Y011692D01*
X018732Y011634D02*
X018862Y011634D01*
X018862Y011575D02*
X018732Y011575D01*
X018732Y011517D02*
X018862Y011517D01*
X018862Y011458D02*
X018732Y011458D01*
X018732Y011400D02*
X018862Y011400D01*
X018862Y011341D02*
X018732Y011341D01*
X018732Y011283D02*
X018862Y011283D01*
X018862Y011224D02*
X018732Y011224D01*
X018732Y011166D02*
X018862Y011166D01*
X018862Y011107D02*
X018678Y011107D01*
X018612Y011210D02*
X017862Y011210D01*
X017862Y011710D01*
X018612Y011710D01*
X018612Y011210D01*
X018612Y011224D02*
X017862Y011224D01*
X017862Y011283D02*
X018612Y011283D01*
X018612Y011341D02*
X017862Y011341D01*
X017862Y011400D02*
X018612Y011400D01*
X018612Y011458D02*
X017862Y011458D01*
X017862Y011517D02*
X018612Y011517D01*
X018612Y011575D02*
X017862Y011575D01*
X017862Y011634D02*
X018612Y011634D01*
X018612Y011692D02*
X017862Y011692D01*
X017742Y011692D02*
X014107Y011692D01*
X014107Y011634D02*
X017742Y011634D01*
X017742Y011575D02*
X014107Y011575D01*
X014107Y011517D02*
X017742Y011517D01*
X017742Y011458D02*
X014107Y011458D01*
X014107Y011400D02*
X017742Y011400D01*
X017742Y011341D02*
X014107Y011341D01*
X014107Y011283D02*
X017742Y011283D01*
X017742Y011224D02*
X014107Y011224D01*
X014107Y011166D02*
X017742Y011166D01*
X017795Y011107D02*
X014107Y011107D01*
X014107Y011049D02*
X018862Y011049D01*
X018862Y010990D02*
X014107Y010990D01*
X014107Y010932D02*
X018862Y010932D01*
X018862Y010873D02*
X014107Y010873D01*
X014107Y010815D02*
X018862Y010815D01*
X018862Y010756D02*
X014107Y010756D01*
X014107Y010698D02*
X018862Y010698D01*
X018862Y010639D02*
X014107Y010639D01*
X014107Y010581D02*
X018862Y010581D01*
X018862Y010522D02*
X014107Y010522D01*
X014107Y010464D02*
X018862Y010464D01*
X018862Y010405D02*
X014107Y010405D01*
X014107Y010347D02*
X018862Y010347D01*
X018862Y010288D02*
X014107Y010288D01*
X014107Y010230D02*
X018862Y010230D01*
X018862Y010171D02*
X014107Y010171D01*
X014107Y010113D02*
X018862Y010113D01*
X018862Y010054D02*
X014107Y010054D01*
X014107Y009996D02*
X018862Y009996D01*
X018862Y009937D02*
X014107Y009937D01*
X014107Y009879D02*
X018862Y009879D01*
X018862Y009820D02*
X014107Y009820D01*
X014107Y009762D02*
X018862Y009762D01*
X018862Y009703D02*
X014107Y009703D01*
X014107Y009645D02*
X018862Y009645D01*
X018862Y009586D02*
X014107Y009586D01*
X014107Y009528D02*
X018862Y009528D01*
X018862Y009469D02*
X014107Y009469D01*
X014107Y009411D02*
X018862Y009411D01*
X018862Y009352D02*
X014107Y009352D01*
X014107Y009294D02*
X018862Y009294D01*
X018862Y009235D02*
X014107Y009235D01*
X014107Y009177D02*
X018862Y009177D01*
X018862Y009118D02*
X014107Y009118D01*
X014107Y009060D02*
X018862Y009060D01*
X018862Y009001D02*
X014107Y009001D01*
X014107Y008943D02*
X018862Y008943D01*
X018862Y008884D02*
X014107Y008884D01*
X014107Y008826D02*
X017807Y008826D01*
X017812Y008830D02*
X017742Y008760D01*
X017742Y008160D01*
X017812Y008090D01*
X018661Y008090D01*
X018732Y008160D01*
X018732Y008760D01*
X018661Y008830D01*
X018562Y008830D01*
X017911Y008830D01*
X017812Y008830D01*
X017749Y008767D02*
X014107Y008767D01*
X014107Y008709D02*
X017742Y008709D01*
X017742Y008650D02*
X014107Y008650D01*
X014107Y008592D02*
X017742Y008592D01*
X017742Y008533D02*
X014107Y008533D01*
X014107Y008475D02*
X017742Y008475D01*
X017742Y008416D02*
X014107Y008416D01*
X014107Y008358D02*
X017742Y008358D01*
X017742Y008299D02*
X014107Y008299D01*
X014107Y008241D02*
X017742Y008241D01*
X017742Y008182D02*
X014107Y008182D01*
X014107Y008124D02*
X017778Y008124D01*
X017862Y008210D02*
X017862Y008710D01*
X018612Y008710D01*
X018612Y008210D01*
X017862Y008210D01*
X017862Y008241D02*
X018612Y008241D01*
X018612Y008299D02*
X017862Y008299D01*
X017862Y008358D02*
X018612Y008358D01*
X018612Y008416D02*
X017862Y008416D01*
X017862Y008475D02*
X018612Y008475D01*
X018612Y008533D02*
X017862Y008533D01*
X017862Y008592D02*
X018612Y008592D01*
X018612Y008650D02*
X017862Y008650D01*
X017862Y008709D02*
X018612Y008709D01*
X018732Y008709D02*
X018862Y008709D01*
X018862Y008767D02*
X018724Y008767D01*
X018666Y008826D02*
X018862Y008826D01*
X018982Y008826D02*
X019301Y008826D01*
X019325Y008850D02*
X019097Y008622D01*
X019097Y008298D01*
X019325Y008070D01*
X019648Y008070D01*
X019877Y008298D01*
X019877Y008622D01*
X019648Y008850D01*
X019325Y008850D01*
X019242Y008767D02*
X018982Y008767D01*
X018982Y008709D02*
X019184Y008709D01*
X019125Y008650D02*
X018982Y008650D01*
X018982Y008592D02*
X019097Y008592D01*
X019097Y008533D02*
X018982Y008533D01*
X018982Y008475D02*
X019097Y008475D01*
X019097Y008416D02*
X018982Y008416D01*
X018982Y008358D02*
X019097Y008358D01*
X019097Y008299D02*
X018982Y008299D01*
X018982Y008241D02*
X019155Y008241D01*
X019213Y008182D02*
X018982Y008182D01*
X018982Y008124D02*
X019272Y008124D01*
X018982Y008065D02*
X020057Y008065D01*
X020057Y008007D02*
X018982Y008007D01*
X018982Y007948D02*
X020057Y007948D01*
X020057Y007890D02*
X018982Y007890D01*
X018982Y007831D02*
X019306Y007831D01*
X019325Y007850D02*
X019097Y007622D01*
X019097Y007298D01*
X019325Y007070D01*
X019648Y007070D01*
X019877Y007298D01*
X019877Y007622D01*
X019648Y007850D01*
X019325Y007850D01*
X019248Y007773D02*
X018982Y007773D01*
X018982Y007714D02*
X019189Y007714D01*
X019131Y007656D02*
X018982Y007656D01*
X018982Y007597D02*
X019097Y007597D01*
X019097Y007539D02*
X018982Y007539D01*
X018982Y007480D02*
X019097Y007480D01*
X019097Y007422D02*
X018982Y007422D01*
X018982Y007363D02*
X019097Y007363D01*
X019097Y007305D02*
X018982Y007305D01*
X018982Y007246D02*
X019149Y007246D01*
X019208Y007188D02*
X018982Y007188D01*
X018982Y007129D02*
X019266Y007129D01*
X019325Y007071D02*
X018982Y007071D01*
X018982Y007012D02*
X020057Y007012D01*
X020057Y006954D02*
X018982Y006954D01*
X018982Y006895D02*
X020057Y006895D01*
X020057Y006837D02*
X019662Y006837D01*
X019648Y006850D02*
X019325Y006850D01*
X019097Y006622D01*
X019097Y006298D01*
X019325Y006070D01*
X019648Y006070D01*
X019877Y006298D01*
X019877Y006622D01*
X019648Y006850D01*
X019720Y006778D02*
X020057Y006778D01*
X020057Y006720D02*
X019779Y006720D01*
X019837Y006661D02*
X020057Y006661D01*
X020057Y006603D02*
X019877Y006603D01*
X019877Y006544D02*
X020057Y006544D01*
X020057Y006486D02*
X019877Y006486D01*
X019877Y006427D02*
X020057Y006427D01*
X020057Y006369D02*
X019877Y006369D01*
X019877Y006310D02*
X020057Y006310D01*
X020057Y006252D02*
X019830Y006252D01*
X019771Y006193D02*
X020057Y006193D01*
X020057Y006135D02*
X019713Y006135D01*
X019654Y006076D02*
X020057Y006076D01*
X020057Y006018D02*
X018982Y006018D01*
X018982Y006076D02*
X019319Y006076D01*
X019261Y006135D02*
X018982Y006135D01*
X018982Y006193D02*
X019202Y006193D01*
X019144Y006252D02*
X018982Y006252D01*
X018982Y006310D02*
X019097Y006310D01*
X019097Y006369D02*
X018982Y006369D01*
X018982Y006427D02*
X019097Y006427D01*
X019097Y006486D02*
X018982Y006486D01*
X018982Y006544D02*
X019097Y006544D01*
X019097Y006603D02*
X018982Y006603D01*
X018982Y006661D02*
X019136Y006661D01*
X019195Y006720D02*
X018982Y006720D01*
X018982Y006778D02*
X019253Y006778D01*
X019312Y006837D02*
X018982Y006837D01*
X018862Y006837D02*
X018732Y006837D01*
X018732Y006885D02*
X018732Y007535D01*
X018732Y007635D01*
X018661Y007705D01*
X018062Y007705D01*
X017992Y007635D01*
X017992Y006785D01*
X018062Y006715D01*
X018661Y006715D01*
X018732Y006785D01*
X018732Y006885D01*
X018732Y006895D02*
X018862Y006895D01*
X018862Y006954D02*
X018732Y006954D01*
X018732Y007012D02*
X018862Y007012D01*
X018862Y007071D02*
X018732Y007071D01*
X018732Y007129D02*
X018862Y007129D01*
X018862Y007188D02*
X018732Y007188D01*
X018732Y007246D02*
X018862Y007246D01*
X018862Y007305D02*
X018732Y007305D01*
X018732Y007363D02*
X018862Y007363D01*
X018862Y007422D02*
X018732Y007422D01*
X018732Y007480D02*
X018862Y007480D01*
X018862Y007539D02*
X018732Y007539D01*
X018732Y007597D02*
X018862Y007597D01*
X018862Y007656D02*
X018711Y007656D01*
X018612Y007585D02*
X018112Y007585D01*
X018112Y006835D01*
X018612Y006835D01*
X018612Y007585D01*
X018612Y007539D02*
X018112Y007539D01*
X018112Y007480D02*
X018612Y007480D01*
X018612Y007422D02*
X018112Y007422D01*
X018112Y007363D02*
X018612Y007363D01*
X018612Y007305D02*
X018112Y007305D01*
X018112Y007246D02*
X018612Y007246D01*
X018612Y007188D02*
X018112Y007188D01*
X018112Y007129D02*
X018612Y007129D01*
X018612Y007071D02*
X018112Y007071D01*
X018112Y007012D02*
X018612Y007012D01*
X018612Y006954D02*
X018112Y006954D01*
X018112Y006895D02*
X018612Y006895D01*
X018612Y006837D02*
X018112Y006837D01*
X017992Y006837D02*
X014107Y006837D01*
X014107Y006895D02*
X017992Y006895D01*
X017992Y006954D02*
X014107Y006954D01*
X014107Y007012D02*
X017992Y007012D01*
X017992Y007071D02*
X014107Y007071D01*
X014107Y007129D02*
X017992Y007129D01*
X017992Y007188D02*
X014107Y007188D01*
X014107Y007246D02*
X017992Y007246D01*
X017992Y007305D02*
X014062Y007305D01*
X014059Y007363D02*
X017992Y007363D01*
X017992Y007422D02*
X014107Y007422D01*
X014107Y007480D02*
X017992Y007480D01*
X017992Y007539D02*
X014107Y007539D01*
X014107Y007597D02*
X017992Y007597D01*
X018012Y007656D02*
X014107Y007656D01*
X014107Y007714D02*
X018862Y007714D01*
X018862Y007773D02*
X014107Y007773D01*
X014107Y007831D02*
X018862Y007831D01*
X018862Y007890D02*
X014107Y007890D01*
X014107Y007948D02*
X018862Y007948D01*
X018862Y008007D02*
X014107Y008007D01*
X014107Y008065D02*
X018862Y008065D01*
X018862Y008124D02*
X018695Y008124D01*
X018732Y008182D02*
X018862Y008182D01*
X018862Y008241D02*
X018732Y008241D01*
X018732Y008299D02*
X018862Y008299D01*
X018862Y008358D02*
X018732Y008358D01*
X018732Y008416D02*
X018862Y008416D01*
X018862Y008475D02*
X018732Y008475D01*
X018732Y008533D02*
X018862Y008533D01*
X018862Y008592D02*
X018732Y008592D01*
X018732Y008650D02*
X018862Y008650D01*
X018982Y008884D02*
X020057Y008884D01*
X020057Y008826D02*
X019673Y008826D01*
X019731Y008767D02*
X020057Y008767D01*
X020057Y008709D02*
X019790Y008709D01*
X019848Y008650D02*
X020057Y008650D01*
X020057Y008592D02*
X019877Y008592D01*
X019877Y008533D02*
X020057Y008533D01*
X020057Y008475D02*
X019877Y008475D01*
X019877Y008416D02*
X020057Y008416D01*
X020057Y008358D02*
X019877Y008358D01*
X019877Y008299D02*
X020057Y008299D01*
X020057Y008241D02*
X019819Y008241D01*
X019760Y008182D02*
X020057Y008182D01*
X020057Y008124D02*
X019702Y008124D01*
X019667Y007831D02*
X020057Y007831D01*
X020057Y007773D02*
X019726Y007773D01*
X019784Y007714D02*
X020057Y007714D01*
X020057Y007656D02*
X019843Y007656D01*
X019877Y007597D02*
X020057Y007597D01*
X020057Y007539D02*
X019877Y007539D01*
X019877Y007480D02*
X020057Y007480D01*
X020057Y007422D02*
X019877Y007422D01*
X019877Y007363D02*
X020057Y007363D01*
X020057Y007305D02*
X019877Y007305D01*
X019824Y007246D02*
X020057Y007246D01*
X020057Y007188D02*
X019766Y007188D01*
X019707Y007129D02*
X020057Y007129D01*
X020057Y007071D02*
X019649Y007071D01*
X018862Y006778D02*
X018724Y006778D01*
X018666Y006720D02*
X018862Y006720D01*
X018862Y006661D02*
X014107Y006661D01*
X014107Y006603D02*
X018862Y006603D01*
X018862Y006544D02*
X014107Y006544D01*
X014107Y006486D02*
X018862Y006486D01*
X018862Y006427D02*
X014107Y006427D01*
X014107Y006369D02*
X018862Y006369D01*
X018862Y006310D02*
X018681Y006310D01*
X018661Y006330D02*
X018732Y006260D01*
X018732Y006160D01*
X018732Y005660D01*
X018661Y005590D01*
X017812Y005590D01*
X017742Y005660D01*
X017742Y006260D01*
X017812Y006330D01*
X018661Y006330D01*
X018732Y006252D02*
X018862Y006252D01*
X018862Y006193D02*
X018732Y006193D01*
X018732Y006135D02*
X018862Y006135D01*
X018862Y006076D02*
X018732Y006076D01*
X018732Y006018D02*
X018862Y006018D01*
X018862Y005959D02*
X018732Y005959D01*
X018732Y005901D02*
X018862Y005901D01*
X018862Y005842D02*
X018732Y005842D01*
X018732Y005784D02*
X018862Y005784D01*
X018862Y005725D02*
X018732Y005725D01*
X018732Y005667D02*
X018862Y005667D01*
X018862Y005608D02*
X018679Y005608D01*
X018612Y005710D02*
X017862Y005710D01*
X017862Y006210D01*
X018612Y006210D01*
X018612Y005710D01*
X018612Y005725D02*
X017862Y005725D01*
X017862Y005784D02*
X018612Y005784D01*
X018612Y005842D02*
X017862Y005842D01*
X017862Y005901D02*
X018612Y005901D01*
X018612Y005959D02*
X017862Y005959D01*
X017862Y006018D02*
X018612Y006018D01*
X018612Y006076D02*
X017862Y006076D01*
X017862Y006135D02*
X018612Y006135D01*
X018612Y006193D02*
X017862Y006193D01*
X017742Y006193D02*
X014107Y006193D01*
X014107Y006135D02*
X017742Y006135D01*
X017742Y006076D02*
X014107Y006076D01*
X014107Y006018D02*
X017742Y006018D01*
X017742Y005959D02*
X014107Y005959D01*
X014107Y005901D02*
X017742Y005901D01*
X017742Y005842D02*
X014107Y005842D01*
X014107Y005784D02*
X017742Y005784D01*
X017742Y005725D02*
X014107Y005725D01*
X014107Y005667D02*
X017742Y005667D01*
X017794Y005608D02*
X014107Y005608D01*
X014107Y005550D02*
X018862Y005550D01*
X018862Y005491D02*
X014107Y005491D01*
X014107Y005433D02*
X018862Y005433D01*
X018862Y005374D02*
X014107Y005374D01*
X014107Y005316D02*
X018862Y005316D01*
X018862Y005257D02*
X014107Y005257D01*
X014107Y005199D02*
X018862Y005199D01*
X018862Y005140D02*
X014107Y005140D01*
X014107Y005082D02*
X018862Y005082D01*
X018862Y005023D02*
X014107Y005023D01*
X014107Y004965D02*
X018862Y004965D01*
X018862Y004906D02*
X014107Y004906D01*
X014107Y004848D02*
X018862Y004848D01*
X018862Y004789D02*
X014107Y004789D01*
X014107Y004731D02*
X018862Y004731D01*
X018862Y004672D02*
X014107Y004672D01*
X014107Y004614D02*
X018862Y004614D01*
X018862Y004555D02*
X014107Y004555D01*
X014107Y004497D02*
X018862Y004497D01*
X018862Y004438D02*
X014107Y004438D01*
X014107Y004380D02*
X018862Y004380D01*
X018862Y004321D02*
X014107Y004321D01*
X014107Y004263D02*
X018862Y004263D01*
X018862Y004204D02*
X014107Y004204D01*
X014107Y004146D02*
X018862Y004146D01*
X018862Y004087D02*
X014107Y004087D01*
X014107Y004029D02*
X018862Y004029D01*
X018862Y003970D02*
X014107Y003970D01*
X014107Y003912D02*
X018862Y003912D01*
X018862Y003853D02*
X014107Y003853D01*
X014107Y003795D02*
X018862Y003795D01*
X018862Y003736D02*
X014107Y003736D01*
X014107Y003678D02*
X018862Y003678D01*
X018862Y003619D02*
X014107Y003619D01*
X014107Y003561D02*
X018862Y003561D01*
X018862Y003502D02*
X014107Y003502D01*
X014107Y003444D02*
X018862Y003444D01*
X018862Y003385D02*
X014107Y003385D01*
X014107Y003327D02*
X017808Y003327D01*
X017812Y003330D02*
X017742Y003260D01*
X017742Y002660D01*
X017812Y002590D01*
X017911Y002590D01*
X018562Y002590D01*
X018661Y002590D01*
X018732Y002660D01*
X018732Y003260D01*
X018661Y003330D01*
X017812Y003330D01*
X017750Y003268D02*
X014107Y003268D01*
X014107Y003210D02*
X017742Y003210D01*
X017742Y003151D02*
X014107Y003151D01*
X014107Y003093D02*
X017742Y003093D01*
X017742Y003034D02*
X014107Y003034D01*
X014107Y002976D02*
X017742Y002976D01*
X017742Y002917D02*
X014107Y002917D01*
X014107Y002859D02*
X017742Y002859D01*
X017742Y002800D02*
X014107Y002800D01*
X014107Y002742D02*
X017742Y002742D01*
X017742Y002683D02*
X014107Y002683D01*
X014107Y002625D02*
X017777Y002625D01*
X017862Y002710D02*
X017862Y003210D01*
X018612Y003210D01*
X018612Y002710D01*
X017862Y002710D01*
X017862Y002742D02*
X018612Y002742D01*
X018612Y002800D02*
X017862Y002800D01*
X017862Y002859D02*
X018612Y002859D01*
X018612Y002917D02*
X017862Y002917D01*
X017862Y002976D02*
X018612Y002976D01*
X018612Y003034D02*
X017862Y003034D01*
X017862Y003093D02*
X018612Y003093D01*
X018612Y003151D02*
X017862Y003151D01*
X017862Y003210D02*
X018612Y003210D01*
X018732Y003210D02*
X018862Y003210D01*
X018862Y003268D02*
X018723Y003268D01*
X018665Y003327D02*
X018862Y003327D01*
X018982Y003327D02*
X019097Y003327D01*
X019097Y003298D02*
X019325Y003070D01*
X019648Y003070D01*
X019877Y003298D01*
X019877Y003622D01*
X019648Y003850D01*
X019325Y003850D01*
X019097Y003622D01*
X019097Y003298D01*
X019127Y003268D02*
X018982Y003268D01*
X018982Y003210D02*
X019186Y003210D01*
X019244Y003151D02*
X018982Y003151D01*
X018982Y003093D02*
X019303Y003093D01*
X019097Y003385D02*
X018982Y003385D01*
X018982Y003444D02*
X019097Y003444D01*
X019097Y003502D02*
X018982Y003502D01*
X018982Y003561D02*
X019097Y003561D01*
X019097Y003619D02*
X018982Y003619D01*
X018982Y003678D02*
X019153Y003678D01*
X019211Y003736D02*
X018982Y003736D01*
X018982Y003795D02*
X019270Y003795D01*
X018982Y003853D02*
X020057Y003853D01*
X020057Y003795D02*
X019704Y003795D01*
X019762Y003736D02*
X020057Y003736D01*
X020057Y003678D02*
X019821Y003678D01*
X019877Y003619D02*
X020057Y003619D01*
X020057Y003561D02*
X019877Y003561D01*
X019877Y003502D02*
X020057Y003502D01*
X020057Y003444D02*
X019877Y003444D01*
X019877Y003385D02*
X020057Y003385D01*
X020057Y003327D02*
X019877Y003327D01*
X019846Y003268D02*
X020057Y003268D01*
X020057Y003210D02*
X019788Y003210D01*
X019729Y003151D02*
X020057Y003151D01*
X020057Y003093D02*
X019671Y003093D01*
X020057Y003034D02*
X018982Y003034D01*
X018982Y002976D02*
X020057Y002976D01*
X020057Y002917D02*
X018982Y002917D01*
X018982Y002859D02*
X020057Y002859D01*
X020057Y002800D02*
X018982Y002800D01*
X018982Y002742D02*
X020057Y002742D01*
X020057Y002683D02*
X018982Y002683D01*
X018982Y002625D02*
X020057Y002625D01*
X020057Y002566D02*
X018982Y002566D01*
X018982Y002508D02*
X020057Y002508D01*
X020057Y002449D02*
X018982Y002449D01*
X018982Y002391D02*
X020057Y002391D01*
X020057Y002332D02*
X018982Y002332D01*
X018982Y002274D02*
X020057Y002274D01*
X020057Y002215D02*
X018982Y002215D01*
X018982Y002157D02*
X020057Y002157D01*
X020057Y002098D02*
X018982Y002098D01*
X018982Y002040D02*
X020057Y002040D01*
X020057Y001981D02*
X018982Y001981D01*
X018982Y001923D02*
X020057Y001923D01*
X020057Y001864D02*
X018982Y001864D01*
X018982Y001806D02*
X020057Y001806D01*
X020057Y001747D02*
X018982Y001747D01*
X018982Y001689D02*
X020057Y001689D01*
X020057Y001630D02*
X018982Y001630D01*
X018982Y001572D02*
X019317Y001572D01*
X019175Y001513D02*
X018982Y001513D01*
X018982Y001455D02*
X019090Y001455D01*
X019032Y001396D02*
X018982Y001396D01*
X018862Y001396D02*
X008237Y001396D01*
X008237Y001338D02*
X018862Y001338D01*
X018862Y001279D02*
X011765Y001279D01*
X011720Y001309D02*
X011813Y001247D01*
X011835Y001137D01*
X011717Y000960D01*
X011835Y000783D01*
X011813Y000674D01*
X011720Y000612D01*
X011610Y000634D01*
X011555Y000717D01*
X011499Y000634D01*
X011390Y000612D01*
X011297Y000674D01*
X011293Y000694D01*
X011219Y000620D01*
X010970Y000620D01*
X010922Y000668D01*
X010902Y000688D01*
X010902Y000688D01*
X010871Y000719D01*
X010823Y000767D01*
X010823Y001016D01*
X010891Y001084D01*
X010970Y001164D01*
X011219Y001164D01*
X011269Y001114D01*
X011298Y001084D01*
X011298Y001084D01*
X011316Y001066D01*
X011334Y001049D01*
X011275Y001137D01*
X011297Y001247D01*
X011390Y001309D01*
X011499Y001287D01*
X011555Y001204D01*
X011610Y001287D01*
X011720Y001309D01*
X011605Y001279D02*
X011505Y001279D01*
X011544Y001221D02*
X011566Y001221D01*
X011345Y001279D02*
X010388Y001279D01*
X010366Y001300D02*
X010255Y001300D01*
X010175Y001221D01*
X010175Y001027D01*
X010172Y001027D01*
X010172Y001221D01*
X010093Y001300D01*
X009981Y001300D01*
X009902Y001221D01*
X009902Y001099D01*
X009838Y001164D01*
X009589Y001164D01*
X009521Y001095D01*
X009517Y001092D01*
X009446Y001164D01*
X009129Y001164D01*
X009060Y001095D01*
X009023Y001058D01*
X009014Y001066D01*
X008996Y001084D01*
X008996Y001084D01*
X008967Y001114D01*
X008917Y001164D01*
X008600Y001164D01*
X008521Y001084D01*
X008521Y000631D01*
X008600Y000552D01*
X008668Y000483D01*
X008780Y000483D01*
X008848Y000483D01*
X008928Y000562D01*
X008928Y000631D01*
X008989Y000692D01*
X009060Y000620D01*
X009172Y000620D01*
X009251Y000699D01*
X009251Y000894D01*
X009255Y000894D01*
X009255Y000699D01*
X009334Y000620D01*
X009446Y000620D01*
X009483Y000657D01*
X009521Y000620D01*
X009838Y000620D01*
X009909Y000692D01*
X009981Y000620D01*
X010093Y000620D01*
X010094Y000622D01*
X010174Y000701D01*
X010255Y000620D01*
X010366Y000620D01*
X010445Y000699D01*
X010445Y001221D01*
X010366Y001300D01*
X010445Y001221D02*
X011291Y001221D01*
X011280Y001162D02*
X011220Y001162D01*
X011279Y001104D02*
X011297Y001104D01*
X010969Y001162D02*
X010445Y001162D01*
X010445Y001104D02*
X010910Y001104D01*
X010852Y001045D02*
X010445Y001045D01*
X010445Y000987D02*
X010823Y000987D01*
X010823Y000928D02*
X010445Y000928D01*
X010445Y000870D02*
X010823Y000870D01*
X010823Y000811D02*
X010445Y000811D01*
X010445Y000753D02*
X010838Y000753D01*
X010896Y000694D02*
X010440Y000694D01*
X010382Y000636D02*
X010955Y000636D01*
X011234Y000636D02*
X011354Y000636D01*
X011501Y000636D02*
X011609Y000636D01*
X011570Y000694D02*
X011540Y000694D01*
X011756Y000636D02*
X018862Y000636D01*
X018862Y000694D02*
X011817Y000694D01*
X011829Y000753D02*
X018862Y000753D01*
X018862Y000811D02*
X011817Y000811D01*
X011778Y000870D02*
X018857Y000870D01*
X018857Y000928D02*
X011739Y000928D01*
X011735Y000987D02*
X018857Y000987D01*
X018857Y001045D02*
X011774Y001045D01*
X011813Y001104D02*
X018862Y001104D01*
X018862Y001162D02*
X011830Y001162D01*
X011818Y001221D02*
X018862Y001221D01*
X018862Y001455D02*
X009949Y001455D01*
X009970Y001513D02*
X018862Y001513D01*
X018862Y001572D02*
X009970Y001572D01*
X010091Y001630D02*
X018862Y001630D01*
X018862Y001689D02*
X010117Y001689D01*
X010117Y001747D02*
X018862Y001747D01*
X018862Y001806D02*
X010117Y001806D01*
X010117Y001960D02*
X010117Y002726D01*
X010221Y002726D01*
X010274Y002779D01*
X010274Y002795D01*
X010397Y002795D01*
X010397Y002748D01*
X010449Y002695D01*
X011774Y002695D01*
X011827Y002748D01*
X011827Y002877D01*
X012233Y002877D01*
X012233Y002846D01*
X012286Y002793D01*
X012687Y002793D01*
X012740Y002846D01*
X012740Y003169D01*
X012687Y003221D01*
X012286Y003221D01*
X012233Y003169D01*
X012233Y003137D01*
X011827Y003137D01*
X011827Y003172D01*
X011774Y003225D01*
X010449Y003225D01*
X010397Y003172D01*
X010397Y003055D01*
X010274Y003055D01*
X010274Y003070D01*
X010221Y003123D01*
X009753Y003123D01*
X009700Y003070D01*
X009700Y002779D01*
X009753Y002726D01*
X009857Y002726D01*
X009857Y001997D01*
X009627Y001997D01*
X009590Y001960D01*
X009384Y001960D01*
X009347Y001997D01*
X009056Y001997D01*
X009019Y001960D01*
X008367Y001960D01*
X008367Y005014D01*
X008291Y005090D01*
X007737Y005090D01*
X007737Y005267D01*
X007768Y005235D01*
X007955Y005235D01*
X008087Y005367D01*
X008087Y005553D01*
X007955Y005685D01*
X007774Y005685D01*
X007774Y005820D01*
X007764Y005830D01*
X008541Y005830D01*
X008617Y005906D01*
X008617Y007080D01*
X009003Y007080D01*
X009003Y006976D01*
X009056Y006923D01*
X009347Y006923D01*
X009399Y006976D01*
X009399Y007210D01*
X009574Y007210D01*
X009574Y006976D01*
X009627Y006923D01*
X009918Y006923D01*
X009970Y006976D01*
X009970Y007080D01*
X010041Y007080D01*
X010117Y007156D01*
X010117Y007210D01*
X013987Y007210D01*
X013987Y006800D01*
X013949Y006800D01*
X013897Y006747D01*
X013897Y002173D01*
X013949Y002120D01*
X013987Y002120D01*
X013987Y001960D01*
X010117Y001960D01*
X010117Y001981D02*
X013987Y001981D01*
X013987Y002040D02*
X010117Y002040D01*
X010117Y002098D02*
X013987Y002098D01*
X013913Y002157D02*
X010117Y002157D01*
X010117Y002215D02*
X013897Y002215D01*
X013897Y002274D02*
X010117Y002274D01*
X010117Y002332D02*
X013897Y002332D01*
X013897Y002391D02*
X010117Y002391D01*
X010117Y002449D02*
X013897Y002449D01*
X013897Y002508D02*
X010117Y002508D01*
X010117Y002566D02*
X013897Y002566D01*
X013897Y002625D02*
X010117Y002625D01*
X010117Y002683D02*
X013897Y002683D01*
X013897Y002742D02*
X011820Y002742D01*
X011827Y002800D02*
X012279Y002800D01*
X012233Y002859D02*
X011827Y002859D01*
X011827Y003151D02*
X012233Y003151D01*
X012274Y003210D02*
X011789Y003210D01*
X012699Y003210D02*
X013897Y003210D01*
X013897Y003268D02*
X008367Y003268D01*
X008367Y003210D02*
X010434Y003210D01*
X010397Y003151D02*
X008367Y003151D01*
X008367Y003093D02*
X009722Y003093D01*
X009700Y003034D02*
X008367Y003034D01*
X008367Y002976D02*
X009700Y002976D01*
X009700Y002917D02*
X008367Y002917D01*
X008367Y002859D02*
X009700Y002859D01*
X009700Y002800D02*
X008367Y002800D01*
X008367Y002742D02*
X009737Y002742D01*
X009857Y002683D02*
X008367Y002683D01*
X008367Y002625D02*
X009857Y002625D01*
X009857Y002566D02*
X008367Y002566D01*
X008367Y002508D02*
X009857Y002508D01*
X009857Y002449D02*
X008367Y002449D01*
X008367Y002391D02*
X009857Y002391D01*
X009857Y002332D02*
X008367Y002332D01*
X008367Y002274D02*
X009857Y002274D01*
X009857Y002215D02*
X008367Y002215D01*
X008367Y002157D02*
X009857Y002157D01*
X009857Y002098D02*
X008367Y002098D01*
X008367Y002040D02*
X009857Y002040D01*
X009611Y001981D02*
X009363Y001981D01*
X009399Y001806D02*
X009574Y001806D01*
X009574Y001747D02*
X009399Y001747D01*
X009399Y001689D02*
X009574Y001689D01*
X009574Y001630D02*
X009399Y001630D01*
X009399Y001572D02*
X009574Y001572D01*
X009574Y001513D02*
X009399Y001513D01*
X009378Y001455D02*
X009595Y001455D01*
X009587Y001162D02*
X009447Y001162D01*
X009506Y001104D02*
X009529Y001104D01*
X009839Y001162D02*
X009902Y001162D01*
X009898Y001104D02*
X009902Y001104D01*
X009902Y001221D02*
X008237Y001221D01*
X008237Y001279D02*
X009960Y001279D01*
X010114Y001279D02*
X010233Y001279D01*
X010175Y001221D02*
X010172Y001221D01*
X010172Y001162D02*
X010175Y001162D01*
X010172Y001104D02*
X010175Y001104D01*
X010172Y001045D02*
X010175Y001045D01*
X010167Y000694D02*
X010181Y000694D01*
X010239Y000636D02*
X010108Y000636D01*
X009966Y000636D02*
X009853Y000636D01*
X009505Y000636D02*
X009461Y000636D01*
X009318Y000636D02*
X009188Y000636D01*
X009246Y000694D02*
X009260Y000694D01*
X009251Y000753D02*
X009255Y000753D01*
X009251Y000811D02*
X009255Y000811D01*
X009251Y000870D02*
X009255Y000870D01*
X009069Y001104D02*
X008977Y001104D01*
X008918Y001162D02*
X009127Y001162D01*
X009024Y001455D02*
X008237Y001455D01*
X008237Y001513D02*
X009003Y001513D01*
X009003Y001572D02*
X008237Y001572D01*
X008117Y001572D02*
X006660Y001572D01*
X006719Y001630D02*
X008117Y001630D01*
X008107Y001689D02*
X006777Y001689D01*
X006836Y001747D02*
X008107Y001747D01*
X008107Y001806D02*
X006894Y001806D01*
X006953Y001864D02*
X008107Y001864D01*
X008107Y001923D02*
X007011Y001923D01*
X007070Y001981D02*
X007145Y001981D01*
X006772Y002391D02*
X004331Y002391D01*
X004331Y002449D02*
X006831Y002449D01*
X006889Y002508D02*
X004331Y002508D01*
X004365Y002566D02*
X004609Y002566D01*
X004574Y002625D02*
X004399Y002625D01*
X004399Y002683D02*
X004574Y002683D01*
X004574Y002742D02*
X004399Y002742D01*
X004399Y002800D02*
X004574Y002800D01*
X004574Y002859D02*
X004399Y002859D01*
X004399Y002917D02*
X004574Y002917D01*
X004574Y002976D02*
X004399Y002976D01*
X004399Y003034D02*
X004574Y003034D01*
X004597Y003093D02*
X004376Y003093D01*
X003732Y003034D02*
X000917Y003034D01*
X000917Y002976D02*
X003732Y002976D01*
X003732Y002917D02*
X000917Y002917D01*
X000917Y002859D02*
X002738Y002859D01*
X002700Y002800D02*
X000917Y002800D01*
X000917Y002742D02*
X002700Y002742D01*
X002700Y002683D02*
X000917Y002683D01*
X000917Y002625D02*
X002700Y002625D01*
X002700Y002566D02*
X000917Y002566D01*
X000917Y002508D02*
X002721Y002508D01*
X003088Y001630D02*
X000917Y001630D01*
X000917Y001572D02*
X001317Y001572D01*
X001175Y001513D02*
X000917Y001513D01*
X000917Y001455D02*
X001090Y001455D01*
X001032Y001396D02*
X000917Y001396D01*
X000917Y001338D02*
X000973Y001338D01*
X000937Y001279D02*
X000917Y001279D01*
X000917Y001689D02*
X003403Y001689D01*
X003403Y001747D02*
X000917Y001747D01*
X000917Y001806D02*
X003435Y001806D01*
X003403Y001630D02*
X003385Y001630D01*
X003374Y001279D02*
X003403Y001279D01*
X003403Y001221D02*
X002061Y001221D01*
X002036Y001279D02*
X003099Y001279D01*
X003041Y001338D02*
X002000Y001338D01*
X001942Y001396D02*
X003012Y001396D01*
X003012Y001455D02*
X001883Y001455D01*
X001798Y001513D02*
X003012Y001513D01*
X003030Y001572D02*
X001657Y001572D01*
X002085Y001162D02*
X003403Y001162D01*
X003446Y001104D02*
X002109Y001104D01*
X002117Y001045D02*
X004393Y001045D01*
X004393Y000987D02*
X002117Y000987D01*
X002117Y000928D02*
X004393Y000928D01*
X004393Y000870D02*
X002117Y000870D01*
X002107Y000811D02*
X004393Y000811D01*
X004393Y000753D02*
X002083Y000753D01*
X002058Y000694D02*
X004393Y000694D01*
X004393Y000636D02*
X002034Y000636D01*
X001995Y000577D02*
X008117Y000577D01*
X008117Y000519D02*
X001936Y000519D01*
X001878Y000460D02*
X008117Y000460D01*
X008117Y000401D02*
X001785Y000401D01*
X000917Y001864D02*
X004393Y001864D01*
X004393Y001806D02*
X003904Y001806D01*
X003937Y001747D02*
X004393Y001747D01*
X004393Y002274D02*
X004357Y002274D01*
X004331Y002332D02*
X004440Y002332D01*
X004936Y002566D02*
X005038Y002566D01*
X005003Y002625D02*
X004970Y002625D01*
X004970Y002683D02*
X005003Y002683D01*
X005116Y002332D02*
X005857Y002332D01*
X005810Y002274D02*
X005163Y002274D01*
X005163Y002215D02*
X005810Y002215D01*
X005810Y002157D02*
X005163Y002157D01*
X005163Y002098D02*
X005810Y002098D01*
X005810Y002040D02*
X005163Y002040D01*
X005163Y001981D02*
X005810Y001981D01*
X005810Y001923D02*
X005163Y001923D01*
X005163Y001864D02*
X005810Y001864D01*
X005810Y001806D02*
X005163Y001806D01*
X005163Y001747D02*
X005810Y001747D01*
X005810Y001689D02*
X005163Y001689D01*
X005163Y001630D02*
X005810Y001630D01*
X005810Y001572D02*
X005163Y001572D01*
X005163Y001513D02*
X005810Y001513D01*
X005810Y001455D02*
X005163Y001455D01*
X005163Y001396D02*
X005810Y001396D01*
X005810Y001338D02*
X005163Y001338D01*
X005163Y001279D02*
X005810Y001279D01*
X005810Y001221D02*
X005163Y001221D01*
X005163Y001162D02*
X005810Y001162D01*
X005810Y001104D02*
X005163Y001104D01*
X005163Y001045D02*
X005810Y001045D01*
X005810Y000987D02*
X005163Y000987D01*
X005163Y000928D02*
X005810Y000928D01*
X005810Y000870D02*
X005163Y000870D01*
X005163Y000811D02*
X005810Y000811D01*
X005810Y000753D02*
X005163Y000753D01*
X005163Y000694D02*
X005810Y000694D01*
X005810Y000636D02*
X005163Y000636D01*
X004393Y001104D02*
X003893Y001104D01*
X003937Y001162D02*
X004393Y001162D01*
X005365Y002566D02*
X006038Y002566D01*
X006003Y002625D02*
X005399Y002625D01*
X005399Y002683D02*
X006003Y002683D01*
X006003Y002742D02*
X005399Y002742D01*
X005399Y002800D02*
X006003Y002800D01*
X006003Y002859D02*
X005399Y002859D01*
X005399Y002917D02*
X005973Y002917D01*
X005927Y002976D02*
X005399Y002976D01*
X005399Y003034D02*
X005882Y003034D01*
X005836Y003093D02*
X005376Y003093D01*
X005117Y003151D02*
X005791Y003151D01*
X005745Y003210D02*
X005117Y003210D01*
X005117Y003268D02*
X005700Y003268D01*
X005654Y003327D02*
X005117Y003327D01*
X005117Y003385D02*
X005609Y003385D01*
X005563Y003444D02*
X005117Y003444D01*
X005115Y003502D02*
X005518Y003502D01*
X005472Y003561D02*
X005056Y003561D01*
X004998Y003619D02*
X005427Y003619D01*
X005381Y003678D02*
X004939Y003678D01*
X004881Y003736D02*
X005336Y003736D01*
X005290Y003795D02*
X004822Y003795D01*
X005383Y004087D02*
X006297Y004087D01*
X006297Y004029D02*
X005442Y004029D01*
X005483Y003970D02*
X006297Y003970D01*
X006297Y003912D02*
X005529Y003912D01*
X005574Y003853D02*
X006297Y003853D01*
X006337Y003795D02*
X005620Y003795D01*
X005665Y003736D02*
X006347Y003736D01*
X006347Y003678D02*
X005711Y003678D01*
X005756Y003619D02*
X006327Y003619D01*
X006269Y003561D02*
X005802Y003561D01*
X005847Y003502D02*
X006262Y003502D01*
X006262Y003444D02*
X005893Y003444D01*
X005938Y003385D02*
X006262Y003385D01*
X006302Y003327D02*
X005984Y003327D01*
X006029Y003268D02*
X006360Y003268D01*
X006376Y003093D02*
X007797Y003093D01*
X007797Y003151D02*
X006120Y003151D01*
X006075Y003210D02*
X006598Y003210D01*
X006399Y003034D02*
X007797Y003034D01*
X007797Y002976D02*
X006399Y002976D01*
X006399Y002917D02*
X007797Y002917D01*
X007770Y002859D02*
X006399Y002859D01*
X006399Y002800D02*
X007712Y002800D01*
X007653Y002742D02*
X006399Y002742D01*
X006399Y002683D02*
X007595Y002683D01*
X007898Y002449D02*
X008107Y002449D01*
X008107Y002391D02*
X007866Y002391D01*
X007866Y002332D02*
X008107Y002332D01*
X008107Y002274D02*
X007866Y002274D01*
X007866Y002215D02*
X008107Y002215D01*
X008107Y002157D02*
X007866Y002157D01*
X007866Y002098D02*
X008107Y002098D01*
X008107Y002040D02*
X007866Y002040D01*
X007828Y001981D02*
X008107Y001981D01*
X008367Y001981D02*
X009040Y001981D01*
X008598Y001162D02*
X008237Y001162D01*
X008237Y001104D02*
X008540Y001104D01*
X008521Y001045D02*
X008237Y001045D01*
X008237Y000987D02*
X008521Y000987D01*
X008521Y000928D02*
X008237Y000928D01*
X008237Y000870D02*
X008521Y000870D01*
X008521Y000811D02*
X008237Y000811D01*
X008237Y000753D02*
X008521Y000753D01*
X008521Y000694D02*
X008237Y000694D01*
X008237Y000636D02*
X008521Y000636D01*
X008574Y000577D02*
X008237Y000577D01*
X008237Y000519D02*
X008633Y000519D01*
X008884Y000519D02*
X018862Y000519D01*
X018862Y000577D02*
X008928Y000577D01*
X008932Y000636D02*
X009045Y000636D01*
X008237Y000460D02*
X018862Y000460D01*
X018862Y000401D02*
X008237Y000401D01*
X008117Y000636D02*
X006581Y000636D01*
X006581Y000694D02*
X008117Y000694D01*
X008117Y000753D02*
X006581Y000753D01*
X006581Y000811D02*
X008117Y000811D01*
X008117Y000870D02*
X006581Y000870D01*
X006581Y000928D02*
X008117Y000928D01*
X008117Y000987D02*
X006581Y000987D01*
X006581Y001045D02*
X008117Y001045D01*
X008117Y001104D02*
X006581Y001104D01*
X006581Y001162D02*
X008117Y001162D01*
X008117Y001221D02*
X006581Y001221D01*
X006581Y001279D02*
X008117Y001279D01*
X008117Y001338D02*
X006581Y001338D01*
X006581Y001396D02*
X008117Y001396D01*
X008117Y001455D02*
X006581Y001455D01*
X006602Y001513D02*
X008117Y001513D01*
X008107Y002508D02*
X007956Y002508D01*
X008015Y002566D02*
X008107Y002566D01*
X008107Y002625D02*
X008073Y002625D01*
X007797Y003210D02*
X007036Y003210D01*
X007036Y003268D02*
X007797Y003268D01*
X007797Y003327D02*
X007036Y003327D01*
X007036Y003385D02*
X007797Y003385D01*
X007797Y003444D02*
X007036Y003444D01*
X007036Y003502D02*
X007227Y003502D01*
X007200Y003561D02*
X007036Y003561D01*
X007036Y003619D02*
X007200Y003619D01*
X007200Y003678D02*
X007036Y003678D01*
X007036Y003736D02*
X007200Y003736D01*
X007183Y003795D02*
X007031Y003795D01*
X007036Y003853D02*
X007124Y003853D01*
X007066Y003912D02*
X007036Y003912D01*
X007317Y004029D02*
X007797Y004029D01*
X007797Y003970D02*
X007375Y003970D01*
X007434Y003912D02*
X007797Y003912D01*
X007797Y003853D02*
X007741Y003853D01*
X007774Y003795D02*
X007797Y003795D01*
X007797Y003736D02*
X007774Y003736D01*
X007774Y003678D02*
X007797Y003678D01*
X007797Y003619D02*
X007774Y003619D01*
X007774Y003561D02*
X007797Y003561D01*
X007797Y003502D02*
X007747Y003502D01*
X008367Y003502D02*
X013897Y003502D01*
X013897Y003444D02*
X008367Y003444D01*
X008367Y003385D02*
X013897Y003385D01*
X013897Y003327D02*
X008367Y003327D01*
X008367Y003561D02*
X013897Y003561D01*
X013897Y003619D02*
X008367Y003619D01*
X008367Y003678D02*
X013897Y003678D01*
X013897Y003736D02*
X008367Y003736D01*
X008367Y003795D02*
X013897Y003795D01*
X013897Y003853D02*
X008367Y003853D01*
X008367Y003912D02*
X013897Y003912D01*
X013897Y003970D02*
X008367Y003970D01*
X008367Y004029D02*
X013897Y004029D01*
X013897Y004087D02*
X008367Y004087D01*
X008367Y004146D02*
X013897Y004146D01*
X013897Y004204D02*
X008367Y004204D01*
X008367Y004263D02*
X013897Y004263D01*
X013897Y004321D02*
X008367Y004321D01*
X008367Y004380D02*
X013897Y004380D01*
X013897Y004438D02*
X008367Y004438D01*
X008367Y004497D02*
X013897Y004497D01*
X013897Y004555D02*
X008367Y004555D01*
X008367Y004614D02*
X013897Y004614D01*
X013897Y004672D02*
X008367Y004672D01*
X008367Y004731D02*
X013897Y004731D01*
X013897Y004789D02*
X008367Y004789D01*
X008367Y004848D02*
X013897Y004848D01*
X013897Y004906D02*
X008367Y004906D01*
X008367Y004965D02*
X013897Y004965D01*
X013897Y005023D02*
X008357Y005023D01*
X008299Y005082D02*
X013897Y005082D01*
X013897Y005140D02*
X007737Y005140D01*
X007737Y005199D02*
X013897Y005199D01*
X013897Y005257D02*
X007977Y005257D01*
X008035Y005316D02*
X013897Y005316D01*
X013897Y005374D02*
X008087Y005374D01*
X008087Y005433D02*
X013897Y005433D01*
X013897Y005491D02*
X008087Y005491D01*
X008087Y005550D02*
X013897Y005550D01*
X013897Y005608D02*
X008032Y005608D01*
X007973Y005667D02*
X013897Y005667D01*
X013897Y005725D02*
X007774Y005725D01*
X007774Y005784D02*
X013897Y005784D01*
X013897Y005842D02*
X008553Y005842D01*
X008611Y005901D02*
X013897Y005901D01*
X013897Y005959D02*
X008617Y005959D01*
X008617Y006018D02*
X013897Y006018D01*
X013897Y006076D02*
X008617Y006076D01*
X008617Y006135D02*
X013897Y006135D01*
X013897Y006193D02*
X008617Y006193D01*
X008617Y006252D02*
X013897Y006252D01*
X013897Y006310D02*
X008617Y006310D01*
X008617Y006369D02*
X013897Y006369D01*
X013897Y006427D02*
X008617Y006427D01*
X008617Y006486D02*
X013897Y006486D01*
X013897Y006544D02*
X008617Y006544D01*
X008617Y006603D02*
X013897Y006603D01*
X013897Y006661D02*
X008617Y006661D01*
X008617Y006720D02*
X013897Y006720D01*
X013927Y006778D02*
X008617Y006778D01*
X008617Y006837D02*
X013987Y006837D01*
X013987Y006895D02*
X008617Y006895D01*
X008617Y006954D02*
X009025Y006954D01*
X009003Y007012D02*
X008617Y007012D01*
X008617Y007071D02*
X009003Y007071D01*
X009377Y006954D02*
X009596Y006954D01*
X009574Y007012D02*
X009399Y007012D01*
X009399Y007071D02*
X009574Y007071D01*
X009574Y007129D02*
X009399Y007129D01*
X009399Y007188D02*
X009574Y007188D01*
X009610Y007480D02*
X009364Y007480D01*
X009039Y007480D02*
X008117Y007480D01*
X008117Y007539D02*
X009857Y007539D01*
X009857Y007597D02*
X008117Y007597D01*
X008117Y007656D02*
X009857Y007656D01*
X009857Y007714D02*
X008117Y007714D01*
X008117Y007773D02*
X009857Y007773D01*
X009857Y007831D02*
X008117Y007831D01*
X008117Y007890D02*
X009857Y007890D01*
X009857Y007948D02*
X008117Y007948D01*
X008117Y008007D02*
X009857Y008007D01*
X009857Y008065D02*
X008117Y008065D01*
X008117Y008124D02*
X009857Y008124D01*
X009857Y008182D02*
X008117Y008182D01*
X008117Y008241D02*
X009738Y008241D01*
X009700Y008299D02*
X008117Y008299D01*
X008117Y008358D02*
X009700Y008358D01*
X009700Y008416D02*
X008117Y008416D01*
X008117Y008475D02*
X009700Y008475D01*
X009700Y008533D02*
X008117Y008533D01*
X008117Y008592D02*
X009721Y008592D01*
X010252Y008592D02*
X010397Y008592D01*
X010397Y008650D02*
X008117Y008650D01*
X008117Y008709D02*
X010433Y008709D01*
X010404Y008241D02*
X010235Y008241D01*
X010117Y008182D02*
X013897Y008182D01*
X013897Y008124D02*
X010117Y008124D01*
X010117Y008065D02*
X013897Y008065D01*
X013897Y008007D02*
X010117Y008007D01*
X010117Y007948D02*
X013897Y007948D01*
X013897Y007890D02*
X010117Y007890D01*
X010117Y007831D02*
X013897Y007831D01*
X013897Y007773D02*
X010117Y007773D01*
X010117Y007714D02*
X013897Y007714D01*
X013914Y007656D02*
X010117Y007656D01*
X010117Y007597D02*
X013987Y007597D01*
X013987Y007539D02*
X010117Y007539D01*
X010117Y007480D02*
X013987Y007480D01*
X013987Y007188D02*
X010117Y007188D01*
X010090Y007129D02*
X013987Y007129D01*
X013987Y007071D02*
X009970Y007071D01*
X009970Y007012D02*
X013987Y007012D01*
X013987Y006954D02*
X009948Y006954D01*
X011819Y008241D02*
X013897Y008241D01*
X013897Y008299D02*
X012693Y008299D01*
X012740Y008358D02*
X013897Y008358D01*
X013897Y008416D02*
X012740Y008416D01*
X012740Y008475D02*
X013897Y008475D01*
X013897Y008533D02*
X012740Y008533D01*
X012740Y008592D02*
X013897Y008592D01*
X013897Y008650D02*
X012740Y008650D01*
X012700Y008709D02*
X013897Y008709D01*
X013897Y008767D02*
X008117Y008767D01*
X008117Y008826D02*
X013897Y008826D01*
X013897Y008884D02*
X008117Y008884D01*
X008117Y008943D02*
X013897Y008943D01*
X013897Y009001D02*
X008117Y009001D01*
X008117Y009060D02*
X013897Y009060D01*
X013897Y009118D02*
X008117Y009118D01*
X008117Y009177D02*
X013897Y009177D01*
X013897Y009235D02*
X008117Y009235D01*
X008117Y009294D02*
X013897Y009294D01*
X013897Y009352D02*
X008117Y009352D01*
X008117Y009411D02*
X013897Y009411D01*
X013897Y009469D02*
X008117Y009469D01*
X008117Y009528D02*
X013897Y009528D01*
X013897Y009586D02*
X008117Y009586D01*
X008117Y009645D02*
X013897Y009645D01*
X013897Y009703D02*
X008117Y009703D01*
X008117Y009762D02*
X013897Y009762D01*
X013897Y009820D02*
X008117Y009820D01*
X008117Y009879D02*
X013897Y009879D01*
X013897Y009937D02*
X008117Y009937D01*
X008117Y009996D02*
X013897Y009996D01*
X013897Y010054D02*
X008117Y010054D01*
X008117Y010113D02*
X013897Y010113D01*
X013897Y010171D02*
X008117Y010171D01*
X008117Y010230D02*
X013897Y010230D01*
X013897Y010288D02*
X008117Y010288D01*
X008117Y010347D02*
X013897Y010347D01*
X013897Y010405D02*
X008117Y010405D01*
X008117Y010464D02*
X013897Y010464D01*
X013897Y010522D02*
X008117Y010522D01*
X008117Y010581D02*
X013897Y010581D01*
X013897Y010639D02*
X008117Y010639D01*
X008117Y010698D02*
X013897Y010698D01*
X013897Y010756D02*
X008117Y010756D01*
X008117Y010815D02*
X013897Y010815D01*
X013897Y010873D02*
X008117Y010873D01*
X008117Y010932D02*
X013897Y010932D01*
X013897Y010990D02*
X008117Y010990D01*
X008117Y011049D02*
X013897Y011049D01*
X013897Y011107D02*
X008117Y011107D01*
X008117Y011166D02*
X013897Y011166D01*
X013897Y011224D02*
X008117Y011224D01*
X008117Y011283D02*
X013897Y011283D01*
X013897Y011341D02*
X008117Y011341D01*
X006987Y011341D02*
X005936Y011341D01*
X005962Y011400D02*
X006987Y011400D01*
X006987Y011458D02*
X005962Y011458D01*
X005962Y011517D02*
X006987Y011517D01*
X006987Y011575D02*
X005940Y011575D01*
X005877Y011283D02*
X006987Y011283D01*
X006987Y011107D02*
X006352Y011107D01*
X006352Y011049D02*
X006987Y011049D01*
X006987Y010990D02*
X006352Y010990D01*
X006352Y010932D02*
X006987Y010932D01*
X006987Y010873D02*
X006352Y010873D01*
X006352Y010815D02*
X006987Y010815D01*
X006987Y010756D02*
X006352Y010756D01*
X006352Y010698D02*
X006987Y010698D01*
X006987Y010639D02*
X006313Y010639D01*
X005858Y010581D02*
X006987Y010581D01*
X007376Y013389D02*
X009857Y013389D01*
X009857Y013447D02*
X007367Y013447D01*
X007367Y013506D02*
X009857Y013506D01*
X009857Y013564D02*
X007367Y013564D01*
X007367Y013623D02*
X009857Y013623D01*
X009857Y013681D02*
X007367Y013681D01*
X007367Y013740D02*
X009739Y013740D01*
X009700Y013798D02*
X007367Y013798D01*
X007367Y013857D02*
X009700Y013857D01*
X009700Y013915D02*
X007367Y013915D01*
X007367Y013974D02*
X009700Y013974D01*
X009700Y014032D02*
X007367Y014032D01*
X007367Y014091D02*
X009720Y014091D01*
X010253Y014091D02*
X010397Y014091D01*
X010397Y014149D02*
X007367Y014149D01*
X007367Y014208D02*
X010432Y014208D01*
X010405Y013740D02*
X010234Y013740D01*
X010117Y013681D02*
X013897Y013681D01*
X013897Y013623D02*
X010117Y013623D01*
X010117Y013564D02*
X013897Y013564D01*
X013897Y013506D02*
X010117Y013506D01*
X010117Y013447D02*
X013897Y013447D01*
X013897Y013389D02*
X010117Y013389D01*
X010117Y013330D02*
X013897Y013330D01*
X013897Y013272D02*
X010117Y013272D01*
X010117Y013213D02*
X013897Y013213D01*
X013915Y013155D02*
X010117Y013155D01*
X010117Y013096D02*
X013987Y013096D01*
X013987Y013038D02*
X010117Y013038D01*
X010117Y012979D02*
X013987Y012979D01*
X014107Y012628D02*
X017992Y012628D01*
X017992Y012570D02*
X014107Y012570D01*
X014107Y012511D02*
X017992Y012511D01*
X017992Y012453D02*
X014107Y012453D01*
X014107Y012394D02*
X017992Y012394D01*
X017992Y012336D02*
X014107Y012336D01*
X014107Y012277D02*
X018000Y012277D01*
X018058Y012219D02*
X014107Y012219D01*
X014107Y011809D02*
X017791Y011809D01*
X017742Y011751D02*
X014107Y011751D01*
X013897Y013740D02*
X011819Y013740D01*
X011827Y013798D02*
X012281Y013798D01*
X012233Y013857D02*
X011827Y013857D01*
X011827Y014149D02*
X012233Y014149D01*
X012272Y014208D02*
X011791Y014208D01*
X012701Y014208D02*
X013897Y014208D01*
X013897Y014266D02*
X007367Y014266D01*
X007367Y014325D02*
X013897Y014325D01*
X013897Y014383D02*
X007367Y014383D01*
X007367Y014442D02*
X013897Y014442D01*
X013897Y014500D02*
X007367Y014500D01*
X007367Y014559D02*
X013897Y014559D01*
X013897Y014617D02*
X007367Y014617D01*
X007367Y014676D02*
X013897Y014676D01*
X013897Y014734D02*
X007367Y014734D01*
X007367Y014793D02*
X013897Y014793D01*
X013897Y014851D02*
X007367Y014851D01*
X007367Y014910D02*
X013897Y014910D01*
X013897Y014968D02*
X007367Y014968D01*
X007367Y015027D02*
X013897Y015027D01*
X013897Y015085D02*
X007367Y015085D01*
X007367Y015144D02*
X013897Y015144D01*
X013897Y015202D02*
X007367Y015202D01*
X007367Y015261D02*
X013897Y015261D01*
X013897Y015319D02*
X007367Y015319D01*
X007367Y015378D02*
X013897Y015378D01*
X013897Y015436D02*
X007367Y015436D01*
X007367Y015495D02*
X013897Y015495D01*
X013897Y015553D02*
X007367Y015553D01*
X007367Y015612D02*
X013897Y015612D01*
X013897Y015670D02*
X007367Y015670D01*
X007367Y015729D02*
X013897Y015729D01*
X013897Y015787D02*
X007367Y015787D01*
X007367Y015846D02*
X013897Y015846D01*
X013897Y015904D02*
X007367Y015904D01*
X007367Y015963D02*
X013897Y015963D01*
X013897Y016021D02*
X007367Y016021D01*
X007367Y016080D02*
X013897Y016080D01*
X013897Y016138D02*
X007367Y016138D01*
X007367Y016197D02*
X013897Y016197D01*
X013897Y016255D02*
X007367Y016255D01*
X007367Y016314D02*
X013897Y016314D01*
X013897Y016372D02*
X008661Y016372D01*
X008608Y016350D02*
X008832Y016443D01*
X009004Y016614D01*
X009097Y016839D01*
X009097Y017081D01*
X009004Y017306D01*
X008832Y017477D01*
X008608Y017570D01*
X008365Y017570D01*
X008141Y017477D01*
X007970Y017306D01*
X007877Y017081D01*
X007877Y016839D01*
X007970Y016614D01*
X008141Y016443D01*
X008365Y016350D01*
X008608Y016350D01*
X008803Y016431D02*
X013897Y016431D01*
X013897Y016489D02*
X008878Y016489D01*
X008937Y016548D02*
X013897Y016548D01*
X013897Y016606D02*
X008995Y016606D01*
X009025Y016665D02*
X013897Y016665D01*
X013897Y016723D02*
X009049Y016723D01*
X009073Y016782D02*
X013897Y016782D01*
X013897Y016840D02*
X009097Y016840D01*
X009097Y016899D02*
X013897Y016899D01*
X013897Y016957D02*
X009097Y016957D01*
X009097Y017016D02*
X013897Y017016D01*
X013897Y017074D02*
X009097Y017074D01*
X009075Y017133D02*
X013897Y017133D01*
X013897Y017191D02*
X009051Y017191D01*
X009027Y017250D02*
X013897Y017250D01*
X013897Y017308D02*
X009001Y017308D01*
X008943Y017367D02*
X013897Y017367D01*
X013897Y017425D02*
X008884Y017425D01*
X008817Y017484D02*
X013897Y017484D01*
X013897Y017542D02*
X008675Y017542D01*
X008298Y017542D02*
X007237Y017542D01*
X007237Y017484D02*
X008157Y017484D01*
X008089Y017425D02*
X007237Y017425D01*
X007237Y017367D02*
X008031Y017367D01*
X007972Y017308D02*
X007237Y017308D01*
X007237Y017250D02*
X007946Y017250D01*
X007922Y017191D02*
X007237Y017191D01*
X007237Y017133D02*
X007898Y017133D01*
X007877Y017074D02*
X007237Y017074D01*
X007237Y017016D02*
X007877Y017016D01*
X007877Y016957D02*
X007237Y016957D01*
X007237Y016899D02*
X007877Y016899D01*
X007877Y016840D02*
X007237Y016840D01*
X007237Y016782D02*
X007900Y016782D01*
X007925Y016723D02*
X007237Y016723D01*
X007237Y016665D02*
X007949Y016665D01*
X007978Y016606D02*
X007237Y016606D01*
X007333Y016548D02*
X008036Y016548D01*
X008095Y016489D02*
X007367Y016489D01*
X007367Y016431D02*
X008171Y016431D01*
X008312Y016372D02*
X007367Y016372D01*
X006987Y016314D02*
X005524Y016314D01*
X005524Y016255D02*
X006987Y016255D01*
X006987Y016197D02*
X005524Y016197D01*
X005524Y016138D02*
X006987Y016138D01*
X006987Y016080D02*
X005524Y016080D01*
X005516Y016021D02*
X006987Y016021D01*
X006987Y015963D02*
X004877Y015963D01*
X004877Y015904D02*
X006987Y015904D01*
X006987Y015846D02*
X004877Y015846D01*
X005362Y015787D02*
X006987Y015787D01*
X006987Y015729D02*
X005387Y015729D01*
X005387Y015670D02*
X006987Y015670D01*
X006987Y015612D02*
X005387Y015612D01*
X005387Y015553D02*
X006987Y015553D01*
X006987Y015495D02*
X005387Y015495D01*
X005387Y015436D02*
X006987Y015436D01*
X006987Y015378D02*
X005387Y015378D01*
X005387Y015319D02*
X006987Y015319D01*
X006987Y015261D02*
X005350Y015261D01*
X005127Y015202D02*
X006987Y015202D01*
X006987Y015144D02*
X005127Y015144D01*
X005127Y015085D02*
X006987Y015085D01*
X006987Y015027D02*
X005127Y015027D01*
X005127Y014968D02*
X006987Y014968D01*
X006987Y014910D02*
X005127Y014910D01*
X005127Y014851D02*
X006987Y014851D01*
X006987Y014793D02*
X005127Y014793D01*
X005127Y014734D02*
X006987Y014734D01*
X006987Y014676D02*
X005127Y014676D01*
X005092Y014617D02*
X006987Y014617D01*
X006987Y014559D02*
X003319Y014559D01*
X003260Y014500D02*
X006987Y014500D01*
X006987Y014442D02*
X003202Y014442D01*
X003026Y014266D02*
X003630Y014266D01*
X003572Y014208D02*
X002970Y014208D01*
X002970Y014149D02*
X003513Y014149D01*
X003455Y014091D02*
X002970Y014091D01*
X002970Y014032D02*
X003396Y014032D01*
X003338Y013974D02*
X002968Y013974D01*
X002973Y013213D02*
X003362Y013213D01*
X003303Y013155D02*
X002970Y013155D01*
X002970Y013096D02*
X003245Y013096D01*
X003186Y013038D02*
X002970Y013038D01*
X002970Y012979D02*
X003128Y012979D01*
X001279Y012804D02*
X000917Y012804D01*
X000917Y012745D02*
X001220Y012745D01*
X001162Y012687D02*
X000917Y012687D01*
X000917Y012628D02*
X001103Y012628D01*
X001097Y012570D02*
X000917Y012570D01*
X000917Y012511D02*
X001097Y012511D01*
X001097Y012453D02*
X000917Y012453D01*
X000917Y012394D02*
X001097Y012394D01*
X001097Y012336D02*
X000917Y012336D01*
X000917Y012277D02*
X001118Y012277D01*
X001177Y012219D02*
X000917Y012219D01*
X000917Y012160D02*
X001235Y012160D01*
X001294Y012102D02*
X000917Y012102D01*
X000917Y011809D02*
X001284Y011809D01*
X001226Y011751D02*
X000917Y011751D01*
X000917Y011692D02*
X001167Y011692D01*
X001109Y011634D02*
X000917Y011634D01*
X000917Y011575D02*
X001097Y011575D01*
X001097Y011517D02*
X000917Y011517D01*
X000917Y011458D02*
X001097Y011458D01*
X001097Y011400D02*
X000917Y011400D01*
X000917Y011341D02*
X001097Y011341D01*
X001113Y011283D02*
X000917Y011283D01*
X000917Y011224D02*
X001171Y011224D01*
X001230Y011166D02*
X000917Y011166D01*
X002367Y007597D02*
X003937Y007597D01*
X003992Y005491D02*
X006297Y005491D01*
X006297Y005433D02*
X003992Y005433D01*
X003967Y004906D02*
X004337Y004906D01*
X003937Y003853D02*
X003741Y003853D01*
X003774Y003795D02*
X003942Y003795D01*
X003937Y003736D02*
X003774Y003736D01*
X003774Y003678D02*
X003937Y003678D01*
X001900Y003795D02*
X001704Y003795D01*
X001897Y003853D02*
X000917Y003853D01*
X000917Y003795D02*
X001270Y003795D01*
X001211Y003736D02*
X000917Y003736D01*
X000917Y003678D02*
X001153Y003678D01*
X001097Y003619D02*
X000917Y003619D01*
X000917Y003561D02*
X001097Y003561D01*
X001097Y003502D02*
X000917Y003502D01*
X000917Y003444D02*
X001097Y003444D01*
X001097Y003385D02*
X000917Y003385D01*
X000917Y003327D02*
X001097Y003327D01*
X001127Y003268D02*
X000917Y003268D01*
X000917Y003210D02*
X001186Y003210D01*
X001244Y003151D02*
X000917Y003151D01*
X000917Y003093D02*
X001303Y003093D01*
X000917Y003912D02*
X001897Y003912D01*
X001897Y003970D02*
X000917Y003970D01*
X006365Y002566D02*
X007107Y002566D01*
X007138Y002625D02*
X006399Y002625D01*
X006533Y002332D02*
X006714Y002332D01*
X006655Y002274D02*
X006581Y002274D01*
X006581Y002215D02*
X006597Y002215D01*
X007737Y005257D02*
X007746Y005257D01*
X010251Y003093D02*
X010397Y003093D01*
X010403Y002742D02*
X010236Y002742D01*
X012694Y002800D02*
X013897Y002800D01*
X013897Y002859D02*
X012740Y002859D01*
X012740Y002917D02*
X013897Y002917D01*
X013897Y002976D02*
X012740Y002976D01*
X012740Y003034D02*
X013897Y003034D01*
X013897Y003093D02*
X012740Y003093D01*
X012740Y003151D02*
X013897Y003151D01*
X014107Y002566D02*
X018862Y002566D01*
X018862Y002508D02*
X014107Y002508D01*
X014107Y002449D02*
X018862Y002449D01*
X018862Y002391D02*
X014107Y002391D01*
X014107Y002332D02*
X018862Y002332D01*
X018862Y002274D02*
X014107Y002274D01*
X014107Y002215D02*
X018862Y002215D01*
X018862Y002157D02*
X014107Y002157D01*
X014107Y002098D02*
X018862Y002098D01*
X018862Y002040D02*
X014107Y002040D01*
X014107Y001981D02*
X018862Y001981D01*
X018862Y001923D02*
X014107Y001923D01*
X014060Y001864D02*
X018862Y001864D01*
X018862Y002625D02*
X018696Y002625D01*
X018732Y002683D02*
X018862Y002683D01*
X018862Y002742D02*
X018732Y002742D01*
X018732Y002800D02*
X018862Y002800D01*
X018862Y002859D02*
X018732Y002859D01*
X018732Y002917D02*
X018862Y002917D01*
X018862Y002976D02*
X018732Y002976D01*
X018732Y003034D02*
X018862Y003034D01*
X018862Y003093D02*
X018732Y003093D01*
X018732Y003151D02*
X018862Y003151D01*
X018982Y003912D02*
X020057Y003912D01*
X020057Y003970D02*
X018982Y003970D01*
X018982Y004029D02*
X020057Y004029D01*
X020057Y004087D02*
X019665Y004087D01*
X019648Y004070D02*
X019877Y004298D01*
X019877Y004622D01*
X019648Y004850D01*
X019325Y004850D01*
X019097Y004622D01*
X019097Y004298D01*
X019325Y004070D01*
X019648Y004070D01*
X019724Y004146D02*
X020057Y004146D01*
X020057Y004204D02*
X019782Y004204D01*
X019841Y004263D02*
X020057Y004263D01*
X020057Y004321D02*
X019877Y004321D01*
X019877Y004380D02*
X020057Y004380D01*
X020057Y004438D02*
X019877Y004438D01*
X019877Y004497D02*
X020057Y004497D01*
X020057Y004555D02*
X019877Y004555D01*
X019877Y004614D02*
X020057Y004614D01*
X020057Y004672D02*
X019826Y004672D01*
X019768Y004731D02*
X020057Y004731D01*
X020057Y004789D02*
X019709Y004789D01*
X019651Y004848D02*
X020057Y004848D01*
X020057Y004906D02*
X018982Y004906D01*
X018982Y004848D02*
X019323Y004848D01*
X019264Y004789D02*
X018982Y004789D01*
X018982Y004731D02*
X019206Y004731D01*
X019147Y004672D02*
X018982Y004672D01*
X018982Y004614D02*
X019097Y004614D01*
X019097Y004555D02*
X018982Y004555D01*
X018982Y004497D02*
X019097Y004497D01*
X019097Y004438D02*
X018982Y004438D01*
X018982Y004380D02*
X019097Y004380D01*
X019097Y004321D02*
X018982Y004321D01*
X018982Y004263D02*
X019133Y004263D01*
X019191Y004204D02*
X018982Y004204D01*
X018982Y004146D02*
X019250Y004146D01*
X019308Y004087D02*
X018982Y004087D01*
X018982Y004965D02*
X020057Y004965D01*
X020057Y005023D02*
X018982Y005023D01*
X018982Y005082D02*
X019314Y005082D01*
X019325Y005070D02*
X019648Y005070D01*
X019877Y005298D01*
X019877Y005622D01*
X019648Y005850D01*
X019325Y005850D01*
X019097Y005622D01*
X019097Y005298D01*
X019325Y005070D01*
X019255Y005140D02*
X018982Y005140D01*
X018982Y005199D02*
X019197Y005199D01*
X019138Y005257D02*
X018982Y005257D01*
X018982Y005316D02*
X019097Y005316D01*
X019097Y005374D02*
X018982Y005374D01*
X018982Y005433D02*
X019097Y005433D01*
X019097Y005491D02*
X018982Y005491D01*
X018982Y005550D02*
X019097Y005550D01*
X019097Y005608D02*
X018982Y005608D01*
X018982Y005667D02*
X019142Y005667D01*
X019200Y005725D02*
X018982Y005725D01*
X018982Y005784D02*
X019259Y005784D01*
X019317Y005842D02*
X018982Y005842D01*
X018982Y005901D02*
X020057Y005901D01*
X020057Y005959D02*
X018982Y005959D01*
X019656Y005842D02*
X020057Y005842D01*
X020057Y005784D02*
X019715Y005784D01*
X019773Y005725D02*
X020057Y005725D01*
X020057Y005667D02*
X019832Y005667D01*
X019877Y005608D02*
X020057Y005608D01*
X020057Y005550D02*
X019877Y005550D01*
X019877Y005491D02*
X020057Y005491D01*
X020057Y005433D02*
X019877Y005433D01*
X019877Y005374D02*
X020057Y005374D01*
X020057Y005316D02*
X019877Y005316D01*
X019835Y005257D02*
X020057Y005257D01*
X020057Y005199D02*
X019777Y005199D01*
X019718Y005140D02*
X020057Y005140D01*
X020057Y005082D02*
X019660Y005082D01*
X018057Y006720D02*
X014107Y006720D01*
X014107Y006778D02*
X017999Y006778D01*
X017792Y006310D02*
X014107Y006310D01*
X014107Y006252D02*
X017742Y006252D01*
X018982Y008943D02*
X020057Y008943D01*
X020057Y009001D02*
X018982Y009001D01*
X018982Y009060D02*
X020057Y009060D01*
X020057Y009118D02*
X019696Y009118D01*
X019648Y009070D02*
X019325Y009070D01*
X019097Y009298D01*
X019097Y009622D01*
X019325Y009850D01*
X019648Y009850D01*
X019877Y009622D01*
X019877Y009298D01*
X019648Y009070D01*
X019755Y009177D02*
X020057Y009177D01*
X020057Y009235D02*
X019813Y009235D01*
X019872Y009294D02*
X020057Y009294D01*
X020057Y009352D02*
X019877Y009352D01*
X019877Y009411D02*
X020057Y009411D01*
X020057Y009469D02*
X019877Y009469D01*
X019877Y009528D02*
X020057Y009528D01*
X020057Y009586D02*
X019877Y009586D01*
X019854Y009645D02*
X020057Y009645D01*
X020057Y009703D02*
X019795Y009703D01*
X019737Y009762D02*
X020057Y009762D01*
X020057Y009820D02*
X019678Y009820D01*
X019648Y010070D02*
X019325Y010070D01*
X019097Y010298D01*
X019097Y010622D01*
X019325Y010850D01*
X019648Y010850D01*
X019877Y010622D01*
X019877Y010298D01*
X019648Y010070D01*
X019691Y010113D02*
X020057Y010113D01*
X020057Y010171D02*
X019749Y010171D01*
X019808Y010230D02*
X020057Y010230D01*
X020057Y010288D02*
X019866Y010288D01*
X019877Y010347D02*
X020057Y010347D01*
X020057Y010405D02*
X019877Y010405D01*
X019877Y010464D02*
X020057Y010464D01*
X020057Y010522D02*
X019877Y010522D01*
X019877Y010581D02*
X020057Y010581D01*
X020057Y010639D02*
X019859Y010639D01*
X019801Y010698D02*
X020057Y010698D01*
X020057Y010756D02*
X019742Y010756D01*
X019684Y010815D02*
X020057Y010815D01*
X020057Y010873D02*
X018982Y010873D01*
X018982Y010815D02*
X019290Y010815D01*
X019231Y010756D02*
X018982Y010756D01*
X018982Y010698D02*
X019173Y010698D01*
X019114Y010639D02*
X018982Y010639D01*
X018982Y010581D02*
X019097Y010581D01*
X019097Y010522D02*
X018982Y010522D01*
X018982Y010464D02*
X019097Y010464D01*
X019097Y010405D02*
X018982Y010405D01*
X018982Y010347D02*
X019097Y010347D01*
X019107Y010288D02*
X018982Y010288D01*
X018982Y010230D02*
X019166Y010230D01*
X019224Y010171D02*
X018982Y010171D01*
X018982Y010113D02*
X019283Y010113D01*
X019295Y009820D02*
X018982Y009820D01*
X018982Y009762D02*
X019237Y009762D01*
X019178Y009703D02*
X018982Y009703D01*
X018982Y009645D02*
X019120Y009645D01*
X019097Y009586D02*
X018982Y009586D01*
X018982Y009528D02*
X019097Y009528D01*
X019097Y009469D02*
X018982Y009469D01*
X018982Y009411D02*
X019097Y009411D01*
X019097Y009352D02*
X018982Y009352D01*
X018982Y009294D02*
X019102Y009294D01*
X019160Y009235D02*
X018982Y009235D01*
X018982Y009177D02*
X019219Y009177D01*
X019277Y009118D02*
X018982Y009118D01*
X018982Y009879D02*
X020057Y009879D01*
X020057Y009937D02*
X018982Y009937D01*
X018982Y009996D02*
X020057Y009996D01*
X020057Y010054D02*
X018982Y010054D01*
X018982Y010932D02*
X020057Y010932D01*
X020057Y010990D02*
X018982Y010990D01*
X018982Y011868D02*
X020057Y011868D01*
X020057Y011926D02*
X018982Y011926D01*
X018982Y011985D02*
X020057Y011985D01*
X020057Y012043D02*
X018982Y012043D01*
X013897Y013798D02*
X012692Y013798D01*
X012740Y013857D02*
X013897Y013857D01*
X013897Y013915D02*
X012740Y013915D01*
X012740Y013974D02*
X013897Y013974D01*
X013897Y014032D02*
X012740Y014032D01*
X012740Y014091D02*
X013897Y014091D01*
X013897Y014149D02*
X012740Y014149D01*
X007856Y018303D02*
X007828Y018303D01*
X007724Y017952D02*
X007708Y017952D01*
X007753Y017893D02*
X007658Y017893D01*
X007238Y018186D02*
X007156Y018186D01*
X007156Y018244D02*
X007238Y018244D01*
X007238Y018303D02*
X007156Y018303D01*
X007117Y018361D02*
X007277Y018361D01*
X007336Y018420D02*
X007058Y018420D01*
X007051Y017893D02*
X007085Y017893D01*
X006791Y017893D02*
X006682Y017893D01*
X011790Y008709D02*
X012273Y008709D01*
X012233Y008650D02*
X011827Y008650D01*
X011827Y008358D02*
X012233Y008358D01*
X012280Y008299D02*
X011827Y008299D01*
X019657Y001572D02*
X020057Y001572D01*
X020057Y001513D02*
X019798Y001513D01*
X019883Y001455D02*
X020057Y001455D01*
X020057Y001396D02*
X019942Y001396D01*
X020000Y001338D02*
X020057Y001338D01*
X020057Y001279D02*
X020036Y001279D01*
D32*
X006737Y012960D03*
X005737Y013210D03*
X003237Y011960D03*
X001987Y009960D03*
X003537Y008875D03*
X005937Y008880D03*
X006477Y008880D03*
X003237Y016710D03*
D33*
X002737Y007960D03*
X003737Y007710D03*
X004987Y007960D03*
X005487Y007960D03*
X007862Y005460D03*
X005737Y003960D03*
X002637Y005710D03*
D34*
X002987Y005995D02*
X002987Y006255D01*
X002387Y006255D01*
X002387Y005120D01*
X002237Y004970D01*
X002237Y004310D01*
X002237Y003960D02*
X002687Y003960D01*
X002987Y004245D02*
X002987Y004550D01*
X002987Y004835D01*
X003712Y004835D01*
X003862Y004985D01*
X003862Y005121D01*
X004012Y005271D01*
X004156Y005271D01*
X004156Y005074D02*
X004487Y005074D01*
X004156Y005665D02*
X003962Y005665D01*
X003862Y005565D01*
X003862Y005320D01*
X003662Y005120D01*
X003487Y005120D01*
X003487Y005425D02*
X003487Y005710D01*
X003737Y005710D01*
X003888Y005862D01*
X004156Y005862D01*
X004156Y006058D02*
X003487Y006058D01*
X003487Y005995D01*
X002987Y006255D02*
X004156Y006255D01*
X004487Y006255D01*
X004487Y007633D01*
X004156Y007633D01*
X004156Y007436D02*
X002237Y007436D01*
X002237Y008710D01*
X001487Y009460D01*
X001487Y008460D02*
X001987Y007960D01*
X001987Y007240D01*
X004156Y007240D01*
X004156Y007043D02*
X001904Y007043D01*
X001487Y007460D01*
X001872Y006846D02*
X004156Y006846D01*
X004156Y006649D02*
X001987Y006649D01*
X001987Y005960D01*
X001487Y005460D01*
X002237Y005210D02*
X001487Y004460D01*
X002237Y005210D02*
X002237Y006452D01*
X004156Y006452D01*
X002987Y005120D02*
X002387Y005120D01*
X001487Y006460D02*
X001872Y006846D01*
X002487Y008224D02*
X002487Y011710D01*
X002987Y010675D02*
X003772Y011460D01*
X005737Y011460D01*
X005987Y010893D02*
X005750Y010657D01*
X005329Y010657D01*
X005329Y010066D02*
X004362Y010066D01*
X004362Y010460D01*
X004362Y010854D01*
X003644Y010854D01*
X003644Y010460D02*
X003201Y010460D01*
X002987Y010675D01*
X003004Y010263D02*
X002987Y010245D01*
X003004Y010263D02*
X003644Y010263D01*
X003644Y010066D02*
X003252Y009675D01*
X002987Y009675D01*
X004156Y008421D02*
X004522Y008421D01*
X004772Y008671D01*
X004772Y009210D01*
X004987Y009745D02*
X004427Y009745D01*
X004987Y009745D02*
X004987Y008330D01*
X004487Y007830D01*
X004156Y007830D01*
X004156Y008224D02*
X002487Y008224D01*
X003737Y011710D02*
X003737Y012175D01*
X003737Y011710D02*
X004737Y011710D01*
X004737Y012175D01*
X005237Y012175D02*
X007237Y012175D01*
X007237Y012960D01*
X008612Y012960D01*
X008862Y013210D01*
X009237Y013210D01*
X009487Y012960D01*
X009487Y012710D01*
X009772Y012710D02*
X009987Y012710D01*
X009987Y013925D01*
X011112Y013925D01*
X011112Y013960D01*
X011112Y014007D01*
X012487Y014007D01*
X009201Y012710D02*
X007987Y012710D01*
X007987Y006960D01*
X007237Y006960D01*
X007154Y007043D01*
X006817Y007043D01*
X006817Y007240D02*
X007481Y007240D01*
X007487Y007245D01*
X007737Y007245D01*
X007737Y012710D01*
X007487Y012460D02*
X007487Y007460D01*
X006817Y007460D01*
X006817Y007436D01*
X006817Y007633D02*
X006587Y007633D01*
X006587Y006649D01*
X006587Y005665D01*
X006817Y005665D01*
X006817Y005468D02*
X006823Y005464D01*
X006829Y005461D01*
X006836Y005460D01*
X007862Y005460D01*
X007987Y005210D02*
X007487Y005210D01*
X007487Y005245D01*
X007461Y005271D01*
X006817Y005271D01*
X006817Y005074D02*
X007122Y005074D01*
X007237Y004960D01*
X008237Y004960D01*
X008237Y001710D01*
X009201Y001710D01*
X009772Y001710D02*
X009987Y001710D01*
X009987Y002925D01*
X011112Y002925D01*
X011112Y002960D01*
X011112Y003007D01*
X012487Y003007D01*
X008487Y005960D02*
X008487Y007210D01*
X009201Y007210D01*
X009772Y007210D02*
X009987Y007210D01*
X009987Y008425D01*
X011112Y008425D01*
X011112Y008460D01*
X011112Y008507D01*
X012487Y008507D01*
X009987Y008460D02*
X009987Y008425D01*
X008237Y007710D02*
X008237Y006255D01*
X007487Y006255D01*
X006817Y006255D01*
X006817Y006058D02*
X007138Y006058D01*
X007237Y005960D01*
X008487Y005960D01*
X007987Y006460D02*
X007987Y006710D01*
X007987Y006460D02*
X006817Y006460D01*
X006817Y006452D01*
X006817Y006649D02*
X006587Y006649D01*
X006817Y006846D02*
X007101Y006846D01*
X007272Y006675D01*
X007487Y006675D01*
X007487Y006255D02*
X007487Y006245D01*
X007085Y005862D02*
X007272Y005675D01*
X007487Y005675D01*
X007085Y005862D02*
X006817Y005862D01*
X006817Y004877D02*
X007069Y004877D01*
X007272Y004675D01*
X007487Y004675D01*
X007445Y004287D02*
X007487Y004245D01*
X007071Y004090D02*
X007487Y003675D01*
X007071Y004090D02*
X006817Y004090D01*
X006201Y002835D02*
X005326Y003960D01*
X004487Y003960D01*
X004487Y004484D01*
X004156Y004484D01*
X004156Y003696D02*
X004737Y003696D01*
X004987Y003446D01*
X004987Y002835D01*
X005201Y002835D01*
X004987Y002835D02*
X004772Y002835D01*
X004201Y002835D02*
X004201Y002245D01*
X004778Y001669D01*
X004778Y001460D01*
X003862Y002550D02*
X003522Y002210D01*
X003862Y002550D02*
X003862Y003303D01*
X004156Y003303D01*
X004156Y003499D02*
X003487Y003499D01*
X003487Y003245D01*
X003487Y003499D02*
X003487Y003675D01*
X003487Y002675D02*
X002987Y002675D01*
X006587Y007633D02*
X006587Y008421D01*
X006817Y008421D01*
X006817Y008224D02*
X007237Y008224D01*
X007237Y011710D01*
X004737Y011710D01*
X004237Y012175D02*
X004237Y012460D01*
X006987Y012460D01*
X007237Y013210D02*
X007237Y016460D01*
X004737Y016460D01*
X004737Y016745D01*
X004737Y016460D02*
X003737Y016460D01*
X003737Y016745D01*
X003737Y017960D01*
X004237Y017460D02*
X004487Y017710D01*
X015737Y017710D01*
X015737Y015460D01*
X007487Y016745D02*
X005237Y016745D01*
X004237Y016745D02*
X004237Y017460D01*
X003237Y015210D02*
X002772Y015210D01*
X004237Y013960D02*
X004487Y013960D01*
X004487Y013390D01*
X007237Y007710D02*
X007237Y007633D01*
X006817Y007633D01*
D35*
X007237Y007710D03*
X008237Y007960D03*
X008487Y007710D03*
X008737Y007960D03*
X008987Y007710D03*
X009237Y007960D03*
X009487Y007710D03*
X009737Y007960D03*
X009487Y008210D03*
X008987Y008210D03*
X008737Y008460D03*
X008487Y008210D03*
X008237Y008460D03*
X008487Y008710D03*
X009237Y009460D03*
X009487Y009710D03*
X009737Y009460D03*
X009987Y009710D03*
X010237Y009460D03*
X010737Y009960D03*
X011237Y009960D03*
X011737Y009960D03*
X011987Y009710D03*
X012237Y009960D03*
X012487Y010210D03*
X012737Y009960D03*
X012987Y010210D03*
X012737Y010460D03*
X012987Y010710D03*
X013237Y010960D03*
X013487Y011210D03*
X013737Y010960D03*
X013487Y010710D03*
X013737Y010460D03*
X013487Y010210D03*
X013737Y009960D03*
X013487Y009710D03*
X013737Y009460D03*
X013487Y009210D03*
X013737Y008960D03*
X013487Y008710D03*
X013737Y008460D03*
X013487Y008210D03*
X013737Y007960D03*
X013487Y007710D03*
X013237Y007960D03*
X012987Y007710D03*
X012737Y007960D03*
X012987Y008210D03*
X013237Y008460D03*
X012987Y008710D03*
X013237Y008960D03*
X012987Y009210D03*
X012737Y008960D03*
X012237Y008960D03*
X011987Y009210D03*
X012987Y009710D03*
X013237Y009960D03*
X013237Y010460D03*
X012737Y010960D03*
X012987Y011210D03*
X012737Y011460D03*
X012987Y011710D03*
X013237Y011960D03*
X013487Y012210D03*
X013737Y011960D03*
X013487Y011710D03*
X013737Y011460D03*
X013237Y011460D03*
X012737Y011960D03*
X012987Y012210D03*
X012737Y012460D03*
X012487Y012210D03*
X012237Y011960D03*
X011987Y012210D03*
X012237Y012460D03*
X011737Y012460D03*
X011487Y012210D03*
X011737Y011960D03*
X011987Y011710D03*
X012237Y011460D03*
X012487Y011210D03*
X012237Y010960D03*
X011987Y011210D03*
X012487Y011710D03*
X013237Y012460D03*
X013737Y012460D03*
X013487Y013210D03*
X013737Y013460D03*
X013487Y013710D03*
X013737Y013960D03*
X013487Y014210D03*
X013737Y014460D03*
X013487Y014710D03*
X013737Y014960D03*
X013487Y015210D03*
X013737Y015460D03*
X013487Y015710D03*
X013737Y015960D03*
X013487Y016210D03*
X013737Y016460D03*
X013487Y016710D03*
X013737Y016960D03*
X013487Y017210D03*
X013237Y016960D03*
X012987Y016710D03*
X012737Y016460D03*
X012987Y016210D03*
X013237Y015960D03*
X012987Y015710D03*
X012737Y015460D03*
X012987Y015210D03*
X013237Y014960D03*
X012987Y014710D03*
X012737Y014460D03*
X012987Y014210D03*
X013237Y013960D03*
X012987Y013710D03*
X012737Y013460D03*
X012987Y013210D03*
X013237Y013460D03*
X012487Y013210D03*
X012237Y013460D03*
X011987Y013210D03*
X011737Y013460D03*
X011487Y013210D03*
X011237Y013460D03*
X010987Y013210D03*
X010737Y013460D03*
X010487Y013210D03*
X010237Y013460D03*
X009737Y013460D03*
X009487Y013710D03*
X009237Y013460D03*
X008987Y013710D03*
X008737Y013460D03*
X008487Y013210D03*
X008237Y013460D03*
X008487Y013710D03*
X008737Y013960D03*
X008487Y014210D03*
X008237Y013960D03*
X007987Y013710D03*
X007737Y013460D03*
X007487Y013710D03*
X007737Y013960D03*
X007987Y014210D03*
X007487Y014210D03*
X007237Y013210D03*
X007737Y012710D03*
X007487Y012460D03*
X006987Y012460D03*
X007237Y011710D03*
X005737Y011460D03*
X004362Y010460D03*
X004427Y009745D03*
X002487Y011710D03*
X004237Y013960D03*
X004237Y014960D03*
X003237Y015210D03*
X003487Y018960D03*
X004487Y018960D03*
X005487Y018960D03*
X006487Y018960D03*
X007487Y018960D03*
X009237Y018710D03*
X009487Y018460D03*
X009737Y018710D03*
X009987Y018460D03*
X010237Y018710D03*
X009987Y018960D03*
X010237Y019210D03*
X010487Y018960D03*
X010737Y018710D03*
X010987Y018460D03*
X011237Y018710D03*
X011487Y018460D03*
X011737Y018710D03*
X011487Y018960D03*
X011737Y019210D03*
X011987Y018960D03*
X012237Y018710D03*
X011987Y018460D03*
X012237Y018210D03*
X011987Y017960D03*
X011737Y018210D03*
X011487Y017960D03*
X011237Y018210D03*
X010987Y017960D03*
X010737Y018210D03*
X010487Y017960D03*
X010237Y018210D03*
X009987Y017960D03*
X009737Y018210D03*
X009487Y017960D03*
X009237Y018210D03*
X009487Y018960D03*
X009737Y019210D03*
X009237Y019210D03*
X010487Y018460D03*
X010987Y018960D03*
X011237Y019210D03*
X010737Y019210D03*
X012237Y019210D03*
X013487Y018960D03*
X013737Y018710D03*
X013487Y018460D03*
X013737Y018210D03*
X013487Y017960D03*
X013737Y017460D03*
X013237Y017460D03*
X012987Y017210D03*
X012737Y016960D03*
X012487Y016710D03*
X012237Y016460D03*
X012487Y016210D03*
X012737Y015960D03*
X012487Y015710D03*
X012237Y015460D03*
X011987Y015210D03*
X011737Y015460D03*
X011987Y015710D03*
X012237Y015960D03*
X011987Y016210D03*
X011987Y016710D03*
X012237Y016960D03*
X012487Y017210D03*
X012737Y017460D03*
X012237Y017460D03*
X011987Y017210D03*
X011737Y017460D03*
X011237Y017460D03*
X010737Y017460D03*
X010737Y015460D03*
X011237Y015460D03*
X011987Y014710D03*
X012237Y014460D03*
X011987Y013710D03*
X013237Y014460D03*
X013237Y015460D03*
X013237Y016460D03*
X014487Y017960D03*
X014237Y018210D03*
X014487Y018460D03*
X014237Y018710D03*
X014487Y018960D03*
X014237Y019210D03*
X013737Y019210D03*
X015737Y019210D03*
X015987Y018960D03*
X016237Y018710D03*
X016487Y018460D03*
X016737Y018710D03*
X016987Y018460D03*
X017237Y018210D03*
X017487Y017960D03*
X017737Y018210D03*
X017987Y017960D03*
X018237Y018210D03*
X018487Y018460D03*
X018737Y018710D03*
X018487Y018960D03*
X018737Y019210D03*
X018237Y019210D03*
X017987Y018960D03*
X018237Y018710D03*
X017987Y018460D03*
X017737Y018710D03*
X017487Y018460D03*
X017237Y018710D03*
X017487Y018960D03*
X017737Y019210D03*
X017237Y019210D03*
X016987Y018960D03*
X016737Y019210D03*
X016487Y018960D03*
X016237Y019210D03*
X015737Y018710D03*
X015987Y018460D03*
X016237Y018210D03*
X016487Y017960D03*
X016737Y018210D03*
X016987Y017960D03*
X015987Y017960D03*
X015737Y018210D03*
X017987Y016835D03*
X018237Y017085D03*
X018487Y016835D03*
X018487Y017960D03*
X018737Y018210D03*
X018487Y015710D03*
X018237Y015460D03*
X017987Y015210D03*
X017987Y015710D03*
X018487Y015210D03*
X018487Y014085D03*
X018237Y013835D03*
X017987Y014085D03*
X018237Y012960D03*
X018487Y012710D03*
X018237Y012460D03*
X018237Y011585D03*
X018487Y011335D03*
X017987Y011335D03*
X017987Y010210D03*
X018237Y009960D03*
X018487Y009710D03*
X018487Y010210D03*
X017987Y009710D03*
X017987Y008585D03*
X018237Y008335D03*
X018487Y008585D03*
X018237Y007460D03*
X018487Y007210D03*
X018237Y006960D03*
X018237Y006085D03*
X018487Y005835D03*
X017987Y005835D03*
X017987Y004710D03*
X018237Y004460D03*
X018487Y004210D03*
X018487Y004710D03*
X017987Y004210D03*
X017987Y003085D03*
X018237Y002835D03*
X018487Y003085D03*
X017487Y000960D03*
X016487Y000960D03*
X015487Y000960D03*
X014487Y000960D03*
X013487Y000960D03*
X013487Y002210D03*
X013737Y002460D03*
X013487Y002710D03*
X013737Y002960D03*
X013487Y003210D03*
X013237Y002960D03*
X012987Y002710D03*
X012737Y002460D03*
X012987Y002210D03*
X013237Y002460D03*
X012987Y003210D03*
X013237Y003460D03*
X013487Y003710D03*
X013737Y003460D03*
X013737Y003960D03*
X013487Y004210D03*
X013237Y003960D03*
X012987Y003710D03*
X012737Y003460D03*
X012237Y003460D03*
X011987Y003710D03*
X011987Y004210D03*
X012237Y004460D03*
X012487Y004710D03*
X012737Y004460D03*
X012987Y004710D03*
X012737Y004960D03*
X012987Y005210D03*
X012737Y005460D03*
X012487Y005210D03*
X012237Y004960D03*
X011987Y004710D03*
X011737Y004460D03*
X011237Y004460D03*
X010737Y004460D03*
X010237Y004460D03*
X009987Y004710D03*
X010237Y004960D03*
X009987Y005210D03*
X010237Y005460D03*
X009987Y005710D03*
X010237Y005960D03*
X009987Y006210D03*
X010237Y006460D03*
X010487Y006710D03*
X010737Y006960D03*
X010987Y006710D03*
X011237Y006960D03*
X011487Y006710D03*
X011737Y006960D03*
X011987Y006710D03*
X012237Y006960D03*
X012487Y006710D03*
X012737Y006960D03*
X012987Y006710D03*
X013237Y006460D03*
X013487Y006210D03*
X013737Y005960D03*
X013487Y005710D03*
X013237Y005960D03*
X012987Y005710D03*
X012737Y005960D03*
X012987Y006210D03*
X012737Y006460D03*
X012487Y006210D03*
X012237Y005960D03*
X012487Y005710D03*
X012237Y005460D03*
X011987Y005210D03*
X011987Y005710D03*
X011987Y006210D03*
X012237Y006460D03*
X011737Y006460D03*
X011237Y006460D03*
X010737Y006460D03*
X009987Y006710D03*
X010487Y007710D03*
X010737Y007960D03*
X010987Y007710D03*
X011237Y007960D03*
X011487Y007710D03*
X011737Y007960D03*
X011987Y007710D03*
X012237Y007960D03*
X012487Y007710D03*
X011987Y008210D03*
X013237Y006960D03*
X013487Y006710D03*
X013737Y006960D03*
X013737Y006460D03*
X013737Y005460D03*
X013487Y005210D03*
X013737Y004960D03*
X013487Y004710D03*
X013737Y004460D03*
X013237Y004460D03*
X012987Y004210D03*
X013237Y004960D03*
X013237Y005460D03*
X011987Y002710D03*
X012237Y002460D03*
X012487Y002210D03*
X011987Y002210D03*
X011737Y002460D03*
X011487Y002210D03*
X011237Y002460D03*
X010987Y002210D03*
X010737Y002460D03*
X010487Y002210D03*
X010237Y002460D03*
X009737Y002460D03*
X009487Y002710D03*
X009237Y002460D03*
X009487Y002210D03*
X008987Y002210D03*
X008737Y002460D03*
X008987Y002710D03*
X008737Y002960D03*
X008987Y003210D03*
X009237Y003460D03*
X009487Y003710D03*
X009737Y003960D03*
X009987Y004210D03*
X010237Y003960D03*
X009737Y004460D03*
X009487Y004710D03*
X009737Y004960D03*
X009487Y005210D03*
X009737Y005460D03*
X009237Y005460D03*
X008987Y005210D03*
X008737Y004960D03*
X008987Y004710D03*
X008737Y004460D03*
X008487Y004710D03*
X008487Y005210D03*
X008737Y005460D03*
X008487Y005710D03*
X008237Y005460D03*
X009237Y004960D03*
X009237Y004460D03*
X009487Y004210D03*
X009237Y003960D03*
X008987Y003710D03*
X008737Y003460D03*
X008487Y003710D03*
X008737Y003960D03*
X008987Y004210D03*
X008487Y004210D03*
X008487Y003210D03*
X008487Y002710D03*
X008487Y002210D03*
X008487Y001460D03*
X009237Y002960D03*
X009487Y003210D03*
X006487Y003460D03*
X004487Y005074D03*
X002687Y003960D03*
X003237Y001460D03*
X007987Y006710D03*
X010237Y007960D03*
X008987Y009710D03*
X010737Y011960D03*
X010987Y012210D03*
X011237Y011960D03*
X011237Y012460D03*
X010737Y012460D03*
X011987Y010710D03*
X012237Y010460D03*
X012487Y010710D03*
X011987Y010210D03*
X013237Y009460D03*
X016987Y007210D03*
X017237Y006960D03*
X017237Y007460D03*
X017237Y012460D03*
X016987Y012710D03*
X017237Y012960D03*
X010237Y015210D03*
X009987Y014960D03*
X009737Y015210D03*
X009487Y014960D03*
X009237Y015210D03*
X008987Y014960D03*
X007987Y013210D03*
D36*
X005237Y013390D02*
X004987Y013390D01*
X004987Y014210D01*
X003772Y014210D01*
X002772Y013210D01*
X003237Y012890D02*
X003237Y012675D01*
X002772Y012210D01*
X002201Y012210D02*
X002201Y012460D01*
X001487Y012460D01*
X002201Y012460D02*
X002201Y012710D01*
X002201Y013210D02*
X002201Y013460D01*
X001487Y013460D01*
X002201Y013460D02*
X002201Y013710D01*
X002201Y014210D02*
X002201Y014460D01*
X001487Y014460D01*
X002201Y014460D02*
X002201Y014710D01*
X002201Y015210D02*
X002201Y015460D01*
X001487Y015460D01*
X002201Y015460D02*
X002201Y015710D01*
X002201Y016210D02*
X002201Y016460D01*
X001487Y016460D01*
X002201Y016460D02*
X002201Y016710D01*
X002772Y016210D02*
X003452Y015530D01*
X003737Y015530D01*
X003987Y015530D01*
X004237Y015530D02*
X004237Y016175D01*
X003737Y016175D01*
X004487Y015530D02*
X004487Y014960D01*
X004237Y014960D01*
X004737Y015530D02*
X004737Y016175D01*
X005237Y016175D01*
X005237Y015530D02*
X004987Y015530D01*
X004987Y014710D01*
X003272Y014710D01*
X002772Y014210D01*
X003737Y013390D02*
X003237Y012890D01*
X003737Y012745D02*
X004237Y012745D01*
X004237Y013390D01*
X003987Y013390D02*
X003737Y013390D01*
X004737Y013390D02*
X004737Y012745D01*
X005237Y012745D01*
X006437Y008617D02*
X006437Y003893D01*
X006817Y003893D01*
X006817Y003696D01*
X006487Y003696D01*
X006487Y003460D01*
X006817Y004287D02*
X006817Y004484D01*
X006817Y004287D02*
X007445Y004287D01*
X003670Y001460D02*
X003237Y001460D01*
X006437Y008617D02*
X006817Y008617D01*
D37*
X007487Y004245D02*
X007987Y004245D01*
X007987Y002806D01*
X007487Y002306D01*
D38*
X007042Y002306D01*
X006195Y001460D01*
X004778Y001460D02*
X003670Y001460D01*
D39*
X009237Y006210D03*
X008737Y011960D03*
X008487Y016960D03*
M02*
