G75*
G70*
%OFA0B0*%
%FSLAX24Y24*%
%IPPOS*%
%LPD*%
%AMOC8*
5,1,8,0,0,1.08239X$1,22.5*
%
%ADD10C,0.0000*%
D10*
X000737Y000960D02*
X000737Y018960D01*
X001037Y018960D02*
X001039Y019002D01*
X001045Y019044D01*
X001055Y019085D01*
X001068Y019125D01*
X001086Y019163D01*
X001106Y019200D01*
X001131Y019235D01*
X001158Y019267D01*
X001188Y019296D01*
X001221Y019323D01*
X001256Y019346D01*
X001293Y019366D01*
X001332Y019382D01*
X001372Y019395D01*
X001413Y019404D01*
X001455Y019409D01*
X001498Y019410D01*
X001540Y019407D01*
X001581Y019400D01*
X001622Y019389D01*
X001662Y019375D01*
X001700Y019357D01*
X001736Y019335D01*
X001770Y019310D01*
X001801Y019282D01*
X001830Y019251D01*
X001856Y019218D01*
X001878Y019182D01*
X001898Y019144D01*
X001913Y019105D01*
X001925Y019065D01*
X001933Y019023D01*
X001937Y018981D01*
X001937Y018939D01*
X001933Y018897D01*
X001925Y018855D01*
X001913Y018815D01*
X001898Y018776D01*
X001878Y018738D01*
X001856Y018702D01*
X001830Y018669D01*
X001801Y018638D01*
X001770Y018610D01*
X001736Y018585D01*
X001700Y018563D01*
X001662Y018545D01*
X001622Y018531D01*
X001581Y018520D01*
X001540Y018513D01*
X001498Y018510D01*
X001455Y018511D01*
X001413Y018516D01*
X001372Y018525D01*
X001332Y018538D01*
X001293Y018554D01*
X001256Y018574D01*
X001221Y018597D01*
X001188Y018624D01*
X001158Y018653D01*
X001131Y018685D01*
X001106Y018720D01*
X001086Y018757D01*
X001068Y018795D01*
X001055Y018835D01*
X001045Y018876D01*
X001039Y018918D01*
X001037Y018960D01*
X000737Y018960D02*
X000739Y019014D01*
X000745Y019067D01*
X000754Y019119D01*
X000767Y019171D01*
X000784Y019222D01*
X000805Y019272D01*
X000829Y019319D01*
X000856Y019365D01*
X000887Y019409D01*
X000920Y019451D01*
X000957Y019490D01*
X000996Y019527D01*
X001038Y019560D01*
X001082Y019591D01*
X001128Y019618D01*
X001175Y019642D01*
X001225Y019663D01*
X001276Y019680D01*
X001328Y019693D01*
X001380Y019702D01*
X001433Y019708D01*
X001487Y019710D01*
X019487Y019710D01*
X019037Y018960D02*
X019039Y019002D01*
X019045Y019044D01*
X019055Y019085D01*
X019068Y019125D01*
X019086Y019163D01*
X019106Y019200D01*
X019131Y019235D01*
X019158Y019267D01*
X019188Y019296D01*
X019221Y019323D01*
X019256Y019346D01*
X019293Y019366D01*
X019332Y019382D01*
X019372Y019395D01*
X019413Y019404D01*
X019455Y019409D01*
X019498Y019410D01*
X019540Y019407D01*
X019581Y019400D01*
X019622Y019389D01*
X019662Y019375D01*
X019700Y019357D01*
X019736Y019335D01*
X019770Y019310D01*
X019801Y019282D01*
X019830Y019251D01*
X019856Y019218D01*
X019878Y019182D01*
X019898Y019144D01*
X019913Y019105D01*
X019925Y019065D01*
X019933Y019023D01*
X019937Y018981D01*
X019937Y018939D01*
X019933Y018897D01*
X019925Y018855D01*
X019913Y018815D01*
X019898Y018776D01*
X019878Y018738D01*
X019856Y018702D01*
X019830Y018669D01*
X019801Y018638D01*
X019770Y018610D01*
X019736Y018585D01*
X019700Y018563D01*
X019662Y018545D01*
X019622Y018531D01*
X019581Y018520D01*
X019540Y018513D01*
X019498Y018510D01*
X019455Y018511D01*
X019413Y018516D01*
X019372Y018525D01*
X019332Y018538D01*
X019293Y018554D01*
X019256Y018574D01*
X019221Y018597D01*
X019188Y018624D01*
X019158Y018653D01*
X019131Y018685D01*
X019106Y018720D01*
X019086Y018757D01*
X019068Y018795D01*
X019055Y018835D01*
X019045Y018876D01*
X019039Y018918D01*
X019037Y018960D01*
X019487Y019710D02*
X019541Y019708D01*
X019594Y019702D01*
X019646Y019693D01*
X019698Y019680D01*
X019749Y019663D01*
X019799Y019642D01*
X019846Y019618D01*
X019892Y019591D01*
X019936Y019560D01*
X019978Y019527D01*
X020017Y019490D01*
X020054Y019451D01*
X020087Y019409D01*
X020118Y019365D01*
X020145Y019319D01*
X020169Y019272D01*
X020190Y019222D01*
X020207Y019171D01*
X020220Y019119D01*
X020229Y019067D01*
X020235Y019014D01*
X020237Y018960D01*
X020237Y000960D01*
X019037Y000960D02*
X019039Y001002D01*
X019045Y001044D01*
X019055Y001085D01*
X019068Y001125D01*
X019086Y001163D01*
X019106Y001200D01*
X019131Y001235D01*
X019158Y001267D01*
X019188Y001296D01*
X019221Y001323D01*
X019256Y001346D01*
X019293Y001366D01*
X019332Y001382D01*
X019372Y001395D01*
X019413Y001404D01*
X019455Y001409D01*
X019498Y001410D01*
X019540Y001407D01*
X019581Y001400D01*
X019622Y001389D01*
X019662Y001375D01*
X019700Y001357D01*
X019736Y001335D01*
X019770Y001310D01*
X019801Y001282D01*
X019830Y001251D01*
X019856Y001218D01*
X019878Y001182D01*
X019898Y001144D01*
X019913Y001105D01*
X019925Y001065D01*
X019933Y001023D01*
X019937Y000981D01*
X019937Y000939D01*
X019933Y000897D01*
X019925Y000855D01*
X019913Y000815D01*
X019898Y000776D01*
X019878Y000738D01*
X019856Y000702D01*
X019830Y000669D01*
X019801Y000638D01*
X019770Y000610D01*
X019736Y000585D01*
X019700Y000563D01*
X019662Y000545D01*
X019622Y000531D01*
X019581Y000520D01*
X019540Y000513D01*
X019498Y000510D01*
X019455Y000511D01*
X019413Y000516D01*
X019372Y000525D01*
X019332Y000538D01*
X019293Y000554D01*
X019256Y000574D01*
X019221Y000597D01*
X019188Y000624D01*
X019158Y000653D01*
X019131Y000685D01*
X019106Y000720D01*
X019086Y000757D01*
X019068Y000795D01*
X019055Y000835D01*
X019045Y000876D01*
X019039Y000918D01*
X019037Y000960D01*
X019487Y000210D02*
X019541Y000212D01*
X019594Y000218D01*
X019646Y000227D01*
X019698Y000240D01*
X019749Y000257D01*
X019799Y000278D01*
X019846Y000302D01*
X019892Y000329D01*
X019936Y000360D01*
X019978Y000393D01*
X020017Y000430D01*
X020054Y000469D01*
X020087Y000511D01*
X020118Y000555D01*
X020145Y000601D01*
X020169Y000648D01*
X020190Y000698D01*
X020207Y000749D01*
X020220Y000801D01*
X020229Y000853D01*
X020235Y000906D01*
X020237Y000960D01*
X019487Y000210D02*
X001487Y000210D01*
X001037Y000960D02*
X001039Y001002D01*
X001045Y001044D01*
X001055Y001085D01*
X001068Y001125D01*
X001086Y001163D01*
X001106Y001200D01*
X001131Y001235D01*
X001158Y001267D01*
X001188Y001296D01*
X001221Y001323D01*
X001256Y001346D01*
X001293Y001366D01*
X001332Y001382D01*
X001372Y001395D01*
X001413Y001404D01*
X001455Y001409D01*
X001498Y001410D01*
X001540Y001407D01*
X001581Y001400D01*
X001622Y001389D01*
X001662Y001375D01*
X001700Y001357D01*
X001736Y001335D01*
X001770Y001310D01*
X001801Y001282D01*
X001830Y001251D01*
X001856Y001218D01*
X001878Y001182D01*
X001898Y001144D01*
X001913Y001105D01*
X001925Y001065D01*
X001933Y001023D01*
X001937Y000981D01*
X001937Y000939D01*
X001933Y000897D01*
X001925Y000855D01*
X001913Y000815D01*
X001898Y000776D01*
X001878Y000738D01*
X001856Y000702D01*
X001830Y000669D01*
X001801Y000638D01*
X001770Y000610D01*
X001736Y000585D01*
X001700Y000563D01*
X001662Y000545D01*
X001622Y000531D01*
X001581Y000520D01*
X001540Y000513D01*
X001498Y000510D01*
X001455Y000511D01*
X001413Y000516D01*
X001372Y000525D01*
X001332Y000538D01*
X001293Y000554D01*
X001256Y000574D01*
X001221Y000597D01*
X001188Y000624D01*
X001158Y000653D01*
X001131Y000685D01*
X001106Y000720D01*
X001086Y000757D01*
X001068Y000795D01*
X001055Y000835D01*
X001045Y000876D01*
X001039Y000918D01*
X001037Y000960D01*
X000737Y000960D02*
X000739Y000906D01*
X000745Y000853D01*
X000754Y000801D01*
X000767Y000749D01*
X000784Y000698D01*
X000805Y000648D01*
X000829Y000601D01*
X000856Y000555D01*
X000887Y000511D01*
X000920Y000469D01*
X000957Y000430D01*
X000996Y000393D01*
X001038Y000360D01*
X001082Y000329D01*
X001128Y000302D01*
X001175Y000278D01*
X001225Y000257D01*
X001276Y000240D01*
X001328Y000227D01*
X001380Y000218D01*
X001433Y000212D01*
X001487Y000210D01*
M02*
