G75*
G70*
%OFA0B0*%
%FSLAX24Y24*%
%IPPOS*%
%LPD*%
%AMOC8*
5,1,8,0,0,1.08239X$1,22.5*
%
%ADD10C,0.0980*%
%ADD11R,0.5000X0.1000*%
%ADD12R,0.0338X0.0192*%
%ADD13C,0.0165*%
%ADD14R,0.3580X0.4580*%
%ADD15R,0.1330X0.0430*%
%ADD16R,0.0474X0.0297*%
%ADD17R,0.0680X0.0680*%
%ADD18OC8,0.0680*%
%ADD19R,0.0407X0.0328*%
%ADD20R,0.0789X0.1340*%
%ADD21R,0.0297X0.0474*%
%ADD22R,0.0580X0.0330*%
%ADD23R,0.0671X0.1655*%
%ADD24R,0.0659X0.0580*%
%ADD25R,0.0434X0.0631*%
%ADD26R,0.0631X0.0190*%
%ADD27R,0.0631X0.0434*%
%ADD28R,0.0200X0.0470*%
%ADD29R,0.0867X0.0552*%
%ADD30R,0.0552X0.0867*%
%ADD31C,0.1120*%
D10*
X001487Y000960D03*
X019487Y000960D03*
X019487Y018960D03*
X001487Y018960D03*
D11*
X005487Y018960D03*
X015487Y000960D03*
D12*
X006817Y003303D03*
X006817Y003499D03*
X006817Y003696D03*
X006817Y003893D03*
X006817Y004090D03*
X006817Y004287D03*
X006817Y004484D03*
X006817Y004680D03*
X006817Y004877D03*
X006817Y005074D03*
X006817Y005271D03*
X006817Y005468D03*
X006817Y005665D03*
X006817Y005862D03*
X006817Y006058D03*
X006817Y006255D03*
X006817Y006452D03*
X006817Y006649D03*
X006817Y006846D03*
X006817Y007043D03*
X006817Y007240D03*
X006817Y007436D03*
X006817Y007633D03*
X006817Y007830D03*
X006817Y008027D03*
X006817Y008224D03*
X006817Y008421D03*
X006817Y008617D03*
X004156Y008617D03*
X004156Y008421D03*
X004156Y008224D03*
X004156Y008027D03*
X004156Y007830D03*
X004156Y007633D03*
X004156Y007436D03*
X004156Y007240D03*
X004156Y007043D03*
X004156Y006846D03*
X004156Y006649D03*
X004156Y006452D03*
X004156Y006255D03*
X004156Y006058D03*
X004156Y005862D03*
X004156Y005665D03*
X004156Y005468D03*
X004156Y005271D03*
X004156Y005074D03*
X004156Y004877D03*
X004156Y004680D03*
X004156Y004484D03*
X004156Y004287D03*
X004156Y004090D03*
X004156Y003893D03*
X004156Y003696D03*
X004156Y003499D03*
X004156Y003303D03*
D13*
X006232Y004329D02*
X006232Y007591D01*
X006232Y004329D02*
X004742Y004329D01*
X004742Y007591D01*
X006232Y007591D01*
X006232Y004493D02*
X004742Y004493D01*
X004742Y004657D02*
X006232Y004657D01*
X006232Y004821D02*
X004742Y004821D01*
X004742Y004985D02*
X006232Y004985D01*
X006232Y005149D02*
X004742Y005149D01*
X004742Y005313D02*
X006232Y005313D01*
X006232Y005477D02*
X004742Y005477D01*
X004742Y005641D02*
X006232Y005641D01*
X006232Y005805D02*
X004742Y005805D01*
X004742Y005969D02*
X006232Y005969D01*
X006232Y006133D02*
X004742Y006133D01*
X004742Y006297D02*
X006232Y006297D01*
X006232Y006461D02*
X004742Y006461D01*
X004742Y006625D02*
X006232Y006625D01*
X006232Y006789D02*
X004742Y006789D01*
X004742Y006953D02*
X006232Y006953D01*
X006232Y007117D02*
X004742Y007117D01*
X004742Y007281D02*
X006232Y007281D01*
X006232Y007445D02*
X004742Y007445D01*
D14*
X015737Y009960D03*
X015737Y004460D03*
X015737Y015460D03*
D15*
X011112Y014960D03*
X011112Y014460D03*
X011112Y013960D03*
X011112Y015960D03*
X011112Y016460D03*
X011112Y016960D03*
X011112Y011460D03*
X011112Y010960D03*
X011112Y010460D03*
X011112Y009460D03*
X011112Y008960D03*
X011112Y008460D03*
X011112Y005960D03*
X011112Y005460D03*
X011112Y004960D03*
X011112Y003960D03*
X011112Y003460D03*
X011112Y002960D03*
D16*
X009987Y002925D03*
X009987Y003495D03*
X007487Y003675D03*
X007487Y004245D03*
X007487Y004675D03*
X007487Y005245D03*
X007487Y005675D03*
X007487Y006245D03*
X007487Y006675D03*
X007487Y007245D03*
X009987Y008425D03*
X009987Y008995D03*
X005237Y012175D03*
X004737Y012175D03*
X004237Y012175D03*
X004237Y012745D03*
X004737Y012745D03*
X005237Y012745D03*
X003737Y012745D03*
X003737Y012175D03*
X002987Y011245D03*
X002987Y010675D03*
X002987Y010245D03*
X002987Y009675D03*
X002987Y005995D03*
X003487Y005995D03*
X003487Y005425D03*
X003487Y005120D03*
X002987Y005120D03*
X002987Y005425D03*
X002987Y004550D03*
X002987Y004245D03*
X003487Y004245D03*
X003487Y004550D03*
X003487Y003675D03*
X003487Y003245D03*
X002987Y003245D03*
X002987Y003675D03*
X002987Y002675D03*
X003487Y002675D03*
X009987Y013925D03*
X009987Y014495D03*
X005237Y016175D03*
X004737Y016175D03*
X004237Y016175D03*
X003737Y016175D03*
X003737Y016745D03*
X004237Y016745D03*
X004737Y016745D03*
X005237Y016745D03*
D17*
X019487Y017460D03*
X001487Y002460D03*
D18*
X001487Y003460D03*
X001487Y004460D03*
X001487Y005460D03*
X001487Y006460D03*
X001487Y007460D03*
X001487Y008460D03*
X001487Y009460D03*
X001487Y010460D03*
X001487Y011460D03*
X001487Y012460D03*
X001487Y013460D03*
X001487Y014460D03*
X001487Y015460D03*
X001487Y016460D03*
X001487Y017460D03*
X019487Y016460D03*
X019487Y015460D03*
X019487Y014460D03*
X019487Y013460D03*
X019487Y012460D03*
X019487Y011460D03*
X019487Y010460D03*
X019487Y009460D03*
X019487Y008460D03*
X019487Y007460D03*
X019487Y006460D03*
X019487Y005460D03*
X019487Y004460D03*
X019487Y003460D03*
X019487Y002460D03*
D19*
X012487Y003007D03*
X012487Y003913D03*
X012487Y008507D03*
X012487Y009413D03*
X012487Y014007D03*
X012487Y014913D03*
D20*
X012884Y018710D03*
X015089Y018710D03*
D21*
X009772Y012710D03*
X009201Y012710D03*
X004772Y009210D03*
X004201Y009210D03*
X002772Y012210D03*
X002772Y012710D03*
X002772Y013210D03*
X002772Y013710D03*
X002772Y014210D03*
X002772Y014710D03*
X002772Y015210D03*
X002772Y015710D03*
X002772Y016210D03*
X002772Y016710D03*
X002201Y016710D03*
X002201Y016210D03*
X002201Y015710D03*
X002201Y015210D03*
X002201Y014710D03*
X002201Y014210D03*
X002201Y013710D03*
X002201Y013210D03*
X002201Y012710D03*
X002201Y012210D03*
X009201Y007210D03*
X009772Y007210D03*
X006772Y002835D03*
X006201Y002835D03*
X005772Y002835D03*
X005201Y002835D03*
X004772Y002835D03*
X004201Y002835D03*
X003522Y002210D03*
X002951Y002210D03*
X009201Y001710D03*
X009772Y001710D03*
D22*
X002237Y003610D03*
X002237Y003960D03*
X002237Y004310D03*
D23*
X004778Y001460D03*
X006195Y001460D03*
D24*
X007487Y000614D03*
X007487Y002306D03*
D25*
X003670Y001460D03*
X002804Y001460D03*
D26*
X003644Y010066D03*
X003644Y010263D03*
X003644Y010460D03*
X003644Y010657D03*
X003644Y010854D03*
X005329Y010854D03*
X005329Y010657D03*
X005329Y010460D03*
X005329Y010263D03*
X005329Y010066D03*
D27*
X005987Y010027D03*
X005987Y010893D03*
D28*
X005237Y013390D03*
X004987Y013390D03*
X004737Y013390D03*
X004487Y013390D03*
X004237Y013390D03*
X003987Y013390D03*
X003737Y013390D03*
X003737Y015530D03*
X003987Y015530D03*
X004237Y015530D03*
X004487Y015530D03*
X004737Y015530D03*
X004987Y015530D03*
X005237Y015530D03*
D29*
X018237Y015705D03*
X018237Y015215D03*
X018237Y013955D03*
X018237Y011465D03*
X018237Y010205D03*
X018237Y009715D03*
X018237Y008455D03*
X018237Y005965D03*
X018237Y004705D03*
X018237Y004215D03*
X018237Y002955D03*
X018237Y016965D03*
D30*
X018367Y012710D03*
X017107Y012710D03*
X017107Y007210D03*
X018367Y007210D03*
D31*
X009237Y006210D03*
X008737Y011960D03*
X008487Y016960D03*
M02*
