G75*
G70*
%OFA0B0*%
%FSLAX24Y24*%
%IPPOS*%
%LPD*%
%AMOC8*
5,1,8,0,0,1.08239X$1,22.5*
%
%ADD10C,0.0820*%
%ADD11R,0.0680X0.0680*%
%ADD12OC8,0.0680*%
%ADD13C,0.1280*%
D10*
X014487Y011040D03*
X014487Y012040D03*
D11*
X017487Y012540D03*
X017487Y018540D03*
X018487Y018540D03*
X019487Y018540D03*
X014987Y020040D03*
X001487Y003540D03*
X008987Y002040D03*
X013987Y002040D03*
D12*
X014987Y002040D03*
X015987Y002040D03*
X016987Y002040D03*
X017987Y002040D03*
X019487Y003540D03*
X019487Y004540D03*
X019487Y005540D03*
X019487Y006540D03*
X019487Y007540D03*
X019487Y008540D03*
X019487Y009540D03*
X019487Y010540D03*
X019487Y011540D03*
X019487Y012540D03*
X019487Y013540D03*
X019487Y014540D03*
X019487Y015540D03*
X019487Y016540D03*
X019487Y017540D03*
X018487Y017540D03*
X018487Y016540D03*
X017487Y016540D03*
X017487Y017540D03*
X017487Y015540D03*
X017487Y014540D03*
X017487Y013540D03*
X017987Y020040D03*
X016987Y020040D03*
X015987Y020040D03*
X001487Y018540D03*
X001487Y017540D03*
X001487Y016540D03*
X001487Y015540D03*
X001487Y014540D03*
X001487Y013540D03*
X001487Y012540D03*
X001487Y011540D03*
X001487Y010540D03*
X001487Y009540D03*
X001487Y008540D03*
X001487Y007540D03*
X001487Y006540D03*
X001487Y005540D03*
X001487Y004540D03*
X009987Y002040D03*
X010987Y002040D03*
X011987Y002040D03*
X012987Y002040D03*
D13*
X001487Y002040D03*
X001487Y020040D03*
X019487Y020040D03*
X019487Y002040D03*
M02*
