G75*
G70*
%OFA0B0*%
%FSLAX24Y24*%
%IPPOS*%
%LPD*%
%AMOC8*
5,1,8,0,0,1.08239X$1,22.5*
%
%ADD10C,0.0000*%
D10*
X001487Y001290D02*
X019487Y001290D01*
X019541Y001292D01*
X019594Y001298D01*
X019646Y001307D01*
X019698Y001320D01*
X019749Y001337D01*
X019799Y001358D01*
X019846Y001382D01*
X019892Y001409D01*
X019936Y001440D01*
X019978Y001473D01*
X020017Y001510D01*
X020054Y001549D01*
X020087Y001591D01*
X020118Y001635D01*
X020145Y001681D01*
X020169Y001728D01*
X020190Y001778D01*
X020207Y001829D01*
X020220Y001881D01*
X020229Y001933D01*
X020235Y001986D01*
X020237Y002040D01*
X020237Y020040D01*
X020235Y020094D01*
X020229Y020147D01*
X020220Y020199D01*
X020207Y020251D01*
X020190Y020302D01*
X020169Y020352D01*
X020145Y020399D01*
X020118Y020445D01*
X020087Y020489D01*
X020054Y020531D01*
X020017Y020570D01*
X019978Y020607D01*
X019936Y020640D01*
X019892Y020671D01*
X019846Y020698D01*
X019799Y020722D01*
X019749Y020743D01*
X019698Y020760D01*
X019646Y020773D01*
X019594Y020782D01*
X019541Y020788D01*
X019487Y020790D01*
X001487Y020790D01*
X001433Y020788D01*
X001380Y020782D01*
X001328Y020773D01*
X001276Y020760D01*
X001225Y020743D01*
X001175Y020722D01*
X001128Y020698D01*
X001082Y020671D01*
X001038Y020640D01*
X000996Y020607D01*
X000957Y020570D01*
X000920Y020531D01*
X000887Y020489D01*
X000856Y020445D01*
X000829Y020399D01*
X000805Y020352D01*
X000784Y020302D01*
X000767Y020251D01*
X000754Y020199D01*
X000745Y020147D01*
X000739Y020094D01*
X000737Y020040D01*
X000737Y002040D01*
X000739Y001986D01*
X000745Y001933D01*
X000754Y001881D01*
X000767Y001829D01*
X000784Y001778D01*
X000805Y001728D01*
X000829Y001681D01*
X000856Y001635D01*
X000887Y001591D01*
X000920Y001549D01*
X000957Y001510D01*
X000996Y001473D01*
X001038Y001440D01*
X001082Y001409D01*
X001128Y001382D01*
X001175Y001358D01*
X001225Y001337D01*
X001276Y001320D01*
X001328Y001307D01*
X001380Y001298D01*
X001433Y001292D01*
X001487Y001290D01*
M02*
