G75*
G70*
%OFA0B0*%
%FSLAX24Y24*%
%IPPOS*%
%LPD*%
%AMOC8*
5,1,8,0,0,1.08239X$1,22.5*
%
%ADD10R,0.0552X0.0198*%
%ADD11R,0.0198X0.0552*%
%ADD12R,0.0867X0.0237*%
%ADD13R,0.0297X0.0474*%
%ADD14R,0.0474X0.0297*%
%ADD15C,0.0820*%
%ADD16R,0.0395X0.0749*%
%ADD17R,0.0434X0.0631*%
%ADD18R,0.0830X0.0440*%
%ADD19R,0.0440X0.0830*%
%ADD20R,0.0926X0.1360*%
%ADD21R,0.0926X0.0454*%
%ADD22R,0.0631X0.0434*%
%ADD23R,0.0375X0.0237*%
%ADD24R,0.0789X0.0631*%
%ADD25R,0.0631X0.0828*%
%ADD26R,0.0395X0.0671*%
%ADD27R,0.0454X0.0222*%
%ADD28R,0.0680X0.0680*%
%ADD29OC8,0.0680*%
%ADD30C,0.1280*%
D10*
X010743Y005563D03*
X010743Y005760D03*
X010743Y005957D03*
X010743Y006154D03*
X010743Y006351D03*
X010743Y006547D03*
X010743Y006744D03*
X010743Y006941D03*
X010743Y007138D03*
X010743Y007335D03*
X010743Y007532D03*
X010743Y007729D03*
X010743Y007925D03*
X010743Y008122D03*
X010743Y008319D03*
X010743Y008516D03*
X015231Y008516D03*
X015231Y008319D03*
X015231Y008122D03*
X015231Y007925D03*
X015231Y007729D03*
X015231Y007532D03*
X015231Y007335D03*
X015231Y007138D03*
X015231Y006941D03*
X015231Y006744D03*
X015231Y006547D03*
X015231Y006351D03*
X015231Y006154D03*
X015231Y005957D03*
X015231Y005760D03*
X015231Y005563D03*
D11*
X014463Y004796D03*
X014266Y004796D03*
X014069Y004796D03*
X013872Y004796D03*
X013676Y004796D03*
X013479Y004796D03*
X013282Y004796D03*
X013085Y004796D03*
X012888Y004796D03*
X012691Y004796D03*
X012495Y004796D03*
X012298Y004796D03*
X012101Y004796D03*
X011904Y004796D03*
X011707Y004796D03*
X011510Y004796D03*
X011510Y009284D03*
X011707Y009284D03*
X011904Y009284D03*
X012101Y009284D03*
X012298Y009284D03*
X012495Y009284D03*
X012691Y009284D03*
X012888Y009284D03*
X013085Y009284D03*
X013282Y009284D03*
X013479Y009284D03*
X013676Y009284D03*
X013872Y009284D03*
X014069Y009284D03*
X014266Y009284D03*
X014463Y009284D03*
D12*
X009487Y008512D03*
X009487Y008040D03*
X009487Y007567D03*
D13*
X009701Y009165D03*
X010272Y009165D03*
X010951Y010040D03*
X011522Y010040D03*
X010272Y005040D03*
X009701Y005040D03*
X011491Y004010D03*
X012062Y004010D03*
X013451Y004070D03*
X014022Y004070D03*
X014451Y004070D03*
X015022Y004070D03*
X017201Y006290D03*
X017772Y006290D03*
X017772Y007790D03*
X017201Y007790D03*
X015022Y017540D03*
X014451Y017540D03*
X014451Y018540D03*
X015022Y018540D03*
X006022Y008690D03*
X005451Y008690D03*
X004897Y008690D03*
X004326Y008690D03*
X003772Y008690D03*
X003201Y008690D03*
D14*
X013612Y011254D03*
X013612Y011825D03*
X015987Y008325D03*
X016487Y008325D03*
X016487Y007754D03*
X015987Y007754D03*
X015987Y007325D03*
X015987Y006754D03*
X015487Y016254D03*
X015487Y016825D03*
D15*
X014487Y012040D03*
X014487Y011040D03*
D16*
X014817Y015540D03*
X016156Y015540D03*
D17*
X016420Y017540D03*
X015554Y017540D03*
X015554Y018540D03*
X016420Y018540D03*
X010420Y009790D03*
X009554Y009790D03*
X017054Y008540D03*
X017920Y008540D03*
X017920Y007040D03*
X017054Y007040D03*
D18*
X013087Y012290D03*
X013087Y012790D03*
X013087Y013290D03*
X013087Y013790D03*
X013087Y014290D03*
X013087Y014790D03*
X013087Y015290D03*
X013087Y015790D03*
X013087Y016290D03*
X013087Y016790D03*
X013087Y017290D03*
X013087Y017790D03*
X013087Y018290D03*
X013087Y018790D03*
X013087Y019290D03*
X013087Y019790D03*
X013087Y020290D03*
X003987Y020290D03*
X003987Y019790D03*
X003987Y019290D03*
X003987Y018790D03*
X003987Y018290D03*
X003987Y017790D03*
X003987Y017290D03*
X003987Y016790D03*
X003987Y016290D03*
X003987Y015790D03*
X003987Y015290D03*
X003987Y014790D03*
X003987Y014290D03*
X003987Y013790D03*
X003987Y013290D03*
X003987Y012790D03*
X003987Y012290D03*
D19*
X005342Y010825D03*
X005842Y010825D03*
X006342Y010825D03*
X006842Y010825D03*
X007342Y010825D03*
X007842Y010825D03*
X008342Y010825D03*
X008842Y010825D03*
X009342Y010825D03*
X009842Y010825D03*
X010342Y010825D03*
X010842Y010825D03*
X011342Y010825D03*
X011842Y010825D03*
D20*
X017878Y010540D03*
D21*
X015595Y010540D03*
X015595Y011445D03*
X015595Y009634D03*
D22*
X015987Y013607D03*
X015987Y014473D03*
X014987Y014473D03*
X014987Y013607D03*
X010987Y004723D03*
X010987Y003857D03*
X008987Y003857D03*
X008987Y004723D03*
D23*
X009662Y004546D03*
X009662Y004290D03*
X009662Y004034D03*
X010311Y004034D03*
X010311Y004546D03*
D24*
X005538Y008132D03*
X003294Y008132D03*
D25*
X002664Y002955D03*
X007841Y002561D03*
D26*
X006006Y004077D03*
X005573Y004234D03*
X005140Y004077D03*
X004707Y003998D03*
X004274Y004077D03*
X003841Y003998D03*
X003408Y004077D03*
X002975Y004077D03*
D27*
X009613Y003546D03*
X009613Y003290D03*
X009613Y003034D03*
X010361Y003034D03*
X010361Y003290D03*
X010361Y003546D03*
X017613Y003296D03*
X017613Y003040D03*
X017613Y002784D03*
X018361Y002784D03*
X018361Y003040D03*
X018361Y003296D03*
D28*
X013987Y002040D03*
X008987Y002040D03*
X001487Y003540D03*
X014987Y020040D03*
X017487Y018540D03*
X018487Y018540D03*
X019487Y018540D03*
X017487Y012540D03*
D29*
X017487Y013540D03*
X017487Y014540D03*
X017487Y015540D03*
X017487Y016540D03*
X017487Y017540D03*
X018487Y017540D03*
X019487Y017540D03*
X019487Y016540D03*
X018487Y016540D03*
X019487Y015540D03*
X019487Y014540D03*
X019487Y013540D03*
X019487Y012540D03*
X019487Y011540D03*
X019487Y010540D03*
X019487Y009540D03*
X019487Y008540D03*
X019487Y007540D03*
X019487Y006540D03*
X019487Y005540D03*
X019487Y004540D03*
X019487Y003540D03*
X017987Y002040D03*
X016987Y002040D03*
X015987Y002040D03*
X014987Y002040D03*
X012987Y002040D03*
X011987Y002040D03*
X010987Y002040D03*
X009987Y002040D03*
X001487Y004540D03*
X001487Y005540D03*
X001487Y006540D03*
X001487Y007540D03*
X001487Y008540D03*
X001487Y009540D03*
X001487Y010540D03*
X001487Y011540D03*
X001487Y012540D03*
X001487Y013540D03*
X001487Y014540D03*
X001487Y015540D03*
X001487Y016540D03*
X001487Y017540D03*
X001487Y018540D03*
X015987Y020040D03*
X016987Y020040D03*
X017987Y020040D03*
D30*
X001487Y002040D03*
X001487Y020040D03*
X019487Y020040D03*
X019487Y002040D03*
M02*
