%
M48
M72
T01C0.0130
T02C0.0400
T03C0.0900
%
T01
X2487Y5040
X2237Y7290
X1987Y8790
X1987Y9165
X1987Y9540
X1987Y10790
X3987Y11540
X6362Y8790
X6512Y7790
X4637Y7790
X4326Y8040
X5573Y5540
X4612Y5040
X6987Y5540
X7987Y5040
X9987Y6290
X8762Y7790
X10307Y8040
X10987Y9540
X12237Y10165
X12862Y10665
X13112Y10415
X13049Y10990
X13862Y10665
X14112Y10415
X14362Y10165
X14112Y9915
X14887Y9440
X15237Y8790
X15737Y8665
X16362Y8915
X16612Y10165
X18737Y10790
X19737Y12040
X18487Y15540
X16487Y12540
X13987Y13040
X12237Y12165
X12112Y13040
X13737Y15540
X13987Y15790
X14237Y16790
X13987Y17040
X14987Y16540
X15487Y15540
X17987Y19040
X9987Y16040
X8362Y13540
X8362Y12040
X8987Y11540
X8362Y9915
X11904Y6290
X12162Y6040
X12437Y6540
X13237Y6040
X13987Y6440
X14237Y6165
X14737Y6040
X14737Y6415
X13987Y6840
X13987Y7190
X13237Y7840
X13085Y8790
X13487Y8790
X12237Y8790
X11612Y5665
X11362Y5365
X10987Y4290
X11537Y3540
X11587Y3140
X11217Y3290
X12037Y3610
X12987Y4040
X13737Y5290
X14112Y5290
X14737Y4915
X14737Y4360
X15387Y4040
X15612Y4415
X15987Y5165
X15987Y5915
X15987Y6290
X16887Y6540
X16387Y7340
X16987Y5540
X16862Y5040
X17987Y5540
X18987Y5040
X18487Y7540
X12987Y2540
T02
X12987Y2040
X11987Y2040
X10987Y2040
X9987Y2040
X8987Y2040
X13987Y2040
X14987Y2040
X15987Y2040
X16987Y2040
X17987Y2040
X19487Y3540
X19487Y4540
X19487Y5540
X19487Y6540
X19487Y7540
X19487Y8540
X19487Y9540
X19487Y10540
X19487Y11540
X19487Y12540
X19487Y13540
X19487Y14540
X19487Y15540
X19487Y16540
X19487Y17540
X19487Y18540
X18487Y18540
X18487Y17540
X18487Y16540
X17487Y16540
X17487Y17540
X17487Y18540
X17987Y20040
X16987Y20040
X15987Y20040
X14987Y20040
X17487Y15540
X17487Y14540
X17487Y13540
X17487Y12540
X14487Y12040
X14487Y11040
X1487Y11540
X1487Y12540
X1487Y13540
X1487Y14540
X1487Y15540
X1487Y16540
X1487Y17540
X1487Y18540
X1487Y10540
X1487Y9540
X1487Y8540
X1487Y7540
X1487Y6540
X1487Y5540
X1487Y4540
X1487Y3540
T03
X1487Y2040
X1487Y20040
X19487Y20040
X19487Y2040
M30
