G75*
G70*
%OFA0B0*%
%FSLAX24Y24*%
%IPPOS*%
%LPD*%
%AMOC8*
5,1,8,0,0,1.08239X$1,22.5*
%
%ADD10C,0.0000*%
%ADD11C,0.0090*%
%ADD12C,0.0050*%
%ADD13R,0.0070X0.0010*%
%ADD14R,0.0120X0.0010*%
%ADD15R,0.0160X0.0010*%
%ADD16R,0.0180X0.0010*%
%ADD17R,0.0090X0.0010*%
%ADD18R,0.0210X0.0010*%
%ADD19R,0.0140X0.0010*%
%ADD20R,0.0230X0.0010*%
%ADD21R,0.0170X0.0010*%
%ADD22R,0.0250X0.0010*%
%ADD23R,0.0190X0.0010*%
%ADD24R,0.0270X0.0010*%
%ADD25R,0.0220X0.0010*%
%ADD26R,0.0290X0.0010*%
%ADD27R,0.0240X0.0010*%
%ADD28R,0.0300X0.0010*%
%ADD29R,0.0260X0.0010*%
%ADD30R,0.0320X0.0010*%
%ADD31R,0.0340X0.0010*%
%ADD32R,0.0350X0.0010*%
%ADD33R,0.0310X0.0010*%
%ADD34R,0.0360X0.0010*%
%ADD35R,0.0370X0.0010*%
%ADD36R,0.0390X0.0010*%
%ADD37R,0.0400X0.0010*%
%ADD38R,0.0380X0.0010*%
%ADD39R,0.0410X0.0010*%
%ADD40R,0.0420X0.0010*%
%ADD41R,0.0430X0.0010*%
%ADD42R,0.0440X0.0010*%
%ADD43R,0.0450X0.0010*%
%ADD44R,0.0460X0.0010*%
%ADD45R,0.0470X0.0010*%
%ADD46R,0.0480X0.0010*%
%ADD47R,0.0880X0.0010*%
%ADD48R,0.0860X0.0010*%
%ADD49R,0.0830X0.0010*%
%ADD50R,0.0800X0.0010*%
%ADD51R,0.0780X0.0010*%
%ADD52R,0.0750X0.0010*%
%ADD53R,0.0720X0.0010*%
%ADD54R,0.0700X0.0010*%
%ADD55R,0.0680X0.0010*%
%ADD56R,0.0640X0.0010*%
%ADD57R,0.0620X0.0010*%
%ADD58R,0.0600X0.0010*%
%ADD59R,0.0570X0.0010*%
%ADD60R,0.0540X0.0010*%
%ADD61R,0.0520X0.0010*%
%ADD62R,0.0490X0.0010*%
%ADD63R,0.0650X0.0010*%
%ADD64R,0.0670X0.0010*%
%ADD65R,0.0330X0.0010*%
%ADD66R,0.0280X0.0010*%
%ADD67R,0.0200X0.0010*%
%ADD68R,0.0150X0.0010*%
%ADD69R,0.0110X0.0010*%
%ADD70R,0.0010X0.0010*%
%ADD71R,0.0580X0.0010*%
%ADD72R,0.0660X0.0010*%
%ADD73R,0.0690X0.0010*%
%ADD74R,0.0760X0.0010*%
%ADD75R,0.0810X0.0010*%
%ADD76R,0.0840X0.0010*%
%ADD77R,0.0900X0.0010*%
%ADD78R,0.0930X0.0010*%
%ADD79R,0.0950X0.0010*%
%ADD80R,0.0960X0.0010*%
%ADD81R,0.0980X0.0010*%
%ADD82R,0.1000X0.0010*%
%ADD83R,0.1020X0.0010*%
%ADD84R,0.1030X0.0010*%
%ADD85R,0.1050X0.0010*%
%ADD86R,0.1060X0.0010*%
%ADD87R,0.1080X0.0010*%
%ADD88R,0.1090X0.0010*%
%ADD89R,0.1070X0.0010*%
%ADD90R,0.0130X0.0010*%
%ADD91R,0.0510X0.0010*%
%ADD92R,0.0630X0.0010*%
%ADD93R,0.0730X0.0010*%
%ADD94R,0.0770X0.0010*%
%ADD95R,0.0820X0.0010*%
%ADD96R,0.0850X0.0010*%
%ADD97R,0.0870X0.0010*%
%ADD98R,0.0890X0.0010*%
%ADD99R,0.0790X0.0010*%
%ADD100R,0.0550X0.0010*%
%ADD101R,0.0710X0.0010*%
%ADD102R,0.0740X0.0010*%
%ADD103R,0.0590X0.0010*%
%ADD104R,0.0560X0.0010*%
%ADD105R,0.0060X0.0010*%
%ADD106R,0.0530X0.0010*%
%ADD107R,0.1180X0.0010*%
%ADD108R,0.1190X0.0010*%
%ADD109R,0.1200X0.0010*%
%ADD110R,0.1170X0.0010*%
%ADD111R,0.1160X0.0010*%
%ADD112R,0.1150X0.0010*%
%ADD113R,0.1140X0.0010*%
%ADD114R,0.1130X0.0010*%
%ADD115R,0.1110X0.0010*%
%ADD116R,0.1100X0.0010*%
%ADD117R,0.1040X0.0010*%
%ADD118R,0.1010X0.0010*%
%ADD119R,0.0940X0.0010*%
%ADD120R,0.1210X0.0010*%
%ADD121R,0.1230X0.0010*%
%ADD122R,0.1250X0.0010*%
%ADD123R,0.1270X0.0010*%
%ADD124R,0.1290X0.0010*%
%ADD125R,0.1240X0.0010*%
%ADD126R,0.1220X0.0010*%
%ADD127R,0.1120X0.0010*%
%ADD128R,0.0990X0.0010*%
%ADD129R,0.0080X0.0010*%
%ADD130R,0.0920X0.0010*%
%ADD131R,0.1500X0.0010*%
%ADD132R,0.1520X0.0010*%
%ADD133R,0.1530X0.0010*%
%ADD134R,0.1510X0.0010*%
%ADD135R,0.1490X0.0010*%
%ADD136R,0.1480X0.0010*%
%ADD137R,0.1470X0.0010*%
%ADD138R,0.1460X0.0010*%
%ADD139R,0.1440X0.0010*%
%ADD140R,0.1420X0.0010*%
%ADD141R,0.1400X0.0010*%
%ADD142R,0.1390X0.0010*%
%ADD143R,0.1360X0.0010*%
%ADD144R,0.1330X0.0010*%
%ADD145R,0.1300X0.0010*%
D10*
X001487Y001290D02*
X019487Y001290D01*
X019541Y001292D01*
X019594Y001298D01*
X019646Y001307D01*
X019698Y001320D01*
X019749Y001337D01*
X019799Y001358D01*
X019846Y001382D01*
X019892Y001409D01*
X019936Y001440D01*
X019978Y001473D01*
X020017Y001510D01*
X020054Y001549D01*
X020087Y001591D01*
X020118Y001635D01*
X020145Y001681D01*
X020169Y001728D01*
X020190Y001778D01*
X020207Y001829D01*
X020220Y001881D01*
X020229Y001933D01*
X020235Y001986D01*
X020237Y002040D01*
X020237Y020040D01*
X020235Y020094D01*
X020229Y020147D01*
X020220Y020199D01*
X020207Y020251D01*
X020190Y020302D01*
X020169Y020352D01*
X020145Y020399D01*
X020118Y020445D01*
X020087Y020489D01*
X020054Y020531D01*
X020017Y020570D01*
X019978Y020607D01*
X019936Y020640D01*
X019892Y020671D01*
X019846Y020698D01*
X019799Y020722D01*
X019749Y020743D01*
X019698Y020760D01*
X019646Y020773D01*
X019594Y020782D01*
X019541Y020788D01*
X019487Y020790D01*
X001487Y020790D01*
X001433Y020788D01*
X001380Y020782D01*
X001328Y020773D01*
X001276Y020760D01*
X001225Y020743D01*
X001175Y020722D01*
X001128Y020698D01*
X001082Y020671D01*
X001038Y020640D01*
X000996Y020607D01*
X000957Y020570D01*
X000920Y020531D01*
X000887Y020489D01*
X000856Y020445D01*
X000829Y020399D01*
X000805Y020352D01*
X000784Y020302D01*
X000767Y020251D01*
X000754Y020199D01*
X000745Y020147D01*
X000739Y020094D01*
X000737Y020040D01*
X000737Y002040D01*
X000739Y001986D01*
X000745Y001933D01*
X000754Y001881D01*
X000767Y001829D01*
X000784Y001778D01*
X000805Y001728D01*
X000829Y001681D01*
X000856Y001635D01*
X000887Y001591D01*
X000920Y001549D01*
X000957Y001510D01*
X000996Y001473D01*
X001038Y001440D01*
X001082Y001409D01*
X001128Y001382D01*
X001175Y001358D01*
X001225Y001337D01*
X001276Y001320D01*
X001328Y001307D01*
X001380Y001298D01*
X001433Y001292D01*
X001487Y001290D01*
D11*
X002197Y003335D02*
X002128Y003403D01*
X002128Y003677D01*
X002197Y003745D01*
X002402Y003745D01*
X002402Y003335D01*
X002197Y003335D01*
X002589Y003335D02*
X002589Y003745D01*
X002862Y003745D02*
X002589Y003335D01*
X002862Y003335D02*
X002862Y003745D01*
X003049Y003677D02*
X003118Y003745D01*
X003254Y003745D01*
X003323Y003677D01*
X003323Y003403D01*
X003254Y003335D01*
X003118Y003335D01*
X003049Y003403D01*
X003049Y003540D01*
X003186Y003540D01*
X003186Y004403D02*
X003186Y004677D01*
X003323Y004540D02*
X003049Y004540D01*
X002862Y004540D02*
X002726Y004608D01*
X002657Y004608D01*
X002589Y004540D01*
X002589Y004403D01*
X002657Y004335D01*
X002794Y004335D01*
X002862Y004403D01*
X002862Y004540D02*
X002862Y004745D01*
X002589Y004745D01*
X002402Y004745D02*
X002402Y004471D01*
X002265Y004335D01*
X002128Y004471D01*
X002128Y004745D01*
X002129Y005335D02*
X002129Y005608D01*
X002265Y005745D01*
X002402Y005608D01*
X002402Y005335D01*
X002589Y005266D02*
X002862Y005266D01*
X003049Y005335D02*
X003049Y005745D01*
X003186Y005608D01*
X003323Y005745D01*
X003323Y005335D01*
X003510Y005335D02*
X003510Y005745D01*
X003783Y005745D02*
X003783Y005335D01*
X003646Y005471D01*
X003510Y005335D01*
X003970Y005540D02*
X004038Y005471D01*
X004244Y005471D01*
X004244Y005335D02*
X004244Y005745D01*
X004038Y005745D01*
X003970Y005677D01*
X003970Y005540D01*
X004430Y005745D02*
X004704Y005335D01*
X004891Y005403D02*
X004959Y005335D01*
X005096Y005335D01*
X005164Y005403D01*
X005164Y005471D01*
X005096Y005540D01*
X004959Y005540D01*
X004891Y005471D01*
X004891Y005403D01*
X004959Y005540D02*
X004891Y005608D01*
X004891Y005677D01*
X004959Y005745D01*
X005096Y005745D01*
X005164Y005677D01*
X005164Y005608D01*
X005096Y005540D01*
X005812Y005540D02*
X006085Y005540D01*
X006085Y005608D02*
X005948Y005745D01*
X005812Y005608D01*
X005812Y005335D01*
X006085Y005335D02*
X006085Y005608D01*
X006272Y005540D02*
X006340Y005471D01*
X006546Y005471D01*
X006546Y005335D02*
X006546Y005745D01*
X006340Y005745D01*
X006272Y005677D01*
X006272Y005540D01*
X006085Y006335D02*
X005880Y006335D01*
X005812Y006403D01*
X005812Y006471D01*
X005880Y006540D01*
X006085Y006540D01*
X006272Y006540D02*
X006340Y006471D01*
X006546Y006471D01*
X006546Y006335D02*
X006546Y006745D01*
X006340Y006745D01*
X006272Y006677D01*
X006272Y006540D01*
X006085Y006745D02*
X005880Y006745D01*
X005812Y006677D01*
X005812Y006608D01*
X005880Y006540D01*
X006085Y006335D02*
X006085Y006745D01*
X006085Y007335D02*
X006085Y007608D01*
X005948Y007745D01*
X005812Y007608D01*
X005812Y007335D01*
X005812Y007540D02*
X006085Y007540D01*
X006272Y007540D02*
X006340Y007471D01*
X006546Y007471D01*
X006546Y007335D02*
X006546Y007745D01*
X006340Y007745D01*
X006272Y007677D01*
X006272Y007540D01*
X006085Y008335D02*
X005880Y008335D01*
X005812Y008403D01*
X005812Y008471D01*
X005880Y008540D01*
X006085Y008540D01*
X006272Y008540D02*
X006340Y008471D01*
X006546Y008471D01*
X006546Y008335D02*
X006546Y008745D01*
X006340Y008745D01*
X006272Y008677D01*
X006272Y008540D01*
X006085Y008745D02*
X005880Y008745D01*
X005812Y008677D01*
X005812Y008608D01*
X005880Y008540D01*
X006085Y008335D02*
X006085Y008745D01*
X005625Y008608D02*
X005488Y008745D01*
X005488Y008335D01*
X005625Y008335D02*
X005351Y008335D01*
X005164Y008540D02*
X004891Y008540D01*
X004959Y008335D02*
X004959Y008745D01*
X005164Y008540D01*
X004704Y008335D02*
X004430Y008745D01*
X004244Y008745D02*
X004038Y008745D01*
X003970Y008677D01*
X003970Y008540D01*
X004038Y008471D01*
X004244Y008471D01*
X004244Y008335D02*
X004244Y008745D01*
X004289Y008925D02*
X001987Y008925D01*
X002197Y008745D02*
X002129Y008677D01*
X002129Y008608D01*
X002197Y008540D01*
X002402Y008540D01*
X002402Y008745D02*
X002197Y008745D01*
X002402Y008745D02*
X002402Y008335D01*
X002197Y008335D01*
X002129Y008403D01*
X002129Y008471D01*
X002197Y008540D01*
X002589Y008266D02*
X002862Y008266D01*
X003049Y008335D02*
X003049Y008745D01*
X003186Y008608D01*
X003323Y008745D01*
X003323Y008335D01*
X003510Y008335D02*
X003510Y008745D01*
X003646Y008471D02*
X003510Y008335D01*
X003646Y008471D02*
X003783Y008335D01*
X003783Y008745D01*
X003783Y009335D02*
X003646Y009471D01*
X003510Y009335D01*
X003510Y009745D01*
X003323Y009745D02*
X003323Y009335D01*
X003049Y009335D02*
X003049Y009745D01*
X003186Y009608D01*
X003323Y009745D01*
X002862Y009266D02*
X002589Y009266D01*
X002402Y009403D02*
X002334Y009335D01*
X002197Y009335D01*
X002129Y009403D01*
X002402Y009403D02*
X002402Y009677D01*
X002334Y009745D01*
X002197Y009745D01*
X002129Y009677D01*
X002589Y010266D02*
X002862Y010266D01*
X003049Y010335D02*
X003049Y010745D01*
X003186Y010608D01*
X003323Y010745D01*
X003323Y010335D01*
X003510Y010335D02*
X003510Y010745D01*
X003646Y010471D02*
X003510Y010335D01*
X003646Y010471D02*
X003783Y010335D01*
X003783Y010745D01*
X003970Y010677D02*
X003970Y010540D01*
X004038Y010471D01*
X004244Y010471D01*
X004244Y010335D02*
X004244Y010745D01*
X004038Y010745D01*
X003970Y010677D01*
X004289Y010925D02*
X001987Y010925D01*
X002197Y010745D02*
X002334Y010745D01*
X002402Y010677D01*
X002402Y010403D01*
X002334Y010335D01*
X002197Y010335D01*
X002129Y010403D01*
X002129Y010677D02*
X002197Y010745D01*
X002129Y011335D02*
X002129Y011608D01*
X002265Y011745D01*
X002402Y011608D01*
X002402Y011335D01*
X002589Y011266D02*
X002862Y011266D01*
X003033Y011335D02*
X003169Y011335D01*
X003101Y011335D02*
X003101Y011745D01*
X003169Y011745D02*
X003033Y011745D01*
X003356Y011745D02*
X003630Y011335D01*
X003817Y011335D02*
X004090Y011335D01*
X003953Y011335D02*
X003953Y011745D01*
X004090Y011608D01*
X004277Y011608D02*
X004277Y011335D01*
X004277Y011540D02*
X004551Y011540D01*
X004551Y011608D02*
X004414Y011745D01*
X004277Y011608D01*
X004551Y011608D02*
X004551Y011335D01*
X004737Y011540D02*
X004806Y011471D01*
X005011Y011471D01*
X005011Y011335D02*
X005011Y011745D01*
X004806Y011745D01*
X004737Y011677D01*
X004737Y011540D01*
X005198Y011745D02*
X005471Y011335D01*
X005658Y011335D02*
X005932Y011335D01*
X005795Y011335D02*
X005795Y011745D01*
X005932Y011608D01*
X006119Y011266D02*
X006392Y011266D01*
X006579Y011403D02*
X006579Y011471D01*
X006647Y011540D01*
X006716Y011540D01*
X006647Y011540D02*
X006579Y011608D01*
X006579Y011677D01*
X006647Y011745D01*
X006784Y011745D01*
X006853Y011677D01*
X007039Y011677D02*
X007108Y011745D01*
X007245Y011745D01*
X007313Y011677D01*
X007039Y011677D02*
X007039Y011608D01*
X007313Y011335D01*
X007039Y011335D01*
X006853Y011403D02*
X006784Y011335D01*
X006647Y011335D01*
X006579Y011403D01*
X006546Y010745D02*
X006340Y010745D01*
X006272Y010677D01*
X006272Y010540D01*
X006340Y010471D01*
X006546Y010471D01*
X006546Y010335D02*
X006546Y010745D01*
X006085Y010745D02*
X006085Y010335D01*
X005880Y010335D01*
X005812Y010403D01*
X005812Y010471D01*
X005880Y010540D01*
X006085Y010540D01*
X006085Y010745D02*
X005880Y010745D01*
X005812Y010677D01*
X005812Y010608D01*
X005880Y010540D01*
X005625Y010608D02*
X005488Y010745D01*
X005488Y010335D01*
X005625Y010335D02*
X005351Y010335D01*
X005164Y010403D02*
X005096Y010335D01*
X004959Y010335D01*
X004891Y010403D01*
X004891Y010540D01*
X004959Y010608D01*
X005028Y010608D01*
X005164Y010540D01*
X005164Y010745D01*
X004891Y010745D01*
X004704Y010335D02*
X004430Y010745D01*
X004430Y009745D02*
X004704Y009335D01*
X004891Y009403D02*
X004891Y009677D01*
X005164Y009403D01*
X005096Y009335D01*
X004959Y009335D01*
X004891Y009403D01*
X005164Y009403D02*
X005164Y009677D01*
X005096Y009745D01*
X004959Y009745D01*
X004891Y009677D01*
X005351Y009335D02*
X005625Y009335D01*
X005488Y009335D02*
X005488Y009745D01*
X005625Y009608D01*
X005812Y009608D02*
X005812Y009335D01*
X005812Y009540D02*
X006085Y009540D01*
X006085Y009608D02*
X006085Y009335D01*
X006085Y009608D02*
X005948Y009745D01*
X005812Y009608D01*
X006272Y009540D02*
X006340Y009471D01*
X006546Y009471D01*
X006546Y009335D02*
X006546Y009745D01*
X006340Y009745D01*
X006272Y009677D01*
X006272Y009540D01*
X005096Y007745D02*
X004959Y007745D01*
X004891Y007677D01*
X004891Y007403D01*
X004959Y007335D01*
X005096Y007335D01*
X005164Y007403D01*
X005096Y007540D02*
X004891Y007540D01*
X005096Y007540D02*
X005164Y007608D01*
X005164Y007677D01*
X005096Y007745D01*
X004704Y007335D02*
X004430Y007745D01*
X004244Y007745D02*
X004038Y007745D01*
X003970Y007677D01*
X003970Y007540D01*
X004038Y007471D01*
X004244Y007471D01*
X004244Y007335D02*
X004244Y007745D01*
X003783Y007745D02*
X003783Y007335D01*
X003646Y007471D01*
X003510Y007335D01*
X003510Y007745D01*
X003323Y007745D02*
X003186Y007608D01*
X003049Y007745D01*
X003049Y007335D01*
X002862Y007266D02*
X002589Y007266D01*
X002402Y007335D02*
X002197Y007335D01*
X002129Y007403D01*
X002129Y007471D01*
X002197Y007540D01*
X002402Y007540D01*
X002402Y007745D02*
X002197Y007745D01*
X002129Y007677D01*
X002129Y007608D01*
X002197Y007540D01*
X002402Y007335D02*
X002402Y007745D01*
X001987Y006925D02*
X004289Y006925D01*
X004244Y006745D02*
X004038Y006745D01*
X003970Y006677D01*
X003970Y006540D01*
X004038Y006471D01*
X004244Y006471D01*
X004244Y006335D02*
X004244Y006745D01*
X004430Y006745D02*
X004704Y006335D01*
X004891Y006403D02*
X004891Y006471D01*
X004959Y006540D01*
X005028Y006540D01*
X004959Y006540D02*
X004891Y006608D01*
X004891Y006677D01*
X004959Y006745D01*
X005096Y006745D01*
X005164Y006677D01*
X005164Y006403D02*
X005096Y006335D01*
X004959Y006335D01*
X004891Y006403D01*
X005351Y006335D02*
X005625Y006335D01*
X005488Y006335D02*
X005488Y006745D01*
X005625Y006608D01*
X003783Y006745D02*
X003783Y006335D01*
X003646Y006471D01*
X003510Y006335D01*
X003510Y006745D01*
X003323Y006745D02*
X003186Y006608D01*
X003049Y006745D01*
X003049Y006335D01*
X002862Y006266D02*
X002589Y006266D01*
X002402Y006335D02*
X002402Y006608D01*
X002265Y006745D01*
X002129Y006608D01*
X002129Y006335D01*
X002129Y006540D02*
X002402Y006540D01*
X003323Y006335D02*
X003323Y006745D01*
X003323Y007335D02*
X003323Y007745D01*
X003783Y009335D02*
X003783Y009745D01*
X003970Y009677D02*
X003970Y009540D01*
X004038Y009471D01*
X004244Y009471D01*
X004244Y009335D02*
X004244Y009745D01*
X004038Y009745D01*
X003970Y009677D01*
X002402Y011540D02*
X002129Y011540D01*
X002197Y012335D02*
X002402Y012335D01*
X002402Y012745D01*
X002197Y012745D01*
X002129Y012677D01*
X002129Y012608D01*
X002197Y012540D01*
X002402Y012540D01*
X002197Y012540D02*
X002129Y012471D01*
X002129Y012403D01*
X002197Y012335D01*
X002589Y012266D02*
X002862Y012266D01*
X003033Y012335D02*
X003169Y012335D01*
X003101Y012335D02*
X003101Y012745D01*
X003169Y012745D02*
X003033Y012745D01*
X003356Y012745D02*
X003630Y012335D01*
X003817Y012403D02*
X003885Y012335D01*
X004022Y012335D01*
X004090Y012403D01*
X003817Y012677D01*
X003817Y012403D01*
X004090Y012403D02*
X004090Y012677D01*
X004022Y012745D01*
X003885Y012745D01*
X003817Y012677D01*
X004277Y012608D02*
X004277Y012335D01*
X004277Y012540D02*
X004551Y012540D01*
X004551Y012608D02*
X004414Y012745D01*
X004277Y012608D01*
X004551Y012608D02*
X004551Y012335D01*
X004737Y012540D02*
X004806Y012471D01*
X005011Y012471D01*
X005011Y012335D02*
X005011Y012745D01*
X004806Y012745D01*
X004737Y012677D01*
X004737Y012540D01*
X005198Y012745D02*
X005471Y012335D01*
X005658Y012403D02*
X005727Y012335D01*
X005863Y012335D01*
X005932Y012403D01*
X005658Y012677D01*
X005658Y012403D01*
X005658Y012677D02*
X005727Y012745D01*
X005863Y012745D01*
X005932Y012677D01*
X005932Y012403D01*
X006119Y012266D02*
X006392Y012266D01*
X006579Y012403D02*
X006579Y012471D01*
X006647Y012540D01*
X006716Y012540D01*
X006647Y012540D02*
X006579Y012608D01*
X006579Y012677D01*
X006647Y012745D01*
X006784Y012745D01*
X006853Y012677D01*
X007039Y012677D02*
X007039Y012608D01*
X007313Y012335D01*
X007039Y012335D01*
X006853Y012403D02*
X006784Y012335D01*
X006647Y012335D01*
X006579Y012403D01*
X007039Y012677D02*
X007108Y012745D01*
X007245Y012745D01*
X007313Y012677D01*
X007637Y012745D02*
X007637Y012335D01*
X007773Y012335D02*
X007500Y012335D01*
X007773Y012608D02*
X007637Y012745D01*
X007960Y012608D02*
X007960Y012335D01*
X007960Y012540D02*
X008234Y012540D01*
X008234Y012608D02*
X008097Y012745D01*
X007960Y012608D01*
X008234Y012608D02*
X008234Y012335D01*
X008097Y011745D02*
X007960Y011608D01*
X007960Y011335D01*
X007773Y011335D02*
X007500Y011335D01*
X007637Y011335D02*
X007637Y011745D01*
X007773Y011608D01*
X007960Y011540D02*
X008234Y011540D01*
X008234Y011608D02*
X008097Y011745D01*
X008234Y011608D02*
X008234Y011335D01*
X008250Y013335D02*
X008250Y013745D01*
X008387Y013608D01*
X008574Y013608D02*
X008574Y013335D01*
X008387Y013335D02*
X008114Y013335D01*
X007927Y013335D02*
X007653Y013608D01*
X007653Y013677D01*
X007722Y013745D01*
X007858Y013745D01*
X007927Y013677D01*
X007927Y013335D02*
X007653Y013335D01*
X007466Y013403D02*
X007398Y013335D01*
X007261Y013335D01*
X007193Y013403D01*
X007193Y013471D01*
X007261Y013540D01*
X007330Y013540D01*
X007261Y013540D02*
X007193Y013608D01*
X007193Y013677D01*
X007261Y013745D01*
X007398Y013745D01*
X007466Y013677D01*
X007006Y013266D02*
X006732Y013266D01*
X006546Y013335D02*
X006272Y013335D01*
X006409Y013335D02*
X006409Y013745D01*
X006546Y013608D01*
X006085Y013677D02*
X006017Y013745D01*
X005880Y013745D01*
X005812Y013677D01*
X005812Y013608D01*
X005880Y013540D01*
X005812Y013471D01*
X005812Y013403D01*
X005880Y013335D01*
X006017Y013335D01*
X006085Y013403D01*
X005948Y013540D02*
X005880Y013540D01*
X005625Y013335D02*
X005351Y013745D01*
X005164Y013745D02*
X004959Y013745D01*
X004891Y013677D01*
X004891Y013540D01*
X004959Y013471D01*
X005164Y013471D01*
X005164Y013335D02*
X005164Y013745D01*
X004704Y013677D02*
X004704Y013403D01*
X004636Y013335D01*
X004499Y013335D01*
X004430Y013403D01*
X004244Y013403D02*
X004175Y013335D01*
X004038Y013335D01*
X003970Y013403D01*
X003970Y013471D01*
X004038Y013540D01*
X004107Y013540D01*
X004038Y013540D02*
X003970Y013608D01*
X003970Y013677D01*
X004038Y013745D01*
X004175Y013745D01*
X004244Y013677D01*
X004430Y013677D02*
X004499Y013745D01*
X004636Y013745D01*
X004704Y013677D01*
X004636Y014335D02*
X004499Y014335D01*
X004430Y014403D01*
X004244Y014335D02*
X003970Y014608D01*
X003970Y014677D01*
X004038Y014745D01*
X004175Y014745D01*
X004244Y014677D01*
X004430Y014677D02*
X004499Y014745D01*
X004636Y014745D01*
X004704Y014677D01*
X004704Y014403D01*
X004636Y014335D01*
X004891Y014540D02*
X004891Y014677D01*
X004959Y014745D01*
X005164Y014745D01*
X005164Y014335D01*
X005164Y014471D02*
X004959Y014471D01*
X004891Y014540D01*
X005351Y014745D02*
X005625Y014335D01*
X005812Y014335D02*
X006085Y014335D01*
X005812Y014608D01*
X005812Y014677D01*
X005880Y014745D01*
X006017Y014745D01*
X006085Y014677D01*
X006409Y014745D02*
X006409Y014335D01*
X006546Y014335D02*
X006272Y014335D01*
X006546Y014608D02*
X006409Y014745D01*
X006732Y014266D02*
X007006Y014266D01*
X007193Y014403D02*
X007261Y014335D01*
X007398Y014335D01*
X007466Y014403D01*
X007330Y014540D02*
X007261Y014540D01*
X007193Y014471D01*
X007193Y014403D01*
X007261Y014540D02*
X007193Y014608D01*
X007193Y014677D01*
X007261Y014745D01*
X007398Y014745D01*
X007466Y014677D01*
X007653Y014677D02*
X007722Y014745D01*
X007858Y014745D01*
X007927Y014677D01*
X007653Y014677D02*
X007653Y014608D01*
X007927Y014335D01*
X007653Y014335D01*
X008114Y014335D02*
X008387Y014335D01*
X008250Y014335D02*
X008250Y014745D01*
X008387Y014608D01*
X008574Y014608D02*
X008574Y014335D01*
X008574Y014540D02*
X008848Y014540D01*
X008848Y014608D02*
X008848Y014335D01*
X008848Y014608D02*
X008711Y014745D01*
X008574Y014608D01*
X008574Y015335D02*
X008574Y015608D01*
X008711Y015745D01*
X008848Y015608D01*
X008848Y015335D01*
X008848Y015540D02*
X008574Y015540D01*
X008387Y015608D02*
X008250Y015745D01*
X008250Y015335D01*
X008114Y015335D02*
X008387Y015335D01*
X007927Y015335D02*
X007653Y015608D01*
X007653Y015677D01*
X007722Y015745D01*
X007858Y015745D01*
X007927Y015677D01*
X007927Y015335D02*
X007653Y015335D01*
X007466Y015403D02*
X007398Y015335D01*
X007261Y015335D01*
X007193Y015403D01*
X007193Y015471D01*
X007261Y015540D01*
X007330Y015540D01*
X007261Y015540D02*
X007193Y015608D01*
X007193Y015677D01*
X007261Y015745D01*
X007398Y015745D01*
X007466Y015677D01*
X007006Y015266D02*
X006732Y015266D01*
X006546Y015335D02*
X006272Y015335D01*
X006409Y015335D02*
X006409Y015745D01*
X006546Y015608D01*
X006085Y015608D02*
X005948Y015745D01*
X005948Y015335D01*
X005812Y015335D02*
X006085Y015335D01*
X005625Y015335D02*
X005351Y015745D01*
X005164Y015745D02*
X005164Y015335D01*
X005164Y015471D02*
X004959Y015471D01*
X004891Y015540D01*
X004891Y015677D01*
X004959Y015745D01*
X005164Y015745D01*
X004704Y015677D02*
X004704Y015403D01*
X004636Y015335D01*
X004499Y015335D01*
X004430Y015403D01*
X004244Y015335D02*
X003970Y015335D01*
X004107Y015335D02*
X004107Y015745D01*
X004244Y015608D01*
X004430Y015677D02*
X004499Y015745D01*
X004636Y015745D01*
X004704Y015677D01*
X004482Y016335D02*
X004345Y016335D01*
X004277Y016403D01*
X004090Y016403D02*
X004090Y016677D01*
X004022Y016745D01*
X003885Y016745D01*
X003817Y016677D01*
X004090Y016403D01*
X004022Y016335D01*
X003885Y016335D01*
X003817Y016403D01*
X003817Y016677D01*
X003630Y016335D02*
X003356Y016745D01*
X003169Y016745D02*
X003033Y016745D01*
X003101Y016745D02*
X003101Y016335D01*
X003169Y016335D02*
X003033Y016335D01*
X002862Y016266D02*
X002589Y016266D01*
X002402Y016335D02*
X002402Y016745D01*
X002197Y016745D01*
X002129Y016677D01*
X002129Y016540D01*
X002197Y016471D01*
X002402Y016471D01*
X002334Y015745D02*
X002197Y015745D01*
X002129Y015677D01*
X002334Y015745D02*
X002402Y015677D01*
X002402Y015403D01*
X002334Y015335D01*
X002197Y015335D01*
X002129Y015403D01*
X002589Y015266D02*
X002862Y015266D01*
X003049Y015471D02*
X003049Y015745D01*
X003049Y015471D02*
X003186Y015335D01*
X003323Y015471D01*
X003323Y015745D01*
X003510Y015745D02*
X003783Y015335D01*
X003510Y014745D02*
X003783Y014335D01*
X003970Y014335D02*
X004244Y014335D01*
X003510Y013745D02*
X003783Y013335D01*
X003323Y013471D02*
X003186Y013335D01*
X003049Y013471D01*
X003049Y013745D01*
X003323Y013745D02*
X003323Y013471D01*
X002862Y013266D02*
X002589Y013266D01*
X002402Y013335D02*
X002402Y013608D01*
X002265Y013745D01*
X002129Y013608D01*
X002129Y013335D01*
X002129Y013540D02*
X002402Y013540D01*
X002589Y014266D02*
X002862Y014266D01*
X003049Y014471D02*
X003049Y014745D01*
X003049Y014471D02*
X003186Y014335D01*
X003323Y014471D01*
X003323Y014745D01*
X002402Y014745D02*
X002402Y014335D01*
X002197Y014335D01*
X002129Y014403D01*
X002129Y014471D01*
X002197Y014540D01*
X002402Y014540D01*
X002402Y014745D02*
X002197Y014745D01*
X002129Y014677D01*
X002129Y014608D01*
X002197Y014540D01*
X004277Y016677D02*
X004345Y016745D01*
X004482Y016745D01*
X004551Y016677D01*
X004551Y016403D01*
X004482Y016335D01*
X004737Y016540D02*
X004806Y016471D01*
X005011Y016471D01*
X005011Y016335D02*
X005011Y016745D01*
X004806Y016745D01*
X004737Y016677D01*
X004737Y016540D01*
X005198Y016745D02*
X005471Y016335D01*
X005658Y016403D02*
X005727Y016335D01*
X005863Y016335D01*
X005932Y016403D01*
X005658Y016677D01*
X005658Y016403D01*
X005658Y016677D02*
X005727Y016745D01*
X005863Y016745D01*
X005932Y016677D01*
X005932Y016403D01*
X006119Y016335D02*
X006392Y016335D01*
X006255Y016335D02*
X006255Y016745D01*
X006392Y016608D01*
X006579Y016266D02*
X006853Y016266D01*
X007039Y016403D02*
X007108Y016335D01*
X007245Y016335D01*
X007313Y016403D01*
X007176Y016540D02*
X007108Y016540D01*
X007039Y016471D01*
X007039Y016403D01*
X007108Y016540D02*
X007039Y016608D01*
X007039Y016677D01*
X007108Y016745D01*
X007245Y016745D01*
X007313Y016677D01*
X007500Y016677D02*
X007568Y016745D01*
X007705Y016745D01*
X007773Y016677D01*
X007500Y016608D02*
X007773Y016335D01*
X007500Y016335D01*
X007500Y016608D02*
X007500Y016677D01*
X007960Y016335D02*
X008234Y016335D01*
X008097Y016335D02*
X008097Y016745D01*
X008234Y016608D01*
X008421Y016608D02*
X008421Y016335D01*
X008421Y016540D02*
X008694Y016540D01*
X008694Y016608D02*
X008557Y016745D01*
X008421Y016608D01*
X008694Y016608D02*
X008694Y016335D01*
X008387Y017335D02*
X008387Y017608D01*
X008250Y017745D01*
X008114Y017608D01*
X008114Y017335D01*
X007927Y017335D02*
X007653Y017335D01*
X007790Y017335D02*
X007790Y017745D01*
X007927Y017608D01*
X008114Y017540D02*
X008387Y017540D01*
X007466Y017677D02*
X007398Y017745D01*
X007261Y017745D01*
X007193Y017677D01*
X007193Y017608D01*
X007466Y017335D01*
X007193Y017335D01*
X007006Y017266D02*
X006732Y017266D01*
X006546Y017335D02*
X006272Y017335D01*
X006409Y017335D02*
X006409Y017745D01*
X006546Y017608D01*
X006085Y017540D02*
X005948Y017608D01*
X005880Y017608D01*
X005812Y017540D01*
X005812Y017403D01*
X005880Y017335D01*
X006017Y017335D01*
X006085Y017403D01*
X006085Y017540D02*
X006085Y017745D01*
X005812Y017745D01*
X005625Y017335D02*
X005351Y017745D01*
X005164Y017745D02*
X004959Y017745D01*
X004891Y017677D01*
X004891Y017540D01*
X004959Y017471D01*
X005164Y017471D01*
X005164Y017335D02*
X005164Y017745D01*
X004704Y017677D02*
X004704Y017403D01*
X004636Y017335D01*
X004499Y017335D01*
X004430Y017403D01*
X004244Y017403D02*
X004175Y017335D01*
X004038Y017335D01*
X003970Y017403D01*
X003970Y017540D01*
X004038Y017608D01*
X004107Y017608D01*
X004244Y017540D01*
X004244Y017745D01*
X003970Y017745D01*
X003783Y017335D02*
X003510Y017745D01*
X003323Y017745D02*
X003323Y017471D01*
X003186Y017335D01*
X003049Y017471D01*
X003049Y017745D01*
X002862Y017266D02*
X002589Y017266D01*
X002402Y017335D02*
X002402Y017745D01*
X002197Y017745D01*
X002129Y017677D01*
X002129Y017540D01*
X002197Y017471D01*
X002402Y017471D01*
X002402Y018335D02*
X002197Y018335D01*
X002128Y018403D01*
X002128Y018677D01*
X002197Y018745D01*
X002402Y018745D01*
X002402Y018335D01*
X002589Y018335D02*
X002589Y018745D01*
X002862Y018745D02*
X002589Y018335D01*
X002862Y018335D02*
X002862Y018745D01*
X003049Y018677D02*
X003118Y018745D01*
X003254Y018745D01*
X003323Y018677D01*
X003323Y018403D01*
X003254Y018335D01*
X003118Y018335D01*
X003049Y018403D01*
X003049Y018540D01*
X003186Y018540D01*
X004430Y017677D02*
X004499Y017745D01*
X004636Y017745D01*
X004704Y017677D01*
X008711Y013745D02*
X008574Y013608D01*
X008574Y013540D02*
X008848Y013540D01*
X008848Y013608D02*
X008711Y013745D01*
X008848Y013608D02*
X008848Y013335D01*
X012985Y013403D02*
X013053Y013335D01*
X013190Y013335D01*
X013259Y013403D01*
X012985Y013677D01*
X012985Y013403D01*
X012985Y013677D02*
X013053Y013745D01*
X013190Y013745D01*
X013259Y013677D01*
X013259Y013403D01*
X013445Y013403D02*
X013514Y013335D01*
X013719Y013335D01*
X013719Y013745D01*
X013514Y013745D01*
X013445Y013677D01*
X013445Y013608D01*
X013514Y013540D01*
X013719Y013540D01*
X013906Y013540D02*
X013906Y013677D01*
X013974Y013745D01*
X014179Y013745D01*
X014179Y013335D01*
X014179Y013471D02*
X013974Y013471D01*
X013906Y013540D01*
X013514Y013540D02*
X013445Y013471D01*
X013445Y013403D01*
X013514Y012745D02*
X013651Y012745D01*
X013719Y012677D01*
X013719Y012403D01*
X013651Y012335D01*
X013514Y012335D01*
X013445Y012403D01*
X013259Y012403D02*
X013259Y012471D01*
X013190Y012540D01*
X013053Y012540D01*
X012985Y012471D01*
X012985Y012403D01*
X013053Y012335D01*
X013190Y012335D01*
X013259Y012403D01*
X013190Y012540D02*
X013259Y012608D01*
X013259Y012677D01*
X013190Y012745D01*
X013053Y012745D01*
X012985Y012677D01*
X012985Y012608D01*
X013053Y012540D01*
X013445Y012677D02*
X013514Y012745D01*
X013906Y012677D02*
X013906Y012540D01*
X013974Y012471D01*
X014179Y012471D01*
X014179Y012335D02*
X014179Y012745D01*
X013974Y012745D01*
X013906Y012677D01*
X014366Y012745D02*
X014640Y012335D01*
X014827Y012335D02*
X014827Y012745D01*
X015100Y012745D02*
X015100Y012335D01*
X014963Y012471D01*
X014827Y012335D01*
X015287Y012266D02*
X015560Y012266D01*
X015747Y012335D02*
X015747Y012745D01*
X015884Y012608D01*
X016021Y012745D01*
X016021Y012335D01*
X016208Y012335D02*
X016344Y012471D01*
X016481Y012335D01*
X016481Y012745D01*
X016668Y012677D02*
X016668Y012540D01*
X016736Y012471D01*
X016942Y012471D01*
X016942Y012335D02*
X016942Y012745D01*
X016736Y012745D01*
X016668Y012677D01*
X016208Y012745D02*
X016208Y012335D01*
X016179Y011745D02*
X015974Y011745D01*
X015906Y011677D01*
X015906Y011540D01*
X015974Y011471D01*
X016179Y011471D01*
X016179Y011335D02*
X016179Y011745D01*
X016366Y011745D02*
X016640Y011335D01*
X016827Y011335D02*
X016963Y011471D01*
X017100Y011335D01*
X017100Y011745D01*
X016827Y011745D02*
X016827Y011335D01*
X017287Y011266D02*
X017560Y011266D01*
X017747Y011335D02*
X017747Y011745D01*
X017884Y011608D01*
X018021Y011745D01*
X018021Y011335D01*
X018208Y011335D02*
X018208Y011745D01*
X018344Y011471D02*
X018208Y011335D01*
X018344Y011471D02*
X018481Y011335D01*
X018481Y011745D01*
X018668Y011677D02*
X018668Y011540D01*
X018736Y011471D01*
X018942Y011471D01*
X018942Y011335D02*
X018942Y011745D01*
X018736Y011745D01*
X018668Y011677D01*
X018987Y011925D02*
X016685Y011925D01*
X015719Y011745D02*
X015719Y011335D01*
X015514Y011335D01*
X015445Y011403D01*
X015445Y011471D01*
X015514Y011540D01*
X015719Y011540D01*
X015719Y011745D02*
X015514Y011745D01*
X015445Y011677D01*
X015445Y011608D01*
X015514Y011540D01*
X015259Y011608D02*
X015122Y011745D01*
X015122Y011335D01*
X015259Y011335D02*
X014985Y011335D01*
X014815Y010745D02*
X014815Y010335D01*
X014952Y010335D02*
X014678Y010335D01*
X014491Y010335D02*
X014218Y010608D01*
X014218Y010677D01*
X014286Y010745D01*
X014423Y010745D01*
X014491Y010677D01*
X014815Y010745D02*
X014952Y010608D01*
X015138Y010608D02*
X015138Y010335D01*
X015138Y010540D02*
X015412Y010540D01*
X015412Y010608D02*
X015275Y010745D01*
X015138Y010608D01*
X015412Y010608D02*
X015412Y010335D01*
X015599Y010745D02*
X015872Y010335D01*
X016128Y010335D02*
X016128Y010745D01*
X016333Y010540D01*
X016059Y010540D01*
X016520Y010677D02*
X016588Y010745D01*
X016725Y010745D01*
X016793Y010677D01*
X016793Y010403D01*
X016725Y010335D01*
X016588Y010335D01*
X016520Y010403D01*
X016980Y010540D02*
X017048Y010471D01*
X017254Y010471D01*
X017254Y010335D02*
X017254Y010745D01*
X017048Y010745D01*
X016980Y010677D01*
X016980Y010540D01*
X017440Y010745D02*
X017714Y010335D01*
X017901Y010403D02*
X017901Y010745D01*
X018174Y010745D02*
X018174Y010403D01*
X018106Y010335D01*
X017969Y010335D01*
X017901Y010403D01*
X018361Y010266D02*
X018635Y010266D01*
X018805Y010335D02*
X018942Y010335D01*
X018873Y010335D02*
X018873Y010745D01*
X018805Y010745D02*
X018942Y010745D01*
X018942Y009745D02*
X018805Y009745D01*
X018873Y009745D02*
X018873Y009335D01*
X018805Y009335D02*
X018942Y009335D01*
X018635Y009266D02*
X018361Y009266D01*
X018174Y009471D02*
X018038Y009335D01*
X017901Y009471D01*
X017901Y009745D01*
X018174Y009745D02*
X018174Y009471D01*
X017714Y009335D02*
X017440Y009745D01*
X017254Y009745D02*
X017254Y009335D01*
X017254Y009471D02*
X017048Y009471D01*
X016980Y009540D01*
X016980Y009677D01*
X017048Y009745D01*
X017254Y009745D01*
X016793Y009608D02*
X016793Y009335D01*
X016793Y009540D02*
X016520Y009540D01*
X016520Y009608D02*
X016520Y009335D01*
X016333Y009403D02*
X016264Y009335D01*
X016128Y009335D01*
X016059Y009403D01*
X016059Y009471D01*
X016128Y009540D01*
X016333Y009540D01*
X016333Y009403D01*
X016333Y009540D02*
X016196Y009677D01*
X016059Y009745D01*
X015872Y009335D02*
X015599Y009745D01*
X015412Y009608D02*
X015412Y009335D01*
X015412Y009540D02*
X015138Y009540D01*
X015138Y009608D02*
X015138Y009335D01*
X014952Y009335D02*
X014678Y009335D01*
X014815Y009335D02*
X014815Y009745D01*
X014952Y009608D01*
X015138Y009608D02*
X015275Y009745D01*
X015412Y009608D01*
X015445Y008745D02*
X015719Y008335D01*
X015906Y008403D02*
X015974Y008335D01*
X016111Y008335D01*
X016179Y008403D01*
X016179Y008540D02*
X016043Y008608D01*
X015974Y008608D01*
X015906Y008540D01*
X015906Y008403D01*
X015906Y008745D02*
X016179Y008745D01*
X016179Y008540D01*
X016366Y008540D02*
X016640Y008540D01*
X016640Y008608D02*
X016503Y008745D01*
X016366Y008608D01*
X016366Y008335D01*
X016640Y008335D02*
X016640Y008608D01*
X016827Y008540D02*
X016895Y008471D01*
X017100Y008471D01*
X017100Y008335D02*
X017100Y008745D01*
X016895Y008745D01*
X016827Y008677D01*
X016827Y008540D01*
X017287Y008745D02*
X017560Y008335D01*
X017747Y008403D02*
X017747Y008745D01*
X018021Y008745D02*
X018021Y008403D01*
X017952Y008335D01*
X017816Y008335D01*
X017747Y008403D01*
X018208Y008266D02*
X018481Y008266D01*
X018668Y008471D02*
X018668Y008745D01*
X018668Y008471D02*
X018805Y008335D01*
X018942Y008471D01*
X018942Y008745D01*
X018942Y007745D02*
X018942Y007471D01*
X018805Y007335D01*
X018668Y007471D01*
X018668Y007745D01*
X018481Y007266D02*
X018208Y007266D01*
X018021Y007471D02*
X017884Y007335D01*
X017747Y007471D01*
X017747Y007745D01*
X018021Y007745D02*
X018021Y007471D01*
X017560Y007335D02*
X017287Y007745D01*
X017100Y007745D02*
X016895Y007745D01*
X016827Y007677D01*
X016827Y007540D01*
X016895Y007471D01*
X017100Y007471D01*
X017100Y007335D02*
X017100Y007745D01*
X016640Y007608D02*
X016640Y007335D01*
X016640Y007540D02*
X016366Y007540D01*
X016366Y007608D02*
X016366Y007335D01*
X016366Y007608D02*
X016503Y007745D01*
X016640Y007608D01*
X016179Y007540D02*
X015906Y007540D01*
X015974Y007335D02*
X015974Y007745D01*
X016179Y007540D01*
X015719Y007335D02*
X015445Y007745D01*
X015259Y007608D02*
X015122Y007745D01*
X014985Y007608D01*
X014985Y007335D01*
X014798Y007335D02*
X014525Y007335D01*
X014661Y007335D02*
X014661Y007745D01*
X014798Y007608D01*
X014985Y007540D02*
X015259Y007540D01*
X015259Y007608D02*
X015259Y007335D01*
X015122Y006745D02*
X014985Y006608D01*
X014985Y006335D01*
X014798Y006335D02*
X014525Y006335D01*
X014661Y006335D02*
X014661Y006745D01*
X014798Y006608D01*
X014985Y006540D02*
X015259Y006540D01*
X015259Y006608D02*
X015122Y006745D01*
X015259Y006608D02*
X015259Y006335D01*
X015445Y006745D02*
X015719Y006335D01*
X015906Y006403D02*
X015906Y006471D01*
X015974Y006540D01*
X016043Y006540D01*
X015974Y006540D02*
X015906Y006608D01*
X015906Y006677D01*
X015974Y006745D01*
X016111Y006745D01*
X016179Y006677D01*
X016366Y006608D02*
X016366Y006335D01*
X016179Y006403D02*
X016111Y006335D01*
X015974Y006335D01*
X015906Y006403D01*
X016128Y005745D02*
X016264Y005745D01*
X016333Y005677D01*
X016520Y005608D02*
X016520Y005335D01*
X016333Y005335D02*
X016059Y005608D01*
X016059Y005677D01*
X016128Y005745D01*
X016520Y005608D02*
X016656Y005745D01*
X016793Y005608D01*
X016793Y005335D01*
X016793Y005540D02*
X016520Y005540D01*
X016333Y005335D02*
X016059Y005335D01*
X015872Y005335D02*
X015599Y005745D01*
X015412Y005608D02*
X015275Y005745D01*
X015138Y005608D01*
X015138Y005335D01*
X014952Y005335D02*
X014678Y005335D01*
X014815Y005335D02*
X014815Y005745D01*
X014952Y005608D01*
X015138Y005540D02*
X015412Y005540D01*
X015412Y005608D02*
X015412Y005335D01*
X015445Y004745D02*
X015719Y004335D01*
X015906Y004403D02*
X015906Y004540D01*
X015974Y004608D01*
X016043Y004608D01*
X016179Y004540D01*
X016179Y004745D01*
X015906Y004745D01*
X015906Y004403D02*
X015974Y004335D01*
X016111Y004335D01*
X016179Y004403D01*
X016366Y004403D02*
X016435Y004335D01*
X016571Y004335D01*
X016640Y004403D01*
X016640Y004677D01*
X016571Y004745D01*
X016435Y004745D01*
X016366Y004677D01*
X016827Y004677D02*
X016827Y004540D01*
X016895Y004471D01*
X017100Y004471D01*
X017100Y004335D02*
X017100Y004745D01*
X016895Y004745D01*
X016827Y004677D01*
X017287Y004745D02*
X017560Y004335D01*
X017747Y004540D02*
X017816Y004471D01*
X018021Y004471D01*
X018021Y004335D02*
X018021Y004745D01*
X017816Y004745D01*
X017747Y004677D01*
X017747Y004540D01*
X018208Y004266D02*
X018481Y004266D01*
X018668Y004471D02*
X018668Y004745D01*
X018668Y004471D02*
X018805Y004335D01*
X018942Y004471D01*
X018942Y004745D01*
X018942Y005335D02*
X018805Y005335D01*
X018873Y005335D02*
X018873Y005745D01*
X018805Y005745D02*
X018942Y005745D01*
X018635Y005266D02*
X018361Y005266D01*
X018174Y005403D02*
X018174Y005677D01*
X018106Y005745D01*
X017969Y005745D01*
X017901Y005677D01*
X017901Y005403D01*
X017969Y005335D01*
X018106Y005335D01*
X018174Y005403D01*
X018038Y005471D02*
X017901Y005335D01*
X017714Y005335D02*
X017440Y005745D01*
X017254Y005745D02*
X017048Y005745D01*
X016980Y005677D01*
X016980Y005540D01*
X017048Y005471D01*
X017254Y005471D01*
X017254Y005335D02*
X017254Y005745D01*
X017100Y006335D02*
X017100Y006745D01*
X016895Y006745D01*
X016827Y006677D01*
X016827Y006540D01*
X016895Y006471D01*
X017100Y006471D01*
X017287Y006745D02*
X017560Y006335D01*
X017747Y006335D02*
X017747Y006745D01*
X018021Y006745D02*
X018021Y006335D01*
X017884Y006471D01*
X017747Y006335D01*
X018208Y006266D02*
X018481Y006266D01*
X018668Y006471D02*
X018668Y006745D01*
X018668Y006471D02*
X018805Y006335D01*
X018942Y006471D01*
X018942Y006745D01*
X016640Y006608D02*
X016640Y006335D01*
X016640Y006540D02*
X016366Y006540D01*
X016366Y006608D02*
X016503Y006745D01*
X016640Y006608D01*
X015259Y008335D02*
X015259Y008608D01*
X015122Y008745D01*
X014985Y008608D01*
X014985Y008335D01*
X014798Y008335D02*
X014525Y008335D01*
X014661Y008335D02*
X014661Y008745D01*
X014798Y008608D01*
X014985Y008540D02*
X015259Y008540D01*
X014338Y008677D02*
X014269Y008745D01*
X014133Y008745D01*
X014064Y008677D01*
X014064Y008608D01*
X014338Y008335D01*
X014064Y008335D01*
X013877Y008266D02*
X013604Y008266D01*
X013417Y008403D02*
X013349Y008335D01*
X013212Y008335D01*
X013143Y008403D01*
X013143Y008540D01*
X013212Y008608D01*
X013280Y008608D01*
X013417Y008540D01*
X013417Y008745D01*
X013143Y008745D01*
X013365Y009335D02*
X013297Y009403D01*
X013297Y009471D01*
X013365Y009540D01*
X013570Y009540D01*
X013570Y009403D01*
X013502Y009335D01*
X013365Y009335D01*
X013570Y009540D02*
X013434Y009677D01*
X013297Y009745D01*
X013757Y009266D02*
X014031Y009266D01*
X014218Y009335D02*
X014491Y009335D01*
X014218Y009608D01*
X014218Y009677D01*
X014286Y009745D01*
X014423Y009745D01*
X014491Y009677D01*
X014491Y010335D02*
X014218Y010335D01*
X014031Y010266D02*
X013757Y010266D01*
X013570Y010335D02*
X013297Y010335D01*
X013434Y010335D02*
X013434Y010745D01*
X013570Y010608D01*
X013110Y010540D02*
X012836Y010540D01*
X012905Y010745D02*
X013110Y010540D01*
X012905Y010335D02*
X012905Y010745D01*
X014640Y013335D02*
X014366Y013745D01*
X014685Y013925D02*
X016987Y013925D01*
X016942Y013745D02*
X016736Y013745D01*
X016668Y013677D01*
X016668Y013540D01*
X016736Y013471D01*
X016942Y013471D01*
X016942Y013335D02*
X016942Y013745D01*
X016481Y013745D02*
X016481Y013335D01*
X016344Y013471D01*
X016208Y013335D01*
X016208Y013745D01*
X016021Y013745D02*
X015884Y013608D01*
X015747Y013745D01*
X015747Y013335D01*
X015560Y013266D02*
X015287Y013266D01*
X015100Y013471D02*
X014963Y013335D01*
X014827Y013471D01*
X014827Y013745D01*
X015100Y013745D02*
X015100Y013471D01*
X015287Y014266D02*
X015560Y014266D01*
X015747Y014335D02*
X015747Y014745D01*
X015884Y014608D01*
X016021Y014745D01*
X016021Y014335D01*
X016208Y014335D02*
X016208Y014745D01*
X016481Y014745D02*
X016481Y014335D01*
X016344Y014471D01*
X016208Y014335D01*
X016668Y014540D02*
X016736Y014471D01*
X016942Y014471D01*
X016942Y014335D02*
X016942Y014745D01*
X016736Y014745D01*
X016668Y014677D01*
X016668Y014540D01*
X016021Y013745D02*
X016021Y013335D01*
X014963Y014335D02*
X014827Y014471D01*
X014827Y014745D01*
X015100Y014745D02*
X015100Y014471D01*
X014963Y014335D01*
X014640Y014335D02*
X014366Y014745D01*
X014179Y014745D02*
X014179Y014335D01*
X014179Y014471D02*
X013974Y014471D01*
X013906Y014540D01*
X013906Y014677D01*
X013974Y014745D01*
X014179Y014745D01*
X013719Y014677D02*
X013719Y014403D01*
X013651Y014335D01*
X013514Y014335D01*
X013445Y014403D01*
X013259Y014403D02*
X013259Y014335D01*
X013259Y014403D02*
X012985Y014677D01*
X012985Y014745D01*
X013259Y014745D01*
X013445Y014677D02*
X013514Y014745D01*
X013651Y014745D01*
X013719Y014677D01*
X013719Y015335D02*
X013719Y015608D01*
X013582Y015745D01*
X013445Y015608D01*
X013445Y015335D01*
X013259Y015335D02*
X013259Y015403D01*
X012985Y015677D01*
X012985Y015745D01*
X013259Y015745D01*
X013445Y015540D02*
X013719Y015540D01*
X013906Y015540D02*
X013974Y015471D01*
X014179Y015471D01*
X014179Y015335D02*
X014179Y015745D01*
X013974Y015745D01*
X013906Y015677D01*
X013906Y015540D01*
X014366Y015745D02*
X014640Y015335D01*
X014827Y015403D02*
X014827Y015745D01*
X014685Y015925D02*
X016987Y015925D01*
X016942Y015745D02*
X016736Y015745D01*
X016668Y015677D01*
X016668Y015540D01*
X016736Y015471D01*
X016942Y015471D01*
X016942Y015335D02*
X016942Y015745D01*
X016481Y015745D02*
X016481Y015335D01*
X016344Y015471D01*
X016208Y015335D01*
X016208Y015745D01*
X016021Y015745D02*
X016021Y015335D01*
X015747Y015335D02*
X015747Y015745D01*
X015884Y015608D01*
X016021Y015745D01*
X015560Y015266D02*
X015287Y015266D01*
X015100Y015403D02*
X015032Y015335D01*
X014895Y015335D01*
X014827Y015403D01*
X015100Y015403D02*
X015100Y015745D01*
X015287Y016266D02*
X015560Y016266D01*
X015747Y016335D02*
X015747Y016745D01*
X015884Y016608D01*
X016021Y016745D01*
X016021Y016335D01*
X016208Y016335D02*
X016208Y016745D01*
X016481Y016745D02*
X016481Y016335D01*
X016344Y016471D01*
X016208Y016335D01*
X016668Y016540D02*
X016736Y016471D01*
X016942Y016471D01*
X016942Y016335D02*
X016942Y016745D01*
X016736Y016745D01*
X016668Y016677D01*
X016668Y016540D01*
X016413Y017335D02*
X016276Y017335D01*
X016208Y017403D01*
X016208Y017540D01*
X016276Y017608D01*
X016344Y017608D01*
X016481Y017540D01*
X016481Y017745D01*
X016208Y017745D01*
X016021Y017745D02*
X016021Y017471D01*
X015884Y017335D01*
X015747Y017471D01*
X015747Y017745D01*
X015816Y018335D02*
X015747Y018403D01*
X015747Y018677D01*
X015816Y018745D01*
X016021Y018745D01*
X016021Y018335D01*
X015816Y018335D01*
X016208Y018335D02*
X016208Y018745D01*
X016481Y018745D02*
X016208Y018335D01*
X016481Y018335D02*
X016481Y018745D01*
X016668Y018677D02*
X016736Y018745D01*
X016873Y018745D01*
X016942Y018677D01*
X016942Y018403D01*
X016873Y018335D01*
X016736Y018335D01*
X016668Y018403D01*
X016668Y018540D01*
X016805Y018540D01*
X016805Y017677D02*
X016805Y017403D01*
X016942Y017540D02*
X016668Y017540D01*
X016481Y017403D02*
X016413Y017335D01*
X015100Y016745D02*
X015100Y016403D01*
X015032Y016335D01*
X014895Y016335D01*
X014827Y016403D01*
X014827Y016745D01*
X014640Y016335D02*
X014366Y016745D01*
X014179Y016745D02*
X013974Y016745D01*
X013906Y016677D01*
X013906Y016540D01*
X013974Y016471D01*
X014179Y016471D01*
X014179Y016335D02*
X014179Y016745D01*
X013719Y016677D02*
X013719Y016403D01*
X013651Y016335D01*
X013514Y016335D01*
X013445Y016403D01*
X013259Y016403D02*
X013259Y016540D01*
X013053Y016540D01*
X012985Y016471D01*
X012985Y016403D01*
X013053Y016335D01*
X013190Y016335D01*
X013259Y016403D01*
X013259Y016540D02*
X013122Y016677D01*
X012985Y016745D01*
X013445Y016677D02*
X013514Y016745D01*
X013651Y016745D01*
X013719Y016677D01*
X016656Y009745D02*
X016520Y009608D01*
X016656Y009745D02*
X016793Y009608D01*
X014338Y007677D02*
X014269Y007745D01*
X014133Y007745D01*
X014064Y007677D01*
X014064Y007608D01*
X014338Y007335D01*
X014064Y007335D01*
X013877Y007266D02*
X013604Y007266D01*
X013417Y007540D02*
X013143Y007540D01*
X013212Y007335D02*
X013212Y007745D01*
X013417Y007540D01*
X013672Y006745D02*
X013604Y006677D01*
X013604Y006608D01*
X013672Y006540D01*
X013604Y006471D01*
X013604Y006403D01*
X013672Y006335D01*
X013809Y006335D01*
X013877Y006403D01*
X013741Y006540D02*
X013672Y006540D01*
X013672Y006745D02*
X013809Y006745D01*
X013877Y006677D01*
X014064Y006677D02*
X014133Y006745D01*
X014269Y006745D01*
X014338Y006677D01*
X014064Y006677D02*
X014064Y006608D01*
X014338Y006335D01*
X014064Y006335D01*
X013962Y005745D02*
X013826Y005745D01*
X013757Y005677D01*
X013757Y005608D01*
X013826Y005540D01*
X013757Y005471D01*
X013757Y005403D01*
X013826Y005335D01*
X013962Y005335D01*
X014031Y005403D01*
X013894Y005540D02*
X013826Y005540D01*
X014031Y005677D02*
X013962Y005745D01*
X014218Y005677D02*
X014286Y005745D01*
X014423Y005745D01*
X014491Y005677D01*
X014218Y005608D02*
X014491Y005335D01*
X014218Y005335D01*
X014218Y005608D02*
X014218Y005677D01*
X013570Y005266D02*
X013297Y005266D01*
X013110Y005335D02*
X012836Y005608D01*
X012836Y005677D01*
X012905Y005745D01*
X013042Y005745D01*
X013110Y005677D01*
X013110Y005335D02*
X012836Y005335D01*
X012957Y004745D02*
X012683Y004745D01*
X012751Y004608D02*
X012683Y004540D01*
X012683Y004403D01*
X012751Y004335D01*
X012888Y004335D01*
X012957Y004403D01*
X012957Y004540D02*
X012820Y004608D01*
X012751Y004608D01*
X012957Y004540D02*
X012957Y004745D01*
X013143Y004335D02*
X013417Y004335D01*
X013280Y004335D02*
X013280Y004745D01*
X013417Y004608D01*
X013604Y004266D02*
X013877Y004266D01*
X014064Y004335D02*
X014338Y004335D01*
X014064Y004608D01*
X014064Y004677D01*
X014133Y004745D01*
X014269Y004745D01*
X014338Y004677D01*
X014661Y004745D02*
X014661Y004335D01*
X014525Y004335D02*
X014798Y004335D01*
X014985Y004335D02*
X014985Y004608D01*
X015122Y004745D01*
X015259Y004608D01*
X015259Y004335D01*
X015259Y004540D02*
X014985Y004540D01*
X014798Y004608D02*
X014661Y004745D01*
X013417Y006266D02*
X013143Y006266D01*
X012957Y006403D02*
X012888Y006335D01*
X012751Y006335D01*
X012683Y006403D01*
X012683Y006471D01*
X012751Y006540D01*
X012820Y006540D01*
X012751Y006540D02*
X012683Y006608D01*
X012683Y006677D01*
X012751Y006745D01*
X012888Y006745D01*
X012957Y006677D01*
X012987Y002858D02*
X012987Y002585D01*
X013124Y002721D02*
X012850Y002721D01*
X012192Y002653D02*
X012124Y002585D01*
X011850Y002585D01*
X011782Y002653D01*
X011782Y002790D01*
X011850Y002858D01*
X012124Y002858D02*
X012192Y002790D01*
X012192Y002653D01*
X011192Y002585D02*
X011192Y002790D01*
X011124Y002858D01*
X011055Y002858D01*
X010987Y002790D01*
X010987Y002585D01*
X010987Y002790D02*
X010918Y002858D01*
X010850Y002858D01*
X010782Y002790D01*
X010782Y002585D01*
X011192Y002585D01*
X010192Y002721D02*
X010055Y002858D01*
X009782Y002858D01*
X009987Y002858D02*
X009987Y002585D01*
X010055Y002585D02*
X010192Y002721D01*
X010055Y002585D02*
X009782Y002585D01*
X008987Y002585D02*
X008987Y002858D01*
X013987Y002858D02*
X013987Y002585D01*
X014782Y002653D02*
X014850Y002585D01*
X015192Y002585D01*
X015192Y002858D02*
X014850Y002858D01*
X014782Y002790D01*
X014782Y002653D01*
X015782Y002721D02*
X015918Y002585D01*
X016192Y002585D01*
X016192Y002858D02*
X015918Y002858D01*
X015782Y002721D01*
X016782Y002585D02*
X016918Y002721D01*
X016782Y002858D01*
X017192Y002858D01*
X017192Y002585D02*
X016782Y002585D01*
X017747Y003403D02*
X017747Y003677D01*
X017816Y003745D01*
X018021Y003745D01*
X018021Y003335D01*
X017816Y003335D01*
X017747Y003403D01*
X018208Y003335D02*
X018208Y003745D01*
X018481Y003745D02*
X018208Y003335D01*
X018481Y003335D02*
X018481Y003745D01*
X018668Y003677D02*
X018736Y003745D01*
X018873Y003745D01*
X018942Y003677D01*
X018942Y003403D01*
X018873Y003335D01*
X018736Y003335D01*
X018668Y003403D01*
X018668Y003540D01*
X018805Y003540D01*
X018124Y002721D02*
X017850Y002721D01*
X017987Y002585D02*
X017987Y002858D01*
X002402Y005540D02*
X002129Y005540D01*
D12*
X009887Y003855D02*
X010087Y003855D01*
X009987Y003755D01*
X009987Y003889D01*
X009887Y003658D02*
X009887Y003525D01*
X009887Y003592D02*
X010087Y003592D01*
X010020Y003525D01*
X010053Y003428D02*
X010087Y003395D01*
X010087Y003328D01*
X010053Y003295D01*
X009920Y003295D01*
X009887Y003328D01*
X009887Y003395D01*
X009920Y003428D01*
X009987Y003198D02*
X009953Y003165D01*
X009953Y003065D01*
X009887Y003065D02*
X010087Y003065D01*
X010087Y003165D01*
X010053Y003198D01*
X009987Y003198D01*
X010887Y003328D02*
X010887Y003395D01*
X010920Y003428D01*
X010887Y003525D02*
X010887Y003658D01*
X010887Y003592D02*
X011087Y003592D01*
X011020Y003525D01*
X011053Y003428D02*
X011087Y003395D01*
X011087Y003328D01*
X011053Y003295D01*
X010920Y003295D01*
X010887Y003328D01*
X010987Y003198D02*
X010953Y003165D01*
X010953Y003065D01*
X010887Y003065D02*
X011087Y003065D01*
X011087Y003165D01*
X011053Y003198D01*
X010987Y003198D01*
X010987Y003755D02*
X011020Y003822D01*
X011020Y003855D01*
X010987Y003889D01*
X010920Y003889D01*
X010887Y003855D01*
X010887Y003789D01*
X010920Y003755D01*
X010987Y003755D02*
X011087Y003755D01*
X011087Y003889D01*
X011637Y003881D02*
X011837Y003881D01*
X011837Y003815D02*
X011837Y003948D01*
X011837Y004045D02*
X011837Y004112D01*
X011837Y004078D02*
X011637Y004078D01*
X011637Y004045D02*
X011637Y004112D01*
X011637Y004198D02*
X011837Y004198D01*
X011770Y004265D01*
X011837Y004332D01*
X011637Y004332D01*
X011637Y004428D02*
X011770Y004562D01*
X011803Y004562D01*
X011837Y004529D01*
X011837Y004462D01*
X011803Y004428D01*
X011637Y004428D02*
X011637Y004562D01*
X011603Y004659D02*
X011603Y004792D01*
X011670Y004889D02*
X011637Y004922D01*
X011637Y004989D01*
X011670Y005022D01*
X011637Y005119D02*
X011837Y005119D01*
X011737Y005119D02*
X011737Y005252D01*
X011737Y005349D02*
X011737Y005483D01*
X011837Y005449D02*
X011737Y005349D01*
X011837Y005252D02*
X011637Y005252D01*
X011637Y005449D02*
X011837Y005449D01*
X011803Y005022D02*
X011837Y004989D01*
X011837Y004922D01*
X011803Y004889D01*
X011670Y004889D01*
X012012Y004605D02*
X012012Y004539D01*
X012045Y004505D01*
X012178Y004639D01*
X012045Y004639D01*
X012012Y004605D01*
X012045Y004505D02*
X012178Y004505D01*
X012212Y004539D01*
X012212Y004605D01*
X012178Y004639D01*
X012012Y004408D02*
X012012Y004275D01*
X012012Y004342D02*
X012212Y004342D01*
X012145Y004275D01*
X012145Y004178D02*
X012112Y004145D01*
X012112Y004045D01*
X012112Y003948D02*
X012078Y003915D01*
X012078Y003815D01*
X012012Y003815D02*
X012212Y003815D01*
X012212Y003915D01*
X012178Y003948D01*
X012112Y003948D01*
X012012Y004045D02*
X012212Y004045D01*
X012212Y004145D01*
X012178Y004178D01*
X012145Y004178D01*
X012112Y004145D02*
X012078Y004178D01*
X012045Y004178D01*
X012012Y004145D01*
X012012Y004045D01*
X012387Y004078D02*
X012420Y004045D01*
X012487Y004045D01*
X012520Y004078D01*
X012520Y004145D01*
X012487Y004178D01*
X012420Y004178D01*
X012387Y004145D01*
X012387Y004078D01*
X012387Y003948D02*
X012520Y003815D01*
X012387Y003815D02*
X012520Y003948D01*
X012520Y004275D02*
X012387Y004275D01*
X012453Y004275D02*
X012520Y004342D01*
X012520Y004375D01*
X014887Y003889D02*
X014887Y003755D01*
X015020Y003889D01*
X015053Y003889D01*
X015087Y003855D01*
X015087Y003789D01*
X015053Y003755D01*
X015087Y003592D02*
X014887Y003592D01*
X014887Y003658D02*
X014887Y003525D01*
X014920Y003428D02*
X014887Y003395D01*
X014887Y003295D01*
X015087Y003295D01*
X015087Y003395D01*
X015053Y003428D01*
X015020Y003428D01*
X014987Y003395D01*
X014987Y003295D01*
X014987Y003198D02*
X014953Y003165D01*
X014953Y003065D01*
X014887Y003065D02*
X015087Y003065D01*
X015087Y003165D01*
X015053Y003198D01*
X014987Y003198D01*
X014987Y003395D02*
X014953Y003428D01*
X014920Y003428D01*
X015020Y003525D02*
X015087Y003592D01*
X015887Y003558D02*
X015887Y003625D01*
X015920Y003658D01*
X016053Y003658D01*
X016087Y003625D01*
X016087Y003558D01*
X016053Y003525D01*
X016020Y003525D01*
X015987Y003558D01*
X015987Y003658D01*
X015887Y003558D02*
X015920Y003525D01*
X015920Y003428D02*
X015887Y003395D01*
X015887Y003328D01*
X015920Y003295D01*
X016053Y003295D01*
X016087Y003328D01*
X016087Y003395D01*
X016053Y003428D01*
X016053Y003198D02*
X015987Y003198D01*
X015953Y003165D01*
X015953Y003065D01*
X015887Y003065D02*
X016087Y003065D01*
X016087Y003165D01*
X016053Y003198D01*
X016478Y003159D02*
X016478Y003292D01*
X016545Y003389D02*
X016512Y003422D01*
X016512Y003489D01*
X016545Y003522D01*
X016512Y003619D02*
X016712Y003619D01*
X016612Y003619D02*
X016612Y003752D01*
X016712Y003752D02*
X016512Y003752D01*
X016545Y003849D02*
X016512Y003883D01*
X016512Y003949D01*
X016545Y003983D01*
X016578Y003983D01*
X016612Y003949D01*
X016612Y003916D01*
X016612Y003949D02*
X016645Y003983D01*
X016678Y003983D01*
X016712Y003949D01*
X016712Y003883D01*
X016678Y003849D01*
X016887Y003822D02*
X017087Y003822D01*
X017020Y003755D01*
X016887Y003755D02*
X016887Y003889D01*
X016887Y003658D02*
X016887Y003525D01*
X016887Y003592D02*
X017087Y003592D01*
X017020Y003525D01*
X017020Y003428D02*
X016987Y003395D01*
X016987Y003295D01*
X016987Y003198D02*
X016953Y003165D01*
X016953Y003065D01*
X016887Y003065D02*
X017087Y003065D01*
X017087Y003165D01*
X017053Y003198D01*
X016987Y003198D01*
X016887Y003295D02*
X017087Y003295D01*
X017087Y003395D01*
X017053Y003428D01*
X017020Y003428D01*
X016987Y003395D02*
X016953Y003428D01*
X016920Y003428D01*
X016887Y003395D01*
X016887Y003295D01*
X016712Y003422D02*
X016678Y003389D01*
X016545Y003389D01*
X016712Y003422D02*
X016712Y003489D01*
X016678Y003522D01*
X016678Y003062D02*
X016712Y003029D01*
X016712Y002962D01*
X016678Y002928D01*
X016712Y002832D02*
X016512Y002832D01*
X016512Y002928D02*
X016645Y003062D01*
X016678Y003062D01*
X016512Y003062D02*
X016512Y002928D01*
X016645Y002765D02*
X016712Y002832D01*
X016645Y002765D02*
X016712Y002698D01*
X016512Y002698D01*
X016512Y002612D02*
X016512Y002545D01*
X016512Y002578D02*
X016712Y002578D01*
X016712Y002545D02*
X016712Y002612D01*
X016712Y002448D02*
X016712Y002315D01*
X016712Y002381D02*
X016512Y002381D01*
X017262Y003065D02*
X017395Y003198D01*
X017362Y003295D02*
X017295Y003295D01*
X017262Y003328D01*
X017262Y003395D01*
X017295Y003428D01*
X017362Y003428D01*
X017395Y003395D01*
X017395Y003328D01*
X017362Y003295D01*
X017262Y003198D02*
X017395Y003065D01*
X017395Y003525D02*
X017262Y003525D01*
X017328Y003525D02*
X017395Y003592D01*
X017395Y003625D01*
D13*
X011707Y010120D03*
X010297Y007650D03*
X010287Y006210D03*
D14*
X010292Y006220D03*
X010292Y007640D03*
X011712Y012540D03*
X011262Y012740D03*
X010002Y015620D03*
D15*
X010002Y015630D03*
X010862Y015550D03*
X011262Y012760D03*
X010792Y007830D03*
X010292Y007630D03*
X010292Y006230D03*
D16*
X010292Y006240D03*
X011712Y007600D03*
X011262Y012770D03*
X010852Y013130D03*
X010852Y013140D03*
X010852Y013150D03*
X010852Y013160D03*
X010852Y013170D03*
X010852Y013180D03*
X010852Y013190D03*
X010852Y013200D03*
X010852Y013210D03*
X010852Y013220D03*
X010852Y013230D03*
X010852Y013240D03*
X010852Y013250D03*
X010842Y013310D03*
X010842Y013320D03*
X010842Y013330D03*
X010832Y013370D03*
X010832Y013380D03*
X010822Y013420D03*
X010822Y013430D03*
X010812Y013450D03*
X010812Y013460D03*
X010802Y013480D03*
X010802Y013490D03*
X010302Y013360D03*
X010272Y013300D03*
X010002Y015640D03*
D17*
X011707Y006240D03*
D18*
X010297Y006250D03*
X010297Y007610D03*
X011697Y010150D03*
X011697Y012520D03*
X010827Y013010D03*
X010827Y013020D03*
X010387Y013460D03*
X010237Y013140D03*
X010237Y013130D03*
X010237Y013120D03*
X010237Y013110D03*
X010237Y013100D03*
D19*
X011262Y012750D03*
X011712Y006250D03*
D20*
X010297Y006260D03*
X010537Y012640D03*
X010807Y012970D03*
X011267Y012810D03*
X010417Y013480D03*
X010247Y013050D03*
X010247Y013040D03*
X010247Y013030D03*
X011187Y014450D03*
X011197Y014460D03*
X011207Y014470D03*
X011277Y014550D03*
X011287Y014570D03*
X011297Y014590D03*
X011297Y014600D03*
X011307Y014610D03*
X011307Y014620D03*
X011337Y016160D03*
X011337Y016170D03*
X011337Y016180D03*
X011337Y016190D03*
X011337Y016200D03*
X011337Y016210D03*
X011337Y016220D03*
X011337Y016230D03*
X011327Y016250D03*
X011327Y016260D03*
X011327Y016270D03*
X011327Y016280D03*
X011317Y016300D03*
X011317Y016310D03*
X011307Y016340D03*
X011297Y016360D03*
X011287Y016380D03*
X011277Y016400D03*
X011257Y016430D03*
X011247Y016440D03*
X011237Y016460D03*
X011227Y016470D03*
X011217Y016480D03*
X011207Y016490D03*
X011197Y016500D03*
X010547Y016510D03*
X010537Y016500D03*
X010527Y016490D03*
X010517Y016480D03*
X010507Y016470D03*
X010497Y016460D03*
X010487Y016450D03*
X010477Y016440D03*
X010467Y016420D03*
X010457Y016410D03*
X010447Y016390D03*
X010437Y016370D03*
X010427Y016350D03*
X010417Y016330D03*
X010417Y016320D03*
X010407Y016310D03*
X010407Y016300D03*
X010407Y016290D03*
X010397Y016260D03*
X010397Y016250D03*
X009897Y016080D03*
X009897Y016070D03*
X009897Y016060D03*
D21*
X010807Y013470D03*
X010817Y013440D03*
X010827Y013410D03*
X010827Y013400D03*
X010827Y013390D03*
X010837Y013360D03*
X010837Y013350D03*
X010837Y013340D03*
X010847Y013300D03*
X010847Y013290D03*
X010847Y013280D03*
X010847Y013270D03*
X010847Y013260D03*
X011707Y012530D03*
X011697Y010140D03*
X011707Y006260D03*
D22*
X011707Y007570D03*
X011327Y008400D03*
X011327Y008410D03*
X011327Y008420D03*
X011327Y008430D03*
X011327Y008440D03*
X011337Y008460D03*
X011337Y008470D03*
X011337Y008480D03*
X011337Y008490D03*
X011337Y008500D03*
X011337Y008510D03*
X011337Y008520D03*
X011337Y008530D03*
X011337Y008540D03*
X011327Y008550D03*
X011327Y008560D03*
X011327Y008570D03*
X011327Y008580D03*
X011327Y008590D03*
X010277Y008630D03*
X010267Y008600D03*
X010267Y008590D03*
X010267Y008580D03*
X010267Y008570D03*
X010267Y008560D03*
X010257Y008540D03*
X010257Y008530D03*
X010257Y008520D03*
X010257Y008510D03*
X010257Y008500D03*
X010257Y008490D03*
X010257Y008480D03*
X010257Y008470D03*
X010257Y008460D03*
X010267Y008440D03*
X010267Y008430D03*
X010267Y008420D03*
X010267Y008410D03*
X011687Y010160D03*
X011267Y012840D03*
X011267Y012850D03*
X011267Y012860D03*
X011277Y012880D03*
X011277Y012890D03*
X011287Y012920D03*
X011287Y012930D03*
X011297Y012940D03*
X011297Y012950D03*
X011297Y012960D03*
X011297Y012970D03*
X011307Y012980D03*
X011307Y012990D03*
X011307Y013000D03*
X011307Y013010D03*
X011317Y013040D03*
X011317Y013050D03*
X011317Y013060D03*
X011317Y013070D03*
X011317Y013080D03*
X011327Y013130D03*
X011327Y013140D03*
X011327Y013150D03*
X011327Y013160D03*
X011327Y013170D03*
X011327Y013180D03*
X011327Y013190D03*
X011327Y013200D03*
X011327Y013210D03*
X011327Y013220D03*
X011327Y013230D03*
X011327Y013240D03*
X010797Y012950D03*
X010267Y012980D03*
X011147Y014430D03*
X011327Y014700D03*
X011327Y014710D03*
X011327Y014720D03*
X011327Y014730D03*
X011327Y016070D03*
X011337Y016100D03*
X011337Y016110D03*
X011337Y016120D03*
X011337Y016130D03*
X011337Y016140D03*
X011157Y016530D03*
X010577Y016530D03*
X010387Y016180D03*
X010387Y016170D03*
X010387Y016160D03*
X010387Y016150D03*
X010387Y016140D03*
X010387Y016130D03*
X009917Y015950D03*
X009927Y015920D03*
X009927Y015910D03*
X009927Y015900D03*
X009937Y015890D03*
X009937Y015880D03*
X009937Y015870D03*
X009947Y015860D03*
X009947Y015850D03*
X009957Y015830D03*
X009997Y015720D03*
X009997Y015710D03*
X009897Y016260D03*
X009907Y016310D03*
X009907Y016320D03*
X009907Y016330D03*
X009907Y016340D03*
X009917Y016360D03*
X010297Y006270D03*
D23*
X010297Y007620D03*
X011707Y006270D03*
X010837Y013050D03*
X010847Y013080D03*
X010847Y013090D03*
X010847Y013100D03*
X010847Y013110D03*
X010847Y013120D03*
X010357Y013430D03*
X010347Y013420D03*
X010337Y013410D03*
X010327Y013400D03*
X010317Y013390D03*
X010317Y013380D03*
X010307Y013370D03*
X010297Y013350D03*
X010287Y013340D03*
X010287Y013330D03*
X010277Y013320D03*
X010277Y013310D03*
X010267Y013290D03*
X010267Y013280D03*
X010257Y013260D03*
X010257Y013250D03*
X010247Y013220D03*
X010247Y013210D03*
X009997Y015650D03*
D24*
X009987Y015750D03*
X009977Y015780D03*
X010407Y016040D03*
X010407Y016050D03*
X010397Y016060D03*
X010397Y016070D03*
X010397Y016080D03*
X010607Y016550D03*
X009937Y016420D03*
X009937Y016410D03*
X009927Y016400D03*
X009927Y016390D03*
X011307Y016000D03*
X011317Y016020D03*
X011317Y016030D03*
X011327Y014780D03*
X011327Y014770D03*
X011127Y014420D03*
X011297Y013370D03*
X011307Y013350D03*
X011307Y013340D03*
X011307Y013330D03*
X010777Y012930D03*
X010277Y012960D03*
X010297Y008700D03*
X010297Y008690D03*
X010287Y008670D03*
X010287Y008340D03*
X010287Y008330D03*
X010297Y008310D03*
X010307Y007580D03*
X011297Y008300D03*
X011297Y008310D03*
X011307Y008330D03*
X011317Y008630D03*
X011307Y008660D03*
X011307Y008670D03*
X011297Y008680D03*
X011297Y008690D03*
X011697Y006310D03*
X010307Y006280D03*
D25*
X011702Y006280D03*
X011712Y007580D03*
X011262Y012790D03*
X011262Y012800D03*
X010822Y012990D03*
X010822Y013000D03*
X010812Y012980D03*
X010402Y013470D03*
X010242Y013090D03*
X010242Y013080D03*
X010242Y013070D03*
X010242Y013060D03*
X011222Y014480D03*
X011232Y014490D03*
X011242Y014500D03*
X011252Y014510D03*
X011252Y014520D03*
X011262Y014530D03*
X011272Y014540D03*
X011282Y014560D03*
X011292Y014580D03*
X011332Y016240D03*
X011322Y016290D03*
X011312Y016320D03*
X011312Y016330D03*
X011302Y016350D03*
X011292Y016370D03*
X011282Y016390D03*
X011272Y016410D03*
X011262Y016420D03*
X011242Y016450D03*
X010472Y016430D03*
X010452Y016400D03*
X010442Y016380D03*
X010432Y016360D03*
X010422Y016340D03*
X010002Y015680D03*
X010002Y015670D03*
D26*
X010417Y016000D03*
X010417Y016010D03*
X010427Y015990D03*
X010867Y015560D03*
X011297Y015980D03*
X011317Y014830D03*
X011317Y014820D03*
X011287Y013390D03*
X010767Y012920D03*
X010537Y012650D03*
X010297Y012930D03*
X011677Y010170D03*
X011277Y008730D03*
X011287Y008710D03*
X011277Y008260D03*
X011267Y008250D03*
X011697Y007540D03*
X010307Y007570D03*
X010317Y008270D03*
X010307Y008290D03*
X010317Y008730D03*
X010317Y008740D03*
X010327Y008750D03*
X010307Y006290D03*
X009947Y016440D03*
X009957Y016460D03*
D27*
X009902Y016300D03*
X009902Y016290D03*
X009902Y016280D03*
X009902Y016270D03*
X009892Y016250D03*
X009892Y016240D03*
X009892Y016230D03*
X009892Y016220D03*
X009892Y016210D03*
X009892Y016200D03*
X009892Y016190D03*
X009892Y016180D03*
X009892Y016170D03*
X009892Y016160D03*
X009892Y016150D03*
X009892Y016140D03*
X009892Y016130D03*
X009892Y016120D03*
X009892Y016110D03*
X009892Y016100D03*
X009892Y016090D03*
X009902Y016050D03*
X009902Y016040D03*
X009902Y016030D03*
X009902Y016020D03*
X009902Y016010D03*
X009902Y016000D03*
X009912Y015990D03*
X009912Y015980D03*
X009912Y015970D03*
X009912Y015960D03*
X009922Y015940D03*
X009922Y015930D03*
X010002Y015700D03*
X010002Y015690D03*
X010392Y016190D03*
X010392Y016200D03*
X010392Y016210D03*
X010392Y016220D03*
X010392Y016230D03*
X010392Y016240D03*
X010402Y016270D03*
X010402Y016280D03*
X010562Y016520D03*
X011172Y016520D03*
X011182Y016510D03*
X011342Y016150D03*
X011322Y014690D03*
X011322Y014680D03*
X011322Y014670D03*
X011322Y014660D03*
X011312Y014650D03*
X011312Y014640D03*
X011312Y014630D03*
X011172Y014440D03*
X011322Y013120D03*
X011322Y013110D03*
X011322Y013100D03*
X011322Y013090D03*
X011312Y013030D03*
X011312Y013020D03*
X011262Y012830D03*
X011262Y012820D03*
X010802Y012960D03*
X010262Y012990D03*
X010262Y013000D03*
X010252Y013010D03*
X010252Y013020D03*
X011692Y012510D03*
X011332Y008450D03*
X010302Y007600D03*
X010262Y008550D03*
X011702Y006290D03*
D28*
X011692Y006320D03*
X010312Y006300D03*
X010332Y008250D03*
X010322Y008260D03*
X010332Y008760D03*
X010342Y008770D03*
X011262Y008750D03*
X011272Y008740D03*
X011262Y008240D03*
X011252Y008230D03*
X011282Y013400D03*
X011282Y013410D03*
X011272Y013420D03*
X010412Y013490D03*
X011102Y014410D03*
X011312Y014840D03*
X011312Y014850D03*
X011302Y014860D03*
X011282Y015950D03*
X011292Y015960D03*
X011292Y015970D03*
X011102Y016560D03*
X010632Y016560D03*
X010432Y015980D03*
X010432Y015970D03*
X009962Y016470D03*
X009972Y016480D03*
D29*
X009922Y016380D03*
X009922Y016370D03*
X009912Y016350D03*
X009952Y015840D03*
X009962Y015820D03*
X009962Y015810D03*
X009972Y015800D03*
X009972Y015790D03*
X009982Y015770D03*
X009982Y015760D03*
X009992Y015740D03*
X009992Y015730D03*
X010392Y016090D03*
X010392Y016100D03*
X010392Y016110D03*
X010392Y016120D03*
X010592Y016540D03*
X011142Y016540D03*
X011332Y016090D03*
X011332Y016080D03*
X011322Y016060D03*
X011322Y016050D03*
X011322Y016040D03*
X011322Y014760D03*
X011322Y014750D03*
X011322Y014740D03*
X011312Y013320D03*
X011312Y013310D03*
X011312Y013300D03*
X011322Y013290D03*
X011322Y013280D03*
X011322Y013270D03*
X011322Y013260D03*
X011322Y013250D03*
X011282Y012910D03*
X011282Y012900D03*
X011272Y012870D03*
X010792Y012940D03*
X010272Y012970D03*
X010292Y008680D03*
X010282Y008660D03*
X010282Y008650D03*
X010282Y008640D03*
X010272Y008620D03*
X010272Y008610D03*
X010262Y008450D03*
X010272Y008400D03*
X010272Y008390D03*
X010272Y008380D03*
X010272Y008370D03*
X010282Y008360D03*
X010282Y008350D03*
X010302Y007590D03*
X011302Y008320D03*
X011312Y008340D03*
X011312Y008350D03*
X011312Y008360D03*
X011322Y008370D03*
X011322Y008380D03*
X011322Y008390D03*
X011322Y008600D03*
X011322Y008610D03*
X011322Y008620D03*
X011312Y008640D03*
X011312Y008650D03*
X011702Y007560D03*
X011702Y006300D03*
D30*
X011682Y006340D03*
X010312Y006310D03*
X010322Y007550D03*
X010352Y008220D03*
X010342Y008230D03*
X011242Y008210D03*
X011252Y008770D03*
X011242Y008780D03*
X011662Y010180D03*
X010752Y012910D03*
X011292Y014880D03*
X011262Y015920D03*
X011272Y015930D03*
X010452Y015940D03*
X009982Y016490D03*
D31*
X010472Y015910D03*
X011252Y015900D03*
X011282Y014900D03*
X011252Y013450D03*
X010322Y012910D03*
X010382Y008820D03*
X010372Y008810D03*
X011222Y008800D03*
X011222Y008190D03*
X011212Y008180D03*
X011682Y007510D03*
X011682Y006350D03*
X010322Y006320D03*
X010322Y007540D03*
D32*
X010327Y007530D03*
X010387Y008180D03*
X010377Y008190D03*
X011207Y008820D03*
X011217Y008810D03*
X011677Y007500D03*
X010327Y006330D03*
X011657Y010190D03*
X011657Y012480D03*
X011237Y013460D03*
X010537Y012660D03*
X010477Y015900D03*
X010007Y016520D03*
X011237Y015890D03*
D33*
X011277Y015940D03*
X010447Y015950D03*
X010437Y015960D03*
X011297Y014870D03*
X011267Y013430D03*
X011667Y012490D03*
X010307Y012920D03*
X010357Y008790D03*
X010347Y008780D03*
X010337Y008240D03*
X010317Y007560D03*
X011247Y008220D03*
X011257Y008760D03*
X011687Y007530D03*
X011687Y006330D03*
D34*
X011672Y006360D03*
X010332Y006340D03*
X010792Y007850D03*
X011202Y008170D03*
X010392Y008830D03*
X010802Y009150D03*
X011272Y014910D03*
X010492Y015890D03*
D35*
X010497Y015880D03*
X010867Y015570D03*
X011227Y015880D03*
X011267Y014920D03*
X011227Y013470D03*
X010017Y016530D03*
X010407Y008840D03*
X010397Y008170D03*
X010337Y007520D03*
X011187Y008160D03*
X011197Y008830D03*
X011667Y007490D03*
X011667Y006370D03*
X010337Y006350D03*
D36*
X010347Y006360D03*
X010347Y007500D03*
X011647Y007460D03*
X011657Y007470D03*
X011657Y006390D03*
X011647Y012470D03*
X010537Y012670D03*
D37*
X011212Y013480D03*
X011242Y014940D03*
X011202Y015860D03*
X011172Y008850D03*
X010422Y008150D03*
X010352Y007490D03*
X010362Y006380D03*
X010352Y006370D03*
D38*
X010342Y007510D03*
X010412Y008160D03*
X010422Y008850D03*
X011182Y008840D03*
X011172Y008150D03*
X011662Y007480D03*
X011662Y006380D03*
X011642Y010200D03*
X011252Y014930D03*
X011212Y015870D03*
X010512Y015870D03*
X010032Y016540D03*
D39*
X010527Y015860D03*
X011187Y015850D03*
X011637Y012460D03*
X010437Y008860D03*
X010437Y008140D03*
X011157Y008140D03*
X011637Y007450D03*
X011647Y006400D03*
X010367Y006390D03*
D40*
X010372Y006400D03*
X010362Y007480D03*
X011622Y007430D03*
X011632Y007440D03*
X011632Y006420D03*
X011642Y006410D03*
X011152Y008860D03*
X011632Y010210D03*
X010532Y012680D03*
X010542Y015850D03*
X010052Y016550D03*
D41*
X011227Y014950D03*
X010797Y009140D03*
X010457Y008870D03*
X011137Y008130D03*
X010797Y007860D03*
X010377Y007460D03*
X010367Y007470D03*
X011017Y006930D03*
X011617Y007420D03*
X011627Y006430D03*
X010387Y006410D03*
D42*
X010392Y006420D03*
X010402Y006430D03*
X010412Y006440D03*
X010662Y006640D03*
X010702Y006670D03*
X010712Y006680D03*
X010722Y006690D03*
X010752Y006710D03*
X010762Y006720D03*
X010772Y006730D03*
X010792Y006740D03*
X011022Y006920D03*
X011012Y006940D03*
X011242Y007120D03*
X011262Y007130D03*
X011272Y007140D03*
X011282Y007150D03*
X011312Y007170D03*
X011322Y007180D03*
X011332Y007190D03*
X011362Y007210D03*
X011372Y007220D03*
X011412Y007250D03*
X011602Y007410D03*
X010382Y007450D03*
X011132Y008870D03*
X011622Y012450D03*
X010862Y015580D03*
D43*
X010077Y016560D03*
X010537Y012690D03*
X010367Y010800D03*
X011617Y010220D03*
X010457Y008130D03*
X010397Y007440D03*
X010737Y006700D03*
X010687Y006660D03*
X010677Y006650D03*
X010647Y006630D03*
X010637Y006620D03*
X010627Y006610D03*
X010607Y006600D03*
X010597Y006590D03*
X010587Y006580D03*
X010577Y006570D03*
X010557Y006560D03*
X010547Y006550D03*
X010537Y006540D03*
X010507Y006520D03*
X010497Y006510D03*
X010457Y006480D03*
X010447Y006470D03*
X010437Y006460D03*
X010427Y006450D03*
X011277Y006720D03*
X011297Y007160D03*
X011347Y007200D03*
X011387Y007230D03*
X011397Y007240D03*
X011427Y007260D03*
X011437Y007270D03*
X011447Y007280D03*
X011467Y007290D03*
X011477Y007300D03*
X011487Y007310D03*
X011497Y007320D03*
X011517Y007330D03*
X011527Y007340D03*
X011537Y007350D03*
X011577Y007380D03*
X011587Y007390D03*
X011597Y007400D03*
X011607Y006450D03*
X011617Y006440D03*
D44*
X011602Y006460D03*
X011592Y006470D03*
X011482Y006560D03*
X011442Y006590D03*
X011432Y006600D03*
X011402Y006620D03*
X011392Y006630D03*
X011382Y006640D03*
X011352Y006660D03*
X011342Y006670D03*
X011332Y006680D03*
X011312Y006690D03*
X011302Y006700D03*
X011292Y006710D03*
X011262Y006730D03*
X011252Y006740D03*
X011022Y006910D03*
X011012Y006950D03*
X010782Y007120D03*
X010772Y007130D03*
X010762Y007140D03*
X010752Y007150D03*
X010732Y007160D03*
X010722Y007170D03*
X010712Y007180D03*
X010682Y007200D03*
X010672Y007210D03*
X010632Y007240D03*
X010622Y007250D03*
X010582Y007280D03*
X010412Y007420D03*
X010402Y007430D03*
X010522Y006530D03*
X010482Y006500D03*
X010472Y006490D03*
X011552Y007360D03*
X011562Y007370D03*
X010372Y011880D03*
X011172Y013490D03*
X011162Y015840D03*
X011102Y016570D03*
D45*
X010567Y015840D03*
X010377Y011870D03*
X010417Y007410D03*
X010457Y007380D03*
X010467Y007370D03*
X010507Y007340D03*
X010517Y007330D03*
X010547Y007310D03*
X010557Y007300D03*
X010567Y007290D03*
X010597Y007270D03*
X010607Y007260D03*
X010647Y007230D03*
X010657Y007220D03*
X010697Y007190D03*
X011367Y006650D03*
X011417Y006610D03*
X011457Y006580D03*
X011467Y006570D03*
X011497Y006550D03*
X011507Y006540D03*
X011517Y006530D03*
X011547Y006510D03*
X011557Y006500D03*
X011567Y006490D03*
X011577Y006480D03*
D46*
X011532Y006520D03*
X010532Y007320D03*
X010492Y007350D03*
X010482Y007360D03*
X010442Y007390D03*
X010432Y007400D03*
X010792Y007870D03*
X011112Y008120D03*
X010482Y008120D03*
X010482Y008880D03*
X011602Y010230D03*
X010382Y010790D03*
X010382Y010810D03*
X011612Y012440D03*
X010532Y012700D03*
X011202Y014960D03*
D47*
X010862Y015720D03*
X011132Y010470D03*
X011162Y010460D03*
X011192Y010450D03*
X011222Y010440D03*
X011252Y010430D03*
X011332Y010400D03*
X010802Y009010D03*
X010792Y007990D03*
X011012Y007110D03*
X011022Y006750D03*
D48*
X011022Y006760D03*
X011012Y007100D03*
X010792Y007980D03*
X010802Y009020D03*
X010852Y010570D03*
X010822Y010580D03*
X010792Y010590D03*
X010762Y010600D03*
X010732Y010610D03*
X011192Y011540D03*
X011222Y011530D03*
X011252Y011520D03*
X011282Y011510D03*
X011312Y011500D03*
X011332Y011490D03*
X011212Y012230D03*
X011242Y012240D03*
X011272Y012250D03*
X011302Y012260D03*
X011332Y012270D03*
X011352Y012280D03*
X010862Y015710D03*
D49*
X010647Y013760D03*
X010787Y012080D03*
X010757Y012070D03*
X010727Y012060D03*
X010697Y012050D03*
X010657Y011720D03*
X010937Y011050D03*
X010967Y011060D03*
X010997Y011070D03*
X011027Y011080D03*
X011057Y011090D03*
X011087Y011100D03*
X011117Y011110D03*
X011147Y011120D03*
X011177Y011130D03*
X011207Y011140D03*
X011237Y011150D03*
X011267Y011160D03*
X011297Y011170D03*
X011347Y011190D03*
X011377Y011200D03*
X010627Y010650D03*
X010797Y009030D03*
X011007Y007090D03*
X011027Y006770D03*
D50*
X011022Y006780D03*
X011012Y007080D03*
X011432Y010350D03*
X010622Y010940D03*
X011422Y011450D03*
X011412Y012310D03*
X010622Y012020D03*
X010862Y015680D03*
D51*
X011432Y012320D03*
X011442Y011440D03*
X010802Y009050D03*
X010792Y007950D03*
X011012Y007070D03*
X011022Y006790D03*
D52*
X011027Y006800D03*
X011007Y007060D03*
X010797Y009060D03*
X010547Y010690D03*
X010557Y010910D03*
X010547Y011770D03*
X010557Y011990D03*
X011457Y011240D03*
D53*
X011482Y012350D03*
X010532Y012860D03*
X010532Y012870D03*
X010862Y015650D03*
X010802Y009070D03*
X010792Y007930D03*
X011012Y007050D03*
X011022Y006810D03*
D54*
X011022Y006820D03*
X011012Y007040D03*
X011492Y010310D03*
X011492Y011260D03*
X010522Y010890D03*
X010512Y010710D03*
X010512Y011790D03*
X010532Y012840D03*
D55*
X010532Y012820D03*
X010502Y011960D03*
X010492Y011800D03*
X010502Y010880D03*
X010492Y010720D03*
X011512Y010300D03*
X011512Y011270D03*
X011512Y011400D03*
X010862Y015640D03*
X011022Y006830D03*
D56*
X011022Y006840D03*
X010532Y012790D03*
D57*
X010532Y012770D03*
X010462Y011820D03*
X010462Y010740D03*
X011542Y011290D03*
X011542Y012390D03*
X010802Y009100D03*
X010792Y007900D03*
X011012Y007010D03*
X011022Y006850D03*
X010862Y015620D03*
D58*
X010532Y012760D03*
X010452Y011930D03*
X010442Y011830D03*
X010452Y010850D03*
X010442Y010750D03*
X011552Y010270D03*
X011562Y011300D03*
X011562Y011370D03*
X011012Y007000D03*
X011022Y006860D03*
D59*
X011027Y006870D03*
X011007Y006990D03*
X011567Y010260D03*
X011577Y011310D03*
X011577Y011360D03*
X010427Y011840D03*
X010537Y012740D03*
X010427Y010760D03*
D60*
X010412Y010770D03*
X010412Y011850D03*
X011582Y012420D03*
X011582Y010250D03*
X010802Y009120D03*
X010792Y007880D03*
X011012Y006980D03*
X011022Y006880D03*
X010862Y015600D03*
D61*
X010402Y011900D03*
X011602Y011340D03*
X011602Y011330D03*
X011012Y006970D03*
X011022Y006890D03*
D62*
X011027Y006900D03*
X011007Y006960D03*
X011107Y008880D03*
X010797Y009130D03*
X010387Y011890D03*
X010867Y015590D03*
D63*
X011527Y012380D03*
X011527Y011390D03*
X011527Y011280D03*
X011527Y010290D03*
X010477Y010730D03*
X010477Y011810D03*
X011007Y007020D03*
D64*
X011007Y007030D03*
X011507Y012370D03*
X010537Y012810D03*
D65*
X011257Y013440D03*
X011287Y014890D03*
X011257Y015910D03*
X010467Y015920D03*
X010457Y015930D03*
X009987Y016500D03*
X009997Y016510D03*
X010367Y008800D03*
X010357Y008210D03*
X010367Y008200D03*
X011227Y008200D03*
X011237Y008790D03*
X011687Y007520D03*
D66*
X011702Y007550D03*
X011282Y008270D03*
X011282Y008280D03*
X011292Y008290D03*
X011292Y008700D03*
X011282Y008720D03*
X010802Y009160D03*
X010312Y008720D03*
X010302Y008710D03*
X010292Y008320D03*
X010302Y008300D03*
X010312Y008280D03*
X010792Y007840D03*
X011682Y012500D03*
X011302Y013360D03*
X011292Y013380D03*
X010292Y012940D03*
X010282Y012950D03*
X011322Y014790D03*
X011322Y014800D03*
X011322Y014810D03*
X011302Y015990D03*
X011312Y016010D03*
X011122Y016550D03*
X010412Y016030D03*
X010412Y016020D03*
X009942Y016430D03*
X009952Y016450D03*
D67*
X010002Y015660D03*
X010372Y013450D03*
X010362Y013440D03*
X010262Y013270D03*
X010252Y013240D03*
X010252Y013230D03*
X010242Y013200D03*
X010242Y013190D03*
X010242Y013180D03*
X010242Y013170D03*
X010242Y013160D03*
X010242Y013150D03*
X010832Y013040D03*
X010832Y013030D03*
X010842Y013060D03*
X010842Y013070D03*
X011262Y012780D03*
X011712Y007590D03*
D68*
X011717Y007610D03*
X010797Y009170D03*
D69*
X011717Y007620D03*
D70*
X011717Y007630D03*
D71*
X010792Y007890D03*
X010802Y009110D03*
X010432Y010840D03*
X010432Y011920D03*
X010532Y012750D03*
X010862Y015610D03*
D72*
X010862Y015630D03*
X010532Y012800D03*
X010482Y011950D03*
X010482Y010870D03*
X010802Y009090D03*
X010792Y007910D03*
D73*
X010797Y007920D03*
X010797Y009080D03*
X011497Y012360D03*
X010537Y012830D03*
D74*
X011462Y011430D03*
X011462Y010330D03*
X010792Y007940D03*
X010862Y015670D03*
D75*
X010647Y012030D03*
X010607Y011740D03*
X010647Y010950D03*
X010607Y010660D03*
X011397Y011210D03*
X010797Y009040D03*
X010797Y007960D03*
D76*
X010792Y007970D03*
X011392Y010370D03*
X011322Y011180D03*
X011382Y011470D03*
X010922Y011630D03*
X010892Y011640D03*
X010862Y011650D03*
X010832Y011660D03*
X010802Y011670D03*
X010772Y011680D03*
X010742Y011690D03*
X010712Y011700D03*
X010682Y011710D03*
X010812Y012090D03*
X010842Y012100D03*
X010872Y012110D03*
X010902Y012120D03*
X010932Y012130D03*
X010982Y012150D03*
X011012Y012160D03*
X011042Y012170D03*
X011372Y012290D03*
X010652Y010640D03*
X010862Y015700D03*
D77*
X010862Y015730D03*
X010662Y013750D03*
X010802Y009000D03*
X010792Y008000D03*
D78*
X010797Y008010D03*
X010797Y008990D03*
D79*
X010797Y008980D03*
X010797Y008020D03*
D80*
X010792Y008030D03*
X010802Y008970D03*
X010862Y015760D03*
X010862Y015770D03*
D81*
X010862Y015780D03*
X010682Y013730D03*
X010802Y008960D03*
X010792Y008040D03*
D82*
X010792Y008050D03*
X010802Y008950D03*
X010862Y015790D03*
X010862Y015800D03*
X010352Y016570D03*
X010832Y016850D03*
D83*
X010862Y015810D03*
X010702Y015210D03*
X010802Y008940D03*
X010792Y008060D03*
D84*
X010797Y008070D03*
X010797Y008930D03*
D85*
X010797Y008920D03*
X010797Y008080D03*
X010707Y015200D03*
D86*
X010702Y013700D03*
X010802Y008910D03*
X010792Y008090D03*
D87*
X010792Y008100D03*
X010702Y013690D03*
X010712Y015190D03*
D88*
X010797Y008890D03*
X010797Y008110D03*
D89*
X010797Y008900D03*
X010797Y014120D03*
X010797Y014400D03*
D90*
X010537Y012630D03*
X011707Y010130D03*
D91*
X011597Y010240D03*
X010397Y010780D03*
X010397Y010820D03*
X010397Y011860D03*
X010537Y012710D03*
X011597Y012430D03*
D92*
X011547Y011380D03*
X011537Y010280D03*
X010467Y010860D03*
X010467Y011940D03*
X010537Y012780D03*
D93*
X010537Y011980D03*
X010527Y011780D03*
X010537Y010900D03*
X010527Y010700D03*
X011477Y010320D03*
X011477Y011250D03*
X011477Y011420D03*
X010627Y013770D03*
D94*
X011447Y012330D03*
X010577Y012000D03*
X010567Y011760D03*
X010577Y010920D03*
X010567Y010680D03*
X011447Y010340D03*
X011437Y011230D03*
D95*
X011402Y011460D03*
X010912Y011040D03*
X010882Y011030D03*
X010852Y011020D03*
X010822Y011010D03*
X010792Y011000D03*
X010762Y010990D03*
X010732Y010980D03*
X010702Y010970D03*
X010672Y010960D03*
X010632Y011730D03*
X010672Y012040D03*
X011392Y012300D03*
X011412Y010360D03*
X010862Y015690D03*
D96*
X011187Y012220D03*
X011157Y012210D03*
X011127Y012200D03*
X011097Y012190D03*
X011067Y012180D03*
X010957Y012140D03*
X010947Y011620D03*
X010977Y011610D03*
X011007Y011600D03*
X011037Y011590D03*
X011067Y011580D03*
X011097Y011570D03*
X011127Y011560D03*
X011157Y011550D03*
X011357Y011480D03*
X010707Y010620D03*
X010677Y010630D03*
X011377Y010380D03*
D97*
X011357Y010390D03*
X011107Y010480D03*
X011077Y010490D03*
X011047Y010500D03*
X011017Y010510D03*
X010987Y010520D03*
X010967Y010530D03*
X010937Y010540D03*
X010907Y010550D03*
X010877Y010560D03*
D98*
X011277Y010420D03*
X011307Y010410D03*
X010677Y015240D03*
D99*
X010657Y015250D03*
X010597Y012010D03*
X010587Y011750D03*
X010597Y010930D03*
X010587Y010670D03*
X011417Y011220D03*
D100*
X011587Y011320D03*
X011587Y011350D03*
X010417Y010830D03*
X010417Y011910D03*
X010537Y012730D03*
D101*
X010537Y012850D03*
X010517Y011970D03*
X011497Y011410D03*
D102*
X011462Y012340D03*
X010532Y012880D03*
X010532Y012890D03*
X010532Y012900D03*
X010862Y015660D03*
D103*
X011557Y012400D03*
D104*
X011572Y012410D03*
D105*
X011712Y012550D03*
X011262Y012730D03*
D106*
X010537Y012720D03*
D107*
X010812Y013500D03*
X010802Y013510D03*
X010742Y013610D03*
X010742Y015130D03*
D108*
X010747Y015120D03*
X010797Y014370D03*
X010797Y014150D03*
X010747Y013600D03*
X010757Y013590D03*
X010757Y013580D03*
X010787Y013530D03*
X010797Y013520D03*
D109*
X010782Y013540D03*
X010772Y013550D03*
X010772Y013560D03*
X010762Y013570D03*
X010832Y014980D03*
X010752Y015110D03*
D110*
X010737Y015140D03*
X010847Y014970D03*
X010797Y014140D03*
X010737Y013620D03*
X010787Y016830D03*
D111*
X010792Y014380D03*
X010732Y013630D03*
D112*
X010727Y013640D03*
X010737Y015150D03*
D113*
X010732Y015160D03*
X010722Y013650D03*
D114*
X010717Y013660D03*
X010797Y014130D03*
X010797Y014390D03*
D115*
X010717Y013670D03*
X010807Y016840D03*
D116*
X010722Y015180D03*
X010712Y013680D03*
D117*
X010692Y013710D03*
X010862Y015820D03*
X010862Y015830D03*
D118*
X010687Y013720D03*
D119*
X010672Y013740D03*
X010682Y015230D03*
X010862Y015750D03*
D120*
X010757Y015100D03*
X010817Y014990D03*
X010797Y014360D03*
X010797Y014160D03*
D121*
X010797Y014170D03*
X010797Y014350D03*
X010807Y015010D03*
X010797Y015020D03*
X010787Y015040D03*
X010777Y015060D03*
X010767Y015080D03*
X010777Y016820D03*
D122*
X010797Y014330D03*
X010797Y014190D03*
X010797Y014180D03*
D123*
X010797Y014200D03*
X010797Y014210D03*
X010797Y014220D03*
X010797Y014300D03*
X010797Y014310D03*
X010797Y014320D03*
X010767Y016810D03*
D124*
X010797Y014290D03*
X010797Y014280D03*
X010797Y014270D03*
X010797Y014260D03*
X010797Y014250D03*
X010797Y014240D03*
X010797Y014230D03*
D125*
X010792Y014340D03*
X010792Y015030D03*
X010782Y015050D03*
D126*
X010772Y015070D03*
X010762Y015090D03*
X010812Y015000D03*
D127*
X010722Y015170D03*
D128*
X010697Y015220D03*
D129*
X010002Y015610D03*
D130*
X010862Y015740D03*
D131*
X010612Y016580D03*
X010692Y016690D03*
D132*
X010672Y016660D03*
X010662Y016640D03*
X010642Y016610D03*
X010632Y016600D03*
X010622Y016590D03*
D133*
X010647Y016620D03*
X010657Y016630D03*
X010667Y016650D03*
D134*
X010677Y016670D03*
X010687Y016680D03*
D135*
X010697Y016700D03*
D136*
X010702Y016710D03*
D137*
X010707Y016720D03*
D138*
X010712Y016730D03*
D139*
X010722Y016740D03*
D140*
X010722Y016750D03*
D141*
X010732Y016760D03*
D142*
X010737Y016770D03*
D143*
X010742Y016780D03*
D144*
X010747Y016790D03*
D145*
X010762Y016800D03*
M02*
