G75*
G70*
%OFA0B0*%
%FSLAX24Y24*%
%IPPOS*%
%LPD*%
%AMOC8*
5,1,8,0,0,1.08239X$1,22.5*
%
%ADD10C,0.0000*%
D10*
X001487Y000210D02*
X019487Y000210D01*
X019037Y000960D02*
X019039Y001002D01*
X019045Y001044D01*
X019055Y001085D01*
X019068Y001125D01*
X019086Y001163D01*
X019106Y001200D01*
X019131Y001235D01*
X019158Y001267D01*
X019188Y001296D01*
X019221Y001323D01*
X019256Y001346D01*
X019293Y001366D01*
X019332Y001382D01*
X019372Y001395D01*
X019413Y001404D01*
X019455Y001409D01*
X019498Y001410D01*
X019540Y001407D01*
X019581Y001400D01*
X019622Y001389D01*
X019662Y001375D01*
X019700Y001357D01*
X019736Y001335D01*
X019770Y001310D01*
X019801Y001282D01*
X019830Y001251D01*
X019856Y001218D01*
X019878Y001182D01*
X019898Y001144D01*
X019913Y001105D01*
X019925Y001065D01*
X019933Y001023D01*
X019937Y000981D01*
X019937Y000939D01*
X019933Y000897D01*
X019925Y000855D01*
X019913Y000815D01*
X019898Y000776D01*
X019878Y000738D01*
X019856Y000702D01*
X019830Y000669D01*
X019801Y000638D01*
X019770Y000610D01*
X019736Y000585D01*
X019700Y000563D01*
X019662Y000545D01*
X019622Y000531D01*
X019581Y000520D01*
X019540Y000513D01*
X019498Y000510D01*
X019455Y000511D01*
X019413Y000516D01*
X019372Y000525D01*
X019332Y000538D01*
X019293Y000554D01*
X019256Y000574D01*
X019221Y000597D01*
X019188Y000624D01*
X019158Y000653D01*
X019131Y000685D01*
X019106Y000720D01*
X019086Y000757D01*
X019068Y000795D01*
X019055Y000835D01*
X019045Y000876D01*
X019039Y000918D01*
X019037Y000960D01*
X019487Y000210D02*
X019541Y000212D01*
X019594Y000218D01*
X019646Y000227D01*
X019698Y000240D01*
X019749Y000257D01*
X019799Y000278D01*
X019846Y000302D01*
X019892Y000329D01*
X019936Y000360D01*
X019978Y000393D01*
X020017Y000430D01*
X020054Y000469D01*
X020087Y000511D01*
X020118Y000555D01*
X020145Y000601D01*
X020169Y000648D01*
X020190Y000698D01*
X020207Y000749D01*
X020220Y000801D01*
X020229Y000853D01*
X020235Y000906D01*
X020237Y000960D01*
X020237Y001460D01*
X021737Y001460D01*
X021737Y000960D01*
X022037Y000960D02*
X022039Y001002D01*
X022045Y001044D01*
X022055Y001085D01*
X022068Y001125D01*
X022086Y001163D01*
X022106Y001200D01*
X022131Y001235D01*
X022158Y001267D01*
X022188Y001296D01*
X022221Y001323D01*
X022256Y001346D01*
X022293Y001366D01*
X022332Y001382D01*
X022372Y001395D01*
X022413Y001404D01*
X022455Y001409D01*
X022498Y001410D01*
X022540Y001407D01*
X022581Y001400D01*
X022622Y001389D01*
X022662Y001375D01*
X022700Y001357D01*
X022736Y001335D01*
X022770Y001310D01*
X022801Y001282D01*
X022830Y001251D01*
X022856Y001218D01*
X022878Y001182D01*
X022898Y001144D01*
X022913Y001105D01*
X022925Y001065D01*
X022933Y001023D01*
X022937Y000981D01*
X022937Y000939D01*
X022933Y000897D01*
X022925Y000855D01*
X022913Y000815D01*
X022898Y000776D01*
X022878Y000738D01*
X022856Y000702D01*
X022830Y000669D01*
X022801Y000638D01*
X022770Y000610D01*
X022736Y000585D01*
X022700Y000563D01*
X022662Y000545D01*
X022622Y000531D01*
X022581Y000520D01*
X022540Y000513D01*
X022498Y000510D01*
X022455Y000511D01*
X022413Y000516D01*
X022372Y000525D01*
X022332Y000538D01*
X022293Y000554D01*
X022256Y000574D01*
X022221Y000597D01*
X022188Y000624D01*
X022158Y000653D01*
X022131Y000685D01*
X022106Y000720D01*
X022086Y000757D01*
X022068Y000795D01*
X022055Y000835D01*
X022045Y000876D01*
X022039Y000918D01*
X022037Y000960D01*
X021737Y000960D02*
X021739Y000906D01*
X021745Y000853D01*
X021754Y000801D01*
X021767Y000749D01*
X021784Y000698D01*
X021805Y000648D01*
X021829Y000601D01*
X021856Y000555D01*
X021887Y000511D01*
X021920Y000469D01*
X021957Y000430D01*
X021996Y000393D01*
X022038Y000360D01*
X022082Y000329D01*
X022128Y000302D01*
X022175Y000278D01*
X022225Y000257D01*
X022276Y000240D01*
X022328Y000227D01*
X022380Y000218D01*
X022433Y000212D01*
X022487Y000210D01*
X040487Y000210D01*
X040037Y000960D02*
X040039Y001002D01*
X040045Y001044D01*
X040055Y001085D01*
X040068Y001125D01*
X040086Y001163D01*
X040106Y001200D01*
X040131Y001235D01*
X040158Y001267D01*
X040188Y001296D01*
X040221Y001323D01*
X040256Y001346D01*
X040293Y001366D01*
X040332Y001382D01*
X040372Y001395D01*
X040413Y001404D01*
X040455Y001409D01*
X040498Y001410D01*
X040540Y001407D01*
X040581Y001400D01*
X040622Y001389D01*
X040662Y001375D01*
X040700Y001357D01*
X040736Y001335D01*
X040770Y001310D01*
X040801Y001282D01*
X040830Y001251D01*
X040856Y001218D01*
X040878Y001182D01*
X040898Y001144D01*
X040913Y001105D01*
X040925Y001065D01*
X040933Y001023D01*
X040937Y000981D01*
X040937Y000939D01*
X040933Y000897D01*
X040925Y000855D01*
X040913Y000815D01*
X040898Y000776D01*
X040878Y000738D01*
X040856Y000702D01*
X040830Y000669D01*
X040801Y000638D01*
X040770Y000610D01*
X040736Y000585D01*
X040700Y000563D01*
X040662Y000545D01*
X040622Y000531D01*
X040581Y000520D01*
X040540Y000513D01*
X040498Y000510D01*
X040455Y000511D01*
X040413Y000516D01*
X040372Y000525D01*
X040332Y000538D01*
X040293Y000554D01*
X040256Y000574D01*
X040221Y000597D01*
X040188Y000624D01*
X040158Y000653D01*
X040131Y000685D01*
X040106Y000720D01*
X040086Y000757D01*
X040068Y000795D01*
X040055Y000835D01*
X040045Y000876D01*
X040039Y000918D01*
X040037Y000960D01*
X040487Y000210D02*
X040541Y000212D01*
X040594Y000218D01*
X040646Y000227D01*
X040698Y000240D01*
X040749Y000257D01*
X040799Y000278D01*
X040846Y000302D01*
X040892Y000329D01*
X040936Y000360D01*
X040978Y000393D01*
X041017Y000430D01*
X041054Y000469D01*
X041087Y000511D01*
X041118Y000555D01*
X041145Y000601D01*
X041169Y000648D01*
X041190Y000698D01*
X041207Y000749D01*
X041220Y000801D01*
X041229Y000853D01*
X041235Y000906D01*
X041237Y000960D01*
X041237Y018960D01*
X040037Y018960D02*
X040039Y019002D01*
X040045Y019044D01*
X040055Y019085D01*
X040068Y019125D01*
X040086Y019163D01*
X040106Y019200D01*
X040131Y019235D01*
X040158Y019267D01*
X040188Y019296D01*
X040221Y019323D01*
X040256Y019346D01*
X040293Y019366D01*
X040332Y019382D01*
X040372Y019395D01*
X040413Y019404D01*
X040455Y019409D01*
X040498Y019410D01*
X040540Y019407D01*
X040581Y019400D01*
X040622Y019389D01*
X040662Y019375D01*
X040700Y019357D01*
X040736Y019335D01*
X040770Y019310D01*
X040801Y019282D01*
X040830Y019251D01*
X040856Y019218D01*
X040878Y019182D01*
X040898Y019144D01*
X040913Y019105D01*
X040925Y019065D01*
X040933Y019023D01*
X040937Y018981D01*
X040937Y018939D01*
X040933Y018897D01*
X040925Y018855D01*
X040913Y018815D01*
X040898Y018776D01*
X040878Y018738D01*
X040856Y018702D01*
X040830Y018669D01*
X040801Y018638D01*
X040770Y018610D01*
X040736Y018585D01*
X040700Y018563D01*
X040662Y018545D01*
X040622Y018531D01*
X040581Y018520D01*
X040540Y018513D01*
X040498Y018510D01*
X040455Y018511D01*
X040413Y018516D01*
X040372Y018525D01*
X040332Y018538D01*
X040293Y018554D01*
X040256Y018574D01*
X040221Y018597D01*
X040188Y018624D01*
X040158Y018653D01*
X040131Y018685D01*
X040106Y018720D01*
X040086Y018757D01*
X040068Y018795D01*
X040055Y018835D01*
X040045Y018876D01*
X040039Y018918D01*
X040037Y018960D01*
X040487Y019710D02*
X040541Y019708D01*
X040594Y019702D01*
X040646Y019693D01*
X040698Y019680D01*
X040749Y019663D01*
X040799Y019642D01*
X040846Y019618D01*
X040892Y019591D01*
X040936Y019560D01*
X040978Y019527D01*
X041017Y019490D01*
X041054Y019451D01*
X041087Y019409D01*
X041118Y019365D01*
X041145Y019319D01*
X041169Y019272D01*
X041190Y019222D01*
X041207Y019171D01*
X041220Y019119D01*
X041229Y019067D01*
X041235Y019014D01*
X041237Y018960D01*
X040487Y019710D02*
X022487Y019710D01*
X022037Y018960D02*
X022039Y019002D01*
X022045Y019044D01*
X022055Y019085D01*
X022068Y019125D01*
X022086Y019163D01*
X022106Y019200D01*
X022131Y019235D01*
X022158Y019267D01*
X022188Y019296D01*
X022221Y019323D01*
X022256Y019346D01*
X022293Y019366D01*
X022332Y019382D01*
X022372Y019395D01*
X022413Y019404D01*
X022455Y019409D01*
X022498Y019410D01*
X022540Y019407D01*
X022581Y019400D01*
X022622Y019389D01*
X022662Y019375D01*
X022700Y019357D01*
X022736Y019335D01*
X022770Y019310D01*
X022801Y019282D01*
X022830Y019251D01*
X022856Y019218D01*
X022878Y019182D01*
X022898Y019144D01*
X022913Y019105D01*
X022925Y019065D01*
X022933Y019023D01*
X022937Y018981D01*
X022937Y018939D01*
X022933Y018897D01*
X022925Y018855D01*
X022913Y018815D01*
X022898Y018776D01*
X022878Y018738D01*
X022856Y018702D01*
X022830Y018669D01*
X022801Y018638D01*
X022770Y018610D01*
X022736Y018585D01*
X022700Y018563D01*
X022662Y018545D01*
X022622Y018531D01*
X022581Y018520D01*
X022540Y018513D01*
X022498Y018510D01*
X022455Y018511D01*
X022413Y018516D01*
X022372Y018525D01*
X022332Y018538D01*
X022293Y018554D01*
X022256Y018574D01*
X022221Y018597D01*
X022188Y018624D01*
X022158Y018653D01*
X022131Y018685D01*
X022106Y018720D01*
X022086Y018757D01*
X022068Y018795D01*
X022055Y018835D01*
X022045Y018876D01*
X022039Y018918D01*
X022037Y018960D01*
X021737Y018960D02*
X021737Y018460D01*
X020237Y018460D01*
X020237Y018960D01*
X019037Y018960D02*
X019039Y019002D01*
X019045Y019044D01*
X019055Y019085D01*
X019068Y019125D01*
X019086Y019163D01*
X019106Y019200D01*
X019131Y019235D01*
X019158Y019267D01*
X019188Y019296D01*
X019221Y019323D01*
X019256Y019346D01*
X019293Y019366D01*
X019332Y019382D01*
X019372Y019395D01*
X019413Y019404D01*
X019455Y019409D01*
X019498Y019410D01*
X019540Y019407D01*
X019581Y019400D01*
X019622Y019389D01*
X019662Y019375D01*
X019700Y019357D01*
X019736Y019335D01*
X019770Y019310D01*
X019801Y019282D01*
X019830Y019251D01*
X019856Y019218D01*
X019878Y019182D01*
X019898Y019144D01*
X019913Y019105D01*
X019925Y019065D01*
X019933Y019023D01*
X019937Y018981D01*
X019937Y018939D01*
X019933Y018897D01*
X019925Y018855D01*
X019913Y018815D01*
X019898Y018776D01*
X019878Y018738D01*
X019856Y018702D01*
X019830Y018669D01*
X019801Y018638D01*
X019770Y018610D01*
X019736Y018585D01*
X019700Y018563D01*
X019662Y018545D01*
X019622Y018531D01*
X019581Y018520D01*
X019540Y018513D01*
X019498Y018510D01*
X019455Y018511D01*
X019413Y018516D01*
X019372Y018525D01*
X019332Y018538D01*
X019293Y018554D01*
X019256Y018574D01*
X019221Y018597D01*
X019188Y018624D01*
X019158Y018653D01*
X019131Y018685D01*
X019106Y018720D01*
X019086Y018757D01*
X019068Y018795D01*
X019055Y018835D01*
X019045Y018876D01*
X019039Y018918D01*
X019037Y018960D01*
X019487Y019710D02*
X019541Y019708D01*
X019594Y019702D01*
X019646Y019693D01*
X019698Y019680D01*
X019749Y019663D01*
X019799Y019642D01*
X019846Y019618D01*
X019892Y019591D01*
X019936Y019560D01*
X019978Y019527D01*
X020017Y019490D01*
X020054Y019451D01*
X020087Y019409D01*
X020118Y019365D01*
X020145Y019319D01*
X020169Y019272D01*
X020190Y019222D01*
X020207Y019171D01*
X020220Y019119D01*
X020229Y019067D01*
X020235Y019014D01*
X020237Y018960D01*
X020277Y018210D02*
X020279Y018228D01*
X020284Y018245D01*
X020293Y018260D01*
X020305Y018273D01*
X020319Y018284D01*
X020336Y018291D01*
X020353Y018295D01*
X020371Y018295D01*
X020388Y018291D01*
X020404Y018284D01*
X020419Y018273D01*
X020431Y018260D01*
X020440Y018245D01*
X020445Y018228D01*
X020447Y018210D01*
X020445Y018192D01*
X020440Y018175D01*
X020431Y018160D01*
X020419Y018147D01*
X020405Y018136D01*
X020388Y018129D01*
X020371Y018125D01*
X020353Y018125D01*
X020336Y018129D01*
X020320Y018136D01*
X020305Y018147D01*
X020293Y018160D01*
X020284Y018175D01*
X020279Y018192D01*
X020277Y018210D01*
X020277Y017960D02*
X020279Y017978D01*
X020284Y017995D01*
X020293Y018010D01*
X020305Y018023D01*
X020319Y018034D01*
X020336Y018041D01*
X020353Y018045D01*
X020371Y018045D01*
X020388Y018041D01*
X020404Y018034D01*
X020419Y018023D01*
X020431Y018010D01*
X020440Y017995D01*
X020445Y017978D01*
X020447Y017960D01*
X020445Y017942D01*
X020440Y017925D01*
X020431Y017910D01*
X020419Y017897D01*
X020405Y017886D01*
X020388Y017879D01*
X020371Y017875D01*
X020353Y017875D01*
X020336Y017879D01*
X020320Y017886D01*
X020305Y017897D01*
X020293Y017910D01*
X020284Y017925D01*
X020279Y017942D01*
X020277Y017960D01*
X020277Y017710D02*
X020279Y017728D01*
X020284Y017745D01*
X020293Y017760D01*
X020305Y017773D01*
X020319Y017784D01*
X020336Y017791D01*
X020353Y017795D01*
X020371Y017795D01*
X020388Y017791D01*
X020404Y017784D01*
X020419Y017773D01*
X020431Y017760D01*
X020440Y017745D01*
X020445Y017728D01*
X020447Y017710D01*
X020445Y017692D01*
X020440Y017675D01*
X020431Y017660D01*
X020419Y017647D01*
X020405Y017636D01*
X020388Y017629D01*
X020371Y017625D01*
X020353Y017625D01*
X020336Y017629D01*
X020320Y017636D01*
X020305Y017647D01*
X020293Y017660D01*
X020284Y017675D01*
X020279Y017692D01*
X020277Y017710D01*
X020277Y017460D02*
X020279Y017478D01*
X020284Y017495D01*
X020293Y017510D01*
X020305Y017523D01*
X020319Y017534D01*
X020336Y017541D01*
X020353Y017545D01*
X020371Y017545D01*
X020388Y017541D01*
X020404Y017534D01*
X020419Y017523D01*
X020431Y017510D01*
X020440Y017495D01*
X020445Y017478D01*
X020447Y017460D01*
X020445Y017442D01*
X020440Y017425D01*
X020431Y017410D01*
X020419Y017397D01*
X020405Y017386D01*
X020388Y017379D01*
X020371Y017375D01*
X020353Y017375D01*
X020336Y017379D01*
X020320Y017386D01*
X020305Y017397D01*
X020293Y017410D01*
X020284Y017425D01*
X020279Y017442D01*
X020277Y017460D01*
X020277Y017210D02*
X020279Y017228D01*
X020284Y017245D01*
X020293Y017260D01*
X020305Y017273D01*
X020319Y017284D01*
X020336Y017291D01*
X020353Y017295D01*
X020371Y017295D01*
X020388Y017291D01*
X020404Y017284D01*
X020419Y017273D01*
X020431Y017260D01*
X020440Y017245D01*
X020445Y017228D01*
X020447Y017210D01*
X020445Y017192D01*
X020440Y017175D01*
X020431Y017160D01*
X020419Y017147D01*
X020405Y017136D01*
X020388Y017129D01*
X020371Y017125D01*
X020353Y017125D01*
X020336Y017129D01*
X020320Y017136D01*
X020305Y017147D01*
X020293Y017160D01*
X020284Y017175D01*
X020279Y017192D01*
X020277Y017210D01*
X020277Y016960D02*
X020279Y016978D01*
X020284Y016995D01*
X020293Y017010D01*
X020305Y017023D01*
X020319Y017034D01*
X020336Y017041D01*
X020353Y017045D01*
X020371Y017045D01*
X020388Y017041D01*
X020404Y017034D01*
X020419Y017023D01*
X020431Y017010D01*
X020440Y016995D01*
X020445Y016978D01*
X020447Y016960D01*
X020445Y016942D01*
X020440Y016925D01*
X020431Y016910D01*
X020419Y016897D01*
X020405Y016886D01*
X020388Y016879D01*
X020371Y016875D01*
X020353Y016875D01*
X020336Y016879D01*
X020320Y016886D01*
X020305Y016897D01*
X020293Y016910D01*
X020284Y016925D01*
X020279Y016942D01*
X020277Y016960D01*
X020277Y016710D02*
X020279Y016728D01*
X020284Y016745D01*
X020293Y016760D01*
X020305Y016773D01*
X020319Y016784D01*
X020336Y016791D01*
X020353Y016795D01*
X020371Y016795D01*
X020388Y016791D01*
X020404Y016784D01*
X020419Y016773D01*
X020431Y016760D01*
X020440Y016745D01*
X020445Y016728D01*
X020447Y016710D01*
X020445Y016692D01*
X020440Y016675D01*
X020431Y016660D01*
X020419Y016647D01*
X020405Y016636D01*
X020388Y016629D01*
X020371Y016625D01*
X020353Y016625D01*
X020336Y016629D01*
X020320Y016636D01*
X020305Y016647D01*
X020293Y016660D01*
X020284Y016675D01*
X020279Y016692D01*
X020277Y016710D01*
X020237Y016460D02*
X020237Y010960D01*
X021737Y010960D01*
X021737Y016460D01*
X020237Y016460D01*
X021527Y016710D02*
X021529Y016728D01*
X021534Y016745D01*
X021543Y016760D01*
X021555Y016773D01*
X021569Y016784D01*
X021586Y016791D01*
X021603Y016795D01*
X021621Y016795D01*
X021638Y016791D01*
X021654Y016784D01*
X021669Y016773D01*
X021681Y016760D01*
X021690Y016745D01*
X021695Y016728D01*
X021697Y016710D01*
X021695Y016692D01*
X021690Y016675D01*
X021681Y016660D01*
X021669Y016647D01*
X021655Y016636D01*
X021638Y016629D01*
X021621Y016625D01*
X021603Y016625D01*
X021586Y016629D01*
X021570Y016636D01*
X021555Y016647D01*
X021543Y016660D01*
X021534Y016675D01*
X021529Y016692D01*
X021527Y016710D01*
X021527Y016960D02*
X021529Y016978D01*
X021534Y016995D01*
X021543Y017010D01*
X021555Y017023D01*
X021569Y017034D01*
X021586Y017041D01*
X021603Y017045D01*
X021621Y017045D01*
X021638Y017041D01*
X021654Y017034D01*
X021669Y017023D01*
X021681Y017010D01*
X021690Y016995D01*
X021695Y016978D01*
X021697Y016960D01*
X021695Y016942D01*
X021690Y016925D01*
X021681Y016910D01*
X021669Y016897D01*
X021655Y016886D01*
X021638Y016879D01*
X021621Y016875D01*
X021603Y016875D01*
X021586Y016879D01*
X021570Y016886D01*
X021555Y016897D01*
X021543Y016910D01*
X021534Y016925D01*
X021529Y016942D01*
X021527Y016960D01*
X021527Y017210D02*
X021529Y017228D01*
X021534Y017245D01*
X021543Y017260D01*
X021555Y017273D01*
X021569Y017284D01*
X021586Y017291D01*
X021603Y017295D01*
X021621Y017295D01*
X021638Y017291D01*
X021654Y017284D01*
X021669Y017273D01*
X021681Y017260D01*
X021690Y017245D01*
X021695Y017228D01*
X021697Y017210D01*
X021695Y017192D01*
X021690Y017175D01*
X021681Y017160D01*
X021669Y017147D01*
X021655Y017136D01*
X021638Y017129D01*
X021621Y017125D01*
X021603Y017125D01*
X021586Y017129D01*
X021570Y017136D01*
X021555Y017147D01*
X021543Y017160D01*
X021534Y017175D01*
X021529Y017192D01*
X021527Y017210D01*
X021527Y017460D02*
X021529Y017478D01*
X021534Y017495D01*
X021543Y017510D01*
X021555Y017523D01*
X021569Y017534D01*
X021586Y017541D01*
X021603Y017545D01*
X021621Y017545D01*
X021638Y017541D01*
X021654Y017534D01*
X021669Y017523D01*
X021681Y017510D01*
X021690Y017495D01*
X021695Y017478D01*
X021697Y017460D01*
X021695Y017442D01*
X021690Y017425D01*
X021681Y017410D01*
X021669Y017397D01*
X021655Y017386D01*
X021638Y017379D01*
X021621Y017375D01*
X021603Y017375D01*
X021586Y017379D01*
X021570Y017386D01*
X021555Y017397D01*
X021543Y017410D01*
X021534Y017425D01*
X021529Y017442D01*
X021527Y017460D01*
X021527Y017710D02*
X021529Y017728D01*
X021534Y017745D01*
X021543Y017760D01*
X021555Y017773D01*
X021569Y017784D01*
X021586Y017791D01*
X021603Y017795D01*
X021621Y017795D01*
X021638Y017791D01*
X021654Y017784D01*
X021669Y017773D01*
X021681Y017760D01*
X021690Y017745D01*
X021695Y017728D01*
X021697Y017710D01*
X021695Y017692D01*
X021690Y017675D01*
X021681Y017660D01*
X021669Y017647D01*
X021655Y017636D01*
X021638Y017629D01*
X021621Y017625D01*
X021603Y017625D01*
X021586Y017629D01*
X021570Y017636D01*
X021555Y017647D01*
X021543Y017660D01*
X021534Y017675D01*
X021529Y017692D01*
X021527Y017710D01*
X021527Y017960D02*
X021529Y017978D01*
X021534Y017995D01*
X021543Y018010D01*
X021555Y018023D01*
X021569Y018034D01*
X021586Y018041D01*
X021603Y018045D01*
X021621Y018045D01*
X021638Y018041D01*
X021654Y018034D01*
X021669Y018023D01*
X021681Y018010D01*
X021690Y017995D01*
X021695Y017978D01*
X021697Y017960D01*
X021695Y017942D01*
X021690Y017925D01*
X021681Y017910D01*
X021669Y017897D01*
X021655Y017886D01*
X021638Y017879D01*
X021621Y017875D01*
X021603Y017875D01*
X021586Y017879D01*
X021570Y017886D01*
X021555Y017897D01*
X021543Y017910D01*
X021534Y017925D01*
X021529Y017942D01*
X021527Y017960D01*
X021527Y018210D02*
X021529Y018228D01*
X021534Y018245D01*
X021543Y018260D01*
X021555Y018273D01*
X021569Y018284D01*
X021586Y018291D01*
X021603Y018295D01*
X021621Y018295D01*
X021638Y018291D01*
X021654Y018284D01*
X021669Y018273D01*
X021681Y018260D01*
X021690Y018245D01*
X021695Y018228D01*
X021697Y018210D01*
X021695Y018192D01*
X021690Y018175D01*
X021681Y018160D01*
X021669Y018147D01*
X021655Y018136D01*
X021638Y018129D01*
X021621Y018125D01*
X021603Y018125D01*
X021586Y018129D01*
X021570Y018136D01*
X021555Y018147D01*
X021543Y018160D01*
X021534Y018175D01*
X021529Y018192D01*
X021527Y018210D01*
X021737Y018960D02*
X021739Y019014D01*
X021745Y019067D01*
X021754Y019119D01*
X021767Y019171D01*
X021784Y019222D01*
X021805Y019272D01*
X021829Y019319D01*
X021856Y019365D01*
X021887Y019409D01*
X021920Y019451D01*
X021957Y019490D01*
X021996Y019527D01*
X022038Y019560D01*
X022082Y019591D01*
X022128Y019618D01*
X022175Y019642D01*
X022225Y019663D01*
X022276Y019680D01*
X022328Y019693D01*
X022380Y019702D01*
X022433Y019708D01*
X022487Y019710D01*
X019487Y019710D02*
X001487Y019710D01*
X001037Y018960D02*
X001039Y019002D01*
X001045Y019044D01*
X001055Y019085D01*
X001068Y019125D01*
X001086Y019163D01*
X001106Y019200D01*
X001131Y019235D01*
X001158Y019267D01*
X001188Y019296D01*
X001221Y019323D01*
X001256Y019346D01*
X001293Y019366D01*
X001332Y019382D01*
X001372Y019395D01*
X001413Y019404D01*
X001455Y019409D01*
X001498Y019410D01*
X001540Y019407D01*
X001581Y019400D01*
X001622Y019389D01*
X001662Y019375D01*
X001700Y019357D01*
X001736Y019335D01*
X001770Y019310D01*
X001801Y019282D01*
X001830Y019251D01*
X001856Y019218D01*
X001878Y019182D01*
X001898Y019144D01*
X001913Y019105D01*
X001925Y019065D01*
X001933Y019023D01*
X001937Y018981D01*
X001937Y018939D01*
X001933Y018897D01*
X001925Y018855D01*
X001913Y018815D01*
X001898Y018776D01*
X001878Y018738D01*
X001856Y018702D01*
X001830Y018669D01*
X001801Y018638D01*
X001770Y018610D01*
X001736Y018585D01*
X001700Y018563D01*
X001662Y018545D01*
X001622Y018531D01*
X001581Y018520D01*
X001540Y018513D01*
X001498Y018510D01*
X001455Y018511D01*
X001413Y018516D01*
X001372Y018525D01*
X001332Y018538D01*
X001293Y018554D01*
X001256Y018574D01*
X001221Y018597D01*
X001188Y018624D01*
X001158Y018653D01*
X001131Y018685D01*
X001106Y018720D01*
X001086Y018757D01*
X001068Y018795D01*
X001055Y018835D01*
X001045Y018876D01*
X001039Y018918D01*
X001037Y018960D01*
X000737Y018960D02*
X000737Y000960D01*
X001037Y000960D02*
X001039Y001002D01*
X001045Y001044D01*
X001055Y001085D01*
X001068Y001125D01*
X001086Y001163D01*
X001106Y001200D01*
X001131Y001235D01*
X001158Y001267D01*
X001188Y001296D01*
X001221Y001323D01*
X001256Y001346D01*
X001293Y001366D01*
X001332Y001382D01*
X001372Y001395D01*
X001413Y001404D01*
X001455Y001409D01*
X001498Y001410D01*
X001540Y001407D01*
X001581Y001400D01*
X001622Y001389D01*
X001662Y001375D01*
X001700Y001357D01*
X001736Y001335D01*
X001770Y001310D01*
X001801Y001282D01*
X001830Y001251D01*
X001856Y001218D01*
X001878Y001182D01*
X001898Y001144D01*
X001913Y001105D01*
X001925Y001065D01*
X001933Y001023D01*
X001937Y000981D01*
X001937Y000939D01*
X001933Y000897D01*
X001925Y000855D01*
X001913Y000815D01*
X001898Y000776D01*
X001878Y000738D01*
X001856Y000702D01*
X001830Y000669D01*
X001801Y000638D01*
X001770Y000610D01*
X001736Y000585D01*
X001700Y000563D01*
X001662Y000545D01*
X001622Y000531D01*
X001581Y000520D01*
X001540Y000513D01*
X001498Y000510D01*
X001455Y000511D01*
X001413Y000516D01*
X001372Y000525D01*
X001332Y000538D01*
X001293Y000554D01*
X001256Y000574D01*
X001221Y000597D01*
X001188Y000624D01*
X001158Y000653D01*
X001131Y000685D01*
X001106Y000720D01*
X001086Y000757D01*
X001068Y000795D01*
X001055Y000835D01*
X001045Y000876D01*
X001039Y000918D01*
X001037Y000960D01*
X000737Y000960D02*
X000739Y000906D01*
X000745Y000853D01*
X000754Y000801D01*
X000767Y000749D01*
X000784Y000698D01*
X000805Y000648D01*
X000829Y000601D01*
X000856Y000555D01*
X000887Y000511D01*
X000920Y000469D01*
X000957Y000430D01*
X000996Y000393D01*
X001038Y000360D01*
X001082Y000329D01*
X001128Y000302D01*
X001175Y000278D01*
X001225Y000257D01*
X001276Y000240D01*
X001328Y000227D01*
X001380Y000218D01*
X001433Y000212D01*
X001487Y000210D01*
X020277Y001710D02*
X020279Y001728D01*
X020284Y001745D01*
X020293Y001760D01*
X020305Y001773D01*
X020319Y001784D01*
X020336Y001791D01*
X020353Y001795D01*
X020371Y001795D01*
X020388Y001791D01*
X020404Y001784D01*
X020419Y001773D01*
X020431Y001760D01*
X020440Y001745D01*
X020445Y001728D01*
X020447Y001710D01*
X020445Y001692D01*
X020440Y001675D01*
X020431Y001660D01*
X020419Y001647D01*
X020405Y001636D01*
X020388Y001629D01*
X020371Y001625D01*
X020353Y001625D01*
X020336Y001629D01*
X020320Y001636D01*
X020305Y001647D01*
X020293Y001660D01*
X020284Y001675D01*
X020279Y001692D01*
X020277Y001710D01*
X020277Y001960D02*
X020279Y001978D01*
X020284Y001995D01*
X020293Y002010D01*
X020305Y002023D01*
X020319Y002034D01*
X020336Y002041D01*
X020353Y002045D01*
X020371Y002045D01*
X020388Y002041D01*
X020404Y002034D01*
X020419Y002023D01*
X020431Y002010D01*
X020440Y001995D01*
X020445Y001978D01*
X020447Y001960D01*
X020445Y001942D01*
X020440Y001925D01*
X020431Y001910D01*
X020419Y001897D01*
X020405Y001886D01*
X020388Y001879D01*
X020371Y001875D01*
X020353Y001875D01*
X020336Y001879D01*
X020320Y001886D01*
X020305Y001897D01*
X020293Y001910D01*
X020284Y001925D01*
X020279Y001942D01*
X020277Y001960D01*
X020277Y002210D02*
X020279Y002228D01*
X020284Y002245D01*
X020293Y002260D01*
X020305Y002273D01*
X020319Y002284D01*
X020336Y002291D01*
X020353Y002295D01*
X020371Y002295D01*
X020388Y002291D01*
X020404Y002284D01*
X020419Y002273D01*
X020431Y002260D01*
X020440Y002245D01*
X020445Y002228D01*
X020447Y002210D01*
X020445Y002192D01*
X020440Y002175D01*
X020431Y002160D01*
X020419Y002147D01*
X020405Y002136D01*
X020388Y002129D01*
X020371Y002125D01*
X020353Y002125D01*
X020336Y002129D01*
X020320Y002136D01*
X020305Y002147D01*
X020293Y002160D01*
X020284Y002175D01*
X020279Y002192D01*
X020277Y002210D01*
X020277Y002460D02*
X020279Y002478D01*
X020284Y002495D01*
X020293Y002510D01*
X020305Y002523D01*
X020319Y002534D01*
X020336Y002541D01*
X020353Y002545D01*
X020371Y002545D01*
X020388Y002541D01*
X020404Y002534D01*
X020419Y002523D01*
X020431Y002510D01*
X020440Y002495D01*
X020445Y002478D01*
X020447Y002460D01*
X020445Y002442D01*
X020440Y002425D01*
X020431Y002410D01*
X020419Y002397D01*
X020405Y002386D01*
X020388Y002379D01*
X020371Y002375D01*
X020353Y002375D01*
X020336Y002379D01*
X020320Y002386D01*
X020305Y002397D01*
X020293Y002410D01*
X020284Y002425D01*
X020279Y002442D01*
X020277Y002460D01*
X020277Y002710D02*
X020279Y002728D01*
X020284Y002745D01*
X020293Y002760D01*
X020305Y002773D01*
X020319Y002784D01*
X020336Y002791D01*
X020353Y002795D01*
X020371Y002795D01*
X020388Y002791D01*
X020404Y002784D01*
X020419Y002773D01*
X020431Y002760D01*
X020440Y002745D01*
X020445Y002728D01*
X020447Y002710D01*
X020445Y002692D01*
X020440Y002675D01*
X020431Y002660D01*
X020419Y002647D01*
X020405Y002636D01*
X020388Y002629D01*
X020371Y002625D01*
X020353Y002625D01*
X020336Y002629D01*
X020320Y002636D01*
X020305Y002647D01*
X020293Y002660D01*
X020284Y002675D01*
X020279Y002692D01*
X020277Y002710D01*
X020277Y002960D02*
X020279Y002978D01*
X020284Y002995D01*
X020293Y003010D01*
X020305Y003023D01*
X020319Y003034D01*
X020336Y003041D01*
X020353Y003045D01*
X020371Y003045D01*
X020388Y003041D01*
X020404Y003034D01*
X020419Y003023D01*
X020431Y003010D01*
X020440Y002995D01*
X020445Y002978D01*
X020447Y002960D01*
X020445Y002942D01*
X020440Y002925D01*
X020431Y002910D01*
X020419Y002897D01*
X020405Y002886D01*
X020388Y002879D01*
X020371Y002875D01*
X020353Y002875D01*
X020336Y002879D01*
X020320Y002886D01*
X020305Y002897D01*
X020293Y002910D01*
X020284Y002925D01*
X020279Y002942D01*
X020277Y002960D01*
X020277Y003210D02*
X020279Y003228D01*
X020284Y003245D01*
X020293Y003260D01*
X020305Y003273D01*
X020319Y003284D01*
X020336Y003291D01*
X020353Y003295D01*
X020371Y003295D01*
X020388Y003291D01*
X020404Y003284D01*
X020419Y003273D01*
X020431Y003260D01*
X020440Y003245D01*
X020445Y003228D01*
X020447Y003210D01*
X020445Y003192D01*
X020440Y003175D01*
X020431Y003160D01*
X020419Y003147D01*
X020405Y003136D01*
X020388Y003129D01*
X020371Y003125D01*
X020353Y003125D01*
X020336Y003129D01*
X020320Y003136D01*
X020305Y003147D01*
X020293Y003160D01*
X020284Y003175D01*
X020279Y003192D01*
X020277Y003210D01*
X020237Y003460D02*
X020237Y008960D01*
X021737Y008960D01*
X021737Y003460D01*
X020237Y003460D01*
X021527Y003210D02*
X021529Y003228D01*
X021534Y003245D01*
X021543Y003260D01*
X021555Y003273D01*
X021569Y003284D01*
X021586Y003291D01*
X021603Y003295D01*
X021621Y003295D01*
X021638Y003291D01*
X021654Y003284D01*
X021669Y003273D01*
X021681Y003260D01*
X021690Y003245D01*
X021695Y003228D01*
X021697Y003210D01*
X021695Y003192D01*
X021690Y003175D01*
X021681Y003160D01*
X021669Y003147D01*
X021655Y003136D01*
X021638Y003129D01*
X021621Y003125D01*
X021603Y003125D01*
X021586Y003129D01*
X021570Y003136D01*
X021555Y003147D01*
X021543Y003160D01*
X021534Y003175D01*
X021529Y003192D01*
X021527Y003210D01*
X021527Y002960D02*
X021529Y002978D01*
X021534Y002995D01*
X021543Y003010D01*
X021555Y003023D01*
X021569Y003034D01*
X021586Y003041D01*
X021603Y003045D01*
X021621Y003045D01*
X021638Y003041D01*
X021654Y003034D01*
X021669Y003023D01*
X021681Y003010D01*
X021690Y002995D01*
X021695Y002978D01*
X021697Y002960D01*
X021695Y002942D01*
X021690Y002925D01*
X021681Y002910D01*
X021669Y002897D01*
X021655Y002886D01*
X021638Y002879D01*
X021621Y002875D01*
X021603Y002875D01*
X021586Y002879D01*
X021570Y002886D01*
X021555Y002897D01*
X021543Y002910D01*
X021534Y002925D01*
X021529Y002942D01*
X021527Y002960D01*
X021527Y002710D02*
X021529Y002728D01*
X021534Y002745D01*
X021543Y002760D01*
X021555Y002773D01*
X021569Y002784D01*
X021586Y002791D01*
X021603Y002795D01*
X021621Y002795D01*
X021638Y002791D01*
X021654Y002784D01*
X021669Y002773D01*
X021681Y002760D01*
X021690Y002745D01*
X021695Y002728D01*
X021697Y002710D01*
X021695Y002692D01*
X021690Y002675D01*
X021681Y002660D01*
X021669Y002647D01*
X021655Y002636D01*
X021638Y002629D01*
X021621Y002625D01*
X021603Y002625D01*
X021586Y002629D01*
X021570Y002636D01*
X021555Y002647D01*
X021543Y002660D01*
X021534Y002675D01*
X021529Y002692D01*
X021527Y002710D01*
X021527Y002460D02*
X021529Y002478D01*
X021534Y002495D01*
X021543Y002510D01*
X021555Y002523D01*
X021569Y002534D01*
X021586Y002541D01*
X021603Y002545D01*
X021621Y002545D01*
X021638Y002541D01*
X021654Y002534D01*
X021669Y002523D01*
X021681Y002510D01*
X021690Y002495D01*
X021695Y002478D01*
X021697Y002460D01*
X021695Y002442D01*
X021690Y002425D01*
X021681Y002410D01*
X021669Y002397D01*
X021655Y002386D01*
X021638Y002379D01*
X021621Y002375D01*
X021603Y002375D01*
X021586Y002379D01*
X021570Y002386D01*
X021555Y002397D01*
X021543Y002410D01*
X021534Y002425D01*
X021529Y002442D01*
X021527Y002460D01*
X021527Y002210D02*
X021529Y002228D01*
X021534Y002245D01*
X021543Y002260D01*
X021555Y002273D01*
X021569Y002284D01*
X021586Y002291D01*
X021603Y002295D01*
X021621Y002295D01*
X021638Y002291D01*
X021654Y002284D01*
X021669Y002273D01*
X021681Y002260D01*
X021690Y002245D01*
X021695Y002228D01*
X021697Y002210D01*
X021695Y002192D01*
X021690Y002175D01*
X021681Y002160D01*
X021669Y002147D01*
X021655Y002136D01*
X021638Y002129D01*
X021621Y002125D01*
X021603Y002125D01*
X021586Y002129D01*
X021570Y002136D01*
X021555Y002147D01*
X021543Y002160D01*
X021534Y002175D01*
X021529Y002192D01*
X021527Y002210D01*
X021527Y001960D02*
X021529Y001978D01*
X021534Y001995D01*
X021543Y002010D01*
X021555Y002023D01*
X021569Y002034D01*
X021586Y002041D01*
X021603Y002045D01*
X021621Y002045D01*
X021638Y002041D01*
X021654Y002034D01*
X021669Y002023D01*
X021681Y002010D01*
X021690Y001995D01*
X021695Y001978D01*
X021697Y001960D01*
X021695Y001942D01*
X021690Y001925D01*
X021681Y001910D01*
X021669Y001897D01*
X021655Y001886D01*
X021638Y001879D01*
X021621Y001875D01*
X021603Y001875D01*
X021586Y001879D01*
X021570Y001886D01*
X021555Y001897D01*
X021543Y001910D01*
X021534Y001925D01*
X021529Y001942D01*
X021527Y001960D01*
X021527Y001710D02*
X021529Y001728D01*
X021534Y001745D01*
X021543Y001760D01*
X021555Y001773D01*
X021569Y001784D01*
X021586Y001791D01*
X021603Y001795D01*
X021621Y001795D01*
X021638Y001791D01*
X021654Y001784D01*
X021669Y001773D01*
X021681Y001760D01*
X021690Y001745D01*
X021695Y001728D01*
X021697Y001710D01*
X021695Y001692D01*
X021690Y001675D01*
X021681Y001660D01*
X021669Y001647D01*
X021655Y001636D01*
X021638Y001629D01*
X021621Y001625D01*
X021603Y001625D01*
X021586Y001629D01*
X021570Y001636D01*
X021555Y001647D01*
X021543Y001660D01*
X021534Y001675D01*
X021529Y001692D01*
X021527Y001710D01*
X021527Y009210D02*
X021529Y009228D01*
X021534Y009245D01*
X021543Y009260D01*
X021555Y009273D01*
X021569Y009284D01*
X021586Y009291D01*
X021603Y009295D01*
X021621Y009295D01*
X021638Y009291D01*
X021654Y009284D01*
X021669Y009273D01*
X021681Y009260D01*
X021690Y009245D01*
X021695Y009228D01*
X021697Y009210D01*
X021695Y009192D01*
X021690Y009175D01*
X021681Y009160D01*
X021669Y009147D01*
X021655Y009136D01*
X021638Y009129D01*
X021621Y009125D01*
X021603Y009125D01*
X021586Y009129D01*
X021570Y009136D01*
X021555Y009147D01*
X021543Y009160D01*
X021534Y009175D01*
X021529Y009192D01*
X021527Y009210D01*
X021527Y009460D02*
X021529Y009478D01*
X021534Y009495D01*
X021543Y009510D01*
X021555Y009523D01*
X021569Y009534D01*
X021586Y009541D01*
X021603Y009545D01*
X021621Y009545D01*
X021638Y009541D01*
X021654Y009534D01*
X021669Y009523D01*
X021681Y009510D01*
X021690Y009495D01*
X021695Y009478D01*
X021697Y009460D01*
X021695Y009442D01*
X021690Y009425D01*
X021681Y009410D01*
X021669Y009397D01*
X021655Y009386D01*
X021638Y009379D01*
X021621Y009375D01*
X021603Y009375D01*
X021586Y009379D01*
X021570Y009386D01*
X021555Y009397D01*
X021543Y009410D01*
X021534Y009425D01*
X021529Y009442D01*
X021527Y009460D01*
X021527Y009710D02*
X021529Y009728D01*
X021534Y009745D01*
X021543Y009760D01*
X021555Y009773D01*
X021569Y009784D01*
X021586Y009791D01*
X021603Y009795D01*
X021621Y009795D01*
X021638Y009791D01*
X021654Y009784D01*
X021669Y009773D01*
X021681Y009760D01*
X021690Y009745D01*
X021695Y009728D01*
X021697Y009710D01*
X021695Y009692D01*
X021690Y009675D01*
X021681Y009660D01*
X021669Y009647D01*
X021655Y009636D01*
X021638Y009629D01*
X021621Y009625D01*
X021603Y009625D01*
X021586Y009629D01*
X021570Y009636D01*
X021555Y009647D01*
X021543Y009660D01*
X021534Y009675D01*
X021529Y009692D01*
X021527Y009710D01*
X021527Y009960D02*
X021529Y009978D01*
X021534Y009995D01*
X021543Y010010D01*
X021555Y010023D01*
X021569Y010034D01*
X021586Y010041D01*
X021603Y010045D01*
X021621Y010045D01*
X021638Y010041D01*
X021654Y010034D01*
X021669Y010023D01*
X021681Y010010D01*
X021690Y009995D01*
X021695Y009978D01*
X021697Y009960D01*
X021695Y009942D01*
X021690Y009925D01*
X021681Y009910D01*
X021669Y009897D01*
X021655Y009886D01*
X021638Y009879D01*
X021621Y009875D01*
X021603Y009875D01*
X021586Y009879D01*
X021570Y009886D01*
X021555Y009897D01*
X021543Y009910D01*
X021534Y009925D01*
X021529Y009942D01*
X021527Y009960D01*
X021527Y010210D02*
X021529Y010228D01*
X021534Y010245D01*
X021543Y010260D01*
X021555Y010273D01*
X021569Y010284D01*
X021586Y010291D01*
X021603Y010295D01*
X021621Y010295D01*
X021638Y010291D01*
X021654Y010284D01*
X021669Y010273D01*
X021681Y010260D01*
X021690Y010245D01*
X021695Y010228D01*
X021697Y010210D01*
X021695Y010192D01*
X021690Y010175D01*
X021681Y010160D01*
X021669Y010147D01*
X021655Y010136D01*
X021638Y010129D01*
X021621Y010125D01*
X021603Y010125D01*
X021586Y010129D01*
X021570Y010136D01*
X021555Y010147D01*
X021543Y010160D01*
X021534Y010175D01*
X021529Y010192D01*
X021527Y010210D01*
X021527Y010460D02*
X021529Y010478D01*
X021534Y010495D01*
X021543Y010510D01*
X021555Y010523D01*
X021569Y010534D01*
X021586Y010541D01*
X021603Y010545D01*
X021621Y010545D01*
X021638Y010541D01*
X021654Y010534D01*
X021669Y010523D01*
X021681Y010510D01*
X021690Y010495D01*
X021695Y010478D01*
X021697Y010460D01*
X021695Y010442D01*
X021690Y010425D01*
X021681Y010410D01*
X021669Y010397D01*
X021655Y010386D01*
X021638Y010379D01*
X021621Y010375D01*
X021603Y010375D01*
X021586Y010379D01*
X021570Y010386D01*
X021555Y010397D01*
X021543Y010410D01*
X021534Y010425D01*
X021529Y010442D01*
X021527Y010460D01*
X021527Y010710D02*
X021529Y010728D01*
X021534Y010745D01*
X021543Y010760D01*
X021555Y010773D01*
X021569Y010784D01*
X021586Y010791D01*
X021603Y010795D01*
X021621Y010795D01*
X021638Y010791D01*
X021654Y010784D01*
X021669Y010773D01*
X021681Y010760D01*
X021690Y010745D01*
X021695Y010728D01*
X021697Y010710D01*
X021695Y010692D01*
X021690Y010675D01*
X021681Y010660D01*
X021669Y010647D01*
X021655Y010636D01*
X021638Y010629D01*
X021621Y010625D01*
X021603Y010625D01*
X021586Y010629D01*
X021570Y010636D01*
X021555Y010647D01*
X021543Y010660D01*
X021534Y010675D01*
X021529Y010692D01*
X021527Y010710D01*
X020277Y010710D02*
X020279Y010728D01*
X020284Y010745D01*
X020293Y010760D01*
X020305Y010773D01*
X020319Y010784D01*
X020336Y010791D01*
X020353Y010795D01*
X020371Y010795D01*
X020388Y010791D01*
X020404Y010784D01*
X020419Y010773D01*
X020431Y010760D01*
X020440Y010745D01*
X020445Y010728D01*
X020447Y010710D01*
X020445Y010692D01*
X020440Y010675D01*
X020431Y010660D01*
X020419Y010647D01*
X020405Y010636D01*
X020388Y010629D01*
X020371Y010625D01*
X020353Y010625D01*
X020336Y010629D01*
X020320Y010636D01*
X020305Y010647D01*
X020293Y010660D01*
X020284Y010675D01*
X020279Y010692D01*
X020277Y010710D01*
X020277Y010460D02*
X020279Y010478D01*
X020284Y010495D01*
X020293Y010510D01*
X020305Y010523D01*
X020319Y010534D01*
X020336Y010541D01*
X020353Y010545D01*
X020371Y010545D01*
X020388Y010541D01*
X020404Y010534D01*
X020419Y010523D01*
X020431Y010510D01*
X020440Y010495D01*
X020445Y010478D01*
X020447Y010460D01*
X020445Y010442D01*
X020440Y010425D01*
X020431Y010410D01*
X020419Y010397D01*
X020405Y010386D01*
X020388Y010379D01*
X020371Y010375D01*
X020353Y010375D01*
X020336Y010379D01*
X020320Y010386D01*
X020305Y010397D01*
X020293Y010410D01*
X020284Y010425D01*
X020279Y010442D01*
X020277Y010460D01*
X020277Y010210D02*
X020279Y010228D01*
X020284Y010245D01*
X020293Y010260D01*
X020305Y010273D01*
X020319Y010284D01*
X020336Y010291D01*
X020353Y010295D01*
X020371Y010295D01*
X020388Y010291D01*
X020404Y010284D01*
X020419Y010273D01*
X020431Y010260D01*
X020440Y010245D01*
X020445Y010228D01*
X020447Y010210D01*
X020445Y010192D01*
X020440Y010175D01*
X020431Y010160D01*
X020419Y010147D01*
X020405Y010136D01*
X020388Y010129D01*
X020371Y010125D01*
X020353Y010125D01*
X020336Y010129D01*
X020320Y010136D01*
X020305Y010147D01*
X020293Y010160D01*
X020284Y010175D01*
X020279Y010192D01*
X020277Y010210D01*
X020277Y009960D02*
X020279Y009978D01*
X020284Y009995D01*
X020293Y010010D01*
X020305Y010023D01*
X020319Y010034D01*
X020336Y010041D01*
X020353Y010045D01*
X020371Y010045D01*
X020388Y010041D01*
X020404Y010034D01*
X020419Y010023D01*
X020431Y010010D01*
X020440Y009995D01*
X020445Y009978D01*
X020447Y009960D01*
X020445Y009942D01*
X020440Y009925D01*
X020431Y009910D01*
X020419Y009897D01*
X020405Y009886D01*
X020388Y009879D01*
X020371Y009875D01*
X020353Y009875D01*
X020336Y009879D01*
X020320Y009886D01*
X020305Y009897D01*
X020293Y009910D01*
X020284Y009925D01*
X020279Y009942D01*
X020277Y009960D01*
X020277Y009710D02*
X020279Y009728D01*
X020284Y009745D01*
X020293Y009760D01*
X020305Y009773D01*
X020319Y009784D01*
X020336Y009791D01*
X020353Y009795D01*
X020371Y009795D01*
X020388Y009791D01*
X020404Y009784D01*
X020419Y009773D01*
X020431Y009760D01*
X020440Y009745D01*
X020445Y009728D01*
X020447Y009710D01*
X020445Y009692D01*
X020440Y009675D01*
X020431Y009660D01*
X020419Y009647D01*
X020405Y009636D01*
X020388Y009629D01*
X020371Y009625D01*
X020353Y009625D01*
X020336Y009629D01*
X020320Y009636D01*
X020305Y009647D01*
X020293Y009660D01*
X020284Y009675D01*
X020279Y009692D01*
X020277Y009710D01*
X020277Y009460D02*
X020279Y009478D01*
X020284Y009495D01*
X020293Y009510D01*
X020305Y009523D01*
X020319Y009534D01*
X020336Y009541D01*
X020353Y009545D01*
X020371Y009545D01*
X020388Y009541D01*
X020404Y009534D01*
X020419Y009523D01*
X020431Y009510D01*
X020440Y009495D01*
X020445Y009478D01*
X020447Y009460D01*
X020445Y009442D01*
X020440Y009425D01*
X020431Y009410D01*
X020419Y009397D01*
X020405Y009386D01*
X020388Y009379D01*
X020371Y009375D01*
X020353Y009375D01*
X020336Y009379D01*
X020320Y009386D01*
X020305Y009397D01*
X020293Y009410D01*
X020284Y009425D01*
X020279Y009442D01*
X020277Y009460D01*
X020277Y009210D02*
X020279Y009228D01*
X020284Y009245D01*
X020293Y009260D01*
X020305Y009273D01*
X020319Y009284D01*
X020336Y009291D01*
X020353Y009295D01*
X020371Y009295D01*
X020388Y009291D01*
X020404Y009284D01*
X020419Y009273D01*
X020431Y009260D01*
X020440Y009245D01*
X020445Y009228D01*
X020447Y009210D01*
X020445Y009192D01*
X020440Y009175D01*
X020431Y009160D01*
X020419Y009147D01*
X020405Y009136D01*
X020388Y009129D01*
X020371Y009125D01*
X020353Y009125D01*
X020336Y009129D01*
X020320Y009136D01*
X020305Y009147D01*
X020293Y009160D01*
X020284Y009175D01*
X020279Y009192D01*
X020277Y009210D01*
X001487Y019710D02*
X001433Y019708D01*
X001380Y019702D01*
X001328Y019693D01*
X001276Y019680D01*
X001225Y019663D01*
X001175Y019642D01*
X001128Y019618D01*
X001082Y019591D01*
X001038Y019560D01*
X000996Y019527D01*
X000957Y019490D01*
X000920Y019451D01*
X000887Y019409D01*
X000856Y019365D01*
X000829Y019319D01*
X000805Y019272D01*
X000784Y019222D01*
X000767Y019171D01*
X000754Y019119D01*
X000745Y019067D01*
X000739Y019014D01*
X000737Y018960D01*
M02*
