%
M48
M72
T01C0.0130
T02C0.0170
T03C0.0400
T04C0.0900
%
T01
X3237Y1460
X6487Y3460
X5737Y3960
X4362Y5085
X4362Y6255
X7487Y7710
X8487Y7710
X8737Y7960
X8987Y7710
X9237Y7960
X9487Y7710
X9737Y7960
X9487Y8210
X8987Y8210
X8737Y8460
X8487Y8210
X8487Y8710
X9237Y9460
X9487Y9710
X9737Y9460
X9987Y9710
X10237Y9460
X10737Y9960
X11237Y9960
X11737Y9960
X11987Y10210
X12237Y9960
X12487Y10210
X12737Y9960
X12987Y10210
X13237Y9960
X13487Y10210
X13737Y9960
X13487Y9710
X13737Y9460
X13487Y9210
X13737Y8960
X13237Y8960
X12987Y9210
X13237Y9460
X12987Y9710
X11987Y9710
X11987Y9210
X12237Y8960
X12737Y8960
X12987Y8710
X13237Y8460
X13487Y8210
X13737Y7960
X13487Y7710
X13237Y7960
X12987Y7710
X12737Y7960
X12987Y8210
X12237Y7960
X12487Y7710
X11987Y7710
X11737Y7960
X11987Y8210
X11487Y7710
X11237Y7960
X10987Y7710
X10737Y7960
X10487Y7710
X10237Y7960
X10737Y6960
X10987Y6710
X11237Y6960
X11487Y6710
X11737Y6960
X11987Y6710
X12237Y6960
X12487Y6710
X12737Y6960
X12987Y6710
X13237Y6960
X13487Y6710
X13737Y6960
X13737Y6460
X13487Y6210
X13737Y5960
X13487Y5710
X13237Y5960
X12987Y5710
X12737Y5960
X12987Y6210
X13237Y6460
X12737Y6460
X12487Y6210
X12237Y5960
X12487Y5710
X11987Y5710
X12237Y5460
X12487Y5210
X12737Y4960
X12987Y4710
X13237Y4460
X13487Y4710
X13737Y4460
X13487Y4210
X13737Y3960
X13487Y3710
X13737Y3460
X13237Y3460
X12987Y3710
X13237Y3960
X12987Y4210
X12737Y4460
X12487Y4710
X12237Y4460
X11987Y4710
X12237Y4960
X11987Y5210
X12737Y5460
X12987Y5210
X13237Y4960
X13487Y5210
X13737Y4960
X13737Y5460
X13237Y5460
X11987Y6210
X12237Y6460
X11737Y6460
X11237Y6460
X10737Y6460
X10237Y6460
X9987Y6210
X10237Y5960
X9987Y5710
X10237Y5460
X9987Y5210
X10237Y4960
X9987Y4710
X10237Y4460
X10737Y4460
X11237Y4460
X11737Y4460
X11987Y4210
X11987Y3710
X12237Y3460
X12737Y3460
X12987Y3210
X13237Y2960
X13487Y2710
X13737Y2460
X13237Y2460
X12987Y2710
X12737Y2460
X12237Y2460
X11987Y2710
X11737Y2460
X11237Y2460
X10737Y2460
X10237Y2460
X9737Y2460
X9487Y2710
X9237Y2460
X8987Y2710
X9237Y2960
X9487Y3210
X8987Y3210
X8737Y2960
X8487Y2710
X8737Y2460
X8987Y2210
X9487Y2210
X10487Y2210
X10987Y2210
X11487Y2210
X11987Y2210
X12487Y2210
X12987Y2210
X13487Y2210
X13737Y2960
X13487Y3210
X10237Y3960
X9987Y4210
X9737Y3960
X9487Y3710
X9237Y3460
X8987Y3710
X9237Y3960
X9487Y4210
X8987Y4210
X8737Y3960
X8487Y3710
X8737Y3460
X8487Y3210
X8487Y2210
X8487Y1460
X13487Y960
X14487Y960
X15487Y960
X16487Y960
X17487Y960
X18237Y2835
X18487Y3085
X17987Y3085
X17987Y4210
X18237Y4460
X18487Y4710
X17987Y4710
X18487Y4210
X18487Y5835
X18237Y6085
X17987Y5835
X18237Y6960
X18487Y7210
X18237Y7460
X17237Y7460
X16987Y7210
X17237Y6960
X18237Y8335
X18487Y8585
X17987Y8585
X17987Y9710
X18237Y9960
X18487Y10210
X17987Y10210
X18487Y9710
X18487Y11335
X18237Y11585
X17987Y11335
X18237Y12460
X18487Y12710
X18237Y12960
X17237Y12960
X16987Y12710
X17237Y12460
X18237Y13835
X18487Y14085
X17987Y14085
X17987Y15210
X18237Y15460
X18487Y15210
X18487Y15710
X17987Y15710
X17987Y16835
X18237Y17085
X18487Y16835
X18487Y17960
X18737Y18210
X18237Y18210
X17987Y17960
X17737Y18210
X17487Y17960
X17237Y18210
X16987Y17960
X16737Y18210
X16487Y17960
X16237Y18210
X15987Y17960
X15737Y18210
X15987Y18460
X16237Y18710
X16487Y18460
X16737Y18710
X16987Y18460
X17237Y18710
X17487Y18460
X17737Y18710
X17987Y18460
X18237Y18710
X18487Y18460
X18737Y18710
X18487Y18960
X18737Y19210
X18237Y19210
X17987Y18960
X17737Y19210
X17487Y18960
X17237Y19210
X16987Y18960
X16737Y19210
X16487Y18960
X16237Y19210
X15987Y18960
X15737Y18710
X15737Y19210
X14487Y18960
X14237Y18710
X14487Y18460
X14237Y18210
X14487Y17960
X13737Y18210
X13487Y17960
X13737Y17460
X13237Y17460
X12737Y17460
X12237Y17460
X12487Y17210
X12737Y16960
X12987Y16710
X13237Y16460
X13487Y16210
X13737Y16460
X13487Y16710
X13737Y16960
X13487Y17210
X13237Y16960
X12987Y17210
X12237Y16960
X12487Y16710
X12737Y16460
X12987Y16210
X12487Y16210
X12237Y16460
X11987Y16210
X12237Y15960
X12487Y15710
X12737Y15460
X12987Y15210
X13237Y15460
X13487Y15210
X13737Y15460
X13487Y15710
X13737Y15960
X13237Y15960
X12987Y15710
X12737Y15960
X12237Y15460
X11987Y15210
X11737Y15460
X11987Y15710
X11237Y15460
X10737Y15460
X10237Y15210
X9737Y15210
X9237Y15210
X9487Y14960
X9987Y14960
X8987Y14960
X8487Y14210
X7987Y14210
X8237Y13960
X8487Y13710
X8737Y13460
X8987Y13710
X9237Y13460
X9487Y13710
X9737Y13460
X10237Y13460
X10487Y13210
X10737Y13460
X10987Y13210
X11237Y13460
X11487Y13210
X11737Y13460
X11987Y13210
X12237Y13460
X12487Y13210
X12737Y13460
X12987Y13210
X13237Y13460
X13487Y13210
X13737Y13460
X13487Y13710
X13737Y13960
X13237Y13960
X12987Y13710
X11987Y13710
X12987Y14210
X13237Y14460
X13487Y14210
X13737Y14460
X13487Y14710
X13737Y14960
X13237Y14960
X12987Y14710
X12737Y14460
X12237Y14460
X11987Y14710
X8737Y13960
X7987Y13710
X8237Y13460
X8487Y13210
X7987Y13210
X7737Y13460
X7487Y13710
X7737Y13960
X7487Y14210
X7237Y13210
X6737Y12960
X6987Y12460
X7487Y12460
X7737Y12710
X7237Y11710
X5737Y13210
X3237Y11960
X2487Y11710
X1987Y9960
X3537Y8875
X2612Y7960
X4987Y7960
X5487Y7960
X5937Y8880
X6477Y8880
X4427Y9745
X8987Y9710
X11987Y10710
X12237Y10460
X12487Y10710
X12737Y10460
X12987Y10710
X13237Y10460
X13487Y10710
X13737Y10460
X13737Y10960
X13487Y11210
X13737Y11460
X13487Y11710
X13237Y11460
X12987Y11210
X13237Y10960
X12737Y10960
X12487Y11210
X12737Y11460
X12987Y11710
X12487Y11710
X12237Y11460
X11987Y11210
X12237Y10960
X11987Y11710
X12237Y11960
X12487Y12210
X12737Y11960
X12987Y12210
X13237Y11960
X13487Y12210
X13737Y11960
X13737Y12460
X13237Y12460
X12737Y12460
X12237Y12460
X11987Y12210
X11737Y11960
X11487Y12210
X11737Y12460
X11237Y12460
X10987Y12210
X11237Y11960
X10737Y11960
X10737Y12460
X4237Y14960
X3237Y15210
X3237Y16710
X3487Y18960
X4487Y18960
X5487Y18960
X6487Y18960
X7487Y18960
X9237Y18710
X9487Y18460
X9737Y18710
X9987Y18460
X10237Y18710
X10487Y18460
X10737Y18710
X10987Y18460
X11237Y18710
X11487Y18460
X11737Y18710
X11987Y18460
X12237Y18710
X11987Y18960
X12237Y19210
X11737Y19210
X11487Y18960
X11237Y19210
X10987Y18960
X10737Y19210
X10487Y18960
X10237Y19210
X9987Y18960
X9737Y19210
X9487Y18960
X9237Y19210
X9237Y18210
X9487Y17960
X9737Y18210
X9987Y17960
X10237Y18210
X10487Y17960
X10737Y18210
X10987Y17960
X11237Y18210
X11487Y17960
X11737Y18210
X11987Y17960
X12237Y18210
X11737Y17460
X11237Y17460
X10737Y17460
X11987Y17210
X11987Y16710
X13487Y18460
X13737Y18710
X13487Y18960
X13737Y19210
X14237Y19210
X24237Y16710
X24237Y15210
X25237Y14960
X28487Y14210
X28737Y13960
X28987Y13710
X29237Y13460
X29487Y13210
X29737Y13460
X29987Y13710
X30237Y13460
X30487Y13710
X30737Y13460
X31237Y13460
X31487Y13210
X31737Y13460
X31987Y13210
X32237Y13460
X32487Y13210
X32737Y13460
X32987Y13210
X33237Y13460
X33487Y13210
X33737Y13460
X33987Y13210
X34237Y13460
X34487Y13210
X34737Y13460
X34487Y13710
X34737Y13960
X34237Y13960
X33987Y13710
X32987Y13710
X33987Y14210
X34237Y14460
X34487Y14210
X34737Y14460
X34487Y14710
X34737Y14960
X34237Y14960
X33987Y14710
X33737Y14460
X33237Y14460
X32987Y14710
X32987Y15210
X33237Y15460
X33487Y15710
X33737Y15460
X33987Y15210
X34237Y15460
X34487Y15210
X34737Y15460
X34487Y15710
X34737Y15960
X34237Y15960
X33987Y15710
X33737Y15960
X33237Y15960
X32987Y15710
X32737Y15460
X32237Y15460
X31737Y15460
X31237Y15210
X30737Y15210
X30237Y15210
X30487Y14960
X30987Y14960
X29987Y14960
X29487Y14210
X28987Y14210
X29237Y13960
X29487Y13710
X29737Y13960
X28737Y13460
X28987Y13210
X28487Y13710
X28237Y13210
X27737Y12960
X27987Y12460
X28487Y12460
X28737Y12710
X28237Y11710
X26737Y13210
X24237Y11960
X23487Y11710
X22987Y9960
X24537Y8875
X23612Y7960
X25987Y7960
X26487Y7960
X26937Y8880
X27477Y8880
X28487Y7710
X29487Y7710
X29737Y7960
X29987Y7710
X30237Y7960
X30487Y7710
X30737Y7960
X30487Y8210
X29987Y8210
X29737Y8460
X29487Y8210
X29487Y8710
X30237Y9460
X30487Y9710
X30737Y9460
X30987Y9710
X31237Y9460
X31737Y9960
X32237Y9960
X32737Y9960
X32987Y10210
X33237Y9960
X33487Y10210
X33737Y9960
X33987Y10210
X34237Y9960
X34487Y10210
X34737Y9960
X34487Y9710
X34737Y9460
X34487Y9210
X34737Y8960
X34237Y8960
X33987Y9210
X34237Y9460
X33987Y9710
X32987Y9710
X32987Y9210
X33237Y8960
X33737Y8960
X33987Y8710
X34237Y8460
X34487Y8210
X34737Y7960
X34487Y7710
X34237Y7960
X33987Y7710
X33737Y7960
X33987Y8210
X33237Y7960
X33487Y7710
X32987Y7710
X32737Y7960
X32987Y8210
X32487Y7710
X32237Y7960
X31987Y7710
X31737Y7960
X31487Y7710
X31237Y7960
X31737Y6960
X31987Y6710
X32237Y6960
X32487Y6710
X32737Y6960
X32987Y6710
X33237Y6960
X33487Y6710
X33737Y6960
X33987Y6710
X34237Y6960
X34487Y6710
X34737Y6960
X34737Y6460
X34487Y6210
X34737Y5960
X34487Y5710
X34237Y5960
X33987Y5710
X33737Y5960
X33987Y6210
X34237Y6460
X33737Y6460
X33487Y6210
X33237Y5960
X33487Y5710
X32987Y5710
X33237Y5460
X33487Y5210
X33737Y4960
X33987Y4710
X34237Y4460
X34487Y4710
X34737Y4460
X34487Y4210
X34737Y3960
X34487Y3710
X34737Y3460
X34237Y3460
X33987Y3710
X34237Y3960
X33987Y4210
X33737Y4460
X33487Y4710
X33237Y4460
X32987Y4710
X33237Y4960
X32987Y5210
X33737Y5460
X33987Y5210
X34237Y4960
X34487Y5210
X34737Y4960
X34737Y5460
X34237Y5460
X32987Y6210
X33237Y6460
X32737Y6460
X32237Y6460
X31737Y6460
X31237Y6460
X30987Y6210
X31237Y5960
X30987Y5710
X31237Y5460
X30987Y5210
X31237Y4960
X30987Y4710
X31237Y4460
X31737Y4460
X32237Y4460
X32737Y4460
X32987Y4210
X32987Y3710
X33237Y3460
X33737Y3460
X33987Y3210
X34237Y2960
X34487Y2710
X34737Y2460
X34237Y2460
X33987Y2710
X33737Y2460
X33237Y2460
X32987Y2710
X32737Y2460
X32237Y2460
X31737Y2460
X31237Y2460
X30737Y2460
X30487Y2710
X30237Y2460
X29987Y2710
X30237Y2960
X30487Y3210
X29987Y3210
X29737Y2960
X29487Y2710
X29737Y2460
X29987Y2210
X30487Y2210
X29487Y2210
X29487Y1460
X31487Y2210
X31987Y2210
X32487Y2210
X32987Y2210
X33487Y2210
X33987Y2210
X34487Y2210
X34737Y2960
X34487Y3210
X31237Y3960
X30987Y4210
X30737Y3960
X30487Y3710
X30237Y3460
X29987Y3710
X30237Y3960
X30487Y4210
X29987Y4210
X29737Y3960
X29487Y3710
X29737Y3460
X29487Y3210
X29487Y4210
X29737Y4460
X29987Y4710
X30237Y4460
X30487Y4710
X30737Y4460
X30737Y4960
X30487Y5210
X30737Y5460
X30237Y5460
X29987Y5210
X30237Y4960
X29737Y4960
X29487Y4710
X29487Y5210
X29737Y5460
X28987Y5460
X29487Y5710
X29112Y6710
X30987Y6710
X31487Y6710
X34737Y8460
X34487Y8710
X37987Y7210
X38237Y6960
X38237Y7460
X39237Y7460
X39487Y7210
X39237Y6960
X39237Y6085
X39487Y5835
X38987Y5835
X38987Y4710
X39237Y4460
X39487Y4710
X39487Y4210
X38987Y4210
X38987Y3085
X39237Y2835
X39487Y3085
X38487Y960
X37487Y960
X36487Y960
X35487Y960
X34487Y960
X27487Y3460
X26737Y3960
X25362Y5085
X25362Y6255
X29987Y9710
X32987Y10710
X33237Y10460
X33487Y10710
X33737Y10460
X33987Y10710
X34237Y10460
X34487Y10710
X34737Y10460
X34737Y10960
X34487Y11210
X34737Y11460
X34487Y11710
X34237Y11460
X33987Y11210
X34237Y10960
X33737Y10960
X33487Y11210
X33737Y11460
X33987Y11710
X33487Y11710
X33237Y11460
X32987Y11210
X33237Y10960
X32987Y11710
X33237Y11960
X33487Y12210
X33737Y11960
X33987Y12210
X34237Y11960
X34487Y12210
X34737Y11960
X34737Y12460
X34237Y12460
X33737Y12460
X33237Y12460
X32987Y12210
X32737Y11960
X32487Y12210
X32737Y12460
X32237Y12460
X31987Y12210
X32237Y11960
X31737Y11960
X31737Y12460
X37987Y12710
X38237Y12460
X38237Y12960
X39237Y12960
X39487Y12710
X39237Y12460
X39237Y11585
X39487Y11335
X38987Y11335
X38987Y10210
X39237Y9960
X39487Y10210
X39487Y9710
X38987Y9710
X38987Y8585
X39237Y8335
X39487Y8585
X39237Y13835
X39487Y14085
X38987Y14085
X38987Y15210
X39237Y15460
X39487Y15210
X39487Y15710
X38987Y15710
X38987Y16835
X39237Y17085
X39487Y16835
X39487Y17960
X39737Y18210
X39237Y18210
X38987Y17960
X38737Y18210
X38487Y17960
X38237Y18210
X37987Y17960
X37737Y18210
X37487Y17960
X37237Y18210
X36987Y17960
X36737Y18210
X36987Y18460
X37237Y18710
X37487Y18460
X37737Y18710
X37987Y18460
X38237Y18710
X38487Y18460
X38737Y18710
X38987Y18460
X39237Y18710
X39487Y18460
X39737Y18710
X39487Y18960
X39737Y19210
X39237Y19210
X38987Y18960
X38737Y19210
X38487Y18960
X38237Y19210
X37987Y18960
X37737Y19210
X37487Y18960
X37237Y19210
X36987Y18960
X36737Y18710
X36737Y19210
X35487Y18960
X35237Y18710
X35487Y18460
X35237Y18210
X35487Y17960
X34737Y18210
X34487Y17960
X34737Y17460
X34237Y17460
X33737Y17460
X33237Y17460
X33487Y17210
X33737Y16960
X33987Y16710
X34237Y16460
X34487Y16210
X34737Y16460
X34487Y16710
X34737Y16960
X34487Y17210
X34237Y16960
X33987Y17210
X33237Y16960
X33487Y16710
X33737Y16460
X33987Y16210
X33487Y16210
X33237Y16460
X32987Y16210
X32987Y16710
X32987Y17210
X32737Y17460
X32237Y17460
X31737Y17460
X31987Y17960
X32237Y18210
X32487Y17960
X32737Y18210
X32987Y17960
X33237Y18210
X32987Y18460
X33237Y18710
X32987Y18960
X33237Y19210
X32737Y19210
X32487Y18960
X32737Y18710
X32487Y18460
X32237Y18710
X31987Y18460
X31737Y18710
X31987Y18960
X32237Y19210
X31737Y19210
X31487Y18960
X31237Y18710
X31487Y18460
X31737Y18210
X31487Y17960
X31237Y18210
X30987Y17960
X30737Y18210
X30487Y17960
X30237Y18210
X30487Y18460
X30737Y18710
X30987Y18460
X30237Y18710
X30487Y18960
X30737Y19210
X30987Y18960
X31237Y19210
X30237Y19210
X28487Y18960
X27487Y18960
X26487Y18960
X25487Y18960
X24487Y18960
X34487Y18960
X34737Y18710
X34487Y18460
X34737Y19210
X35237Y19210
X25427Y9745
X13737Y8460
X13487Y8710
X10487Y6710
X9987Y6710
X8112Y6710
X8487Y5710
X8737Y5460
X8987Y5210
X9237Y4960
X9487Y4710
X9737Y4460
X9237Y4460
X8987Y4710
X8737Y4460
X8487Y4710
X8737Y4960
X8487Y5210
X7987Y5460
X9237Y5460
X9487Y5210
X9737Y4960
X9737Y5460
X8487Y4210
X24237Y1460
T02
X21612Y1710
X21612Y1960
X21612Y2210
X21612Y2460
X21612Y2710
X21612Y2960
X21612Y3210
X20362Y3210
X20362Y2960
X20362Y2710
X20362Y2460
X20362Y2210
X20362Y1960
X20362Y1710
X20362Y9210
X20362Y9460
X20362Y9710
X20362Y9960
X20362Y10210
X20362Y10460
X20362Y10710
X21612Y10710
X21612Y10460
X21612Y10210
X21612Y9960
X21612Y9710
X21612Y9460
X21612Y9210
X21612Y16710
X21612Y16960
X21612Y17210
X21612Y17460
X21612Y17710
X21612Y17960
X21612Y18210
X20362Y18210
X20362Y17960
X20362Y17710
X20362Y17460
X20362Y17210
X20362Y16960
X20362Y16710
T03
X19487Y16460
X19487Y15460
X19487Y14460
X19487Y13460
X19487Y12460
X19487Y11460
X19487Y10460
X19487Y9460
X19487Y8460
X19487Y7460
X19487Y6460
X19487Y5460
X19487Y4460
X19487Y3460
X19487Y2460
X22487Y2460
X22487Y3460
X22487Y4460
X22487Y5460
X22487Y6460
X22487Y7460
X22487Y8460
X22487Y9460
X22487Y10460
X22487Y11460
X22487Y12460
X22487Y13460
X22487Y14460
X22487Y15460
X22487Y16460
X22487Y17460
X19487Y17460
X1487Y17460
X1487Y16460
X1487Y15460
X1487Y14460
X1487Y13460
X1487Y12460
X1487Y11460
X1487Y10460
X1487Y9460
X1487Y8460
X1487Y7460
X1487Y6460
X1487Y5460
X1487Y4460
X1487Y3460
X1487Y2460
X40487Y2460
X40487Y3460
X40487Y4460
X40487Y5460
X40487Y6460
X40487Y7460
X40487Y8460
X40487Y9460
X40487Y10460
X40487Y11460
X40487Y12460
X40487Y13460
X40487Y14460
X40487Y15460
X40487Y16460
X40487Y17460
T04
X1487Y960
X9237Y6210
X19487Y960
X22487Y960
X30237Y6210
X40487Y960
X29737Y11960
X29487Y16960
X22487Y18960
X19487Y18960
X8487Y16960
X1487Y18960
X8737Y11960
X40487Y18960
M30
