G75*
G70*
%OFA0B0*%
%FSLAX24Y24*%
%IPPOS*%
%LPD*%
%AMOC8*
5,1,8,0,0,1.08239X$1,22.5*
%
%ADD10C,0.0000*%
%ADD11C,0.0090*%
%ADD12R,0.0010X0.0160*%
%ADD13R,0.0010X0.0280*%
%ADD14R,0.0010X0.0310*%
%ADD15R,0.0010X0.0360*%
%ADD16R,0.0010X0.0870*%
%ADD17R,0.0010X0.0930*%
%ADD18R,0.0010X0.0430*%
%ADD19R,0.0010X0.0350*%
%ADD20R,0.0010X0.0480*%
%ADD21R,0.0010X0.0530*%
%ADD22R,0.0010X0.0570*%
%ADD23R,0.0010X0.0610*%
%ADD24R,0.0010X0.0650*%
%ADD25R,0.0010X0.0680*%
%ADD26R,0.0010X0.0710*%
%ADD27R,0.0010X0.0740*%
%ADD28R,0.0010X0.0770*%
%ADD29R,0.0010X0.0790*%
%ADD30R,0.0010X0.0820*%
%ADD31R,0.0010X0.0840*%
%ADD32R,0.0010X0.0860*%
%ADD33R,0.0010X0.0880*%
%ADD34R,0.0010X0.0900*%
%ADD35R,0.0010X0.0920*%
%ADD36R,0.0010X0.0940*%
%ADD37R,0.0010X0.0960*%
%ADD38R,0.0010X0.0970*%
%ADD39R,0.0010X0.0990*%
%ADD40R,0.0010X0.1000*%
%ADD41R,0.0010X0.1020*%
%ADD42R,0.0010X0.1030*%
%ADD43R,0.0010X0.1050*%
%ADD44R,0.0010X0.0370*%
%ADD45R,0.0010X0.0470*%
%ADD46R,0.0010X0.0450*%
%ADD47R,0.0010X0.0420*%
%ADD48R,0.0010X0.0410*%
%ADD49R,0.0010X0.0400*%
%ADD50R,0.0010X0.0390*%
%ADD51R,0.0010X0.0380*%
%ADD52R,0.0010X0.0810*%
%ADD53R,0.0010X0.0800*%
%ADD54R,0.0010X0.0340*%
%ADD55R,0.0010X0.0780*%
%ADD56R,0.0010X0.0330*%
%ADD57R,0.0010X0.0850*%
%ADD58R,0.0010X0.0890*%
%ADD59R,0.0010X0.0320*%
%ADD60R,0.0010X0.0910*%
%ADD61R,0.0010X0.0950*%
%ADD62R,0.0010X0.0980*%
%ADD63R,0.0010X0.0460*%
%ADD64R,0.0010X0.1010*%
%ADD65R,0.0010X0.0830*%
%ADD66R,0.0010X0.0700*%
%ADD67R,0.0010X0.0640*%
%ADD68R,0.0010X0.0150*%
%ADD69R,0.0010X0.0200*%
%ADD70R,0.0010X0.0110*%
%ADD71R,0.0010X0.0550*%
%ADD72R,0.0010X0.0620*%
%ADD73R,0.0010X0.0510*%
%ADD74R,0.0010X0.0600*%
%ADD75R,0.0010X0.0670*%
%ADD76R,0.0010X0.0590*%
%ADD77R,0.0010X0.0730*%
%ADD78R,0.0010X0.0490*%
%ADD79R,0.0010X0.0500*%
%ADD80R,0.0010X0.0520*%
%ADD81R,0.0010X0.1070*%
%ADD82R,0.0010X0.1080*%
%ADD83R,0.0010X0.1110*%
%ADD84R,0.0010X0.0540*%
%ADD85R,0.0010X0.1120*%
%ADD86R,0.0010X0.1140*%
%ADD87R,0.0010X0.1170*%
%ADD88R,0.0010X0.0560*%
%ADD89R,0.0010X0.1160*%
%ADD90R,0.0010X0.1190*%
%ADD91R,0.0010X0.1200*%
%ADD92R,0.0010X0.1230*%
%ADD93R,0.0010X0.1220*%
%ADD94R,0.0010X0.1250*%
%ADD95R,0.0010X0.0580*%
%ADD96R,0.0010X0.1240*%
%ADD97R,0.0010X0.1280*%
%ADD98R,0.0010X0.1260*%
%ADD99R,0.0010X0.1310*%
%ADD100R,0.0010X0.1330*%
%ADD101R,0.0010X0.1350*%
%ADD102R,0.0010X0.1340*%
%ADD103R,0.0010X0.1370*%
%ADD104R,0.0010X0.1360*%
%ADD105R,0.0010X0.1390*%
%ADD106R,0.0010X0.0630*%
%ADD107R,0.0010X0.1380*%
%ADD108R,0.0010X0.1420*%
%ADD109R,0.0010X0.1440*%
%ADD110R,0.0010X0.1410*%
%ADD111R,0.0010X0.1460*%
%ADD112R,0.0010X0.1480*%
%ADD113R,0.0010X0.0660*%
%ADD114R,0.0010X0.1490*%
%ADD115R,0.0010X0.1510*%
%ADD116R,0.0010X0.1530*%
%ADD117R,0.0010X0.1500*%
%ADD118R,0.0010X0.1550*%
%ADD119R,0.0010X0.0690*%
%ADD120R,0.0010X0.1520*%
%ADD121R,0.0010X0.1570*%
%ADD122R,0.0010X0.1580*%
%ADD123R,0.0010X0.1540*%
%ADD124R,0.0010X0.1600*%
%ADD125R,0.0010X0.1560*%
%ADD126R,0.0010X0.1610*%
%ADD127R,0.0010X0.0720*%
%ADD128R,0.0010X0.1630*%
%ADD129R,0.0010X0.1590*%
%ADD130R,0.0010X0.1640*%
%ADD131R,0.0010X0.1660*%
%ADD132R,0.0010X0.0750*%
%ADD133R,0.0010X0.1670*%
%ADD134R,0.0010X0.1690*%
%ADD135R,0.0010X0.0760*%
%ADD136R,0.0010X0.1700*%
%ADD137R,0.0010X0.1710*%
%ADD138R,0.0010X0.0290*%
%ADD139R,0.0010X0.0250*%
%ADD140R,0.0010X0.0230*%
%ADD141R,0.0010X0.0210*%
%ADD142R,0.0010X0.0180*%
%ADD143R,0.0010X0.1300*%
%ADD144R,0.0010X0.0130*%
%ADD145R,0.0010X0.1290*%
%ADD146R,0.0010X0.0090*%
%ADD147R,0.0010X0.0060*%
%ADD148R,0.0010X0.1270*%
%ADD149R,0.0010X0.0050*%
%ADD150R,0.0010X0.0020*%
%ADD151R,0.0010X0.1320*%
%ADD152R,0.0010X0.1400*%
%ADD153R,0.0010X0.1430*%
%ADD154R,0.0010X0.1040*%
%ADD155R,0.0010X0.1450*%
%ADD156R,0.0010X0.1060*%
%ADD157R,0.0010X0.1470*%
%ADD158R,0.0010X0.1090*%
%ADD159R,0.0010X0.1100*%
%ADD160R,0.0010X0.1130*%
%ADD161R,0.0010X0.0010*%
%ADD162R,0.0010X0.0070*%
%ADD163R,0.0010X0.0140*%
%ADD164R,0.0010X0.0270*%
%ADD165R,0.0010X0.1620*%
%ADD166R,0.0010X0.1680*%
%ADD167R,0.0010X0.1150*%
%ADD168R,0.0010X0.1210*%
%ADD169R,0.0010X0.0440*%
%ADD170R,0.0010X0.1650*%
%ADD171R,0.0010X0.1850*%
%ADD172R,0.0010X0.1830*%
%ADD173R,0.0010X0.1810*%
%ADD174R,0.0010X0.1790*%
%ADD175R,0.0010X0.1770*%
%ADD176R,0.0010X0.1760*%
%ADD177R,0.0010X0.1750*%
%ADD178R,0.0010X0.1730*%
%ADD179C,0.0100*%
%ADD180C,0.0060*%
%ADD181C,0.0080*%
%ADD182R,0.0080X0.0354*%
%ADD183R,0.0512X0.0080*%
%ADD184R,0.0354X0.0080*%
D10*
X001487Y000210D02*
X019487Y000210D01*
X019037Y000960D02*
X019039Y001002D01*
X019045Y001044D01*
X019055Y001085D01*
X019068Y001125D01*
X019086Y001163D01*
X019106Y001200D01*
X019131Y001235D01*
X019158Y001267D01*
X019188Y001296D01*
X019221Y001323D01*
X019256Y001346D01*
X019293Y001366D01*
X019332Y001382D01*
X019372Y001395D01*
X019413Y001404D01*
X019455Y001409D01*
X019498Y001410D01*
X019540Y001407D01*
X019581Y001400D01*
X019622Y001389D01*
X019662Y001375D01*
X019700Y001357D01*
X019736Y001335D01*
X019770Y001310D01*
X019801Y001282D01*
X019830Y001251D01*
X019856Y001218D01*
X019878Y001182D01*
X019898Y001144D01*
X019913Y001105D01*
X019925Y001065D01*
X019933Y001023D01*
X019937Y000981D01*
X019937Y000939D01*
X019933Y000897D01*
X019925Y000855D01*
X019913Y000815D01*
X019898Y000776D01*
X019878Y000738D01*
X019856Y000702D01*
X019830Y000669D01*
X019801Y000638D01*
X019770Y000610D01*
X019736Y000585D01*
X019700Y000563D01*
X019662Y000545D01*
X019622Y000531D01*
X019581Y000520D01*
X019540Y000513D01*
X019498Y000510D01*
X019455Y000511D01*
X019413Y000516D01*
X019372Y000525D01*
X019332Y000538D01*
X019293Y000554D01*
X019256Y000574D01*
X019221Y000597D01*
X019188Y000624D01*
X019158Y000653D01*
X019131Y000685D01*
X019106Y000720D01*
X019086Y000757D01*
X019068Y000795D01*
X019055Y000835D01*
X019045Y000876D01*
X019039Y000918D01*
X019037Y000960D01*
X019487Y000210D02*
X019541Y000212D01*
X019594Y000218D01*
X019646Y000227D01*
X019698Y000240D01*
X019749Y000257D01*
X019799Y000278D01*
X019846Y000302D01*
X019892Y000329D01*
X019936Y000360D01*
X019978Y000393D01*
X020017Y000430D01*
X020054Y000469D01*
X020087Y000511D01*
X020118Y000555D01*
X020145Y000601D01*
X020169Y000648D01*
X020190Y000698D01*
X020207Y000749D01*
X020220Y000801D01*
X020229Y000853D01*
X020235Y000906D01*
X020237Y000960D01*
X020237Y001460D01*
X021737Y001460D01*
X021737Y000960D01*
X022037Y000960D02*
X022039Y001002D01*
X022045Y001044D01*
X022055Y001085D01*
X022068Y001125D01*
X022086Y001163D01*
X022106Y001200D01*
X022131Y001235D01*
X022158Y001267D01*
X022188Y001296D01*
X022221Y001323D01*
X022256Y001346D01*
X022293Y001366D01*
X022332Y001382D01*
X022372Y001395D01*
X022413Y001404D01*
X022455Y001409D01*
X022498Y001410D01*
X022540Y001407D01*
X022581Y001400D01*
X022622Y001389D01*
X022662Y001375D01*
X022700Y001357D01*
X022736Y001335D01*
X022770Y001310D01*
X022801Y001282D01*
X022830Y001251D01*
X022856Y001218D01*
X022878Y001182D01*
X022898Y001144D01*
X022913Y001105D01*
X022925Y001065D01*
X022933Y001023D01*
X022937Y000981D01*
X022937Y000939D01*
X022933Y000897D01*
X022925Y000855D01*
X022913Y000815D01*
X022898Y000776D01*
X022878Y000738D01*
X022856Y000702D01*
X022830Y000669D01*
X022801Y000638D01*
X022770Y000610D01*
X022736Y000585D01*
X022700Y000563D01*
X022662Y000545D01*
X022622Y000531D01*
X022581Y000520D01*
X022540Y000513D01*
X022498Y000510D01*
X022455Y000511D01*
X022413Y000516D01*
X022372Y000525D01*
X022332Y000538D01*
X022293Y000554D01*
X022256Y000574D01*
X022221Y000597D01*
X022188Y000624D01*
X022158Y000653D01*
X022131Y000685D01*
X022106Y000720D01*
X022086Y000757D01*
X022068Y000795D01*
X022055Y000835D01*
X022045Y000876D01*
X022039Y000918D01*
X022037Y000960D01*
X021737Y000960D02*
X021739Y000906D01*
X021745Y000853D01*
X021754Y000801D01*
X021767Y000749D01*
X021784Y000698D01*
X021805Y000648D01*
X021829Y000601D01*
X021856Y000555D01*
X021887Y000511D01*
X021920Y000469D01*
X021957Y000430D01*
X021996Y000393D01*
X022038Y000360D01*
X022082Y000329D01*
X022128Y000302D01*
X022175Y000278D01*
X022225Y000257D01*
X022276Y000240D01*
X022328Y000227D01*
X022380Y000218D01*
X022433Y000212D01*
X022487Y000210D01*
X040487Y000210D01*
X040037Y000960D02*
X040039Y001002D01*
X040045Y001044D01*
X040055Y001085D01*
X040068Y001125D01*
X040086Y001163D01*
X040106Y001200D01*
X040131Y001235D01*
X040158Y001267D01*
X040188Y001296D01*
X040221Y001323D01*
X040256Y001346D01*
X040293Y001366D01*
X040332Y001382D01*
X040372Y001395D01*
X040413Y001404D01*
X040455Y001409D01*
X040498Y001410D01*
X040540Y001407D01*
X040581Y001400D01*
X040622Y001389D01*
X040662Y001375D01*
X040700Y001357D01*
X040736Y001335D01*
X040770Y001310D01*
X040801Y001282D01*
X040830Y001251D01*
X040856Y001218D01*
X040878Y001182D01*
X040898Y001144D01*
X040913Y001105D01*
X040925Y001065D01*
X040933Y001023D01*
X040937Y000981D01*
X040937Y000939D01*
X040933Y000897D01*
X040925Y000855D01*
X040913Y000815D01*
X040898Y000776D01*
X040878Y000738D01*
X040856Y000702D01*
X040830Y000669D01*
X040801Y000638D01*
X040770Y000610D01*
X040736Y000585D01*
X040700Y000563D01*
X040662Y000545D01*
X040622Y000531D01*
X040581Y000520D01*
X040540Y000513D01*
X040498Y000510D01*
X040455Y000511D01*
X040413Y000516D01*
X040372Y000525D01*
X040332Y000538D01*
X040293Y000554D01*
X040256Y000574D01*
X040221Y000597D01*
X040188Y000624D01*
X040158Y000653D01*
X040131Y000685D01*
X040106Y000720D01*
X040086Y000757D01*
X040068Y000795D01*
X040055Y000835D01*
X040045Y000876D01*
X040039Y000918D01*
X040037Y000960D01*
X040487Y000210D02*
X040541Y000212D01*
X040594Y000218D01*
X040646Y000227D01*
X040698Y000240D01*
X040749Y000257D01*
X040799Y000278D01*
X040846Y000302D01*
X040892Y000329D01*
X040936Y000360D01*
X040978Y000393D01*
X041017Y000430D01*
X041054Y000469D01*
X041087Y000511D01*
X041118Y000555D01*
X041145Y000601D01*
X041169Y000648D01*
X041190Y000698D01*
X041207Y000749D01*
X041220Y000801D01*
X041229Y000853D01*
X041235Y000906D01*
X041237Y000960D01*
X041237Y018960D01*
X040037Y018960D02*
X040039Y019002D01*
X040045Y019044D01*
X040055Y019085D01*
X040068Y019125D01*
X040086Y019163D01*
X040106Y019200D01*
X040131Y019235D01*
X040158Y019267D01*
X040188Y019296D01*
X040221Y019323D01*
X040256Y019346D01*
X040293Y019366D01*
X040332Y019382D01*
X040372Y019395D01*
X040413Y019404D01*
X040455Y019409D01*
X040498Y019410D01*
X040540Y019407D01*
X040581Y019400D01*
X040622Y019389D01*
X040662Y019375D01*
X040700Y019357D01*
X040736Y019335D01*
X040770Y019310D01*
X040801Y019282D01*
X040830Y019251D01*
X040856Y019218D01*
X040878Y019182D01*
X040898Y019144D01*
X040913Y019105D01*
X040925Y019065D01*
X040933Y019023D01*
X040937Y018981D01*
X040937Y018939D01*
X040933Y018897D01*
X040925Y018855D01*
X040913Y018815D01*
X040898Y018776D01*
X040878Y018738D01*
X040856Y018702D01*
X040830Y018669D01*
X040801Y018638D01*
X040770Y018610D01*
X040736Y018585D01*
X040700Y018563D01*
X040662Y018545D01*
X040622Y018531D01*
X040581Y018520D01*
X040540Y018513D01*
X040498Y018510D01*
X040455Y018511D01*
X040413Y018516D01*
X040372Y018525D01*
X040332Y018538D01*
X040293Y018554D01*
X040256Y018574D01*
X040221Y018597D01*
X040188Y018624D01*
X040158Y018653D01*
X040131Y018685D01*
X040106Y018720D01*
X040086Y018757D01*
X040068Y018795D01*
X040055Y018835D01*
X040045Y018876D01*
X040039Y018918D01*
X040037Y018960D01*
X040487Y019710D02*
X040541Y019708D01*
X040594Y019702D01*
X040646Y019693D01*
X040698Y019680D01*
X040749Y019663D01*
X040799Y019642D01*
X040846Y019618D01*
X040892Y019591D01*
X040936Y019560D01*
X040978Y019527D01*
X041017Y019490D01*
X041054Y019451D01*
X041087Y019409D01*
X041118Y019365D01*
X041145Y019319D01*
X041169Y019272D01*
X041190Y019222D01*
X041207Y019171D01*
X041220Y019119D01*
X041229Y019067D01*
X041235Y019014D01*
X041237Y018960D01*
X040487Y019710D02*
X022487Y019710D01*
X022037Y018960D02*
X022039Y019002D01*
X022045Y019044D01*
X022055Y019085D01*
X022068Y019125D01*
X022086Y019163D01*
X022106Y019200D01*
X022131Y019235D01*
X022158Y019267D01*
X022188Y019296D01*
X022221Y019323D01*
X022256Y019346D01*
X022293Y019366D01*
X022332Y019382D01*
X022372Y019395D01*
X022413Y019404D01*
X022455Y019409D01*
X022498Y019410D01*
X022540Y019407D01*
X022581Y019400D01*
X022622Y019389D01*
X022662Y019375D01*
X022700Y019357D01*
X022736Y019335D01*
X022770Y019310D01*
X022801Y019282D01*
X022830Y019251D01*
X022856Y019218D01*
X022878Y019182D01*
X022898Y019144D01*
X022913Y019105D01*
X022925Y019065D01*
X022933Y019023D01*
X022937Y018981D01*
X022937Y018939D01*
X022933Y018897D01*
X022925Y018855D01*
X022913Y018815D01*
X022898Y018776D01*
X022878Y018738D01*
X022856Y018702D01*
X022830Y018669D01*
X022801Y018638D01*
X022770Y018610D01*
X022736Y018585D01*
X022700Y018563D01*
X022662Y018545D01*
X022622Y018531D01*
X022581Y018520D01*
X022540Y018513D01*
X022498Y018510D01*
X022455Y018511D01*
X022413Y018516D01*
X022372Y018525D01*
X022332Y018538D01*
X022293Y018554D01*
X022256Y018574D01*
X022221Y018597D01*
X022188Y018624D01*
X022158Y018653D01*
X022131Y018685D01*
X022106Y018720D01*
X022086Y018757D01*
X022068Y018795D01*
X022055Y018835D01*
X022045Y018876D01*
X022039Y018918D01*
X022037Y018960D01*
X021737Y018960D02*
X021737Y018460D01*
X020237Y018460D01*
X020237Y018960D01*
X019037Y018960D02*
X019039Y019002D01*
X019045Y019044D01*
X019055Y019085D01*
X019068Y019125D01*
X019086Y019163D01*
X019106Y019200D01*
X019131Y019235D01*
X019158Y019267D01*
X019188Y019296D01*
X019221Y019323D01*
X019256Y019346D01*
X019293Y019366D01*
X019332Y019382D01*
X019372Y019395D01*
X019413Y019404D01*
X019455Y019409D01*
X019498Y019410D01*
X019540Y019407D01*
X019581Y019400D01*
X019622Y019389D01*
X019662Y019375D01*
X019700Y019357D01*
X019736Y019335D01*
X019770Y019310D01*
X019801Y019282D01*
X019830Y019251D01*
X019856Y019218D01*
X019878Y019182D01*
X019898Y019144D01*
X019913Y019105D01*
X019925Y019065D01*
X019933Y019023D01*
X019937Y018981D01*
X019937Y018939D01*
X019933Y018897D01*
X019925Y018855D01*
X019913Y018815D01*
X019898Y018776D01*
X019878Y018738D01*
X019856Y018702D01*
X019830Y018669D01*
X019801Y018638D01*
X019770Y018610D01*
X019736Y018585D01*
X019700Y018563D01*
X019662Y018545D01*
X019622Y018531D01*
X019581Y018520D01*
X019540Y018513D01*
X019498Y018510D01*
X019455Y018511D01*
X019413Y018516D01*
X019372Y018525D01*
X019332Y018538D01*
X019293Y018554D01*
X019256Y018574D01*
X019221Y018597D01*
X019188Y018624D01*
X019158Y018653D01*
X019131Y018685D01*
X019106Y018720D01*
X019086Y018757D01*
X019068Y018795D01*
X019055Y018835D01*
X019045Y018876D01*
X019039Y018918D01*
X019037Y018960D01*
X019487Y019710D02*
X019541Y019708D01*
X019594Y019702D01*
X019646Y019693D01*
X019698Y019680D01*
X019749Y019663D01*
X019799Y019642D01*
X019846Y019618D01*
X019892Y019591D01*
X019936Y019560D01*
X019978Y019527D01*
X020017Y019490D01*
X020054Y019451D01*
X020087Y019409D01*
X020118Y019365D01*
X020145Y019319D01*
X020169Y019272D01*
X020190Y019222D01*
X020207Y019171D01*
X020220Y019119D01*
X020229Y019067D01*
X020235Y019014D01*
X020237Y018960D01*
X020277Y018210D02*
X020279Y018228D01*
X020284Y018245D01*
X020293Y018260D01*
X020305Y018273D01*
X020319Y018284D01*
X020336Y018291D01*
X020353Y018295D01*
X020371Y018295D01*
X020388Y018291D01*
X020404Y018284D01*
X020419Y018273D01*
X020431Y018260D01*
X020440Y018245D01*
X020445Y018228D01*
X020447Y018210D01*
X020445Y018192D01*
X020440Y018175D01*
X020431Y018160D01*
X020419Y018147D01*
X020405Y018136D01*
X020388Y018129D01*
X020371Y018125D01*
X020353Y018125D01*
X020336Y018129D01*
X020320Y018136D01*
X020305Y018147D01*
X020293Y018160D01*
X020284Y018175D01*
X020279Y018192D01*
X020277Y018210D01*
X020277Y017960D02*
X020279Y017978D01*
X020284Y017995D01*
X020293Y018010D01*
X020305Y018023D01*
X020319Y018034D01*
X020336Y018041D01*
X020353Y018045D01*
X020371Y018045D01*
X020388Y018041D01*
X020404Y018034D01*
X020419Y018023D01*
X020431Y018010D01*
X020440Y017995D01*
X020445Y017978D01*
X020447Y017960D01*
X020445Y017942D01*
X020440Y017925D01*
X020431Y017910D01*
X020419Y017897D01*
X020405Y017886D01*
X020388Y017879D01*
X020371Y017875D01*
X020353Y017875D01*
X020336Y017879D01*
X020320Y017886D01*
X020305Y017897D01*
X020293Y017910D01*
X020284Y017925D01*
X020279Y017942D01*
X020277Y017960D01*
X020277Y017710D02*
X020279Y017728D01*
X020284Y017745D01*
X020293Y017760D01*
X020305Y017773D01*
X020319Y017784D01*
X020336Y017791D01*
X020353Y017795D01*
X020371Y017795D01*
X020388Y017791D01*
X020404Y017784D01*
X020419Y017773D01*
X020431Y017760D01*
X020440Y017745D01*
X020445Y017728D01*
X020447Y017710D01*
X020445Y017692D01*
X020440Y017675D01*
X020431Y017660D01*
X020419Y017647D01*
X020405Y017636D01*
X020388Y017629D01*
X020371Y017625D01*
X020353Y017625D01*
X020336Y017629D01*
X020320Y017636D01*
X020305Y017647D01*
X020293Y017660D01*
X020284Y017675D01*
X020279Y017692D01*
X020277Y017710D01*
X020277Y017460D02*
X020279Y017478D01*
X020284Y017495D01*
X020293Y017510D01*
X020305Y017523D01*
X020319Y017534D01*
X020336Y017541D01*
X020353Y017545D01*
X020371Y017545D01*
X020388Y017541D01*
X020404Y017534D01*
X020419Y017523D01*
X020431Y017510D01*
X020440Y017495D01*
X020445Y017478D01*
X020447Y017460D01*
X020445Y017442D01*
X020440Y017425D01*
X020431Y017410D01*
X020419Y017397D01*
X020405Y017386D01*
X020388Y017379D01*
X020371Y017375D01*
X020353Y017375D01*
X020336Y017379D01*
X020320Y017386D01*
X020305Y017397D01*
X020293Y017410D01*
X020284Y017425D01*
X020279Y017442D01*
X020277Y017460D01*
X020277Y017210D02*
X020279Y017228D01*
X020284Y017245D01*
X020293Y017260D01*
X020305Y017273D01*
X020319Y017284D01*
X020336Y017291D01*
X020353Y017295D01*
X020371Y017295D01*
X020388Y017291D01*
X020404Y017284D01*
X020419Y017273D01*
X020431Y017260D01*
X020440Y017245D01*
X020445Y017228D01*
X020447Y017210D01*
X020445Y017192D01*
X020440Y017175D01*
X020431Y017160D01*
X020419Y017147D01*
X020405Y017136D01*
X020388Y017129D01*
X020371Y017125D01*
X020353Y017125D01*
X020336Y017129D01*
X020320Y017136D01*
X020305Y017147D01*
X020293Y017160D01*
X020284Y017175D01*
X020279Y017192D01*
X020277Y017210D01*
X020277Y016960D02*
X020279Y016978D01*
X020284Y016995D01*
X020293Y017010D01*
X020305Y017023D01*
X020319Y017034D01*
X020336Y017041D01*
X020353Y017045D01*
X020371Y017045D01*
X020388Y017041D01*
X020404Y017034D01*
X020419Y017023D01*
X020431Y017010D01*
X020440Y016995D01*
X020445Y016978D01*
X020447Y016960D01*
X020445Y016942D01*
X020440Y016925D01*
X020431Y016910D01*
X020419Y016897D01*
X020405Y016886D01*
X020388Y016879D01*
X020371Y016875D01*
X020353Y016875D01*
X020336Y016879D01*
X020320Y016886D01*
X020305Y016897D01*
X020293Y016910D01*
X020284Y016925D01*
X020279Y016942D01*
X020277Y016960D01*
X020277Y016710D02*
X020279Y016728D01*
X020284Y016745D01*
X020293Y016760D01*
X020305Y016773D01*
X020319Y016784D01*
X020336Y016791D01*
X020353Y016795D01*
X020371Y016795D01*
X020388Y016791D01*
X020404Y016784D01*
X020419Y016773D01*
X020431Y016760D01*
X020440Y016745D01*
X020445Y016728D01*
X020447Y016710D01*
X020445Y016692D01*
X020440Y016675D01*
X020431Y016660D01*
X020419Y016647D01*
X020405Y016636D01*
X020388Y016629D01*
X020371Y016625D01*
X020353Y016625D01*
X020336Y016629D01*
X020320Y016636D01*
X020305Y016647D01*
X020293Y016660D01*
X020284Y016675D01*
X020279Y016692D01*
X020277Y016710D01*
X020237Y016460D02*
X020237Y010960D01*
X021737Y010960D01*
X021737Y016460D01*
X020237Y016460D01*
X021527Y016710D02*
X021529Y016728D01*
X021534Y016745D01*
X021543Y016760D01*
X021555Y016773D01*
X021569Y016784D01*
X021586Y016791D01*
X021603Y016795D01*
X021621Y016795D01*
X021638Y016791D01*
X021654Y016784D01*
X021669Y016773D01*
X021681Y016760D01*
X021690Y016745D01*
X021695Y016728D01*
X021697Y016710D01*
X021695Y016692D01*
X021690Y016675D01*
X021681Y016660D01*
X021669Y016647D01*
X021655Y016636D01*
X021638Y016629D01*
X021621Y016625D01*
X021603Y016625D01*
X021586Y016629D01*
X021570Y016636D01*
X021555Y016647D01*
X021543Y016660D01*
X021534Y016675D01*
X021529Y016692D01*
X021527Y016710D01*
X021527Y016960D02*
X021529Y016978D01*
X021534Y016995D01*
X021543Y017010D01*
X021555Y017023D01*
X021569Y017034D01*
X021586Y017041D01*
X021603Y017045D01*
X021621Y017045D01*
X021638Y017041D01*
X021654Y017034D01*
X021669Y017023D01*
X021681Y017010D01*
X021690Y016995D01*
X021695Y016978D01*
X021697Y016960D01*
X021695Y016942D01*
X021690Y016925D01*
X021681Y016910D01*
X021669Y016897D01*
X021655Y016886D01*
X021638Y016879D01*
X021621Y016875D01*
X021603Y016875D01*
X021586Y016879D01*
X021570Y016886D01*
X021555Y016897D01*
X021543Y016910D01*
X021534Y016925D01*
X021529Y016942D01*
X021527Y016960D01*
X021527Y017210D02*
X021529Y017228D01*
X021534Y017245D01*
X021543Y017260D01*
X021555Y017273D01*
X021569Y017284D01*
X021586Y017291D01*
X021603Y017295D01*
X021621Y017295D01*
X021638Y017291D01*
X021654Y017284D01*
X021669Y017273D01*
X021681Y017260D01*
X021690Y017245D01*
X021695Y017228D01*
X021697Y017210D01*
X021695Y017192D01*
X021690Y017175D01*
X021681Y017160D01*
X021669Y017147D01*
X021655Y017136D01*
X021638Y017129D01*
X021621Y017125D01*
X021603Y017125D01*
X021586Y017129D01*
X021570Y017136D01*
X021555Y017147D01*
X021543Y017160D01*
X021534Y017175D01*
X021529Y017192D01*
X021527Y017210D01*
X021527Y017460D02*
X021529Y017478D01*
X021534Y017495D01*
X021543Y017510D01*
X021555Y017523D01*
X021569Y017534D01*
X021586Y017541D01*
X021603Y017545D01*
X021621Y017545D01*
X021638Y017541D01*
X021654Y017534D01*
X021669Y017523D01*
X021681Y017510D01*
X021690Y017495D01*
X021695Y017478D01*
X021697Y017460D01*
X021695Y017442D01*
X021690Y017425D01*
X021681Y017410D01*
X021669Y017397D01*
X021655Y017386D01*
X021638Y017379D01*
X021621Y017375D01*
X021603Y017375D01*
X021586Y017379D01*
X021570Y017386D01*
X021555Y017397D01*
X021543Y017410D01*
X021534Y017425D01*
X021529Y017442D01*
X021527Y017460D01*
X021527Y017710D02*
X021529Y017728D01*
X021534Y017745D01*
X021543Y017760D01*
X021555Y017773D01*
X021569Y017784D01*
X021586Y017791D01*
X021603Y017795D01*
X021621Y017795D01*
X021638Y017791D01*
X021654Y017784D01*
X021669Y017773D01*
X021681Y017760D01*
X021690Y017745D01*
X021695Y017728D01*
X021697Y017710D01*
X021695Y017692D01*
X021690Y017675D01*
X021681Y017660D01*
X021669Y017647D01*
X021655Y017636D01*
X021638Y017629D01*
X021621Y017625D01*
X021603Y017625D01*
X021586Y017629D01*
X021570Y017636D01*
X021555Y017647D01*
X021543Y017660D01*
X021534Y017675D01*
X021529Y017692D01*
X021527Y017710D01*
X021527Y017960D02*
X021529Y017978D01*
X021534Y017995D01*
X021543Y018010D01*
X021555Y018023D01*
X021569Y018034D01*
X021586Y018041D01*
X021603Y018045D01*
X021621Y018045D01*
X021638Y018041D01*
X021654Y018034D01*
X021669Y018023D01*
X021681Y018010D01*
X021690Y017995D01*
X021695Y017978D01*
X021697Y017960D01*
X021695Y017942D01*
X021690Y017925D01*
X021681Y017910D01*
X021669Y017897D01*
X021655Y017886D01*
X021638Y017879D01*
X021621Y017875D01*
X021603Y017875D01*
X021586Y017879D01*
X021570Y017886D01*
X021555Y017897D01*
X021543Y017910D01*
X021534Y017925D01*
X021529Y017942D01*
X021527Y017960D01*
X021527Y018210D02*
X021529Y018228D01*
X021534Y018245D01*
X021543Y018260D01*
X021555Y018273D01*
X021569Y018284D01*
X021586Y018291D01*
X021603Y018295D01*
X021621Y018295D01*
X021638Y018291D01*
X021654Y018284D01*
X021669Y018273D01*
X021681Y018260D01*
X021690Y018245D01*
X021695Y018228D01*
X021697Y018210D01*
X021695Y018192D01*
X021690Y018175D01*
X021681Y018160D01*
X021669Y018147D01*
X021655Y018136D01*
X021638Y018129D01*
X021621Y018125D01*
X021603Y018125D01*
X021586Y018129D01*
X021570Y018136D01*
X021555Y018147D01*
X021543Y018160D01*
X021534Y018175D01*
X021529Y018192D01*
X021527Y018210D01*
X021737Y018960D02*
X021739Y019014D01*
X021745Y019067D01*
X021754Y019119D01*
X021767Y019171D01*
X021784Y019222D01*
X021805Y019272D01*
X021829Y019319D01*
X021856Y019365D01*
X021887Y019409D01*
X021920Y019451D01*
X021957Y019490D01*
X021996Y019527D01*
X022038Y019560D01*
X022082Y019591D01*
X022128Y019618D01*
X022175Y019642D01*
X022225Y019663D01*
X022276Y019680D01*
X022328Y019693D01*
X022380Y019702D01*
X022433Y019708D01*
X022487Y019710D01*
X019487Y019710D02*
X001487Y019710D01*
X001037Y018960D02*
X001039Y019002D01*
X001045Y019044D01*
X001055Y019085D01*
X001068Y019125D01*
X001086Y019163D01*
X001106Y019200D01*
X001131Y019235D01*
X001158Y019267D01*
X001188Y019296D01*
X001221Y019323D01*
X001256Y019346D01*
X001293Y019366D01*
X001332Y019382D01*
X001372Y019395D01*
X001413Y019404D01*
X001455Y019409D01*
X001498Y019410D01*
X001540Y019407D01*
X001581Y019400D01*
X001622Y019389D01*
X001662Y019375D01*
X001700Y019357D01*
X001736Y019335D01*
X001770Y019310D01*
X001801Y019282D01*
X001830Y019251D01*
X001856Y019218D01*
X001878Y019182D01*
X001898Y019144D01*
X001913Y019105D01*
X001925Y019065D01*
X001933Y019023D01*
X001937Y018981D01*
X001937Y018939D01*
X001933Y018897D01*
X001925Y018855D01*
X001913Y018815D01*
X001898Y018776D01*
X001878Y018738D01*
X001856Y018702D01*
X001830Y018669D01*
X001801Y018638D01*
X001770Y018610D01*
X001736Y018585D01*
X001700Y018563D01*
X001662Y018545D01*
X001622Y018531D01*
X001581Y018520D01*
X001540Y018513D01*
X001498Y018510D01*
X001455Y018511D01*
X001413Y018516D01*
X001372Y018525D01*
X001332Y018538D01*
X001293Y018554D01*
X001256Y018574D01*
X001221Y018597D01*
X001188Y018624D01*
X001158Y018653D01*
X001131Y018685D01*
X001106Y018720D01*
X001086Y018757D01*
X001068Y018795D01*
X001055Y018835D01*
X001045Y018876D01*
X001039Y018918D01*
X001037Y018960D01*
X000737Y018960D02*
X000737Y000960D01*
X001037Y000960D02*
X001039Y001002D01*
X001045Y001044D01*
X001055Y001085D01*
X001068Y001125D01*
X001086Y001163D01*
X001106Y001200D01*
X001131Y001235D01*
X001158Y001267D01*
X001188Y001296D01*
X001221Y001323D01*
X001256Y001346D01*
X001293Y001366D01*
X001332Y001382D01*
X001372Y001395D01*
X001413Y001404D01*
X001455Y001409D01*
X001498Y001410D01*
X001540Y001407D01*
X001581Y001400D01*
X001622Y001389D01*
X001662Y001375D01*
X001700Y001357D01*
X001736Y001335D01*
X001770Y001310D01*
X001801Y001282D01*
X001830Y001251D01*
X001856Y001218D01*
X001878Y001182D01*
X001898Y001144D01*
X001913Y001105D01*
X001925Y001065D01*
X001933Y001023D01*
X001937Y000981D01*
X001937Y000939D01*
X001933Y000897D01*
X001925Y000855D01*
X001913Y000815D01*
X001898Y000776D01*
X001878Y000738D01*
X001856Y000702D01*
X001830Y000669D01*
X001801Y000638D01*
X001770Y000610D01*
X001736Y000585D01*
X001700Y000563D01*
X001662Y000545D01*
X001622Y000531D01*
X001581Y000520D01*
X001540Y000513D01*
X001498Y000510D01*
X001455Y000511D01*
X001413Y000516D01*
X001372Y000525D01*
X001332Y000538D01*
X001293Y000554D01*
X001256Y000574D01*
X001221Y000597D01*
X001188Y000624D01*
X001158Y000653D01*
X001131Y000685D01*
X001106Y000720D01*
X001086Y000757D01*
X001068Y000795D01*
X001055Y000835D01*
X001045Y000876D01*
X001039Y000918D01*
X001037Y000960D01*
X000737Y000960D02*
X000739Y000906D01*
X000745Y000853D01*
X000754Y000801D01*
X000767Y000749D01*
X000784Y000698D01*
X000805Y000648D01*
X000829Y000601D01*
X000856Y000555D01*
X000887Y000511D01*
X000920Y000469D01*
X000957Y000430D01*
X000996Y000393D01*
X001038Y000360D01*
X001082Y000329D01*
X001128Y000302D01*
X001175Y000278D01*
X001225Y000257D01*
X001276Y000240D01*
X001328Y000227D01*
X001380Y000218D01*
X001433Y000212D01*
X001487Y000210D01*
X020277Y001710D02*
X020279Y001728D01*
X020284Y001745D01*
X020293Y001760D01*
X020305Y001773D01*
X020319Y001784D01*
X020336Y001791D01*
X020353Y001795D01*
X020371Y001795D01*
X020388Y001791D01*
X020404Y001784D01*
X020419Y001773D01*
X020431Y001760D01*
X020440Y001745D01*
X020445Y001728D01*
X020447Y001710D01*
X020445Y001692D01*
X020440Y001675D01*
X020431Y001660D01*
X020419Y001647D01*
X020405Y001636D01*
X020388Y001629D01*
X020371Y001625D01*
X020353Y001625D01*
X020336Y001629D01*
X020320Y001636D01*
X020305Y001647D01*
X020293Y001660D01*
X020284Y001675D01*
X020279Y001692D01*
X020277Y001710D01*
X020277Y001960D02*
X020279Y001978D01*
X020284Y001995D01*
X020293Y002010D01*
X020305Y002023D01*
X020319Y002034D01*
X020336Y002041D01*
X020353Y002045D01*
X020371Y002045D01*
X020388Y002041D01*
X020404Y002034D01*
X020419Y002023D01*
X020431Y002010D01*
X020440Y001995D01*
X020445Y001978D01*
X020447Y001960D01*
X020445Y001942D01*
X020440Y001925D01*
X020431Y001910D01*
X020419Y001897D01*
X020405Y001886D01*
X020388Y001879D01*
X020371Y001875D01*
X020353Y001875D01*
X020336Y001879D01*
X020320Y001886D01*
X020305Y001897D01*
X020293Y001910D01*
X020284Y001925D01*
X020279Y001942D01*
X020277Y001960D01*
X020277Y002210D02*
X020279Y002228D01*
X020284Y002245D01*
X020293Y002260D01*
X020305Y002273D01*
X020319Y002284D01*
X020336Y002291D01*
X020353Y002295D01*
X020371Y002295D01*
X020388Y002291D01*
X020404Y002284D01*
X020419Y002273D01*
X020431Y002260D01*
X020440Y002245D01*
X020445Y002228D01*
X020447Y002210D01*
X020445Y002192D01*
X020440Y002175D01*
X020431Y002160D01*
X020419Y002147D01*
X020405Y002136D01*
X020388Y002129D01*
X020371Y002125D01*
X020353Y002125D01*
X020336Y002129D01*
X020320Y002136D01*
X020305Y002147D01*
X020293Y002160D01*
X020284Y002175D01*
X020279Y002192D01*
X020277Y002210D01*
X020277Y002460D02*
X020279Y002478D01*
X020284Y002495D01*
X020293Y002510D01*
X020305Y002523D01*
X020319Y002534D01*
X020336Y002541D01*
X020353Y002545D01*
X020371Y002545D01*
X020388Y002541D01*
X020404Y002534D01*
X020419Y002523D01*
X020431Y002510D01*
X020440Y002495D01*
X020445Y002478D01*
X020447Y002460D01*
X020445Y002442D01*
X020440Y002425D01*
X020431Y002410D01*
X020419Y002397D01*
X020405Y002386D01*
X020388Y002379D01*
X020371Y002375D01*
X020353Y002375D01*
X020336Y002379D01*
X020320Y002386D01*
X020305Y002397D01*
X020293Y002410D01*
X020284Y002425D01*
X020279Y002442D01*
X020277Y002460D01*
X020277Y002710D02*
X020279Y002728D01*
X020284Y002745D01*
X020293Y002760D01*
X020305Y002773D01*
X020319Y002784D01*
X020336Y002791D01*
X020353Y002795D01*
X020371Y002795D01*
X020388Y002791D01*
X020404Y002784D01*
X020419Y002773D01*
X020431Y002760D01*
X020440Y002745D01*
X020445Y002728D01*
X020447Y002710D01*
X020445Y002692D01*
X020440Y002675D01*
X020431Y002660D01*
X020419Y002647D01*
X020405Y002636D01*
X020388Y002629D01*
X020371Y002625D01*
X020353Y002625D01*
X020336Y002629D01*
X020320Y002636D01*
X020305Y002647D01*
X020293Y002660D01*
X020284Y002675D01*
X020279Y002692D01*
X020277Y002710D01*
X020277Y002960D02*
X020279Y002978D01*
X020284Y002995D01*
X020293Y003010D01*
X020305Y003023D01*
X020319Y003034D01*
X020336Y003041D01*
X020353Y003045D01*
X020371Y003045D01*
X020388Y003041D01*
X020404Y003034D01*
X020419Y003023D01*
X020431Y003010D01*
X020440Y002995D01*
X020445Y002978D01*
X020447Y002960D01*
X020445Y002942D01*
X020440Y002925D01*
X020431Y002910D01*
X020419Y002897D01*
X020405Y002886D01*
X020388Y002879D01*
X020371Y002875D01*
X020353Y002875D01*
X020336Y002879D01*
X020320Y002886D01*
X020305Y002897D01*
X020293Y002910D01*
X020284Y002925D01*
X020279Y002942D01*
X020277Y002960D01*
X020277Y003210D02*
X020279Y003228D01*
X020284Y003245D01*
X020293Y003260D01*
X020305Y003273D01*
X020319Y003284D01*
X020336Y003291D01*
X020353Y003295D01*
X020371Y003295D01*
X020388Y003291D01*
X020404Y003284D01*
X020419Y003273D01*
X020431Y003260D01*
X020440Y003245D01*
X020445Y003228D01*
X020447Y003210D01*
X020445Y003192D01*
X020440Y003175D01*
X020431Y003160D01*
X020419Y003147D01*
X020405Y003136D01*
X020388Y003129D01*
X020371Y003125D01*
X020353Y003125D01*
X020336Y003129D01*
X020320Y003136D01*
X020305Y003147D01*
X020293Y003160D01*
X020284Y003175D01*
X020279Y003192D01*
X020277Y003210D01*
X020237Y003460D02*
X020237Y008960D01*
X021737Y008960D01*
X021737Y003460D01*
X020237Y003460D01*
X021527Y003210D02*
X021529Y003228D01*
X021534Y003245D01*
X021543Y003260D01*
X021555Y003273D01*
X021569Y003284D01*
X021586Y003291D01*
X021603Y003295D01*
X021621Y003295D01*
X021638Y003291D01*
X021654Y003284D01*
X021669Y003273D01*
X021681Y003260D01*
X021690Y003245D01*
X021695Y003228D01*
X021697Y003210D01*
X021695Y003192D01*
X021690Y003175D01*
X021681Y003160D01*
X021669Y003147D01*
X021655Y003136D01*
X021638Y003129D01*
X021621Y003125D01*
X021603Y003125D01*
X021586Y003129D01*
X021570Y003136D01*
X021555Y003147D01*
X021543Y003160D01*
X021534Y003175D01*
X021529Y003192D01*
X021527Y003210D01*
X021527Y002960D02*
X021529Y002978D01*
X021534Y002995D01*
X021543Y003010D01*
X021555Y003023D01*
X021569Y003034D01*
X021586Y003041D01*
X021603Y003045D01*
X021621Y003045D01*
X021638Y003041D01*
X021654Y003034D01*
X021669Y003023D01*
X021681Y003010D01*
X021690Y002995D01*
X021695Y002978D01*
X021697Y002960D01*
X021695Y002942D01*
X021690Y002925D01*
X021681Y002910D01*
X021669Y002897D01*
X021655Y002886D01*
X021638Y002879D01*
X021621Y002875D01*
X021603Y002875D01*
X021586Y002879D01*
X021570Y002886D01*
X021555Y002897D01*
X021543Y002910D01*
X021534Y002925D01*
X021529Y002942D01*
X021527Y002960D01*
X021527Y002710D02*
X021529Y002728D01*
X021534Y002745D01*
X021543Y002760D01*
X021555Y002773D01*
X021569Y002784D01*
X021586Y002791D01*
X021603Y002795D01*
X021621Y002795D01*
X021638Y002791D01*
X021654Y002784D01*
X021669Y002773D01*
X021681Y002760D01*
X021690Y002745D01*
X021695Y002728D01*
X021697Y002710D01*
X021695Y002692D01*
X021690Y002675D01*
X021681Y002660D01*
X021669Y002647D01*
X021655Y002636D01*
X021638Y002629D01*
X021621Y002625D01*
X021603Y002625D01*
X021586Y002629D01*
X021570Y002636D01*
X021555Y002647D01*
X021543Y002660D01*
X021534Y002675D01*
X021529Y002692D01*
X021527Y002710D01*
X021527Y002460D02*
X021529Y002478D01*
X021534Y002495D01*
X021543Y002510D01*
X021555Y002523D01*
X021569Y002534D01*
X021586Y002541D01*
X021603Y002545D01*
X021621Y002545D01*
X021638Y002541D01*
X021654Y002534D01*
X021669Y002523D01*
X021681Y002510D01*
X021690Y002495D01*
X021695Y002478D01*
X021697Y002460D01*
X021695Y002442D01*
X021690Y002425D01*
X021681Y002410D01*
X021669Y002397D01*
X021655Y002386D01*
X021638Y002379D01*
X021621Y002375D01*
X021603Y002375D01*
X021586Y002379D01*
X021570Y002386D01*
X021555Y002397D01*
X021543Y002410D01*
X021534Y002425D01*
X021529Y002442D01*
X021527Y002460D01*
X021527Y002210D02*
X021529Y002228D01*
X021534Y002245D01*
X021543Y002260D01*
X021555Y002273D01*
X021569Y002284D01*
X021586Y002291D01*
X021603Y002295D01*
X021621Y002295D01*
X021638Y002291D01*
X021654Y002284D01*
X021669Y002273D01*
X021681Y002260D01*
X021690Y002245D01*
X021695Y002228D01*
X021697Y002210D01*
X021695Y002192D01*
X021690Y002175D01*
X021681Y002160D01*
X021669Y002147D01*
X021655Y002136D01*
X021638Y002129D01*
X021621Y002125D01*
X021603Y002125D01*
X021586Y002129D01*
X021570Y002136D01*
X021555Y002147D01*
X021543Y002160D01*
X021534Y002175D01*
X021529Y002192D01*
X021527Y002210D01*
X021527Y001960D02*
X021529Y001978D01*
X021534Y001995D01*
X021543Y002010D01*
X021555Y002023D01*
X021569Y002034D01*
X021586Y002041D01*
X021603Y002045D01*
X021621Y002045D01*
X021638Y002041D01*
X021654Y002034D01*
X021669Y002023D01*
X021681Y002010D01*
X021690Y001995D01*
X021695Y001978D01*
X021697Y001960D01*
X021695Y001942D01*
X021690Y001925D01*
X021681Y001910D01*
X021669Y001897D01*
X021655Y001886D01*
X021638Y001879D01*
X021621Y001875D01*
X021603Y001875D01*
X021586Y001879D01*
X021570Y001886D01*
X021555Y001897D01*
X021543Y001910D01*
X021534Y001925D01*
X021529Y001942D01*
X021527Y001960D01*
X021527Y001710D02*
X021529Y001728D01*
X021534Y001745D01*
X021543Y001760D01*
X021555Y001773D01*
X021569Y001784D01*
X021586Y001791D01*
X021603Y001795D01*
X021621Y001795D01*
X021638Y001791D01*
X021654Y001784D01*
X021669Y001773D01*
X021681Y001760D01*
X021690Y001745D01*
X021695Y001728D01*
X021697Y001710D01*
X021695Y001692D01*
X021690Y001675D01*
X021681Y001660D01*
X021669Y001647D01*
X021655Y001636D01*
X021638Y001629D01*
X021621Y001625D01*
X021603Y001625D01*
X021586Y001629D01*
X021570Y001636D01*
X021555Y001647D01*
X021543Y001660D01*
X021534Y001675D01*
X021529Y001692D01*
X021527Y001710D01*
X021527Y009210D02*
X021529Y009228D01*
X021534Y009245D01*
X021543Y009260D01*
X021555Y009273D01*
X021569Y009284D01*
X021586Y009291D01*
X021603Y009295D01*
X021621Y009295D01*
X021638Y009291D01*
X021654Y009284D01*
X021669Y009273D01*
X021681Y009260D01*
X021690Y009245D01*
X021695Y009228D01*
X021697Y009210D01*
X021695Y009192D01*
X021690Y009175D01*
X021681Y009160D01*
X021669Y009147D01*
X021655Y009136D01*
X021638Y009129D01*
X021621Y009125D01*
X021603Y009125D01*
X021586Y009129D01*
X021570Y009136D01*
X021555Y009147D01*
X021543Y009160D01*
X021534Y009175D01*
X021529Y009192D01*
X021527Y009210D01*
X021527Y009460D02*
X021529Y009478D01*
X021534Y009495D01*
X021543Y009510D01*
X021555Y009523D01*
X021569Y009534D01*
X021586Y009541D01*
X021603Y009545D01*
X021621Y009545D01*
X021638Y009541D01*
X021654Y009534D01*
X021669Y009523D01*
X021681Y009510D01*
X021690Y009495D01*
X021695Y009478D01*
X021697Y009460D01*
X021695Y009442D01*
X021690Y009425D01*
X021681Y009410D01*
X021669Y009397D01*
X021655Y009386D01*
X021638Y009379D01*
X021621Y009375D01*
X021603Y009375D01*
X021586Y009379D01*
X021570Y009386D01*
X021555Y009397D01*
X021543Y009410D01*
X021534Y009425D01*
X021529Y009442D01*
X021527Y009460D01*
X021527Y009710D02*
X021529Y009728D01*
X021534Y009745D01*
X021543Y009760D01*
X021555Y009773D01*
X021569Y009784D01*
X021586Y009791D01*
X021603Y009795D01*
X021621Y009795D01*
X021638Y009791D01*
X021654Y009784D01*
X021669Y009773D01*
X021681Y009760D01*
X021690Y009745D01*
X021695Y009728D01*
X021697Y009710D01*
X021695Y009692D01*
X021690Y009675D01*
X021681Y009660D01*
X021669Y009647D01*
X021655Y009636D01*
X021638Y009629D01*
X021621Y009625D01*
X021603Y009625D01*
X021586Y009629D01*
X021570Y009636D01*
X021555Y009647D01*
X021543Y009660D01*
X021534Y009675D01*
X021529Y009692D01*
X021527Y009710D01*
X021527Y009960D02*
X021529Y009978D01*
X021534Y009995D01*
X021543Y010010D01*
X021555Y010023D01*
X021569Y010034D01*
X021586Y010041D01*
X021603Y010045D01*
X021621Y010045D01*
X021638Y010041D01*
X021654Y010034D01*
X021669Y010023D01*
X021681Y010010D01*
X021690Y009995D01*
X021695Y009978D01*
X021697Y009960D01*
X021695Y009942D01*
X021690Y009925D01*
X021681Y009910D01*
X021669Y009897D01*
X021655Y009886D01*
X021638Y009879D01*
X021621Y009875D01*
X021603Y009875D01*
X021586Y009879D01*
X021570Y009886D01*
X021555Y009897D01*
X021543Y009910D01*
X021534Y009925D01*
X021529Y009942D01*
X021527Y009960D01*
X021527Y010210D02*
X021529Y010228D01*
X021534Y010245D01*
X021543Y010260D01*
X021555Y010273D01*
X021569Y010284D01*
X021586Y010291D01*
X021603Y010295D01*
X021621Y010295D01*
X021638Y010291D01*
X021654Y010284D01*
X021669Y010273D01*
X021681Y010260D01*
X021690Y010245D01*
X021695Y010228D01*
X021697Y010210D01*
X021695Y010192D01*
X021690Y010175D01*
X021681Y010160D01*
X021669Y010147D01*
X021655Y010136D01*
X021638Y010129D01*
X021621Y010125D01*
X021603Y010125D01*
X021586Y010129D01*
X021570Y010136D01*
X021555Y010147D01*
X021543Y010160D01*
X021534Y010175D01*
X021529Y010192D01*
X021527Y010210D01*
X021527Y010460D02*
X021529Y010478D01*
X021534Y010495D01*
X021543Y010510D01*
X021555Y010523D01*
X021569Y010534D01*
X021586Y010541D01*
X021603Y010545D01*
X021621Y010545D01*
X021638Y010541D01*
X021654Y010534D01*
X021669Y010523D01*
X021681Y010510D01*
X021690Y010495D01*
X021695Y010478D01*
X021697Y010460D01*
X021695Y010442D01*
X021690Y010425D01*
X021681Y010410D01*
X021669Y010397D01*
X021655Y010386D01*
X021638Y010379D01*
X021621Y010375D01*
X021603Y010375D01*
X021586Y010379D01*
X021570Y010386D01*
X021555Y010397D01*
X021543Y010410D01*
X021534Y010425D01*
X021529Y010442D01*
X021527Y010460D01*
X021527Y010710D02*
X021529Y010728D01*
X021534Y010745D01*
X021543Y010760D01*
X021555Y010773D01*
X021569Y010784D01*
X021586Y010791D01*
X021603Y010795D01*
X021621Y010795D01*
X021638Y010791D01*
X021654Y010784D01*
X021669Y010773D01*
X021681Y010760D01*
X021690Y010745D01*
X021695Y010728D01*
X021697Y010710D01*
X021695Y010692D01*
X021690Y010675D01*
X021681Y010660D01*
X021669Y010647D01*
X021655Y010636D01*
X021638Y010629D01*
X021621Y010625D01*
X021603Y010625D01*
X021586Y010629D01*
X021570Y010636D01*
X021555Y010647D01*
X021543Y010660D01*
X021534Y010675D01*
X021529Y010692D01*
X021527Y010710D01*
X020277Y010710D02*
X020279Y010728D01*
X020284Y010745D01*
X020293Y010760D01*
X020305Y010773D01*
X020319Y010784D01*
X020336Y010791D01*
X020353Y010795D01*
X020371Y010795D01*
X020388Y010791D01*
X020404Y010784D01*
X020419Y010773D01*
X020431Y010760D01*
X020440Y010745D01*
X020445Y010728D01*
X020447Y010710D01*
X020445Y010692D01*
X020440Y010675D01*
X020431Y010660D01*
X020419Y010647D01*
X020405Y010636D01*
X020388Y010629D01*
X020371Y010625D01*
X020353Y010625D01*
X020336Y010629D01*
X020320Y010636D01*
X020305Y010647D01*
X020293Y010660D01*
X020284Y010675D01*
X020279Y010692D01*
X020277Y010710D01*
X020277Y010460D02*
X020279Y010478D01*
X020284Y010495D01*
X020293Y010510D01*
X020305Y010523D01*
X020319Y010534D01*
X020336Y010541D01*
X020353Y010545D01*
X020371Y010545D01*
X020388Y010541D01*
X020404Y010534D01*
X020419Y010523D01*
X020431Y010510D01*
X020440Y010495D01*
X020445Y010478D01*
X020447Y010460D01*
X020445Y010442D01*
X020440Y010425D01*
X020431Y010410D01*
X020419Y010397D01*
X020405Y010386D01*
X020388Y010379D01*
X020371Y010375D01*
X020353Y010375D01*
X020336Y010379D01*
X020320Y010386D01*
X020305Y010397D01*
X020293Y010410D01*
X020284Y010425D01*
X020279Y010442D01*
X020277Y010460D01*
X020277Y010210D02*
X020279Y010228D01*
X020284Y010245D01*
X020293Y010260D01*
X020305Y010273D01*
X020319Y010284D01*
X020336Y010291D01*
X020353Y010295D01*
X020371Y010295D01*
X020388Y010291D01*
X020404Y010284D01*
X020419Y010273D01*
X020431Y010260D01*
X020440Y010245D01*
X020445Y010228D01*
X020447Y010210D01*
X020445Y010192D01*
X020440Y010175D01*
X020431Y010160D01*
X020419Y010147D01*
X020405Y010136D01*
X020388Y010129D01*
X020371Y010125D01*
X020353Y010125D01*
X020336Y010129D01*
X020320Y010136D01*
X020305Y010147D01*
X020293Y010160D01*
X020284Y010175D01*
X020279Y010192D01*
X020277Y010210D01*
X020277Y009960D02*
X020279Y009978D01*
X020284Y009995D01*
X020293Y010010D01*
X020305Y010023D01*
X020319Y010034D01*
X020336Y010041D01*
X020353Y010045D01*
X020371Y010045D01*
X020388Y010041D01*
X020404Y010034D01*
X020419Y010023D01*
X020431Y010010D01*
X020440Y009995D01*
X020445Y009978D01*
X020447Y009960D01*
X020445Y009942D01*
X020440Y009925D01*
X020431Y009910D01*
X020419Y009897D01*
X020405Y009886D01*
X020388Y009879D01*
X020371Y009875D01*
X020353Y009875D01*
X020336Y009879D01*
X020320Y009886D01*
X020305Y009897D01*
X020293Y009910D01*
X020284Y009925D01*
X020279Y009942D01*
X020277Y009960D01*
X020277Y009710D02*
X020279Y009728D01*
X020284Y009745D01*
X020293Y009760D01*
X020305Y009773D01*
X020319Y009784D01*
X020336Y009791D01*
X020353Y009795D01*
X020371Y009795D01*
X020388Y009791D01*
X020404Y009784D01*
X020419Y009773D01*
X020431Y009760D01*
X020440Y009745D01*
X020445Y009728D01*
X020447Y009710D01*
X020445Y009692D01*
X020440Y009675D01*
X020431Y009660D01*
X020419Y009647D01*
X020405Y009636D01*
X020388Y009629D01*
X020371Y009625D01*
X020353Y009625D01*
X020336Y009629D01*
X020320Y009636D01*
X020305Y009647D01*
X020293Y009660D01*
X020284Y009675D01*
X020279Y009692D01*
X020277Y009710D01*
X020277Y009460D02*
X020279Y009478D01*
X020284Y009495D01*
X020293Y009510D01*
X020305Y009523D01*
X020319Y009534D01*
X020336Y009541D01*
X020353Y009545D01*
X020371Y009545D01*
X020388Y009541D01*
X020404Y009534D01*
X020419Y009523D01*
X020431Y009510D01*
X020440Y009495D01*
X020445Y009478D01*
X020447Y009460D01*
X020445Y009442D01*
X020440Y009425D01*
X020431Y009410D01*
X020419Y009397D01*
X020405Y009386D01*
X020388Y009379D01*
X020371Y009375D01*
X020353Y009375D01*
X020336Y009379D01*
X020320Y009386D01*
X020305Y009397D01*
X020293Y009410D01*
X020284Y009425D01*
X020279Y009442D01*
X020277Y009460D01*
X020277Y009210D02*
X020279Y009228D01*
X020284Y009245D01*
X020293Y009260D01*
X020305Y009273D01*
X020319Y009284D01*
X020336Y009291D01*
X020353Y009295D01*
X020371Y009295D01*
X020388Y009291D01*
X020404Y009284D01*
X020419Y009273D01*
X020431Y009260D01*
X020440Y009245D01*
X020445Y009228D01*
X020447Y009210D01*
X020445Y009192D01*
X020440Y009175D01*
X020431Y009160D01*
X020419Y009147D01*
X020405Y009136D01*
X020388Y009129D01*
X020371Y009125D01*
X020353Y009125D01*
X020336Y009129D01*
X020320Y009136D01*
X020305Y009147D01*
X020293Y009160D01*
X020284Y009175D01*
X020279Y009192D01*
X020277Y009210D01*
X001487Y019710D02*
X001433Y019708D01*
X001380Y019702D01*
X001328Y019693D01*
X001276Y019680D01*
X001225Y019663D01*
X001175Y019642D01*
X001128Y019618D01*
X001082Y019591D01*
X001038Y019560D01*
X000996Y019527D01*
X000957Y019490D01*
X000920Y019451D01*
X000887Y019409D01*
X000856Y019365D01*
X000829Y019319D01*
X000805Y019272D01*
X000784Y019222D01*
X000767Y019171D01*
X000754Y019119D01*
X000745Y019067D01*
X000739Y019014D01*
X000737Y018960D01*
D11*
X002282Y016665D02*
X002282Y016392D01*
X002418Y016255D01*
X002555Y016392D01*
X002555Y016665D01*
X002742Y016665D02*
X002947Y016665D01*
X003016Y016597D01*
X003016Y016460D01*
X002947Y016392D01*
X002742Y016392D01*
X002742Y016255D02*
X002742Y016665D01*
X002794Y015665D02*
X002862Y015597D01*
X002862Y015460D01*
X002794Y015392D01*
X002589Y015392D01*
X002589Y015255D02*
X002589Y015665D01*
X002794Y015665D01*
X002418Y015665D02*
X002282Y015665D01*
X002350Y015665D02*
X002350Y015255D01*
X002282Y015255D02*
X002418Y015255D01*
X002282Y014665D02*
X002282Y014392D01*
X002418Y014255D01*
X002555Y014392D01*
X002555Y014665D01*
X002742Y014597D02*
X002742Y014323D01*
X002810Y014255D01*
X002947Y014255D01*
X003016Y014323D01*
X003016Y014597D02*
X002947Y014665D01*
X002810Y014665D01*
X002742Y014597D01*
X002742Y013665D02*
X002947Y013665D01*
X003016Y013597D01*
X003016Y013529D01*
X002947Y013460D01*
X002742Y013460D01*
X002555Y013392D02*
X002555Y013665D01*
X002742Y013665D02*
X002742Y013255D01*
X002947Y013255D01*
X003016Y013323D01*
X003016Y013392D01*
X002947Y013460D01*
X002555Y013392D02*
X002418Y013255D01*
X002282Y013392D01*
X002282Y013665D01*
X002282Y012665D02*
X002282Y012392D01*
X002418Y012255D01*
X002555Y012392D01*
X002555Y012665D01*
X002742Y012529D02*
X002879Y012665D01*
X003016Y012529D01*
X003016Y012255D01*
X003016Y012460D02*
X002742Y012460D01*
X002742Y012529D02*
X002742Y012255D01*
X002794Y011665D02*
X002657Y011665D01*
X002589Y011597D01*
X002589Y011323D01*
X002657Y011255D01*
X002794Y011255D01*
X002862Y011323D01*
X002418Y011255D02*
X002282Y011255D01*
X002350Y011255D02*
X002350Y011665D01*
X002282Y011665D02*
X002418Y011665D01*
X002794Y011665D02*
X002862Y011597D01*
X002794Y010665D02*
X002862Y010597D01*
X002862Y010529D01*
X002794Y010460D01*
X002589Y010460D01*
X002794Y010460D02*
X002862Y010392D01*
X002862Y010323D01*
X002794Y010255D01*
X002589Y010255D01*
X002589Y010665D01*
X002794Y010665D01*
X002418Y010665D02*
X002282Y010665D01*
X002350Y010665D02*
X002350Y010255D01*
X002282Y010255D02*
X002418Y010255D01*
X023282Y010255D02*
X023418Y010255D01*
X023350Y010255D02*
X023350Y010665D01*
X023282Y010665D02*
X023418Y010665D01*
X023589Y010665D02*
X023794Y010665D01*
X023862Y010597D01*
X023862Y010529D01*
X023794Y010460D01*
X023589Y010460D01*
X023794Y010460D02*
X023862Y010392D01*
X023862Y010323D01*
X023794Y010255D01*
X023589Y010255D01*
X023589Y010665D01*
X023657Y011255D02*
X023794Y011255D01*
X023862Y011323D01*
X023657Y011255D02*
X023589Y011323D01*
X023589Y011597D01*
X023657Y011665D01*
X023794Y011665D01*
X023862Y011597D01*
X023418Y011665D02*
X023282Y011665D01*
X023350Y011665D02*
X023350Y011255D01*
X023282Y011255D02*
X023418Y011255D01*
X023418Y012255D02*
X023555Y012392D01*
X023555Y012665D01*
X023742Y012529D02*
X023879Y012665D01*
X024016Y012529D01*
X024016Y012255D01*
X024016Y012460D02*
X023742Y012460D01*
X023742Y012529D02*
X023742Y012255D01*
X023418Y012255D02*
X023282Y012392D01*
X023282Y012665D01*
X023418Y013255D02*
X023555Y013392D01*
X023555Y013665D01*
X023742Y013665D02*
X023947Y013665D01*
X024016Y013597D01*
X024016Y013529D01*
X023947Y013460D01*
X023742Y013460D01*
X023742Y013255D02*
X023947Y013255D01*
X024016Y013323D01*
X024016Y013392D01*
X023947Y013460D01*
X023742Y013255D02*
X023742Y013665D01*
X023282Y013665D02*
X023282Y013392D01*
X023418Y013255D01*
X023418Y014255D02*
X023555Y014392D01*
X023555Y014665D01*
X023742Y014597D02*
X023742Y014323D01*
X023810Y014255D01*
X023947Y014255D01*
X024016Y014323D01*
X024016Y014597D02*
X023947Y014665D01*
X023810Y014665D01*
X023742Y014597D01*
X023282Y014665D02*
X023282Y014392D01*
X023418Y014255D01*
X023418Y015255D02*
X023282Y015255D01*
X023350Y015255D02*
X023350Y015665D01*
X023282Y015665D02*
X023418Y015665D01*
X023589Y015665D02*
X023794Y015665D01*
X023862Y015597D01*
X023862Y015460D01*
X023794Y015392D01*
X023589Y015392D01*
X023589Y015255D02*
X023589Y015665D01*
X023742Y016255D02*
X023742Y016665D01*
X023947Y016665D01*
X024016Y016597D01*
X024016Y016460D01*
X023947Y016392D01*
X023742Y016392D01*
X023555Y016392D02*
X023555Y016665D01*
X023282Y016665D02*
X023282Y016392D01*
X023418Y016255D01*
X023555Y016392D01*
D12*
X028417Y003515D03*
X026517Y002025D03*
X025827Y002005D03*
X007417Y003515D03*
X005517Y002025D03*
X004827Y002005D03*
D13*
X006247Y003525D03*
X007407Y003515D03*
X027247Y003525D03*
X028407Y003515D03*
D14*
X028117Y004460D03*
X028107Y004460D03*
X028097Y004460D03*
X028087Y004460D03*
X028077Y004460D03*
X028067Y004460D03*
X028057Y004460D03*
X028047Y004460D03*
X028037Y004460D03*
X028027Y004460D03*
X028017Y004460D03*
X028007Y004460D03*
X027997Y004460D03*
X027987Y004460D03*
X027977Y004460D03*
X027967Y004460D03*
X027957Y004460D03*
X027947Y004460D03*
X027937Y004460D03*
X027927Y004460D03*
X027917Y004460D03*
X027907Y004460D03*
X027897Y004460D03*
X027887Y004460D03*
X027877Y004460D03*
X027867Y004460D03*
X027857Y004460D03*
X027847Y004460D03*
X027837Y004460D03*
X027827Y004460D03*
X027817Y004460D03*
X027807Y004460D03*
X027797Y004460D03*
X027787Y004460D03*
X027777Y004460D03*
X027767Y004460D03*
X027757Y004460D03*
X027747Y004460D03*
X027737Y004460D03*
X027727Y004460D03*
X027717Y004460D03*
X027707Y004460D03*
X027697Y004460D03*
X027687Y004460D03*
X027677Y004460D03*
X027667Y004460D03*
X027657Y004460D03*
X027647Y004460D03*
X027637Y004460D03*
X027627Y004460D03*
X027617Y004460D03*
X027607Y004460D03*
X027597Y004460D03*
X027587Y004460D03*
X027577Y004460D03*
X027567Y004460D03*
X027557Y004460D03*
X027547Y004460D03*
X027537Y004460D03*
X027527Y004460D03*
X027517Y004460D03*
X027507Y004460D03*
X027497Y004460D03*
X027487Y004460D03*
X027477Y004460D03*
X027467Y004460D03*
X027457Y004460D03*
X027447Y004460D03*
X027437Y004460D03*
X027427Y004460D03*
X027417Y004460D03*
X027407Y004460D03*
X027397Y004460D03*
X027387Y004460D03*
X027377Y004460D03*
X027367Y004460D03*
X027357Y004460D03*
X027347Y004460D03*
X027337Y004460D03*
X027327Y004460D03*
X027317Y004460D03*
X027307Y004460D03*
X027297Y004460D03*
X027287Y004460D03*
X027277Y004460D03*
X027267Y004460D03*
X027257Y004460D03*
X027257Y005470D03*
X027267Y005470D03*
X027277Y005470D03*
X027287Y005470D03*
X027297Y005470D03*
X027307Y005470D03*
X027317Y005470D03*
X027327Y005470D03*
X027337Y005470D03*
X027347Y005470D03*
X027357Y005470D03*
X027367Y005470D03*
X027377Y005470D03*
X027387Y005470D03*
X027397Y005470D03*
X027407Y005470D03*
X027417Y005470D03*
X027427Y005470D03*
X027437Y005470D03*
X027447Y005470D03*
X027457Y005470D03*
X027467Y005470D03*
X027477Y005470D03*
X027487Y005470D03*
X027497Y005470D03*
X027507Y005470D03*
X027517Y005470D03*
X027527Y005470D03*
X027537Y005470D03*
X027547Y005470D03*
X027557Y005470D03*
X027567Y005470D03*
X027577Y005470D03*
X027587Y005470D03*
X027597Y005470D03*
X027607Y005470D03*
X027617Y005470D03*
X027627Y005470D03*
X027637Y005470D03*
X027647Y005470D03*
X027657Y005470D03*
X027667Y005470D03*
X027677Y005470D03*
X027687Y005470D03*
X027697Y005470D03*
X027707Y005470D03*
X027717Y005470D03*
X027727Y005470D03*
X027737Y005470D03*
X027747Y005470D03*
X027757Y005470D03*
X027767Y005470D03*
X027777Y005470D03*
X027787Y005470D03*
X027797Y005470D03*
X027807Y005470D03*
X027817Y005470D03*
X027827Y005470D03*
X027837Y005470D03*
X027847Y005470D03*
X027857Y005470D03*
X027867Y005470D03*
X027877Y005470D03*
X027887Y005470D03*
X027897Y005470D03*
X027907Y005470D03*
X027917Y005470D03*
X027927Y005470D03*
X027937Y005470D03*
X027947Y005470D03*
X027957Y005470D03*
X027967Y005470D03*
X027977Y005470D03*
X027987Y005470D03*
X027997Y005470D03*
X028007Y005470D03*
X028017Y005470D03*
X028027Y005470D03*
X028037Y005470D03*
X028047Y005470D03*
X028057Y005470D03*
X028067Y005470D03*
X028077Y005470D03*
X028087Y005470D03*
X028097Y005470D03*
X028107Y005470D03*
X028117Y005470D03*
X028117Y006470D03*
X028127Y006470D03*
X028107Y006470D03*
X028097Y006470D03*
X028087Y006470D03*
X028077Y006470D03*
X028067Y006470D03*
X028057Y006470D03*
X028047Y006470D03*
X028037Y006470D03*
X028027Y006470D03*
X028017Y006470D03*
X028007Y006470D03*
X027997Y006470D03*
X027987Y006470D03*
X027977Y006470D03*
X027967Y006470D03*
X027957Y006470D03*
X027697Y006470D03*
X027687Y006470D03*
X027677Y006470D03*
X027667Y006470D03*
X027657Y006470D03*
X027647Y006470D03*
X027637Y006470D03*
X027627Y006470D03*
X027617Y006470D03*
X027607Y006470D03*
X027597Y006470D03*
X027587Y006470D03*
X027577Y006470D03*
X027567Y006470D03*
X027557Y006470D03*
X027547Y006470D03*
X027537Y006470D03*
X027527Y006470D03*
X027537Y007570D03*
X027547Y007570D03*
X027557Y007570D03*
X027567Y007570D03*
X027577Y007570D03*
X027587Y007570D03*
X027597Y007570D03*
X027607Y007570D03*
X027617Y007570D03*
X027627Y007570D03*
X027637Y007570D03*
X027647Y007570D03*
X027657Y007570D03*
X027667Y007570D03*
X027677Y007570D03*
X027687Y007570D03*
X027697Y007570D03*
X027707Y007570D03*
X027717Y007570D03*
X027727Y007570D03*
X027737Y007570D03*
X027747Y007570D03*
X027757Y007570D03*
X027767Y007570D03*
X027777Y007570D03*
X027787Y007570D03*
X027797Y007570D03*
X028057Y007570D03*
X028067Y007570D03*
X028077Y007570D03*
X028087Y007570D03*
X028097Y007570D03*
X028107Y007570D03*
X028117Y007570D03*
X028127Y007570D03*
X028137Y007570D03*
X028147Y007570D03*
X028157Y007570D03*
X028167Y007570D03*
X028177Y007570D03*
X028187Y007570D03*
X028197Y007570D03*
X028207Y007570D03*
X028217Y007570D03*
X028227Y007570D03*
X028237Y007570D03*
X028247Y007570D03*
X028257Y007570D03*
X028267Y007570D03*
X028277Y007570D03*
X028287Y007570D03*
X028297Y007570D03*
X028307Y007570D03*
X028317Y007570D03*
X028327Y007570D03*
X028337Y007570D03*
X028347Y007570D03*
X028357Y007570D03*
X028367Y007570D03*
X028377Y007570D03*
X028387Y007570D03*
X028397Y007570D03*
X027727Y008260D03*
X027717Y008260D03*
X027697Y008270D03*
X027687Y008270D03*
X027677Y008270D03*
X027667Y008270D03*
X027657Y008270D03*
X027647Y008270D03*
X027637Y008270D03*
X027627Y008270D03*
X027627Y002620D03*
X027637Y002620D03*
X027647Y002620D03*
X027657Y002620D03*
X027667Y002620D03*
X027677Y002620D03*
X027687Y002620D03*
X027697Y002620D03*
X027717Y002610D03*
X027727Y002610D03*
X027727Y001920D03*
X027737Y001920D03*
X027747Y001920D03*
X027757Y001920D03*
X027767Y001920D03*
X027777Y001920D03*
X027787Y001920D03*
X027797Y001920D03*
X027717Y001920D03*
X027707Y001920D03*
X027697Y001920D03*
X027687Y001920D03*
X027677Y001920D03*
X027667Y001920D03*
X027657Y001920D03*
X027647Y001920D03*
X027637Y001920D03*
X027627Y001920D03*
X027617Y001920D03*
X027607Y001920D03*
X027597Y001920D03*
X027587Y001920D03*
X027577Y001920D03*
X027567Y001920D03*
X027557Y001920D03*
X027547Y001920D03*
X027537Y001920D03*
X028057Y001920D03*
X028067Y001920D03*
X028077Y001920D03*
X028087Y001920D03*
X028097Y001920D03*
X028107Y001920D03*
X028117Y001920D03*
X028127Y001920D03*
X028137Y001920D03*
X028147Y001920D03*
X028157Y001920D03*
X028167Y001920D03*
X028177Y001920D03*
X028187Y001920D03*
X028197Y001920D03*
X028207Y001920D03*
X028217Y001920D03*
X028227Y001920D03*
X028237Y001920D03*
X028247Y001920D03*
X028257Y001920D03*
X028267Y001920D03*
X028277Y001920D03*
X028287Y001920D03*
X028297Y001920D03*
X028307Y001920D03*
X028317Y001920D03*
X028327Y001920D03*
X028337Y001920D03*
X028347Y001920D03*
X028357Y001920D03*
X028367Y001920D03*
X028377Y001920D03*
X028387Y001920D03*
X028397Y001920D03*
X028397Y001120D03*
X028387Y001120D03*
X028377Y001120D03*
X028367Y001120D03*
X028357Y001120D03*
X028347Y001120D03*
X028337Y001120D03*
X028327Y001120D03*
X028317Y001120D03*
X028307Y001120D03*
X028297Y001120D03*
X028287Y001120D03*
X028277Y001120D03*
X028267Y001120D03*
X028257Y001120D03*
X028247Y001120D03*
X028237Y001120D03*
X028227Y001120D03*
X028217Y001120D03*
X028207Y001120D03*
X028197Y001120D03*
X028187Y001120D03*
X028177Y001120D03*
X028167Y001120D03*
X028157Y001120D03*
X028147Y001120D03*
X028137Y001120D03*
X028127Y001120D03*
X028117Y001120D03*
X028107Y001120D03*
X028097Y001120D03*
X028087Y001120D03*
X028077Y001120D03*
X028067Y001120D03*
X028057Y001120D03*
X028047Y001120D03*
X028037Y001120D03*
X028027Y001120D03*
X028017Y001120D03*
X028007Y001120D03*
X027997Y001120D03*
X027987Y001120D03*
X027977Y001120D03*
X027967Y001120D03*
X027957Y001120D03*
X027947Y001120D03*
X027937Y001120D03*
X027927Y001120D03*
X027917Y001120D03*
X027907Y001120D03*
X027897Y001120D03*
X027887Y001120D03*
X027877Y001120D03*
X027867Y001120D03*
X027857Y001120D03*
X027847Y001120D03*
X027837Y001120D03*
X027827Y001120D03*
X027817Y001120D03*
X027807Y001120D03*
X027797Y001120D03*
X027787Y001120D03*
X027777Y001120D03*
X027767Y001120D03*
X027757Y001120D03*
X027747Y001120D03*
X027737Y001120D03*
X027727Y001120D03*
X027717Y001120D03*
X027707Y001120D03*
X027697Y001120D03*
X027687Y001120D03*
X027677Y001120D03*
X027667Y001120D03*
X027657Y001120D03*
X027647Y001120D03*
X027637Y001120D03*
X027627Y001120D03*
X027617Y001120D03*
X027607Y001120D03*
X027597Y001120D03*
X027587Y001120D03*
X027577Y001120D03*
X027567Y001120D03*
X027557Y001120D03*
X027547Y001120D03*
X027537Y001120D03*
X025767Y002010D03*
X026577Y002030D03*
X007397Y001920D03*
X007387Y001920D03*
X007377Y001920D03*
X007367Y001920D03*
X007357Y001920D03*
X007347Y001920D03*
X007337Y001920D03*
X007327Y001920D03*
X007317Y001920D03*
X007307Y001920D03*
X007297Y001920D03*
X007287Y001920D03*
X007277Y001920D03*
X007267Y001920D03*
X007257Y001920D03*
X007247Y001920D03*
X007237Y001920D03*
X007227Y001920D03*
X007217Y001920D03*
X007207Y001920D03*
X007197Y001920D03*
X007187Y001920D03*
X007177Y001920D03*
X007167Y001920D03*
X007157Y001920D03*
X007147Y001920D03*
X007137Y001920D03*
X007127Y001920D03*
X007117Y001920D03*
X007107Y001920D03*
X007097Y001920D03*
X007087Y001920D03*
X007077Y001920D03*
X007067Y001920D03*
X007057Y001920D03*
X006797Y001920D03*
X006787Y001920D03*
X006777Y001920D03*
X006767Y001920D03*
X006757Y001920D03*
X006747Y001920D03*
X006737Y001920D03*
X006727Y001920D03*
X006717Y001920D03*
X006707Y001920D03*
X006697Y001920D03*
X006687Y001920D03*
X006677Y001920D03*
X006667Y001920D03*
X006657Y001920D03*
X006647Y001920D03*
X006637Y001920D03*
X006627Y001920D03*
X006617Y001920D03*
X006607Y001920D03*
X006597Y001920D03*
X006587Y001920D03*
X006577Y001920D03*
X006567Y001920D03*
X006557Y001920D03*
X006547Y001920D03*
X006537Y001920D03*
X005577Y002030D03*
X004767Y002010D03*
X006627Y002620D03*
X006637Y002620D03*
X006647Y002620D03*
X006657Y002620D03*
X006667Y002620D03*
X006677Y002620D03*
X006687Y002620D03*
X006697Y002620D03*
X006717Y002610D03*
X006727Y002610D03*
X006727Y001120D03*
X006737Y001120D03*
X006747Y001120D03*
X006757Y001120D03*
X006767Y001120D03*
X006777Y001120D03*
X006787Y001120D03*
X006797Y001120D03*
X006807Y001120D03*
X006817Y001120D03*
X006827Y001120D03*
X006837Y001120D03*
X006847Y001120D03*
X006857Y001120D03*
X006867Y001120D03*
X006877Y001120D03*
X006887Y001120D03*
X006897Y001120D03*
X006907Y001120D03*
X006917Y001120D03*
X006927Y001120D03*
X006937Y001120D03*
X006947Y001120D03*
X006957Y001120D03*
X006967Y001120D03*
X006977Y001120D03*
X006987Y001120D03*
X006997Y001120D03*
X007007Y001120D03*
X007017Y001120D03*
X007027Y001120D03*
X007037Y001120D03*
X007047Y001120D03*
X007057Y001120D03*
X007067Y001120D03*
X007077Y001120D03*
X007087Y001120D03*
X007097Y001120D03*
X007107Y001120D03*
X007117Y001120D03*
X007127Y001120D03*
X007137Y001120D03*
X007147Y001120D03*
X007157Y001120D03*
X007167Y001120D03*
X007177Y001120D03*
X007187Y001120D03*
X007197Y001120D03*
X007207Y001120D03*
X007217Y001120D03*
X007227Y001120D03*
X007237Y001120D03*
X007247Y001120D03*
X007257Y001120D03*
X007267Y001120D03*
X007277Y001120D03*
X007287Y001120D03*
X007297Y001120D03*
X007307Y001120D03*
X007317Y001120D03*
X007327Y001120D03*
X007337Y001120D03*
X007347Y001120D03*
X007357Y001120D03*
X007367Y001120D03*
X007377Y001120D03*
X007387Y001120D03*
X007397Y001120D03*
X006717Y001120D03*
X006707Y001120D03*
X006697Y001120D03*
X006687Y001120D03*
X006677Y001120D03*
X006667Y001120D03*
X006657Y001120D03*
X006647Y001120D03*
X006637Y001120D03*
X006627Y001120D03*
X006617Y001120D03*
X006607Y001120D03*
X006597Y001120D03*
X006587Y001120D03*
X006577Y001120D03*
X006567Y001120D03*
X006557Y001120D03*
X006547Y001120D03*
X006537Y001120D03*
X006537Y004460D03*
X006547Y004460D03*
X006557Y004460D03*
X006567Y004460D03*
X006577Y004460D03*
X006587Y004460D03*
X006597Y004460D03*
X006607Y004460D03*
X006617Y004460D03*
X006627Y004460D03*
X006637Y004460D03*
X006647Y004460D03*
X006657Y004460D03*
X006667Y004460D03*
X006677Y004460D03*
X006687Y004460D03*
X006697Y004460D03*
X006707Y004460D03*
X006717Y004460D03*
X006727Y004460D03*
X006737Y004460D03*
X006747Y004460D03*
X006757Y004460D03*
X006767Y004460D03*
X006777Y004460D03*
X006787Y004460D03*
X006797Y004460D03*
X006807Y004460D03*
X006817Y004460D03*
X006827Y004460D03*
X006837Y004460D03*
X006847Y004460D03*
X006857Y004460D03*
X006867Y004460D03*
X006877Y004460D03*
X006887Y004460D03*
X006897Y004460D03*
X006907Y004460D03*
X006917Y004460D03*
X006927Y004460D03*
X006937Y004460D03*
X006947Y004460D03*
X006957Y004460D03*
X006967Y004460D03*
X006977Y004460D03*
X006987Y004460D03*
X006997Y004460D03*
X007007Y004460D03*
X007017Y004460D03*
X007027Y004460D03*
X007037Y004460D03*
X007047Y004460D03*
X007057Y004460D03*
X007067Y004460D03*
X007077Y004460D03*
X007087Y004460D03*
X007097Y004460D03*
X007107Y004460D03*
X007117Y004460D03*
X006527Y004460D03*
X006517Y004460D03*
X006507Y004460D03*
X006497Y004460D03*
X006487Y004460D03*
X006477Y004460D03*
X006467Y004460D03*
X006457Y004460D03*
X006447Y004460D03*
X006437Y004460D03*
X006427Y004460D03*
X006417Y004460D03*
X006407Y004460D03*
X006397Y004460D03*
X006387Y004460D03*
X006377Y004460D03*
X006367Y004460D03*
X006357Y004460D03*
X006347Y004460D03*
X006337Y004460D03*
X006327Y004460D03*
X006317Y004460D03*
X006307Y004460D03*
X006297Y004460D03*
X006287Y004460D03*
X006277Y004460D03*
X006267Y004460D03*
X006257Y004460D03*
X006257Y005470D03*
X006267Y005470D03*
X006277Y005470D03*
X006287Y005470D03*
X006297Y005470D03*
X006307Y005470D03*
X006317Y005470D03*
X006327Y005470D03*
X006337Y005470D03*
X006347Y005470D03*
X006357Y005470D03*
X006367Y005470D03*
X006377Y005470D03*
X006387Y005470D03*
X006397Y005470D03*
X006407Y005470D03*
X006417Y005470D03*
X006427Y005470D03*
X006437Y005470D03*
X006447Y005470D03*
X006457Y005470D03*
X006467Y005470D03*
X006477Y005470D03*
X006487Y005470D03*
X006497Y005470D03*
X006507Y005470D03*
X006517Y005470D03*
X006527Y005470D03*
X006537Y005470D03*
X006547Y005470D03*
X006557Y005470D03*
X006567Y005470D03*
X006577Y005470D03*
X006587Y005470D03*
X006597Y005470D03*
X006607Y005470D03*
X006617Y005470D03*
X006627Y005470D03*
X006637Y005470D03*
X006647Y005470D03*
X006657Y005470D03*
X006667Y005470D03*
X006677Y005470D03*
X006687Y005470D03*
X006697Y005470D03*
X006707Y005470D03*
X006717Y005470D03*
X006727Y005470D03*
X006737Y005470D03*
X006747Y005470D03*
X006757Y005470D03*
X006767Y005470D03*
X006777Y005470D03*
X006787Y005470D03*
X006797Y005470D03*
X006807Y005470D03*
X006817Y005470D03*
X006827Y005470D03*
X006837Y005470D03*
X006847Y005470D03*
X006857Y005470D03*
X006867Y005470D03*
X006877Y005470D03*
X006887Y005470D03*
X006897Y005470D03*
X006907Y005470D03*
X006917Y005470D03*
X006927Y005470D03*
X006937Y005470D03*
X006947Y005470D03*
X006957Y005470D03*
X006967Y005470D03*
X006977Y005470D03*
X006987Y005470D03*
X006997Y005470D03*
X007007Y005470D03*
X007017Y005470D03*
X007027Y005470D03*
X007037Y005470D03*
X007047Y005470D03*
X007057Y005470D03*
X007067Y005470D03*
X007077Y005470D03*
X007087Y005470D03*
X007097Y005470D03*
X007107Y005470D03*
X007117Y005470D03*
X007117Y006470D03*
X007127Y006470D03*
X007107Y006470D03*
X007097Y006470D03*
X007087Y006470D03*
X007077Y006470D03*
X007067Y006470D03*
X007057Y006470D03*
X007047Y006470D03*
X007037Y006470D03*
X007027Y006470D03*
X007017Y006470D03*
X007007Y006470D03*
X006997Y006470D03*
X006987Y006470D03*
X006977Y006470D03*
X006967Y006470D03*
X006957Y006470D03*
X006697Y006470D03*
X006687Y006470D03*
X006677Y006470D03*
X006667Y006470D03*
X006657Y006470D03*
X006647Y006470D03*
X006637Y006470D03*
X006627Y006470D03*
X006617Y006470D03*
X006607Y006470D03*
X006597Y006470D03*
X006587Y006470D03*
X006577Y006470D03*
X006567Y006470D03*
X006557Y006470D03*
X006547Y006470D03*
X006537Y006470D03*
X006527Y006470D03*
X006537Y007570D03*
X006547Y007570D03*
X006557Y007570D03*
X006567Y007570D03*
X006577Y007570D03*
X006587Y007570D03*
X006597Y007570D03*
X006607Y007570D03*
X006617Y007570D03*
X006627Y007570D03*
X006637Y007570D03*
X006647Y007570D03*
X006657Y007570D03*
X006667Y007570D03*
X006677Y007570D03*
X006687Y007570D03*
X006697Y007570D03*
X006707Y007570D03*
X006717Y007570D03*
X006727Y007570D03*
X006737Y007570D03*
X006747Y007570D03*
X006757Y007570D03*
X006767Y007570D03*
X006777Y007570D03*
X006787Y007570D03*
X006797Y007570D03*
X007057Y007570D03*
X007067Y007570D03*
X007077Y007570D03*
X007087Y007570D03*
X007097Y007570D03*
X007107Y007570D03*
X007117Y007570D03*
X007127Y007570D03*
X007137Y007570D03*
X007147Y007570D03*
X007157Y007570D03*
X007167Y007570D03*
X007177Y007570D03*
X007187Y007570D03*
X007197Y007570D03*
X007207Y007570D03*
X007217Y007570D03*
X007227Y007570D03*
X007237Y007570D03*
X007247Y007570D03*
X007257Y007570D03*
X007267Y007570D03*
X007277Y007570D03*
X007287Y007570D03*
X007297Y007570D03*
X007307Y007570D03*
X007317Y007570D03*
X007327Y007570D03*
X007337Y007570D03*
X007347Y007570D03*
X007357Y007570D03*
X007367Y007570D03*
X007377Y007570D03*
X007387Y007570D03*
X007397Y007570D03*
X006727Y008260D03*
X006717Y008260D03*
X006697Y008270D03*
X006687Y008270D03*
X006677Y008270D03*
X006667Y008270D03*
X006657Y008270D03*
X006647Y008270D03*
X006637Y008270D03*
X006627Y008270D03*
D15*
X006557Y008235D03*
X007057Y008055D03*
X007077Y008065D03*
X007087Y008075D03*
X007107Y008085D03*
X007117Y008095D03*
X007137Y008105D03*
X007147Y008115D03*
X007157Y008125D03*
X007167Y008125D03*
X007177Y008135D03*
X007187Y008145D03*
X007197Y008145D03*
X007207Y008155D03*
X007217Y008165D03*
X007227Y008165D03*
X007237Y008175D03*
X007247Y008185D03*
X007257Y008185D03*
X007267Y008195D03*
X007277Y008205D03*
X007287Y008205D03*
X007297Y008215D03*
X007307Y008225D03*
X007317Y008225D03*
X007327Y008235D03*
X007337Y008245D03*
X007347Y008245D03*
X007357Y008255D03*
X007367Y008265D03*
X007387Y008275D03*
X007397Y008285D03*
X007047Y003915D03*
X007057Y003905D03*
X006627Y003925D03*
X006617Y003915D03*
X007397Y003515D03*
X007037Y003125D03*
X007027Y003115D03*
X006607Y003125D03*
X006597Y003135D03*
X007397Y002635D03*
X007387Y002625D03*
X007367Y002615D03*
X007357Y002605D03*
X007347Y002595D03*
X007337Y002595D03*
X007327Y002585D03*
X007317Y002575D03*
X007307Y002575D03*
X007297Y002565D03*
X007287Y002555D03*
X007277Y002555D03*
X007267Y002545D03*
X007257Y002535D03*
X007247Y002535D03*
X007237Y002525D03*
X007227Y002515D03*
X007217Y002515D03*
X007207Y002505D03*
X007197Y002495D03*
X007187Y002495D03*
X007177Y002485D03*
X007167Y002475D03*
X007157Y002475D03*
X007147Y002465D03*
X007137Y002455D03*
X007117Y002445D03*
X007107Y002435D03*
X007087Y002425D03*
X007077Y002415D03*
X007057Y002405D03*
X006557Y002585D03*
X004747Y002005D03*
X004227Y001605D03*
X006127Y001585D03*
X025227Y001605D03*
X025747Y002005D03*
X027127Y001585D03*
X028057Y002405D03*
X028077Y002415D03*
X028087Y002425D03*
X028107Y002435D03*
X028117Y002445D03*
X028137Y002455D03*
X028147Y002465D03*
X028157Y002475D03*
X028167Y002475D03*
X028177Y002485D03*
X028187Y002495D03*
X028197Y002495D03*
X028207Y002505D03*
X028217Y002515D03*
X028227Y002515D03*
X028237Y002525D03*
X028247Y002535D03*
X028257Y002535D03*
X028267Y002545D03*
X028277Y002555D03*
X028287Y002555D03*
X028297Y002565D03*
X028307Y002575D03*
X028317Y002575D03*
X028327Y002585D03*
X028337Y002595D03*
X028347Y002595D03*
X028357Y002605D03*
X028367Y002615D03*
X028387Y002625D03*
X028397Y002635D03*
X028027Y003115D03*
X028037Y003125D03*
X027607Y003125D03*
X027597Y003135D03*
X028397Y003515D03*
X028057Y003905D03*
X028047Y003915D03*
X027627Y003925D03*
X027617Y003915D03*
X027557Y002585D03*
X028057Y008055D03*
X028077Y008065D03*
X028087Y008075D03*
X028107Y008085D03*
X028117Y008095D03*
X028137Y008105D03*
X028147Y008115D03*
X028157Y008125D03*
X028167Y008125D03*
X028177Y008135D03*
X028187Y008145D03*
X028197Y008145D03*
X028207Y008155D03*
X028217Y008165D03*
X028227Y008165D03*
X028237Y008175D03*
X028247Y008185D03*
X028257Y008185D03*
X028267Y008195D03*
X028277Y008205D03*
X028287Y008205D03*
X028297Y008215D03*
X028307Y008225D03*
X028317Y008225D03*
X028327Y008235D03*
X028337Y008245D03*
X028347Y008245D03*
X028357Y008255D03*
X028367Y008265D03*
X028387Y008275D03*
X028397Y008285D03*
X027557Y008235D03*
D16*
X027337Y007850D03*
X027947Y007850D03*
X026567Y008000D03*
X025747Y007110D03*
X024137Y007460D03*
X028127Y005750D03*
X028137Y005750D03*
X028147Y005750D03*
X028157Y005750D03*
X028167Y005750D03*
X028177Y005750D03*
X028187Y005750D03*
X028197Y005750D03*
X028207Y005750D03*
X028217Y005750D03*
X028227Y005750D03*
X028237Y005750D03*
X028247Y005750D03*
X028257Y005750D03*
X028267Y005750D03*
X028277Y005750D03*
X028287Y005750D03*
X028297Y005750D03*
X028307Y005750D03*
X028317Y005750D03*
X028327Y005750D03*
X028337Y005750D03*
X028347Y005750D03*
X028357Y005750D03*
X028367Y005750D03*
X028377Y005750D03*
X028387Y005750D03*
X028397Y005750D03*
X028397Y004740D03*
X028387Y004740D03*
X028377Y004740D03*
X028367Y004740D03*
X028357Y004740D03*
X028347Y004740D03*
X028337Y004740D03*
X028327Y004740D03*
X028317Y004740D03*
X028307Y004740D03*
X028297Y004740D03*
X028287Y004740D03*
X028277Y004740D03*
X028267Y004740D03*
X028257Y004740D03*
X028247Y004740D03*
X028237Y004740D03*
X028227Y004740D03*
X028217Y004740D03*
X028207Y004740D03*
X028197Y004740D03*
X028187Y004740D03*
X028177Y004740D03*
X028167Y004740D03*
X028157Y004740D03*
X028147Y004740D03*
X028137Y004740D03*
X028127Y004740D03*
X023647Y003520D03*
X023637Y003520D03*
X027337Y002200D03*
X027947Y002200D03*
X027047Y001590D03*
X025307Y001600D03*
X007397Y004740D03*
X007387Y004740D03*
X007377Y004740D03*
X007367Y004740D03*
X007357Y004740D03*
X007347Y004740D03*
X007337Y004740D03*
X007327Y004740D03*
X007317Y004740D03*
X007307Y004740D03*
X007297Y004740D03*
X007287Y004740D03*
X007277Y004740D03*
X007267Y004740D03*
X007257Y004740D03*
X007247Y004740D03*
X007237Y004740D03*
X007227Y004740D03*
X007217Y004740D03*
X007207Y004740D03*
X007197Y004740D03*
X007187Y004740D03*
X007177Y004740D03*
X007167Y004740D03*
X007157Y004740D03*
X007147Y004740D03*
X007137Y004740D03*
X007127Y004740D03*
X007127Y005750D03*
X007137Y005750D03*
X007147Y005750D03*
X007157Y005750D03*
X007167Y005750D03*
X007177Y005750D03*
X007187Y005750D03*
X007197Y005750D03*
X007207Y005750D03*
X007217Y005750D03*
X007227Y005750D03*
X007237Y005750D03*
X007247Y005750D03*
X007257Y005750D03*
X007267Y005750D03*
X007277Y005750D03*
X007287Y005750D03*
X007297Y005750D03*
X007307Y005750D03*
X007317Y005750D03*
X007327Y005750D03*
X007337Y005750D03*
X007347Y005750D03*
X007357Y005750D03*
X007367Y005750D03*
X007377Y005750D03*
X007387Y005750D03*
X007397Y005750D03*
X004747Y007110D03*
X005567Y008000D03*
X006337Y007850D03*
X006947Y007850D03*
X003137Y007460D03*
X002647Y003520D03*
X002637Y003520D03*
X006337Y002200D03*
X006947Y002200D03*
X006047Y001590D03*
X004307Y001600D03*
D17*
X006397Y002230D03*
X006887Y002230D03*
X006037Y003500D03*
X002717Y003520D03*
X002707Y003520D03*
X007137Y006780D03*
X007147Y006780D03*
X007157Y006780D03*
X007167Y006780D03*
X007177Y006780D03*
X007187Y006780D03*
X007197Y006780D03*
X007207Y006780D03*
X007217Y006780D03*
X007227Y006780D03*
X007237Y006780D03*
X007247Y006780D03*
X007257Y006780D03*
X007267Y006780D03*
X007277Y006780D03*
X007287Y006780D03*
X007297Y006780D03*
X007307Y006780D03*
X007317Y006780D03*
X007327Y006780D03*
X007337Y006780D03*
X007347Y006780D03*
X007357Y006780D03*
X007367Y006780D03*
X007377Y006780D03*
X007387Y006780D03*
X007397Y006780D03*
X006887Y007880D03*
X006397Y007880D03*
X005497Y007970D03*
X004827Y007140D03*
X004817Y007140D03*
X003087Y007460D03*
X023707Y003520D03*
X023717Y003520D03*
X027037Y003500D03*
X027397Y002230D03*
X027887Y002230D03*
X028137Y006780D03*
X028147Y006780D03*
X028157Y006780D03*
X028167Y006780D03*
X028177Y006780D03*
X028187Y006780D03*
X028197Y006780D03*
X028207Y006780D03*
X028217Y006780D03*
X028227Y006780D03*
X028237Y006780D03*
X028247Y006780D03*
X028257Y006780D03*
X028267Y006780D03*
X028277Y006780D03*
X028287Y006780D03*
X028297Y006780D03*
X028307Y006780D03*
X028317Y006780D03*
X028327Y006780D03*
X028337Y006780D03*
X028347Y006780D03*
X028357Y006780D03*
X028367Y006780D03*
X028377Y006780D03*
X028387Y006780D03*
X028397Y006780D03*
X027887Y007880D03*
X027397Y007880D03*
X026497Y007970D03*
X025827Y007140D03*
X025817Y007140D03*
X024087Y007460D03*
D18*
X028117Y003840D03*
X028387Y003520D03*
X027537Y003200D03*
X027267Y003520D03*
X026617Y002030D03*
X025727Y002000D03*
X007387Y003520D03*
X007117Y003840D03*
X006267Y003520D03*
X006537Y003200D03*
X005617Y002030D03*
X004727Y002000D03*
D19*
X006777Y002580D03*
X007377Y002620D03*
X007017Y003110D03*
X006997Y003100D03*
X006637Y003110D03*
X006627Y003120D03*
X006617Y003120D03*
X006637Y003930D03*
X006657Y003940D03*
X007017Y003930D03*
X007027Y003920D03*
X007037Y003920D03*
X006777Y008230D03*
X007377Y008270D03*
X027637Y003930D03*
X027657Y003940D03*
X028017Y003930D03*
X028027Y003920D03*
X028037Y003920D03*
X028017Y003110D03*
X027997Y003100D03*
X027637Y003110D03*
X027627Y003120D03*
X027617Y003120D03*
X027777Y002580D03*
X028377Y002620D03*
X027777Y008230D03*
X028377Y008270D03*
D20*
X027067Y008195D03*
X025257Y006915D03*
X027277Y003525D03*
X028377Y003515D03*
X007377Y003515D03*
X006277Y003525D03*
X004257Y006915D03*
X006067Y008195D03*
D21*
X006007Y008170D03*
X005997Y008170D03*
X004127Y007460D03*
X004117Y007460D03*
X004107Y007460D03*
X004097Y007460D03*
X004087Y007460D03*
X004077Y007460D03*
X004067Y007460D03*
X004057Y007460D03*
X004047Y007460D03*
X004037Y007460D03*
X004027Y007460D03*
X004017Y007460D03*
X004007Y007460D03*
X003997Y007460D03*
X003987Y007460D03*
X003977Y007460D03*
X003967Y007460D03*
X003957Y007460D03*
X003947Y007460D03*
X003937Y007460D03*
X003927Y007460D03*
X003917Y007460D03*
X003907Y007460D03*
X003897Y007460D03*
X003887Y007460D03*
X003877Y007460D03*
X003867Y007460D03*
X003857Y007460D03*
X003847Y007460D03*
X003837Y007460D03*
X003827Y007460D03*
X003817Y007460D03*
X003807Y007460D03*
X003797Y007460D03*
X003787Y007460D03*
X003777Y007460D03*
X003767Y007460D03*
X003757Y007460D03*
X003747Y007460D03*
X003737Y007460D03*
X003727Y007460D03*
X003717Y007460D03*
X003707Y007460D03*
X003697Y007460D03*
X003687Y007460D03*
X003677Y007460D03*
X003667Y007460D03*
X003657Y007460D03*
X003647Y007460D03*
X003637Y007460D03*
X003627Y007460D03*
X003617Y007460D03*
X003607Y007460D03*
X003597Y007460D03*
X003587Y007460D03*
X003577Y007460D03*
X003567Y007460D03*
X003557Y007460D03*
X003547Y007460D03*
X003537Y007460D03*
X003527Y007460D03*
X003517Y007460D03*
X003507Y007460D03*
X003497Y007460D03*
X003487Y007460D03*
X003477Y007460D03*
X003467Y007460D03*
X003457Y007460D03*
X003447Y007460D03*
X003437Y007460D03*
X003427Y007460D03*
X003417Y007460D03*
X003407Y007460D03*
X004317Y006940D03*
X004837Y006150D03*
X004847Y006150D03*
X004857Y006150D03*
X005017Y006140D03*
X005027Y006140D03*
X005037Y006130D03*
X003567Y006220D03*
X003557Y006220D03*
X003547Y006220D03*
X003537Y006220D03*
X003477Y006210D03*
X003447Y006200D03*
X003427Y006190D03*
X002947Y006060D03*
X002767Y006130D03*
X002757Y006130D03*
X002747Y006130D03*
X004987Y004220D03*
X004997Y004220D03*
X005007Y004220D03*
X005017Y004230D03*
X005027Y004230D03*
X005037Y004230D03*
X005047Y004230D03*
X005087Y004240D03*
X005097Y004240D03*
X005317Y004230D03*
X005327Y004230D03*
X005337Y004230D03*
X005347Y004220D03*
X005357Y004220D03*
X005367Y004220D03*
X005397Y004210D03*
X006107Y003500D03*
X006287Y003520D03*
X007367Y003520D03*
X005367Y002790D03*
X005357Y002790D03*
X005347Y002790D03*
X005337Y002780D03*
X005327Y002780D03*
X005317Y002780D03*
X005307Y002780D03*
X005267Y002770D03*
X005257Y002770D03*
X005037Y002780D03*
X005027Y002780D03*
X005017Y002780D03*
X004997Y002790D03*
X004987Y002790D03*
X004957Y002800D03*
X003567Y002100D03*
X003557Y002100D03*
X003547Y002100D03*
X003537Y002100D03*
X003477Y002090D03*
X003447Y002080D03*
X003427Y002070D03*
X002947Y001940D03*
X002767Y002010D03*
X002757Y002010D03*
X002747Y002010D03*
X004977Y000910D03*
X004987Y000910D03*
X004997Y000910D03*
X005017Y000900D03*
X005027Y000900D03*
X005037Y000900D03*
X005087Y000890D03*
X005257Y000890D03*
X005267Y000890D03*
X005317Y000900D03*
X005327Y000900D03*
X005337Y000900D03*
X005347Y000900D03*
X005357Y000910D03*
X005367Y000910D03*
X005377Y000910D03*
X003377Y003040D03*
X003367Y003040D03*
X003357Y003050D03*
X003347Y003050D03*
X003337Y003050D03*
X003327Y003060D03*
X003317Y003060D03*
X003307Y003070D03*
X003297Y003070D03*
X003287Y003070D03*
X003277Y003080D03*
X003267Y003080D03*
X003257Y003090D03*
X003247Y003090D03*
X003227Y003100D03*
X003217Y003100D03*
X003197Y003110D03*
X003177Y003120D03*
X003147Y003130D03*
X003127Y003140D03*
X003077Y003160D03*
X002247Y003520D03*
X002237Y003520D03*
X002227Y003520D03*
X002867Y003790D03*
X002887Y003800D03*
X002897Y003800D03*
X002917Y003810D03*
X002937Y003820D03*
X002947Y003820D03*
X002957Y003830D03*
X002967Y003830D03*
X002987Y003840D03*
X002997Y003840D03*
X003007Y003850D03*
X003017Y003850D03*
X003037Y003860D03*
X003047Y003860D03*
X003057Y003870D03*
X003067Y003870D03*
X003087Y003880D03*
X003097Y003880D03*
X003107Y003890D03*
X003117Y003890D03*
X003137Y003900D03*
X003157Y003910D03*
X003167Y003910D03*
X003187Y003920D03*
X003207Y003930D03*
X003237Y003940D03*
X004247Y003510D03*
X023227Y003520D03*
X023237Y003520D03*
X023247Y003520D03*
X023867Y003790D03*
X023887Y003800D03*
X023897Y003800D03*
X023917Y003810D03*
X023937Y003820D03*
X023947Y003820D03*
X023957Y003830D03*
X023967Y003830D03*
X023987Y003840D03*
X023997Y003840D03*
X024007Y003850D03*
X024017Y003850D03*
X024037Y003860D03*
X024047Y003860D03*
X024057Y003870D03*
X024067Y003870D03*
X024087Y003880D03*
X024097Y003880D03*
X024107Y003890D03*
X024117Y003890D03*
X024137Y003900D03*
X024157Y003910D03*
X024167Y003910D03*
X024187Y003920D03*
X024207Y003930D03*
X024237Y003940D03*
X025247Y003510D03*
X024377Y003040D03*
X024367Y003040D03*
X024357Y003050D03*
X024347Y003050D03*
X024337Y003050D03*
X024327Y003060D03*
X024317Y003060D03*
X024307Y003070D03*
X024297Y003070D03*
X024287Y003070D03*
X024277Y003080D03*
X024267Y003080D03*
X024257Y003090D03*
X024247Y003090D03*
X024227Y003100D03*
X024217Y003100D03*
X024197Y003110D03*
X024177Y003120D03*
X024147Y003130D03*
X024127Y003140D03*
X024077Y003160D03*
X025957Y002800D03*
X025987Y002790D03*
X025997Y002790D03*
X026017Y002780D03*
X026027Y002780D03*
X026037Y002780D03*
X026257Y002770D03*
X026267Y002770D03*
X026307Y002780D03*
X026317Y002780D03*
X026327Y002780D03*
X026337Y002780D03*
X026347Y002790D03*
X026357Y002790D03*
X026367Y002790D03*
X027107Y003500D03*
X027287Y003520D03*
X028367Y003520D03*
X026397Y004210D03*
X026367Y004220D03*
X026357Y004220D03*
X026347Y004220D03*
X026337Y004230D03*
X026327Y004230D03*
X026317Y004230D03*
X026097Y004240D03*
X026087Y004240D03*
X026047Y004230D03*
X026037Y004230D03*
X026027Y004230D03*
X026017Y004230D03*
X026007Y004220D03*
X025997Y004220D03*
X025987Y004220D03*
X023947Y006060D03*
X023767Y006130D03*
X023757Y006130D03*
X023747Y006130D03*
X024427Y006190D03*
X024447Y006200D03*
X024477Y006210D03*
X024537Y006220D03*
X024547Y006220D03*
X024557Y006220D03*
X024567Y006220D03*
X025837Y006150D03*
X025847Y006150D03*
X025857Y006150D03*
X026017Y006140D03*
X026027Y006140D03*
X026037Y006130D03*
X025317Y006940D03*
X025127Y007460D03*
X025117Y007460D03*
X025107Y007460D03*
X025097Y007460D03*
X025087Y007460D03*
X025077Y007460D03*
X025067Y007460D03*
X025057Y007460D03*
X025047Y007460D03*
X025037Y007460D03*
X025027Y007460D03*
X025017Y007460D03*
X025007Y007460D03*
X024997Y007460D03*
X024987Y007460D03*
X024977Y007460D03*
X024967Y007460D03*
X024957Y007460D03*
X024947Y007460D03*
X024937Y007460D03*
X024927Y007460D03*
X024917Y007460D03*
X024907Y007460D03*
X024897Y007460D03*
X024887Y007460D03*
X024877Y007460D03*
X024867Y007460D03*
X024857Y007460D03*
X024847Y007460D03*
X024837Y007460D03*
X024827Y007460D03*
X024817Y007460D03*
X024807Y007460D03*
X024797Y007460D03*
X024787Y007460D03*
X024777Y007460D03*
X024767Y007460D03*
X024757Y007460D03*
X024747Y007460D03*
X024737Y007460D03*
X024727Y007460D03*
X024717Y007460D03*
X024707Y007460D03*
X024697Y007460D03*
X024687Y007460D03*
X024677Y007460D03*
X024667Y007460D03*
X024657Y007460D03*
X024647Y007460D03*
X024637Y007460D03*
X024627Y007460D03*
X024617Y007460D03*
X024607Y007460D03*
X024597Y007460D03*
X024587Y007460D03*
X024577Y007460D03*
X024567Y007460D03*
X024557Y007460D03*
X024547Y007460D03*
X024537Y007460D03*
X024527Y007460D03*
X024517Y007460D03*
X024507Y007460D03*
X024497Y007460D03*
X024487Y007460D03*
X024477Y007460D03*
X024467Y007460D03*
X024457Y007460D03*
X024447Y007460D03*
X024437Y007460D03*
X024427Y007460D03*
X024417Y007460D03*
X024407Y007460D03*
X026997Y008170D03*
X027007Y008170D03*
X024567Y002100D03*
X024557Y002100D03*
X024547Y002100D03*
X024537Y002100D03*
X024477Y002090D03*
X024447Y002080D03*
X024427Y002070D03*
X023947Y001940D03*
X023767Y002010D03*
X023757Y002010D03*
X023747Y002010D03*
X025977Y000910D03*
X025987Y000910D03*
X025997Y000910D03*
X026017Y000900D03*
X026027Y000900D03*
X026037Y000900D03*
X026087Y000890D03*
X026257Y000890D03*
X026267Y000890D03*
X026317Y000900D03*
X026327Y000900D03*
X026337Y000900D03*
X026347Y000900D03*
X026357Y000910D03*
X026367Y000910D03*
X026377Y000910D03*
D22*
X026497Y000960D03*
X026517Y000970D03*
X025857Y000960D03*
X025847Y000970D03*
X025837Y000970D03*
X023697Y001990D03*
X024387Y002040D03*
X024637Y002080D03*
X025847Y002850D03*
X026487Y002840D03*
X026507Y002850D03*
X027297Y003520D03*
X028357Y003520D03*
X026507Y004160D03*
X025887Y004180D03*
X025867Y004170D03*
X025847Y004160D03*
X025127Y004300D03*
X025117Y004300D03*
X025097Y004290D03*
X025077Y004280D03*
X025067Y004280D03*
X025047Y004270D03*
X025027Y004260D03*
X025017Y004260D03*
X024997Y004250D03*
X024977Y004240D03*
X024957Y004230D03*
X024947Y004230D03*
X024927Y004220D03*
X024907Y004210D03*
X024877Y004200D03*
X024857Y004190D03*
X024807Y004170D03*
X023287Y003520D03*
X023277Y003520D03*
X023697Y006110D03*
X024387Y006160D03*
X024637Y006200D03*
X025767Y006120D03*
X026087Y006100D03*
X025367Y006960D03*
X024377Y007460D03*
X023907Y007750D03*
X023877Y007770D03*
X023857Y007780D03*
X023837Y007790D03*
X023827Y007800D03*
X023807Y007810D03*
X023787Y007820D03*
X023777Y007830D03*
X023767Y007830D03*
X023757Y007840D03*
X023747Y007850D03*
X023737Y007850D03*
X023727Y007860D03*
X023717Y007860D03*
X023707Y007870D03*
X023687Y007880D03*
X023677Y007890D03*
X023667Y007890D03*
X023657Y007900D03*
X023637Y007910D03*
X023617Y007920D03*
X023607Y007930D03*
X023587Y007940D03*
X023537Y007970D03*
X023907Y007170D03*
X023887Y007160D03*
X023867Y007150D03*
X023837Y007130D03*
X023817Y007120D03*
X026947Y008150D03*
X026957Y008150D03*
X007357Y003520D03*
X006297Y003520D03*
X005507Y004160D03*
X004887Y004180D03*
X004867Y004170D03*
X004847Y004160D03*
X004127Y004300D03*
X004117Y004300D03*
X004097Y004290D03*
X004077Y004280D03*
X004067Y004280D03*
X004047Y004270D03*
X004027Y004260D03*
X004017Y004260D03*
X003997Y004250D03*
X003977Y004240D03*
X003957Y004230D03*
X003947Y004230D03*
X003927Y004220D03*
X003907Y004210D03*
X003877Y004200D03*
X003857Y004190D03*
X003807Y004170D03*
X002287Y003520D03*
X002277Y003520D03*
X004847Y002850D03*
X005487Y002840D03*
X005507Y002850D03*
X003637Y002080D03*
X003387Y002040D03*
X002697Y001990D03*
X004837Y000970D03*
X004847Y000970D03*
X004857Y000960D03*
X005497Y000960D03*
X005517Y000970D03*
X005087Y006100D03*
X004767Y006120D03*
X003637Y006200D03*
X003387Y006160D03*
X002697Y006110D03*
X004367Y006960D03*
X003377Y007460D03*
X002907Y007750D03*
X002877Y007770D03*
X002857Y007780D03*
X002837Y007790D03*
X002827Y007800D03*
X002807Y007810D03*
X002787Y007820D03*
X002777Y007830D03*
X002767Y007830D03*
X002757Y007840D03*
X002747Y007850D03*
X002737Y007850D03*
X002727Y007860D03*
X002717Y007860D03*
X002707Y007870D03*
X002687Y007880D03*
X002677Y007890D03*
X002667Y007890D03*
X002657Y007900D03*
X002637Y007910D03*
X002617Y007920D03*
X002607Y007930D03*
X002587Y007940D03*
X002537Y007970D03*
X002907Y007170D03*
X002887Y007160D03*
X002867Y007150D03*
X002837Y007130D03*
X002817Y007120D03*
X005947Y008150D03*
X005957Y008150D03*
D23*
X005897Y008130D03*
X004417Y006980D03*
X003347Y007460D03*
X002257Y006790D03*
X002227Y006770D03*
X002677Y006090D03*
X003367Y006130D03*
X003667Y006180D03*
X005117Y006070D03*
X004787Y004120D03*
X005567Y004120D03*
X005577Y004110D03*
X006097Y003500D03*
X006307Y003520D03*
X007347Y003520D03*
X005567Y002890D03*
X005557Y002880D03*
X004787Y002890D03*
X004777Y002900D03*
X004257Y003510D03*
X002337Y003520D03*
X002327Y003520D03*
X003667Y002060D03*
X003367Y002010D03*
X002677Y001970D03*
X004777Y001010D03*
X005567Y001000D03*
X005577Y001010D03*
X023327Y003520D03*
X023337Y003520D03*
X025257Y003510D03*
X025777Y002900D03*
X025787Y002890D03*
X026557Y002880D03*
X026567Y002890D03*
X027097Y003500D03*
X027307Y003520D03*
X028347Y003520D03*
X026577Y004110D03*
X026567Y004120D03*
X025787Y004120D03*
X026117Y006070D03*
X024667Y006180D03*
X024367Y006130D03*
X023677Y006090D03*
X023227Y006770D03*
X023257Y006790D03*
X024347Y007460D03*
X025417Y006980D03*
X026897Y008130D03*
X024667Y002060D03*
X024367Y002010D03*
X023677Y001970D03*
X025777Y001010D03*
X026567Y001000D03*
X026577Y001010D03*
D24*
X026617Y001050D03*
X025737Y001050D03*
X026667Y001990D03*
X026607Y002930D03*
X025737Y002940D03*
X027317Y003520D03*
X028337Y003520D03*
X026617Y004070D03*
X025747Y004080D03*
X023387Y003520D03*
X023377Y003520D03*
X024357Y001980D03*
X025717Y006070D03*
X024357Y006100D03*
X025467Y007000D03*
X024317Y007460D03*
X026847Y008110D03*
X007337Y003520D03*
X006317Y003520D03*
X005617Y004070D03*
X004747Y004080D03*
X004737Y002940D03*
X005607Y002930D03*
X005667Y001990D03*
X005617Y001050D03*
X004737Y001050D03*
X003357Y001980D03*
X002387Y003520D03*
X002377Y003520D03*
X004717Y006070D03*
X003357Y006100D03*
X004467Y007000D03*
X003317Y007460D03*
X005847Y008110D03*
D25*
X005817Y008095D03*
X005807Y008095D03*
X004507Y007015D03*
X003287Y007455D03*
X003697Y006135D03*
X006327Y003525D03*
X007327Y003515D03*
X003697Y002015D03*
X004267Y001605D03*
X004717Y001075D03*
X005637Y001075D03*
X006087Y001585D03*
X024287Y007455D03*
X025507Y007015D03*
X024697Y006135D03*
X026807Y008095D03*
X026817Y008095D03*
X027327Y003525D03*
X028327Y003515D03*
X024697Y002015D03*
X025267Y001605D03*
X025717Y001075D03*
X026637Y001075D03*
X027087Y001585D03*
D26*
X025697Y002990D03*
X027337Y003520D03*
X028317Y003520D03*
X025707Y004030D03*
X023457Y003520D03*
X023447Y003520D03*
X025547Y007030D03*
X024267Y007460D03*
X026767Y008080D03*
X026777Y008080D03*
X007317Y003520D03*
X006337Y003520D03*
X004707Y004030D03*
X004697Y002990D03*
X002457Y003520D03*
X002447Y003520D03*
X004547Y007030D03*
X003267Y007460D03*
X005767Y008080D03*
X005777Y008080D03*
D27*
X005737Y008065D03*
X006277Y007785D03*
X004587Y007045D03*
X004577Y007045D03*
X003237Y007455D03*
X006347Y003525D03*
X007307Y003515D03*
X006277Y002135D03*
X024237Y007455D03*
X025577Y007045D03*
X025587Y007045D03*
X027277Y007785D03*
X026737Y008065D03*
X027347Y003525D03*
X028307Y003515D03*
X027277Y002135D03*
D28*
X027287Y002150D03*
X026667Y001130D03*
X027357Y003520D03*
X028297Y003520D03*
X023527Y003520D03*
X023517Y003520D03*
X025617Y007060D03*
X025627Y007060D03*
X024217Y007460D03*
X026697Y008050D03*
X027287Y007800D03*
X007297Y003520D03*
X006357Y003520D03*
X006287Y002150D03*
X005667Y001130D03*
X002527Y003520D03*
X002517Y003520D03*
X004617Y007060D03*
X004627Y007060D03*
X003217Y007460D03*
X005697Y008050D03*
X006287Y007800D03*
D29*
X005677Y008040D03*
X005667Y008040D03*
X007007Y007810D03*
X007017Y007810D03*
X004647Y007070D03*
X003197Y007460D03*
X002547Y003520D03*
X002537Y003520D03*
X004287Y003510D03*
X006067Y003500D03*
X006367Y003520D03*
X007287Y003520D03*
X007017Y002160D03*
X007007Y002160D03*
X004287Y001600D03*
X023537Y003520D03*
X023547Y003520D03*
X025287Y003510D03*
X027067Y003500D03*
X027367Y003520D03*
X028287Y003520D03*
X028017Y002160D03*
X028007Y002160D03*
X025287Y001600D03*
X025647Y007070D03*
X024197Y007460D03*
X026667Y008040D03*
X026677Y008040D03*
X028007Y007810D03*
X028017Y007810D03*
D30*
X027977Y007825D03*
X027307Y007825D03*
X026637Y008025D03*
X025687Y007085D03*
X024177Y007455D03*
X028277Y003515D03*
X027977Y002175D03*
X027307Y002175D03*
X007277Y003515D03*
X006977Y002175D03*
X006307Y002175D03*
X004687Y007085D03*
X003177Y007455D03*
X005637Y008025D03*
X006307Y007825D03*
X006977Y007825D03*
D31*
X006967Y007835D03*
X005607Y008015D03*
X004707Y007095D03*
X003157Y007455D03*
X004297Y003505D03*
X006387Y003525D03*
X007267Y003515D03*
X006967Y002185D03*
X024157Y007455D03*
X025707Y007095D03*
X026607Y008015D03*
X027967Y007835D03*
X028267Y003515D03*
X027387Y003525D03*
X025297Y003505D03*
X027967Y002185D03*
D32*
X028257Y003515D03*
X027397Y003525D03*
X023627Y003525D03*
X027707Y006745D03*
X027717Y006745D03*
X027727Y006745D03*
X027737Y006745D03*
X027747Y006745D03*
X027757Y006745D03*
X027767Y006745D03*
X027777Y006745D03*
X027787Y006745D03*
X027797Y006745D03*
X027807Y006745D03*
X027817Y006745D03*
X027827Y006745D03*
X027837Y006745D03*
X027847Y006745D03*
X027857Y006745D03*
X027867Y006745D03*
X027877Y006745D03*
X027887Y006745D03*
X027897Y006745D03*
X027907Y006745D03*
X027917Y006745D03*
X027927Y006745D03*
X027937Y006745D03*
X027947Y006745D03*
X025737Y007105D03*
X026577Y008005D03*
X026587Y008005D03*
X007257Y003515D03*
X006397Y003525D03*
X002627Y003525D03*
X006707Y006745D03*
X006717Y006745D03*
X006727Y006745D03*
X006737Y006745D03*
X006747Y006745D03*
X006757Y006745D03*
X006767Y006745D03*
X006777Y006745D03*
X006787Y006745D03*
X006797Y006745D03*
X006807Y006745D03*
X006817Y006745D03*
X006827Y006745D03*
X006837Y006745D03*
X006847Y006745D03*
X006857Y006745D03*
X006867Y006745D03*
X006877Y006745D03*
X006887Y006745D03*
X006897Y006745D03*
X006907Y006745D03*
X006917Y006745D03*
X006927Y006745D03*
X006937Y006745D03*
X006947Y006745D03*
X004737Y007105D03*
X005577Y008005D03*
X005587Y008005D03*
D33*
X005557Y007995D03*
X006347Y007855D03*
X006937Y007855D03*
X004757Y007115D03*
X003127Y007455D03*
X004307Y003505D03*
X006047Y003505D03*
X007247Y003515D03*
X006937Y002205D03*
X006347Y002205D03*
X024127Y007455D03*
X025757Y007115D03*
X026557Y007995D03*
X027347Y007855D03*
X027937Y007855D03*
X028247Y003515D03*
X027047Y003505D03*
X025307Y003505D03*
X027347Y002205D03*
X027937Y002205D03*
D34*
X027917Y002215D03*
X027367Y002215D03*
X027417Y003525D03*
X028237Y003515D03*
X025787Y007125D03*
X026527Y007985D03*
X026537Y007985D03*
X027367Y007865D03*
X027917Y007865D03*
X024107Y007455D03*
X007237Y003515D03*
X006417Y003525D03*
X006367Y002215D03*
X006917Y002215D03*
X004787Y007125D03*
X005527Y007985D03*
X005537Y007985D03*
X006367Y007865D03*
X006917Y007865D03*
X003107Y007455D03*
D35*
X004807Y007135D03*
X006257Y006775D03*
X006267Y006775D03*
X006277Y006775D03*
X006287Y006775D03*
X006297Y006775D03*
X006307Y006775D03*
X006317Y006775D03*
X006327Y006775D03*
X006337Y006775D03*
X006347Y006775D03*
X006357Y006775D03*
X006367Y006775D03*
X006377Y006775D03*
X006387Y006775D03*
X006397Y006775D03*
X006407Y006775D03*
X006417Y006775D03*
X006427Y006775D03*
X006437Y006775D03*
X006447Y006775D03*
X006457Y006775D03*
X006467Y006775D03*
X006477Y006775D03*
X006487Y006775D03*
X006497Y006775D03*
X006507Y006775D03*
X006517Y006775D03*
X006387Y007875D03*
X006897Y007875D03*
X005507Y007975D03*
X006427Y003525D03*
X007227Y003515D03*
X006897Y002225D03*
X006387Y002225D03*
X004317Y003505D03*
X025317Y003505D03*
X027427Y003525D03*
X028227Y003515D03*
X027897Y002225D03*
X027387Y002225D03*
X027387Y006775D03*
X027397Y006775D03*
X027407Y006775D03*
X027417Y006775D03*
X027427Y006775D03*
X027437Y006775D03*
X027447Y006775D03*
X027457Y006775D03*
X027467Y006775D03*
X027477Y006775D03*
X027487Y006775D03*
X027497Y006775D03*
X027507Y006775D03*
X027517Y006775D03*
X027377Y006775D03*
X027367Y006775D03*
X027357Y006775D03*
X027347Y006775D03*
X027337Y006775D03*
X027327Y006775D03*
X027317Y006775D03*
X027307Y006775D03*
X027297Y006775D03*
X027287Y006775D03*
X027277Y006775D03*
X027267Y006775D03*
X027257Y006775D03*
X025807Y007135D03*
X026507Y007975D03*
X027387Y007875D03*
X027897Y007875D03*
D36*
X027877Y007885D03*
X027417Y007885D03*
X027407Y007885D03*
X026487Y007965D03*
X026477Y007965D03*
X025837Y007145D03*
X024077Y007455D03*
X027437Y003525D03*
X028217Y003515D03*
X027877Y002235D03*
X027417Y002235D03*
X027407Y002235D03*
X007217Y003515D03*
X006437Y003525D03*
X006417Y002235D03*
X006407Y002235D03*
X006877Y002235D03*
X004837Y007145D03*
X005477Y007965D03*
X005487Y007965D03*
X006407Y007885D03*
X006417Y007885D03*
X006877Y007885D03*
X003077Y007455D03*
D37*
X003057Y007455D03*
X004857Y007155D03*
X005457Y007955D03*
X006437Y007895D03*
X006447Y007895D03*
X006837Y007895D03*
X006847Y007895D03*
X007207Y003515D03*
X006847Y002245D03*
X006837Y002245D03*
X006447Y002245D03*
X006437Y002245D03*
X024057Y007455D03*
X025857Y007155D03*
X026457Y007955D03*
X027437Y007895D03*
X027447Y007895D03*
X027837Y007895D03*
X027847Y007895D03*
X028207Y003515D03*
X027847Y002245D03*
X027837Y002245D03*
X027447Y002245D03*
X027437Y002245D03*
D38*
X027457Y002250D03*
X027467Y002250D03*
X027817Y002250D03*
X027827Y002250D03*
X028197Y003520D03*
X027457Y003520D03*
X027027Y003500D03*
X025327Y003510D03*
X023767Y003520D03*
X023757Y003520D03*
X023747Y003520D03*
X025867Y007160D03*
X025877Y007160D03*
X026437Y007950D03*
X026447Y007950D03*
X027457Y007900D03*
X027467Y007900D03*
X027817Y007900D03*
X027827Y007900D03*
X024047Y007460D03*
X007197Y003520D03*
X006457Y003520D03*
X006027Y003500D03*
X004327Y003510D03*
X002767Y003520D03*
X002757Y003520D03*
X002747Y003520D03*
X006457Y002250D03*
X006467Y002250D03*
X006817Y002250D03*
X006827Y002250D03*
X004877Y007160D03*
X004867Y007160D03*
X005437Y007950D03*
X005447Y007950D03*
X006457Y007900D03*
X006467Y007900D03*
X006817Y007900D03*
X006827Y007900D03*
X003047Y007460D03*
D39*
X003037Y007460D03*
X004897Y007170D03*
X005417Y007940D03*
X006497Y007910D03*
X006507Y007910D03*
X006517Y007910D03*
X004257Y005270D03*
X002787Y003520D03*
X002777Y003520D03*
X006467Y003520D03*
X007187Y003520D03*
X006517Y002260D03*
X006507Y002260D03*
X006497Y002260D03*
X004337Y001600D03*
X006257Y001120D03*
X006267Y001120D03*
X006277Y001120D03*
X006287Y001120D03*
X006297Y001120D03*
X006307Y001120D03*
X006317Y001120D03*
X006327Y001120D03*
X006337Y001120D03*
X006347Y001120D03*
X006357Y001120D03*
X006367Y001120D03*
X006377Y001120D03*
X006387Y001120D03*
X006397Y001120D03*
X006407Y001120D03*
X006417Y001120D03*
X006427Y001120D03*
X006437Y001120D03*
X006447Y001120D03*
X006457Y001120D03*
X006467Y001120D03*
X006477Y001120D03*
X006487Y001120D03*
X006497Y001120D03*
X006507Y001120D03*
X006517Y001120D03*
X006527Y001120D03*
X023777Y003520D03*
X023787Y003520D03*
X025257Y005270D03*
X025897Y007170D03*
X026417Y007940D03*
X027497Y007910D03*
X027507Y007910D03*
X027517Y007910D03*
X024037Y007460D03*
X027467Y003520D03*
X028187Y003520D03*
X027517Y002260D03*
X027507Y002260D03*
X027497Y002260D03*
X025337Y001600D03*
X027257Y001120D03*
X027267Y001120D03*
X027277Y001120D03*
X027287Y001120D03*
X027297Y001120D03*
X027307Y001120D03*
X027317Y001120D03*
X027327Y001120D03*
X027337Y001120D03*
X027347Y001120D03*
X027357Y001120D03*
X027367Y001120D03*
X027377Y001120D03*
X027387Y001120D03*
X027397Y001120D03*
X027407Y001120D03*
X027417Y001120D03*
X027427Y001120D03*
X027437Y001120D03*
X027447Y001120D03*
X027457Y001120D03*
X027467Y001120D03*
X027477Y001120D03*
X027487Y001120D03*
X027497Y001120D03*
X027507Y001120D03*
X027517Y001120D03*
X027527Y001120D03*
D40*
X027527Y002265D03*
X028177Y003515D03*
X025337Y003505D03*
X025907Y007175D03*
X025917Y007175D03*
X026407Y007935D03*
X027527Y007915D03*
X024027Y007455D03*
X007177Y003515D03*
X006527Y002265D03*
X004337Y003505D03*
X004907Y007175D03*
X004917Y007175D03*
X005407Y007935D03*
X006527Y007915D03*
X003027Y007455D03*
D41*
X004937Y007185D03*
X005377Y007925D03*
X007167Y003515D03*
X006007Y001585D03*
X025937Y007185D03*
X026377Y007925D03*
X028167Y003515D03*
X027007Y001585D03*
D42*
X025347Y001600D03*
X023837Y003520D03*
X023827Y003520D03*
X023817Y003520D03*
X027007Y003500D03*
X027497Y003520D03*
X028157Y003520D03*
X025947Y007190D03*
X026367Y007920D03*
X024007Y007460D03*
X023997Y007460D03*
X007157Y003520D03*
X006497Y003520D03*
X006007Y003500D03*
X002837Y003520D03*
X002827Y003520D03*
X002817Y003520D03*
X004347Y001600D03*
X004947Y007190D03*
X005367Y007920D03*
X003007Y007460D03*
X002997Y007460D03*
D43*
X002987Y007460D03*
X004977Y007200D03*
X005337Y007910D03*
X005347Y007910D03*
X006507Y003520D03*
X006517Y003520D03*
X007137Y003520D03*
X007147Y003520D03*
X005997Y001590D03*
X004357Y001600D03*
X002847Y003520D03*
X023847Y003520D03*
X027507Y003520D03*
X027517Y003520D03*
X028137Y003520D03*
X028147Y003520D03*
X026997Y001590D03*
X025357Y001600D03*
X025977Y007200D03*
X026337Y007910D03*
X026347Y007910D03*
X023987Y007460D03*
D44*
X027547Y008230D03*
X027787Y008220D03*
X028067Y008060D03*
X028097Y008080D03*
X028127Y008100D03*
X027607Y003910D03*
X027597Y003900D03*
X027257Y003520D03*
X028047Y003130D03*
X027787Y002570D03*
X027547Y002580D03*
X028067Y002410D03*
X028097Y002430D03*
X028127Y002450D03*
X026597Y002030D03*
X007127Y002450D03*
X007097Y002430D03*
X007067Y002410D03*
X006787Y002570D03*
X006547Y002580D03*
X005597Y002030D03*
X007047Y003130D03*
X006257Y003520D03*
X006597Y003900D03*
X006607Y003910D03*
X007067Y008060D03*
X007097Y008080D03*
X007127Y008100D03*
X006787Y008220D03*
X006547Y008230D03*
D45*
X006077Y008200D03*
X006527Y003820D03*
X007127Y003820D03*
X007127Y003220D03*
X004237Y001600D03*
X025237Y001600D03*
X028127Y003220D03*
X028127Y003820D03*
X027527Y003820D03*
X027077Y008200D03*
D46*
X027097Y008210D03*
X027537Y003840D03*
X027117Y003500D03*
X028117Y003200D03*
X007117Y003200D03*
X006117Y003500D03*
X006537Y003840D03*
X006097Y008210D03*
D47*
X006547Y003855D03*
X007107Y003855D03*
X007107Y003185D03*
X006547Y003185D03*
X027547Y003185D03*
X028107Y003185D03*
X028107Y003855D03*
X027547Y003855D03*
D48*
X027557Y003870D03*
X028097Y003170D03*
X007097Y003170D03*
X006557Y003870D03*
D49*
X006567Y003875D03*
X007097Y003865D03*
X007087Y003165D03*
X006557Y003175D03*
X006537Y002565D03*
X006537Y008215D03*
X027537Y008215D03*
X027567Y003875D03*
X028097Y003865D03*
X028087Y003165D03*
X027557Y003175D03*
X027537Y002565D03*
D50*
X027797Y002550D03*
X027567Y003160D03*
X028077Y003150D03*
X028087Y003880D03*
X027577Y003890D03*
X026607Y002030D03*
X025737Y002010D03*
X027797Y008200D03*
X006797Y008200D03*
X006577Y003890D03*
X007087Y003880D03*
X007077Y003150D03*
X006567Y003160D03*
X006797Y002550D03*
X005607Y002030D03*
X004737Y002010D03*
D51*
X006577Y003155D03*
X006587Y003145D03*
X007057Y003135D03*
X007067Y003145D03*
X007077Y003885D03*
X007067Y003895D03*
X006587Y003895D03*
X027587Y003895D03*
X028067Y003895D03*
X028077Y003885D03*
X028067Y003145D03*
X028057Y003135D03*
X027587Y003145D03*
X027577Y003155D03*
D52*
X027377Y003520D03*
X028037Y002170D03*
X028047Y002170D03*
X023577Y003520D03*
X023567Y003520D03*
X023557Y003520D03*
X025667Y007080D03*
X025677Y007080D03*
X026647Y008030D03*
X028037Y007820D03*
X028047Y007820D03*
X007047Y007820D03*
X007037Y007820D03*
X005647Y008030D03*
X004677Y007080D03*
X004667Y007080D03*
X006377Y003520D03*
X007037Y002170D03*
X007047Y002170D03*
X002577Y003520D03*
X002567Y003520D03*
X002557Y003520D03*
D53*
X004677Y003965D03*
X005677Y003965D03*
X005677Y003045D03*
X004677Y003045D03*
X006297Y002165D03*
X006987Y002165D03*
X007027Y002165D03*
X004657Y007075D03*
X003187Y007455D03*
X005657Y008035D03*
X006297Y007815D03*
X006987Y007815D03*
X007027Y007815D03*
X024187Y007455D03*
X025657Y007075D03*
X027297Y007815D03*
X027987Y007815D03*
X028027Y007815D03*
X026657Y008035D03*
X026677Y003965D03*
X025677Y003965D03*
X025677Y003045D03*
X026677Y003045D03*
X027297Y002165D03*
X027987Y002165D03*
X028027Y002165D03*
D54*
X027767Y002585D03*
X027757Y002595D03*
X027567Y002595D03*
X026587Y002035D03*
X027647Y003105D03*
X027667Y003095D03*
X027677Y003095D03*
X027957Y003085D03*
X027977Y003095D03*
X027987Y003095D03*
X028007Y003105D03*
X028007Y003935D03*
X027987Y003945D03*
X027977Y003945D03*
X027697Y003955D03*
X027677Y003945D03*
X027667Y003945D03*
X027647Y003935D03*
X027767Y008235D03*
X027757Y008245D03*
X027567Y008245D03*
X006767Y008235D03*
X006757Y008245D03*
X006567Y008245D03*
X006697Y003955D03*
X006677Y003945D03*
X006667Y003945D03*
X006647Y003935D03*
X006977Y003945D03*
X006987Y003945D03*
X007007Y003935D03*
X007007Y003105D03*
X006987Y003095D03*
X006977Y003095D03*
X006957Y003085D03*
X006677Y003095D03*
X006667Y003095D03*
X006647Y003105D03*
X006567Y002595D03*
X006757Y002595D03*
X006767Y002585D03*
X005587Y002035D03*
D55*
X006067Y001585D03*
X006997Y002155D03*
X004637Y007065D03*
X003207Y007455D03*
X005687Y008045D03*
X006997Y007805D03*
X024207Y007455D03*
X025637Y007065D03*
X026687Y008045D03*
X027997Y007805D03*
X027997Y002155D03*
X027067Y001585D03*
D56*
X025757Y002010D03*
X027577Y002600D03*
X027587Y002610D03*
X027597Y002610D03*
X027747Y002600D03*
X027757Y003070D03*
X027717Y003080D03*
X027707Y003080D03*
X027697Y003090D03*
X027687Y003090D03*
X027657Y003100D03*
X027897Y003070D03*
X027927Y003080D03*
X027937Y003080D03*
X027947Y003080D03*
X027967Y003090D03*
X027127Y003500D03*
X027687Y003950D03*
X027707Y003960D03*
X027717Y003960D03*
X027727Y003960D03*
X027757Y003970D03*
X027937Y003960D03*
X027947Y003960D03*
X027957Y003950D03*
X027967Y003950D03*
X027997Y003940D03*
X027747Y008250D03*
X027597Y008260D03*
X027587Y008260D03*
X027577Y008250D03*
X006747Y008250D03*
X006597Y008260D03*
X006587Y008260D03*
X006577Y008250D03*
X006757Y003970D03*
X006727Y003960D03*
X006717Y003960D03*
X006707Y003960D03*
X006687Y003950D03*
X006937Y003960D03*
X006947Y003960D03*
X006957Y003950D03*
X006967Y003950D03*
X006997Y003940D03*
X006127Y003500D03*
X006657Y003100D03*
X006687Y003090D03*
X006697Y003090D03*
X006707Y003080D03*
X006717Y003080D03*
X006757Y003070D03*
X006897Y003070D03*
X006927Y003080D03*
X006937Y003080D03*
X006947Y003080D03*
X006967Y003090D03*
X006747Y002600D03*
X006597Y002610D03*
X006587Y002610D03*
X006577Y002600D03*
X004757Y002010D03*
D57*
X006327Y002190D03*
X006957Y002190D03*
X002617Y003520D03*
X002607Y003520D03*
X004717Y007100D03*
X004727Y007100D03*
X005597Y008010D03*
X006327Y007840D03*
X006957Y007840D03*
X003147Y007460D03*
X023607Y003520D03*
X023617Y003520D03*
X027327Y002190D03*
X027957Y002190D03*
X025727Y007100D03*
X025717Y007100D03*
X026597Y008010D03*
X027327Y007840D03*
X027957Y007840D03*
X024147Y007460D03*
D58*
X024117Y007460D03*
X025767Y007120D03*
X025777Y007120D03*
X026547Y007990D03*
X027357Y007860D03*
X027927Y007860D03*
X027407Y003520D03*
X027357Y002210D03*
X027927Y002210D03*
X023667Y003520D03*
X023657Y003520D03*
X006927Y002210D03*
X006357Y002210D03*
X006407Y003520D03*
X002667Y003520D03*
X002657Y003520D03*
X004767Y007120D03*
X004777Y007120D03*
X005547Y007990D03*
X006357Y007860D03*
X006927Y007860D03*
X003117Y007460D03*
D59*
X006607Y008265D03*
X006617Y008265D03*
X006707Y008265D03*
X006737Y008255D03*
X006767Y003975D03*
X006777Y003975D03*
X006787Y003975D03*
X006797Y003975D03*
X006807Y003975D03*
X006817Y003975D03*
X006827Y003975D03*
X006837Y003975D03*
X006847Y003975D03*
X006857Y003975D03*
X006867Y003975D03*
X006877Y003975D03*
X006887Y003975D03*
X006897Y003965D03*
X006907Y003965D03*
X006917Y003965D03*
X006927Y003965D03*
X006747Y003965D03*
X006737Y003965D03*
X006737Y003075D03*
X006747Y003075D03*
X006727Y003075D03*
X006767Y003065D03*
X006777Y003065D03*
X006787Y003065D03*
X006797Y003065D03*
X006807Y003065D03*
X006817Y003065D03*
X006827Y003065D03*
X006837Y003065D03*
X006847Y003065D03*
X006857Y003065D03*
X006867Y003065D03*
X006877Y003065D03*
X006887Y003065D03*
X006907Y003075D03*
X006917Y003075D03*
X006737Y002605D03*
X006707Y002615D03*
X006617Y002615D03*
X006607Y002615D03*
X004227Y003505D03*
X025227Y003505D03*
X027607Y002615D03*
X027617Y002615D03*
X027707Y002615D03*
X027737Y002605D03*
X027767Y003065D03*
X027777Y003065D03*
X027787Y003065D03*
X027797Y003065D03*
X027807Y003065D03*
X027817Y003065D03*
X027827Y003065D03*
X027837Y003065D03*
X027847Y003065D03*
X027857Y003065D03*
X027867Y003065D03*
X027877Y003065D03*
X027887Y003065D03*
X027907Y003075D03*
X027917Y003075D03*
X027747Y003075D03*
X027737Y003075D03*
X027727Y003075D03*
X027737Y003965D03*
X027747Y003965D03*
X027767Y003975D03*
X027777Y003975D03*
X027787Y003975D03*
X027797Y003975D03*
X027807Y003975D03*
X027817Y003975D03*
X027827Y003975D03*
X027837Y003975D03*
X027847Y003975D03*
X027857Y003975D03*
X027867Y003975D03*
X027877Y003975D03*
X027887Y003975D03*
X027897Y003965D03*
X027907Y003965D03*
X027917Y003965D03*
X027927Y003965D03*
X027737Y008255D03*
X027707Y008265D03*
X027617Y008265D03*
X027607Y008265D03*
D60*
X027377Y007870D03*
X027907Y007870D03*
X026517Y007980D03*
X025797Y007130D03*
X024097Y007460D03*
X023697Y003520D03*
X023687Y003520D03*
X023677Y003520D03*
X027377Y002220D03*
X027907Y002220D03*
X027037Y001590D03*
X025317Y001600D03*
X006907Y002220D03*
X006377Y002220D03*
X006037Y001590D03*
X004317Y001600D03*
X002697Y003520D03*
X002687Y003520D03*
X002677Y003520D03*
X004797Y007130D03*
X005517Y007980D03*
X006377Y007870D03*
X006907Y007870D03*
X003097Y007460D03*
D61*
X003067Y007460D03*
X004847Y007150D03*
X005467Y007960D03*
X006427Y007890D03*
X006857Y007890D03*
X006867Y007890D03*
X006447Y003520D03*
X006427Y002240D03*
X006857Y002240D03*
X006867Y002240D03*
X006027Y001590D03*
X004327Y001600D03*
X002737Y003520D03*
X002727Y003520D03*
X023727Y003520D03*
X023737Y003520D03*
X027447Y003520D03*
X027427Y002240D03*
X027857Y002240D03*
X027867Y002240D03*
X027027Y001590D03*
X025327Y001600D03*
X025847Y007150D03*
X026467Y007960D03*
X027427Y007890D03*
X027857Y007890D03*
X027867Y007890D03*
X024067Y007460D03*
D62*
X025887Y007165D03*
X026427Y007945D03*
X027477Y007905D03*
X027487Y007905D03*
X027807Y007905D03*
X027807Y002255D03*
X027487Y002255D03*
X027477Y002255D03*
X027017Y001585D03*
X006807Y002255D03*
X006487Y002255D03*
X006477Y002255D03*
X006017Y001585D03*
X004887Y007165D03*
X005427Y007945D03*
X006477Y007905D03*
X006487Y007905D03*
X006807Y007905D03*
D63*
X006087Y008205D03*
X006527Y003215D03*
X005627Y002025D03*
X006117Y001585D03*
X004717Y001995D03*
X025717Y001995D03*
X026627Y002025D03*
X027117Y001585D03*
X027527Y003215D03*
X027087Y008205D03*
D64*
X026397Y007930D03*
X026387Y007930D03*
X025927Y007180D03*
X024017Y007460D03*
X023807Y003520D03*
X023797Y003520D03*
X027017Y003500D03*
X027477Y003520D03*
X027487Y003520D03*
X006487Y003520D03*
X006477Y003520D03*
X006017Y003500D03*
X002807Y003520D03*
X002797Y003520D03*
X004927Y007180D03*
X005387Y007930D03*
X005397Y007930D03*
X003017Y007460D03*
D65*
X003167Y007460D03*
X004697Y007090D03*
X006317Y007830D03*
X005627Y008020D03*
X005617Y008020D03*
X006057Y003500D03*
X006317Y002180D03*
X006057Y001590D03*
X004297Y001600D03*
X002597Y003520D03*
X002587Y003520D03*
X023587Y003520D03*
X023597Y003520D03*
X027057Y003500D03*
X027317Y002180D03*
X027057Y001590D03*
X025297Y001600D03*
X025697Y007090D03*
X024167Y007460D03*
X026617Y008020D03*
X026627Y008020D03*
X027317Y007830D03*
D66*
X027267Y007765D03*
X026787Y008085D03*
X025537Y007025D03*
X025527Y007025D03*
X026647Y004035D03*
X026647Y002975D03*
X025707Y002975D03*
X027267Y002115D03*
X026647Y001085D03*
X006267Y002115D03*
X005647Y002975D03*
X004707Y002975D03*
X005647Y004035D03*
X005647Y001085D03*
X004537Y007025D03*
X004527Y007025D03*
X006267Y007765D03*
X005787Y008085D03*
D67*
X005857Y008115D03*
X005867Y008115D03*
X006257Y007735D03*
X004457Y006995D03*
X003687Y006155D03*
X004757Y004095D03*
X005607Y004085D03*
X005597Y002915D03*
X004747Y002925D03*
X003687Y002035D03*
X005607Y001035D03*
X006257Y002085D03*
X024687Y002035D03*
X025747Y002925D03*
X026597Y002915D03*
X027257Y002085D03*
X026607Y001035D03*
X026607Y004085D03*
X025757Y004095D03*
X024687Y006155D03*
X025457Y006995D03*
X027257Y007735D03*
X026867Y008115D03*
X026857Y008115D03*
D68*
X027237Y003520D03*
X006237Y003520D03*
D69*
X006137Y001575D03*
X004217Y001595D03*
X025217Y001595D03*
X027137Y001575D03*
D70*
X026497Y002020D03*
X025847Y002000D03*
X025217Y003510D03*
X027137Y003500D03*
X006137Y003500D03*
X004217Y003510D03*
X004847Y002000D03*
X005497Y002020D03*
D71*
X006107Y001590D03*
X005457Y000940D03*
X005447Y000940D03*
X005437Y000930D03*
X005427Y000930D03*
X004927Y000930D03*
X004917Y000930D03*
X004907Y000940D03*
X004897Y000940D03*
X004877Y000950D03*
X004247Y001600D03*
X003617Y002090D03*
X003607Y002090D03*
X002727Y002000D03*
X002717Y002000D03*
X003887Y002830D03*
X003897Y002830D03*
X003907Y002820D03*
X003917Y002820D03*
X003937Y002810D03*
X003957Y002800D03*
X003967Y002800D03*
X003987Y002790D03*
X004007Y002780D03*
X004017Y002780D03*
X004037Y002770D03*
X004057Y002760D03*
X004087Y002750D03*
X004107Y002740D03*
X003867Y002840D03*
X003857Y002840D03*
X003847Y002850D03*
X003837Y002850D03*
X003827Y002860D03*
X003817Y002860D03*
X003807Y002860D03*
X003797Y002870D03*
X004897Y002820D03*
X004907Y002820D03*
X004927Y002810D03*
X005397Y002800D03*
X005417Y002810D03*
X005427Y002810D03*
X005447Y002820D03*
X003357Y003990D03*
X002267Y003520D03*
X002257Y003520D03*
X004907Y004190D03*
X004917Y004190D03*
X004927Y004200D03*
X004937Y004200D03*
X004957Y004210D03*
X005427Y004200D03*
X005447Y004190D03*
X005457Y004190D03*
X005077Y006110D03*
X005067Y006120D03*
X004787Y006130D03*
X003617Y006210D03*
X003607Y006210D03*
X002727Y006120D03*
X002717Y006120D03*
X004337Y006950D03*
X004347Y006950D03*
X003397Y007460D03*
X005977Y008160D03*
X023257Y003520D03*
X023267Y003520D03*
X024357Y003990D03*
X025907Y004190D03*
X025917Y004190D03*
X025927Y004200D03*
X025937Y004200D03*
X025957Y004210D03*
X026427Y004200D03*
X026447Y004190D03*
X026457Y004190D03*
X024867Y002840D03*
X024857Y002840D03*
X024847Y002850D03*
X024837Y002850D03*
X024827Y002860D03*
X024817Y002860D03*
X024807Y002860D03*
X024797Y002870D03*
X024887Y002830D03*
X024897Y002830D03*
X024907Y002820D03*
X024917Y002820D03*
X024937Y002810D03*
X024957Y002800D03*
X024967Y002800D03*
X024987Y002790D03*
X025007Y002780D03*
X025017Y002780D03*
X025037Y002770D03*
X025057Y002760D03*
X025087Y002750D03*
X025107Y002740D03*
X025897Y002820D03*
X025907Y002820D03*
X025927Y002810D03*
X026397Y002800D03*
X026417Y002810D03*
X026427Y002810D03*
X026447Y002820D03*
X024617Y002090D03*
X024607Y002090D03*
X023727Y002000D03*
X023717Y002000D03*
X025247Y001600D03*
X025877Y000950D03*
X025897Y000940D03*
X025907Y000940D03*
X025917Y000930D03*
X025927Y000930D03*
X026427Y000930D03*
X026437Y000930D03*
X026447Y000940D03*
X026457Y000940D03*
X027107Y001590D03*
X026077Y006110D03*
X026067Y006120D03*
X025787Y006130D03*
X024617Y006210D03*
X024607Y006210D03*
X023727Y006120D03*
X023717Y006120D03*
X025337Y006950D03*
X025347Y006950D03*
X024397Y007460D03*
X026977Y008160D03*
D72*
X026887Y008125D03*
X025437Y006985D03*
X025427Y006985D03*
X024337Y007455D03*
X024677Y006165D03*
X025727Y006085D03*
X026587Y004105D03*
X026577Y002895D03*
X025767Y002905D03*
X025757Y002915D03*
X024677Y002045D03*
X025767Y001025D03*
X026587Y001015D03*
X027097Y001585D03*
X006097Y001585D03*
X005587Y001015D03*
X004767Y001025D03*
X003677Y002045D03*
X004757Y002915D03*
X004767Y002905D03*
X005577Y002895D03*
X005587Y004105D03*
X004727Y006085D03*
X003677Y006165D03*
X004427Y006985D03*
X004437Y006985D03*
X003337Y007455D03*
X005887Y008125D03*
D73*
X006027Y008180D03*
X005217Y008180D03*
X005207Y008180D03*
X005197Y008180D03*
X005187Y008180D03*
X005177Y008180D03*
X005167Y008180D03*
X005157Y008180D03*
X005147Y008180D03*
X005137Y008180D03*
X005127Y008180D03*
X005117Y008180D03*
X005107Y008180D03*
X005097Y008180D03*
X005087Y008180D03*
X005077Y008180D03*
X005067Y008180D03*
X005057Y008180D03*
X005047Y008180D03*
X005037Y008180D03*
X005027Y008180D03*
X005017Y008180D03*
X005007Y008180D03*
X004997Y008180D03*
X004987Y008180D03*
X004977Y008180D03*
X004967Y008180D03*
X004957Y008180D03*
X004947Y008180D03*
X004937Y008180D03*
X004927Y008180D03*
X004917Y008180D03*
X004907Y008180D03*
X004897Y008180D03*
X004887Y008180D03*
X004877Y008180D03*
X004867Y008180D03*
X004857Y008180D03*
X004847Y008180D03*
X004837Y008180D03*
X004827Y008180D03*
X004817Y008180D03*
X004807Y008180D03*
X004797Y008180D03*
X004787Y008180D03*
X004777Y008180D03*
X004767Y008180D03*
X004757Y008180D03*
X004747Y008180D03*
X004737Y008180D03*
X004727Y008180D03*
X004717Y008180D03*
X004707Y008180D03*
X004697Y008180D03*
X004687Y008180D03*
X004677Y008180D03*
X004667Y008180D03*
X004657Y008180D03*
X004647Y008180D03*
X004637Y008180D03*
X004627Y008180D03*
X004617Y008180D03*
X004607Y008180D03*
X004597Y008180D03*
X004587Y008180D03*
X004577Y008180D03*
X004567Y008180D03*
X004557Y008180D03*
X004547Y008180D03*
X004537Y008180D03*
X004527Y008180D03*
X004517Y008180D03*
X004507Y008180D03*
X004497Y008180D03*
X004487Y008180D03*
X004477Y008180D03*
X004467Y008180D03*
X004457Y008180D03*
X004447Y008180D03*
X004437Y008180D03*
X004427Y008180D03*
X004417Y008180D03*
X004407Y008180D03*
X004397Y008180D03*
X004387Y008180D03*
X004377Y008180D03*
X004367Y008180D03*
X004357Y008180D03*
X004347Y008180D03*
X004337Y008180D03*
X004327Y008180D03*
X004317Y008180D03*
X004307Y008180D03*
X004297Y008180D03*
X004287Y008180D03*
X004277Y008180D03*
X004267Y008180D03*
X004257Y008180D03*
X004287Y006930D03*
X004297Y006930D03*
X005097Y006930D03*
X005107Y006930D03*
X005117Y006930D03*
X005127Y006930D03*
X005137Y006930D03*
X005147Y006930D03*
X005157Y006930D03*
X005167Y006930D03*
X005177Y006930D03*
X005187Y006930D03*
X005197Y006930D03*
X005207Y006930D03*
X005217Y006930D03*
X005227Y006930D03*
X005237Y006930D03*
X005247Y006930D03*
X005257Y006930D03*
X005267Y006930D03*
X005277Y006930D03*
X005287Y006930D03*
X005297Y006930D03*
X005307Y006930D03*
X005317Y006930D03*
X005327Y006930D03*
X005337Y006930D03*
X005347Y006930D03*
X005357Y006930D03*
X005367Y006930D03*
X005377Y006930D03*
X005387Y006930D03*
X005397Y006930D03*
X005407Y006930D03*
X005417Y006930D03*
X005427Y006930D03*
X005437Y006930D03*
X005447Y006930D03*
X005457Y006930D03*
X005467Y006930D03*
X005477Y006930D03*
X005487Y006930D03*
X005497Y006930D03*
X005507Y006930D03*
X005517Y006930D03*
X005527Y006930D03*
X005537Y006930D03*
X005547Y006930D03*
X005557Y006930D03*
X005567Y006930D03*
X005577Y006930D03*
X005587Y006930D03*
X005597Y006930D03*
X005607Y006930D03*
X005617Y006930D03*
X005627Y006930D03*
X005637Y006930D03*
X005647Y006930D03*
X005657Y006930D03*
X005667Y006930D03*
X005677Y006930D03*
X005687Y006930D03*
X005697Y006930D03*
X005707Y006930D03*
X005717Y006930D03*
X005727Y006930D03*
X005737Y006930D03*
X005747Y006930D03*
X005757Y006930D03*
X005767Y006930D03*
X005777Y006930D03*
X005787Y006930D03*
X005797Y006930D03*
X005807Y006930D03*
X005817Y006930D03*
X005827Y006930D03*
X005837Y006930D03*
X005847Y006930D03*
X005857Y006930D03*
X005867Y006930D03*
X005877Y006930D03*
X005887Y006930D03*
X005897Y006930D03*
X005907Y006930D03*
X005917Y006930D03*
X005927Y006930D03*
X005937Y006930D03*
X005947Y006930D03*
X005957Y006930D03*
X005967Y006930D03*
X005977Y006930D03*
X005987Y006930D03*
X005997Y006930D03*
X006007Y006930D03*
X006017Y006930D03*
X006027Y006930D03*
X006037Y006930D03*
X006047Y006930D03*
X006057Y006930D03*
X006067Y006930D03*
X006077Y006930D03*
X006087Y006930D03*
X006097Y006930D03*
X004977Y006150D03*
X004967Y006150D03*
X002917Y006090D03*
X002907Y006100D03*
X002817Y006130D03*
X002807Y006130D03*
X002797Y006130D03*
X002787Y006130D03*
X002777Y006130D03*
X004707Y005030D03*
X004717Y005030D03*
X004727Y005030D03*
X004737Y005030D03*
X004747Y005030D03*
X004757Y005030D03*
X004767Y005030D03*
X004777Y005030D03*
X004787Y005030D03*
X004797Y005030D03*
X004807Y005030D03*
X004817Y005030D03*
X004827Y005030D03*
X004837Y005030D03*
X004847Y005030D03*
X004857Y005030D03*
X004867Y005030D03*
X004877Y005030D03*
X004887Y005030D03*
X004897Y005030D03*
X004907Y005030D03*
X004917Y005030D03*
X004927Y005030D03*
X004937Y005030D03*
X004947Y005030D03*
X004957Y005030D03*
X004967Y005030D03*
X004977Y005030D03*
X004987Y005030D03*
X004997Y005030D03*
X005007Y005030D03*
X005017Y005030D03*
X005027Y005030D03*
X005037Y005030D03*
X005047Y005030D03*
X005057Y005030D03*
X005067Y005030D03*
X005077Y005030D03*
X005087Y005030D03*
X005097Y005030D03*
X005107Y005030D03*
X005117Y005030D03*
X005127Y005030D03*
X005137Y005030D03*
X005547Y005030D03*
X005557Y005030D03*
X005567Y005030D03*
X005577Y005030D03*
X005587Y005030D03*
X005597Y005030D03*
X005607Y005030D03*
X005617Y005030D03*
X005627Y005030D03*
X005637Y005030D03*
X005647Y005030D03*
X005657Y005030D03*
X005667Y005030D03*
X005677Y005030D03*
X005687Y005030D03*
X005697Y005030D03*
X005707Y005030D03*
X005717Y005030D03*
X005727Y005030D03*
X005737Y005030D03*
X005747Y005030D03*
X005757Y005030D03*
X005767Y005030D03*
X005777Y005030D03*
X005787Y005030D03*
X005797Y005030D03*
X005807Y005030D03*
X005817Y005030D03*
X005827Y005030D03*
X005837Y005030D03*
X005847Y005030D03*
X005857Y005030D03*
X005867Y005030D03*
X005877Y005030D03*
X005887Y005030D03*
X005897Y005030D03*
X005907Y005030D03*
X005917Y005030D03*
X005927Y005030D03*
X005937Y005030D03*
X005947Y005030D03*
X005957Y005030D03*
X005967Y005030D03*
X005977Y005030D03*
X005987Y005030D03*
X005997Y005030D03*
X006007Y005030D03*
X006017Y005030D03*
X006027Y005030D03*
X006037Y005030D03*
X006047Y005030D03*
X006057Y005030D03*
X006067Y005030D03*
X006077Y005030D03*
X006087Y005030D03*
X006097Y005030D03*
X002857Y003250D03*
X002907Y003230D03*
X002217Y003520D03*
X002777Y002010D03*
X002787Y002010D03*
X002797Y002010D03*
X002807Y002010D03*
X002817Y002010D03*
X002907Y001980D03*
X002917Y001970D03*
X023217Y003520D03*
X023857Y003250D03*
X023907Y003230D03*
X023817Y002010D03*
X023807Y002010D03*
X023797Y002010D03*
X023787Y002010D03*
X023777Y002010D03*
X023907Y001980D03*
X023917Y001970D03*
X025707Y005030D03*
X025717Y005030D03*
X025727Y005030D03*
X025737Y005030D03*
X025747Y005030D03*
X025757Y005030D03*
X025767Y005030D03*
X025777Y005030D03*
X025787Y005030D03*
X025797Y005030D03*
X025807Y005030D03*
X025817Y005030D03*
X025827Y005030D03*
X025837Y005030D03*
X025847Y005030D03*
X025857Y005030D03*
X025867Y005030D03*
X025877Y005030D03*
X025887Y005030D03*
X025897Y005030D03*
X025907Y005030D03*
X025917Y005030D03*
X025927Y005030D03*
X025937Y005030D03*
X025947Y005030D03*
X025957Y005030D03*
X025967Y005030D03*
X025977Y005030D03*
X025987Y005030D03*
X025997Y005030D03*
X026007Y005030D03*
X026017Y005030D03*
X026027Y005030D03*
X026037Y005030D03*
X026047Y005030D03*
X026057Y005030D03*
X026067Y005030D03*
X026077Y005030D03*
X026087Y005030D03*
X026097Y005030D03*
X026107Y005030D03*
X026117Y005030D03*
X026127Y005030D03*
X026137Y005030D03*
X026547Y005030D03*
X026557Y005030D03*
X026567Y005030D03*
X026577Y005030D03*
X026587Y005030D03*
X026597Y005030D03*
X026607Y005030D03*
X026617Y005030D03*
X026627Y005030D03*
X026637Y005030D03*
X026647Y005030D03*
X026657Y005030D03*
X026667Y005030D03*
X026677Y005030D03*
X026687Y005030D03*
X026697Y005030D03*
X026707Y005030D03*
X026717Y005030D03*
X026727Y005030D03*
X026737Y005030D03*
X026747Y005030D03*
X026757Y005030D03*
X026767Y005030D03*
X026777Y005030D03*
X026787Y005030D03*
X026797Y005030D03*
X026807Y005030D03*
X026817Y005030D03*
X026827Y005030D03*
X026837Y005030D03*
X026847Y005030D03*
X026857Y005030D03*
X026867Y005030D03*
X026877Y005030D03*
X026887Y005030D03*
X026897Y005030D03*
X026907Y005030D03*
X026917Y005030D03*
X026927Y005030D03*
X026937Y005030D03*
X026947Y005030D03*
X026957Y005030D03*
X026967Y005030D03*
X026977Y005030D03*
X026987Y005030D03*
X026997Y005030D03*
X027007Y005030D03*
X027017Y005030D03*
X027027Y005030D03*
X027037Y005030D03*
X027047Y005030D03*
X027057Y005030D03*
X027067Y005030D03*
X027077Y005030D03*
X027087Y005030D03*
X027097Y005030D03*
X025977Y006150D03*
X025967Y006150D03*
X026097Y006930D03*
X026107Y006930D03*
X026117Y006930D03*
X026127Y006930D03*
X026137Y006930D03*
X026147Y006930D03*
X026157Y006930D03*
X026167Y006930D03*
X026177Y006930D03*
X026187Y006930D03*
X026197Y006930D03*
X026207Y006930D03*
X026217Y006930D03*
X026227Y006930D03*
X026237Y006930D03*
X026247Y006930D03*
X026257Y006930D03*
X026267Y006930D03*
X026277Y006930D03*
X026287Y006930D03*
X026297Y006930D03*
X026307Y006930D03*
X026317Y006930D03*
X026327Y006930D03*
X026337Y006930D03*
X026347Y006930D03*
X026357Y006930D03*
X026367Y006930D03*
X026377Y006930D03*
X026387Y006930D03*
X026397Y006930D03*
X026407Y006930D03*
X026417Y006930D03*
X026427Y006930D03*
X026437Y006930D03*
X026447Y006930D03*
X026457Y006930D03*
X026467Y006930D03*
X026477Y006930D03*
X026487Y006930D03*
X026497Y006930D03*
X026507Y006930D03*
X026517Y006930D03*
X026527Y006930D03*
X026537Y006930D03*
X026547Y006930D03*
X026557Y006930D03*
X026567Y006930D03*
X026577Y006930D03*
X026587Y006930D03*
X026597Y006930D03*
X026607Y006930D03*
X026617Y006930D03*
X026627Y006930D03*
X026637Y006930D03*
X026647Y006930D03*
X026657Y006930D03*
X026667Y006930D03*
X026677Y006930D03*
X026687Y006930D03*
X026697Y006930D03*
X026707Y006930D03*
X026717Y006930D03*
X026727Y006930D03*
X026737Y006930D03*
X026747Y006930D03*
X026757Y006930D03*
X026767Y006930D03*
X026777Y006930D03*
X026787Y006930D03*
X026797Y006930D03*
X026807Y006930D03*
X026817Y006930D03*
X026827Y006930D03*
X026837Y006930D03*
X026847Y006930D03*
X026857Y006930D03*
X026867Y006930D03*
X026877Y006930D03*
X026887Y006930D03*
X026897Y006930D03*
X026907Y006930D03*
X026917Y006930D03*
X026927Y006930D03*
X026937Y006930D03*
X026947Y006930D03*
X026957Y006930D03*
X026967Y006930D03*
X026977Y006930D03*
X026987Y006930D03*
X026997Y006930D03*
X027007Y006930D03*
X027017Y006930D03*
X027027Y006930D03*
X027037Y006930D03*
X027047Y006930D03*
X027057Y006930D03*
X027067Y006930D03*
X027077Y006930D03*
X027087Y006930D03*
X027097Y006930D03*
X025297Y006930D03*
X025287Y006930D03*
X023917Y006090D03*
X023907Y006100D03*
X023817Y006130D03*
X023807Y006130D03*
X023797Y006130D03*
X023787Y006130D03*
X023777Y006130D03*
X025257Y008180D03*
X025267Y008180D03*
X025277Y008180D03*
X025287Y008180D03*
X025297Y008180D03*
X025307Y008180D03*
X025317Y008180D03*
X025327Y008180D03*
X025337Y008180D03*
X025347Y008180D03*
X025357Y008180D03*
X025367Y008180D03*
X025377Y008180D03*
X025387Y008180D03*
X025397Y008180D03*
X025407Y008180D03*
X025417Y008180D03*
X025427Y008180D03*
X025437Y008180D03*
X025447Y008180D03*
X025457Y008180D03*
X025467Y008180D03*
X025477Y008180D03*
X025487Y008180D03*
X025497Y008180D03*
X025507Y008180D03*
X025517Y008180D03*
X025527Y008180D03*
X025537Y008180D03*
X025547Y008180D03*
X025557Y008180D03*
X025567Y008180D03*
X025577Y008180D03*
X025587Y008180D03*
X025597Y008180D03*
X025607Y008180D03*
X025617Y008180D03*
X025627Y008180D03*
X025637Y008180D03*
X025647Y008180D03*
X025657Y008180D03*
X025667Y008180D03*
X025677Y008180D03*
X025687Y008180D03*
X025697Y008180D03*
X025707Y008180D03*
X025717Y008180D03*
X025727Y008180D03*
X025737Y008180D03*
X025747Y008180D03*
X025757Y008180D03*
X025767Y008180D03*
X025777Y008180D03*
X025787Y008180D03*
X025797Y008180D03*
X025807Y008180D03*
X025817Y008180D03*
X025827Y008180D03*
X025837Y008180D03*
X025847Y008180D03*
X025857Y008180D03*
X025867Y008180D03*
X025877Y008180D03*
X025887Y008180D03*
X025897Y008180D03*
X025907Y008180D03*
X025917Y008180D03*
X025927Y008180D03*
X025937Y008180D03*
X025947Y008180D03*
X025957Y008180D03*
X025967Y008180D03*
X025977Y008180D03*
X025987Y008180D03*
X025997Y008180D03*
X026007Y008180D03*
X026017Y008180D03*
X026027Y008180D03*
X026037Y008180D03*
X026047Y008180D03*
X026057Y008180D03*
X026067Y008180D03*
X026077Y008180D03*
X026087Y008180D03*
X026097Y008180D03*
X026107Y008180D03*
X026117Y008180D03*
X026127Y008180D03*
X026137Y008180D03*
X026147Y008180D03*
X026157Y008180D03*
X026167Y008180D03*
X026177Y008180D03*
X026187Y008180D03*
X026197Y008180D03*
X026207Y008180D03*
X026217Y008180D03*
X027027Y008180D03*
D74*
X026917Y008135D03*
X026907Y008135D03*
X025407Y006975D03*
X024357Y007455D03*
X023487Y006925D03*
X023437Y006895D03*
X023417Y006885D03*
X023397Y006875D03*
X023387Y006865D03*
X023367Y006855D03*
X023357Y006845D03*
X023347Y006845D03*
X023337Y006835D03*
X023327Y006835D03*
X023317Y006825D03*
X023307Y006815D03*
X023297Y006815D03*
X023287Y006805D03*
X023277Y006805D03*
X023267Y006795D03*
X023247Y006785D03*
X023237Y006775D03*
X023977Y006005D03*
X025737Y006095D03*
X027097Y006175D03*
X026547Y004135D03*
X026557Y004125D03*
X025807Y004135D03*
X025797Y004125D03*
X025797Y002885D03*
X025807Y002875D03*
X026547Y002875D03*
X025687Y001965D03*
X023977Y001885D03*
X025787Y001005D03*
X025797Y000995D03*
X026557Y000995D03*
X023257Y008135D03*
X023227Y008155D03*
X006097Y006175D03*
X004737Y006095D03*
X004407Y006975D03*
X003357Y007455D03*
X002487Y006925D03*
X002437Y006895D03*
X002417Y006885D03*
X002397Y006875D03*
X002387Y006865D03*
X002367Y006855D03*
X002357Y006845D03*
X002347Y006845D03*
X002337Y006835D03*
X002327Y006835D03*
X002317Y006825D03*
X002307Y006815D03*
X002297Y006815D03*
X002287Y006805D03*
X002277Y006805D03*
X002267Y006795D03*
X002247Y006785D03*
X002237Y006775D03*
X002977Y006005D03*
X004807Y004135D03*
X004797Y004125D03*
X005547Y004135D03*
X005557Y004125D03*
X005547Y002875D03*
X004807Y002875D03*
X004797Y002885D03*
X004687Y001965D03*
X002977Y001885D03*
X004787Y001005D03*
X004797Y000995D03*
X005557Y000995D03*
X005907Y008135D03*
X005917Y008135D03*
X002257Y008135D03*
X002227Y008155D03*
D75*
X003297Y007460D03*
X004497Y007010D03*
X005137Y006030D03*
X002657Y006060D03*
X004727Y004060D03*
X005637Y004050D03*
X006087Y003500D03*
X005627Y002950D03*
X004717Y002960D03*
X004267Y003510D03*
X002407Y003520D03*
X002397Y003520D03*
X002657Y001940D03*
X005627Y001060D03*
X005827Y008100D03*
X023397Y003520D03*
X023407Y003520D03*
X025267Y003510D03*
X025717Y002960D03*
X026627Y002950D03*
X027087Y003500D03*
X026637Y004050D03*
X025727Y004060D03*
X026137Y006030D03*
X025497Y007010D03*
X024297Y007460D03*
X026827Y008100D03*
X023657Y006060D03*
X023657Y001940D03*
X026627Y001060D03*
D76*
X026547Y000990D03*
X026537Y000980D03*
X025807Y000990D03*
X023687Y001980D03*
X024657Y002070D03*
X025817Y002870D03*
X026527Y002860D03*
X026537Y002870D03*
X026537Y004140D03*
X025827Y004150D03*
X025817Y004140D03*
X023317Y003520D03*
X023307Y003520D03*
X026557Y005810D03*
X026587Y005830D03*
X026617Y005850D03*
X026647Y005870D03*
X026677Y005890D03*
X026707Y005910D03*
X026737Y005930D03*
X026747Y005940D03*
X026767Y005950D03*
X026777Y005960D03*
X026797Y005970D03*
X026807Y005980D03*
X026827Y005990D03*
X026837Y006000D03*
X026857Y006010D03*
X026867Y006020D03*
X026887Y006030D03*
X026897Y006040D03*
X026907Y006050D03*
X026917Y006050D03*
X026927Y006060D03*
X026937Y006070D03*
X026947Y006070D03*
X026957Y006080D03*
X026967Y006090D03*
X026977Y006090D03*
X026987Y006100D03*
X026997Y006110D03*
X027007Y006110D03*
X027017Y006120D03*
X027027Y006130D03*
X027037Y006130D03*
X027047Y006140D03*
X027057Y006150D03*
X027067Y006150D03*
X027077Y006160D03*
X027087Y006170D03*
X026107Y006080D03*
X025747Y006110D03*
X024657Y006190D03*
X023687Y006100D03*
X023377Y006860D03*
X023407Y006880D03*
X023427Y006890D03*
X023447Y006900D03*
X023457Y006910D03*
X023467Y006910D03*
X023477Y006920D03*
X023497Y006930D03*
X023507Y006940D03*
X023517Y006940D03*
X023527Y006950D03*
X023537Y006950D03*
X023547Y006960D03*
X023557Y006970D03*
X023567Y006970D03*
X023577Y006980D03*
X023597Y006990D03*
X023617Y007000D03*
X023627Y007010D03*
X023647Y007020D03*
X023667Y007030D03*
X023697Y007050D03*
X023717Y007060D03*
X025397Y006970D03*
X023437Y008030D03*
X023417Y008040D03*
X023387Y008060D03*
X023367Y008070D03*
X023347Y008080D03*
X023337Y008090D03*
X023327Y008090D03*
X023317Y008100D03*
X023307Y008110D03*
X023297Y008110D03*
X023287Y008120D03*
X023277Y008120D03*
X023267Y008130D03*
X023247Y008140D03*
X023237Y008150D03*
X026927Y008140D03*
X006087Y006170D03*
X006077Y006160D03*
X006067Y006150D03*
X006057Y006150D03*
X006047Y006140D03*
X006037Y006130D03*
X006027Y006130D03*
X006017Y006120D03*
X006007Y006110D03*
X005997Y006110D03*
X005987Y006100D03*
X005977Y006090D03*
X005967Y006090D03*
X005957Y006080D03*
X005947Y006070D03*
X005937Y006070D03*
X005927Y006060D03*
X005917Y006050D03*
X005907Y006050D03*
X005897Y006040D03*
X005887Y006030D03*
X005867Y006020D03*
X005857Y006010D03*
X005837Y006000D03*
X005827Y005990D03*
X005807Y005980D03*
X005797Y005970D03*
X005777Y005960D03*
X005767Y005950D03*
X005747Y005940D03*
X005737Y005930D03*
X005707Y005910D03*
X005677Y005890D03*
X005647Y005870D03*
X005617Y005850D03*
X005587Y005830D03*
X005557Y005810D03*
X005107Y006080D03*
X004747Y006110D03*
X003657Y006190D03*
X002687Y006100D03*
X002377Y006860D03*
X002407Y006880D03*
X002427Y006890D03*
X002447Y006900D03*
X002457Y006910D03*
X002467Y006910D03*
X002477Y006920D03*
X002497Y006930D03*
X002507Y006940D03*
X002517Y006940D03*
X002527Y006950D03*
X002537Y006950D03*
X002547Y006960D03*
X002557Y006970D03*
X002567Y006970D03*
X002577Y006980D03*
X002597Y006990D03*
X002617Y007000D03*
X002627Y007010D03*
X002647Y007020D03*
X002667Y007030D03*
X002697Y007050D03*
X002717Y007060D03*
X004397Y006970D03*
X002437Y008030D03*
X002417Y008040D03*
X002387Y008060D03*
X002367Y008070D03*
X002347Y008080D03*
X002337Y008090D03*
X002327Y008090D03*
X002317Y008100D03*
X002307Y008110D03*
X002297Y008110D03*
X002287Y008120D03*
X002277Y008120D03*
X002267Y008130D03*
X002247Y008140D03*
X002237Y008150D03*
X005927Y008140D03*
X005537Y004140D03*
X004827Y004150D03*
X004817Y004140D03*
X004817Y002870D03*
X005527Y002860D03*
X005537Y002870D03*
X003657Y002070D03*
X002687Y001980D03*
X004807Y000990D03*
X005537Y000980D03*
X005547Y000990D03*
X002317Y003520D03*
X002307Y003520D03*
D77*
X002467Y003520D03*
X002477Y003520D03*
X004277Y003510D03*
X005657Y002990D03*
X006077Y003500D03*
X006077Y001590D03*
X005657Y001110D03*
X004697Y001110D03*
X004277Y001600D03*
X004567Y007040D03*
X003247Y007460D03*
X005747Y008070D03*
X023467Y003520D03*
X023477Y003520D03*
X025277Y003510D03*
X026657Y002990D03*
X027077Y003500D03*
X027077Y001590D03*
X026657Y001110D03*
X025697Y001110D03*
X025277Y001600D03*
X025567Y007040D03*
X024247Y007460D03*
X026747Y008070D03*
D78*
X027047Y008190D03*
X027057Y008190D03*
X025267Y006920D03*
X023887Y006110D03*
X023887Y001990D03*
X025707Y001990D03*
X006057Y008190D03*
X006047Y008190D03*
X004267Y006920D03*
X002887Y006110D03*
X002887Y001990D03*
X004707Y001990D03*
D79*
X005637Y002025D03*
X002897Y001985D03*
X002877Y001995D03*
X002867Y001995D03*
X002857Y002005D03*
X002847Y002005D03*
X002837Y002005D03*
X002827Y002005D03*
X002897Y006105D03*
X002877Y006115D03*
X002867Y006115D03*
X002857Y006125D03*
X002847Y006125D03*
X002837Y006125D03*
X002827Y006125D03*
X004277Y006925D03*
X006037Y008185D03*
X023827Y006125D03*
X023837Y006125D03*
X023847Y006125D03*
X023857Y006125D03*
X023867Y006115D03*
X023877Y006115D03*
X023897Y006105D03*
X025277Y006925D03*
X027037Y008185D03*
X026637Y002025D03*
X023897Y001985D03*
X023877Y001995D03*
X023867Y001995D03*
X023857Y002005D03*
X023847Y002005D03*
X023837Y002005D03*
X023827Y002005D03*
D80*
X023927Y001965D03*
X023937Y001955D03*
X024457Y002085D03*
X024467Y002085D03*
X024487Y002095D03*
X024497Y002095D03*
X024507Y002095D03*
X024517Y002095D03*
X024527Y002095D03*
X026007Y002785D03*
X026047Y002775D03*
X026057Y002775D03*
X026067Y002775D03*
X026077Y002775D03*
X026087Y002775D03*
X026097Y002765D03*
X026107Y002765D03*
X026117Y002765D03*
X026127Y002765D03*
X026137Y002765D03*
X026147Y002765D03*
X026157Y002765D03*
X026167Y002765D03*
X026177Y002765D03*
X026187Y002765D03*
X026197Y002765D03*
X026207Y002765D03*
X026217Y002765D03*
X026227Y002765D03*
X026237Y002765D03*
X026247Y002765D03*
X026277Y002775D03*
X026287Y002775D03*
X026297Y002775D03*
X024237Y003095D03*
X024207Y003105D03*
X024187Y003115D03*
X024167Y003125D03*
X024157Y003125D03*
X024137Y003135D03*
X024117Y003145D03*
X024107Y003145D03*
X024097Y003155D03*
X024087Y003155D03*
X024067Y003165D03*
X024057Y003165D03*
X024047Y003175D03*
X024037Y003175D03*
X024027Y003185D03*
X024017Y003185D03*
X024007Y003185D03*
X023997Y003195D03*
X023987Y003195D03*
X023977Y003205D03*
X023967Y003205D03*
X023957Y003205D03*
X023947Y003215D03*
X023937Y003215D03*
X023927Y003225D03*
X023917Y003225D03*
X023897Y003235D03*
X023887Y003235D03*
X023877Y003245D03*
X023867Y003245D03*
X023857Y003785D03*
X023877Y003795D03*
X023907Y003805D03*
X023927Y003815D03*
X023977Y003835D03*
X026057Y004235D03*
X026067Y004235D03*
X026077Y004235D03*
X026107Y004245D03*
X026117Y004245D03*
X026127Y004245D03*
X026137Y004245D03*
X026147Y004245D03*
X026157Y004245D03*
X026167Y004245D03*
X026177Y004245D03*
X026187Y004245D03*
X026197Y004245D03*
X026207Y004245D03*
X026217Y004245D03*
X026227Y004245D03*
X026237Y004245D03*
X026247Y004245D03*
X026257Y004245D03*
X026267Y004235D03*
X026277Y004235D03*
X026287Y004235D03*
X026297Y004235D03*
X026307Y004235D03*
X024697Y005035D03*
X024687Y005035D03*
X024677Y005035D03*
X024667Y005035D03*
X024657Y005035D03*
X024647Y005035D03*
X024637Y005035D03*
X024627Y005035D03*
X024617Y005035D03*
X024607Y005035D03*
X024597Y005035D03*
X024587Y005035D03*
X024577Y005035D03*
X024567Y005035D03*
X024557Y005035D03*
X024547Y005035D03*
X024537Y005035D03*
X024527Y005035D03*
X024517Y005035D03*
X024507Y005035D03*
X024497Y005035D03*
X024487Y005035D03*
X024477Y005035D03*
X024467Y005035D03*
X024457Y005035D03*
X024447Y005035D03*
X024437Y005035D03*
X024427Y005035D03*
X024417Y005035D03*
X024407Y005035D03*
X024397Y005035D03*
X024387Y005035D03*
X024377Y005035D03*
X024367Y005035D03*
X024357Y005035D03*
X023977Y005035D03*
X023967Y005035D03*
X023957Y005035D03*
X023947Y005035D03*
X023937Y005035D03*
X023927Y005035D03*
X023917Y005035D03*
X023907Y005035D03*
X023897Y005035D03*
X023887Y005035D03*
X023877Y005035D03*
X023867Y005035D03*
X023857Y005035D03*
X023847Y005035D03*
X023837Y005035D03*
X023827Y005035D03*
X023817Y005035D03*
X023807Y005035D03*
X023797Y005035D03*
X023787Y005035D03*
X023777Y005035D03*
X023767Y005035D03*
X023757Y005035D03*
X023747Y005035D03*
X023737Y005035D03*
X023727Y005035D03*
X023717Y005035D03*
X023707Y005035D03*
X023697Y005035D03*
X023687Y005035D03*
X023677Y005035D03*
X023667Y005035D03*
X023657Y005035D03*
X023937Y006075D03*
X023927Y006085D03*
X024457Y006205D03*
X024467Y006205D03*
X024487Y006215D03*
X024497Y006215D03*
X024507Y006215D03*
X024517Y006215D03*
X024527Y006215D03*
X025867Y006155D03*
X025877Y006155D03*
X025887Y006155D03*
X025897Y006155D03*
X025907Y006155D03*
X025917Y006155D03*
X025927Y006155D03*
X025937Y006155D03*
X025947Y006155D03*
X025957Y006155D03*
X025987Y006145D03*
X025997Y006145D03*
X026007Y006145D03*
X025307Y006935D03*
X027017Y008175D03*
X026307Y000895D03*
X026297Y000895D03*
X026287Y000895D03*
X026277Y000895D03*
X026247Y000885D03*
X026237Y000885D03*
X026227Y000885D03*
X026217Y000885D03*
X026207Y000885D03*
X026197Y000885D03*
X026187Y000885D03*
X026177Y000885D03*
X026167Y000885D03*
X026157Y000885D03*
X026147Y000885D03*
X026137Y000885D03*
X026127Y000885D03*
X026117Y000885D03*
X026107Y000885D03*
X026097Y000885D03*
X026077Y000895D03*
X026067Y000895D03*
X026057Y000895D03*
X026047Y000895D03*
X026007Y000905D03*
X024697Y000915D03*
X024687Y000915D03*
X024677Y000915D03*
X024667Y000915D03*
X024657Y000915D03*
X024647Y000915D03*
X024637Y000915D03*
X024627Y000915D03*
X024617Y000915D03*
X024607Y000915D03*
X024597Y000915D03*
X024587Y000915D03*
X024577Y000915D03*
X024567Y000915D03*
X024557Y000915D03*
X024547Y000915D03*
X024537Y000915D03*
X024527Y000915D03*
X024517Y000915D03*
X024507Y000915D03*
X024497Y000915D03*
X024487Y000915D03*
X024477Y000915D03*
X024467Y000915D03*
X024457Y000915D03*
X024447Y000915D03*
X024437Y000915D03*
X024427Y000915D03*
X024417Y000915D03*
X024407Y000915D03*
X024397Y000915D03*
X024387Y000915D03*
X024377Y000915D03*
X024367Y000915D03*
X024357Y000915D03*
X023977Y000915D03*
X023967Y000915D03*
X023957Y000915D03*
X023947Y000915D03*
X023937Y000915D03*
X023927Y000915D03*
X023917Y000915D03*
X023907Y000915D03*
X023897Y000915D03*
X023887Y000915D03*
X023877Y000915D03*
X023867Y000915D03*
X023857Y000915D03*
X023847Y000915D03*
X023837Y000915D03*
X023827Y000915D03*
X023817Y000915D03*
X023807Y000915D03*
X023797Y000915D03*
X023787Y000915D03*
X023777Y000915D03*
X023767Y000915D03*
X023757Y000915D03*
X023747Y000915D03*
X023737Y000915D03*
X023727Y000915D03*
X023717Y000915D03*
X023707Y000915D03*
X023697Y000915D03*
X023687Y000915D03*
X023677Y000915D03*
X023667Y000915D03*
X023657Y000915D03*
X006017Y008175D03*
X004307Y006935D03*
X004867Y006155D03*
X004877Y006155D03*
X004887Y006155D03*
X004897Y006155D03*
X004907Y006155D03*
X004917Y006155D03*
X004927Y006155D03*
X004937Y006155D03*
X004947Y006155D03*
X004957Y006155D03*
X004987Y006145D03*
X004997Y006145D03*
X005007Y006145D03*
X003527Y006215D03*
X003517Y006215D03*
X003507Y006215D03*
X003497Y006215D03*
X003487Y006215D03*
X003467Y006205D03*
X003457Y006205D03*
X002937Y006075D03*
X002927Y006085D03*
X002927Y005035D03*
X002937Y005035D03*
X002947Y005035D03*
X002957Y005035D03*
X002967Y005035D03*
X002977Y005035D03*
X002917Y005035D03*
X002907Y005035D03*
X002897Y005035D03*
X002887Y005035D03*
X002877Y005035D03*
X002867Y005035D03*
X002857Y005035D03*
X002847Y005035D03*
X002837Y005035D03*
X002827Y005035D03*
X002817Y005035D03*
X002807Y005035D03*
X002797Y005035D03*
X002787Y005035D03*
X002777Y005035D03*
X002767Y005035D03*
X002757Y005035D03*
X002747Y005035D03*
X002737Y005035D03*
X002727Y005035D03*
X002717Y005035D03*
X002707Y005035D03*
X002697Y005035D03*
X002687Y005035D03*
X002677Y005035D03*
X002667Y005035D03*
X002657Y005035D03*
X003357Y005035D03*
X003367Y005035D03*
X003377Y005035D03*
X003387Y005035D03*
X003397Y005035D03*
X003407Y005035D03*
X003417Y005035D03*
X003427Y005035D03*
X003437Y005035D03*
X003447Y005035D03*
X003457Y005035D03*
X003467Y005035D03*
X003477Y005035D03*
X003487Y005035D03*
X003497Y005035D03*
X003507Y005035D03*
X003517Y005035D03*
X003527Y005035D03*
X003537Y005035D03*
X003547Y005035D03*
X003557Y005035D03*
X003567Y005035D03*
X003577Y005035D03*
X003587Y005035D03*
X003597Y005035D03*
X003607Y005035D03*
X003617Y005035D03*
X003627Y005035D03*
X003637Y005035D03*
X003647Y005035D03*
X003657Y005035D03*
X003667Y005035D03*
X003677Y005035D03*
X003687Y005035D03*
X003697Y005035D03*
X005057Y004235D03*
X005067Y004235D03*
X005077Y004235D03*
X005107Y004245D03*
X005117Y004245D03*
X005127Y004245D03*
X005137Y004245D03*
X005147Y004245D03*
X005157Y004245D03*
X005167Y004245D03*
X005177Y004245D03*
X005187Y004245D03*
X005197Y004245D03*
X005207Y004245D03*
X005217Y004245D03*
X005227Y004245D03*
X005237Y004245D03*
X005247Y004245D03*
X005257Y004245D03*
X005267Y004235D03*
X005277Y004235D03*
X005287Y004235D03*
X005297Y004235D03*
X005307Y004235D03*
X003237Y003095D03*
X003207Y003105D03*
X003187Y003115D03*
X003167Y003125D03*
X003157Y003125D03*
X003137Y003135D03*
X003117Y003145D03*
X003107Y003145D03*
X003097Y003155D03*
X003087Y003155D03*
X003067Y003165D03*
X003057Y003165D03*
X003047Y003175D03*
X003037Y003175D03*
X003027Y003185D03*
X003017Y003185D03*
X003007Y003185D03*
X002997Y003195D03*
X002987Y003195D03*
X002977Y003205D03*
X002967Y003205D03*
X002957Y003205D03*
X002947Y003215D03*
X002937Y003215D03*
X002927Y003225D03*
X002917Y003225D03*
X002897Y003235D03*
X002887Y003235D03*
X002877Y003245D03*
X002867Y003245D03*
X002857Y003785D03*
X002877Y003795D03*
X002907Y003805D03*
X002927Y003815D03*
X002977Y003835D03*
X005007Y002785D03*
X005047Y002775D03*
X005057Y002775D03*
X005067Y002775D03*
X005077Y002775D03*
X005087Y002775D03*
X005097Y002765D03*
X005107Y002765D03*
X005117Y002765D03*
X005127Y002765D03*
X005137Y002765D03*
X005147Y002765D03*
X005157Y002765D03*
X005167Y002765D03*
X005177Y002765D03*
X005187Y002765D03*
X005197Y002765D03*
X005207Y002765D03*
X005217Y002765D03*
X005227Y002765D03*
X005237Y002765D03*
X005247Y002765D03*
X005277Y002775D03*
X005287Y002775D03*
X005297Y002775D03*
X003527Y002095D03*
X003517Y002095D03*
X003507Y002095D03*
X003497Y002095D03*
X003487Y002095D03*
X003467Y002085D03*
X003457Y002085D03*
X002937Y001955D03*
X002927Y001965D03*
X002927Y000915D03*
X002937Y000915D03*
X002947Y000915D03*
X002957Y000915D03*
X002967Y000915D03*
X002977Y000915D03*
X002917Y000915D03*
X002907Y000915D03*
X002897Y000915D03*
X002887Y000915D03*
X002877Y000915D03*
X002867Y000915D03*
X002857Y000915D03*
X002847Y000915D03*
X002837Y000915D03*
X002827Y000915D03*
X002817Y000915D03*
X002807Y000915D03*
X002797Y000915D03*
X002787Y000915D03*
X002777Y000915D03*
X002767Y000915D03*
X002757Y000915D03*
X002747Y000915D03*
X002737Y000915D03*
X002727Y000915D03*
X002717Y000915D03*
X002707Y000915D03*
X002697Y000915D03*
X002687Y000915D03*
X002677Y000915D03*
X002667Y000915D03*
X002657Y000915D03*
X003357Y000915D03*
X003367Y000915D03*
X003377Y000915D03*
X003387Y000915D03*
X003397Y000915D03*
X003407Y000915D03*
X003417Y000915D03*
X003427Y000915D03*
X003437Y000915D03*
X003447Y000915D03*
X003457Y000915D03*
X003467Y000915D03*
X003477Y000915D03*
X003487Y000915D03*
X003497Y000915D03*
X003507Y000915D03*
X003517Y000915D03*
X003527Y000915D03*
X003537Y000915D03*
X003547Y000915D03*
X003557Y000915D03*
X003567Y000915D03*
X003577Y000915D03*
X003587Y000915D03*
X003597Y000915D03*
X003607Y000915D03*
X003617Y000915D03*
X003627Y000915D03*
X003637Y000915D03*
X003647Y000915D03*
X003657Y000915D03*
X003667Y000915D03*
X003677Y000915D03*
X003687Y000915D03*
X003697Y000915D03*
X005007Y000905D03*
X005047Y000895D03*
X005057Y000895D03*
X005067Y000895D03*
X005077Y000895D03*
X005097Y000885D03*
X005107Y000885D03*
X005117Y000885D03*
X005127Y000885D03*
X005137Y000885D03*
X005147Y000885D03*
X005157Y000885D03*
X005167Y000885D03*
X005177Y000885D03*
X005187Y000885D03*
X005197Y000885D03*
X005207Y000885D03*
X005217Y000885D03*
X005227Y000885D03*
X005237Y000885D03*
X005247Y000885D03*
X005277Y000895D03*
X005287Y000895D03*
X005297Y000895D03*
X005307Y000895D03*
D81*
X005997Y003500D03*
X004357Y003510D03*
X004997Y007210D03*
X005317Y007900D03*
X002967Y007460D03*
X023967Y007460D03*
X025997Y007210D03*
X026317Y007900D03*
X026997Y003500D03*
X025357Y003510D03*
D82*
X025267Y005315D03*
X026007Y007215D03*
X026017Y007215D03*
X026307Y007895D03*
X026987Y001585D03*
X005987Y001585D03*
X004267Y005315D03*
X005007Y007215D03*
X005017Y007215D03*
X005307Y007895D03*
D83*
X005267Y007880D03*
X005047Y007230D03*
X002937Y007460D03*
X004127Y005330D03*
X004367Y003510D03*
X005987Y003500D03*
X004127Y001210D03*
X023937Y007460D03*
X026047Y007230D03*
X026267Y007880D03*
X025127Y005330D03*
X025367Y003510D03*
X026987Y003500D03*
X025127Y001210D03*
D84*
X025937Y000925D03*
X025947Y000925D03*
X025957Y000915D03*
X025967Y000915D03*
X026387Y000915D03*
X026397Y000915D03*
X026407Y000925D03*
X026417Y000925D03*
X026647Y002015D03*
X025697Y001985D03*
X024597Y002095D03*
X024587Y002095D03*
X024577Y002095D03*
X024437Y002075D03*
X024417Y002065D03*
X024407Y002055D03*
X023957Y001935D03*
X023737Y002005D03*
X025917Y002815D03*
X025937Y002805D03*
X025947Y002805D03*
X025967Y002795D03*
X025977Y002795D03*
X026377Y002795D03*
X026387Y002795D03*
X026407Y002805D03*
X024377Y003995D03*
X024367Y003995D03*
X024347Y003985D03*
X024337Y003985D03*
X024327Y003975D03*
X024317Y003975D03*
X024307Y003965D03*
X024297Y003965D03*
X024287Y003965D03*
X024277Y003955D03*
X024267Y003955D03*
X024257Y003945D03*
X024247Y003945D03*
X024227Y003935D03*
X024217Y003935D03*
X024197Y003925D03*
X024177Y003915D03*
X024147Y003905D03*
X024127Y003895D03*
X024077Y003875D03*
X024027Y003855D03*
X025947Y004205D03*
X025967Y004215D03*
X025977Y004215D03*
X026377Y004215D03*
X026387Y004215D03*
X026407Y004205D03*
X026417Y004205D03*
X026437Y004195D03*
X023957Y006055D03*
X023737Y006125D03*
X024407Y006175D03*
X024417Y006185D03*
X024437Y006195D03*
X024577Y006215D03*
X024587Y006215D03*
X024597Y006215D03*
X025797Y006135D03*
X025807Y006135D03*
X025817Y006145D03*
X025827Y006145D03*
X026047Y006125D03*
X026057Y006125D03*
X025327Y006945D03*
X026987Y008165D03*
X005987Y008165D03*
X004327Y006945D03*
X004797Y006135D03*
X004807Y006135D03*
X004817Y006145D03*
X004827Y006145D03*
X005047Y006125D03*
X005057Y006125D03*
X003597Y006215D03*
X003587Y006215D03*
X003577Y006215D03*
X003437Y006195D03*
X003417Y006185D03*
X003407Y006175D03*
X002957Y006055D03*
X002737Y006125D03*
X004947Y004205D03*
X004967Y004215D03*
X004977Y004215D03*
X005377Y004215D03*
X005387Y004215D03*
X005407Y004205D03*
X005417Y004205D03*
X005437Y004195D03*
X003377Y003995D03*
X003367Y003995D03*
X003347Y003985D03*
X003337Y003985D03*
X003327Y003975D03*
X003317Y003975D03*
X003307Y003965D03*
X003297Y003965D03*
X003287Y003965D03*
X003277Y003955D03*
X003267Y003955D03*
X003257Y003945D03*
X003247Y003945D03*
X003227Y003935D03*
X003217Y003935D03*
X003197Y003925D03*
X003177Y003915D03*
X003147Y003905D03*
X003127Y003895D03*
X003077Y003875D03*
X003027Y003855D03*
X004917Y002815D03*
X004937Y002805D03*
X004947Y002805D03*
X004967Y002795D03*
X004977Y002795D03*
X005377Y002795D03*
X005387Y002795D03*
X005407Y002805D03*
X005647Y002015D03*
X004697Y001985D03*
X003597Y002095D03*
X003587Y002095D03*
X003577Y002095D03*
X003437Y002075D03*
X003417Y002065D03*
X003407Y002055D03*
X002957Y001935D03*
X002737Y002005D03*
X004937Y000925D03*
X004947Y000925D03*
X004957Y000915D03*
X004967Y000915D03*
X005387Y000915D03*
X005397Y000915D03*
X005407Y000925D03*
X005417Y000925D03*
D85*
X005977Y001585D03*
X004377Y001595D03*
X005057Y007235D03*
X005067Y007235D03*
X005247Y007875D03*
X005257Y007875D03*
X002927Y007455D03*
X023927Y007455D03*
X026057Y007235D03*
X026067Y007235D03*
X026247Y007875D03*
X026257Y007875D03*
X026977Y001585D03*
X025377Y001595D03*
D86*
X026967Y001585D03*
X026977Y003505D03*
X025377Y003505D03*
X026087Y007245D03*
X026227Y007865D03*
X005977Y003505D03*
X004377Y003505D03*
X005967Y001585D03*
X005087Y007245D03*
X005227Y007865D03*
D87*
X004287Y005360D03*
X002237Y005360D03*
X004387Y003510D03*
X005967Y003500D03*
X004397Y001600D03*
X002237Y001240D03*
X023237Y001240D03*
X025397Y001600D03*
X025387Y003510D03*
X026967Y003500D03*
X025287Y005360D03*
X023237Y005360D03*
D88*
X023967Y006035D03*
X023707Y006115D03*
X024397Y006165D03*
X024627Y006205D03*
X025777Y006125D03*
X025357Y006955D03*
X024387Y007455D03*
X023897Y007755D03*
X023887Y007765D03*
X023867Y007775D03*
X023847Y007785D03*
X023817Y007805D03*
X023797Y007815D03*
X026967Y008155D03*
X025107Y004295D03*
X025087Y004285D03*
X025057Y004275D03*
X025037Y004265D03*
X025007Y004255D03*
X024987Y004245D03*
X024967Y004235D03*
X024937Y004225D03*
X024917Y004215D03*
X024897Y004205D03*
X024887Y004205D03*
X024867Y004195D03*
X024847Y004185D03*
X024837Y004185D03*
X024827Y004175D03*
X024817Y004175D03*
X024797Y004165D03*
X025877Y004175D03*
X025897Y004185D03*
X026467Y004185D03*
X026477Y004175D03*
X026487Y004175D03*
X026497Y004165D03*
X025857Y002845D03*
X025867Y002835D03*
X025877Y002835D03*
X025887Y002825D03*
X026437Y002815D03*
X026457Y002825D03*
X026467Y002825D03*
X026477Y002835D03*
X025127Y002735D03*
X025117Y002735D03*
X025097Y002745D03*
X025077Y002755D03*
X025067Y002755D03*
X025047Y002765D03*
X025027Y002775D03*
X024997Y002785D03*
X024977Y002795D03*
X024947Y002805D03*
X024927Y002815D03*
X024877Y002835D03*
X024627Y002085D03*
X024397Y002045D03*
X023967Y001915D03*
X023707Y001995D03*
X025867Y000955D03*
X025887Y000945D03*
X026467Y000945D03*
X026477Y000945D03*
X026487Y000955D03*
X005967Y008155D03*
X004357Y006955D03*
X003387Y007455D03*
X002897Y007755D03*
X002887Y007765D03*
X002867Y007775D03*
X002847Y007785D03*
X002817Y007805D03*
X002797Y007815D03*
X002707Y006115D03*
X002967Y006035D03*
X003397Y006165D03*
X003627Y006205D03*
X004777Y006125D03*
X004107Y004295D03*
X004087Y004285D03*
X004057Y004275D03*
X004037Y004265D03*
X004007Y004255D03*
X003987Y004245D03*
X003967Y004235D03*
X003937Y004225D03*
X003917Y004215D03*
X003897Y004205D03*
X003887Y004205D03*
X003867Y004195D03*
X003847Y004185D03*
X003837Y004185D03*
X003827Y004175D03*
X003817Y004175D03*
X003797Y004165D03*
X004877Y004175D03*
X004897Y004185D03*
X005467Y004185D03*
X005477Y004175D03*
X005487Y004175D03*
X005497Y004165D03*
X004857Y002845D03*
X004867Y002835D03*
X004877Y002835D03*
X004887Y002825D03*
X005437Y002815D03*
X005457Y002825D03*
X005467Y002825D03*
X005477Y002835D03*
X004127Y002735D03*
X004117Y002735D03*
X004097Y002745D03*
X004077Y002755D03*
X004067Y002755D03*
X004047Y002765D03*
X004027Y002775D03*
X003997Y002785D03*
X003977Y002795D03*
X003947Y002805D03*
X003927Y002815D03*
X003877Y002835D03*
X003627Y002085D03*
X003397Y002045D03*
X002967Y001915D03*
X002707Y001995D03*
X004867Y000955D03*
X004887Y000945D03*
X005467Y000945D03*
X005477Y000945D03*
X005487Y000955D03*
D89*
X005957Y001585D03*
X026957Y001585D03*
D90*
X025117Y001250D03*
X026957Y003500D03*
X025117Y005370D03*
X005957Y003500D03*
X004117Y005370D03*
X004117Y001250D03*
D91*
X004407Y001595D03*
X005947Y001585D03*
X004397Y003505D03*
X025397Y003505D03*
X025407Y001595D03*
X026947Y001585D03*
D92*
X026947Y003500D03*
X005947Y003500D03*
D93*
X004407Y003505D03*
X002247Y005385D03*
X004417Y001595D03*
X005937Y001585D03*
X002247Y001265D03*
X023247Y001265D03*
X025417Y001595D03*
X026937Y001585D03*
X025407Y003505D03*
X023247Y005385D03*
D94*
X025417Y003510D03*
X026937Y003500D03*
X025427Y001600D03*
X005937Y003500D03*
X004417Y003510D03*
X004427Y001600D03*
D95*
X003377Y002025D03*
X003647Y002075D03*
X004827Y002865D03*
X004837Y002855D03*
X005497Y002845D03*
X005517Y002855D03*
X005657Y002005D03*
X005527Y000975D03*
X005507Y000965D03*
X004827Y000975D03*
X004817Y000985D03*
X002297Y003525D03*
X004837Y004155D03*
X004857Y004165D03*
X005517Y004155D03*
X005527Y004145D03*
X005547Y005805D03*
X005567Y005815D03*
X005577Y005825D03*
X005597Y005835D03*
X005607Y005845D03*
X005627Y005855D03*
X005637Y005865D03*
X005657Y005875D03*
X005667Y005885D03*
X005687Y005895D03*
X005697Y005905D03*
X005717Y005915D03*
X005727Y005925D03*
X005757Y005945D03*
X005787Y005965D03*
X005817Y005985D03*
X005847Y006005D03*
X005877Y006025D03*
X005097Y006095D03*
X004757Y006115D03*
X003647Y006195D03*
X003377Y006145D03*
X002767Y007085D03*
X002757Y007085D03*
X002747Y007075D03*
X002737Y007075D03*
X002727Y007065D03*
X002707Y007055D03*
X002687Y007045D03*
X002677Y007035D03*
X002657Y007025D03*
X002637Y007015D03*
X002607Y006995D03*
X002587Y006985D03*
X002777Y007095D03*
X002787Y007105D03*
X002797Y007105D03*
X002807Y007115D03*
X002827Y007125D03*
X002847Y007135D03*
X002857Y007145D03*
X002877Y007155D03*
X002897Y007165D03*
X003367Y007455D03*
X002697Y007875D03*
X002647Y007905D03*
X002627Y007915D03*
X002597Y007935D03*
X002577Y007945D03*
X002567Y007955D03*
X002557Y007955D03*
X002547Y007965D03*
X002527Y007975D03*
X002517Y007985D03*
X002507Y007985D03*
X002497Y007995D03*
X002487Y007995D03*
X002477Y008005D03*
X002467Y008015D03*
X002457Y008015D03*
X002447Y008025D03*
X002427Y008035D03*
X002407Y008045D03*
X002397Y008055D03*
X002377Y008065D03*
X002357Y008075D03*
X004377Y006965D03*
X004387Y006965D03*
X005937Y008145D03*
X023357Y008075D03*
X023377Y008065D03*
X023397Y008055D03*
X023407Y008045D03*
X023427Y008035D03*
X023447Y008025D03*
X023457Y008015D03*
X023467Y008015D03*
X023477Y008005D03*
X023487Y007995D03*
X023497Y007995D03*
X023507Y007985D03*
X023517Y007985D03*
X023527Y007975D03*
X023547Y007965D03*
X023557Y007955D03*
X023567Y007955D03*
X023577Y007945D03*
X023597Y007935D03*
X023627Y007915D03*
X023647Y007905D03*
X023697Y007875D03*
X024367Y007455D03*
X023897Y007165D03*
X023877Y007155D03*
X023857Y007145D03*
X023847Y007135D03*
X023827Y007125D03*
X023807Y007115D03*
X023797Y007105D03*
X023787Y007105D03*
X023777Y007095D03*
X023767Y007085D03*
X023757Y007085D03*
X023747Y007075D03*
X023737Y007075D03*
X023727Y007065D03*
X023707Y007055D03*
X023687Y007045D03*
X023677Y007035D03*
X023657Y007025D03*
X023637Y007015D03*
X023607Y006995D03*
X023587Y006985D03*
X024377Y006145D03*
X024647Y006195D03*
X025757Y006115D03*
X026097Y006095D03*
X026667Y005885D03*
X026657Y005875D03*
X026637Y005865D03*
X026627Y005855D03*
X026607Y005845D03*
X026597Y005835D03*
X026577Y005825D03*
X026567Y005815D03*
X026547Y005805D03*
X026687Y005895D03*
X026697Y005905D03*
X026717Y005915D03*
X026727Y005925D03*
X026757Y005945D03*
X026787Y005965D03*
X026817Y005985D03*
X026847Y006005D03*
X026877Y006025D03*
X025387Y006965D03*
X025377Y006965D03*
X026937Y008145D03*
X026517Y004155D03*
X026527Y004145D03*
X025857Y004165D03*
X025837Y004155D03*
X025827Y002865D03*
X025837Y002855D03*
X026497Y002845D03*
X026517Y002855D03*
X026657Y002005D03*
X026527Y000975D03*
X026507Y000965D03*
X025827Y000975D03*
X025817Y000985D03*
X024377Y002025D03*
X024647Y002075D03*
X023297Y003525D03*
D96*
X025107Y005395D03*
X025307Y005395D03*
X026927Y001585D03*
X025107Y001275D03*
X005927Y001585D03*
X004107Y001275D03*
X004107Y005395D03*
X004307Y005395D03*
D97*
X005447Y005415D03*
X005487Y005415D03*
X005497Y005415D03*
X005927Y003505D03*
X004427Y003505D03*
X004437Y001595D03*
X005907Y001585D03*
X025437Y001595D03*
X026907Y001585D03*
X026927Y003505D03*
X025427Y003505D03*
X026447Y005415D03*
X026487Y005415D03*
X026497Y005415D03*
D98*
X026467Y005405D03*
X026457Y005405D03*
X025317Y005405D03*
X023257Y005405D03*
X026917Y001585D03*
X023257Y001285D03*
X005917Y001585D03*
X002257Y001285D03*
X002257Y005405D03*
X004317Y005405D03*
X005457Y005405D03*
X005467Y005405D03*
D99*
X005537Y005430D03*
X004337Y005430D03*
X005917Y003500D03*
X005897Y001590D03*
X025337Y005430D03*
X026537Y005430D03*
X026917Y003500D03*
X026897Y001590D03*
D100*
X026907Y003500D03*
X025447Y003510D03*
X025347Y005440D03*
X005907Y003500D03*
X004447Y003510D03*
X004347Y005440D03*
D101*
X004357Y005450D03*
X004077Y005450D03*
X005407Y005450D03*
X005897Y003500D03*
X004457Y003510D03*
X004077Y001330D03*
X025077Y001330D03*
X025457Y003510D03*
X026897Y003500D03*
X026407Y005450D03*
X025357Y005450D03*
X025077Y005450D03*
D102*
X024137Y005445D03*
X024127Y005445D03*
X023287Y005445D03*
X026417Y005445D03*
X026887Y001585D03*
X025467Y001595D03*
X024137Y001325D03*
X024127Y001325D03*
X023287Y001325D03*
X005887Y001585D03*
X004467Y001595D03*
X003137Y001325D03*
X003127Y001325D03*
X002287Y001325D03*
X002287Y005445D03*
X003127Y005445D03*
X003137Y005445D03*
X005417Y005445D03*
D103*
X005397Y005460D03*
X004367Y005460D03*
X003147Y005460D03*
X004467Y003510D03*
X005887Y003500D03*
X003147Y001340D03*
X024147Y001340D03*
X025467Y003510D03*
X026887Y003500D03*
X026397Y005460D03*
X025367Y005460D03*
X024147Y005460D03*
D104*
X024117Y005455D03*
X023297Y005455D03*
X025477Y001595D03*
X024117Y001335D03*
X023297Y001335D03*
X026877Y001585D03*
X005877Y001585D03*
X004477Y001595D03*
X003117Y001335D03*
X002297Y001335D03*
X002297Y005455D03*
X003117Y005455D03*
D105*
X004387Y005470D03*
X005877Y003500D03*
X005857Y001580D03*
X025387Y005470D03*
X026877Y003500D03*
X026857Y001580D03*
D106*
X026597Y001030D03*
X025757Y001030D03*
X025747Y001040D03*
X025257Y001600D03*
X023667Y001960D03*
X026587Y002910D03*
X026597Y004090D03*
X025777Y004110D03*
X025767Y004100D03*
X023367Y003520D03*
X023357Y003520D03*
X023347Y003520D03*
X026127Y006060D03*
X025447Y006990D03*
X026097Y007510D03*
X026107Y007520D03*
X026117Y007520D03*
X026127Y007530D03*
X026137Y007540D03*
X026147Y007550D03*
X026157Y007550D03*
X026167Y007560D03*
X026177Y007570D03*
X026187Y007580D03*
X026197Y007590D03*
X026207Y007590D03*
X026217Y007600D03*
X026877Y008120D03*
X024327Y007460D03*
X023667Y006080D03*
X005877Y008120D03*
X005217Y007600D03*
X005207Y007590D03*
X005197Y007590D03*
X005187Y007580D03*
X005177Y007570D03*
X005167Y007560D03*
X005157Y007550D03*
X005147Y007550D03*
X005137Y007540D03*
X005127Y007530D03*
X005117Y007520D03*
X005107Y007520D03*
X005097Y007510D03*
X004447Y006990D03*
X003327Y007460D03*
X002667Y006080D03*
X005127Y006060D03*
X004777Y004110D03*
X004767Y004100D03*
X005597Y004090D03*
X005587Y002910D03*
X004257Y001600D03*
X004747Y001040D03*
X004757Y001030D03*
X005597Y001030D03*
X002667Y001960D03*
X002367Y003520D03*
X002357Y003520D03*
X002347Y003520D03*
D107*
X002307Y005465D03*
X003107Y005465D03*
X004067Y005465D03*
X004377Y005465D03*
X005387Y005465D03*
X005867Y001585D03*
X004487Y001595D03*
X004067Y001345D03*
X003107Y001345D03*
X002307Y001345D03*
X023307Y001345D03*
X024107Y001345D03*
X025067Y001345D03*
X025487Y001595D03*
X026867Y001585D03*
X026387Y005465D03*
X025377Y005465D03*
X025067Y005465D03*
X024107Y005465D03*
X023307Y005465D03*
D108*
X024167Y005485D03*
X025407Y005485D03*
X025487Y003505D03*
X026867Y003505D03*
X026837Y001585D03*
X025507Y001595D03*
X024167Y001365D03*
X005837Y001585D03*
X004507Y001595D03*
X003167Y001365D03*
X004487Y003505D03*
X005867Y003505D03*
X004407Y005485D03*
X003167Y005485D03*
D109*
X003177Y005495D03*
X003067Y005495D03*
X002347Y005495D03*
X004037Y005495D03*
X004427Y005495D03*
X005347Y005495D03*
X005857Y003505D03*
X004497Y003505D03*
X004517Y001595D03*
X004037Y001375D03*
X003177Y001375D03*
X003067Y001375D03*
X002347Y001375D03*
X005827Y001585D03*
X023347Y001375D03*
X024067Y001375D03*
X024177Y001375D03*
X025037Y001375D03*
X025517Y001595D03*
X026827Y001585D03*
X026857Y003505D03*
X025497Y003505D03*
X025427Y005495D03*
X025037Y005495D03*
X024177Y005495D03*
X024067Y005495D03*
X023347Y005495D03*
X026347Y005495D03*
D110*
X026367Y005480D03*
X025397Y005480D03*
X024087Y005480D03*
X023327Y005480D03*
X026847Y001580D03*
X024087Y001360D03*
X023327Y001360D03*
X005847Y001580D03*
X003087Y001360D03*
X002327Y001360D03*
X002327Y005480D03*
X003087Y005480D03*
X004397Y005480D03*
X005367Y005480D03*
D111*
X005327Y005505D03*
X004437Y005505D03*
X004027Y005505D03*
X003187Y005505D03*
X003057Y005505D03*
X002357Y005505D03*
X004507Y003505D03*
X005847Y003505D03*
X005817Y001585D03*
X004527Y001595D03*
X004027Y001385D03*
X003187Y001385D03*
X003057Y001385D03*
X002357Y001385D03*
X023357Y001385D03*
X024057Y001385D03*
X024187Y001385D03*
X025027Y001385D03*
X025527Y001595D03*
X026817Y001585D03*
X026847Y003505D03*
X025507Y003505D03*
X025437Y005505D03*
X025027Y005505D03*
X024187Y005505D03*
X024057Y005505D03*
X023357Y005505D03*
X026327Y005505D03*
D112*
X026307Y005515D03*
X025457Y005515D03*
X025017Y005515D03*
X024197Y005515D03*
X024037Y005515D03*
X023377Y005515D03*
X025517Y003505D03*
X026837Y003505D03*
X026807Y001585D03*
X025017Y001395D03*
X024197Y001395D03*
X024037Y001395D03*
X023377Y001395D03*
X005807Y001585D03*
X004017Y001395D03*
X003197Y001395D03*
X003037Y001395D03*
X002377Y001395D03*
X004517Y003505D03*
X005837Y003505D03*
X005307Y005515D03*
X004457Y005515D03*
X004017Y005515D03*
X003197Y005515D03*
X003037Y005515D03*
X002377Y005515D03*
D113*
X004477Y007005D03*
X004487Y007005D03*
X003307Y007455D03*
X005837Y008105D03*
X005627Y004065D03*
X004737Y004075D03*
X004727Y002945D03*
X005617Y002935D03*
X004727Y001065D03*
X024307Y007455D03*
X025477Y007005D03*
X025487Y007005D03*
X026837Y008105D03*
X026627Y004065D03*
X025737Y004075D03*
X025727Y002945D03*
X026617Y002935D03*
X025727Y001065D03*
D114*
X025547Y001590D03*
X024027Y001400D03*
X023387Y001400D03*
X026827Y003500D03*
X026297Y005520D03*
X025467Y005520D03*
X024027Y005520D03*
X023387Y005520D03*
X005827Y003500D03*
X005297Y005520D03*
X004467Y005520D03*
X003027Y005520D03*
X002387Y005520D03*
X004547Y001590D03*
X003027Y001400D03*
X002387Y001400D03*
D115*
X002407Y001410D03*
X003007Y001410D03*
X003217Y001410D03*
X003997Y001410D03*
X004537Y003510D03*
X003397Y003520D03*
X003387Y003520D03*
X005817Y003500D03*
X005277Y005530D03*
X005267Y005530D03*
X004497Y005530D03*
X003997Y005530D03*
X003217Y005530D03*
X003007Y005530D03*
X002407Y005530D03*
X023407Y005530D03*
X024007Y005530D03*
X024217Y005530D03*
X024997Y005530D03*
X025497Y005530D03*
X026267Y005530D03*
X026277Y005530D03*
X026817Y003500D03*
X025537Y003510D03*
X024397Y003520D03*
X024387Y003520D03*
X024217Y001410D03*
X024007Y001410D03*
X023407Y001410D03*
X024997Y001410D03*
D116*
X025657Y001540D03*
X025667Y001530D03*
X026777Y001590D03*
X024227Y001420D03*
X023987Y001420D03*
X023437Y001420D03*
X023427Y001420D03*
X024407Y003520D03*
X024417Y003520D03*
X024427Y003520D03*
X025547Y003510D03*
X026807Y003500D03*
X026247Y005540D03*
X025517Y005540D03*
X024227Y005540D03*
X023987Y005540D03*
X023437Y005540D03*
X023427Y005540D03*
X005807Y003500D03*
X004547Y003510D03*
X003427Y003520D03*
X003417Y003520D03*
X003407Y003520D03*
X003227Y005540D03*
X002987Y005540D03*
X002437Y005540D03*
X002427Y005540D03*
X004517Y005540D03*
X005247Y005540D03*
X005777Y001590D03*
X004667Y001530D03*
X004657Y001540D03*
X003227Y001420D03*
X002987Y001420D03*
X002437Y001420D03*
X002427Y001420D03*
D117*
X002397Y001405D03*
X003017Y001405D03*
X003207Y001405D03*
X004007Y001405D03*
X004557Y001595D03*
X005797Y001585D03*
X004527Y003505D03*
X004487Y005525D03*
X004477Y005525D03*
X004007Y005525D03*
X003207Y005525D03*
X003017Y005525D03*
X002397Y005525D03*
X005287Y005525D03*
X023397Y005525D03*
X024017Y005525D03*
X024207Y005525D03*
X025007Y005525D03*
X025477Y005525D03*
X025487Y005525D03*
X026287Y005525D03*
X025527Y003505D03*
X025557Y001595D03*
X025007Y001405D03*
X024207Y001405D03*
X024017Y001405D03*
X023397Y001405D03*
X026797Y001585D03*
D118*
X025587Y001590D03*
X024967Y001430D03*
X023457Y001430D03*
X024437Y003520D03*
X024447Y003520D03*
X025557Y003510D03*
X026797Y003500D03*
X026217Y005550D03*
X025547Y005550D03*
X024967Y005550D03*
X023457Y005550D03*
X005797Y003500D03*
X004557Y003510D03*
X003447Y003520D03*
X003437Y003520D03*
X003967Y005550D03*
X004547Y005550D03*
X005217Y005550D03*
X002457Y005550D03*
X002457Y001430D03*
X003967Y001430D03*
X004587Y001590D03*
D119*
X004707Y001090D03*
X005637Y002960D03*
X004717Y004050D03*
X002437Y003520D03*
X002427Y003520D03*
X002417Y003520D03*
X004707Y006050D03*
X004517Y007020D03*
X003277Y007460D03*
X005797Y008090D03*
X023417Y003520D03*
X023427Y003520D03*
X023437Y003520D03*
X025717Y004050D03*
X026637Y002960D03*
X025707Y001090D03*
X025707Y006050D03*
X025517Y007020D03*
X024277Y007460D03*
X026797Y008090D03*
D120*
X026257Y005535D03*
X025507Y005535D03*
X024987Y005535D03*
X023997Y005535D03*
X023417Y005535D03*
X025567Y001595D03*
X025677Y001515D03*
X024987Y001415D03*
X023997Y001415D03*
X023417Y001415D03*
X026787Y001585D03*
X005787Y001585D03*
X004677Y001515D03*
X004567Y001595D03*
X003987Y001415D03*
X002997Y001415D03*
X002417Y001415D03*
X002417Y005535D03*
X002997Y005535D03*
X003987Y005535D03*
X004507Y005535D03*
X005257Y005535D03*
D121*
X005187Y005560D03*
X005177Y005560D03*
X004587Y005560D03*
X004577Y005560D03*
X003947Y005560D03*
X003257Y005560D03*
X002497Y005560D03*
X002487Y005560D03*
X003457Y003520D03*
X003467Y003520D03*
X004567Y003510D03*
X005787Y003500D03*
X005677Y001540D03*
X003947Y001440D03*
X003257Y001440D03*
X002497Y001440D03*
X002487Y001440D03*
X023487Y001440D03*
X023497Y001440D03*
X024257Y001440D03*
X024947Y001440D03*
X026677Y001540D03*
X026787Y003500D03*
X025567Y003510D03*
X024467Y003520D03*
X024457Y003520D03*
X024257Y005560D03*
X024947Y005560D03*
X025577Y005560D03*
X025587Y005560D03*
X026177Y005560D03*
X026187Y005560D03*
X023497Y005560D03*
X023487Y005560D03*
D122*
X023507Y005565D03*
X023517Y005565D03*
X024267Y005565D03*
X024937Y005565D03*
X025597Y005565D03*
X025607Y005565D03*
X026157Y005565D03*
X026167Y005565D03*
X025577Y003505D03*
X026777Y003505D03*
X026747Y001585D03*
X026687Y001555D03*
X024937Y001445D03*
X024267Y001445D03*
X023517Y001445D03*
X023507Y001445D03*
X005747Y001585D03*
X005687Y001555D03*
X003937Y001445D03*
X003267Y001445D03*
X002517Y001445D03*
X002507Y001445D03*
X004577Y003505D03*
X005777Y003505D03*
X005167Y005565D03*
X005157Y005565D03*
X004607Y005565D03*
X004597Y005565D03*
X003937Y005565D03*
X003267Y005565D03*
X002517Y005565D03*
X002507Y005565D03*
D123*
X002447Y005545D03*
X003237Y005545D03*
X003977Y005545D03*
X004527Y005545D03*
X004537Y005545D03*
X005227Y005545D03*
X005237Y005545D03*
X005767Y001585D03*
X004647Y001545D03*
X004637Y001555D03*
X004577Y001595D03*
X003977Y001425D03*
X003237Y001425D03*
X002447Y001425D03*
X023447Y001425D03*
X024237Y001425D03*
X024977Y001425D03*
X025577Y001595D03*
X025637Y001555D03*
X025647Y001545D03*
X026767Y001585D03*
X026237Y005545D03*
X026227Y005545D03*
X025537Y005545D03*
X025527Y005545D03*
X024977Y005545D03*
X024237Y005545D03*
X023447Y005545D03*
D124*
X023557Y005575D03*
X023567Y005575D03*
X023577Y005575D03*
X024287Y005575D03*
X024917Y005575D03*
X025637Y005575D03*
X025647Y005575D03*
X025657Y005575D03*
X025587Y003505D03*
X026767Y003505D03*
X024917Y001455D03*
X024287Y001455D03*
X023577Y001455D03*
X023567Y001455D03*
X023557Y001455D03*
X005767Y003505D03*
X004587Y003505D03*
X004637Y005575D03*
X004647Y005575D03*
X004657Y005575D03*
X003917Y005575D03*
X003287Y005575D03*
X002577Y005575D03*
X002567Y005575D03*
X002557Y005575D03*
X002557Y001455D03*
X002567Y001455D03*
X002577Y001455D03*
X003287Y001455D03*
X003917Y001455D03*
D125*
X003957Y001435D03*
X004597Y001595D03*
X004607Y001585D03*
X004617Y001575D03*
X004627Y001565D03*
X005757Y001585D03*
X003247Y001435D03*
X002477Y001435D03*
X002467Y001435D03*
X002467Y005555D03*
X002477Y005555D03*
X003247Y005555D03*
X003957Y005555D03*
X004557Y005555D03*
X004567Y005555D03*
X005197Y005555D03*
X005207Y005555D03*
X023467Y005555D03*
X023477Y005555D03*
X024247Y005555D03*
X024957Y005555D03*
X025557Y005555D03*
X025567Y005555D03*
X026197Y005555D03*
X026207Y005555D03*
X025597Y001595D03*
X025607Y001585D03*
X025617Y001575D03*
X025627Y001565D03*
X024957Y001435D03*
X024247Y001435D03*
X023477Y001435D03*
X023467Y001435D03*
X026757Y001585D03*
D126*
X026727Y001590D03*
X026717Y001580D03*
X024907Y001460D03*
X024897Y001460D03*
X024307Y001460D03*
X024297Y001460D03*
X023637Y001460D03*
X023627Y001460D03*
X023617Y001460D03*
X023607Y001460D03*
X023597Y001460D03*
X023587Y001460D03*
X024507Y003520D03*
X024517Y003520D03*
X025597Y003510D03*
X026757Y003500D03*
X025687Y005580D03*
X025677Y005580D03*
X025667Y005580D03*
X024907Y005580D03*
X024897Y005580D03*
X024307Y005580D03*
X024297Y005580D03*
X023637Y005580D03*
X023627Y005580D03*
X023617Y005580D03*
X023607Y005580D03*
X023597Y005580D03*
X023587Y005580D03*
X005757Y003500D03*
X004597Y003510D03*
X003517Y003520D03*
X003507Y003520D03*
X003307Y001460D03*
X003297Y001460D03*
X002637Y001460D03*
X002627Y001460D03*
X002617Y001460D03*
X002607Y001460D03*
X002597Y001460D03*
X002587Y001460D03*
X003897Y001460D03*
X003907Y001460D03*
X005717Y001580D03*
X005727Y001590D03*
X004687Y005580D03*
X004677Y005580D03*
X004667Y005580D03*
X003907Y005580D03*
X003897Y005580D03*
X003307Y005580D03*
X003297Y005580D03*
X002637Y005580D03*
X002627Y005580D03*
X002617Y005580D03*
X002607Y005580D03*
X002597Y005580D03*
X002587Y005580D03*
D127*
X004557Y007035D03*
X003257Y007455D03*
X005757Y008075D03*
X005657Y004015D03*
X004697Y004015D03*
X024257Y007455D03*
X025557Y007035D03*
X026757Y008075D03*
X026657Y004015D03*
X025697Y004015D03*
D128*
X025607Y003510D03*
X026747Y003500D03*
X024537Y003520D03*
X024527Y003520D03*
X024327Y001470D03*
X024877Y001470D03*
X024877Y005590D03*
X024327Y005590D03*
X005747Y003500D03*
X004607Y003510D03*
X003537Y003520D03*
X003527Y003520D03*
X003327Y001470D03*
X003877Y001470D03*
X003877Y005590D03*
X003327Y005590D03*
D129*
X003277Y005570D03*
X002547Y005570D03*
X002537Y005570D03*
X002527Y005570D03*
X003927Y005570D03*
X004617Y005570D03*
X004627Y005570D03*
X005147Y005570D03*
X003497Y003520D03*
X003487Y003520D03*
X003477Y003520D03*
X003277Y001450D03*
X002547Y001450D03*
X002537Y001450D03*
X002527Y001450D03*
X003927Y001450D03*
X005697Y001560D03*
X005707Y001570D03*
X005737Y001590D03*
X023527Y001450D03*
X023537Y001450D03*
X023547Y001450D03*
X024277Y001450D03*
X024927Y001450D03*
X026697Y001560D03*
X026707Y001570D03*
X026737Y001590D03*
X024497Y003520D03*
X024487Y003520D03*
X024477Y003520D03*
X024277Y005570D03*
X023547Y005570D03*
X023537Y005570D03*
X023527Y005570D03*
X024927Y005570D03*
X025617Y005570D03*
X025627Y005570D03*
X026147Y005570D03*
D130*
X024867Y005595D03*
X024857Y005595D03*
X024347Y005595D03*
X024337Y005595D03*
X025617Y003505D03*
X026737Y003505D03*
X024867Y001475D03*
X024857Y001475D03*
X024347Y001475D03*
X024337Y001475D03*
X005737Y003505D03*
X004617Y003505D03*
X003867Y001475D03*
X003857Y001475D03*
X003347Y001475D03*
X003337Y001475D03*
X003337Y005595D03*
X003347Y005595D03*
X003857Y005595D03*
X003867Y005595D03*
D131*
X003827Y005605D03*
X003817Y005605D03*
X004627Y003505D03*
X005727Y003505D03*
X003827Y001485D03*
X003817Y001485D03*
X024817Y001485D03*
X024827Y001485D03*
X025627Y003505D03*
X026727Y003505D03*
X024827Y005605D03*
X024817Y005605D03*
D132*
X025597Y007050D03*
X024227Y007460D03*
X026717Y008060D03*
X026727Y008060D03*
X026667Y004000D03*
X025687Y003010D03*
X023507Y003520D03*
X023497Y003520D03*
X023487Y003520D03*
X005667Y004000D03*
X004687Y003010D03*
X002507Y003520D03*
X002497Y003520D03*
X002487Y003520D03*
X004597Y007050D03*
X003227Y007460D03*
X005717Y008060D03*
X005727Y008060D03*
D133*
X003807Y005610D03*
X003797Y005610D03*
X003587Y003520D03*
X003577Y003520D03*
X005717Y003500D03*
X003807Y001490D03*
X003797Y001490D03*
X024577Y003520D03*
X024587Y003520D03*
X026717Y003500D03*
X024807Y001490D03*
X024797Y001490D03*
X024797Y005610D03*
X024807Y005610D03*
D134*
X024757Y005620D03*
X024747Y005620D03*
X024737Y005620D03*
X024607Y003520D03*
X024597Y003520D03*
X026707Y003500D03*
X024757Y001500D03*
X024747Y001500D03*
X024737Y001500D03*
X005707Y003500D03*
X003607Y003520D03*
X003597Y003520D03*
X003737Y001500D03*
X003747Y001500D03*
X003757Y001500D03*
X003757Y005620D03*
X003747Y005620D03*
X003737Y005620D03*
D135*
X004607Y007055D03*
X005707Y008055D03*
X004687Y003995D03*
X005667Y003015D03*
X004687Y001135D03*
X025687Y001135D03*
X026667Y003015D03*
X025687Y003995D03*
X025607Y007055D03*
X026707Y008055D03*
D136*
X024727Y005625D03*
X024717Y005625D03*
X024707Y005625D03*
X025657Y003505D03*
X026697Y003505D03*
X024727Y001505D03*
X024717Y001505D03*
X024707Y001505D03*
X005697Y003505D03*
X004657Y003505D03*
X003727Y001505D03*
X003717Y001505D03*
X003707Y001505D03*
X003707Y005625D03*
X003717Y005625D03*
X003727Y005625D03*
D137*
X003637Y003520D03*
X003627Y003520D03*
X003617Y003520D03*
X004667Y003510D03*
X005687Y003500D03*
X024617Y003520D03*
X024627Y003520D03*
X024637Y003520D03*
X025667Y003510D03*
X026687Y003500D03*
D138*
X026567Y002030D03*
X005567Y002030D03*
D139*
X005557Y002030D03*
X004787Y002010D03*
X025787Y002010D03*
X026557Y002030D03*
D140*
X026547Y002030D03*
X025797Y002010D03*
X005547Y002030D03*
X004797Y002010D03*
D141*
X004807Y002010D03*
X005537Y002030D03*
X025807Y002010D03*
X026537Y002030D03*
D142*
X026527Y002025D03*
X025817Y002005D03*
X005527Y002025D03*
X004817Y002005D03*
D143*
X004447Y001595D03*
X004437Y003505D03*
X005437Y005425D03*
X005517Y005425D03*
X005527Y005425D03*
X025437Y003505D03*
X026437Y005425D03*
X026517Y005425D03*
X026527Y005425D03*
X025447Y001595D03*
D144*
X026507Y002020D03*
X005507Y002020D03*
D145*
X004097Y001300D03*
X002267Y001300D03*
X002267Y005420D03*
X004097Y005420D03*
X004327Y005420D03*
X005507Y005420D03*
X023267Y005420D03*
X025097Y005420D03*
X025327Y005420D03*
X026507Y005420D03*
X025097Y001300D03*
X023267Y001300D03*
D146*
X025857Y002000D03*
X026487Y002020D03*
X005487Y002020D03*
X004857Y002000D03*
D147*
X005477Y002015D03*
X026477Y002015D03*
D148*
X026477Y005410D03*
X005477Y005410D03*
D149*
X005467Y002010D03*
X004877Y002000D03*
X025877Y002000D03*
X026467Y002010D03*
D150*
X026457Y002005D03*
X025887Y001995D03*
X005457Y002005D03*
X004887Y001995D03*
D151*
X004457Y001595D03*
X004087Y001315D03*
X002277Y001315D03*
X002277Y005435D03*
X004087Y005435D03*
X005427Y005435D03*
X023277Y005435D03*
X025087Y005435D03*
X026427Y005435D03*
X025457Y001595D03*
X025087Y001315D03*
X023277Y001315D03*
D152*
X023317Y001355D03*
X024097Y001355D03*
X024157Y001355D03*
X025057Y001355D03*
X025497Y001595D03*
X025477Y003505D03*
X025057Y005475D03*
X024157Y005475D03*
X024097Y005475D03*
X023317Y005475D03*
X026377Y005475D03*
X005377Y005475D03*
X004057Y005475D03*
X003157Y005475D03*
X003097Y005475D03*
X002317Y005475D03*
X004477Y003505D03*
X004497Y001595D03*
X004057Y001355D03*
X003157Y001355D03*
X003097Y001355D03*
X002317Y001355D03*
D153*
X002337Y001370D03*
X003077Y001370D03*
X004047Y001370D03*
X004047Y005490D03*
X004417Y005490D03*
X005357Y005490D03*
X003077Y005490D03*
X002337Y005490D03*
X023337Y005490D03*
X024077Y005490D03*
X025047Y005490D03*
X025417Y005490D03*
X026357Y005490D03*
X025047Y001370D03*
X024077Y001370D03*
X023337Y001370D03*
D154*
X025347Y003505D03*
X025957Y007195D03*
X025967Y007195D03*
X026357Y007915D03*
X005357Y007915D03*
X004967Y007195D03*
X004957Y007195D03*
X004347Y003505D03*
D155*
X005337Y005500D03*
X026337Y005500D03*
D156*
X025987Y007205D03*
X026327Y007905D03*
X023977Y007455D03*
X005327Y007905D03*
X004987Y007205D03*
X002977Y007455D03*
D157*
X003047Y005510D03*
X002367Y005510D03*
X004447Y005510D03*
X005317Y005510D03*
X004537Y001590D03*
X003047Y001390D03*
X002367Y001390D03*
X023367Y001390D03*
X024047Y001390D03*
X025537Y001590D03*
X025447Y005510D03*
X026317Y005510D03*
X024047Y005510D03*
X023367Y005510D03*
D158*
X023227Y005320D03*
X026027Y007220D03*
X026287Y007890D03*
X026297Y007890D03*
X023957Y007460D03*
X025367Y001600D03*
X023227Y001200D03*
X005297Y007890D03*
X005287Y007890D03*
X005027Y007220D03*
X002957Y007460D03*
X002227Y005320D03*
X004367Y001600D03*
X002227Y001200D03*
D159*
X005037Y007225D03*
X005277Y007885D03*
X002947Y007455D03*
X023947Y007455D03*
X026037Y007225D03*
X026277Y007885D03*
D160*
X026237Y007870D03*
X026077Y007240D03*
X023917Y007460D03*
X025277Y005340D03*
X005237Y007870D03*
X005077Y007240D03*
X002917Y007460D03*
X004277Y005340D03*
D161*
X004897Y001990D03*
X025897Y001990D03*
D162*
X025867Y002000D03*
X004867Y002000D03*
D163*
X004837Y002005D03*
X025837Y002005D03*
D164*
X025777Y002010D03*
X004777Y002010D03*
D165*
X003887Y001465D03*
X003317Y001465D03*
X002647Y001465D03*
X002647Y005585D03*
X003317Y005585D03*
X003887Y005585D03*
X004697Y005585D03*
X023647Y005585D03*
X024317Y005585D03*
X024887Y005585D03*
X025697Y005585D03*
X024887Y001465D03*
X024317Y001465D03*
X023647Y001465D03*
D166*
X024767Y001495D03*
X024777Y001495D03*
X024787Y001495D03*
X025637Y003505D03*
X025647Y003505D03*
X024787Y005615D03*
X024777Y005615D03*
X024767Y005615D03*
X004647Y003505D03*
X004637Y003505D03*
X003787Y001495D03*
X003777Y001495D03*
X003767Y001495D03*
X003767Y005615D03*
X003777Y005615D03*
X003787Y005615D03*
D167*
X004387Y001600D03*
X025387Y001600D03*
D168*
X025297Y005380D03*
X004297Y005380D03*
D169*
X004237Y003505D03*
X025237Y003505D03*
D170*
X024567Y003520D03*
X024557Y003520D03*
X024547Y003520D03*
X024837Y001480D03*
X024847Y001480D03*
X024847Y005600D03*
X024837Y005600D03*
X003847Y005600D03*
X003837Y005600D03*
X003567Y003520D03*
X003557Y003520D03*
X003547Y003520D03*
X003837Y001480D03*
X003847Y001480D03*
D171*
X003787Y003520D03*
X024787Y003520D03*
D172*
X024777Y003520D03*
X024767Y003520D03*
X003777Y003520D03*
X003767Y003520D03*
D173*
X003757Y003520D03*
X003747Y003520D03*
X003737Y003520D03*
X024737Y003520D03*
X024747Y003520D03*
X024757Y003520D03*
D174*
X024727Y003520D03*
X024717Y003520D03*
X003727Y003520D03*
X003717Y003520D03*
D175*
X003707Y003520D03*
X003697Y003520D03*
X024697Y003520D03*
X024707Y003520D03*
D176*
X024687Y003525D03*
X003687Y003525D03*
D177*
X003677Y003520D03*
X003667Y003520D03*
X024667Y003520D03*
X024677Y003520D03*
D178*
X024657Y003520D03*
X024647Y003520D03*
X003657Y003520D03*
X003647Y003520D03*
D179*
X014137Y002460D02*
X014947Y002460D01*
X014947Y006460D01*
X014137Y006460D01*
X014137Y007960D02*
X014947Y007960D01*
X014947Y011960D01*
X014137Y011960D01*
X014137Y013460D02*
X014947Y013460D01*
X014947Y017460D01*
X014137Y017460D01*
X035137Y017460D02*
X035947Y017460D01*
X035947Y013460D01*
X035137Y013460D01*
X035137Y011960D02*
X035947Y011960D01*
X035947Y007960D01*
X035137Y007960D01*
X035137Y006460D02*
X035947Y006460D01*
X035947Y002460D01*
X035137Y002460D01*
D180*
X039987Y002210D02*
X040237Y001960D01*
X040737Y001960D01*
X040987Y002210D01*
X040987Y002710D01*
X040737Y002960D01*
X040237Y002960D01*
X039987Y002710D01*
X039987Y002210D01*
X040237Y002960D02*
X039987Y003210D01*
X039987Y003710D01*
X040237Y003960D01*
X039987Y004210D01*
X039987Y004710D01*
X040237Y004960D01*
X039987Y005210D01*
X039987Y005710D01*
X040237Y005960D01*
X039987Y006210D01*
X039987Y006710D01*
X040237Y006960D01*
X039987Y007210D01*
X039987Y007710D01*
X040237Y007960D01*
X039987Y008210D01*
X039987Y008710D01*
X040237Y008960D01*
X039987Y009210D01*
X039987Y009710D01*
X040237Y009960D01*
X039987Y010210D01*
X039987Y010710D01*
X040237Y010960D01*
X039987Y011210D01*
X039987Y011710D01*
X040237Y011960D01*
X039987Y012210D01*
X039987Y012710D01*
X040237Y012960D01*
X039987Y013210D01*
X039987Y013710D01*
X040237Y013960D01*
X039987Y014210D01*
X039987Y014710D01*
X040237Y014960D01*
X039987Y015210D01*
X039987Y015710D01*
X040237Y015960D01*
X039987Y016210D01*
X039987Y016710D01*
X040237Y016960D01*
X039987Y017210D01*
X039987Y017710D01*
X040237Y017960D01*
X040737Y017960D01*
X040987Y017710D01*
X040987Y017210D01*
X040737Y016960D01*
X040987Y016710D01*
X040987Y016210D01*
X040737Y015960D01*
X040237Y015960D01*
X040737Y015960D02*
X040987Y015710D01*
X040987Y015210D01*
X040737Y014960D01*
X040987Y014710D01*
X040987Y014210D01*
X040737Y013960D01*
X040987Y013710D01*
X040987Y013210D01*
X040737Y012960D01*
X040237Y012960D01*
X040737Y012960D02*
X040987Y012710D01*
X040987Y012210D01*
X040737Y011960D01*
X040987Y011710D01*
X040987Y011210D01*
X040737Y010960D01*
X040987Y010710D01*
X040987Y010210D01*
X040737Y009960D01*
X040237Y009960D01*
X040737Y009960D02*
X040987Y009710D01*
X040987Y009210D01*
X040737Y008960D01*
X040987Y008710D01*
X040987Y008210D01*
X040737Y007960D01*
X040987Y007710D01*
X040987Y007210D01*
X040737Y006960D01*
X040237Y006960D01*
X040737Y006960D02*
X040987Y006710D01*
X040987Y006210D01*
X040737Y005960D01*
X040987Y005710D01*
X040987Y005210D01*
X040737Y004960D01*
X040987Y004710D01*
X040987Y004210D01*
X040737Y003960D01*
X040237Y003960D01*
X040737Y003960D02*
X040987Y003710D01*
X040987Y003210D01*
X040737Y002960D01*
X040737Y004960D02*
X040237Y004960D01*
X040237Y005960D02*
X040737Y005960D01*
X040737Y007960D02*
X040237Y007960D01*
X040237Y008960D02*
X040737Y008960D01*
X040737Y010960D02*
X040237Y010960D01*
X040237Y011960D02*
X040737Y011960D01*
X040737Y013960D02*
X040237Y013960D01*
X040237Y014960D02*
X040737Y014960D01*
X040737Y016960D02*
X040237Y016960D01*
X028947Y016390D02*
X027527Y016390D01*
X027527Y014530D02*
X028947Y014530D01*
X022987Y014710D02*
X022987Y014210D01*
X022737Y013960D01*
X022987Y013710D01*
X022987Y013210D01*
X022737Y012960D01*
X022987Y012710D01*
X022987Y012210D01*
X022737Y011960D01*
X022987Y011710D01*
X022987Y011210D01*
X022737Y010960D01*
X022987Y010710D01*
X022987Y010210D01*
X022737Y009960D01*
X022987Y009710D01*
X022987Y009210D01*
X022737Y008960D01*
X022987Y008710D01*
X022987Y008210D01*
X022737Y007960D01*
X022987Y007710D01*
X022987Y007210D01*
X022737Y006960D01*
X022987Y006710D01*
X022987Y006210D01*
X022737Y005960D01*
X022987Y005710D01*
X022987Y005210D01*
X022737Y004960D01*
X022987Y004710D01*
X022987Y004210D01*
X022737Y003960D01*
X022987Y003710D01*
X022987Y003210D01*
X022737Y002960D01*
X022987Y002710D01*
X022987Y002210D01*
X022737Y001960D01*
X022237Y001960D01*
X021987Y002210D01*
X021987Y002710D01*
X022237Y002960D01*
X021987Y003210D01*
X021987Y003710D01*
X022237Y003960D01*
X022737Y003960D01*
X022237Y003960D02*
X021987Y004210D01*
X021987Y004710D01*
X022237Y004960D01*
X021987Y005210D01*
X021987Y005710D01*
X022237Y005960D01*
X021987Y006210D01*
X021987Y006710D01*
X022237Y006960D01*
X022737Y006960D01*
X022237Y006960D02*
X021987Y007210D01*
X021987Y007710D01*
X022237Y007960D01*
X021987Y008210D01*
X021987Y008710D01*
X022237Y008960D01*
X021987Y009210D01*
X021987Y009710D01*
X022237Y009960D01*
X022737Y009960D01*
X022237Y009960D02*
X021987Y010210D01*
X021987Y010710D01*
X022237Y010960D01*
X021987Y011210D01*
X021987Y011710D01*
X022237Y011960D01*
X021987Y012210D01*
X021987Y012710D01*
X022237Y012960D01*
X022737Y012960D01*
X022237Y012960D02*
X021987Y013210D01*
X021987Y013710D01*
X022237Y013960D01*
X021987Y014210D01*
X021987Y014710D01*
X022237Y014960D01*
X021987Y015210D01*
X021987Y015710D01*
X022237Y015960D01*
X022737Y015960D01*
X022987Y015710D01*
X022987Y015210D01*
X022737Y014960D01*
X022987Y014710D01*
X022737Y014960D02*
X022237Y014960D01*
X022237Y013960D02*
X022737Y013960D01*
X019987Y013710D02*
X019987Y013210D01*
X019737Y012960D01*
X019237Y012960D01*
X018987Y013210D01*
X018987Y013710D01*
X019237Y013960D01*
X018987Y014210D01*
X018987Y014710D01*
X019237Y014960D01*
X018987Y015210D01*
X018987Y015710D01*
X019237Y015960D01*
X018987Y016210D01*
X018987Y016710D01*
X019237Y016960D01*
X018987Y017210D01*
X018987Y017710D01*
X019237Y017960D01*
X019737Y017960D01*
X019987Y017710D01*
X019987Y017210D01*
X019737Y016960D01*
X019987Y016710D01*
X019987Y016210D01*
X019737Y015960D01*
X019237Y015960D01*
X019737Y015960D02*
X019987Y015710D01*
X019987Y015210D01*
X019737Y014960D01*
X019987Y014710D01*
X019987Y014210D01*
X019737Y013960D01*
X019987Y013710D01*
X019737Y013960D02*
X019237Y013960D01*
X019237Y012960D02*
X018987Y012710D01*
X018987Y012210D01*
X019237Y011960D01*
X018987Y011710D01*
X018987Y011210D01*
X019237Y010960D01*
X018987Y010710D01*
X018987Y010210D01*
X019237Y009960D01*
X019737Y009960D01*
X019987Y010210D01*
X019987Y010710D01*
X019737Y010960D01*
X019237Y010960D01*
X019737Y010960D02*
X019987Y011210D01*
X019987Y011710D01*
X019737Y011960D01*
X019237Y011960D01*
X019737Y011960D02*
X019987Y012210D01*
X019987Y012710D01*
X019737Y012960D01*
X022237Y011960D02*
X022737Y011960D01*
X022737Y010960D02*
X022237Y010960D01*
X019987Y009710D02*
X019737Y009960D01*
X019987Y009710D02*
X019987Y009210D01*
X019737Y008960D01*
X019987Y008710D01*
X019987Y008210D01*
X019737Y007960D01*
X019987Y007710D01*
X019987Y007210D01*
X019737Y006960D01*
X019237Y006960D01*
X018987Y007210D01*
X018987Y007710D01*
X019237Y007960D01*
X018987Y008210D01*
X018987Y008710D01*
X019237Y008960D01*
X018987Y009210D01*
X018987Y009710D01*
X019237Y009960D01*
X019237Y008960D02*
X019737Y008960D01*
X019737Y007960D02*
X019237Y007960D01*
X019237Y006960D02*
X018987Y006710D01*
X018987Y006210D01*
X019237Y005960D01*
X018987Y005710D01*
X018987Y005210D01*
X019237Y004960D01*
X018987Y004710D01*
X018987Y004210D01*
X019237Y003960D01*
X019737Y003960D01*
X019987Y004210D01*
X019987Y004710D01*
X019737Y004960D01*
X019237Y004960D01*
X019737Y004960D02*
X019987Y005210D01*
X019987Y005710D01*
X019737Y005960D01*
X019237Y005960D01*
X019737Y005960D02*
X019987Y006210D01*
X019987Y006710D01*
X019737Y006960D01*
X022237Y005960D02*
X022737Y005960D01*
X022737Y004960D02*
X022237Y004960D01*
X019987Y003710D02*
X019737Y003960D01*
X019987Y003710D02*
X019987Y003210D01*
X019737Y002960D01*
X019987Y002710D01*
X019987Y002210D01*
X019737Y001960D01*
X019237Y001960D01*
X018987Y002210D01*
X018987Y002710D01*
X019237Y002960D01*
X018987Y003210D01*
X018987Y003710D01*
X019237Y003960D01*
X019237Y002960D02*
X019737Y002960D01*
X022237Y002960D02*
X022737Y002960D01*
X022737Y007960D02*
X022237Y007960D01*
X022237Y008960D02*
X022737Y008960D01*
X027527Y009030D02*
X028947Y009030D01*
X028947Y010890D02*
X027527Y010890D01*
X019737Y014960D02*
X019237Y014960D01*
X021987Y016210D02*
X021987Y016710D01*
X022237Y016960D01*
X021987Y017210D01*
X021987Y017710D01*
X022237Y017960D01*
X022737Y017960D01*
X022987Y017710D01*
X022987Y017210D01*
X022737Y016960D01*
X022987Y016710D01*
X022987Y016210D01*
X022737Y015960D01*
X022237Y015960D02*
X021987Y016210D01*
X022237Y016960D02*
X022737Y016960D01*
X019737Y016960D02*
X019237Y016960D01*
X007947Y016390D02*
X006527Y016390D01*
X006527Y014530D02*
X007947Y014530D01*
X001987Y014710D02*
X001987Y014210D01*
X001737Y013960D01*
X001987Y013710D01*
X001987Y013210D01*
X001737Y012960D01*
X001987Y012710D01*
X001987Y012210D01*
X001737Y011960D01*
X001987Y011710D01*
X001987Y011210D01*
X001737Y010960D01*
X001987Y010710D01*
X001987Y010210D01*
X001737Y009960D01*
X001987Y009710D01*
X001987Y009210D01*
X001737Y008960D01*
X001987Y008710D01*
X001987Y008210D01*
X001737Y007960D01*
X001987Y007710D01*
X001987Y007210D01*
X001737Y006960D01*
X001987Y006710D01*
X001987Y006210D01*
X001737Y005960D01*
X001987Y005710D01*
X001987Y005210D01*
X001737Y004960D01*
X001987Y004710D01*
X001987Y004210D01*
X001737Y003960D01*
X001987Y003710D01*
X001987Y003210D01*
X001737Y002960D01*
X001987Y002710D01*
X001987Y002210D01*
X001737Y001960D01*
X001237Y001960D01*
X000987Y002210D01*
X000987Y002710D01*
X001237Y002960D01*
X000987Y003210D01*
X000987Y003710D01*
X001237Y003960D01*
X001737Y003960D01*
X001237Y003960D02*
X000987Y004210D01*
X000987Y004710D01*
X001237Y004960D01*
X000987Y005210D01*
X000987Y005710D01*
X001237Y005960D01*
X000987Y006210D01*
X000987Y006710D01*
X001237Y006960D01*
X001737Y006960D01*
X001237Y006960D02*
X000987Y007210D01*
X000987Y007710D01*
X001237Y007960D01*
X000987Y008210D01*
X000987Y008710D01*
X001237Y008960D01*
X000987Y009210D01*
X000987Y009710D01*
X001237Y009960D01*
X001737Y009960D01*
X001237Y009960D02*
X000987Y010210D01*
X000987Y010710D01*
X001237Y010960D01*
X000987Y011210D01*
X000987Y011710D01*
X001237Y011960D01*
X000987Y012210D01*
X000987Y012710D01*
X001237Y012960D01*
X001737Y012960D01*
X001237Y012960D02*
X000987Y013210D01*
X000987Y013710D01*
X001237Y013960D01*
X000987Y014210D01*
X000987Y014710D01*
X001237Y014960D01*
X000987Y015210D01*
X000987Y015710D01*
X001237Y015960D01*
X001737Y015960D01*
X001987Y015710D01*
X001987Y015210D01*
X001737Y014960D01*
X001987Y014710D01*
X001737Y014960D02*
X001237Y014960D01*
X001237Y013960D02*
X001737Y013960D01*
X001737Y011960D02*
X001237Y011960D01*
X001237Y010960D02*
X001737Y010960D01*
X001737Y008960D02*
X001237Y008960D01*
X001237Y007960D02*
X001737Y007960D01*
X001737Y005960D02*
X001237Y005960D01*
X001237Y004960D02*
X001737Y004960D01*
X001737Y002960D02*
X001237Y002960D01*
X006527Y009030D02*
X007947Y009030D01*
X007947Y010890D02*
X006527Y010890D01*
X001737Y015960D02*
X001987Y016210D01*
X001987Y016710D01*
X001737Y016960D01*
X001987Y017210D01*
X001987Y017710D01*
X001737Y017960D01*
X001237Y017960D01*
X000987Y017710D01*
X000987Y017210D01*
X001237Y016960D01*
X001737Y016960D01*
X001237Y016960D02*
X000987Y016710D01*
X000987Y016210D01*
X001237Y015960D01*
D181*
X007570Y014750D02*
X007572Y014765D01*
X007578Y014778D01*
X007587Y014790D01*
X007598Y014799D01*
X007612Y014805D01*
X007627Y014807D01*
X007642Y014805D01*
X007655Y014799D01*
X007667Y014790D01*
X007676Y014779D01*
X007682Y014765D01*
X007684Y014750D01*
X007682Y014735D01*
X007676Y014722D01*
X007667Y014710D01*
X007656Y014701D01*
X007642Y014695D01*
X007627Y014693D01*
X007612Y014695D01*
X007599Y014701D01*
X007587Y014710D01*
X007578Y014721D01*
X007572Y014735D01*
X007570Y014750D01*
X015231Y014814D02*
X015231Y014263D01*
X015743Y014263D01*
X015743Y014814D01*
X015743Y014263D02*
X015743Y014106D01*
X015231Y014106D02*
X015231Y014263D01*
X017107Y013222D02*
X018367Y013222D01*
X018748Y013955D02*
X018748Y015215D01*
X018748Y015705D02*
X018748Y016965D01*
X017725Y016965D02*
X017725Y015705D01*
X017725Y015215D02*
X017725Y013955D01*
X017107Y012198D02*
X018367Y012198D01*
X018748Y011465D02*
X018748Y010205D01*
X017725Y010205D02*
X017725Y011465D01*
X017725Y009715D02*
X017725Y008455D01*
X018748Y008455D02*
X018748Y009715D01*
X015743Y009314D02*
X015743Y008763D01*
X015231Y008763D01*
X015231Y009314D01*
X015231Y008763D02*
X015231Y008606D01*
X015743Y008606D02*
X015743Y008763D01*
X017107Y007722D02*
X018367Y007722D01*
X018367Y006698D02*
X017107Y006698D01*
X017725Y005965D02*
X017725Y004705D01*
X018748Y004705D02*
X018748Y005965D01*
X018748Y004215D02*
X018748Y002955D01*
X017725Y002955D02*
X017725Y004215D01*
X015743Y003814D02*
X015743Y003263D01*
X015231Y003263D01*
X015231Y003814D01*
X015231Y003263D02*
X015231Y003106D01*
X015743Y003106D02*
X015743Y003263D01*
X007570Y009250D02*
X007572Y009265D01*
X007578Y009278D01*
X007587Y009290D01*
X007598Y009299D01*
X007612Y009305D01*
X007627Y009307D01*
X007642Y009305D01*
X007655Y009299D01*
X007667Y009290D01*
X007676Y009279D01*
X007682Y009265D01*
X007684Y009250D01*
X007682Y009235D01*
X007676Y009222D01*
X007667Y009210D01*
X007656Y009201D01*
X007642Y009195D01*
X007627Y009193D01*
X007612Y009195D01*
X007599Y009201D01*
X007587Y009210D01*
X007578Y009221D01*
X007572Y009235D01*
X007570Y009250D01*
X028570Y009250D02*
X028572Y009265D01*
X028578Y009278D01*
X028587Y009290D01*
X028598Y009299D01*
X028612Y009305D01*
X028627Y009307D01*
X028642Y009305D01*
X028655Y009299D01*
X028667Y009290D01*
X028676Y009279D01*
X028682Y009265D01*
X028684Y009250D01*
X028682Y009235D01*
X028676Y009222D01*
X028667Y009210D01*
X028656Y009201D01*
X028642Y009195D01*
X028627Y009193D01*
X028612Y009195D01*
X028599Y009201D01*
X028587Y009210D01*
X028578Y009221D01*
X028572Y009235D01*
X028570Y009250D01*
X036231Y009314D02*
X036231Y008763D01*
X036743Y008763D01*
X036743Y009314D01*
X036743Y008763D02*
X036743Y008606D01*
X036231Y008606D02*
X036231Y008763D01*
X038107Y007722D02*
X039367Y007722D01*
X039748Y008455D02*
X039748Y009715D01*
X038725Y009715D02*
X038725Y008455D01*
X038107Y006698D02*
X039367Y006698D01*
X039748Y005965D02*
X039748Y004705D01*
X038725Y004705D02*
X038725Y005965D01*
X038725Y004215D02*
X038725Y002955D01*
X039748Y002955D02*
X039748Y004215D01*
X036743Y003814D02*
X036743Y003263D01*
X036231Y003263D01*
X036231Y003814D01*
X036231Y003263D02*
X036231Y003106D01*
X036743Y003106D02*
X036743Y003263D01*
X038725Y010205D02*
X038725Y011465D01*
X039748Y011465D02*
X039748Y010205D01*
X039367Y012198D02*
X038107Y012198D01*
X038107Y013222D02*
X039367Y013222D01*
X039748Y013955D02*
X039748Y015215D01*
X039748Y015705D02*
X039748Y016965D01*
X038725Y016965D02*
X038725Y015705D01*
X038725Y015215D02*
X038725Y013955D01*
X036743Y014106D02*
X036743Y014263D01*
X036231Y014263D01*
X036231Y014814D01*
X036743Y014814D02*
X036743Y014263D01*
X036231Y014263D02*
X036231Y014106D01*
X028570Y014750D02*
X028572Y014765D01*
X028578Y014778D01*
X028587Y014790D01*
X028598Y014799D01*
X028612Y014805D01*
X028627Y014807D01*
X028642Y014805D01*
X028655Y014799D01*
X028667Y014790D01*
X028676Y014779D01*
X028682Y014765D01*
X028684Y014750D01*
X028682Y014735D01*
X028676Y014722D01*
X028667Y014710D01*
X028656Y014701D01*
X028642Y014695D01*
X028627Y014693D01*
X028612Y014695D01*
X028599Y014701D01*
X028587Y014710D01*
X028578Y014721D01*
X028572Y014735D01*
X028570Y014750D01*
D182*
X025854Y014960D03*
X025619Y014960D03*
X024604Y017710D03*
X024369Y017710D03*
X024104Y017710D03*
X023869Y017710D03*
X015854Y013335D03*
X015619Y013335D03*
X015354Y013335D03*
X015119Y013335D03*
X023369Y009460D03*
X023604Y009460D03*
X024869Y009460D03*
X025104Y009460D03*
X025104Y008460D03*
X024869Y008460D03*
X026119Y010460D03*
X026354Y010460D03*
X027369Y011460D03*
X027604Y011460D03*
X036119Y013335D03*
X036354Y013335D03*
X036619Y013335D03*
X036854Y013335D03*
X036854Y007835D03*
X036619Y007835D03*
X036354Y007835D03*
X036119Y007835D03*
X036119Y002335D03*
X036354Y002335D03*
X036619Y002335D03*
X036854Y002335D03*
X015854Y002335D03*
X015619Y002335D03*
X015354Y002335D03*
X015119Y002335D03*
X015119Y007835D03*
X015354Y007835D03*
X015619Y007835D03*
X015854Y007835D03*
X006604Y011460D03*
X006369Y011460D03*
X005354Y010460D03*
X005119Y010460D03*
X004104Y009460D03*
X003869Y009460D03*
X002604Y009460D03*
X002369Y009460D03*
X003869Y008460D03*
X004104Y008460D03*
X004619Y014960D03*
X004854Y014960D03*
X003604Y017710D03*
X003369Y017710D03*
X003104Y017710D03*
X002869Y017710D03*
D183*
X003487Y010666D03*
X003487Y010254D03*
X024487Y010254D03*
X024487Y010666D03*
D184*
X025987Y011093D03*
X025987Y011327D03*
X025987Y014093D03*
X025987Y014327D03*
X025987Y015593D03*
X025987Y015827D03*
X004987Y015827D03*
X004987Y015593D03*
X004987Y014327D03*
X004987Y014093D03*
X004987Y011327D03*
X004987Y011093D03*
M02*
