G75*
G70*
%OFA0B0*%
%FSLAX24Y24*%
%IPPOS*%
%LPD*%
%AMOC8*
5,1,8,0,0,1.08239X$1,22.5*
%
%ADD10C,0.0980*%
%ADD11R,0.5000X0.1000*%
%ADD12C,0.0120*%
%ADD13C,0.0090*%
%ADD14C,0.0250*%
%ADD15R,0.0434X0.0192*%
%ADD16C,0.0165*%
%ADD17R,0.3580X0.4580*%
%ADD18R,0.1330X0.0430*%
%ADD19R,0.0474X0.0297*%
%ADD20R,0.0680X0.0680*%
%ADD21OC8,0.0680*%
%ADD22R,0.0407X0.0328*%
%ADD23R,0.0789X0.1340*%
%ADD24R,0.0297X0.0474*%
%ADD25R,0.0671X0.1655*%
%ADD26R,0.0659X0.0580*%
%ADD27R,0.0434X0.0631*%
%ADD28R,0.0200X0.0470*%
%ADD29R,0.0867X0.0552*%
%ADD30R,0.0552X0.0867*%
%ADD31R,0.0580X0.0330*%
%ADD32C,0.1240*%
D10*
X001487Y000960D03*
X019487Y000960D03*
X022487Y000960D03*
X040487Y000960D03*
X040487Y018960D03*
X022487Y018960D03*
X019487Y018960D03*
X001487Y018960D03*
D11*
X005487Y018960D03*
X026487Y018960D03*
X036487Y000960D03*
X015487Y000960D03*
D12*
X010427Y001032D02*
X010233Y000645D01*
X010040Y001032D01*
X009782Y001129D02*
X009685Y001225D01*
X009492Y001225D01*
X009395Y001129D01*
X009395Y001032D01*
X009782Y000645D01*
X009395Y000645D01*
X009138Y000645D02*
X009041Y000645D01*
X009041Y000742D01*
X009138Y000742D01*
X009138Y000645D01*
X008815Y000645D02*
X008428Y000645D01*
X008622Y000645D02*
X008622Y001225D01*
X008815Y001032D01*
X029428Y000645D02*
X029815Y000645D01*
X029622Y000645D02*
X029622Y001225D01*
X029815Y001032D01*
X030395Y001032D02*
X030395Y001129D01*
X030492Y001225D01*
X030685Y001225D01*
X030782Y001129D01*
X031040Y001032D02*
X031233Y000645D01*
X031427Y001032D01*
X030782Y000645D02*
X030395Y000645D01*
X030138Y000645D02*
X030041Y000645D01*
X030041Y000742D01*
X030138Y000742D01*
X030138Y000645D01*
X030395Y001032D02*
X030782Y000645D01*
D13*
X031940Y001187D02*
X032009Y001118D01*
X032077Y001118D01*
X031940Y001187D02*
X031940Y001529D01*
X032214Y001529D02*
X032214Y001323D01*
X032146Y001255D01*
X031940Y001255D01*
X032310Y001040D02*
X032310Y000630D01*
X032310Y000767D02*
X032105Y000904D01*
X032310Y000767D02*
X032105Y000630D01*
X032497Y000698D02*
X032566Y000767D01*
X032702Y000767D01*
X032771Y000835D01*
X032702Y000904D01*
X032497Y000904D01*
X032497Y000698D02*
X032566Y000630D01*
X032771Y000630D01*
X032958Y000630D02*
X032958Y000904D01*
X033231Y000904D02*
X033231Y000698D01*
X033163Y000630D01*
X032958Y000630D01*
X033418Y000630D02*
X033418Y001040D01*
X033418Y000835D02*
X033692Y000835D01*
X033692Y000630D02*
X033692Y001040D01*
X033305Y001255D02*
X033305Y001665D01*
X033442Y001665D02*
X033168Y001665D01*
X032981Y001529D02*
X032913Y001529D01*
X032913Y001255D01*
X032981Y001255D02*
X032844Y001255D01*
X032674Y001255D02*
X032674Y001529D01*
X032469Y001529D01*
X032401Y001460D01*
X032401Y001255D01*
X032913Y001665D02*
X032913Y001734D01*
X012692Y001040D02*
X012692Y000630D01*
X012692Y000835D02*
X012418Y000835D01*
X012231Y000904D02*
X012231Y000698D01*
X012163Y000630D01*
X011958Y000630D01*
X011958Y000904D01*
X011771Y000835D02*
X011702Y000904D01*
X011497Y000904D01*
X011566Y000767D02*
X011702Y000767D01*
X011771Y000835D01*
X011771Y000630D02*
X011566Y000630D01*
X011497Y000698D01*
X011566Y000767D01*
X011310Y000767D02*
X011105Y000904D01*
X011077Y001118D02*
X011009Y001118D01*
X010940Y001187D01*
X010940Y001529D01*
X011214Y001529D02*
X011214Y001323D01*
X011146Y001255D01*
X010940Y001255D01*
X011310Y001040D02*
X011310Y000630D01*
X011310Y000767D02*
X011105Y000630D01*
X011401Y001255D02*
X011401Y001460D01*
X011469Y001529D01*
X011674Y001529D01*
X011674Y001255D01*
X011844Y001255D02*
X011981Y001255D01*
X011913Y001255D02*
X011913Y001529D01*
X011981Y001529D01*
X011913Y001665D02*
X011913Y001734D01*
X012168Y001665D02*
X012442Y001665D01*
X012305Y001665D02*
X012305Y001255D01*
X012418Y001040D02*
X012418Y000630D01*
D14*
X020362Y001710D03*
X020362Y001960D03*
X020362Y002210D03*
X020362Y002460D03*
X020362Y002710D03*
X020362Y002960D03*
X020362Y003210D03*
X021612Y003210D03*
X021612Y002960D03*
X021612Y002710D03*
X021612Y002460D03*
X021612Y002210D03*
X021612Y001960D03*
X021612Y001710D03*
X021612Y009210D03*
X021612Y009460D03*
X021612Y009710D03*
X021612Y009960D03*
X021612Y010210D03*
X021612Y010460D03*
X021612Y010710D03*
X020362Y010710D03*
X020362Y010460D03*
X020362Y010210D03*
X020362Y009960D03*
X020362Y009710D03*
X020362Y009460D03*
X020362Y009210D03*
X020362Y016710D03*
X020362Y016960D03*
X020362Y017210D03*
X020362Y017460D03*
X020362Y017710D03*
X020362Y017960D03*
X020362Y018210D03*
X021612Y018210D03*
X021612Y017960D03*
X021612Y017710D03*
X021612Y017460D03*
X021612Y017210D03*
X021612Y016960D03*
X021612Y016710D03*
D15*
X024951Y008617D03*
X024951Y008421D03*
X024951Y008224D03*
X024951Y008027D03*
X024951Y007830D03*
X024951Y007633D03*
X024951Y007436D03*
X024951Y007240D03*
X024951Y007043D03*
X024951Y006846D03*
X024951Y006649D03*
X024951Y006452D03*
X024951Y006255D03*
X024951Y006058D03*
X024951Y005862D03*
X024951Y005665D03*
X024951Y005468D03*
X024951Y005271D03*
X024951Y005074D03*
X024951Y004877D03*
X024951Y004680D03*
X024951Y004484D03*
X024951Y004287D03*
X024951Y004090D03*
X024951Y003893D03*
X024951Y003696D03*
X024951Y003499D03*
X024951Y003303D03*
X027983Y003303D03*
X027983Y003499D03*
X027983Y003696D03*
X027983Y003893D03*
X027983Y004090D03*
X027983Y004287D03*
X027983Y004484D03*
X027983Y004680D03*
X027983Y004877D03*
X027983Y005074D03*
X027983Y005271D03*
X027983Y005468D03*
X027983Y005665D03*
X027983Y005862D03*
X027983Y006058D03*
X027983Y006255D03*
X027983Y006452D03*
X027983Y006649D03*
X027983Y006846D03*
X027983Y007043D03*
X027983Y007240D03*
X027983Y007436D03*
X027983Y007633D03*
X027983Y007830D03*
X027983Y008027D03*
X027983Y008224D03*
X027983Y008421D03*
X027983Y008617D03*
X006983Y008617D03*
X006983Y008421D03*
X006983Y008224D03*
X006983Y008027D03*
X006983Y007830D03*
X006983Y007633D03*
X006983Y007436D03*
X006983Y007240D03*
X006983Y007043D03*
X006983Y006846D03*
X006983Y006649D03*
X006983Y006452D03*
X006983Y006255D03*
X006983Y006058D03*
X006983Y005862D03*
X006983Y005665D03*
X006983Y005468D03*
X006983Y005271D03*
X006983Y005074D03*
X006983Y004877D03*
X006983Y004680D03*
X006983Y004484D03*
X006983Y004287D03*
X006983Y004090D03*
X006983Y003893D03*
X006983Y003696D03*
X006983Y003499D03*
X006983Y003303D03*
X003951Y003303D03*
X003951Y003499D03*
X003951Y003696D03*
X003951Y003893D03*
X003951Y004090D03*
X003951Y004287D03*
X003951Y004484D03*
X003951Y004680D03*
X003951Y004877D03*
X003951Y005074D03*
X003951Y005271D03*
X003951Y005468D03*
X003951Y005665D03*
X003951Y005862D03*
X003951Y006058D03*
X003951Y006255D03*
X003951Y006452D03*
X003951Y006649D03*
X003951Y006846D03*
X003951Y007043D03*
X003951Y007240D03*
X003951Y007436D03*
X003951Y007633D03*
X003951Y007830D03*
X003951Y008027D03*
X003951Y008224D03*
X003951Y008421D03*
X003951Y008617D03*
D16*
X006232Y007591D02*
X006232Y004329D01*
X004742Y004329D01*
X004742Y007591D01*
X006232Y007591D01*
X006232Y004493D02*
X004742Y004493D01*
X004742Y004657D02*
X006232Y004657D01*
X006232Y004821D02*
X004742Y004821D01*
X004742Y004985D02*
X006232Y004985D01*
X006232Y005149D02*
X004742Y005149D01*
X004742Y005313D02*
X006232Y005313D01*
X006232Y005477D02*
X004742Y005477D01*
X004742Y005641D02*
X006232Y005641D01*
X006232Y005805D02*
X004742Y005805D01*
X004742Y005969D02*
X006232Y005969D01*
X006232Y006133D02*
X004742Y006133D01*
X004742Y006297D02*
X006232Y006297D01*
X006232Y006461D02*
X004742Y006461D01*
X004742Y006625D02*
X006232Y006625D01*
X006232Y006789D02*
X004742Y006789D01*
X004742Y006953D02*
X006232Y006953D01*
X006232Y007117D02*
X004742Y007117D01*
X004742Y007281D02*
X006232Y007281D01*
X006232Y007445D02*
X004742Y007445D01*
X027232Y007591D02*
X027232Y004329D01*
X025742Y004329D01*
X025742Y007591D01*
X027232Y007591D01*
X027232Y004493D02*
X025742Y004493D01*
X025742Y004657D02*
X027232Y004657D01*
X027232Y004821D02*
X025742Y004821D01*
X025742Y004985D02*
X027232Y004985D01*
X027232Y005149D02*
X025742Y005149D01*
X025742Y005313D02*
X027232Y005313D01*
X027232Y005477D02*
X025742Y005477D01*
X025742Y005641D02*
X027232Y005641D01*
X027232Y005805D02*
X025742Y005805D01*
X025742Y005969D02*
X027232Y005969D01*
X027232Y006133D02*
X025742Y006133D01*
X025742Y006297D02*
X027232Y006297D01*
X027232Y006461D02*
X025742Y006461D01*
X025742Y006625D02*
X027232Y006625D01*
X027232Y006789D02*
X025742Y006789D01*
X025742Y006953D02*
X027232Y006953D01*
X027232Y007117D02*
X025742Y007117D01*
X025742Y007281D02*
X027232Y007281D01*
X027232Y007445D02*
X025742Y007445D01*
D17*
X015737Y009960D03*
X015737Y004460D03*
X036737Y004460D03*
X036737Y009960D03*
X036737Y015460D03*
X015737Y015460D03*
D18*
X011112Y014960D03*
X011112Y014460D03*
X011112Y013960D03*
X011112Y015960D03*
X011112Y016460D03*
X011112Y016960D03*
X011112Y011460D03*
X011112Y010960D03*
X011112Y010460D03*
X011112Y009460D03*
X011112Y008960D03*
X011112Y008460D03*
X011112Y005960D03*
X011112Y005460D03*
X011112Y004960D03*
X011112Y003960D03*
X011112Y003460D03*
X011112Y002960D03*
X032112Y002960D03*
X032112Y003460D03*
X032112Y003960D03*
X032112Y004960D03*
X032112Y005460D03*
X032112Y005960D03*
X032112Y008460D03*
X032112Y008960D03*
X032112Y009460D03*
X032112Y010460D03*
X032112Y010960D03*
X032112Y011460D03*
X032112Y013960D03*
X032112Y014460D03*
X032112Y014960D03*
X032112Y015960D03*
X032112Y016460D03*
X032112Y016960D03*
D19*
X030987Y014495D03*
X030987Y013925D03*
X026237Y012745D03*
X025737Y012745D03*
X025237Y012745D03*
X024737Y012745D03*
X024737Y012175D03*
X025237Y012175D03*
X025737Y012175D03*
X026237Y012175D03*
X030987Y008995D03*
X030987Y008425D03*
X028612Y007245D03*
X028612Y006675D03*
X028612Y006245D03*
X028612Y005675D03*
X028612Y005245D03*
X028612Y004675D03*
X028612Y004245D03*
X028612Y003675D03*
X030987Y003495D03*
X030987Y002925D03*
X024237Y002925D03*
X023612Y002925D03*
X023612Y003495D03*
X023612Y003800D03*
X024237Y003800D03*
X024237Y003495D03*
X024237Y004370D03*
X023612Y004370D03*
X023612Y004675D03*
X024237Y004675D03*
X024237Y005245D03*
X023612Y005245D03*
X023612Y005550D03*
X024237Y005550D03*
X024237Y006120D03*
X023612Y006120D03*
X009987Y008425D03*
X009987Y008995D03*
X007612Y007245D03*
X007612Y006675D03*
X007612Y006245D03*
X007612Y005675D03*
X007612Y005245D03*
X007612Y004675D03*
X007612Y004245D03*
X007612Y003675D03*
X009987Y003495D03*
X009987Y002925D03*
X003237Y002925D03*
X002612Y002925D03*
X002612Y003495D03*
X002612Y003800D03*
X003237Y003800D03*
X003237Y003495D03*
X003237Y004370D03*
X002612Y004370D03*
X002612Y004675D03*
X003237Y004675D03*
X003237Y005245D03*
X002612Y005245D03*
X002612Y005550D03*
X003237Y005550D03*
X003237Y006120D03*
X002612Y006120D03*
X003737Y012175D03*
X004237Y012175D03*
X004737Y012175D03*
X005237Y012175D03*
X005237Y012745D03*
X004737Y012745D03*
X004237Y012745D03*
X003737Y012745D03*
X009987Y013925D03*
X009987Y014495D03*
X005237Y016175D03*
X004737Y016175D03*
X004237Y016175D03*
X003737Y016175D03*
X003737Y016745D03*
X004237Y016745D03*
X004737Y016745D03*
X005237Y016745D03*
X024737Y016745D03*
X025237Y016745D03*
X025737Y016745D03*
X026237Y016745D03*
X026237Y016175D03*
X025737Y016175D03*
X025237Y016175D03*
X024737Y016175D03*
D20*
X019487Y017460D03*
X040487Y017460D03*
X022487Y002460D03*
X001487Y002460D03*
D21*
X001487Y003460D03*
X001487Y004460D03*
X001487Y005460D03*
X001487Y006460D03*
X001487Y007460D03*
X001487Y008460D03*
X001487Y009460D03*
X001487Y010460D03*
X001487Y011460D03*
X001487Y012460D03*
X001487Y013460D03*
X001487Y014460D03*
X001487Y015460D03*
X001487Y016460D03*
X001487Y017460D03*
X019487Y016460D03*
X019487Y015460D03*
X019487Y014460D03*
X019487Y013460D03*
X019487Y012460D03*
X019487Y011460D03*
X019487Y010460D03*
X019487Y009460D03*
X019487Y008460D03*
X019487Y007460D03*
X019487Y006460D03*
X019487Y005460D03*
X019487Y004460D03*
X019487Y003460D03*
X019487Y002460D03*
X022487Y003460D03*
X022487Y004460D03*
X022487Y005460D03*
X022487Y006460D03*
X022487Y007460D03*
X022487Y008460D03*
X022487Y009460D03*
X022487Y010460D03*
X022487Y011460D03*
X022487Y012460D03*
X022487Y013460D03*
X022487Y014460D03*
X022487Y015460D03*
X022487Y016460D03*
X022487Y017460D03*
X040487Y016460D03*
X040487Y015460D03*
X040487Y014460D03*
X040487Y013460D03*
X040487Y012460D03*
X040487Y011460D03*
X040487Y010460D03*
X040487Y009460D03*
X040487Y008460D03*
X040487Y007460D03*
X040487Y006460D03*
X040487Y005460D03*
X040487Y004460D03*
X040487Y003460D03*
X040487Y002460D03*
D22*
X033487Y003007D03*
X033487Y003913D03*
X033487Y008507D03*
X033487Y009413D03*
X033487Y014007D03*
X033487Y014913D03*
X012487Y014913D03*
X012487Y014007D03*
X012487Y009413D03*
X012487Y008507D03*
X012487Y003913D03*
X012487Y003007D03*
D23*
X012884Y018710D03*
X015089Y018710D03*
X033884Y018710D03*
X036089Y018710D03*
D24*
X023772Y016710D03*
X023201Y016710D03*
X023201Y016210D03*
X023772Y016210D03*
X023772Y015710D03*
X023201Y015710D03*
X023201Y015210D03*
X023772Y015210D03*
X023772Y014710D03*
X023201Y014710D03*
X023201Y014210D03*
X023772Y014210D03*
X023772Y013710D03*
X023201Y013710D03*
X023201Y013210D03*
X023772Y013210D03*
X023772Y012710D03*
X023201Y012710D03*
X023201Y012210D03*
X023772Y012210D03*
X025201Y009210D03*
X025772Y009210D03*
X030201Y007210D03*
X030772Y007210D03*
X027772Y002835D03*
X027201Y002835D03*
X026772Y002835D03*
X026201Y002835D03*
X025772Y002835D03*
X025201Y002835D03*
X024272Y002210D03*
X023701Y002210D03*
X030201Y001710D03*
X030772Y001710D03*
X009772Y001710D03*
X009201Y001710D03*
X006772Y002835D03*
X006201Y002835D03*
X005772Y002835D03*
X005201Y002835D03*
X004772Y002835D03*
X004201Y002835D03*
X003272Y002210D03*
X002701Y002210D03*
X009201Y007210D03*
X009772Y007210D03*
X004772Y009210D03*
X004201Y009210D03*
X002772Y012210D03*
X002201Y012210D03*
X002201Y012710D03*
X002772Y012710D03*
X002772Y013210D03*
X002201Y013210D03*
X002201Y013710D03*
X002772Y013710D03*
X002772Y014210D03*
X002201Y014210D03*
X002201Y014710D03*
X002772Y014710D03*
X002772Y015210D03*
X002201Y015210D03*
X002201Y015710D03*
X002772Y015710D03*
X002772Y016210D03*
X002201Y016210D03*
X002201Y016710D03*
X002772Y016710D03*
X009201Y012710D03*
X009772Y012710D03*
X030201Y012710D03*
X030772Y012710D03*
D25*
X027195Y001460D03*
X025778Y001460D03*
X006195Y001460D03*
X004778Y001460D03*
D26*
X007487Y000614D03*
X007487Y002306D03*
X028487Y002306D03*
X028487Y000614D03*
D27*
X024670Y001460D03*
X023804Y001460D03*
X003670Y001460D03*
X002804Y001460D03*
D28*
X003737Y013390D03*
X003987Y013390D03*
X004237Y013390D03*
X004487Y013390D03*
X004737Y013390D03*
X004987Y013390D03*
X005237Y013390D03*
X005237Y015530D03*
X004987Y015530D03*
X004737Y015530D03*
X004487Y015530D03*
X004237Y015530D03*
X003987Y015530D03*
X003737Y015530D03*
X024737Y015530D03*
X024987Y015530D03*
X025237Y015530D03*
X025487Y015530D03*
X025737Y015530D03*
X025987Y015530D03*
X026237Y015530D03*
X026237Y013390D03*
X025987Y013390D03*
X025737Y013390D03*
X025487Y013390D03*
X025237Y013390D03*
X024987Y013390D03*
X024737Y013390D03*
D29*
X018237Y013955D03*
X018237Y015215D03*
X018237Y015705D03*
X018237Y016965D03*
X018237Y011465D03*
X018237Y010205D03*
X018237Y009715D03*
X018237Y008455D03*
X018237Y005965D03*
X018237Y004705D03*
X018237Y004215D03*
X018237Y002955D03*
X039237Y002955D03*
X039237Y004215D03*
X039237Y004705D03*
X039237Y005965D03*
X039237Y008455D03*
X039237Y009715D03*
X039237Y010205D03*
X039237Y011465D03*
X039237Y013955D03*
X039237Y015215D03*
X039237Y015705D03*
X039237Y016965D03*
D30*
X039367Y012710D03*
X038107Y012710D03*
X038107Y007210D03*
X039367Y007210D03*
X018367Y007210D03*
X017107Y007210D03*
X017107Y012710D03*
X018367Y012710D03*
D31*
X024112Y008160D03*
X024112Y007760D03*
X003112Y007760D03*
X003112Y008160D03*
D32*
X009237Y006210D03*
X008737Y011960D03*
X008487Y016960D03*
X029487Y016960D03*
X029737Y011960D03*
X030237Y006210D03*
M02*
