G75*
G70*
%OFA0B0*%
%FSLAX24Y24*%
%IPPOS*%
%LPD*%
%AMOC8*
5,1,8,0,0,1.08239X$1,22.5*
%
%ADD10C,0.0000*%
%ADD11C,0.0170*%
%ADD12C,0.0090*%
%ADD13C,0.0050*%
%ADD14R,0.0070X0.0010*%
%ADD15R,0.0120X0.0010*%
%ADD16R,0.0160X0.0010*%
%ADD17R,0.0180X0.0010*%
%ADD18R,0.0090X0.0010*%
%ADD19R,0.0210X0.0010*%
%ADD20R,0.0140X0.0010*%
%ADD21R,0.0230X0.0010*%
%ADD22R,0.0170X0.0010*%
%ADD23R,0.0250X0.0010*%
%ADD24R,0.0190X0.0010*%
%ADD25R,0.0270X0.0010*%
%ADD26R,0.0220X0.0010*%
%ADD27R,0.0290X0.0010*%
%ADD28R,0.0240X0.0010*%
%ADD29R,0.0300X0.0010*%
%ADD30R,0.0260X0.0010*%
%ADD31R,0.0320X0.0010*%
%ADD32R,0.0340X0.0010*%
%ADD33R,0.0350X0.0010*%
%ADD34R,0.0310X0.0010*%
%ADD35R,0.0360X0.0010*%
%ADD36R,0.0370X0.0010*%
%ADD37R,0.0390X0.0010*%
%ADD38R,0.0400X0.0010*%
%ADD39R,0.0380X0.0010*%
%ADD40R,0.0410X0.0010*%
%ADD41R,0.0420X0.0010*%
%ADD42R,0.0430X0.0010*%
%ADD43R,0.0440X0.0010*%
%ADD44R,0.0450X0.0010*%
%ADD45R,0.0460X0.0010*%
%ADD46R,0.0470X0.0010*%
%ADD47R,0.0480X0.0010*%
%ADD48R,0.0880X0.0010*%
%ADD49R,0.0860X0.0010*%
%ADD50R,0.0830X0.0010*%
%ADD51R,0.0800X0.0010*%
%ADD52R,0.0780X0.0010*%
%ADD53R,0.0750X0.0010*%
%ADD54R,0.0720X0.0010*%
%ADD55R,0.0700X0.0010*%
%ADD56R,0.0680X0.0010*%
%ADD57R,0.0640X0.0010*%
%ADD58R,0.0620X0.0010*%
%ADD59R,0.0600X0.0010*%
%ADD60R,0.0570X0.0010*%
%ADD61R,0.0540X0.0010*%
%ADD62R,0.0520X0.0010*%
%ADD63R,0.0490X0.0010*%
%ADD64R,0.0650X0.0010*%
%ADD65R,0.0670X0.0010*%
%ADD66R,0.0330X0.0010*%
%ADD67R,0.0280X0.0010*%
%ADD68R,0.0200X0.0010*%
%ADD69R,0.0150X0.0010*%
%ADD70R,0.0110X0.0010*%
%ADD71R,0.0010X0.0010*%
%ADD72R,0.0580X0.0010*%
%ADD73R,0.0660X0.0010*%
%ADD74R,0.0690X0.0010*%
%ADD75R,0.0760X0.0010*%
%ADD76R,0.0810X0.0010*%
%ADD77R,0.0840X0.0010*%
%ADD78R,0.0900X0.0010*%
%ADD79R,0.0930X0.0010*%
%ADD80R,0.0950X0.0010*%
%ADD81R,0.0960X0.0010*%
%ADD82R,0.0980X0.0010*%
%ADD83R,0.1000X0.0010*%
%ADD84R,0.1020X0.0010*%
%ADD85R,0.1030X0.0010*%
%ADD86R,0.1050X0.0010*%
%ADD87R,0.1060X0.0010*%
%ADD88R,0.1080X0.0010*%
%ADD89R,0.1090X0.0010*%
%ADD90R,0.1070X0.0010*%
%ADD91R,0.0130X0.0010*%
%ADD92R,0.0510X0.0010*%
%ADD93R,0.0630X0.0010*%
%ADD94R,0.0730X0.0010*%
%ADD95R,0.0770X0.0010*%
%ADD96R,0.0820X0.0010*%
%ADD97R,0.0850X0.0010*%
%ADD98R,0.0870X0.0010*%
%ADD99R,0.0890X0.0010*%
%ADD100R,0.0790X0.0010*%
%ADD101R,0.0550X0.0010*%
%ADD102R,0.0710X0.0010*%
%ADD103R,0.0740X0.0010*%
%ADD104R,0.0590X0.0010*%
%ADD105R,0.0560X0.0010*%
%ADD106R,0.0060X0.0010*%
%ADD107R,0.0530X0.0010*%
%ADD108R,0.1180X0.0010*%
%ADD109R,0.1190X0.0010*%
%ADD110R,0.1200X0.0010*%
%ADD111R,0.1170X0.0010*%
%ADD112R,0.1160X0.0010*%
%ADD113R,0.1150X0.0010*%
%ADD114R,0.1140X0.0010*%
%ADD115R,0.1130X0.0010*%
%ADD116R,0.1110X0.0010*%
%ADD117R,0.1100X0.0010*%
%ADD118R,0.1040X0.0010*%
%ADD119R,0.1010X0.0010*%
%ADD120R,0.0940X0.0010*%
%ADD121R,0.1210X0.0010*%
%ADD122R,0.1230X0.0010*%
%ADD123R,0.1250X0.0010*%
%ADD124R,0.1270X0.0010*%
%ADD125R,0.1290X0.0010*%
%ADD126R,0.1240X0.0010*%
%ADD127R,0.1220X0.0010*%
%ADD128R,0.1120X0.0010*%
%ADD129R,0.0990X0.0010*%
%ADD130R,0.0080X0.0010*%
%ADD131R,0.0920X0.0010*%
%ADD132R,0.1500X0.0010*%
%ADD133R,0.1520X0.0010*%
%ADD134R,0.1530X0.0010*%
%ADD135R,0.1510X0.0010*%
%ADD136R,0.1490X0.0010*%
%ADD137R,0.1480X0.0010*%
%ADD138R,0.1470X0.0010*%
%ADD139R,0.1460X0.0010*%
%ADD140R,0.1440X0.0010*%
%ADD141R,0.1420X0.0010*%
%ADD142R,0.1400X0.0010*%
%ADD143R,0.1390X0.0010*%
%ADD144R,0.1360X0.0010*%
%ADD145R,0.1330X0.0010*%
%ADD146R,0.1300X0.0010*%
%ADD147C,0.0100*%
%ADD148R,0.0080X0.0354*%
%ADD149C,0.0080*%
%ADD150R,0.0354X0.0080*%
%ADD151C,0.0060*%
%ADD152R,0.0512X0.0080*%
%ADD153R,0.0080X0.0512*%
%ADD154C,0.0020*%
D10*
X001487Y001290D02*
X019487Y001290D01*
X019037Y002040D02*
X019039Y002082D01*
X019045Y002124D01*
X019055Y002165D01*
X019068Y002205D01*
X019086Y002243D01*
X019106Y002280D01*
X019131Y002315D01*
X019158Y002347D01*
X019188Y002376D01*
X019221Y002403D01*
X019256Y002426D01*
X019293Y002446D01*
X019332Y002462D01*
X019372Y002475D01*
X019413Y002484D01*
X019455Y002489D01*
X019498Y002490D01*
X019540Y002487D01*
X019581Y002480D01*
X019622Y002469D01*
X019662Y002455D01*
X019700Y002437D01*
X019736Y002415D01*
X019770Y002390D01*
X019801Y002362D01*
X019830Y002331D01*
X019856Y002298D01*
X019878Y002262D01*
X019898Y002224D01*
X019913Y002185D01*
X019925Y002145D01*
X019933Y002103D01*
X019937Y002061D01*
X019937Y002019D01*
X019933Y001977D01*
X019925Y001935D01*
X019913Y001895D01*
X019898Y001856D01*
X019878Y001818D01*
X019856Y001782D01*
X019830Y001749D01*
X019801Y001718D01*
X019770Y001690D01*
X019736Y001665D01*
X019700Y001643D01*
X019662Y001625D01*
X019622Y001611D01*
X019581Y001600D01*
X019540Y001593D01*
X019498Y001590D01*
X019455Y001591D01*
X019413Y001596D01*
X019372Y001605D01*
X019332Y001618D01*
X019293Y001634D01*
X019256Y001654D01*
X019221Y001677D01*
X019188Y001704D01*
X019158Y001733D01*
X019131Y001765D01*
X019106Y001800D01*
X019086Y001837D01*
X019068Y001875D01*
X019055Y001915D01*
X019045Y001956D01*
X019039Y001998D01*
X019037Y002040D01*
X019487Y001290D02*
X019541Y001292D01*
X019594Y001298D01*
X019646Y001307D01*
X019698Y001320D01*
X019749Y001337D01*
X019799Y001358D01*
X019846Y001382D01*
X019892Y001409D01*
X019936Y001440D01*
X019978Y001473D01*
X020017Y001510D01*
X020054Y001549D01*
X020087Y001591D01*
X020118Y001635D01*
X020145Y001681D01*
X020169Y001728D01*
X020190Y001778D01*
X020207Y001829D01*
X020220Y001881D01*
X020229Y001933D01*
X020235Y001986D01*
X020237Y002040D01*
X020237Y010540D01*
X021237Y010540D01*
X021237Y002040D01*
X021239Y001986D01*
X021245Y001933D01*
X021254Y001881D01*
X021267Y001829D01*
X021284Y001778D01*
X021305Y001728D01*
X021329Y001681D01*
X021356Y001635D01*
X021387Y001591D01*
X021420Y001549D01*
X021457Y001510D01*
X021496Y001473D01*
X021538Y001440D01*
X021582Y001409D01*
X021628Y001382D01*
X021675Y001358D01*
X021725Y001337D01*
X021776Y001320D01*
X021828Y001307D01*
X021880Y001298D01*
X021933Y001292D01*
X021987Y001290D01*
X039987Y001290D01*
X040041Y001292D01*
X040094Y001298D01*
X040146Y001307D01*
X040198Y001320D01*
X040249Y001337D01*
X040299Y001358D01*
X040346Y001382D01*
X040392Y001409D01*
X040436Y001440D01*
X040478Y001473D01*
X040517Y001510D01*
X040554Y001549D01*
X040587Y001591D01*
X040618Y001635D01*
X040645Y001681D01*
X040669Y001728D01*
X040690Y001778D01*
X040707Y001829D01*
X040720Y001881D01*
X040729Y001933D01*
X040735Y001986D01*
X040737Y002040D01*
X040737Y020040D01*
X040735Y020094D01*
X040729Y020147D01*
X040720Y020199D01*
X040707Y020251D01*
X040690Y020302D01*
X040669Y020352D01*
X040645Y020399D01*
X040618Y020445D01*
X040587Y020489D01*
X040554Y020531D01*
X040517Y020570D01*
X040478Y020607D01*
X040436Y020640D01*
X040392Y020671D01*
X040346Y020698D01*
X040299Y020722D01*
X040249Y020743D01*
X040198Y020760D01*
X040146Y020773D01*
X040094Y020782D01*
X040041Y020788D01*
X039987Y020790D01*
X021987Y020790D01*
X021933Y020788D01*
X021880Y020782D01*
X021828Y020773D01*
X021776Y020760D01*
X021725Y020743D01*
X021675Y020722D01*
X021628Y020698D01*
X021582Y020671D01*
X021538Y020640D01*
X021496Y020607D01*
X021457Y020570D01*
X021420Y020531D01*
X021387Y020489D01*
X021356Y020445D01*
X021329Y020399D01*
X021305Y020352D01*
X021284Y020302D01*
X021267Y020251D01*
X021254Y020199D01*
X021245Y020147D01*
X021239Y020094D01*
X021237Y020040D01*
X021237Y011540D01*
X020237Y011540D01*
X020237Y020040D01*
X019037Y020040D02*
X019039Y020082D01*
X019045Y020124D01*
X019055Y020165D01*
X019068Y020205D01*
X019086Y020243D01*
X019106Y020280D01*
X019131Y020315D01*
X019158Y020347D01*
X019188Y020376D01*
X019221Y020403D01*
X019256Y020426D01*
X019293Y020446D01*
X019332Y020462D01*
X019372Y020475D01*
X019413Y020484D01*
X019455Y020489D01*
X019498Y020490D01*
X019540Y020487D01*
X019581Y020480D01*
X019622Y020469D01*
X019662Y020455D01*
X019700Y020437D01*
X019736Y020415D01*
X019770Y020390D01*
X019801Y020362D01*
X019830Y020331D01*
X019856Y020298D01*
X019878Y020262D01*
X019898Y020224D01*
X019913Y020185D01*
X019925Y020145D01*
X019933Y020103D01*
X019937Y020061D01*
X019937Y020019D01*
X019933Y019977D01*
X019925Y019935D01*
X019913Y019895D01*
X019898Y019856D01*
X019878Y019818D01*
X019856Y019782D01*
X019830Y019749D01*
X019801Y019718D01*
X019770Y019690D01*
X019736Y019665D01*
X019700Y019643D01*
X019662Y019625D01*
X019622Y019611D01*
X019581Y019600D01*
X019540Y019593D01*
X019498Y019590D01*
X019455Y019591D01*
X019413Y019596D01*
X019372Y019605D01*
X019332Y019618D01*
X019293Y019634D01*
X019256Y019654D01*
X019221Y019677D01*
X019188Y019704D01*
X019158Y019733D01*
X019131Y019765D01*
X019106Y019800D01*
X019086Y019837D01*
X019068Y019875D01*
X019055Y019915D01*
X019045Y019956D01*
X019039Y019998D01*
X019037Y020040D01*
X019487Y020790D02*
X019541Y020788D01*
X019594Y020782D01*
X019646Y020773D01*
X019698Y020760D01*
X019749Y020743D01*
X019799Y020722D01*
X019846Y020698D01*
X019892Y020671D01*
X019936Y020640D01*
X019978Y020607D01*
X020017Y020570D01*
X020054Y020531D01*
X020087Y020489D01*
X020118Y020445D01*
X020145Y020399D01*
X020169Y020352D01*
X020190Y020302D01*
X020207Y020251D01*
X020220Y020199D01*
X020229Y020147D01*
X020235Y020094D01*
X020237Y020040D01*
X019487Y020790D02*
X001487Y020790D01*
X001037Y020040D02*
X001039Y020082D01*
X001045Y020124D01*
X001055Y020165D01*
X001068Y020205D01*
X001086Y020243D01*
X001106Y020280D01*
X001131Y020315D01*
X001158Y020347D01*
X001188Y020376D01*
X001221Y020403D01*
X001256Y020426D01*
X001293Y020446D01*
X001332Y020462D01*
X001372Y020475D01*
X001413Y020484D01*
X001455Y020489D01*
X001498Y020490D01*
X001540Y020487D01*
X001581Y020480D01*
X001622Y020469D01*
X001662Y020455D01*
X001700Y020437D01*
X001736Y020415D01*
X001770Y020390D01*
X001801Y020362D01*
X001830Y020331D01*
X001856Y020298D01*
X001878Y020262D01*
X001898Y020224D01*
X001913Y020185D01*
X001925Y020145D01*
X001933Y020103D01*
X001937Y020061D01*
X001937Y020019D01*
X001933Y019977D01*
X001925Y019935D01*
X001913Y019895D01*
X001898Y019856D01*
X001878Y019818D01*
X001856Y019782D01*
X001830Y019749D01*
X001801Y019718D01*
X001770Y019690D01*
X001736Y019665D01*
X001700Y019643D01*
X001662Y019625D01*
X001622Y019611D01*
X001581Y019600D01*
X001540Y019593D01*
X001498Y019590D01*
X001455Y019591D01*
X001413Y019596D01*
X001372Y019605D01*
X001332Y019618D01*
X001293Y019634D01*
X001256Y019654D01*
X001221Y019677D01*
X001188Y019704D01*
X001158Y019733D01*
X001131Y019765D01*
X001106Y019800D01*
X001086Y019837D01*
X001068Y019875D01*
X001055Y019915D01*
X001045Y019956D01*
X001039Y019998D01*
X001037Y020040D01*
X000737Y020040D02*
X000737Y002040D01*
X001037Y002040D02*
X001039Y002082D01*
X001045Y002124D01*
X001055Y002165D01*
X001068Y002205D01*
X001086Y002243D01*
X001106Y002280D01*
X001131Y002315D01*
X001158Y002347D01*
X001188Y002376D01*
X001221Y002403D01*
X001256Y002426D01*
X001293Y002446D01*
X001332Y002462D01*
X001372Y002475D01*
X001413Y002484D01*
X001455Y002489D01*
X001498Y002490D01*
X001540Y002487D01*
X001581Y002480D01*
X001622Y002469D01*
X001662Y002455D01*
X001700Y002437D01*
X001736Y002415D01*
X001770Y002390D01*
X001801Y002362D01*
X001830Y002331D01*
X001856Y002298D01*
X001878Y002262D01*
X001898Y002224D01*
X001913Y002185D01*
X001925Y002145D01*
X001933Y002103D01*
X001937Y002061D01*
X001937Y002019D01*
X001933Y001977D01*
X001925Y001935D01*
X001913Y001895D01*
X001898Y001856D01*
X001878Y001818D01*
X001856Y001782D01*
X001830Y001749D01*
X001801Y001718D01*
X001770Y001690D01*
X001736Y001665D01*
X001700Y001643D01*
X001662Y001625D01*
X001622Y001611D01*
X001581Y001600D01*
X001540Y001593D01*
X001498Y001590D01*
X001455Y001591D01*
X001413Y001596D01*
X001372Y001605D01*
X001332Y001618D01*
X001293Y001634D01*
X001256Y001654D01*
X001221Y001677D01*
X001188Y001704D01*
X001158Y001733D01*
X001131Y001765D01*
X001106Y001800D01*
X001086Y001837D01*
X001068Y001875D01*
X001055Y001915D01*
X001045Y001956D01*
X001039Y001998D01*
X001037Y002040D01*
X000737Y002040D02*
X000739Y001986D01*
X000745Y001933D01*
X000754Y001881D01*
X000767Y001829D01*
X000784Y001778D01*
X000805Y001728D01*
X000829Y001681D01*
X000856Y001635D01*
X000887Y001591D01*
X000920Y001549D01*
X000957Y001510D01*
X000996Y001473D01*
X001038Y001440D01*
X001082Y001409D01*
X001128Y001382D01*
X001175Y001358D01*
X001225Y001337D01*
X001276Y001320D01*
X001328Y001307D01*
X001380Y001298D01*
X001433Y001292D01*
X001487Y001290D01*
X020277Y010665D02*
X020279Y010683D01*
X020284Y010700D01*
X020293Y010715D01*
X020305Y010728D01*
X020319Y010739D01*
X020336Y010746D01*
X020353Y010750D01*
X020371Y010750D01*
X020388Y010746D01*
X020404Y010739D01*
X020419Y010728D01*
X020431Y010715D01*
X020440Y010700D01*
X020445Y010683D01*
X020447Y010665D01*
X020445Y010647D01*
X020440Y010630D01*
X020431Y010615D01*
X020419Y010602D01*
X020405Y010591D01*
X020388Y010584D01*
X020371Y010580D01*
X020353Y010580D01*
X020336Y010584D01*
X020320Y010591D01*
X020305Y010602D01*
X020293Y010615D01*
X020284Y010630D01*
X020279Y010647D01*
X020277Y010665D01*
X020277Y010915D02*
X020279Y010933D01*
X020284Y010950D01*
X020293Y010965D01*
X020305Y010978D01*
X020319Y010989D01*
X020336Y010996D01*
X020353Y011000D01*
X020371Y011000D01*
X020388Y010996D01*
X020404Y010989D01*
X020419Y010978D01*
X020431Y010965D01*
X020440Y010950D01*
X020445Y010933D01*
X020447Y010915D01*
X020445Y010897D01*
X020440Y010880D01*
X020431Y010865D01*
X020419Y010852D01*
X020405Y010841D01*
X020388Y010834D01*
X020371Y010830D01*
X020353Y010830D01*
X020336Y010834D01*
X020320Y010841D01*
X020305Y010852D01*
X020293Y010865D01*
X020284Y010880D01*
X020279Y010897D01*
X020277Y010915D01*
X020277Y011165D02*
X020279Y011183D01*
X020284Y011200D01*
X020293Y011215D01*
X020305Y011228D01*
X020319Y011239D01*
X020336Y011246D01*
X020353Y011250D01*
X020371Y011250D01*
X020388Y011246D01*
X020404Y011239D01*
X020419Y011228D01*
X020431Y011215D01*
X020440Y011200D01*
X020445Y011183D01*
X020447Y011165D01*
X020445Y011147D01*
X020440Y011130D01*
X020431Y011115D01*
X020419Y011102D01*
X020405Y011091D01*
X020388Y011084D01*
X020371Y011080D01*
X020353Y011080D01*
X020336Y011084D01*
X020320Y011091D01*
X020305Y011102D01*
X020293Y011115D01*
X020284Y011130D01*
X020279Y011147D01*
X020277Y011165D01*
X020277Y011415D02*
X020279Y011433D01*
X020284Y011450D01*
X020293Y011465D01*
X020305Y011478D01*
X020319Y011489D01*
X020336Y011496D01*
X020353Y011500D01*
X020371Y011500D01*
X020388Y011496D01*
X020404Y011489D01*
X020419Y011478D01*
X020431Y011465D01*
X020440Y011450D01*
X020445Y011433D01*
X020447Y011415D01*
X020445Y011397D01*
X020440Y011380D01*
X020431Y011365D01*
X020419Y011352D01*
X020405Y011341D01*
X020388Y011334D01*
X020371Y011330D01*
X020353Y011330D01*
X020336Y011334D01*
X020320Y011341D01*
X020305Y011352D01*
X020293Y011365D01*
X020284Y011380D01*
X020279Y011397D01*
X020277Y011415D01*
X021027Y011415D02*
X021029Y011433D01*
X021034Y011450D01*
X021043Y011465D01*
X021055Y011478D01*
X021069Y011489D01*
X021086Y011496D01*
X021103Y011500D01*
X021121Y011500D01*
X021138Y011496D01*
X021154Y011489D01*
X021169Y011478D01*
X021181Y011465D01*
X021190Y011450D01*
X021195Y011433D01*
X021197Y011415D01*
X021195Y011397D01*
X021190Y011380D01*
X021181Y011365D01*
X021169Y011352D01*
X021155Y011341D01*
X021138Y011334D01*
X021121Y011330D01*
X021103Y011330D01*
X021086Y011334D01*
X021070Y011341D01*
X021055Y011352D01*
X021043Y011365D01*
X021034Y011380D01*
X021029Y011397D01*
X021027Y011415D01*
X021027Y011165D02*
X021029Y011183D01*
X021034Y011200D01*
X021043Y011215D01*
X021055Y011228D01*
X021069Y011239D01*
X021086Y011246D01*
X021103Y011250D01*
X021121Y011250D01*
X021138Y011246D01*
X021154Y011239D01*
X021169Y011228D01*
X021181Y011215D01*
X021190Y011200D01*
X021195Y011183D01*
X021197Y011165D01*
X021195Y011147D01*
X021190Y011130D01*
X021181Y011115D01*
X021169Y011102D01*
X021155Y011091D01*
X021138Y011084D01*
X021121Y011080D01*
X021103Y011080D01*
X021086Y011084D01*
X021070Y011091D01*
X021055Y011102D01*
X021043Y011115D01*
X021034Y011130D01*
X021029Y011147D01*
X021027Y011165D01*
X021027Y010915D02*
X021029Y010933D01*
X021034Y010950D01*
X021043Y010965D01*
X021055Y010978D01*
X021069Y010989D01*
X021086Y010996D01*
X021103Y011000D01*
X021121Y011000D01*
X021138Y010996D01*
X021154Y010989D01*
X021169Y010978D01*
X021181Y010965D01*
X021190Y010950D01*
X021195Y010933D01*
X021197Y010915D01*
X021195Y010897D01*
X021190Y010880D01*
X021181Y010865D01*
X021169Y010852D01*
X021155Y010841D01*
X021138Y010834D01*
X021121Y010830D01*
X021103Y010830D01*
X021086Y010834D01*
X021070Y010841D01*
X021055Y010852D01*
X021043Y010865D01*
X021034Y010880D01*
X021029Y010897D01*
X021027Y010915D01*
X021027Y010665D02*
X021029Y010683D01*
X021034Y010700D01*
X021043Y010715D01*
X021055Y010728D01*
X021069Y010739D01*
X021086Y010746D01*
X021103Y010750D01*
X021121Y010750D01*
X021138Y010746D01*
X021154Y010739D01*
X021169Y010728D01*
X021181Y010715D01*
X021190Y010700D01*
X021195Y010683D01*
X021197Y010665D01*
X021195Y010647D01*
X021190Y010630D01*
X021181Y010615D01*
X021169Y010602D01*
X021155Y010591D01*
X021138Y010584D01*
X021121Y010580D01*
X021103Y010580D01*
X021086Y010584D01*
X021070Y010591D01*
X021055Y010602D01*
X021043Y010615D01*
X021034Y010630D01*
X021029Y010647D01*
X021027Y010665D01*
X001487Y020790D02*
X001433Y020788D01*
X001380Y020782D01*
X001328Y020773D01*
X001276Y020760D01*
X001225Y020743D01*
X001175Y020722D01*
X001128Y020698D01*
X001082Y020671D01*
X001038Y020640D01*
X000996Y020607D01*
X000957Y020570D01*
X000920Y020531D01*
X000887Y020489D01*
X000856Y020445D01*
X000829Y020399D01*
X000805Y020352D01*
X000784Y020302D01*
X000767Y020251D01*
X000754Y020199D01*
X000745Y020147D01*
X000739Y020094D01*
X000737Y020040D01*
D11*
X008348Y020040D02*
X008902Y020040D01*
X009486Y017455D02*
X009763Y017455D01*
X009902Y017317D01*
X009902Y016763D01*
X009763Y016625D01*
X009486Y016625D01*
X009348Y016763D01*
X009348Y017317D02*
X009486Y017455D01*
X009486Y012455D02*
X009348Y012317D01*
X009348Y012178D01*
X009486Y012040D01*
X009902Y012040D01*
X009486Y012040D02*
X009348Y011902D01*
X009348Y011763D01*
X009486Y011625D01*
X009902Y011625D01*
X009902Y012455D01*
X009486Y012455D01*
X009625Y006455D02*
X009348Y006178D01*
X009348Y005625D01*
X009902Y005625D02*
X009902Y006178D01*
X009625Y006455D01*
X009902Y006040D02*
X009348Y006040D01*
X012546Y002317D02*
X012546Y001763D01*
X012822Y002040D02*
X012269Y002040D01*
D12*
X002402Y005335D02*
X002402Y005608D01*
X002265Y005745D01*
X002128Y005608D01*
X002128Y005335D01*
X002128Y005540D02*
X002402Y005540D01*
X002402Y006335D02*
X002197Y006335D01*
X002128Y006403D01*
X002128Y006471D01*
X002197Y006540D01*
X002402Y006540D01*
X002402Y006335D02*
X002402Y006745D01*
X002197Y006745D01*
X002128Y006677D01*
X002128Y006608D01*
X002197Y006540D01*
X002197Y007335D02*
X002128Y007403D01*
X002197Y007335D02*
X002334Y007335D01*
X002402Y007403D01*
X002402Y007677D01*
X002334Y007745D01*
X002197Y007745D01*
X002128Y007677D01*
X002128Y008335D02*
X002128Y008608D01*
X002265Y008745D01*
X002402Y008608D01*
X002402Y008335D01*
X002402Y008540D02*
X002128Y008540D01*
X001987Y008925D02*
X002447Y008925D01*
X002402Y009335D02*
X002197Y009335D01*
X002128Y009403D01*
X002128Y009471D01*
X002197Y009540D01*
X002402Y009540D01*
X002402Y009335D02*
X002402Y009745D01*
X002197Y009745D01*
X002128Y009677D01*
X002128Y009608D01*
X002197Y009540D01*
X001987Y009925D02*
X002447Y009925D01*
X002334Y010335D02*
X002197Y010335D01*
X002128Y010403D01*
X002334Y010335D02*
X002402Y010403D01*
X002402Y010677D01*
X002334Y010745D01*
X002197Y010745D01*
X002128Y010677D01*
X001987Y010925D02*
X002447Y010925D01*
X002402Y011335D02*
X002197Y011335D01*
X002128Y011403D01*
X002128Y011471D01*
X002197Y011540D01*
X002402Y011540D01*
X002402Y011335D02*
X002402Y011745D01*
X002197Y011745D01*
X002128Y011677D01*
X002128Y011608D01*
X002197Y011540D01*
X002572Y011745D02*
X002709Y011745D01*
X002641Y011745D02*
X002641Y011335D01*
X002709Y011335D02*
X002572Y011335D01*
X002572Y012335D02*
X002709Y012335D01*
X002641Y012335D02*
X002641Y012745D01*
X002709Y012745D02*
X002572Y012745D01*
X002402Y012677D02*
X002402Y012403D01*
X002334Y012335D01*
X002197Y012335D01*
X002128Y012403D01*
X002128Y012677D02*
X002197Y012745D01*
X002334Y012745D01*
X002402Y012677D01*
X002402Y018335D02*
X002197Y018335D01*
X002128Y018403D01*
X002128Y018677D01*
X002197Y018745D01*
X002402Y018745D01*
X002402Y018335D01*
X002589Y018335D02*
X002589Y018745D01*
X002862Y018745D02*
X002589Y018335D01*
X002862Y018335D02*
X002862Y018745D01*
X003049Y018677D02*
X003118Y018745D01*
X003254Y018745D01*
X003323Y018677D01*
X003323Y018403D01*
X003254Y018335D01*
X003118Y018335D01*
X003049Y018403D01*
X003049Y018540D01*
X003186Y018540D01*
X022628Y018403D02*
X022628Y018677D01*
X022697Y018745D01*
X022902Y018745D01*
X022902Y018335D01*
X022697Y018335D01*
X022628Y018403D01*
X023089Y018335D02*
X023089Y018745D01*
X023362Y018745D02*
X023089Y018335D01*
X023362Y018335D02*
X023362Y018745D01*
X023549Y018677D02*
X023618Y018745D01*
X023754Y018745D01*
X023823Y018677D01*
X023823Y018403D01*
X023754Y018335D01*
X023618Y018335D01*
X023549Y018403D01*
X023549Y018540D01*
X023686Y018540D01*
X023549Y017745D02*
X023549Y017471D01*
X023686Y017335D01*
X023823Y017471D01*
X023823Y017745D01*
X024010Y017745D02*
X024283Y017335D01*
X024470Y017403D02*
X024470Y017540D01*
X024538Y017608D01*
X024607Y017608D01*
X024744Y017540D01*
X024744Y017745D01*
X024470Y017745D01*
X024930Y017677D02*
X024999Y017745D01*
X025136Y017745D01*
X025204Y017677D01*
X025204Y017403D01*
X025136Y017335D01*
X024999Y017335D01*
X024930Y017403D01*
X024744Y017403D02*
X024675Y017335D01*
X024538Y017335D01*
X024470Y017403D01*
X024522Y016745D02*
X024385Y016745D01*
X024317Y016677D01*
X024590Y016403D01*
X024522Y016335D01*
X024385Y016335D01*
X024317Y016403D01*
X024317Y016677D01*
X024522Y016745D02*
X024590Y016677D01*
X024590Y016403D01*
X024777Y016403D02*
X024845Y016335D01*
X024982Y016335D01*
X025051Y016403D01*
X025051Y016677D01*
X024982Y016745D01*
X024845Y016745D01*
X024777Y016677D01*
X025237Y016677D02*
X025237Y016540D01*
X025306Y016471D01*
X025511Y016471D01*
X025511Y016335D02*
X025511Y016745D01*
X025306Y016745D01*
X025237Y016677D01*
X025698Y016745D02*
X025971Y016335D01*
X026158Y016403D02*
X026158Y016677D01*
X026432Y016403D01*
X026363Y016335D01*
X026227Y016335D01*
X026158Y016403D01*
X026158Y016677D02*
X026227Y016745D01*
X026363Y016745D01*
X026432Y016677D01*
X026432Y016403D01*
X026619Y016335D02*
X026892Y016335D01*
X026755Y016335D02*
X026755Y016745D01*
X026892Y016608D01*
X027079Y016266D02*
X027353Y016266D01*
X027539Y016403D02*
X027608Y016335D01*
X027745Y016335D01*
X027813Y016403D01*
X027676Y016540D02*
X027608Y016540D01*
X027539Y016471D01*
X027539Y016403D01*
X027608Y016540D02*
X027539Y016608D01*
X027539Y016677D01*
X027608Y016745D01*
X027745Y016745D01*
X027813Y016677D01*
X028000Y016677D02*
X028068Y016745D01*
X028205Y016745D01*
X028273Y016677D01*
X028000Y016677D02*
X028000Y016608D01*
X028273Y016335D01*
X028000Y016335D01*
X028460Y016335D02*
X028734Y016335D01*
X028597Y016335D02*
X028597Y016745D01*
X028734Y016608D01*
X028921Y016608D02*
X028921Y016335D01*
X028921Y016540D02*
X029194Y016540D01*
X029194Y016608D02*
X029057Y016745D01*
X028921Y016608D01*
X029194Y016608D02*
X029194Y016335D01*
X029211Y015745D02*
X029074Y015608D01*
X029074Y015335D01*
X028887Y015335D02*
X028614Y015335D01*
X028750Y015335D02*
X028750Y015745D01*
X028887Y015608D01*
X029074Y015540D02*
X029348Y015540D01*
X029348Y015608D02*
X029211Y015745D01*
X029348Y015608D02*
X029348Y015335D01*
X028427Y015335D02*
X028153Y015608D01*
X028153Y015677D01*
X028222Y015745D01*
X028358Y015745D01*
X028427Y015677D01*
X028427Y015335D02*
X028153Y015335D01*
X027966Y015403D02*
X027898Y015335D01*
X027761Y015335D01*
X027693Y015403D01*
X027693Y015471D01*
X027761Y015540D01*
X027830Y015540D01*
X027761Y015540D02*
X027693Y015608D01*
X027693Y015677D01*
X027761Y015745D01*
X027898Y015745D01*
X027966Y015677D01*
X027506Y015266D02*
X027232Y015266D01*
X027046Y015335D02*
X026772Y015335D01*
X026909Y015335D02*
X026909Y015745D01*
X027046Y015608D01*
X026585Y015608D02*
X026448Y015745D01*
X026448Y015335D01*
X026312Y015335D02*
X026585Y015335D01*
X026125Y015335D02*
X025851Y015745D01*
X025664Y015745D02*
X025664Y015335D01*
X025664Y015471D02*
X025459Y015471D01*
X025391Y015540D01*
X025391Y015677D01*
X025459Y015745D01*
X025664Y015745D01*
X025204Y015677D02*
X025204Y015403D01*
X025136Y015335D01*
X024999Y015335D01*
X024930Y015403D01*
X024744Y015335D02*
X024470Y015335D01*
X024607Y015335D02*
X024607Y015745D01*
X024744Y015608D01*
X024930Y015677D02*
X024999Y015745D01*
X025136Y015745D01*
X025204Y015677D01*
X024283Y015335D02*
X024010Y015745D01*
X023823Y015745D02*
X023823Y015471D01*
X023686Y015335D01*
X023549Y015471D01*
X023549Y015745D01*
X022902Y015677D02*
X022902Y015403D01*
X022834Y015335D01*
X022697Y015335D01*
X022629Y015403D01*
X022629Y015677D02*
X022697Y015745D01*
X022834Y015745D01*
X022902Y015677D01*
X023089Y015266D02*
X023362Y015266D01*
X023549Y014745D02*
X023549Y014471D01*
X023686Y014335D01*
X023823Y014471D01*
X023823Y014745D01*
X024010Y014745D02*
X024283Y014335D01*
X024470Y014335D02*
X024744Y014335D01*
X024470Y014608D01*
X024470Y014677D01*
X024538Y014745D01*
X024675Y014745D01*
X024744Y014677D01*
X024930Y014677D02*
X024999Y014745D01*
X025136Y014745D01*
X025204Y014677D01*
X025204Y014403D01*
X025136Y014335D01*
X024999Y014335D01*
X024930Y014403D01*
X025391Y014540D02*
X025391Y014677D01*
X025459Y014745D01*
X025664Y014745D01*
X025664Y014335D01*
X025664Y014471D02*
X025459Y014471D01*
X025391Y014540D01*
X025851Y014745D02*
X026125Y014335D01*
X026312Y014335D02*
X026585Y014335D01*
X026312Y014608D01*
X026312Y014677D01*
X026380Y014745D01*
X026517Y014745D01*
X026585Y014677D01*
X026909Y014745D02*
X026909Y014335D01*
X027046Y014335D02*
X026772Y014335D01*
X027046Y014608D02*
X026909Y014745D01*
X027232Y014266D02*
X027506Y014266D01*
X027693Y014403D02*
X027761Y014335D01*
X027898Y014335D01*
X027966Y014403D01*
X027830Y014540D02*
X027761Y014540D01*
X027693Y014471D01*
X027693Y014403D01*
X027761Y014540D02*
X027693Y014608D01*
X027693Y014677D01*
X027761Y014745D01*
X027898Y014745D01*
X027966Y014677D01*
X028153Y014677D02*
X028222Y014745D01*
X028358Y014745D01*
X028427Y014677D01*
X028153Y014677D02*
X028153Y014608D01*
X028427Y014335D01*
X028153Y014335D01*
X028614Y014335D02*
X028887Y014335D01*
X028750Y014335D02*
X028750Y014745D01*
X028887Y014608D01*
X029074Y014608D02*
X029074Y014335D01*
X029074Y014540D02*
X029348Y014540D01*
X029348Y014608D02*
X029348Y014335D01*
X029348Y014608D02*
X029211Y014745D01*
X029074Y014608D01*
X029211Y013745D02*
X029074Y013608D01*
X029074Y013335D01*
X028887Y013335D02*
X028614Y013335D01*
X028750Y013335D02*
X028750Y013745D01*
X028887Y013608D01*
X029074Y013540D02*
X029348Y013540D01*
X029348Y013608D02*
X029211Y013745D01*
X029348Y013608D02*
X029348Y013335D01*
X028427Y013335D02*
X028153Y013608D01*
X028153Y013677D01*
X028222Y013745D01*
X028358Y013745D01*
X028427Y013677D01*
X027966Y013677D02*
X027898Y013745D01*
X027761Y013745D01*
X027693Y013677D01*
X027693Y013608D01*
X027761Y013540D01*
X027693Y013471D01*
X027693Y013403D01*
X027761Y013335D01*
X027898Y013335D01*
X027966Y013403D01*
X027830Y013540D02*
X027761Y013540D01*
X027506Y013266D02*
X027232Y013266D01*
X027046Y013335D02*
X026772Y013335D01*
X026909Y013335D02*
X026909Y013745D01*
X027046Y013608D01*
X026585Y013677D02*
X026517Y013745D01*
X026380Y013745D01*
X026312Y013677D01*
X026312Y013608D01*
X026380Y013540D01*
X026312Y013471D01*
X026312Y013403D01*
X026380Y013335D01*
X026517Y013335D01*
X026585Y013403D01*
X026448Y013540D02*
X026380Y013540D01*
X026125Y013335D02*
X025851Y013745D01*
X025664Y013745D02*
X025459Y013745D01*
X025391Y013677D01*
X025391Y013540D01*
X025459Y013471D01*
X025664Y013471D01*
X025664Y013335D02*
X025664Y013745D01*
X025204Y013677D02*
X025204Y013403D01*
X025136Y013335D01*
X024999Y013335D01*
X024930Y013403D01*
X024744Y013403D02*
X024675Y013335D01*
X024538Y013335D01*
X024470Y013403D01*
X024470Y013471D01*
X024538Y013540D01*
X024607Y013540D01*
X024538Y013540D02*
X024470Y013608D01*
X024470Y013677D01*
X024538Y013745D01*
X024675Y013745D01*
X024744Y013677D01*
X024930Y013677D02*
X024999Y013745D01*
X025136Y013745D01*
X025204Y013677D01*
X024283Y013335D02*
X024010Y013745D01*
X023823Y013745D02*
X023823Y013471D01*
X023686Y013335D01*
X023549Y013471D01*
X023549Y013745D01*
X022902Y013608D02*
X022765Y013745D01*
X022629Y013608D01*
X022629Y013335D01*
X022629Y013540D02*
X022902Y013540D01*
X022902Y013608D02*
X022902Y013335D01*
X023089Y013266D02*
X023362Y013266D01*
X023533Y012745D02*
X023669Y012745D01*
X023601Y012745D02*
X023601Y012335D01*
X023669Y012335D02*
X023533Y012335D01*
X023362Y012266D02*
X023089Y012266D01*
X022902Y012335D02*
X022697Y012335D01*
X022629Y012403D01*
X022629Y012471D01*
X022697Y012540D01*
X022902Y012540D01*
X022902Y012745D02*
X022697Y012745D01*
X022629Y012677D01*
X022629Y012608D01*
X022697Y012540D01*
X022902Y012335D02*
X022902Y012745D01*
X023856Y012745D02*
X024130Y012335D01*
X024317Y012403D02*
X024385Y012335D01*
X024522Y012335D01*
X024590Y012403D01*
X024317Y012677D01*
X024317Y012403D01*
X024590Y012403D02*
X024590Y012677D01*
X024522Y012745D01*
X024385Y012745D01*
X024317Y012677D01*
X024777Y012608D02*
X024777Y012335D01*
X024777Y012540D02*
X025051Y012540D01*
X025051Y012608D02*
X024914Y012745D01*
X024777Y012608D01*
X025051Y012608D02*
X025051Y012335D01*
X025237Y012540D02*
X025306Y012471D01*
X025511Y012471D01*
X025511Y012335D02*
X025511Y012745D01*
X025306Y012745D01*
X025237Y012677D01*
X025237Y012540D01*
X025698Y012745D02*
X025971Y012335D01*
X026158Y012403D02*
X026227Y012335D01*
X026363Y012335D01*
X026432Y012403D01*
X026158Y012677D01*
X026158Y012403D01*
X026432Y012403D02*
X026432Y012677D01*
X026363Y012745D01*
X026227Y012745D01*
X026158Y012677D01*
X026619Y012266D02*
X026892Y012266D01*
X027079Y012403D02*
X027079Y012471D01*
X027147Y012540D01*
X027216Y012540D01*
X027147Y012540D02*
X027079Y012608D01*
X027079Y012677D01*
X027147Y012745D01*
X027284Y012745D01*
X027353Y012677D01*
X027539Y012677D02*
X027539Y012608D01*
X027813Y012335D01*
X027539Y012335D01*
X027353Y012403D02*
X027284Y012335D01*
X027147Y012335D01*
X027079Y012403D01*
X027539Y012677D02*
X027608Y012745D01*
X027745Y012745D01*
X027813Y012677D01*
X028137Y012745D02*
X028137Y012335D01*
X028273Y012335D02*
X028000Y012335D01*
X028273Y012608D02*
X028137Y012745D01*
X028460Y012608D02*
X028460Y012335D01*
X028460Y012540D02*
X028734Y012540D01*
X028734Y012608D02*
X028597Y012745D01*
X028460Y012608D01*
X028734Y012608D02*
X028734Y012335D01*
X028597Y011745D02*
X028460Y011608D01*
X028460Y011335D01*
X028273Y011335D02*
X028000Y011335D01*
X028137Y011335D02*
X028137Y011745D01*
X028273Y011608D01*
X028460Y011540D02*
X028734Y011540D01*
X028734Y011608D02*
X028597Y011745D01*
X028734Y011608D02*
X028734Y011335D01*
X027813Y011335D02*
X027539Y011608D01*
X027539Y011677D01*
X027608Y011745D01*
X027745Y011745D01*
X027813Y011677D01*
X027813Y011335D02*
X027539Y011335D01*
X027353Y011403D02*
X027284Y011335D01*
X027147Y011335D01*
X027079Y011403D01*
X027079Y011471D01*
X027147Y011540D01*
X027216Y011540D01*
X027147Y011540D02*
X027079Y011608D01*
X027079Y011677D01*
X027147Y011745D01*
X027284Y011745D01*
X027353Y011677D01*
X026892Y011266D02*
X026619Y011266D01*
X026432Y011335D02*
X026158Y011335D01*
X026295Y011335D02*
X026295Y011745D01*
X026432Y011608D01*
X025971Y011335D02*
X025698Y011745D01*
X025511Y011745D02*
X025306Y011745D01*
X025237Y011677D01*
X025237Y011540D01*
X025306Y011471D01*
X025511Y011471D01*
X025511Y011335D02*
X025511Y011745D01*
X025051Y011608D02*
X024914Y011745D01*
X024777Y011608D01*
X024777Y011335D01*
X024590Y011335D02*
X024317Y011335D01*
X024453Y011335D02*
X024453Y011745D01*
X024590Y011608D01*
X024777Y011540D02*
X025051Y011540D01*
X025051Y011608D02*
X025051Y011335D01*
X024789Y010925D02*
X022487Y010925D01*
X022697Y010745D02*
X022834Y010745D01*
X022902Y010677D01*
X022902Y010403D01*
X022834Y010335D01*
X022697Y010335D01*
X022629Y010403D01*
X022629Y010677D02*
X022697Y010745D01*
X023089Y010266D02*
X023362Y010266D01*
X023549Y010335D02*
X023549Y010745D01*
X023686Y010608D01*
X023823Y010745D01*
X023823Y010335D01*
X024010Y010335D02*
X024010Y010745D01*
X024283Y010745D02*
X024283Y010335D01*
X024146Y010471D01*
X024010Y010335D01*
X024470Y010540D02*
X024538Y010471D01*
X024744Y010471D01*
X024744Y010335D02*
X024744Y010745D01*
X024538Y010745D01*
X024470Y010677D01*
X024470Y010540D01*
X024930Y010745D02*
X025204Y010335D01*
X025391Y010403D02*
X025391Y010540D01*
X025459Y010608D01*
X025528Y010608D01*
X025664Y010540D01*
X025664Y010745D01*
X025391Y010745D01*
X025391Y010403D02*
X025459Y010335D01*
X025596Y010335D01*
X025664Y010403D01*
X025851Y010335D02*
X026125Y010335D01*
X025988Y010335D02*
X025988Y010745D01*
X026125Y010608D01*
X026312Y010608D02*
X026380Y010540D01*
X026585Y010540D01*
X026772Y010540D02*
X026840Y010471D01*
X027046Y010471D01*
X027046Y010335D02*
X027046Y010745D01*
X026840Y010745D01*
X026772Y010677D01*
X026772Y010540D01*
X026585Y010745D02*
X026380Y010745D01*
X026312Y010677D01*
X026312Y010608D01*
X026380Y010540D02*
X026312Y010471D01*
X026312Y010403D01*
X026380Y010335D01*
X026585Y010335D01*
X026585Y010745D01*
X026448Y009745D02*
X026312Y009608D01*
X026312Y009335D01*
X026125Y009335D02*
X025851Y009335D01*
X025988Y009335D02*
X025988Y009745D01*
X026125Y009608D01*
X026312Y009540D02*
X026585Y009540D01*
X026585Y009608D02*
X026585Y009335D01*
X026585Y009608D02*
X026448Y009745D01*
X026772Y009677D02*
X026772Y009540D01*
X026840Y009471D01*
X027046Y009471D01*
X027046Y009335D02*
X027046Y009745D01*
X026840Y009745D01*
X026772Y009677D01*
X025664Y009677D02*
X025664Y009403D01*
X025391Y009677D01*
X025391Y009403D01*
X025459Y009335D01*
X025596Y009335D01*
X025664Y009403D01*
X025664Y009677D02*
X025596Y009745D01*
X025459Y009745D01*
X025391Y009677D01*
X025204Y009335D02*
X024930Y009745D01*
X024744Y009745D02*
X024744Y009335D01*
X024744Y009471D02*
X024538Y009471D01*
X024470Y009540D01*
X024470Y009677D01*
X024538Y009745D01*
X024744Y009745D01*
X024283Y009745D02*
X024283Y009335D01*
X024146Y009471D01*
X024010Y009335D01*
X024010Y009745D01*
X023823Y009745D02*
X023686Y009608D01*
X023549Y009745D01*
X023549Y009335D01*
X023362Y009266D02*
X023089Y009266D01*
X022902Y009403D02*
X022834Y009335D01*
X022697Y009335D01*
X022629Y009403D01*
X022902Y009403D02*
X022902Y009677D01*
X022834Y009745D01*
X022697Y009745D01*
X022629Y009677D01*
X022487Y008925D02*
X024789Y008925D01*
X024744Y008745D02*
X024538Y008745D01*
X024470Y008677D01*
X024470Y008540D01*
X024538Y008471D01*
X024744Y008471D01*
X024744Y008335D02*
X024744Y008745D01*
X024930Y008745D02*
X025204Y008335D01*
X025459Y008335D02*
X025459Y008745D01*
X025664Y008540D01*
X025391Y008540D01*
X025851Y008335D02*
X026125Y008335D01*
X025988Y008335D02*
X025988Y008745D01*
X026125Y008608D01*
X026312Y008608D02*
X026380Y008540D01*
X026585Y008540D01*
X026772Y008540D02*
X026840Y008471D01*
X027046Y008471D01*
X027046Y008335D02*
X027046Y008745D01*
X026840Y008745D01*
X026772Y008677D01*
X026772Y008540D01*
X026585Y008745D02*
X026380Y008745D01*
X026312Y008677D01*
X026312Y008608D01*
X026380Y008540D02*
X026312Y008471D01*
X026312Y008403D01*
X026380Y008335D01*
X026585Y008335D01*
X026585Y008745D01*
X026448Y007745D02*
X026312Y007608D01*
X026312Y007335D01*
X026312Y007540D02*
X026585Y007540D01*
X026585Y007608D02*
X026448Y007745D01*
X026585Y007608D02*
X026585Y007335D01*
X026772Y007540D02*
X026840Y007471D01*
X027046Y007471D01*
X027046Y007335D02*
X027046Y007745D01*
X026840Y007745D01*
X026772Y007677D01*
X026772Y007540D01*
X026840Y006745D02*
X026772Y006677D01*
X026772Y006540D01*
X026840Y006471D01*
X027046Y006471D01*
X027046Y006335D02*
X027046Y006745D01*
X026840Y006745D01*
X026585Y006745D02*
X026380Y006745D01*
X026312Y006677D01*
X026312Y006608D01*
X026380Y006540D01*
X026585Y006540D01*
X026585Y006335D02*
X026585Y006745D01*
X026380Y006540D02*
X026312Y006471D01*
X026312Y006403D01*
X026380Y006335D01*
X026585Y006335D01*
X026125Y006335D02*
X025851Y006335D01*
X025988Y006335D02*
X025988Y006745D01*
X026125Y006608D01*
X025664Y006677D02*
X025596Y006745D01*
X025459Y006745D01*
X025391Y006677D01*
X025391Y006608D01*
X025459Y006540D01*
X025391Y006471D01*
X025391Y006403D01*
X025459Y006335D01*
X025596Y006335D01*
X025664Y006403D01*
X025528Y006540D02*
X025459Y006540D01*
X025204Y006335D02*
X024930Y006745D01*
X024744Y006745D02*
X024538Y006745D01*
X024470Y006677D01*
X024470Y006540D01*
X024538Y006471D01*
X024744Y006471D01*
X024744Y006335D02*
X024744Y006745D01*
X024789Y006925D02*
X022487Y006925D01*
X022765Y006745D02*
X022629Y006608D01*
X022629Y006335D01*
X022629Y006540D02*
X022902Y006540D01*
X022902Y006608D02*
X022765Y006745D01*
X022902Y006608D02*
X022902Y006335D01*
X023089Y006266D02*
X023362Y006266D01*
X023549Y006335D02*
X023549Y006745D01*
X023686Y006608D01*
X023823Y006745D01*
X023823Y006335D01*
X024010Y006335D02*
X024010Y006745D01*
X024283Y006745D02*
X024283Y006335D01*
X024146Y006471D01*
X024010Y006335D01*
X024010Y005745D02*
X024010Y005335D01*
X024146Y005471D01*
X024283Y005335D01*
X024283Y005745D01*
X024470Y005677D02*
X024470Y005540D01*
X024538Y005471D01*
X024744Y005471D01*
X024744Y005335D02*
X024744Y005745D01*
X024538Y005745D01*
X024470Y005677D01*
X024930Y005745D02*
X025204Y005335D01*
X025391Y005403D02*
X025459Y005335D01*
X025596Y005335D01*
X025664Y005403D01*
X025664Y005471D01*
X025596Y005540D01*
X025459Y005540D01*
X025391Y005471D01*
X025391Y005403D01*
X025459Y005540D02*
X025391Y005608D01*
X025391Y005677D01*
X025459Y005745D01*
X025596Y005745D01*
X025664Y005677D01*
X025664Y005608D01*
X025596Y005540D01*
X026312Y005540D02*
X026585Y005540D01*
X026585Y005608D02*
X026448Y005745D01*
X026312Y005608D01*
X026312Y005335D01*
X026585Y005335D02*
X026585Y005608D01*
X026772Y005540D02*
X026840Y005471D01*
X027046Y005471D01*
X027046Y005335D02*
X027046Y005745D01*
X026840Y005745D01*
X026772Y005677D01*
X026772Y005540D01*
X025596Y007335D02*
X025459Y007335D01*
X025391Y007403D01*
X025391Y007677D01*
X025459Y007745D01*
X025596Y007745D01*
X025664Y007677D01*
X025664Y007608D01*
X025596Y007540D01*
X025391Y007540D01*
X025204Y007335D02*
X024930Y007745D01*
X024744Y007745D02*
X024538Y007745D01*
X024470Y007677D01*
X024470Y007540D01*
X024538Y007471D01*
X024744Y007471D01*
X024744Y007335D02*
X024744Y007745D01*
X024283Y007745D02*
X024283Y007335D01*
X024146Y007471D01*
X024010Y007335D01*
X024010Y007745D01*
X023823Y007745D02*
X023686Y007608D01*
X023549Y007745D01*
X023549Y007335D01*
X023362Y007266D02*
X023089Y007266D01*
X022902Y007335D02*
X022697Y007335D01*
X022629Y007403D01*
X022629Y007471D01*
X022697Y007540D01*
X022902Y007540D01*
X022902Y007745D02*
X022697Y007745D01*
X022629Y007677D01*
X022629Y007608D01*
X022697Y007540D01*
X022902Y007335D02*
X022902Y007745D01*
X023089Y008266D02*
X023362Y008266D01*
X023549Y008335D02*
X023549Y008745D01*
X023686Y008608D01*
X023823Y008745D01*
X023823Y008335D01*
X024010Y008335D02*
X024010Y008745D01*
X024283Y008745D02*
X024283Y008335D01*
X024146Y008471D01*
X024010Y008335D01*
X023823Y007745D02*
X023823Y007335D01*
X022902Y008335D02*
X022697Y008335D01*
X022629Y008403D01*
X022629Y008471D01*
X022697Y008540D01*
X022902Y008540D01*
X022902Y008745D02*
X022697Y008745D01*
X022629Y008677D01*
X022629Y008608D01*
X022697Y008540D01*
X022902Y008335D02*
X022902Y008745D01*
X023823Y009335D02*
X023823Y009745D01*
X023362Y011266D02*
X023089Y011266D01*
X022902Y011335D02*
X022902Y011608D01*
X022765Y011745D01*
X022629Y011608D01*
X022629Y011335D01*
X022629Y011540D02*
X022902Y011540D01*
X023533Y011745D02*
X023669Y011745D01*
X023601Y011745D02*
X023601Y011335D01*
X023669Y011335D02*
X023533Y011335D01*
X023856Y011745D02*
X024130Y011335D01*
X028153Y013335D02*
X028427Y013335D01*
X033485Y013403D02*
X033553Y013335D01*
X033690Y013335D01*
X033759Y013403D01*
X033485Y013677D01*
X033485Y013403D01*
X033759Y013403D02*
X033759Y013677D01*
X033690Y013745D01*
X033553Y013745D01*
X033485Y013677D01*
X033945Y013677D02*
X033945Y013608D01*
X034014Y013540D01*
X034219Y013540D01*
X034406Y013540D02*
X034474Y013471D01*
X034679Y013471D01*
X034679Y013335D02*
X034679Y013745D01*
X034474Y013745D01*
X034406Y013677D01*
X034406Y013540D01*
X034219Y013335D02*
X034219Y013745D01*
X034014Y013745D01*
X033945Y013677D01*
X034014Y013540D02*
X033945Y013471D01*
X033945Y013403D01*
X034014Y013335D01*
X034219Y013335D01*
X034151Y012745D02*
X034219Y012677D01*
X034219Y012403D01*
X034151Y012335D01*
X034014Y012335D01*
X033945Y012403D01*
X033759Y012403D02*
X033759Y012471D01*
X033690Y012540D01*
X033553Y012540D01*
X033485Y012471D01*
X033485Y012403D01*
X033553Y012335D01*
X033690Y012335D01*
X033759Y012403D01*
X033690Y012540D02*
X033759Y012608D01*
X033759Y012677D01*
X033690Y012745D01*
X033553Y012745D01*
X033485Y012677D01*
X033485Y012608D01*
X033553Y012540D01*
X033945Y012677D02*
X034014Y012745D01*
X034151Y012745D01*
X034406Y012677D02*
X034406Y012540D01*
X034474Y012471D01*
X034679Y012471D01*
X034679Y012335D02*
X034679Y012745D01*
X034474Y012745D01*
X034406Y012677D01*
X034866Y012745D02*
X035140Y012335D01*
X035327Y012335D02*
X035463Y012471D01*
X035600Y012335D01*
X035600Y012745D01*
X035327Y012745D02*
X035327Y012335D01*
X035787Y012266D02*
X036060Y012266D01*
X036247Y012335D02*
X036247Y012745D01*
X036384Y012608D01*
X036521Y012745D01*
X036521Y012335D01*
X036708Y012335D02*
X036708Y012745D01*
X036981Y012745D02*
X036981Y012335D01*
X036844Y012471D01*
X036708Y012335D01*
X037168Y012540D02*
X037236Y012471D01*
X037442Y012471D01*
X037442Y012335D02*
X037442Y012745D01*
X037236Y012745D01*
X037168Y012677D01*
X037168Y012540D01*
X037185Y011925D02*
X039487Y011925D01*
X039442Y011745D02*
X039236Y011745D01*
X039168Y011677D01*
X039168Y011540D01*
X039236Y011471D01*
X039442Y011471D01*
X039442Y011335D02*
X039442Y011745D01*
X038981Y011745D02*
X038981Y011335D01*
X038844Y011471D01*
X038708Y011335D01*
X038708Y011745D01*
X038521Y011745D02*
X038384Y011608D01*
X038247Y011745D01*
X038247Y011335D01*
X038060Y011266D02*
X037787Y011266D01*
X037600Y011335D02*
X037463Y011471D01*
X037327Y011335D01*
X037327Y011745D01*
X037600Y011745D02*
X037600Y011335D01*
X037140Y011335D02*
X036866Y011745D01*
X036679Y011745D02*
X036474Y011745D01*
X036406Y011677D01*
X036406Y011540D01*
X036474Y011471D01*
X036679Y011471D01*
X036679Y011335D02*
X036679Y011745D01*
X036219Y011745D02*
X036014Y011745D01*
X035945Y011677D01*
X035945Y011608D01*
X036014Y011540D01*
X036219Y011540D01*
X036219Y011335D02*
X036219Y011745D01*
X036014Y011540D02*
X035945Y011471D01*
X035945Y011403D01*
X036014Y011335D01*
X036219Y011335D01*
X035759Y011335D02*
X035485Y011335D01*
X035622Y011335D02*
X035622Y011745D01*
X035759Y011608D01*
X035775Y010745D02*
X035638Y010608D01*
X035638Y010335D01*
X035452Y010335D02*
X035178Y010335D01*
X035315Y010335D02*
X035315Y010745D01*
X035452Y010608D01*
X035638Y010540D02*
X035912Y010540D01*
X035912Y010608D02*
X035775Y010745D01*
X035912Y010608D02*
X035912Y010335D01*
X036099Y010745D02*
X036372Y010335D01*
X036628Y010335D02*
X036628Y010745D01*
X036833Y010540D01*
X036559Y010540D01*
X037020Y010677D02*
X037088Y010745D01*
X037225Y010745D01*
X037293Y010677D01*
X037293Y010403D01*
X037225Y010335D01*
X037088Y010335D01*
X037020Y010403D01*
X037480Y010540D02*
X037548Y010471D01*
X037754Y010471D01*
X037754Y010335D02*
X037754Y010745D01*
X037548Y010745D01*
X037480Y010677D01*
X037480Y010540D01*
X037940Y010745D02*
X038214Y010335D01*
X038401Y010403D02*
X038401Y010745D01*
X038674Y010745D02*
X038674Y010403D01*
X038606Y010335D01*
X038469Y010335D01*
X038401Y010403D01*
X038861Y010266D02*
X039135Y010266D01*
X039305Y010335D02*
X039442Y010335D01*
X039373Y010335D02*
X039373Y010745D01*
X039305Y010745D02*
X039442Y010745D01*
X038521Y011335D02*
X038521Y011745D01*
X037442Y013335D02*
X037442Y013745D01*
X037236Y013745D01*
X037168Y013677D01*
X037168Y013540D01*
X037236Y013471D01*
X037442Y013471D01*
X036981Y013335D02*
X036844Y013471D01*
X036708Y013335D01*
X036708Y013745D01*
X036521Y013745D02*
X036384Y013608D01*
X036247Y013745D01*
X036247Y013335D01*
X036060Y013266D02*
X035787Y013266D01*
X035600Y013471D02*
X035463Y013335D01*
X035327Y013471D01*
X035327Y013745D01*
X035185Y013925D02*
X037487Y013925D01*
X036981Y013745D02*
X036981Y013335D01*
X036521Y013335D02*
X036521Y013745D01*
X036060Y014266D02*
X035787Y014266D01*
X035600Y014471D02*
X035463Y014335D01*
X035327Y014471D01*
X035327Y014745D01*
X035600Y014745D02*
X035600Y014471D01*
X035140Y014335D02*
X034866Y014745D01*
X034679Y014745D02*
X034679Y014335D01*
X034679Y014471D02*
X034474Y014471D01*
X034406Y014540D01*
X034406Y014677D01*
X034474Y014745D01*
X034679Y014745D01*
X034219Y014677D02*
X034219Y014403D01*
X034151Y014335D01*
X034014Y014335D01*
X033945Y014403D01*
X033759Y014403D02*
X033759Y014335D01*
X033759Y014403D02*
X033485Y014677D01*
X033485Y014745D01*
X033759Y014745D01*
X033945Y014677D02*
X034014Y014745D01*
X034151Y014745D01*
X034219Y014677D01*
X034219Y015335D02*
X034219Y015608D01*
X034082Y015745D01*
X033945Y015608D01*
X033945Y015335D01*
X033759Y015335D02*
X033759Y015403D01*
X033485Y015677D01*
X033485Y015745D01*
X033759Y015745D01*
X033945Y015540D02*
X034219Y015540D01*
X034406Y015540D02*
X034474Y015471D01*
X034679Y015471D01*
X034679Y015335D02*
X034679Y015745D01*
X034474Y015745D01*
X034406Y015677D01*
X034406Y015540D01*
X034866Y015745D02*
X035140Y015335D01*
X035327Y015403D02*
X035327Y015745D01*
X035185Y015925D02*
X037487Y015925D01*
X037442Y015745D02*
X037236Y015745D01*
X037168Y015677D01*
X037168Y015540D01*
X037236Y015471D01*
X037442Y015471D01*
X037442Y015335D02*
X037442Y015745D01*
X036981Y015745D02*
X036981Y015335D01*
X036844Y015471D01*
X036708Y015335D01*
X036708Y015745D01*
X036521Y015745D02*
X036384Y015608D01*
X036247Y015745D01*
X036247Y015335D01*
X036060Y015266D02*
X035787Y015266D01*
X035600Y015403D02*
X035532Y015335D01*
X035395Y015335D01*
X035327Y015403D01*
X035600Y015403D02*
X035600Y015745D01*
X035787Y016266D02*
X036060Y016266D01*
X036247Y016335D02*
X036247Y016745D01*
X036384Y016608D01*
X036521Y016745D01*
X036521Y016335D01*
X036708Y016335D02*
X036708Y016745D01*
X036981Y016745D02*
X036981Y016335D01*
X036844Y016471D01*
X036708Y016335D01*
X037168Y016540D02*
X037236Y016471D01*
X037442Y016471D01*
X037442Y016335D02*
X037442Y016745D01*
X037236Y016745D01*
X037168Y016677D01*
X037168Y016540D01*
X036913Y017335D02*
X036776Y017335D01*
X036708Y017403D01*
X036708Y017540D01*
X036776Y017608D01*
X036844Y017608D01*
X036981Y017540D01*
X036981Y017745D01*
X036708Y017745D01*
X036521Y017745D02*
X036521Y017471D01*
X036384Y017335D01*
X036247Y017471D01*
X036247Y017745D01*
X036316Y018335D02*
X036247Y018403D01*
X036247Y018677D01*
X036316Y018745D01*
X036521Y018745D01*
X036521Y018335D01*
X036316Y018335D01*
X036708Y018335D02*
X036708Y018745D01*
X036981Y018745D02*
X036708Y018335D01*
X036981Y018335D02*
X036981Y018745D01*
X037168Y018677D02*
X037236Y018745D01*
X037373Y018745D01*
X037442Y018677D01*
X037442Y018403D01*
X037373Y018335D01*
X037236Y018335D01*
X037168Y018403D01*
X037168Y018540D01*
X037305Y018540D01*
X037305Y017677D02*
X037305Y017403D01*
X037442Y017540D02*
X037168Y017540D01*
X036981Y017403D02*
X036913Y017335D01*
X035600Y016745D02*
X035600Y016403D01*
X035532Y016335D01*
X035395Y016335D01*
X035327Y016403D01*
X035327Y016745D01*
X035140Y016335D02*
X034866Y016745D01*
X034679Y016745D02*
X034474Y016745D01*
X034406Y016677D01*
X034406Y016540D01*
X034474Y016471D01*
X034679Y016471D01*
X034679Y016335D02*
X034679Y016745D01*
X034219Y016677D02*
X034219Y016403D01*
X034151Y016335D01*
X034014Y016335D01*
X033945Y016403D01*
X033759Y016403D02*
X033690Y016335D01*
X033553Y016335D01*
X033485Y016403D01*
X033485Y016471D01*
X033553Y016540D01*
X033759Y016540D01*
X033759Y016403D01*
X033759Y016540D02*
X033622Y016677D01*
X033485Y016745D01*
X033945Y016677D02*
X034014Y016745D01*
X034151Y016745D01*
X034219Y016677D01*
X036521Y015745D02*
X036521Y015335D01*
X036521Y014745D02*
X036384Y014608D01*
X036247Y014745D01*
X036247Y014335D01*
X036521Y014335D02*
X036521Y014745D01*
X036708Y014745D02*
X036708Y014335D01*
X036844Y014471D01*
X036981Y014335D01*
X036981Y014745D01*
X037168Y014677D02*
X037168Y014540D01*
X037236Y014471D01*
X037442Y014471D01*
X037442Y014335D02*
X037442Y014745D01*
X037236Y014745D01*
X037168Y014677D01*
X035600Y013745D02*
X035600Y013471D01*
X035140Y013335D02*
X034866Y013745D01*
X034923Y010745D02*
X034786Y010745D01*
X034718Y010677D01*
X034718Y010608D01*
X034991Y010335D01*
X034718Y010335D01*
X034531Y010266D02*
X034257Y010266D01*
X034070Y010335D02*
X033797Y010335D01*
X033934Y010335D02*
X033934Y010745D01*
X034070Y010608D01*
X033610Y010540D02*
X033336Y010540D01*
X033405Y010745D02*
X033610Y010540D01*
X033405Y010335D02*
X033405Y010745D01*
X033797Y009745D02*
X033934Y009677D01*
X034070Y009540D01*
X033865Y009540D01*
X033797Y009471D01*
X033797Y009403D01*
X033865Y009335D01*
X034002Y009335D01*
X034070Y009403D01*
X034070Y009540D01*
X034257Y009266D02*
X034531Y009266D01*
X034718Y009335D02*
X034991Y009335D01*
X034718Y009608D01*
X034718Y009677D01*
X034786Y009745D01*
X034923Y009745D01*
X034991Y009677D01*
X035315Y009745D02*
X035315Y009335D01*
X035452Y009335D02*
X035178Y009335D01*
X035452Y009608D02*
X035315Y009745D01*
X035638Y009608D02*
X035638Y009335D01*
X035638Y009540D02*
X035912Y009540D01*
X035912Y009608D02*
X035912Y009335D01*
X035912Y009608D02*
X035775Y009745D01*
X035638Y009608D01*
X036099Y009745D02*
X036372Y009335D01*
X036559Y009403D02*
X036559Y009471D01*
X036628Y009540D01*
X036833Y009540D01*
X036833Y009403D01*
X036764Y009335D01*
X036628Y009335D01*
X036559Y009403D01*
X036696Y009677D02*
X036833Y009540D01*
X037020Y009540D02*
X037293Y009540D01*
X037293Y009608D02*
X037293Y009335D01*
X037293Y009608D02*
X037156Y009745D01*
X037020Y009608D01*
X037020Y009335D01*
X036696Y009677D02*
X036559Y009745D01*
X037480Y009677D02*
X037480Y009540D01*
X037548Y009471D01*
X037754Y009471D01*
X037754Y009335D02*
X037754Y009745D01*
X037548Y009745D01*
X037480Y009677D01*
X037940Y009745D02*
X038214Y009335D01*
X038401Y009471D02*
X038401Y009745D01*
X038674Y009745D02*
X038674Y009471D01*
X038538Y009335D01*
X038401Y009471D01*
X038861Y009266D02*
X039135Y009266D01*
X039305Y009335D02*
X039442Y009335D01*
X039373Y009335D02*
X039373Y009745D01*
X039305Y009745D02*
X039442Y009745D01*
X039442Y008745D02*
X039442Y008471D01*
X039305Y008335D01*
X039168Y008471D01*
X039168Y008745D01*
X038981Y008266D02*
X038708Y008266D01*
X038521Y008403D02*
X038452Y008335D01*
X038316Y008335D01*
X038247Y008403D01*
X038247Y008745D01*
X038521Y008745D02*
X038521Y008403D01*
X038060Y008335D02*
X037787Y008745D01*
X037600Y008745D02*
X037395Y008745D01*
X037327Y008677D01*
X037327Y008540D01*
X037395Y008471D01*
X037600Y008471D01*
X037600Y008335D02*
X037600Y008745D01*
X037140Y008608D02*
X037003Y008745D01*
X036866Y008608D01*
X036866Y008335D01*
X036679Y008403D02*
X036611Y008335D01*
X036474Y008335D01*
X036406Y008403D01*
X036406Y008540D01*
X036474Y008608D01*
X036543Y008608D01*
X036679Y008540D01*
X036679Y008745D01*
X036406Y008745D01*
X036219Y008335D02*
X035945Y008745D01*
X035759Y008608D02*
X035622Y008745D01*
X035485Y008608D01*
X035485Y008335D01*
X035298Y008335D02*
X035025Y008335D01*
X035161Y008335D02*
X035161Y008745D01*
X035298Y008608D01*
X035485Y008540D02*
X035759Y008540D01*
X035759Y008608D02*
X035759Y008335D01*
X035622Y007745D02*
X035485Y007608D01*
X035485Y007335D01*
X035298Y007335D02*
X035025Y007335D01*
X035161Y007335D02*
X035161Y007745D01*
X035298Y007608D01*
X035485Y007540D02*
X035759Y007540D01*
X035759Y007608D02*
X035622Y007745D01*
X035759Y007608D02*
X035759Y007335D01*
X035945Y007745D02*
X036219Y007335D01*
X036474Y007335D02*
X036474Y007745D01*
X036679Y007540D01*
X036406Y007540D01*
X036866Y007540D02*
X037140Y007540D01*
X037140Y007608D02*
X037003Y007745D01*
X036866Y007608D01*
X036866Y007335D01*
X037140Y007335D02*
X037140Y007608D01*
X037327Y007540D02*
X037327Y007677D01*
X037395Y007745D01*
X037600Y007745D01*
X037600Y007335D01*
X037600Y007471D02*
X037395Y007471D01*
X037327Y007540D01*
X037787Y007745D02*
X038060Y007335D01*
X038247Y007471D02*
X038247Y007745D01*
X038247Y007471D02*
X038384Y007335D01*
X038521Y007471D01*
X038521Y007745D01*
X038708Y007266D02*
X038981Y007266D01*
X039168Y007471D02*
X039168Y007745D01*
X039168Y007471D02*
X039305Y007335D01*
X039442Y007471D01*
X039442Y007745D01*
X039442Y006745D02*
X039442Y006471D01*
X039305Y006335D01*
X039168Y006471D01*
X039168Y006745D01*
X038981Y006266D02*
X038708Y006266D01*
X038521Y006335D02*
X038384Y006471D01*
X038247Y006335D01*
X038247Y006745D01*
X038521Y006745D02*
X038521Y006335D01*
X038060Y006335D02*
X037787Y006745D01*
X037600Y006745D02*
X037395Y006745D01*
X037327Y006677D01*
X037327Y006540D01*
X037395Y006471D01*
X037600Y006471D01*
X037600Y006335D02*
X037600Y006745D01*
X037140Y006608D02*
X037003Y006745D01*
X036866Y006608D01*
X036866Y006335D01*
X036679Y006403D02*
X036611Y006335D01*
X036474Y006335D01*
X036406Y006403D01*
X036406Y006471D01*
X036474Y006540D01*
X036543Y006540D01*
X036474Y006540D02*
X036406Y006608D01*
X036406Y006677D01*
X036474Y006745D01*
X036611Y006745D01*
X036679Y006677D01*
X036866Y006540D02*
X037140Y006540D01*
X037140Y006608D02*
X037140Y006335D01*
X037156Y005745D02*
X037020Y005608D01*
X037020Y005335D01*
X036833Y005335D02*
X036559Y005608D01*
X036559Y005677D01*
X036628Y005745D01*
X036764Y005745D01*
X036833Y005677D01*
X037020Y005540D02*
X037293Y005540D01*
X037293Y005608D02*
X037156Y005745D01*
X037293Y005608D02*
X037293Y005335D01*
X037480Y005540D02*
X037548Y005471D01*
X037754Y005471D01*
X037754Y005335D02*
X037754Y005745D01*
X037548Y005745D01*
X037480Y005677D01*
X037480Y005540D01*
X037940Y005745D02*
X038214Y005335D01*
X038401Y005335D02*
X038538Y005471D01*
X038674Y005403D02*
X038674Y005677D01*
X038606Y005745D01*
X038469Y005745D01*
X038401Y005677D01*
X038401Y005403D01*
X038469Y005335D01*
X038606Y005335D01*
X038674Y005403D01*
X038861Y005266D02*
X039135Y005266D01*
X039305Y005335D02*
X039442Y005335D01*
X039373Y005335D02*
X039373Y005745D01*
X039305Y005745D02*
X039442Y005745D01*
X039442Y004745D02*
X039442Y004471D01*
X039305Y004335D01*
X039168Y004471D01*
X039168Y004745D01*
X038981Y004266D02*
X038708Y004266D01*
X038521Y004335D02*
X038521Y004745D01*
X038316Y004745D01*
X038247Y004677D01*
X038247Y004540D01*
X038316Y004471D01*
X038521Y004471D01*
X038060Y004335D02*
X037787Y004745D01*
X037600Y004745D02*
X037600Y004335D01*
X037600Y004471D02*
X037395Y004471D01*
X037327Y004540D01*
X037327Y004677D01*
X037395Y004745D01*
X037600Y004745D01*
X037140Y004677D02*
X037140Y004403D01*
X037071Y004335D01*
X036935Y004335D01*
X036866Y004403D01*
X036679Y004403D02*
X036611Y004335D01*
X036474Y004335D01*
X036406Y004403D01*
X036406Y004540D01*
X036474Y004608D01*
X036543Y004608D01*
X036679Y004540D01*
X036679Y004745D01*
X036406Y004745D01*
X036219Y004335D02*
X035945Y004745D01*
X035759Y004608D02*
X035622Y004745D01*
X035485Y004608D01*
X035485Y004335D01*
X035298Y004335D02*
X035025Y004335D01*
X035161Y004335D02*
X035161Y004745D01*
X035298Y004608D01*
X035485Y004540D02*
X035759Y004540D01*
X035759Y004608D02*
X035759Y004335D01*
X034838Y004335D02*
X034564Y004608D01*
X034564Y004677D01*
X034633Y004745D01*
X034769Y004745D01*
X034838Y004677D01*
X034838Y004335D02*
X034564Y004335D01*
X034377Y004266D02*
X034104Y004266D01*
X033917Y004335D02*
X033643Y004335D01*
X033780Y004335D02*
X033780Y004745D01*
X033917Y004608D01*
X033457Y004540D02*
X033320Y004608D01*
X033251Y004608D01*
X033183Y004540D01*
X033183Y004403D01*
X033251Y004335D01*
X033388Y004335D01*
X033457Y004403D01*
X033457Y004540D02*
X033457Y004745D01*
X033183Y004745D01*
X033336Y005335D02*
X033610Y005335D01*
X033336Y005608D01*
X033336Y005677D01*
X033405Y005745D01*
X033542Y005745D01*
X033610Y005677D01*
X033797Y005266D02*
X034070Y005266D01*
X034257Y005403D02*
X034326Y005335D01*
X034462Y005335D01*
X034531Y005403D01*
X034394Y005540D02*
X034326Y005540D01*
X034257Y005471D01*
X034257Y005403D01*
X034326Y005540D02*
X034257Y005608D01*
X034257Y005677D01*
X034326Y005745D01*
X034462Y005745D01*
X034531Y005677D01*
X034718Y005677D02*
X034786Y005745D01*
X034923Y005745D01*
X034991Y005677D01*
X034718Y005677D02*
X034718Y005608D01*
X034991Y005335D01*
X034718Y005335D01*
X035178Y005335D02*
X035452Y005335D01*
X035315Y005335D02*
X035315Y005745D01*
X035452Y005608D01*
X035638Y005608D02*
X035638Y005335D01*
X035638Y005540D02*
X035912Y005540D01*
X035912Y005608D02*
X035775Y005745D01*
X035638Y005608D01*
X035912Y005608D02*
X035912Y005335D01*
X036099Y005745D02*
X036372Y005335D01*
X036559Y005335D02*
X036833Y005335D01*
X036935Y004745D02*
X036866Y004677D01*
X036935Y004745D02*
X037071Y004745D01*
X037140Y004677D01*
X038247Y003677D02*
X038316Y003745D01*
X038521Y003745D01*
X038521Y003335D01*
X038316Y003335D01*
X038247Y003403D01*
X038247Y003677D01*
X038708Y003745D02*
X038708Y003335D01*
X038981Y003745D01*
X038981Y003335D01*
X039168Y003403D02*
X039168Y003540D01*
X039305Y003540D01*
X039442Y003677D02*
X039373Y003745D01*
X039236Y003745D01*
X039168Y003677D01*
X039442Y003677D02*
X039442Y003403D01*
X039373Y003335D01*
X039236Y003335D01*
X039168Y003403D01*
X038487Y002858D02*
X038487Y002585D01*
X038624Y002721D02*
X038350Y002721D01*
X037692Y002585D02*
X037282Y002585D01*
X037418Y002721D01*
X037282Y002858D01*
X037692Y002858D01*
X036692Y002858D02*
X036418Y002858D01*
X036282Y002721D01*
X036418Y002585D01*
X036692Y002585D01*
X035692Y002585D02*
X035350Y002585D01*
X035282Y002653D01*
X035282Y002790D01*
X035350Y002858D01*
X035692Y002858D01*
X034487Y002858D02*
X034487Y002585D01*
X033624Y002721D02*
X033350Y002721D01*
X033487Y002585D02*
X033487Y002858D01*
X032692Y002790D02*
X032692Y002653D01*
X032624Y002585D01*
X032350Y002585D01*
X032282Y002653D01*
X032282Y002790D01*
X032350Y002858D01*
X032624Y002858D02*
X032692Y002790D01*
X031692Y002790D02*
X031692Y002585D01*
X031282Y002585D01*
X031282Y002790D01*
X031350Y002858D01*
X031418Y002858D01*
X031487Y002790D01*
X031487Y002585D01*
X031487Y002790D02*
X031555Y002858D01*
X031624Y002858D01*
X031692Y002790D01*
X030692Y002721D02*
X030555Y002858D01*
X030282Y002858D01*
X030487Y002858D02*
X030487Y002585D01*
X030555Y002585D02*
X030692Y002721D01*
X030555Y002585D02*
X030282Y002585D01*
X029487Y002585D02*
X029487Y002858D01*
X023823Y003403D02*
X023754Y003335D01*
X023618Y003335D01*
X023549Y003403D01*
X023549Y003540D01*
X023686Y003540D01*
X023549Y003677D02*
X023618Y003745D01*
X023754Y003745D01*
X023823Y003677D01*
X023823Y003403D01*
X023362Y003335D02*
X023362Y003745D01*
X023089Y003335D01*
X023089Y003745D01*
X022902Y003745D02*
X022697Y003745D01*
X022628Y003677D01*
X022628Y003403D01*
X022697Y003335D01*
X022902Y003335D01*
X022902Y003745D01*
X022765Y004335D02*
X022628Y004471D01*
X022628Y004745D01*
X022902Y004745D02*
X022902Y004471D01*
X022765Y004335D01*
X023089Y004403D02*
X023089Y004540D01*
X023157Y004608D01*
X023226Y004608D01*
X023362Y004540D01*
X023362Y004745D01*
X023089Y004745D01*
X023089Y004403D02*
X023157Y004335D01*
X023294Y004335D01*
X023362Y004403D01*
X023549Y004540D02*
X023823Y004540D01*
X023686Y004677D02*
X023686Y004403D01*
X023362Y005266D02*
X023089Y005266D01*
X022902Y005335D02*
X022902Y005608D01*
X022765Y005745D01*
X022629Y005608D01*
X022629Y005335D01*
X022629Y005540D02*
X022902Y005540D01*
X023549Y005745D02*
X023549Y005335D01*
X023823Y005335D02*
X023823Y005745D01*
X023686Y005608D01*
X023549Y005745D01*
X025596Y007335D02*
X025664Y007403D01*
X033183Y006677D02*
X033183Y006608D01*
X033251Y006540D01*
X033183Y006471D01*
X033183Y006403D01*
X033251Y006335D01*
X033388Y006335D01*
X033457Y006403D01*
X033320Y006540D02*
X033251Y006540D01*
X033183Y006677D02*
X033251Y006745D01*
X033388Y006745D01*
X033457Y006677D01*
X033643Y006266D02*
X033917Y006266D01*
X034104Y006403D02*
X034104Y006471D01*
X034172Y006540D01*
X034241Y006540D01*
X034172Y006540D02*
X034104Y006608D01*
X034104Y006677D01*
X034172Y006745D01*
X034309Y006745D01*
X034377Y006677D01*
X034564Y006677D02*
X034633Y006745D01*
X034769Y006745D01*
X034838Y006677D01*
X034564Y006677D02*
X034564Y006608D01*
X034838Y006335D01*
X034564Y006335D01*
X034377Y006403D02*
X034309Y006335D01*
X034172Y006335D01*
X034104Y006403D01*
X035025Y006335D02*
X035298Y006335D01*
X035161Y006335D02*
X035161Y006745D01*
X035298Y006608D01*
X035485Y006608D02*
X035485Y006335D01*
X035485Y006540D02*
X035759Y006540D01*
X035759Y006608D02*
X035622Y006745D01*
X035485Y006608D01*
X035759Y006608D02*
X035759Y006335D01*
X035945Y006745D02*
X036219Y006335D01*
X034838Y007335D02*
X034564Y007335D01*
X034377Y007266D02*
X034104Y007266D01*
X033917Y007540D02*
X033643Y007540D01*
X033712Y007745D02*
X033917Y007540D01*
X033712Y007335D02*
X033712Y007745D01*
X033712Y008335D02*
X033849Y008335D01*
X033917Y008403D01*
X033917Y008540D02*
X033780Y008608D01*
X033712Y008608D01*
X033643Y008540D01*
X033643Y008403D01*
X033712Y008335D01*
X033917Y008540D02*
X033917Y008745D01*
X033643Y008745D01*
X034104Y008266D02*
X034377Y008266D01*
X034564Y008335D02*
X034838Y008335D01*
X034564Y008608D01*
X034564Y008677D01*
X034633Y008745D01*
X034769Y008745D01*
X034838Y008677D01*
X034769Y007745D02*
X034838Y007677D01*
X034769Y007745D02*
X034633Y007745D01*
X034564Y007677D01*
X034564Y007608D01*
X034838Y007335D01*
X036866Y008540D02*
X037140Y008540D01*
X037140Y008608D02*
X037140Y008335D01*
X034991Y010677D02*
X034923Y010745D01*
X024130Y016335D02*
X023856Y016745D01*
X023669Y016745D02*
X023533Y016745D01*
X023601Y016745D02*
X023601Y016335D01*
X023669Y016335D02*
X023533Y016335D01*
X023362Y016266D02*
X023089Y016266D01*
X022902Y016335D02*
X022902Y016745D01*
X022697Y016745D01*
X022629Y016677D01*
X022629Y016540D01*
X022697Y016471D01*
X022902Y016471D01*
X023089Y017266D02*
X023362Y017266D01*
X022902Y017335D02*
X022902Y017745D01*
X022697Y017745D01*
X022629Y017677D01*
X022629Y017540D01*
X022697Y017471D01*
X022902Y017471D01*
X025391Y017540D02*
X025459Y017471D01*
X025664Y017471D01*
X025664Y017335D02*
X025664Y017745D01*
X025459Y017745D01*
X025391Y017677D01*
X025391Y017540D01*
X025851Y017745D02*
X026125Y017335D01*
X026312Y017403D02*
X026312Y017540D01*
X026380Y017608D01*
X026448Y017608D01*
X026585Y017540D01*
X026585Y017745D01*
X026312Y017745D01*
X026909Y017745D02*
X026909Y017335D01*
X027046Y017335D02*
X026772Y017335D01*
X026585Y017403D02*
X026517Y017335D01*
X026380Y017335D01*
X026312Y017403D01*
X026909Y017745D02*
X027046Y017608D01*
X027232Y017266D02*
X027506Y017266D01*
X027693Y017335D02*
X027966Y017335D01*
X027693Y017608D01*
X027693Y017677D01*
X027761Y017745D01*
X027898Y017745D01*
X027966Y017677D01*
X028290Y017745D02*
X028290Y017335D01*
X028427Y017335D02*
X028153Y017335D01*
X028427Y017608D02*
X028290Y017745D01*
X028614Y017608D02*
X028614Y017335D01*
X028614Y017540D02*
X028887Y017540D01*
X028887Y017608D02*
X028750Y017745D01*
X028614Y017608D01*
X028887Y017608D02*
X028887Y017335D01*
X023362Y014266D02*
X023089Y014266D01*
X022902Y014335D02*
X022697Y014335D01*
X022629Y014403D01*
X022629Y014471D01*
X022697Y014540D01*
X022902Y014540D01*
X022902Y014335D02*
X022902Y014745D01*
X022697Y014745D01*
X022629Y014677D01*
X022629Y014608D01*
X022697Y014540D01*
D13*
X032137Y005449D02*
X032337Y005449D01*
X032237Y005349D01*
X032237Y005483D01*
X032237Y005252D02*
X032237Y005119D01*
X032137Y005119D02*
X032337Y005119D01*
X032303Y005022D02*
X032337Y004989D01*
X032337Y004922D01*
X032303Y004889D01*
X032170Y004889D01*
X032137Y004922D01*
X032137Y004989D01*
X032170Y005022D01*
X032137Y005252D02*
X032337Y005252D01*
X032103Y004792D02*
X032103Y004659D01*
X032137Y004562D02*
X032137Y004428D01*
X032270Y004562D01*
X032303Y004562D01*
X032337Y004529D01*
X032337Y004462D01*
X032303Y004428D01*
X032337Y004332D02*
X032137Y004332D01*
X032137Y004198D02*
X032337Y004198D01*
X032270Y004265D01*
X032337Y004332D01*
X032512Y004342D02*
X032712Y004342D01*
X032645Y004275D01*
X032645Y004178D02*
X032612Y004145D01*
X032612Y004045D01*
X032612Y003948D02*
X032578Y003915D01*
X032578Y003815D01*
X032512Y003815D02*
X032712Y003815D01*
X032712Y003915D01*
X032678Y003948D01*
X032612Y003948D01*
X032712Y004045D02*
X032712Y004145D01*
X032678Y004178D01*
X032645Y004178D01*
X032612Y004145D02*
X032578Y004178D01*
X032545Y004178D01*
X032512Y004145D01*
X032512Y004045D01*
X032712Y004045D01*
X032887Y004078D02*
X032920Y004045D01*
X032987Y004045D01*
X033020Y004078D01*
X033020Y004145D01*
X032987Y004178D01*
X032920Y004178D01*
X032887Y004145D01*
X032887Y004078D01*
X032887Y003948D02*
X033020Y003815D01*
X032887Y003815D02*
X033020Y003948D01*
X033020Y004275D02*
X032887Y004275D01*
X032953Y004275D02*
X033020Y004342D01*
X033020Y004375D01*
X032712Y004539D02*
X032712Y004605D01*
X032678Y004639D01*
X032545Y004505D01*
X032512Y004539D01*
X032512Y004605D01*
X032545Y004639D01*
X032678Y004639D01*
X032712Y004539D02*
X032678Y004505D01*
X032545Y004505D01*
X032512Y004408D02*
X032512Y004275D01*
X032337Y004112D02*
X032337Y004045D01*
X032337Y004078D02*
X032137Y004078D01*
X032137Y004045D02*
X032137Y004112D01*
X032137Y003881D02*
X032337Y003881D01*
X032337Y003815D02*
X032337Y003948D01*
X031587Y003889D02*
X031587Y003755D01*
X031487Y003755D01*
X031520Y003822D01*
X031520Y003855D01*
X031487Y003889D01*
X031420Y003889D01*
X031387Y003855D01*
X031387Y003789D01*
X031420Y003755D01*
X031387Y003658D02*
X031387Y003525D01*
X031387Y003592D02*
X031587Y003592D01*
X031520Y003525D01*
X031553Y003428D02*
X031587Y003395D01*
X031587Y003328D01*
X031553Y003295D01*
X031420Y003295D01*
X031387Y003328D01*
X031387Y003395D01*
X031420Y003428D01*
X031487Y003198D02*
X031453Y003165D01*
X031453Y003065D01*
X031387Y003065D02*
X031587Y003065D01*
X031587Y003165D01*
X031553Y003198D01*
X031487Y003198D01*
X030587Y003165D02*
X030587Y003065D01*
X030387Y003065D01*
X030453Y003065D02*
X030453Y003165D01*
X030487Y003198D01*
X030553Y003198D01*
X030587Y003165D01*
X030553Y003295D02*
X030420Y003295D01*
X030387Y003328D01*
X030387Y003395D01*
X030420Y003428D01*
X030387Y003525D02*
X030387Y003658D01*
X030387Y003592D02*
X030587Y003592D01*
X030520Y003525D01*
X030553Y003428D02*
X030587Y003395D01*
X030587Y003328D01*
X030553Y003295D01*
X030487Y003755D02*
X030487Y003889D01*
X030587Y003855D02*
X030487Y003755D01*
X030387Y003855D02*
X030587Y003855D01*
X035387Y003889D02*
X035387Y003755D01*
X035520Y003889D01*
X035553Y003889D01*
X035587Y003855D01*
X035587Y003789D01*
X035553Y003755D01*
X035587Y003592D02*
X035387Y003592D01*
X035387Y003658D02*
X035387Y003525D01*
X035420Y003428D02*
X035387Y003395D01*
X035387Y003295D01*
X035587Y003295D01*
X035587Y003395D01*
X035553Y003428D01*
X035520Y003428D01*
X035487Y003395D01*
X035487Y003295D01*
X035487Y003198D02*
X035453Y003165D01*
X035453Y003065D01*
X035387Y003065D02*
X035587Y003065D01*
X035587Y003165D01*
X035553Y003198D01*
X035487Y003198D01*
X035487Y003395D02*
X035453Y003428D01*
X035420Y003428D01*
X035520Y003525D02*
X035587Y003592D01*
X036387Y003558D02*
X036387Y003625D01*
X036420Y003658D01*
X036553Y003658D01*
X036587Y003625D01*
X036587Y003558D01*
X036553Y003525D01*
X036520Y003525D01*
X036487Y003558D01*
X036487Y003658D01*
X036387Y003558D02*
X036420Y003525D01*
X036420Y003428D02*
X036387Y003395D01*
X036387Y003328D01*
X036420Y003295D01*
X036553Y003295D01*
X036587Y003328D01*
X036587Y003395D01*
X036553Y003428D01*
X036553Y003198D02*
X036487Y003198D01*
X036453Y003165D01*
X036453Y003065D01*
X036387Y003065D02*
X036587Y003065D01*
X036587Y003165D01*
X036553Y003198D01*
X036978Y003159D02*
X036978Y003292D01*
X037045Y003389D02*
X037012Y003422D01*
X037012Y003489D01*
X037045Y003522D01*
X037012Y003619D02*
X037212Y003619D01*
X037112Y003619D02*
X037112Y003752D01*
X037212Y003752D02*
X037012Y003752D01*
X037045Y003849D02*
X037012Y003883D01*
X037012Y003949D01*
X037045Y003983D01*
X037078Y003983D01*
X037112Y003949D01*
X037112Y003916D01*
X037112Y003949D02*
X037145Y003983D01*
X037178Y003983D01*
X037212Y003949D01*
X037212Y003883D01*
X037178Y003849D01*
X037387Y003822D02*
X037587Y003822D01*
X037520Y003755D01*
X037387Y003755D02*
X037387Y003889D01*
X037387Y003658D02*
X037387Y003525D01*
X037387Y003592D02*
X037587Y003592D01*
X037520Y003525D01*
X037520Y003428D02*
X037487Y003395D01*
X037487Y003295D01*
X037487Y003198D02*
X037453Y003165D01*
X037453Y003065D01*
X037387Y003065D02*
X037587Y003065D01*
X037587Y003165D01*
X037553Y003198D01*
X037487Y003198D01*
X037587Y003295D02*
X037587Y003395D01*
X037553Y003428D01*
X037520Y003428D01*
X037487Y003395D02*
X037453Y003428D01*
X037420Y003428D01*
X037387Y003395D01*
X037387Y003295D01*
X037587Y003295D01*
X037762Y003328D02*
X037762Y003395D01*
X037795Y003428D01*
X037862Y003428D01*
X037895Y003395D01*
X037895Y003328D01*
X037862Y003295D01*
X037795Y003295D01*
X037762Y003328D01*
X037762Y003198D02*
X037895Y003065D01*
X037762Y003065D02*
X037895Y003198D01*
X037895Y003525D02*
X037762Y003525D01*
X037828Y003525D02*
X037895Y003592D01*
X037895Y003625D01*
X037212Y003489D02*
X037212Y003422D01*
X037178Y003389D01*
X037045Y003389D01*
X037178Y003522D02*
X037212Y003489D01*
X037178Y003062D02*
X037212Y003029D01*
X037212Y002962D01*
X037178Y002928D01*
X037212Y002832D02*
X037012Y002832D01*
X037012Y002928D02*
X037145Y003062D01*
X037178Y003062D01*
X037012Y003062D02*
X037012Y002928D01*
X037145Y002765D02*
X037212Y002832D01*
X037145Y002765D02*
X037212Y002698D01*
X037012Y002698D01*
X037012Y002612D02*
X037012Y002545D01*
X037012Y002578D02*
X037212Y002578D01*
X037212Y002545D02*
X037212Y002612D01*
X037212Y002448D02*
X037212Y002315D01*
X037212Y002381D02*
X037012Y002381D01*
X006589Y004284D02*
X004384Y004284D01*
X006589Y004284D01*
X005841Y003425D02*
X005132Y003425D01*
X005132Y001654D02*
X005841Y001654D01*
X006589Y009796D02*
X004384Y009796D01*
X003896Y010949D02*
X005077Y010949D01*
X005077Y010998D01*
X004093Y011146D02*
X004095Y011165D01*
X004100Y011184D01*
X004110Y011200D01*
X004122Y011215D01*
X004137Y011227D01*
X004153Y011237D01*
X004172Y011242D01*
X004191Y011244D01*
X004210Y011242D01*
X004229Y011237D01*
X004245Y011227D01*
X004260Y011215D01*
X004272Y011200D01*
X004282Y011184D01*
X004287Y011165D01*
X004289Y011146D01*
X004287Y011127D01*
X004282Y011108D01*
X004272Y011092D01*
X004260Y011077D01*
X004245Y011065D01*
X004229Y011055D01*
X004210Y011050D01*
X004191Y011048D01*
X004172Y011050D01*
X004153Y011055D01*
X004137Y011065D01*
X004122Y011077D01*
X004110Y011092D01*
X004100Y011108D01*
X004095Y011127D01*
X004093Y011146D01*
X003896Y010998D02*
X003896Y010949D01*
X003896Y012081D02*
X003896Y012130D01*
X005077Y012130D01*
X005077Y012081D01*
D14*
X030797Y007650D03*
X030787Y006210D03*
X032207Y010120D03*
D15*
X032212Y012540D03*
X031762Y012740D03*
X030502Y015620D03*
X030792Y007640D03*
X030792Y006220D03*
D16*
X030792Y006230D03*
X030792Y007630D03*
X031292Y007830D03*
X031762Y012760D03*
X031362Y015550D03*
X030502Y015630D03*
D17*
X030502Y015640D03*
X031302Y013490D03*
X031302Y013480D03*
X031312Y013460D03*
X031312Y013450D03*
X031322Y013430D03*
X031322Y013420D03*
X031332Y013380D03*
X031332Y013370D03*
X031342Y013330D03*
X031342Y013320D03*
X031342Y013310D03*
X031352Y013250D03*
X031352Y013240D03*
X031352Y013230D03*
X031352Y013220D03*
X031352Y013210D03*
X031352Y013200D03*
X031352Y013190D03*
X031352Y013180D03*
X031352Y013170D03*
X031352Y013160D03*
X031352Y013150D03*
X031352Y013140D03*
X031352Y013130D03*
X031762Y012770D03*
X030772Y013300D03*
X030802Y013360D03*
X032212Y007600D03*
X030792Y006240D03*
D18*
X032207Y006240D03*
D19*
X030797Y006250D03*
X030797Y007610D03*
X032197Y010150D03*
X032197Y012520D03*
X031327Y013010D03*
X031327Y013020D03*
X030737Y013100D03*
X030737Y013110D03*
X030737Y013120D03*
X030737Y013130D03*
X030737Y013140D03*
X030887Y013460D03*
D20*
X031762Y012750D03*
X032212Y006250D03*
D21*
X030797Y006260D03*
X031037Y012640D03*
X031307Y012970D03*
X031767Y012810D03*
X030747Y013030D03*
X030747Y013040D03*
X030747Y013050D03*
X030917Y013480D03*
X031687Y014450D03*
X031697Y014460D03*
X031707Y014470D03*
X031777Y014550D03*
X031787Y014570D03*
X031797Y014590D03*
X031797Y014600D03*
X031807Y014610D03*
X031807Y014620D03*
X031837Y016160D03*
X031837Y016170D03*
X031837Y016180D03*
X031837Y016190D03*
X031837Y016200D03*
X031837Y016210D03*
X031837Y016220D03*
X031837Y016230D03*
X031827Y016250D03*
X031827Y016260D03*
X031827Y016270D03*
X031827Y016280D03*
X031817Y016300D03*
X031817Y016310D03*
X031807Y016340D03*
X031797Y016360D03*
X031787Y016380D03*
X031777Y016400D03*
X031757Y016430D03*
X031747Y016440D03*
X031737Y016460D03*
X031727Y016470D03*
X031717Y016480D03*
X031707Y016490D03*
X031697Y016500D03*
X031047Y016510D03*
X031037Y016500D03*
X031027Y016490D03*
X031017Y016480D03*
X031007Y016470D03*
X030997Y016460D03*
X030987Y016450D03*
X030977Y016440D03*
X030967Y016420D03*
X030957Y016410D03*
X030947Y016390D03*
X030937Y016370D03*
X030927Y016350D03*
X030917Y016330D03*
X030917Y016320D03*
X030907Y016310D03*
X030907Y016300D03*
X030907Y016290D03*
X030897Y016260D03*
X030897Y016250D03*
X030397Y016080D03*
X030397Y016070D03*
X030397Y016060D03*
D22*
X031307Y013470D03*
X031317Y013440D03*
X031327Y013410D03*
X031327Y013400D03*
X031327Y013390D03*
X031337Y013360D03*
X031337Y013350D03*
X031337Y013340D03*
X031347Y013300D03*
X031347Y013290D03*
X031347Y013280D03*
X031347Y013270D03*
X031347Y013260D03*
X032207Y012530D03*
X032197Y010140D03*
X032207Y006260D03*
D23*
X030797Y006270D03*
X032207Y007570D03*
X031827Y008400D03*
X031827Y008410D03*
X031827Y008420D03*
X031827Y008430D03*
X031827Y008440D03*
X031837Y008460D03*
X031837Y008470D03*
X031837Y008480D03*
X031837Y008490D03*
X031837Y008500D03*
X031837Y008510D03*
X031837Y008520D03*
X031837Y008530D03*
X031837Y008540D03*
X031827Y008550D03*
X031827Y008560D03*
X031827Y008570D03*
X031827Y008580D03*
X031827Y008590D03*
X030777Y008630D03*
X030767Y008600D03*
X030767Y008590D03*
X030767Y008580D03*
X030767Y008570D03*
X030767Y008560D03*
X030757Y008540D03*
X030757Y008530D03*
X030757Y008520D03*
X030757Y008510D03*
X030757Y008500D03*
X030757Y008490D03*
X030757Y008480D03*
X030757Y008470D03*
X030757Y008460D03*
X030767Y008440D03*
X030767Y008430D03*
X030767Y008420D03*
X030767Y008410D03*
X032187Y010160D03*
X031767Y012840D03*
X031767Y012850D03*
X031767Y012860D03*
X031777Y012880D03*
X031777Y012890D03*
X031787Y012920D03*
X031787Y012930D03*
X031797Y012940D03*
X031797Y012950D03*
X031797Y012960D03*
X031797Y012970D03*
X031807Y012980D03*
X031807Y012990D03*
X031807Y013000D03*
X031807Y013010D03*
X031817Y013040D03*
X031817Y013050D03*
X031817Y013060D03*
X031817Y013070D03*
X031817Y013080D03*
X031827Y013130D03*
X031827Y013140D03*
X031827Y013150D03*
X031827Y013160D03*
X031827Y013170D03*
X031827Y013180D03*
X031827Y013190D03*
X031827Y013200D03*
X031827Y013210D03*
X031827Y013220D03*
X031827Y013230D03*
X031827Y013240D03*
X031297Y012950D03*
X030767Y012980D03*
X031647Y014430D03*
X031827Y014700D03*
X031827Y014710D03*
X031827Y014720D03*
X031827Y014730D03*
X030497Y015710D03*
X030497Y015720D03*
X030457Y015830D03*
X030447Y015850D03*
X030447Y015860D03*
X030437Y015870D03*
X030437Y015880D03*
X030437Y015890D03*
X030427Y015900D03*
X030427Y015910D03*
X030427Y015920D03*
X030417Y015950D03*
X030887Y016130D03*
X030887Y016140D03*
X030887Y016150D03*
X030887Y016160D03*
X030887Y016170D03*
X030887Y016180D03*
X030397Y016260D03*
X030407Y016310D03*
X030407Y016320D03*
X030407Y016330D03*
X030407Y016340D03*
X030417Y016360D03*
X031077Y016530D03*
X031657Y016530D03*
X031837Y016140D03*
X031837Y016130D03*
X031837Y016120D03*
X031837Y016110D03*
X031837Y016100D03*
X031827Y016070D03*
D24*
X030497Y015650D03*
X030857Y013430D03*
X030847Y013420D03*
X030837Y013410D03*
X030827Y013400D03*
X030817Y013390D03*
X030817Y013380D03*
X030807Y013370D03*
X030797Y013350D03*
X030787Y013340D03*
X030787Y013330D03*
X030777Y013320D03*
X030777Y013310D03*
X030767Y013290D03*
X030767Y013280D03*
X030757Y013260D03*
X030757Y013250D03*
X030747Y013220D03*
X030747Y013210D03*
X031347Y013120D03*
X031347Y013110D03*
X031347Y013100D03*
X031347Y013090D03*
X031347Y013080D03*
X031337Y013050D03*
X030797Y007620D03*
X032207Y006270D03*
D25*
X032197Y006310D03*
X030807Y006280D03*
X030807Y007580D03*
X030797Y008310D03*
X030787Y008330D03*
X030787Y008340D03*
X030787Y008670D03*
X030797Y008690D03*
X030797Y008700D03*
X031797Y008690D03*
X031797Y008680D03*
X031807Y008670D03*
X031807Y008660D03*
X031817Y008630D03*
X031807Y008330D03*
X031797Y008310D03*
X031797Y008300D03*
X031277Y012930D03*
X030777Y012960D03*
X031807Y013330D03*
X031807Y013340D03*
X031807Y013350D03*
X031797Y013370D03*
X031627Y014420D03*
X031827Y014770D03*
X031827Y014780D03*
X030487Y015750D03*
X030477Y015780D03*
X030907Y016040D03*
X030907Y016050D03*
X030897Y016060D03*
X030897Y016070D03*
X030897Y016080D03*
X030427Y016390D03*
X030427Y016400D03*
X030437Y016410D03*
X030437Y016420D03*
X031107Y016550D03*
X031817Y016030D03*
X031817Y016020D03*
X031807Y016000D03*
D26*
X031832Y016240D03*
X031822Y016290D03*
X031812Y016320D03*
X031812Y016330D03*
X031802Y016350D03*
X031792Y016370D03*
X031782Y016390D03*
X031772Y016410D03*
X031762Y016420D03*
X031742Y016450D03*
X030972Y016430D03*
X030952Y016400D03*
X030942Y016380D03*
X030932Y016360D03*
X030922Y016340D03*
X030502Y015680D03*
X030502Y015670D03*
X031792Y014580D03*
X031782Y014560D03*
X031772Y014540D03*
X031762Y014530D03*
X031752Y014520D03*
X031752Y014510D03*
X031742Y014500D03*
X031732Y014490D03*
X031722Y014480D03*
X030902Y013470D03*
X030742Y013090D03*
X030742Y013080D03*
X030742Y013070D03*
X030742Y013060D03*
X031312Y012980D03*
X031322Y012990D03*
X031322Y013000D03*
X031762Y012800D03*
X031762Y012790D03*
X032212Y007580D03*
X032202Y006280D03*
D27*
X030807Y006290D03*
X030807Y007570D03*
X030817Y008270D03*
X030807Y008290D03*
X030817Y008730D03*
X030817Y008740D03*
X030827Y008750D03*
X031777Y008730D03*
X031787Y008710D03*
X031777Y008260D03*
X031767Y008250D03*
X032197Y007540D03*
X032177Y010170D03*
X031037Y012650D03*
X031267Y012920D03*
X030797Y012930D03*
X031787Y013390D03*
X031817Y014820D03*
X031817Y014830D03*
X031367Y015560D03*
X031797Y015980D03*
X030927Y015990D03*
X030917Y016000D03*
X030917Y016010D03*
X030447Y016440D03*
X030457Y016460D03*
D28*
X030402Y016300D03*
X030402Y016290D03*
X030402Y016280D03*
X030402Y016270D03*
X030392Y016250D03*
X030392Y016240D03*
X030392Y016230D03*
X030392Y016220D03*
X030392Y016210D03*
X030392Y016200D03*
X030392Y016190D03*
X030392Y016180D03*
X030392Y016170D03*
X030392Y016160D03*
X030392Y016150D03*
X030392Y016140D03*
X030392Y016130D03*
X030392Y016120D03*
X030392Y016110D03*
X030392Y016100D03*
X030392Y016090D03*
X030402Y016050D03*
X030402Y016040D03*
X030402Y016030D03*
X030402Y016020D03*
X030402Y016010D03*
X030402Y016000D03*
X030412Y015990D03*
X030412Y015980D03*
X030412Y015970D03*
X030412Y015960D03*
X030422Y015940D03*
X030422Y015930D03*
X030502Y015700D03*
X030502Y015690D03*
X030892Y016190D03*
X030892Y016200D03*
X030892Y016210D03*
X030892Y016220D03*
X030892Y016230D03*
X030892Y016240D03*
X030902Y016270D03*
X030902Y016280D03*
X031062Y016520D03*
X031672Y016520D03*
X031682Y016510D03*
X031842Y016150D03*
X031822Y014690D03*
X031822Y014680D03*
X031822Y014670D03*
X031822Y014660D03*
X031812Y014650D03*
X031812Y014640D03*
X031812Y014630D03*
X031672Y014440D03*
X031822Y013120D03*
X031822Y013110D03*
X031822Y013100D03*
X031822Y013090D03*
X031812Y013030D03*
X031812Y013020D03*
X031762Y012830D03*
X031762Y012820D03*
X031302Y012960D03*
X030762Y012990D03*
X030762Y013000D03*
X030752Y013010D03*
X030752Y013020D03*
X032192Y012510D03*
X031832Y008450D03*
X030762Y008550D03*
X030802Y007600D03*
X032202Y006290D03*
D29*
X032192Y006320D03*
X030812Y006300D03*
X030832Y008250D03*
X030822Y008260D03*
X030832Y008760D03*
X030842Y008770D03*
X031762Y008750D03*
X031772Y008740D03*
X031762Y008240D03*
X031752Y008230D03*
X031782Y013400D03*
X031782Y013410D03*
X031772Y013420D03*
X030912Y013490D03*
X031602Y014410D03*
X031812Y014840D03*
X031812Y014850D03*
X031802Y014860D03*
X031782Y015950D03*
X031792Y015960D03*
X031792Y015970D03*
X030932Y015970D03*
X030932Y015980D03*
X030462Y016470D03*
X030472Y016480D03*
X031132Y016560D03*
X031602Y016560D03*
D30*
X031642Y016540D03*
X031832Y016090D03*
X031832Y016080D03*
X031822Y016060D03*
X031822Y016050D03*
X031822Y016040D03*
X031092Y016540D03*
X030422Y016380D03*
X030422Y016370D03*
X030412Y016350D03*
X030892Y016120D03*
X030892Y016110D03*
X030892Y016100D03*
X030892Y016090D03*
X030452Y015840D03*
X030462Y015820D03*
X030462Y015810D03*
X030472Y015800D03*
X030472Y015790D03*
X030482Y015770D03*
X030482Y015760D03*
X030492Y015740D03*
X030492Y015730D03*
X031822Y014760D03*
X031822Y014750D03*
X031822Y014740D03*
X031812Y013320D03*
X031812Y013310D03*
X031812Y013300D03*
X031822Y013290D03*
X031822Y013280D03*
X031822Y013270D03*
X031822Y013260D03*
X031822Y013250D03*
X031782Y012910D03*
X031782Y012900D03*
X031772Y012870D03*
X031292Y012940D03*
X030772Y012970D03*
X030792Y008680D03*
X030782Y008660D03*
X030782Y008650D03*
X030782Y008640D03*
X030772Y008620D03*
X030772Y008610D03*
X030762Y008450D03*
X030772Y008400D03*
X030772Y008390D03*
X030772Y008380D03*
X030772Y008370D03*
X030782Y008360D03*
X030782Y008350D03*
X031802Y008320D03*
X031812Y008340D03*
X031812Y008350D03*
X031812Y008360D03*
X031822Y008370D03*
X031822Y008380D03*
X031822Y008390D03*
X031822Y008600D03*
X031822Y008610D03*
X031822Y008620D03*
X031812Y008640D03*
X031812Y008650D03*
X032202Y007560D03*
X030802Y007590D03*
X032202Y006300D03*
D31*
X032182Y006340D03*
X030812Y006310D03*
X030822Y007550D03*
X030852Y008220D03*
X030842Y008230D03*
X031742Y008210D03*
X031752Y008770D03*
X031742Y008780D03*
X032162Y010180D03*
X031252Y012910D03*
X031792Y014880D03*
X031762Y015920D03*
X031772Y015930D03*
X030952Y015940D03*
X030482Y016490D03*
D32*
X030972Y015910D03*
X031752Y015900D03*
X031782Y014900D03*
X031752Y013450D03*
X030822Y012910D03*
X030882Y008820D03*
X030872Y008810D03*
X031722Y008800D03*
X031722Y008190D03*
X031712Y008180D03*
X032182Y007510D03*
X030822Y007540D03*
X030822Y006320D03*
X032182Y006350D03*
D33*
X030827Y006330D03*
X030827Y007530D03*
X030887Y008180D03*
X030877Y008190D03*
X031707Y008820D03*
X031717Y008810D03*
X032177Y007500D03*
X032157Y010190D03*
X032157Y012480D03*
X031037Y012660D03*
X031737Y013460D03*
X031737Y015890D03*
X030977Y015900D03*
X030507Y016520D03*
D34*
X030937Y015960D03*
X030947Y015950D03*
X031777Y015940D03*
X031797Y014870D03*
X031767Y013430D03*
X030807Y012920D03*
X032167Y012490D03*
X031757Y008760D03*
X031747Y008220D03*
X030837Y008240D03*
X030847Y008780D03*
X030857Y008790D03*
X030817Y007560D03*
X032187Y007530D03*
X032187Y006330D03*
D35*
X032172Y006360D03*
X030832Y006340D03*
X031292Y007850D03*
X031702Y008170D03*
X030892Y008830D03*
X031302Y009150D03*
X031772Y014910D03*
X030992Y015890D03*
D36*
X030997Y015880D03*
X031367Y015570D03*
X031727Y015880D03*
X030517Y016530D03*
X031767Y014920D03*
X031727Y013470D03*
X030907Y008840D03*
X031697Y008830D03*
X031687Y008160D03*
X030897Y008170D03*
X030837Y007520D03*
X032167Y007490D03*
X032167Y006370D03*
X030837Y006350D03*
D37*
X030847Y006360D03*
X032157Y006390D03*
X032147Y007460D03*
X032157Y007470D03*
X030847Y007500D03*
X032147Y012470D03*
X031037Y012670D03*
D38*
X031712Y013480D03*
X031742Y014940D03*
X031702Y015860D03*
X031672Y008850D03*
X030922Y008150D03*
X030852Y007490D03*
X030862Y006380D03*
X030852Y006370D03*
D39*
X032162Y006380D03*
X032162Y007480D03*
X031672Y008150D03*
X030912Y008160D03*
X030842Y007510D03*
X030922Y008850D03*
X031682Y008840D03*
X032142Y010200D03*
X031752Y014930D03*
X031712Y015870D03*
X031012Y015870D03*
X030532Y016540D03*
D40*
X031027Y015860D03*
X031687Y015850D03*
X032137Y012460D03*
X030937Y008860D03*
X030937Y008140D03*
X031657Y008140D03*
X032137Y007450D03*
X032147Y006400D03*
X030867Y006390D03*
D41*
X030872Y006400D03*
X032132Y006420D03*
X032142Y006410D03*
X032122Y007430D03*
X032132Y007440D03*
X030862Y007480D03*
X031652Y008860D03*
X032132Y010210D03*
X031032Y012680D03*
X031042Y015850D03*
X030552Y016550D03*
D42*
X031727Y014950D03*
X031297Y009140D03*
X030957Y008870D03*
X031637Y008130D03*
X031297Y007860D03*
X030877Y007460D03*
X030867Y007470D03*
X031517Y006930D03*
X032117Y007420D03*
X032127Y006430D03*
X030887Y006410D03*
D43*
X030892Y006420D03*
X030902Y006430D03*
X030912Y006440D03*
X031162Y006640D03*
X031202Y006670D03*
X031212Y006680D03*
X031222Y006690D03*
X031252Y006710D03*
X031262Y006720D03*
X031272Y006730D03*
X031292Y006740D03*
X031522Y006920D03*
X031512Y006940D03*
X031742Y007120D03*
X031762Y007130D03*
X031772Y007140D03*
X031782Y007150D03*
X031812Y007170D03*
X031822Y007180D03*
X031832Y007190D03*
X031862Y007210D03*
X031872Y007220D03*
X031912Y007250D03*
X032102Y007410D03*
X030882Y007450D03*
X031632Y008870D03*
X032122Y012450D03*
X031362Y015580D03*
D44*
X030577Y016560D03*
X031037Y012690D03*
X030867Y010800D03*
X032117Y010220D03*
X030957Y008130D03*
X030897Y007440D03*
X031797Y007160D03*
X031847Y007200D03*
X031887Y007230D03*
X031897Y007240D03*
X031927Y007260D03*
X031937Y007270D03*
X031947Y007280D03*
X031967Y007290D03*
X031977Y007300D03*
X031987Y007310D03*
X031997Y007320D03*
X032017Y007330D03*
X032027Y007340D03*
X032037Y007350D03*
X032077Y007380D03*
X032087Y007390D03*
X032097Y007400D03*
X031777Y006720D03*
X031237Y006700D03*
X031187Y006660D03*
X031177Y006650D03*
X031147Y006630D03*
X031137Y006620D03*
X031127Y006610D03*
X031107Y006600D03*
X031097Y006590D03*
X031087Y006580D03*
X031077Y006570D03*
X031057Y006560D03*
X031047Y006550D03*
X031037Y006540D03*
X031007Y006520D03*
X030997Y006510D03*
X030957Y006480D03*
X030947Y006470D03*
X030937Y006460D03*
X030927Y006450D03*
X032107Y006450D03*
X032117Y006440D03*
D45*
X032102Y006460D03*
X032092Y006470D03*
X031982Y006560D03*
X031942Y006590D03*
X031932Y006600D03*
X031902Y006620D03*
X031892Y006630D03*
X031882Y006640D03*
X031852Y006660D03*
X031842Y006670D03*
X031832Y006680D03*
X031812Y006690D03*
X031802Y006700D03*
X031792Y006710D03*
X031762Y006730D03*
X031752Y006740D03*
X031522Y006910D03*
X031512Y006950D03*
X031282Y007120D03*
X031272Y007130D03*
X031262Y007140D03*
X031252Y007150D03*
X031232Y007160D03*
X031222Y007170D03*
X031212Y007180D03*
X031182Y007200D03*
X031172Y007210D03*
X031132Y007240D03*
X031122Y007250D03*
X031082Y007280D03*
X030912Y007420D03*
X030902Y007430D03*
X032052Y007360D03*
X032062Y007370D03*
X031022Y006530D03*
X030982Y006500D03*
X030972Y006490D03*
X030872Y011880D03*
X031672Y013490D03*
X031662Y015840D03*
X031602Y016570D03*
D46*
X031067Y015840D03*
X030877Y011870D03*
X030917Y007410D03*
X030957Y007380D03*
X030967Y007370D03*
X031007Y007340D03*
X031017Y007330D03*
X031047Y007310D03*
X031057Y007300D03*
X031067Y007290D03*
X031097Y007270D03*
X031107Y007260D03*
X031147Y007230D03*
X031157Y007220D03*
X031197Y007190D03*
X031867Y006650D03*
X031917Y006610D03*
X031957Y006580D03*
X031967Y006570D03*
X031997Y006550D03*
X032007Y006540D03*
X032017Y006530D03*
X032047Y006510D03*
X032057Y006500D03*
X032067Y006490D03*
X032077Y006480D03*
D47*
X032032Y006520D03*
X031032Y007320D03*
X030992Y007350D03*
X030982Y007360D03*
X030942Y007390D03*
X030932Y007400D03*
X031292Y007870D03*
X030982Y008120D03*
X031612Y008120D03*
X030982Y008880D03*
X032102Y010230D03*
X030882Y010790D03*
X030882Y010810D03*
X032112Y012440D03*
X031032Y012700D03*
X031702Y014960D03*
D48*
X031362Y015720D03*
X031632Y010470D03*
X031662Y010460D03*
X031692Y010450D03*
X031722Y010440D03*
X031752Y010430D03*
X031832Y010400D03*
X031302Y009010D03*
X031292Y007990D03*
X031512Y007110D03*
X031522Y006750D03*
D49*
X031522Y006760D03*
X031512Y007100D03*
X031292Y007980D03*
X031302Y009020D03*
X031352Y010570D03*
X031322Y010580D03*
X031292Y010590D03*
X031262Y010600D03*
X031232Y010610D03*
X031692Y011540D03*
X031722Y011530D03*
X031752Y011520D03*
X031782Y011510D03*
X031812Y011500D03*
X031832Y011490D03*
X031712Y012230D03*
X031742Y012240D03*
X031772Y012250D03*
X031802Y012260D03*
X031832Y012270D03*
X031852Y012280D03*
X031362Y015710D03*
D50*
X031147Y013760D03*
X031287Y012080D03*
X031257Y012070D03*
X031227Y012060D03*
X031197Y012050D03*
X031157Y011720D03*
X031437Y011050D03*
X031467Y011060D03*
X031497Y011070D03*
X031527Y011080D03*
X031557Y011090D03*
X031587Y011100D03*
X031617Y011110D03*
X031647Y011120D03*
X031677Y011130D03*
X031707Y011140D03*
X031737Y011150D03*
X031767Y011160D03*
X031797Y011170D03*
X031847Y011190D03*
X031877Y011200D03*
X031127Y010650D03*
X031297Y009030D03*
X031507Y007090D03*
X031527Y006770D03*
D51*
X031522Y006780D03*
X031512Y007080D03*
X031932Y010350D03*
X031122Y010940D03*
X031922Y011450D03*
X031122Y012020D03*
X031912Y012310D03*
X031362Y015680D03*
D52*
X031932Y012320D03*
X031942Y011440D03*
X031302Y009050D03*
X031292Y007950D03*
X031512Y007070D03*
X031522Y006790D03*
D53*
X031527Y006800D03*
X031507Y007060D03*
X031297Y009060D03*
X031047Y010690D03*
X031057Y010910D03*
X031957Y011240D03*
X031047Y011770D03*
X031057Y011990D03*
D54*
X031032Y012860D03*
X031032Y012870D03*
X031982Y012350D03*
X031302Y009070D03*
X031292Y007930D03*
X031512Y007050D03*
X031522Y006810D03*
X031362Y015650D03*
D55*
X031032Y012840D03*
X031012Y011790D03*
X031992Y011260D03*
X031022Y010890D03*
X031012Y010710D03*
X031992Y010310D03*
X031512Y007040D03*
X031522Y006820D03*
D56*
X031522Y006830D03*
X032012Y010300D03*
X030992Y010720D03*
X031002Y010880D03*
X032012Y011270D03*
X032012Y011400D03*
X030992Y011800D03*
X031002Y011960D03*
X031032Y012820D03*
X031362Y015640D03*
D57*
X031032Y012790D03*
X031522Y006840D03*
D58*
X031522Y006850D03*
X031512Y007010D03*
X031292Y007900D03*
X031302Y009100D03*
X030962Y010740D03*
X032042Y011290D03*
X030962Y011820D03*
X032042Y012390D03*
X031032Y012770D03*
X031362Y015620D03*
D59*
X031032Y012760D03*
X030952Y011930D03*
X030942Y011830D03*
X032062Y011370D03*
X032062Y011300D03*
X030952Y010850D03*
X030942Y010750D03*
X032052Y010270D03*
X031512Y007000D03*
X031522Y006860D03*
D60*
X031527Y006870D03*
X031507Y006990D03*
X032067Y010260D03*
X030927Y010760D03*
X032077Y011310D03*
X032077Y011360D03*
X030927Y011840D03*
X031037Y012740D03*
D61*
X032082Y012420D03*
X030912Y011850D03*
X030912Y010770D03*
X032082Y010250D03*
X031302Y009120D03*
X031292Y007880D03*
X031512Y006980D03*
X031522Y006880D03*
X031362Y015600D03*
D62*
X030902Y011900D03*
X032102Y011340D03*
X032102Y011330D03*
X031512Y006970D03*
X031522Y006890D03*
D63*
X031527Y006900D03*
X031507Y006960D03*
X031607Y008880D03*
X031297Y009130D03*
X030887Y011890D03*
X031367Y015590D03*
D64*
X032027Y012380D03*
X030977Y011810D03*
X032027Y011390D03*
X032027Y011280D03*
X030977Y010730D03*
X032027Y010290D03*
X031507Y007020D03*
D65*
X031507Y007030D03*
X032007Y012370D03*
X031037Y012810D03*
D66*
X031757Y013440D03*
X031787Y014890D03*
X031757Y015910D03*
X030967Y015920D03*
X030957Y015930D03*
X030487Y016500D03*
X030497Y016510D03*
X030867Y008800D03*
X030857Y008210D03*
X030867Y008200D03*
X031727Y008200D03*
X031737Y008790D03*
X032187Y007520D03*
D67*
X032202Y007550D03*
X031292Y007840D03*
X030812Y008280D03*
X030802Y008300D03*
X030792Y008320D03*
X030802Y008710D03*
X030812Y008720D03*
X031302Y009160D03*
X031782Y008720D03*
X031792Y008700D03*
X031792Y008290D03*
X031782Y008280D03*
X031782Y008270D03*
X032182Y012500D03*
X031802Y013360D03*
X031792Y013380D03*
X030792Y012940D03*
X030782Y012950D03*
X031822Y014790D03*
X031822Y014800D03*
X031822Y014810D03*
X031802Y015990D03*
X031812Y016010D03*
X031622Y016550D03*
X030912Y016030D03*
X030912Y016020D03*
X030442Y016430D03*
X030452Y016450D03*
D68*
X030502Y015660D03*
X030872Y013450D03*
X030862Y013440D03*
X030762Y013270D03*
X030752Y013240D03*
X030752Y013230D03*
X030742Y013200D03*
X030742Y013190D03*
X030742Y013180D03*
X030742Y013170D03*
X030742Y013160D03*
X030742Y013150D03*
X031332Y013040D03*
X031332Y013030D03*
X031342Y013060D03*
X031342Y013070D03*
X031762Y012780D03*
X032212Y007590D03*
D69*
X032217Y007610D03*
X031297Y009170D03*
D70*
X032217Y007620D03*
D71*
X032217Y007630D03*
D72*
X031292Y007890D03*
X031302Y009110D03*
X030932Y010840D03*
X030932Y011920D03*
X031032Y012750D03*
X031362Y015610D03*
D73*
X031362Y015630D03*
X031032Y012800D03*
X030982Y011950D03*
X030982Y010870D03*
X031302Y009090D03*
X031292Y007910D03*
D74*
X031297Y007920D03*
X031297Y009080D03*
X031997Y012360D03*
X031037Y012830D03*
D75*
X031962Y011430D03*
X031962Y010330D03*
X031292Y007940D03*
X031362Y015670D03*
D76*
X031147Y012030D03*
X031107Y011740D03*
X031897Y011210D03*
X031147Y010950D03*
X031107Y010660D03*
X031297Y009040D03*
X031297Y007960D03*
D77*
X031292Y007970D03*
X031892Y010370D03*
X031152Y010640D03*
X031822Y011180D03*
X031882Y011470D03*
X031422Y011630D03*
X031392Y011640D03*
X031362Y011650D03*
X031332Y011660D03*
X031302Y011670D03*
X031272Y011680D03*
X031242Y011690D03*
X031212Y011700D03*
X031182Y011710D03*
X031312Y012090D03*
X031342Y012100D03*
X031372Y012110D03*
X031402Y012120D03*
X031432Y012130D03*
X031482Y012150D03*
X031512Y012160D03*
X031542Y012170D03*
X031872Y012290D03*
X031362Y015700D03*
D78*
X031362Y015730D03*
X031162Y013750D03*
X031302Y009000D03*
X031292Y008000D03*
D79*
X031297Y008010D03*
X031297Y008990D03*
D80*
X031297Y008980D03*
X031297Y008020D03*
D81*
X031292Y008030D03*
X031302Y008970D03*
X031362Y015760D03*
X031362Y015770D03*
D82*
X031362Y015780D03*
X031182Y013730D03*
X031302Y008960D03*
X031292Y008040D03*
D83*
X031292Y008050D03*
X031302Y008950D03*
X031362Y015790D03*
X031362Y015800D03*
X030852Y016570D03*
X031332Y016850D03*
D84*
X031362Y015810D03*
X031202Y015210D03*
X031302Y008940D03*
X031292Y008060D03*
D85*
X031297Y008070D03*
X031297Y008930D03*
D86*
X031297Y008920D03*
X031297Y008080D03*
X031207Y015200D03*
D87*
X031202Y013700D03*
X031302Y008910D03*
X031292Y008090D03*
D88*
X031292Y008100D03*
X031202Y013690D03*
X031212Y015190D03*
D89*
X031297Y008890D03*
X031297Y008110D03*
D90*
X031297Y008900D03*
X031297Y014120D03*
X031297Y014400D03*
D91*
X031037Y012630D03*
X032207Y010130D03*
D92*
X032097Y010240D03*
X030897Y010780D03*
X030897Y010820D03*
X030897Y011860D03*
X032097Y012430D03*
X031037Y012710D03*
D93*
X031037Y012780D03*
X030967Y011940D03*
X032047Y011380D03*
X030967Y010860D03*
X032037Y010280D03*
D94*
X031977Y010320D03*
X031027Y010700D03*
X031037Y010900D03*
X031977Y011250D03*
X031977Y011420D03*
X031027Y011780D03*
X031037Y011980D03*
X031127Y013770D03*
D95*
X031947Y012330D03*
X031077Y012000D03*
X031067Y011760D03*
X031937Y011230D03*
X031077Y010920D03*
X031067Y010680D03*
X031947Y010340D03*
D96*
X031912Y010360D03*
X031232Y010980D03*
X031262Y010990D03*
X031292Y011000D03*
X031322Y011010D03*
X031352Y011020D03*
X031382Y011030D03*
X031412Y011040D03*
X031202Y010970D03*
X031172Y010960D03*
X031902Y011460D03*
X031132Y011730D03*
X031172Y012040D03*
X031892Y012300D03*
X031362Y015690D03*
D97*
X031687Y012220D03*
X031657Y012210D03*
X031627Y012200D03*
X031597Y012190D03*
X031567Y012180D03*
X031457Y012140D03*
X031447Y011620D03*
X031477Y011610D03*
X031507Y011600D03*
X031537Y011590D03*
X031567Y011580D03*
X031597Y011570D03*
X031627Y011560D03*
X031657Y011550D03*
X031857Y011480D03*
X031207Y010620D03*
X031177Y010630D03*
X031877Y010380D03*
D98*
X031857Y010390D03*
X031607Y010480D03*
X031577Y010490D03*
X031547Y010500D03*
X031517Y010510D03*
X031487Y010520D03*
X031467Y010530D03*
X031437Y010540D03*
X031407Y010550D03*
X031377Y010560D03*
D99*
X031777Y010420D03*
X031807Y010410D03*
X031177Y015240D03*
D100*
X031157Y015250D03*
X031097Y012010D03*
X031087Y011750D03*
X031917Y011220D03*
X031097Y010930D03*
X031087Y010670D03*
D101*
X030917Y010830D03*
X032087Y011320D03*
X032087Y011350D03*
X030917Y011910D03*
X031037Y012730D03*
D102*
X031037Y012850D03*
X031017Y011970D03*
X031997Y011410D03*
D103*
X031962Y012340D03*
X031032Y012880D03*
X031032Y012890D03*
X031032Y012900D03*
X031362Y015660D03*
D104*
X032057Y012400D03*
D105*
X032072Y012410D03*
D106*
X032212Y012550D03*
X031762Y012730D03*
D107*
X031037Y012720D03*
D108*
X031312Y013500D03*
X031302Y013510D03*
X031242Y013610D03*
X031242Y015130D03*
D109*
X031247Y015120D03*
X031297Y014370D03*
X031297Y014150D03*
X031247Y013600D03*
X031257Y013590D03*
X031257Y013580D03*
X031287Y013530D03*
X031297Y013520D03*
D110*
X031282Y013540D03*
X031272Y013550D03*
X031272Y013560D03*
X031262Y013570D03*
X031332Y014980D03*
X031252Y015110D03*
D111*
X031237Y015140D03*
X031347Y014970D03*
X031297Y014140D03*
X031237Y013620D03*
X031287Y016830D03*
D112*
X031292Y014380D03*
X031232Y013630D03*
D113*
X031227Y013640D03*
X031237Y015150D03*
D114*
X031232Y015160D03*
X031222Y013650D03*
D115*
X031217Y013660D03*
X031297Y014130D03*
X031297Y014390D03*
D116*
X031217Y013670D03*
X031307Y016840D03*
D117*
X031222Y015180D03*
X031212Y013680D03*
D118*
X031192Y013710D03*
X031362Y015820D03*
X031362Y015830D03*
D119*
X031187Y013720D03*
D120*
X031172Y013740D03*
X031182Y015230D03*
X031362Y015750D03*
D121*
X031257Y015100D03*
X031317Y014990D03*
X031297Y014360D03*
X031297Y014160D03*
D122*
X031297Y014170D03*
X031297Y014350D03*
X031307Y015010D03*
X031297Y015020D03*
X031287Y015040D03*
X031277Y015060D03*
X031267Y015080D03*
X031277Y016820D03*
D123*
X031297Y014330D03*
X031297Y014190D03*
X031297Y014180D03*
D124*
X031297Y014200D03*
X031297Y014210D03*
X031297Y014220D03*
X031297Y014300D03*
X031297Y014310D03*
X031297Y014320D03*
X031267Y016810D03*
D125*
X031297Y014290D03*
X031297Y014280D03*
X031297Y014270D03*
X031297Y014260D03*
X031297Y014250D03*
X031297Y014240D03*
X031297Y014230D03*
D126*
X031292Y014340D03*
X031292Y015030D03*
X031282Y015050D03*
D127*
X031272Y015070D03*
X031262Y015090D03*
X031312Y015000D03*
D128*
X031222Y015170D03*
D129*
X031197Y015220D03*
D130*
X030502Y015610D03*
D131*
X031362Y015740D03*
D132*
X031112Y016580D03*
X031192Y016690D03*
D133*
X031172Y016660D03*
X031162Y016640D03*
X031142Y016610D03*
X031132Y016600D03*
X031122Y016590D03*
D134*
X031147Y016620D03*
X031157Y016630D03*
X031167Y016650D03*
D135*
X031177Y016670D03*
X031187Y016680D03*
D136*
X031197Y016700D03*
D137*
X031202Y016710D03*
D138*
X031207Y016720D03*
D139*
X031212Y016730D03*
D140*
X031222Y016740D03*
D141*
X031222Y016750D03*
D142*
X031232Y016760D03*
D143*
X031237Y016770D03*
D144*
X031242Y016780D03*
D145*
X031247Y016790D03*
D146*
X031262Y016800D03*
D147*
X013837Y018540D02*
X013027Y018540D01*
X013027Y014540D01*
X013837Y014540D01*
X013837Y013040D02*
X013027Y013040D01*
X013027Y009040D01*
X013837Y009040D01*
X013837Y007540D02*
X013027Y007540D01*
X013027Y003540D01*
X013837Y003540D01*
X004699Y004874D02*
X004701Y004901D01*
X004707Y004928D01*
X004716Y004954D01*
X004729Y004978D01*
X004745Y005001D01*
X004764Y005020D01*
X004786Y005037D01*
X004810Y005051D01*
X004835Y005061D01*
X004862Y005068D01*
X004889Y005071D01*
X004917Y005070D01*
X004944Y005065D01*
X004970Y005057D01*
X004994Y005045D01*
X005017Y005029D01*
X005038Y005011D01*
X005055Y004990D01*
X005070Y004966D01*
X005081Y004941D01*
X005089Y004915D01*
X005093Y004888D01*
X005093Y004860D01*
X005089Y004833D01*
X005081Y004807D01*
X005070Y004782D01*
X005055Y004758D01*
X005038Y004737D01*
X005017Y004719D01*
X004995Y004703D01*
X004970Y004691D01*
X004944Y004683D01*
X004917Y004678D01*
X004889Y004677D01*
X004862Y004680D01*
X004835Y004687D01*
X004810Y004697D01*
X004786Y004711D01*
X004764Y004728D01*
X004745Y004747D01*
X004729Y004770D01*
X004716Y004794D01*
X004707Y004820D01*
X004701Y004847D01*
X004699Y004874D01*
D148*
X003604Y005040D03*
X003369Y005040D03*
X003104Y005040D03*
X002869Y005040D03*
X002869Y005915D03*
X003104Y005915D03*
X003369Y005915D03*
X003604Y005915D03*
X003604Y006790D03*
X003369Y006790D03*
X003104Y006790D03*
X002869Y006790D03*
X007369Y007040D03*
X007604Y007040D03*
X007604Y008040D03*
X007369Y008040D03*
X009869Y009790D03*
X010104Y009790D03*
X007604Y006040D03*
X007369Y006040D03*
X007369Y005040D03*
X007604Y005040D03*
X009869Y004290D03*
X010104Y004290D03*
X003604Y004040D03*
X003369Y004040D03*
X003104Y004040D03*
X002869Y004040D03*
X002869Y011040D03*
X003104Y011040D03*
X003104Y012040D03*
X002869Y012040D03*
X003619Y013540D03*
X003854Y013540D03*
X004119Y013540D03*
X004354Y013540D03*
X004619Y013540D03*
X004854Y013540D03*
X005119Y013540D03*
X005354Y013540D03*
X009869Y015290D03*
X010104Y015290D03*
X005354Y017540D03*
X005119Y017540D03*
X004854Y017540D03*
X004619Y017540D03*
X004354Y017540D03*
X004119Y017540D03*
X003854Y017540D03*
X003619Y017540D03*
D149*
X012231Y015894D02*
X012231Y015343D01*
X012743Y015343D01*
X012743Y015894D01*
X012743Y015343D02*
X012743Y015185D01*
X012231Y015185D02*
X012231Y015343D01*
X017107Y014301D02*
X018367Y014301D01*
X018748Y015035D02*
X018748Y016295D01*
X018748Y016785D02*
X018748Y018045D01*
X017725Y018045D02*
X017725Y016785D01*
X017725Y016295D02*
X017725Y015035D01*
X017107Y013278D02*
X018367Y013278D01*
X018748Y012545D02*
X018748Y011285D01*
X018748Y010795D02*
X018748Y009535D01*
X018367Y008801D02*
X017107Y008801D01*
X017725Y009535D02*
X017725Y010795D01*
X017725Y011285D02*
X017725Y012545D01*
X012743Y010394D02*
X012743Y009843D01*
X012231Y009843D01*
X012231Y010394D01*
X012231Y009843D02*
X012231Y009685D01*
X012743Y009685D02*
X012743Y009843D01*
X017107Y007778D02*
X018367Y007778D01*
X018748Y007045D02*
X018748Y005785D01*
X018748Y005295D02*
X018748Y004035D01*
X017725Y004035D02*
X017725Y005295D01*
X017725Y005785D02*
X017725Y007045D01*
X012743Y004894D02*
X012743Y004343D01*
X012231Y004343D01*
X012231Y004894D01*
X012231Y004343D02*
X012231Y004185D01*
X012743Y004185D02*
X012743Y004343D01*
X008058Y003445D02*
X007880Y003445D01*
X008058Y003445D02*
X008058Y001634D01*
X007880Y001634D01*
X007093Y001634D02*
X006916Y001634D01*
X006916Y003445D01*
X007093Y003445D01*
X007093Y002933D02*
X007880Y002933D01*
D150*
X009487Y002907D03*
X009487Y002672D03*
X006487Y003797D03*
X006487Y004032D03*
X005487Y004032D03*
X005487Y003797D03*
X004487Y003797D03*
X004487Y004032D03*
X003237Y003407D03*
X003237Y003172D03*
X009487Y008172D03*
X009487Y008407D03*
X004487Y010172D03*
X004487Y010407D03*
X002487Y013172D03*
X002487Y013407D03*
X002487Y013672D03*
X002487Y013907D03*
X002487Y014172D03*
X002487Y014407D03*
X002487Y014672D03*
X002487Y014907D03*
X002487Y015172D03*
X002487Y015407D03*
X002487Y015672D03*
X002487Y015907D03*
X002487Y016172D03*
X002487Y016407D03*
X002487Y016672D03*
X002487Y016907D03*
X002487Y017172D03*
X002487Y017407D03*
X002487Y017672D03*
X002487Y017907D03*
X009487Y013907D03*
X009487Y013672D03*
D151*
X005477Y014720D02*
X003497Y014720D01*
X003497Y016360D01*
X005477Y016360D01*
X005477Y014720D01*
X003667Y016020D02*
X003669Y016046D01*
X003675Y016072D01*
X003684Y016096D01*
X003697Y016119D01*
X003713Y016140D01*
X003732Y016158D01*
X003753Y016174D01*
X003777Y016186D01*
X003801Y016194D01*
X003827Y016199D01*
X003854Y016200D01*
X003880Y016197D01*
X003905Y016190D01*
X003929Y016180D01*
X003952Y016166D01*
X003972Y016150D01*
X003989Y016130D01*
X004004Y016108D01*
X004015Y016084D01*
X004023Y016059D01*
X004027Y016033D01*
X004027Y016007D01*
X004023Y015981D01*
X004015Y015956D01*
X004004Y015932D01*
X003989Y015910D01*
X003972Y015890D01*
X003952Y015874D01*
X003929Y015860D01*
X003905Y015850D01*
X003880Y015843D01*
X003854Y015840D01*
X003827Y015841D01*
X003801Y015846D01*
X003777Y015854D01*
X003753Y015866D01*
X003732Y015882D01*
X003713Y015900D01*
X003697Y015921D01*
X003684Y015944D01*
X003675Y015968D01*
X003669Y015994D01*
X003667Y016020D01*
X002537Y005640D02*
X001937Y005640D01*
X001920Y005638D01*
X001903Y005634D01*
X001887Y005627D01*
X001873Y005617D01*
X001860Y005604D01*
X001850Y005590D01*
X001843Y005574D01*
X001839Y005557D01*
X001837Y005540D01*
X001837Y004540D01*
X001839Y004523D01*
X001843Y004506D01*
X001850Y004490D01*
X001860Y004476D01*
X001873Y004463D01*
X001887Y004453D01*
X001903Y004446D01*
X001920Y004442D01*
X001937Y004440D01*
X002537Y004440D01*
X002554Y004442D01*
X002571Y004446D01*
X002587Y004453D01*
X002601Y004463D01*
X002614Y004476D01*
X002624Y004490D01*
X002631Y004506D01*
X002635Y004523D01*
X002637Y004540D01*
X002637Y005540D01*
X002635Y005557D01*
X002631Y005574D01*
X002624Y005590D01*
X002614Y005604D01*
X002601Y005617D01*
X002587Y005627D01*
X002571Y005634D01*
X002554Y005638D01*
X002537Y005640D01*
D152*
X003237Y002746D03*
X003237Y002334D03*
D153*
X005781Y011540D03*
X006193Y011540D03*
D154*
X005387Y014810D02*
X003587Y014810D01*
X003587Y016270D01*
X005387Y016270D01*
X005387Y014810D01*
M02*
