%
M48
M72
T01C0.0130
T02C0.0170
T03C0.0400
T04C0.0900
%
T01
X3237Y2540
X6487Y4540
X5737Y5040
X4487Y6154
X2637Y6790
X2687Y5040
X7862Y6540
X8237Y6540
X8487Y6790
X8737Y6540
X8987Y6290
X9237Y6540
X9487Y6290
X9737Y6540
X9987Y6790
X10237Y7040
X9987Y7290
X10237Y7540
X10487Y7790
X10737Y8040
X10987Y7790
X11237Y8040
X11487Y7790
X11737Y8040
X11987Y7790
X12237Y8040
X12487Y7790
X12737Y8040
X12987Y7790
X13237Y8040
X13487Y7790
X13737Y8040
X13737Y7540
X13487Y7290
X13237Y7540
X12987Y7290
X12737Y7540
X12487Y7290
X12237Y7540
X11987Y7290
X11737Y7540
X11237Y7540
X10737Y7540
X9987Y7790
X10487Y8790
X10737Y9040
X10987Y8790
X11237Y9040
X11487Y8790
X11737Y9040
X11987Y9290
X12237Y9040
X12487Y8790
X12737Y9040
X12987Y9290
X13237Y9540
X13487Y9790
X13737Y9540
X13487Y9290
X13737Y9040
X13487Y8790
X13237Y9040
X12987Y8790
X11987Y8790
X12987Y9790
X13237Y10040
X13487Y10290
X13737Y10540
X13487Y10790
X13737Y11040
X13487Y11290
X13737Y11540
X13487Y11790
X13737Y12040
X13487Y12290
X13737Y12540
X13487Y12790
X13737Y13040
X13487Y13290
X13737Y13540
X13237Y13540
X12987Y13290
X12737Y13540
X12487Y13290
X12237Y13540
X11987Y13290
X11737Y13540
X11487Y13290
X11237Y13540
X10987Y13290
X10737Y13540
X10737Y13040
X11237Y13040
X11737Y13040
X11987Y12790
X12237Y13040
X12487Y12790
X12737Y13040
X12987Y12790
X13237Y13040
X13237Y12540
X12987Y12290
X12737Y12540
X12487Y12290
X12237Y12540
X11987Y12290
X12237Y12040
X12487Y11790
X12737Y12040
X12987Y11790
X13237Y12040
X13237Y11540
X12987Y11290
X12737Y11540
X12487Y11290
X12237Y11540
X11987Y11790
X11987Y11290
X12237Y11040
X11987Y10790
X11737Y11040
X11237Y11040
X10737Y11040
X9987Y10790
X10237Y10540
X9737Y10540
X9487Y10790
X9237Y10540
X8987Y10790
X8487Y9790
X8737Y9540
X8987Y9290
X9237Y9040
X9487Y9290
X9737Y9040
X9487Y8790
X8987Y8790
X8737Y9040
X8487Y9290
X8237Y9540
X8237Y9040
X8487Y8790
X7237Y8790
X7987Y7790
X10237Y9040
X12237Y10040
X11987Y10290
X12737Y10040
X12987Y10290
X13237Y10540
X12987Y10790
X13237Y11040
X12737Y11040
X13737Y10040
X16987Y8290
X17237Y8540
X17237Y8040
X18237Y8040
X18487Y8290
X18237Y8540
X18237Y9415
X18487Y9665
X17987Y9665
X17987Y10790
X18237Y11040
X18487Y11290
X17987Y11290
X18487Y10790
X18487Y12415
X17987Y12415
X18237Y12665
X18237Y13540
X18487Y13790
X18237Y14040
X17237Y14040
X16987Y13790
X17237Y13540
X18237Y14915
X18487Y15165
X17987Y15165
X17987Y16290
X18237Y16540
X18487Y16790
X17987Y16790
X18487Y16290
X18487Y17915
X17987Y17915
X18237Y18165
X18487Y19040
X18737Y19290
X18487Y19540
X18737Y19790
X18487Y20040
X18737Y20290
X18237Y20290
X17987Y20040
X17737Y20290
X17487Y20040
X17237Y20290
X16987Y20040
X16737Y20290
X16487Y20040
X16237Y20290
X15987Y20040
X15737Y20290
X15737Y19790
X15987Y19540
X16237Y19790
X16487Y19540
X16737Y19790
X16987Y19540
X17237Y19790
X17487Y19540
X17737Y19790
X17987Y19540
X18237Y19790
X18237Y19290
X17987Y19040
X17737Y19290
X17487Y19040
X17237Y19290
X16987Y19040
X16737Y19290
X16487Y19040
X16237Y19290
X15987Y19040
X15737Y19290
X14487Y19540
X14237Y19790
X14487Y20040
X14237Y20290
X13737Y20290
X13487Y20040
X13737Y19790
X13487Y19540
X13737Y19290
X13487Y19040
X13737Y18540
X13487Y18290
X13237Y18540
X12987Y18290
X12737Y18540
X12487Y18290
X12237Y18540
X11987Y18290
X11737Y18540
X11237Y18540
X10737Y18540
X10987Y19040
X11237Y19290
X11487Y19540
X11737Y19790
X11987Y20040
X12237Y20290
X11737Y20290
X11487Y20040
X11237Y20290
X10987Y20040
X10737Y20290
X10487Y20040
X10237Y20290
X9987Y20040
X9737Y20290
X9487Y20040
X9237Y20290
X9237Y19790
X9487Y19540
X9737Y19790
X9987Y19540
X10237Y19790
X10487Y19540
X10737Y19790
X10987Y19540
X11237Y19790
X11987Y19540
X12237Y19790
X12237Y19290
X11987Y19040
X11737Y19290
X11487Y19040
X10737Y19290
X10487Y19040
X10237Y19290
X9987Y19040
X9737Y19290
X9487Y19040
X9237Y19290
X7487Y20040
X6487Y20040
X5487Y20040
X4487Y20040
X3487Y20040
X3237Y17790
X3237Y16290
X4237Y16040
X4237Y15040
X5737Y14290
X6737Y14040
X7237Y14290
X7737Y14540
X7987Y14790
X8237Y15040
X8487Y14790
X8737Y15040
X8987Y14790
X9237Y14540
X9487Y14790
X9737Y14540
X10237Y14540
X10487Y14290
X10737Y14540
X10987Y14290
X11237Y14540
X11487Y14290
X11737Y14540
X11987Y14790
X12237Y14540
X12487Y14290
X12737Y14540
X12987Y14790
X13237Y15040
X13487Y14790
X13737Y15040
X13487Y15290
X13737Y15540
X13487Y15790
X13737Y16040
X13487Y16290
X13737Y16540
X13487Y16790
X13737Y17040
X13487Y17290
X13737Y17540
X13487Y17790
X13737Y18040
X13237Y18040
X12987Y17790
X12737Y18040
X12487Y17790
X12237Y18040
X11987Y17790
X12237Y17540
X12487Y17290
X12737Y17540
X12987Y17290
X13237Y17540
X13237Y17040
X12987Y16790
X12737Y17040
X12487Y16790
X12237Y17040
X11987Y17290
X11987Y16790
X12237Y16540
X11987Y16290
X11737Y16540
X11237Y16540
X10737Y16540
X10237Y16290
X9987Y16040
X9737Y16290
X9487Y16040
X9237Y16290
X8987Y16040
X8487Y15290
X7987Y15290
X7487Y15290
X7737Y15040
X7487Y14790
X8237Y14540
X8487Y14290
X8737Y14540
X7987Y14290
X7737Y13790
X7487Y13540
X6987Y13540
X7237Y12790
X5737Y12540
X4362Y11540
X4427Y10825
X3537Y9955
X2737Y9040
X3737Y8790
X4987Y9040
X5487Y9040
X5937Y9960
X6477Y9960
X1987Y11040
X2487Y12790
X3237Y13040
X11987Y14290
X12987Y14290
X13237Y14540
X13487Y14290
X13737Y14540
X12987Y15290
X13237Y15540
X12987Y15790
X13237Y16040
X12987Y16290
X13237Y16540
X12737Y16540
X11987Y15790
X12237Y15540
X12737Y15540
X14487Y19040
X14237Y19290
X24487Y11540
X22487Y10790
X22487Y9540
X22487Y9165
X22487Y8790
X24826Y8040
X25137Y7790
X26862Y8790
X27012Y7790
X29262Y7790
X30807Y8040
X32737Y8790
X33585Y8790
X33987Y8790
X33737Y7840
X34487Y7190
X34487Y6840
X34487Y6440
X34737Y6165
X35237Y6040
X35237Y6415
X36487Y6290
X36487Y5915
X36487Y5165
X36112Y4415
X35887Y4040
X35237Y4360
X35237Y4915
X34612Y5290
X34237Y5290
X33737Y6040
X32937Y6540
X32404Y6290
X32662Y6040
X32112Y5665
X31862Y5365
X30487Y6290
X28487Y5040
X27487Y5540
X26073Y5540
X25112Y5040
X22987Y5040
X22737Y7290
X18487Y6915
X18237Y7165
X17987Y6915
X17987Y5790
X18237Y5540
X18487Y5790
X18487Y5290
X17987Y5290
X17987Y4165
X18237Y3915
X18487Y4165
X17487Y2040
X16487Y2040
X15487Y2040
X14487Y2040
X13487Y2040
X13487Y3290
X13737Y3540
X13487Y3790
X13737Y4040
X13487Y4290
X13237Y4040
X12987Y4290
X13237Y4540
X13487Y4790
X13737Y5040
X13487Y5290
X13737Y5540
X13487Y5790
X13737Y6040
X13487Y6290
X13737Y6540
X13487Y6790
X13737Y7040
X13237Y7040
X12987Y6790
X12737Y7040
X12487Y6790
X12237Y7040
X11987Y6790
X12237Y6540
X12487Y6290
X12737Y6540
X12987Y6290
X13237Y6540
X13237Y6040
X12987Y5790
X12737Y6040
X12487Y5790
X12237Y6040
X11987Y6290
X11987Y5790
X12237Y5540
X11987Y5290
X11737Y5540
X11237Y5540
X10737Y5540
X10237Y5540
X9987Y5790
X10237Y6040
X9987Y6290
X10237Y6540
X9737Y6040
X9487Y5790
X9237Y6040
X8987Y5790
X8737Y6040
X8487Y6290
X8487Y5790
X8737Y5540
X8987Y5290
X9237Y5540
X9487Y5290
X9737Y5540
X9987Y5290
X10237Y5040
X9737Y5040
X9487Y4790
X9237Y5040
X8987Y4790
X8737Y5040
X8487Y5290
X8487Y4790
X8737Y4540
X9237Y4540
X9487Y4290
X9237Y4040
X8987Y4290
X8737Y4040
X8487Y4290
X8487Y3790
X8737Y3540
X8987Y3790
X9237Y3540
X9487Y3790
X9737Y3540
X9487Y3290
X8987Y3290
X8487Y3290
X8487Y2540
X10237Y3540
X10487Y3290
X10737Y3540
X10987Y3290
X11237Y3540
X11487Y3290
X11737Y3540
X11987Y3790
X12237Y3540
X12487Y3290
X12737Y3540
X12987Y3790
X13237Y3540
X12987Y3290
X11987Y3290
X12237Y4540
X11987Y4790
X12737Y4540
X12987Y4790
X13237Y5040
X12987Y5290
X13237Y5540
X12737Y5540
X13737Y4540
X28862Y9915
X31487Y9540
X32737Y10165
X33362Y10665
X33612Y10415
X34362Y10665
X34612Y10415
X34862Y10165
X34612Y9915
X35387Y9440
X35737Y8790
X36237Y8665
X36862Y8915
X37112Y10165
X39237Y10790
X40237Y12040
X36987Y12540
X34487Y13040
X32612Y13040
X32737Y12165
X33549Y10990
X29487Y11540
X28862Y12040
X28862Y13540
X30487Y16040
X34237Y15540
X34487Y15790
X35487Y16540
X34737Y16790
X34487Y17040
X35987Y15540
X38987Y15540
X38487Y19040
X38987Y7540
X37387Y6540
X36887Y7340
X37487Y5540
X37362Y5040
X38487Y5540
X39487Y5040
X33487Y4040
X32537Y3610
X32037Y3540
X32087Y3140
X31717Y3290
X31487Y4290
X33487Y2540
T02
X21112Y10665
X21112Y10915
X21112Y11165
X21112Y11415
X20362Y11415
X20362Y11165
X20362Y10915
X20362Y10665
T03
X19487Y10540
X19487Y11540
X19487Y12540
X19487Y13540
X19487Y14540
X19487Y15540
X19487Y16540
X19487Y17540
X19487Y18540
X21987Y18540
X21987Y17540
X21987Y16540
X21987Y15540
X21987Y14540
X21987Y13540
X21987Y12540
X21987Y11540
X21987Y10540
X21987Y9540
X21987Y8540
X21987Y7540
X21987Y6540
X21987Y5540
X21987Y4540
X21987Y3540
X19487Y3540
X19487Y4540
X19487Y5540
X19487Y6540
X19487Y7540
X19487Y8540
X19487Y9540
X29487Y2040
X30487Y2040
X31487Y2040
X32487Y2040
X33487Y2040
X34487Y2040
X35487Y2040
X36487Y2040
X37487Y2040
X38487Y2040
X39987Y3540
X39987Y4540
X39987Y5540
X39987Y6540
X39987Y7540
X39987Y8540
X39987Y9540
X39987Y10540
X39987Y11540
X39987Y12540
X39987Y13540
X39987Y14540
X39987Y15540
X39987Y16540
X38987Y16540
X37987Y16540
X37987Y17540
X38987Y17540
X39987Y17540
X39987Y18540
X38987Y18540
X37987Y18540
X38487Y20040
X37487Y20040
X36487Y20040
X35487Y20040
X37987Y15540
X37987Y14540
X37987Y13540
X37987Y12540
X34987Y12040
X34987Y11040
X1487Y11540
X1487Y12540
X1487Y13540
X1487Y14540
X1487Y15540
X1487Y16540
X1487Y17540
X1487Y18540
X1487Y10540
X1487Y9540
X1487Y8540
X1487Y7540
X1487Y6540
X1487Y5540
X1487Y4540
X1487Y3540
T04
X1487Y2040
X9237Y7290
X8737Y13040
X8237Y18040
X1487Y20040
X19487Y20040
X21987Y20040
X39987Y20040
X39987Y2040
X21987Y2040
X19487Y2040
M30
