G75*
G70*
%OFA0B0*%
%FSLAX24Y24*%
%IPPOS*%
%LPD*%
%AMOC8*
5,1,8,0,0,1.08239X$1,22.5*
%
%ADD10C,0.0000*%
D10*
X001487Y001290D02*
X019487Y001290D01*
X019037Y002040D02*
X019039Y002082D01*
X019045Y002124D01*
X019055Y002165D01*
X019068Y002205D01*
X019086Y002243D01*
X019106Y002280D01*
X019131Y002315D01*
X019158Y002347D01*
X019188Y002376D01*
X019221Y002403D01*
X019256Y002426D01*
X019293Y002446D01*
X019332Y002462D01*
X019372Y002475D01*
X019413Y002484D01*
X019455Y002489D01*
X019498Y002490D01*
X019540Y002487D01*
X019581Y002480D01*
X019622Y002469D01*
X019662Y002455D01*
X019700Y002437D01*
X019736Y002415D01*
X019770Y002390D01*
X019801Y002362D01*
X019830Y002331D01*
X019856Y002298D01*
X019878Y002262D01*
X019898Y002224D01*
X019913Y002185D01*
X019925Y002145D01*
X019933Y002103D01*
X019937Y002061D01*
X019937Y002019D01*
X019933Y001977D01*
X019925Y001935D01*
X019913Y001895D01*
X019898Y001856D01*
X019878Y001818D01*
X019856Y001782D01*
X019830Y001749D01*
X019801Y001718D01*
X019770Y001690D01*
X019736Y001665D01*
X019700Y001643D01*
X019662Y001625D01*
X019622Y001611D01*
X019581Y001600D01*
X019540Y001593D01*
X019498Y001590D01*
X019455Y001591D01*
X019413Y001596D01*
X019372Y001605D01*
X019332Y001618D01*
X019293Y001634D01*
X019256Y001654D01*
X019221Y001677D01*
X019188Y001704D01*
X019158Y001733D01*
X019131Y001765D01*
X019106Y001800D01*
X019086Y001837D01*
X019068Y001875D01*
X019055Y001915D01*
X019045Y001956D01*
X019039Y001998D01*
X019037Y002040D01*
X019487Y001290D02*
X019541Y001292D01*
X019594Y001298D01*
X019646Y001307D01*
X019698Y001320D01*
X019749Y001337D01*
X019799Y001358D01*
X019846Y001382D01*
X019892Y001409D01*
X019936Y001440D01*
X019978Y001473D01*
X020017Y001510D01*
X020054Y001549D01*
X020087Y001591D01*
X020118Y001635D01*
X020145Y001681D01*
X020169Y001728D01*
X020190Y001778D01*
X020207Y001829D01*
X020220Y001881D01*
X020229Y001933D01*
X020235Y001986D01*
X020237Y002040D01*
X020237Y010540D01*
X021237Y010540D01*
X021237Y002040D01*
X021239Y001986D01*
X021245Y001933D01*
X021254Y001881D01*
X021267Y001829D01*
X021284Y001778D01*
X021305Y001728D01*
X021329Y001681D01*
X021356Y001635D01*
X021387Y001591D01*
X021420Y001549D01*
X021457Y001510D01*
X021496Y001473D01*
X021538Y001440D01*
X021582Y001409D01*
X021628Y001382D01*
X021675Y001358D01*
X021725Y001337D01*
X021776Y001320D01*
X021828Y001307D01*
X021880Y001298D01*
X021933Y001292D01*
X021987Y001290D01*
X039987Y001290D01*
X040041Y001292D01*
X040094Y001298D01*
X040146Y001307D01*
X040198Y001320D01*
X040249Y001337D01*
X040299Y001358D01*
X040346Y001382D01*
X040392Y001409D01*
X040436Y001440D01*
X040478Y001473D01*
X040517Y001510D01*
X040554Y001549D01*
X040587Y001591D01*
X040618Y001635D01*
X040645Y001681D01*
X040669Y001728D01*
X040690Y001778D01*
X040707Y001829D01*
X040720Y001881D01*
X040729Y001933D01*
X040735Y001986D01*
X040737Y002040D01*
X040737Y020040D01*
X040735Y020094D01*
X040729Y020147D01*
X040720Y020199D01*
X040707Y020251D01*
X040690Y020302D01*
X040669Y020352D01*
X040645Y020399D01*
X040618Y020445D01*
X040587Y020489D01*
X040554Y020531D01*
X040517Y020570D01*
X040478Y020607D01*
X040436Y020640D01*
X040392Y020671D01*
X040346Y020698D01*
X040299Y020722D01*
X040249Y020743D01*
X040198Y020760D01*
X040146Y020773D01*
X040094Y020782D01*
X040041Y020788D01*
X039987Y020790D01*
X021987Y020790D01*
X021933Y020788D01*
X021880Y020782D01*
X021828Y020773D01*
X021776Y020760D01*
X021725Y020743D01*
X021675Y020722D01*
X021628Y020698D01*
X021582Y020671D01*
X021538Y020640D01*
X021496Y020607D01*
X021457Y020570D01*
X021420Y020531D01*
X021387Y020489D01*
X021356Y020445D01*
X021329Y020399D01*
X021305Y020352D01*
X021284Y020302D01*
X021267Y020251D01*
X021254Y020199D01*
X021245Y020147D01*
X021239Y020094D01*
X021237Y020040D01*
X021237Y011540D01*
X020237Y011540D01*
X020237Y020040D01*
X019037Y020040D02*
X019039Y020082D01*
X019045Y020124D01*
X019055Y020165D01*
X019068Y020205D01*
X019086Y020243D01*
X019106Y020280D01*
X019131Y020315D01*
X019158Y020347D01*
X019188Y020376D01*
X019221Y020403D01*
X019256Y020426D01*
X019293Y020446D01*
X019332Y020462D01*
X019372Y020475D01*
X019413Y020484D01*
X019455Y020489D01*
X019498Y020490D01*
X019540Y020487D01*
X019581Y020480D01*
X019622Y020469D01*
X019662Y020455D01*
X019700Y020437D01*
X019736Y020415D01*
X019770Y020390D01*
X019801Y020362D01*
X019830Y020331D01*
X019856Y020298D01*
X019878Y020262D01*
X019898Y020224D01*
X019913Y020185D01*
X019925Y020145D01*
X019933Y020103D01*
X019937Y020061D01*
X019937Y020019D01*
X019933Y019977D01*
X019925Y019935D01*
X019913Y019895D01*
X019898Y019856D01*
X019878Y019818D01*
X019856Y019782D01*
X019830Y019749D01*
X019801Y019718D01*
X019770Y019690D01*
X019736Y019665D01*
X019700Y019643D01*
X019662Y019625D01*
X019622Y019611D01*
X019581Y019600D01*
X019540Y019593D01*
X019498Y019590D01*
X019455Y019591D01*
X019413Y019596D01*
X019372Y019605D01*
X019332Y019618D01*
X019293Y019634D01*
X019256Y019654D01*
X019221Y019677D01*
X019188Y019704D01*
X019158Y019733D01*
X019131Y019765D01*
X019106Y019800D01*
X019086Y019837D01*
X019068Y019875D01*
X019055Y019915D01*
X019045Y019956D01*
X019039Y019998D01*
X019037Y020040D01*
X019487Y020790D02*
X019541Y020788D01*
X019594Y020782D01*
X019646Y020773D01*
X019698Y020760D01*
X019749Y020743D01*
X019799Y020722D01*
X019846Y020698D01*
X019892Y020671D01*
X019936Y020640D01*
X019978Y020607D01*
X020017Y020570D01*
X020054Y020531D01*
X020087Y020489D01*
X020118Y020445D01*
X020145Y020399D01*
X020169Y020352D01*
X020190Y020302D01*
X020207Y020251D01*
X020220Y020199D01*
X020229Y020147D01*
X020235Y020094D01*
X020237Y020040D01*
X019487Y020790D02*
X001487Y020790D01*
X001037Y020040D02*
X001039Y020082D01*
X001045Y020124D01*
X001055Y020165D01*
X001068Y020205D01*
X001086Y020243D01*
X001106Y020280D01*
X001131Y020315D01*
X001158Y020347D01*
X001188Y020376D01*
X001221Y020403D01*
X001256Y020426D01*
X001293Y020446D01*
X001332Y020462D01*
X001372Y020475D01*
X001413Y020484D01*
X001455Y020489D01*
X001498Y020490D01*
X001540Y020487D01*
X001581Y020480D01*
X001622Y020469D01*
X001662Y020455D01*
X001700Y020437D01*
X001736Y020415D01*
X001770Y020390D01*
X001801Y020362D01*
X001830Y020331D01*
X001856Y020298D01*
X001878Y020262D01*
X001898Y020224D01*
X001913Y020185D01*
X001925Y020145D01*
X001933Y020103D01*
X001937Y020061D01*
X001937Y020019D01*
X001933Y019977D01*
X001925Y019935D01*
X001913Y019895D01*
X001898Y019856D01*
X001878Y019818D01*
X001856Y019782D01*
X001830Y019749D01*
X001801Y019718D01*
X001770Y019690D01*
X001736Y019665D01*
X001700Y019643D01*
X001662Y019625D01*
X001622Y019611D01*
X001581Y019600D01*
X001540Y019593D01*
X001498Y019590D01*
X001455Y019591D01*
X001413Y019596D01*
X001372Y019605D01*
X001332Y019618D01*
X001293Y019634D01*
X001256Y019654D01*
X001221Y019677D01*
X001188Y019704D01*
X001158Y019733D01*
X001131Y019765D01*
X001106Y019800D01*
X001086Y019837D01*
X001068Y019875D01*
X001055Y019915D01*
X001045Y019956D01*
X001039Y019998D01*
X001037Y020040D01*
X000737Y020040D02*
X000737Y002040D01*
X001037Y002040D02*
X001039Y002082D01*
X001045Y002124D01*
X001055Y002165D01*
X001068Y002205D01*
X001086Y002243D01*
X001106Y002280D01*
X001131Y002315D01*
X001158Y002347D01*
X001188Y002376D01*
X001221Y002403D01*
X001256Y002426D01*
X001293Y002446D01*
X001332Y002462D01*
X001372Y002475D01*
X001413Y002484D01*
X001455Y002489D01*
X001498Y002490D01*
X001540Y002487D01*
X001581Y002480D01*
X001622Y002469D01*
X001662Y002455D01*
X001700Y002437D01*
X001736Y002415D01*
X001770Y002390D01*
X001801Y002362D01*
X001830Y002331D01*
X001856Y002298D01*
X001878Y002262D01*
X001898Y002224D01*
X001913Y002185D01*
X001925Y002145D01*
X001933Y002103D01*
X001937Y002061D01*
X001937Y002019D01*
X001933Y001977D01*
X001925Y001935D01*
X001913Y001895D01*
X001898Y001856D01*
X001878Y001818D01*
X001856Y001782D01*
X001830Y001749D01*
X001801Y001718D01*
X001770Y001690D01*
X001736Y001665D01*
X001700Y001643D01*
X001662Y001625D01*
X001622Y001611D01*
X001581Y001600D01*
X001540Y001593D01*
X001498Y001590D01*
X001455Y001591D01*
X001413Y001596D01*
X001372Y001605D01*
X001332Y001618D01*
X001293Y001634D01*
X001256Y001654D01*
X001221Y001677D01*
X001188Y001704D01*
X001158Y001733D01*
X001131Y001765D01*
X001106Y001800D01*
X001086Y001837D01*
X001068Y001875D01*
X001055Y001915D01*
X001045Y001956D01*
X001039Y001998D01*
X001037Y002040D01*
X000737Y002040D02*
X000739Y001986D01*
X000745Y001933D01*
X000754Y001881D01*
X000767Y001829D01*
X000784Y001778D01*
X000805Y001728D01*
X000829Y001681D01*
X000856Y001635D01*
X000887Y001591D01*
X000920Y001549D01*
X000957Y001510D01*
X000996Y001473D01*
X001038Y001440D01*
X001082Y001409D01*
X001128Y001382D01*
X001175Y001358D01*
X001225Y001337D01*
X001276Y001320D01*
X001328Y001307D01*
X001380Y001298D01*
X001433Y001292D01*
X001487Y001290D01*
X020277Y010665D02*
X020279Y010683D01*
X020284Y010700D01*
X020293Y010715D01*
X020305Y010728D01*
X020319Y010739D01*
X020336Y010746D01*
X020353Y010750D01*
X020371Y010750D01*
X020388Y010746D01*
X020404Y010739D01*
X020419Y010728D01*
X020431Y010715D01*
X020440Y010700D01*
X020445Y010683D01*
X020447Y010665D01*
X020445Y010647D01*
X020440Y010630D01*
X020431Y010615D01*
X020419Y010602D01*
X020405Y010591D01*
X020388Y010584D01*
X020371Y010580D01*
X020353Y010580D01*
X020336Y010584D01*
X020320Y010591D01*
X020305Y010602D01*
X020293Y010615D01*
X020284Y010630D01*
X020279Y010647D01*
X020277Y010665D01*
X020277Y010915D02*
X020279Y010933D01*
X020284Y010950D01*
X020293Y010965D01*
X020305Y010978D01*
X020319Y010989D01*
X020336Y010996D01*
X020353Y011000D01*
X020371Y011000D01*
X020388Y010996D01*
X020404Y010989D01*
X020419Y010978D01*
X020431Y010965D01*
X020440Y010950D01*
X020445Y010933D01*
X020447Y010915D01*
X020445Y010897D01*
X020440Y010880D01*
X020431Y010865D01*
X020419Y010852D01*
X020405Y010841D01*
X020388Y010834D01*
X020371Y010830D01*
X020353Y010830D01*
X020336Y010834D01*
X020320Y010841D01*
X020305Y010852D01*
X020293Y010865D01*
X020284Y010880D01*
X020279Y010897D01*
X020277Y010915D01*
X020277Y011165D02*
X020279Y011183D01*
X020284Y011200D01*
X020293Y011215D01*
X020305Y011228D01*
X020319Y011239D01*
X020336Y011246D01*
X020353Y011250D01*
X020371Y011250D01*
X020388Y011246D01*
X020404Y011239D01*
X020419Y011228D01*
X020431Y011215D01*
X020440Y011200D01*
X020445Y011183D01*
X020447Y011165D01*
X020445Y011147D01*
X020440Y011130D01*
X020431Y011115D01*
X020419Y011102D01*
X020405Y011091D01*
X020388Y011084D01*
X020371Y011080D01*
X020353Y011080D01*
X020336Y011084D01*
X020320Y011091D01*
X020305Y011102D01*
X020293Y011115D01*
X020284Y011130D01*
X020279Y011147D01*
X020277Y011165D01*
X020277Y011415D02*
X020279Y011433D01*
X020284Y011450D01*
X020293Y011465D01*
X020305Y011478D01*
X020319Y011489D01*
X020336Y011496D01*
X020353Y011500D01*
X020371Y011500D01*
X020388Y011496D01*
X020404Y011489D01*
X020419Y011478D01*
X020431Y011465D01*
X020440Y011450D01*
X020445Y011433D01*
X020447Y011415D01*
X020445Y011397D01*
X020440Y011380D01*
X020431Y011365D01*
X020419Y011352D01*
X020405Y011341D01*
X020388Y011334D01*
X020371Y011330D01*
X020353Y011330D01*
X020336Y011334D01*
X020320Y011341D01*
X020305Y011352D01*
X020293Y011365D01*
X020284Y011380D01*
X020279Y011397D01*
X020277Y011415D01*
X021027Y011415D02*
X021029Y011433D01*
X021034Y011450D01*
X021043Y011465D01*
X021055Y011478D01*
X021069Y011489D01*
X021086Y011496D01*
X021103Y011500D01*
X021121Y011500D01*
X021138Y011496D01*
X021154Y011489D01*
X021169Y011478D01*
X021181Y011465D01*
X021190Y011450D01*
X021195Y011433D01*
X021197Y011415D01*
X021195Y011397D01*
X021190Y011380D01*
X021181Y011365D01*
X021169Y011352D01*
X021155Y011341D01*
X021138Y011334D01*
X021121Y011330D01*
X021103Y011330D01*
X021086Y011334D01*
X021070Y011341D01*
X021055Y011352D01*
X021043Y011365D01*
X021034Y011380D01*
X021029Y011397D01*
X021027Y011415D01*
X021027Y011165D02*
X021029Y011183D01*
X021034Y011200D01*
X021043Y011215D01*
X021055Y011228D01*
X021069Y011239D01*
X021086Y011246D01*
X021103Y011250D01*
X021121Y011250D01*
X021138Y011246D01*
X021154Y011239D01*
X021169Y011228D01*
X021181Y011215D01*
X021190Y011200D01*
X021195Y011183D01*
X021197Y011165D01*
X021195Y011147D01*
X021190Y011130D01*
X021181Y011115D01*
X021169Y011102D01*
X021155Y011091D01*
X021138Y011084D01*
X021121Y011080D01*
X021103Y011080D01*
X021086Y011084D01*
X021070Y011091D01*
X021055Y011102D01*
X021043Y011115D01*
X021034Y011130D01*
X021029Y011147D01*
X021027Y011165D01*
X021027Y010915D02*
X021029Y010933D01*
X021034Y010950D01*
X021043Y010965D01*
X021055Y010978D01*
X021069Y010989D01*
X021086Y010996D01*
X021103Y011000D01*
X021121Y011000D01*
X021138Y010996D01*
X021154Y010989D01*
X021169Y010978D01*
X021181Y010965D01*
X021190Y010950D01*
X021195Y010933D01*
X021197Y010915D01*
X021195Y010897D01*
X021190Y010880D01*
X021181Y010865D01*
X021169Y010852D01*
X021155Y010841D01*
X021138Y010834D01*
X021121Y010830D01*
X021103Y010830D01*
X021086Y010834D01*
X021070Y010841D01*
X021055Y010852D01*
X021043Y010865D01*
X021034Y010880D01*
X021029Y010897D01*
X021027Y010915D01*
X021027Y010665D02*
X021029Y010683D01*
X021034Y010700D01*
X021043Y010715D01*
X021055Y010728D01*
X021069Y010739D01*
X021086Y010746D01*
X021103Y010750D01*
X021121Y010750D01*
X021138Y010746D01*
X021154Y010739D01*
X021169Y010728D01*
X021181Y010715D01*
X021190Y010700D01*
X021195Y010683D01*
X021197Y010665D01*
X021195Y010647D01*
X021190Y010630D01*
X021181Y010615D01*
X021169Y010602D01*
X021155Y010591D01*
X021138Y010584D01*
X021121Y010580D01*
X021103Y010580D01*
X021086Y010584D01*
X021070Y010591D01*
X021055Y010602D01*
X021043Y010615D01*
X021034Y010630D01*
X021029Y010647D01*
X021027Y010665D01*
X001487Y020790D02*
X001433Y020788D01*
X001380Y020782D01*
X001328Y020773D01*
X001276Y020760D01*
X001225Y020743D01*
X001175Y020722D01*
X001128Y020698D01*
X001082Y020671D01*
X001038Y020640D01*
X000996Y020607D01*
X000957Y020570D01*
X000920Y020531D01*
X000887Y020489D01*
X000856Y020445D01*
X000829Y020399D01*
X000805Y020352D01*
X000784Y020302D01*
X000767Y020251D01*
X000754Y020199D01*
X000745Y020147D01*
X000739Y020094D01*
X000737Y020040D01*
M02*
