G75*
G70*
%OFA0B0*%
%FSLAX24Y24*%
%IPPOS*%
%LPD*%
%AMOC8*
5,1,8,0,0,1.08239X$1,22.5*
%
%ADD10C,0.0000*%
%ADD11C,0.0090*%
%ADD12R,0.0010X0.0160*%
%ADD13R,0.0010X0.0280*%
%ADD14R,0.0010X0.0310*%
%ADD15R,0.0010X0.0360*%
%ADD16R,0.0010X0.0870*%
%ADD17R,0.0010X0.0930*%
%ADD18R,0.0010X0.0430*%
%ADD19R,0.0010X0.0350*%
%ADD20R,0.0010X0.0480*%
%ADD21R,0.0010X0.0530*%
%ADD22R,0.0010X0.0570*%
%ADD23R,0.0010X0.0610*%
%ADD24R,0.0010X0.0650*%
%ADD25R,0.0010X0.0680*%
%ADD26R,0.0010X0.0710*%
%ADD27R,0.0010X0.0740*%
%ADD28R,0.0010X0.0770*%
%ADD29R,0.0010X0.0790*%
%ADD30R,0.0010X0.0820*%
%ADD31R,0.0010X0.0840*%
%ADD32R,0.0010X0.0860*%
%ADD33R,0.0010X0.0880*%
%ADD34R,0.0010X0.0900*%
%ADD35R,0.0010X0.0920*%
%ADD36R,0.0010X0.0940*%
%ADD37R,0.0010X0.0960*%
%ADD38R,0.0010X0.0970*%
%ADD39R,0.0010X0.0990*%
%ADD40R,0.0010X0.1000*%
%ADD41R,0.0010X0.1020*%
%ADD42R,0.0010X0.1030*%
%ADD43R,0.0010X0.1050*%
%ADD44R,0.0010X0.0370*%
%ADD45R,0.0010X0.0470*%
%ADD46R,0.0010X0.0450*%
%ADD47R,0.0010X0.0420*%
%ADD48R,0.0010X0.0410*%
%ADD49R,0.0010X0.0400*%
%ADD50R,0.0010X0.0390*%
%ADD51R,0.0010X0.0380*%
%ADD52R,0.0010X0.0810*%
%ADD53R,0.0010X0.0800*%
%ADD54R,0.0010X0.0340*%
%ADD55R,0.0010X0.0780*%
%ADD56R,0.0010X0.0330*%
%ADD57R,0.0010X0.0850*%
%ADD58R,0.0010X0.0890*%
%ADD59R,0.0010X0.0320*%
%ADD60R,0.0010X0.0910*%
%ADD61R,0.0010X0.0950*%
%ADD62R,0.0010X0.0980*%
%ADD63R,0.0010X0.0460*%
%ADD64R,0.0010X0.1010*%
%ADD65R,0.0010X0.0830*%
%ADD66R,0.0010X0.0700*%
%ADD67R,0.0010X0.0640*%
%ADD68R,0.0010X0.0150*%
%ADD69R,0.0010X0.0200*%
%ADD70R,0.0010X0.0110*%
%ADD71R,0.0010X0.0550*%
%ADD72R,0.0010X0.0620*%
%ADD73R,0.0010X0.0510*%
%ADD74R,0.0010X0.0600*%
%ADD75R,0.0010X0.0670*%
%ADD76R,0.0010X0.0590*%
%ADD77R,0.0010X0.0730*%
%ADD78R,0.0010X0.0490*%
%ADD79R,0.0010X0.0500*%
%ADD80R,0.0010X0.0520*%
%ADD81R,0.0010X0.1070*%
%ADD82R,0.0010X0.1080*%
%ADD83R,0.0010X0.1110*%
%ADD84R,0.0010X0.0540*%
%ADD85R,0.0010X0.1120*%
%ADD86R,0.0010X0.1140*%
%ADD87R,0.0010X0.1170*%
%ADD88R,0.0010X0.0560*%
%ADD89R,0.0010X0.1160*%
%ADD90R,0.0010X0.1190*%
%ADD91R,0.0010X0.1200*%
%ADD92R,0.0010X0.1230*%
%ADD93R,0.0010X0.1220*%
%ADD94R,0.0010X0.1250*%
%ADD95R,0.0010X0.0580*%
%ADD96R,0.0010X0.1240*%
%ADD97R,0.0010X0.1280*%
%ADD98R,0.0010X0.1260*%
%ADD99R,0.0010X0.1310*%
%ADD100R,0.0010X0.1330*%
%ADD101R,0.0010X0.1350*%
%ADD102R,0.0010X0.1340*%
%ADD103R,0.0010X0.1370*%
%ADD104R,0.0010X0.1360*%
%ADD105R,0.0010X0.1390*%
%ADD106R,0.0010X0.0630*%
%ADD107R,0.0010X0.1380*%
%ADD108R,0.0010X0.1420*%
%ADD109R,0.0010X0.1440*%
%ADD110R,0.0010X0.1410*%
%ADD111R,0.0010X0.1460*%
%ADD112R,0.0010X0.1480*%
%ADD113R,0.0010X0.0660*%
%ADD114R,0.0010X0.1490*%
%ADD115R,0.0010X0.1510*%
%ADD116R,0.0010X0.1530*%
%ADD117R,0.0010X0.1500*%
%ADD118R,0.0010X0.1550*%
%ADD119R,0.0010X0.0690*%
%ADD120R,0.0010X0.1520*%
%ADD121R,0.0010X0.1570*%
%ADD122R,0.0010X0.1580*%
%ADD123R,0.0010X0.1540*%
%ADD124R,0.0010X0.1600*%
%ADD125R,0.0010X0.1560*%
%ADD126R,0.0010X0.1610*%
%ADD127R,0.0010X0.0720*%
%ADD128R,0.0010X0.1630*%
%ADD129R,0.0010X0.1590*%
%ADD130R,0.0010X0.1640*%
%ADD131R,0.0010X0.1660*%
%ADD132R,0.0010X0.0750*%
%ADD133R,0.0010X0.1670*%
%ADD134R,0.0010X0.1690*%
%ADD135R,0.0010X0.0760*%
%ADD136R,0.0010X0.1700*%
%ADD137R,0.0010X0.1710*%
%ADD138R,0.0010X0.0290*%
%ADD139R,0.0010X0.0250*%
%ADD140R,0.0010X0.0230*%
%ADD141R,0.0010X0.0210*%
%ADD142R,0.0010X0.0180*%
%ADD143R,0.0010X0.1300*%
%ADD144R,0.0010X0.0130*%
%ADD145R,0.0010X0.1290*%
%ADD146R,0.0010X0.0090*%
%ADD147R,0.0010X0.0060*%
%ADD148R,0.0010X0.1270*%
%ADD149R,0.0010X0.0050*%
%ADD150R,0.0010X0.0020*%
%ADD151R,0.0010X0.1320*%
%ADD152R,0.0010X0.1400*%
%ADD153R,0.0010X0.1430*%
%ADD154R,0.0010X0.1040*%
%ADD155R,0.0010X0.1450*%
%ADD156R,0.0010X0.1060*%
%ADD157R,0.0010X0.1470*%
%ADD158R,0.0010X0.1090*%
%ADD159R,0.0010X0.1100*%
%ADD160R,0.0010X0.1130*%
%ADD161R,0.0010X0.0010*%
%ADD162R,0.0010X0.0070*%
%ADD163R,0.0010X0.0140*%
%ADD164R,0.0010X0.0270*%
%ADD165R,0.0010X0.1620*%
%ADD166R,0.0010X0.1680*%
%ADD167R,0.0010X0.1150*%
%ADD168R,0.0010X0.1210*%
%ADD169R,0.0010X0.0440*%
%ADD170R,0.0010X0.1650*%
%ADD171R,0.0010X0.1850*%
%ADD172R,0.0010X0.1830*%
%ADD173R,0.0010X0.1810*%
%ADD174R,0.0010X0.1790*%
%ADD175R,0.0010X0.1770*%
%ADD176R,0.0010X0.1760*%
%ADD177R,0.0010X0.1750*%
%ADD178R,0.0010X0.1730*%
%ADD179C,0.0100*%
%ADD180C,0.0060*%
%ADD181C,0.0080*%
%ADD182R,0.0080X0.0354*%
%ADD183R,0.0512X0.0080*%
%ADD184C,0.0020*%
%ADD185R,0.0354X0.0080*%
D10*
X001487Y000550D02*
X019487Y000550D01*
X019037Y001300D02*
X019039Y001342D01*
X019045Y001384D01*
X019055Y001425D01*
X019068Y001465D01*
X019086Y001503D01*
X019106Y001540D01*
X019131Y001575D01*
X019158Y001607D01*
X019188Y001636D01*
X019221Y001663D01*
X019256Y001686D01*
X019293Y001706D01*
X019332Y001722D01*
X019372Y001735D01*
X019413Y001744D01*
X019455Y001749D01*
X019498Y001750D01*
X019540Y001747D01*
X019581Y001740D01*
X019622Y001729D01*
X019662Y001715D01*
X019700Y001697D01*
X019736Y001675D01*
X019770Y001650D01*
X019801Y001622D01*
X019830Y001591D01*
X019856Y001558D01*
X019878Y001522D01*
X019898Y001484D01*
X019913Y001445D01*
X019925Y001405D01*
X019933Y001363D01*
X019937Y001321D01*
X019937Y001279D01*
X019933Y001237D01*
X019925Y001195D01*
X019913Y001155D01*
X019898Y001116D01*
X019878Y001078D01*
X019856Y001042D01*
X019830Y001009D01*
X019801Y000978D01*
X019770Y000950D01*
X019736Y000925D01*
X019700Y000903D01*
X019662Y000885D01*
X019622Y000871D01*
X019581Y000860D01*
X019540Y000853D01*
X019498Y000850D01*
X019455Y000851D01*
X019413Y000856D01*
X019372Y000865D01*
X019332Y000878D01*
X019293Y000894D01*
X019256Y000914D01*
X019221Y000937D01*
X019188Y000964D01*
X019158Y000993D01*
X019131Y001025D01*
X019106Y001060D01*
X019086Y001097D01*
X019068Y001135D01*
X019055Y001175D01*
X019045Y001216D01*
X019039Y001258D01*
X019037Y001300D01*
X019487Y000550D02*
X019541Y000552D01*
X019594Y000558D01*
X019646Y000567D01*
X019698Y000580D01*
X019749Y000597D01*
X019799Y000618D01*
X019846Y000642D01*
X019892Y000669D01*
X019936Y000700D01*
X019978Y000733D01*
X020017Y000770D01*
X020054Y000809D01*
X020087Y000851D01*
X020118Y000895D01*
X020145Y000941D01*
X020169Y000988D01*
X020190Y001038D01*
X020207Y001089D01*
X020220Y001141D01*
X020229Y001193D01*
X020235Y001246D01*
X020237Y001300D01*
X020237Y009800D01*
X021237Y009800D01*
X021237Y001300D01*
X021537Y001300D02*
X021539Y001342D01*
X021545Y001384D01*
X021555Y001425D01*
X021568Y001465D01*
X021586Y001503D01*
X021606Y001540D01*
X021631Y001575D01*
X021658Y001607D01*
X021688Y001636D01*
X021721Y001663D01*
X021756Y001686D01*
X021793Y001706D01*
X021832Y001722D01*
X021872Y001735D01*
X021913Y001744D01*
X021955Y001749D01*
X021998Y001750D01*
X022040Y001747D01*
X022081Y001740D01*
X022122Y001729D01*
X022162Y001715D01*
X022200Y001697D01*
X022236Y001675D01*
X022270Y001650D01*
X022301Y001622D01*
X022330Y001591D01*
X022356Y001558D01*
X022378Y001522D01*
X022398Y001484D01*
X022413Y001445D01*
X022425Y001405D01*
X022433Y001363D01*
X022437Y001321D01*
X022437Y001279D01*
X022433Y001237D01*
X022425Y001195D01*
X022413Y001155D01*
X022398Y001116D01*
X022378Y001078D01*
X022356Y001042D01*
X022330Y001009D01*
X022301Y000978D01*
X022270Y000950D01*
X022236Y000925D01*
X022200Y000903D01*
X022162Y000885D01*
X022122Y000871D01*
X022081Y000860D01*
X022040Y000853D01*
X021998Y000850D01*
X021955Y000851D01*
X021913Y000856D01*
X021872Y000865D01*
X021832Y000878D01*
X021793Y000894D01*
X021756Y000914D01*
X021721Y000937D01*
X021688Y000964D01*
X021658Y000993D01*
X021631Y001025D01*
X021606Y001060D01*
X021586Y001097D01*
X021568Y001135D01*
X021555Y001175D01*
X021545Y001216D01*
X021539Y001258D01*
X021537Y001300D01*
X021237Y001300D02*
X021239Y001246D01*
X021245Y001193D01*
X021254Y001141D01*
X021267Y001089D01*
X021284Y001038D01*
X021305Y000988D01*
X021329Y000941D01*
X021356Y000895D01*
X021387Y000851D01*
X021420Y000809D01*
X021457Y000770D01*
X021496Y000733D01*
X021538Y000700D01*
X021582Y000669D01*
X021628Y000642D01*
X021675Y000618D01*
X021725Y000597D01*
X021776Y000580D01*
X021828Y000567D01*
X021880Y000558D01*
X021933Y000552D01*
X021987Y000550D01*
X039987Y000550D01*
X039537Y001300D02*
X039539Y001342D01*
X039545Y001384D01*
X039555Y001425D01*
X039568Y001465D01*
X039586Y001503D01*
X039606Y001540D01*
X039631Y001575D01*
X039658Y001607D01*
X039688Y001636D01*
X039721Y001663D01*
X039756Y001686D01*
X039793Y001706D01*
X039832Y001722D01*
X039872Y001735D01*
X039913Y001744D01*
X039955Y001749D01*
X039998Y001750D01*
X040040Y001747D01*
X040081Y001740D01*
X040122Y001729D01*
X040162Y001715D01*
X040200Y001697D01*
X040236Y001675D01*
X040270Y001650D01*
X040301Y001622D01*
X040330Y001591D01*
X040356Y001558D01*
X040378Y001522D01*
X040398Y001484D01*
X040413Y001445D01*
X040425Y001405D01*
X040433Y001363D01*
X040437Y001321D01*
X040437Y001279D01*
X040433Y001237D01*
X040425Y001195D01*
X040413Y001155D01*
X040398Y001116D01*
X040378Y001078D01*
X040356Y001042D01*
X040330Y001009D01*
X040301Y000978D01*
X040270Y000950D01*
X040236Y000925D01*
X040200Y000903D01*
X040162Y000885D01*
X040122Y000871D01*
X040081Y000860D01*
X040040Y000853D01*
X039998Y000850D01*
X039955Y000851D01*
X039913Y000856D01*
X039872Y000865D01*
X039832Y000878D01*
X039793Y000894D01*
X039756Y000914D01*
X039721Y000937D01*
X039688Y000964D01*
X039658Y000993D01*
X039631Y001025D01*
X039606Y001060D01*
X039586Y001097D01*
X039568Y001135D01*
X039555Y001175D01*
X039545Y001216D01*
X039539Y001258D01*
X039537Y001300D01*
X039987Y000550D02*
X040041Y000552D01*
X040094Y000558D01*
X040146Y000567D01*
X040198Y000580D01*
X040249Y000597D01*
X040299Y000618D01*
X040346Y000642D01*
X040392Y000669D01*
X040436Y000700D01*
X040478Y000733D01*
X040517Y000770D01*
X040554Y000809D01*
X040587Y000851D01*
X040618Y000895D01*
X040645Y000941D01*
X040669Y000988D01*
X040690Y001038D01*
X040707Y001089D01*
X040720Y001141D01*
X040729Y001193D01*
X040735Y001246D01*
X040737Y001300D01*
X040737Y019300D01*
X039537Y019300D02*
X039539Y019342D01*
X039545Y019384D01*
X039555Y019425D01*
X039568Y019465D01*
X039586Y019503D01*
X039606Y019540D01*
X039631Y019575D01*
X039658Y019607D01*
X039688Y019636D01*
X039721Y019663D01*
X039756Y019686D01*
X039793Y019706D01*
X039832Y019722D01*
X039872Y019735D01*
X039913Y019744D01*
X039955Y019749D01*
X039998Y019750D01*
X040040Y019747D01*
X040081Y019740D01*
X040122Y019729D01*
X040162Y019715D01*
X040200Y019697D01*
X040236Y019675D01*
X040270Y019650D01*
X040301Y019622D01*
X040330Y019591D01*
X040356Y019558D01*
X040378Y019522D01*
X040398Y019484D01*
X040413Y019445D01*
X040425Y019405D01*
X040433Y019363D01*
X040437Y019321D01*
X040437Y019279D01*
X040433Y019237D01*
X040425Y019195D01*
X040413Y019155D01*
X040398Y019116D01*
X040378Y019078D01*
X040356Y019042D01*
X040330Y019009D01*
X040301Y018978D01*
X040270Y018950D01*
X040236Y018925D01*
X040200Y018903D01*
X040162Y018885D01*
X040122Y018871D01*
X040081Y018860D01*
X040040Y018853D01*
X039998Y018850D01*
X039955Y018851D01*
X039913Y018856D01*
X039872Y018865D01*
X039832Y018878D01*
X039793Y018894D01*
X039756Y018914D01*
X039721Y018937D01*
X039688Y018964D01*
X039658Y018993D01*
X039631Y019025D01*
X039606Y019060D01*
X039586Y019097D01*
X039568Y019135D01*
X039555Y019175D01*
X039545Y019216D01*
X039539Y019258D01*
X039537Y019300D01*
X039987Y020050D02*
X040041Y020048D01*
X040094Y020042D01*
X040146Y020033D01*
X040198Y020020D01*
X040249Y020003D01*
X040299Y019982D01*
X040346Y019958D01*
X040392Y019931D01*
X040436Y019900D01*
X040478Y019867D01*
X040517Y019830D01*
X040554Y019791D01*
X040587Y019749D01*
X040618Y019705D01*
X040645Y019659D01*
X040669Y019612D01*
X040690Y019562D01*
X040707Y019511D01*
X040720Y019459D01*
X040729Y019407D01*
X040735Y019354D01*
X040737Y019300D01*
X039987Y020050D02*
X021987Y020050D01*
X021537Y019300D02*
X021539Y019342D01*
X021545Y019384D01*
X021555Y019425D01*
X021568Y019465D01*
X021586Y019503D01*
X021606Y019540D01*
X021631Y019575D01*
X021658Y019607D01*
X021688Y019636D01*
X021721Y019663D01*
X021756Y019686D01*
X021793Y019706D01*
X021832Y019722D01*
X021872Y019735D01*
X021913Y019744D01*
X021955Y019749D01*
X021998Y019750D01*
X022040Y019747D01*
X022081Y019740D01*
X022122Y019729D01*
X022162Y019715D01*
X022200Y019697D01*
X022236Y019675D01*
X022270Y019650D01*
X022301Y019622D01*
X022330Y019591D01*
X022356Y019558D01*
X022378Y019522D01*
X022398Y019484D01*
X022413Y019445D01*
X022425Y019405D01*
X022433Y019363D01*
X022437Y019321D01*
X022437Y019279D01*
X022433Y019237D01*
X022425Y019195D01*
X022413Y019155D01*
X022398Y019116D01*
X022378Y019078D01*
X022356Y019042D01*
X022330Y019009D01*
X022301Y018978D01*
X022270Y018950D01*
X022236Y018925D01*
X022200Y018903D01*
X022162Y018885D01*
X022122Y018871D01*
X022081Y018860D01*
X022040Y018853D01*
X021998Y018850D01*
X021955Y018851D01*
X021913Y018856D01*
X021872Y018865D01*
X021832Y018878D01*
X021793Y018894D01*
X021756Y018914D01*
X021721Y018937D01*
X021688Y018964D01*
X021658Y018993D01*
X021631Y019025D01*
X021606Y019060D01*
X021586Y019097D01*
X021568Y019135D01*
X021555Y019175D01*
X021545Y019216D01*
X021539Y019258D01*
X021537Y019300D01*
X021237Y019300D02*
X021237Y010800D01*
X020237Y010800D01*
X020237Y019300D01*
X019037Y019300D02*
X019039Y019342D01*
X019045Y019384D01*
X019055Y019425D01*
X019068Y019465D01*
X019086Y019503D01*
X019106Y019540D01*
X019131Y019575D01*
X019158Y019607D01*
X019188Y019636D01*
X019221Y019663D01*
X019256Y019686D01*
X019293Y019706D01*
X019332Y019722D01*
X019372Y019735D01*
X019413Y019744D01*
X019455Y019749D01*
X019498Y019750D01*
X019540Y019747D01*
X019581Y019740D01*
X019622Y019729D01*
X019662Y019715D01*
X019700Y019697D01*
X019736Y019675D01*
X019770Y019650D01*
X019801Y019622D01*
X019830Y019591D01*
X019856Y019558D01*
X019878Y019522D01*
X019898Y019484D01*
X019913Y019445D01*
X019925Y019405D01*
X019933Y019363D01*
X019937Y019321D01*
X019937Y019279D01*
X019933Y019237D01*
X019925Y019195D01*
X019913Y019155D01*
X019898Y019116D01*
X019878Y019078D01*
X019856Y019042D01*
X019830Y019009D01*
X019801Y018978D01*
X019770Y018950D01*
X019736Y018925D01*
X019700Y018903D01*
X019662Y018885D01*
X019622Y018871D01*
X019581Y018860D01*
X019540Y018853D01*
X019498Y018850D01*
X019455Y018851D01*
X019413Y018856D01*
X019372Y018865D01*
X019332Y018878D01*
X019293Y018894D01*
X019256Y018914D01*
X019221Y018937D01*
X019188Y018964D01*
X019158Y018993D01*
X019131Y019025D01*
X019106Y019060D01*
X019086Y019097D01*
X019068Y019135D01*
X019055Y019175D01*
X019045Y019216D01*
X019039Y019258D01*
X019037Y019300D01*
X019487Y020050D02*
X019541Y020048D01*
X019594Y020042D01*
X019646Y020033D01*
X019698Y020020D01*
X019749Y020003D01*
X019799Y019982D01*
X019846Y019958D01*
X019892Y019931D01*
X019936Y019900D01*
X019978Y019867D01*
X020017Y019830D01*
X020054Y019791D01*
X020087Y019749D01*
X020118Y019705D01*
X020145Y019659D01*
X020169Y019612D01*
X020190Y019562D01*
X020207Y019511D01*
X020220Y019459D01*
X020229Y019407D01*
X020235Y019354D01*
X020237Y019300D01*
X019487Y020050D02*
X001487Y020050D01*
X001037Y019300D02*
X001039Y019342D01*
X001045Y019384D01*
X001055Y019425D01*
X001068Y019465D01*
X001086Y019503D01*
X001106Y019540D01*
X001131Y019575D01*
X001158Y019607D01*
X001188Y019636D01*
X001221Y019663D01*
X001256Y019686D01*
X001293Y019706D01*
X001332Y019722D01*
X001372Y019735D01*
X001413Y019744D01*
X001455Y019749D01*
X001498Y019750D01*
X001540Y019747D01*
X001581Y019740D01*
X001622Y019729D01*
X001662Y019715D01*
X001700Y019697D01*
X001736Y019675D01*
X001770Y019650D01*
X001801Y019622D01*
X001830Y019591D01*
X001856Y019558D01*
X001878Y019522D01*
X001898Y019484D01*
X001913Y019445D01*
X001925Y019405D01*
X001933Y019363D01*
X001937Y019321D01*
X001937Y019279D01*
X001933Y019237D01*
X001925Y019195D01*
X001913Y019155D01*
X001898Y019116D01*
X001878Y019078D01*
X001856Y019042D01*
X001830Y019009D01*
X001801Y018978D01*
X001770Y018950D01*
X001736Y018925D01*
X001700Y018903D01*
X001662Y018885D01*
X001622Y018871D01*
X001581Y018860D01*
X001540Y018853D01*
X001498Y018850D01*
X001455Y018851D01*
X001413Y018856D01*
X001372Y018865D01*
X001332Y018878D01*
X001293Y018894D01*
X001256Y018914D01*
X001221Y018937D01*
X001188Y018964D01*
X001158Y018993D01*
X001131Y019025D01*
X001106Y019060D01*
X001086Y019097D01*
X001068Y019135D01*
X001055Y019175D01*
X001045Y019216D01*
X001039Y019258D01*
X001037Y019300D01*
X000737Y019300D02*
X000737Y001300D01*
X001037Y001300D02*
X001039Y001342D01*
X001045Y001384D01*
X001055Y001425D01*
X001068Y001465D01*
X001086Y001503D01*
X001106Y001540D01*
X001131Y001575D01*
X001158Y001607D01*
X001188Y001636D01*
X001221Y001663D01*
X001256Y001686D01*
X001293Y001706D01*
X001332Y001722D01*
X001372Y001735D01*
X001413Y001744D01*
X001455Y001749D01*
X001498Y001750D01*
X001540Y001747D01*
X001581Y001740D01*
X001622Y001729D01*
X001662Y001715D01*
X001700Y001697D01*
X001736Y001675D01*
X001770Y001650D01*
X001801Y001622D01*
X001830Y001591D01*
X001856Y001558D01*
X001878Y001522D01*
X001898Y001484D01*
X001913Y001445D01*
X001925Y001405D01*
X001933Y001363D01*
X001937Y001321D01*
X001937Y001279D01*
X001933Y001237D01*
X001925Y001195D01*
X001913Y001155D01*
X001898Y001116D01*
X001878Y001078D01*
X001856Y001042D01*
X001830Y001009D01*
X001801Y000978D01*
X001770Y000950D01*
X001736Y000925D01*
X001700Y000903D01*
X001662Y000885D01*
X001622Y000871D01*
X001581Y000860D01*
X001540Y000853D01*
X001498Y000850D01*
X001455Y000851D01*
X001413Y000856D01*
X001372Y000865D01*
X001332Y000878D01*
X001293Y000894D01*
X001256Y000914D01*
X001221Y000937D01*
X001188Y000964D01*
X001158Y000993D01*
X001131Y001025D01*
X001106Y001060D01*
X001086Y001097D01*
X001068Y001135D01*
X001055Y001175D01*
X001045Y001216D01*
X001039Y001258D01*
X001037Y001300D01*
X000737Y001300D02*
X000739Y001246D01*
X000745Y001193D01*
X000754Y001141D01*
X000767Y001089D01*
X000784Y001038D01*
X000805Y000988D01*
X000829Y000941D01*
X000856Y000895D01*
X000887Y000851D01*
X000920Y000809D01*
X000957Y000770D01*
X000996Y000733D01*
X001038Y000700D01*
X001082Y000669D01*
X001128Y000642D01*
X001175Y000618D01*
X001225Y000597D01*
X001276Y000580D01*
X001328Y000567D01*
X001380Y000558D01*
X001433Y000552D01*
X001487Y000550D01*
X020277Y009925D02*
X020279Y009943D01*
X020284Y009960D01*
X020293Y009975D01*
X020305Y009988D01*
X020319Y009999D01*
X020336Y010006D01*
X020353Y010010D01*
X020371Y010010D01*
X020388Y010006D01*
X020404Y009999D01*
X020419Y009988D01*
X020431Y009975D01*
X020440Y009960D01*
X020445Y009943D01*
X020447Y009925D01*
X020445Y009907D01*
X020440Y009890D01*
X020431Y009875D01*
X020419Y009862D01*
X020405Y009851D01*
X020388Y009844D01*
X020371Y009840D01*
X020353Y009840D01*
X020336Y009844D01*
X020320Y009851D01*
X020305Y009862D01*
X020293Y009875D01*
X020284Y009890D01*
X020279Y009907D01*
X020277Y009925D01*
X020277Y010175D02*
X020279Y010193D01*
X020284Y010210D01*
X020293Y010225D01*
X020305Y010238D01*
X020319Y010249D01*
X020336Y010256D01*
X020353Y010260D01*
X020371Y010260D01*
X020388Y010256D01*
X020404Y010249D01*
X020419Y010238D01*
X020431Y010225D01*
X020440Y010210D01*
X020445Y010193D01*
X020447Y010175D01*
X020445Y010157D01*
X020440Y010140D01*
X020431Y010125D01*
X020419Y010112D01*
X020405Y010101D01*
X020388Y010094D01*
X020371Y010090D01*
X020353Y010090D01*
X020336Y010094D01*
X020320Y010101D01*
X020305Y010112D01*
X020293Y010125D01*
X020284Y010140D01*
X020279Y010157D01*
X020277Y010175D01*
X020277Y010425D02*
X020279Y010443D01*
X020284Y010460D01*
X020293Y010475D01*
X020305Y010488D01*
X020319Y010499D01*
X020336Y010506D01*
X020353Y010510D01*
X020371Y010510D01*
X020388Y010506D01*
X020404Y010499D01*
X020419Y010488D01*
X020431Y010475D01*
X020440Y010460D01*
X020445Y010443D01*
X020447Y010425D01*
X020445Y010407D01*
X020440Y010390D01*
X020431Y010375D01*
X020419Y010362D01*
X020405Y010351D01*
X020388Y010344D01*
X020371Y010340D01*
X020353Y010340D01*
X020336Y010344D01*
X020320Y010351D01*
X020305Y010362D01*
X020293Y010375D01*
X020284Y010390D01*
X020279Y010407D01*
X020277Y010425D01*
X020277Y010675D02*
X020279Y010693D01*
X020284Y010710D01*
X020293Y010725D01*
X020305Y010738D01*
X020319Y010749D01*
X020336Y010756D01*
X020353Y010760D01*
X020371Y010760D01*
X020388Y010756D01*
X020404Y010749D01*
X020419Y010738D01*
X020431Y010725D01*
X020440Y010710D01*
X020445Y010693D01*
X020447Y010675D01*
X020445Y010657D01*
X020440Y010640D01*
X020431Y010625D01*
X020419Y010612D01*
X020405Y010601D01*
X020388Y010594D01*
X020371Y010590D01*
X020353Y010590D01*
X020336Y010594D01*
X020320Y010601D01*
X020305Y010612D01*
X020293Y010625D01*
X020284Y010640D01*
X020279Y010657D01*
X020277Y010675D01*
X021027Y010675D02*
X021029Y010693D01*
X021034Y010710D01*
X021043Y010725D01*
X021055Y010738D01*
X021069Y010749D01*
X021086Y010756D01*
X021103Y010760D01*
X021121Y010760D01*
X021138Y010756D01*
X021154Y010749D01*
X021169Y010738D01*
X021181Y010725D01*
X021190Y010710D01*
X021195Y010693D01*
X021197Y010675D01*
X021195Y010657D01*
X021190Y010640D01*
X021181Y010625D01*
X021169Y010612D01*
X021155Y010601D01*
X021138Y010594D01*
X021121Y010590D01*
X021103Y010590D01*
X021086Y010594D01*
X021070Y010601D01*
X021055Y010612D01*
X021043Y010625D01*
X021034Y010640D01*
X021029Y010657D01*
X021027Y010675D01*
X021027Y010425D02*
X021029Y010443D01*
X021034Y010460D01*
X021043Y010475D01*
X021055Y010488D01*
X021069Y010499D01*
X021086Y010506D01*
X021103Y010510D01*
X021121Y010510D01*
X021138Y010506D01*
X021154Y010499D01*
X021169Y010488D01*
X021181Y010475D01*
X021190Y010460D01*
X021195Y010443D01*
X021197Y010425D01*
X021195Y010407D01*
X021190Y010390D01*
X021181Y010375D01*
X021169Y010362D01*
X021155Y010351D01*
X021138Y010344D01*
X021121Y010340D01*
X021103Y010340D01*
X021086Y010344D01*
X021070Y010351D01*
X021055Y010362D01*
X021043Y010375D01*
X021034Y010390D01*
X021029Y010407D01*
X021027Y010425D01*
X021027Y010175D02*
X021029Y010193D01*
X021034Y010210D01*
X021043Y010225D01*
X021055Y010238D01*
X021069Y010249D01*
X021086Y010256D01*
X021103Y010260D01*
X021121Y010260D01*
X021138Y010256D01*
X021154Y010249D01*
X021169Y010238D01*
X021181Y010225D01*
X021190Y010210D01*
X021195Y010193D01*
X021197Y010175D01*
X021195Y010157D01*
X021190Y010140D01*
X021181Y010125D01*
X021169Y010112D01*
X021155Y010101D01*
X021138Y010094D01*
X021121Y010090D01*
X021103Y010090D01*
X021086Y010094D01*
X021070Y010101D01*
X021055Y010112D01*
X021043Y010125D01*
X021034Y010140D01*
X021029Y010157D01*
X021027Y010175D01*
X021027Y009925D02*
X021029Y009943D01*
X021034Y009960D01*
X021043Y009975D01*
X021055Y009988D01*
X021069Y009999D01*
X021086Y010006D01*
X021103Y010010D01*
X021121Y010010D01*
X021138Y010006D01*
X021154Y009999D01*
X021169Y009988D01*
X021181Y009975D01*
X021190Y009960D01*
X021195Y009943D01*
X021197Y009925D01*
X021195Y009907D01*
X021190Y009890D01*
X021181Y009875D01*
X021169Y009862D01*
X021155Y009851D01*
X021138Y009844D01*
X021121Y009840D01*
X021103Y009840D01*
X021086Y009844D01*
X021070Y009851D01*
X021055Y009862D01*
X021043Y009875D01*
X021034Y009890D01*
X021029Y009907D01*
X021027Y009925D01*
X021237Y019300D02*
X021239Y019354D01*
X021245Y019407D01*
X021254Y019459D01*
X021267Y019511D01*
X021284Y019562D01*
X021305Y019612D01*
X021329Y019659D01*
X021356Y019705D01*
X021387Y019749D01*
X021420Y019791D01*
X021457Y019830D01*
X021496Y019867D01*
X021538Y019900D01*
X021582Y019931D01*
X021628Y019958D01*
X021675Y019982D01*
X021725Y020003D01*
X021776Y020020D01*
X021828Y020033D01*
X021880Y020042D01*
X021933Y020048D01*
X021987Y020050D01*
X001487Y020050D02*
X001433Y020048D01*
X001380Y020042D01*
X001328Y020033D01*
X001276Y020020D01*
X001225Y020003D01*
X001175Y019982D01*
X001128Y019958D01*
X001082Y019931D01*
X001038Y019900D01*
X000996Y019867D01*
X000957Y019830D01*
X000920Y019791D01*
X000887Y019749D01*
X000856Y019705D01*
X000829Y019659D01*
X000805Y019612D01*
X000784Y019562D01*
X000767Y019511D01*
X000754Y019459D01*
X000745Y019407D01*
X000739Y019354D01*
X000737Y019300D01*
D11*
X002282Y017005D02*
X002282Y016732D01*
X002418Y016595D01*
X002555Y016732D01*
X002555Y017005D01*
X002742Y017005D02*
X002947Y017005D01*
X003016Y016937D01*
X003016Y016800D01*
X002947Y016732D01*
X002742Y016732D01*
X002742Y016595D02*
X002742Y017005D01*
X002794Y016005D02*
X002862Y015937D01*
X002862Y015800D01*
X002794Y015732D01*
X002589Y015732D01*
X002589Y015595D02*
X002589Y016005D01*
X002794Y016005D01*
X002418Y016005D02*
X002282Y016005D01*
X002350Y016005D02*
X002350Y015595D01*
X002282Y015595D02*
X002418Y015595D01*
X002282Y015005D02*
X002282Y014732D01*
X002418Y014595D01*
X002555Y014732D01*
X002555Y015005D01*
X002742Y014937D02*
X002742Y014663D01*
X002810Y014595D01*
X002947Y014595D01*
X003016Y014663D01*
X003016Y014937D02*
X002947Y015005D01*
X002810Y015005D01*
X002742Y014937D01*
X002742Y014005D02*
X002947Y014005D01*
X003016Y013937D01*
X003016Y013869D01*
X002947Y013800D01*
X002742Y013800D01*
X002555Y013732D02*
X002555Y014005D01*
X002742Y014005D02*
X002742Y013595D01*
X002947Y013595D01*
X003016Y013663D01*
X003016Y013732D01*
X002947Y013800D01*
X002555Y013732D02*
X002418Y013595D01*
X002282Y013732D01*
X002282Y014005D01*
X002282Y013005D02*
X002282Y012732D01*
X002418Y012595D01*
X002555Y012732D01*
X002555Y013005D01*
X002742Y012869D02*
X002879Y013005D01*
X003016Y012869D01*
X003016Y012595D01*
X003016Y012800D02*
X002742Y012800D01*
X002742Y012869D02*
X002742Y012595D01*
X002794Y012005D02*
X002657Y012005D01*
X002589Y011937D01*
X002589Y011663D01*
X002657Y011595D01*
X002794Y011595D01*
X002862Y011663D01*
X002862Y011937D02*
X002794Y012005D01*
X002418Y012005D02*
X002282Y012005D01*
X002350Y012005D02*
X002350Y011595D01*
X002282Y011595D02*
X002418Y011595D01*
X002418Y011005D02*
X002282Y011005D01*
X002350Y011005D02*
X002350Y010595D01*
X002282Y010595D02*
X002418Y010595D01*
X002589Y010595D02*
X002794Y010595D01*
X002862Y010663D01*
X002862Y010732D01*
X002794Y010800D01*
X002589Y010800D01*
X002794Y010800D02*
X002862Y010869D01*
X002862Y010937D01*
X002794Y011005D01*
X002589Y011005D01*
X002589Y010595D01*
X038361Y008005D02*
X038361Y007732D01*
X038498Y007595D01*
X038634Y007732D01*
X038634Y008005D01*
X038821Y007869D02*
X038958Y008005D01*
X039095Y007869D01*
X039095Y007595D01*
X039095Y007800D02*
X038821Y007800D01*
X038821Y007869D02*
X038821Y007595D01*
X038821Y007005D02*
X039026Y007005D01*
X039095Y006937D01*
X039095Y006869D01*
X039026Y006800D01*
X038821Y006800D01*
X038634Y006732D02*
X038498Y006595D01*
X038361Y006732D01*
X038361Y007005D01*
X038634Y007005D02*
X038634Y006732D01*
X038821Y006595D02*
X039026Y006595D01*
X039095Y006663D01*
X039095Y006732D01*
X039026Y006800D01*
X038821Y006595D02*
X038821Y007005D01*
X038890Y006005D02*
X038821Y005937D01*
X038821Y005663D01*
X038890Y005595D01*
X039026Y005595D01*
X039095Y005663D01*
X039095Y005937D02*
X039026Y006005D01*
X038890Y006005D01*
X038634Y006005D02*
X038634Y005732D01*
X038498Y005595D01*
X038361Y005732D01*
X038361Y006005D01*
X038514Y005005D02*
X038651Y005005D01*
X038583Y005005D02*
X038583Y004595D01*
X038651Y004595D02*
X038514Y004595D01*
X038821Y004595D02*
X038821Y005005D01*
X039026Y005005D01*
X039095Y004937D01*
X039095Y004800D01*
X039026Y004732D01*
X038821Y004732D01*
X038821Y004005D02*
X039026Y004005D01*
X039095Y003937D01*
X039095Y003800D01*
X039026Y003732D01*
X038821Y003732D01*
X038821Y003595D02*
X038821Y004005D01*
X038634Y004005D02*
X038634Y003732D01*
X038498Y003595D01*
X038361Y003732D01*
X038361Y004005D01*
X038514Y008595D02*
X038651Y008595D01*
X038583Y008595D02*
X038583Y009005D01*
X038651Y009005D02*
X038514Y009005D01*
X038821Y008937D02*
X038821Y008663D01*
X038890Y008595D01*
X039026Y008595D01*
X039095Y008663D01*
X039095Y008937D02*
X039026Y009005D01*
X038890Y009005D01*
X038821Y008937D01*
X038821Y009595D02*
X039026Y009595D01*
X039095Y009663D01*
X039095Y009732D01*
X039026Y009800D01*
X038821Y009800D01*
X038821Y009595D02*
X038821Y010005D01*
X039026Y010005D01*
X039095Y009937D01*
X039095Y009869D01*
X039026Y009800D01*
X038651Y009595D02*
X038514Y009595D01*
X038583Y009595D02*
X038583Y010005D01*
X038651Y010005D02*
X038514Y010005D01*
D12*
X034057Y016745D03*
X035957Y018235D03*
X036647Y018255D03*
X007417Y003855D03*
X005517Y002365D03*
X004827Y002345D03*
D13*
X006247Y003865D03*
X007407Y003855D03*
X034067Y016745D03*
X035227Y016735D03*
D14*
X034847Y017640D03*
X034837Y017640D03*
X034827Y017640D03*
X034817Y017640D03*
X034807Y017640D03*
X034797Y017640D03*
X034787Y017640D03*
X034777Y017640D03*
X034757Y017650D03*
X034747Y017650D03*
X035897Y018230D03*
X036707Y018250D03*
X034937Y018340D03*
X034927Y018340D03*
X034917Y018340D03*
X034907Y018340D03*
X034897Y018340D03*
X034887Y018340D03*
X034877Y018340D03*
X034867Y018340D03*
X034857Y018340D03*
X034847Y018340D03*
X034837Y018340D03*
X034827Y018340D03*
X034817Y018340D03*
X034807Y018340D03*
X034797Y018340D03*
X034787Y018340D03*
X034777Y018340D03*
X034767Y018340D03*
X034757Y018340D03*
X034747Y018340D03*
X034737Y018340D03*
X034727Y018340D03*
X034717Y018340D03*
X034707Y018340D03*
X034697Y018340D03*
X034687Y018340D03*
X034677Y018340D03*
X034417Y018340D03*
X034407Y018340D03*
X034397Y018340D03*
X034387Y018340D03*
X034377Y018340D03*
X034367Y018340D03*
X034357Y018340D03*
X034347Y018340D03*
X034337Y018340D03*
X034327Y018340D03*
X034317Y018340D03*
X034307Y018340D03*
X034297Y018340D03*
X034287Y018340D03*
X034277Y018340D03*
X034267Y018340D03*
X034257Y018340D03*
X034247Y018340D03*
X034237Y018340D03*
X034227Y018340D03*
X034217Y018340D03*
X034207Y018340D03*
X034197Y018340D03*
X034187Y018340D03*
X034177Y018340D03*
X034167Y018340D03*
X034157Y018340D03*
X034147Y018340D03*
X034137Y018340D03*
X034127Y018340D03*
X034117Y018340D03*
X034107Y018340D03*
X034097Y018340D03*
X034087Y018340D03*
X034077Y018340D03*
X034077Y019140D03*
X034087Y019140D03*
X034097Y019140D03*
X034107Y019140D03*
X034117Y019140D03*
X034127Y019140D03*
X034137Y019140D03*
X034147Y019140D03*
X034157Y019140D03*
X034167Y019140D03*
X034177Y019140D03*
X034187Y019140D03*
X034197Y019140D03*
X034207Y019140D03*
X034217Y019140D03*
X034227Y019140D03*
X034237Y019140D03*
X034247Y019140D03*
X034257Y019140D03*
X034267Y019140D03*
X034277Y019140D03*
X034287Y019140D03*
X034297Y019140D03*
X034307Y019140D03*
X034317Y019140D03*
X034327Y019140D03*
X034337Y019140D03*
X034347Y019140D03*
X034357Y019140D03*
X034367Y019140D03*
X034377Y019140D03*
X034387Y019140D03*
X034397Y019140D03*
X034407Y019140D03*
X034417Y019140D03*
X034427Y019140D03*
X034437Y019140D03*
X034447Y019140D03*
X034457Y019140D03*
X034467Y019140D03*
X034477Y019140D03*
X034487Y019140D03*
X034497Y019140D03*
X034507Y019140D03*
X034517Y019140D03*
X034527Y019140D03*
X034537Y019140D03*
X034547Y019140D03*
X034557Y019140D03*
X034567Y019140D03*
X034577Y019140D03*
X034587Y019140D03*
X034597Y019140D03*
X034607Y019140D03*
X034617Y019140D03*
X034627Y019140D03*
X034637Y019140D03*
X034647Y019140D03*
X034657Y019140D03*
X034667Y019140D03*
X034677Y019140D03*
X034687Y019140D03*
X034697Y019140D03*
X034707Y019140D03*
X034717Y019140D03*
X034727Y019140D03*
X034737Y019140D03*
X034747Y019140D03*
X034757Y019140D03*
X034767Y019140D03*
X034777Y019140D03*
X034787Y019140D03*
X034797Y019140D03*
X034807Y019140D03*
X034817Y019140D03*
X034827Y019140D03*
X034837Y019140D03*
X034847Y019140D03*
X034857Y019140D03*
X034867Y019140D03*
X034877Y019140D03*
X034887Y019140D03*
X034897Y019140D03*
X034907Y019140D03*
X034917Y019140D03*
X034927Y019140D03*
X034937Y019140D03*
X034937Y015800D03*
X034947Y015800D03*
X034957Y015800D03*
X034967Y015800D03*
X034977Y015800D03*
X034987Y015800D03*
X034997Y015800D03*
X035007Y015800D03*
X035017Y015800D03*
X035027Y015800D03*
X035037Y015800D03*
X035047Y015800D03*
X035057Y015800D03*
X035067Y015800D03*
X035077Y015800D03*
X035087Y015800D03*
X035097Y015800D03*
X035107Y015800D03*
X035117Y015800D03*
X035127Y015800D03*
X035137Y015800D03*
X035147Y015800D03*
X035157Y015800D03*
X035167Y015800D03*
X035177Y015800D03*
X035187Y015800D03*
X035197Y015800D03*
X035207Y015800D03*
X035217Y015800D03*
X034927Y015800D03*
X034917Y015800D03*
X034907Y015800D03*
X034897Y015800D03*
X034887Y015800D03*
X034877Y015800D03*
X034867Y015800D03*
X034857Y015800D03*
X034847Y015800D03*
X034837Y015800D03*
X034827Y015800D03*
X034817Y015800D03*
X034807Y015800D03*
X034797Y015800D03*
X034787Y015800D03*
X034777Y015800D03*
X034767Y015800D03*
X034757Y015800D03*
X034747Y015800D03*
X034737Y015800D03*
X034727Y015800D03*
X034717Y015800D03*
X034707Y015800D03*
X034697Y015800D03*
X034687Y015800D03*
X034677Y015800D03*
X034667Y015800D03*
X034657Y015800D03*
X034647Y015800D03*
X034637Y015800D03*
X034627Y015800D03*
X034617Y015800D03*
X034607Y015800D03*
X034597Y015800D03*
X034587Y015800D03*
X034577Y015800D03*
X034567Y015800D03*
X034557Y015800D03*
X034547Y015800D03*
X034537Y015800D03*
X034527Y015800D03*
X034517Y015800D03*
X034507Y015800D03*
X034497Y015800D03*
X034487Y015800D03*
X034477Y015800D03*
X034467Y015800D03*
X034457Y015800D03*
X034447Y015800D03*
X034437Y015800D03*
X034427Y015800D03*
X034417Y015800D03*
X034407Y015800D03*
X034397Y015800D03*
X034387Y015800D03*
X034377Y015800D03*
X034367Y015800D03*
X034357Y015800D03*
X034357Y014790D03*
X034367Y014790D03*
X034377Y014790D03*
X034387Y014790D03*
X034397Y014790D03*
X034407Y014790D03*
X034417Y014790D03*
X034427Y014790D03*
X034437Y014790D03*
X034447Y014790D03*
X034457Y014790D03*
X034467Y014790D03*
X034477Y014790D03*
X034487Y014790D03*
X034497Y014790D03*
X034507Y014790D03*
X034517Y014790D03*
X034527Y014790D03*
X034537Y014790D03*
X034547Y014790D03*
X034557Y014790D03*
X034567Y014790D03*
X034577Y014790D03*
X034587Y014790D03*
X034597Y014790D03*
X034607Y014790D03*
X034617Y014790D03*
X034627Y014790D03*
X034637Y014790D03*
X034647Y014790D03*
X034657Y014790D03*
X034667Y014790D03*
X034677Y014790D03*
X034687Y014790D03*
X034697Y014790D03*
X034707Y014790D03*
X034717Y014790D03*
X034727Y014790D03*
X034737Y014790D03*
X034747Y014790D03*
X034757Y014790D03*
X034767Y014790D03*
X034777Y014790D03*
X034787Y014790D03*
X034797Y014790D03*
X034807Y014790D03*
X034817Y014790D03*
X034827Y014790D03*
X034837Y014790D03*
X034847Y014790D03*
X034857Y014790D03*
X034867Y014790D03*
X034877Y014790D03*
X034887Y014790D03*
X034897Y014790D03*
X034907Y014790D03*
X034917Y014790D03*
X034927Y014790D03*
X034937Y014790D03*
X034947Y014790D03*
X034957Y014790D03*
X034967Y014790D03*
X034977Y014790D03*
X034987Y014790D03*
X034997Y014790D03*
X035007Y014790D03*
X035017Y014790D03*
X035027Y014790D03*
X035037Y014790D03*
X035047Y014790D03*
X035057Y014790D03*
X035067Y014790D03*
X035077Y014790D03*
X035087Y014790D03*
X035097Y014790D03*
X035107Y014790D03*
X035117Y014790D03*
X035127Y014790D03*
X035137Y014790D03*
X035147Y014790D03*
X035157Y014790D03*
X035167Y014790D03*
X035177Y014790D03*
X035187Y014790D03*
X035197Y014790D03*
X035207Y014790D03*
X035217Y014790D03*
X034947Y013790D03*
X034937Y013790D03*
X034927Y013790D03*
X034917Y013790D03*
X034907Y013790D03*
X034897Y013790D03*
X034887Y013790D03*
X034877Y013790D03*
X034867Y013790D03*
X034857Y013790D03*
X034847Y013790D03*
X034837Y013790D03*
X034827Y013790D03*
X034817Y013790D03*
X034807Y013790D03*
X034797Y013790D03*
X034787Y013790D03*
X034777Y013790D03*
X034517Y013790D03*
X034507Y013790D03*
X034497Y013790D03*
X034487Y013790D03*
X034477Y013790D03*
X034467Y013790D03*
X034457Y013790D03*
X034447Y013790D03*
X034437Y013790D03*
X034427Y013790D03*
X034417Y013790D03*
X034407Y013790D03*
X034397Y013790D03*
X034387Y013790D03*
X034377Y013790D03*
X034367Y013790D03*
X034357Y013790D03*
X034347Y013790D03*
X034347Y012690D03*
X034357Y012690D03*
X034367Y012690D03*
X034377Y012690D03*
X034387Y012690D03*
X034397Y012690D03*
X034407Y012690D03*
X034417Y012690D03*
X034337Y012690D03*
X034327Y012690D03*
X034317Y012690D03*
X034307Y012690D03*
X034297Y012690D03*
X034287Y012690D03*
X034277Y012690D03*
X034267Y012690D03*
X034257Y012690D03*
X034247Y012690D03*
X034237Y012690D03*
X034227Y012690D03*
X034217Y012690D03*
X034207Y012690D03*
X034197Y012690D03*
X034187Y012690D03*
X034177Y012690D03*
X034167Y012690D03*
X034157Y012690D03*
X034147Y012690D03*
X034137Y012690D03*
X034127Y012690D03*
X034117Y012690D03*
X034107Y012690D03*
X034097Y012690D03*
X034087Y012690D03*
X034077Y012690D03*
X034677Y012690D03*
X034687Y012690D03*
X034697Y012690D03*
X034707Y012690D03*
X034717Y012690D03*
X034727Y012690D03*
X034737Y012690D03*
X034747Y012690D03*
X034757Y012690D03*
X034767Y012690D03*
X034777Y012690D03*
X034787Y012690D03*
X034797Y012690D03*
X034807Y012690D03*
X034817Y012690D03*
X034827Y012690D03*
X034837Y012690D03*
X034847Y012690D03*
X034857Y012690D03*
X034867Y012690D03*
X034877Y012690D03*
X034887Y012690D03*
X034897Y012690D03*
X034907Y012690D03*
X034917Y012690D03*
X034927Y012690D03*
X034937Y012690D03*
X034847Y011990D03*
X034837Y011990D03*
X034827Y011990D03*
X034817Y011990D03*
X034807Y011990D03*
X034797Y011990D03*
X034787Y011990D03*
X034777Y011990D03*
X034757Y012000D03*
X034747Y012000D03*
X007397Y007910D03*
X007387Y007910D03*
X007377Y007910D03*
X007367Y007910D03*
X007357Y007910D03*
X007347Y007910D03*
X007337Y007910D03*
X007327Y007910D03*
X007317Y007910D03*
X007307Y007910D03*
X007297Y007910D03*
X007287Y007910D03*
X007277Y007910D03*
X007267Y007910D03*
X007257Y007910D03*
X007247Y007910D03*
X007237Y007910D03*
X007227Y007910D03*
X007217Y007910D03*
X007207Y007910D03*
X007197Y007910D03*
X007187Y007910D03*
X007177Y007910D03*
X007167Y007910D03*
X007157Y007910D03*
X007147Y007910D03*
X007137Y007910D03*
X007127Y007910D03*
X007117Y007910D03*
X007107Y007910D03*
X007097Y007910D03*
X007087Y007910D03*
X007077Y007910D03*
X007067Y007910D03*
X007057Y007910D03*
X006797Y007910D03*
X006787Y007910D03*
X006777Y007910D03*
X006767Y007910D03*
X006757Y007910D03*
X006747Y007910D03*
X006737Y007910D03*
X006727Y007910D03*
X006717Y007910D03*
X006707Y007910D03*
X006697Y007910D03*
X006687Y007910D03*
X006677Y007910D03*
X006667Y007910D03*
X006657Y007910D03*
X006647Y007910D03*
X006637Y007910D03*
X006627Y007910D03*
X006617Y007910D03*
X006607Y007910D03*
X006597Y007910D03*
X006587Y007910D03*
X006577Y007910D03*
X006567Y007910D03*
X006557Y007910D03*
X006547Y007910D03*
X006537Y007910D03*
X006627Y008610D03*
X006637Y008610D03*
X006647Y008610D03*
X006657Y008610D03*
X006667Y008610D03*
X006677Y008610D03*
X006687Y008610D03*
X006697Y008610D03*
X006717Y008600D03*
X006727Y008600D03*
X006697Y006810D03*
X006687Y006810D03*
X006677Y006810D03*
X006667Y006810D03*
X006657Y006810D03*
X006647Y006810D03*
X006637Y006810D03*
X006627Y006810D03*
X006617Y006810D03*
X006607Y006810D03*
X006597Y006810D03*
X006587Y006810D03*
X006577Y006810D03*
X006567Y006810D03*
X006557Y006810D03*
X006547Y006810D03*
X006537Y006810D03*
X006527Y006810D03*
X006957Y006810D03*
X006967Y006810D03*
X006977Y006810D03*
X006987Y006810D03*
X006997Y006810D03*
X007007Y006810D03*
X007017Y006810D03*
X007027Y006810D03*
X007037Y006810D03*
X007047Y006810D03*
X007057Y006810D03*
X007067Y006810D03*
X007077Y006810D03*
X007087Y006810D03*
X007097Y006810D03*
X007107Y006810D03*
X007117Y006810D03*
X007127Y006810D03*
X007117Y005810D03*
X007107Y005810D03*
X007097Y005810D03*
X007087Y005810D03*
X007077Y005810D03*
X007067Y005810D03*
X007057Y005810D03*
X007047Y005810D03*
X007037Y005810D03*
X007027Y005810D03*
X007017Y005810D03*
X007007Y005810D03*
X006997Y005810D03*
X006987Y005810D03*
X006977Y005810D03*
X006967Y005810D03*
X006957Y005810D03*
X006947Y005810D03*
X006937Y005810D03*
X006927Y005810D03*
X006917Y005810D03*
X006907Y005810D03*
X006897Y005810D03*
X006887Y005810D03*
X006877Y005810D03*
X006867Y005810D03*
X006857Y005810D03*
X006847Y005810D03*
X006837Y005810D03*
X006827Y005810D03*
X006817Y005810D03*
X006807Y005810D03*
X006797Y005810D03*
X006787Y005810D03*
X006777Y005810D03*
X006767Y005810D03*
X006757Y005810D03*
X006747Y005810D03*
X006737Y005810D03*
X006727Y005810D03*
X006717Y005810D03*
X006707Y005810D03*
X006697Y005810D03*
X006687Y005810D03*
X006677Y005810D03*
X006667Y005810D03*
X006657Y005810D03*
X006647Y005810D03*
X006637Y005810D03*
X006627Y005810D03*
X006617Y005810D03*
X006607Y005810D03*
X006597Y005810D03*
X006587Y005810D03*
X006577Y005810D03*
X006567Y005810D03*
X006557Y005810D03*
X006547Y005810D03*
X006537Y005810D03*
X006527Y005810D03*
X006517Y005810D03*
X006507Y005810D03*
X006497Y005810D03*
X006487Y005810D03*
X006477Y005810D03*
X006467Y005810D03*
X006457Y005810D03*
X006447Y005810D03*
X006437Y005810D03*
X006427Y005810D03*
X006417Y005810D03*
X006407Y005810D03*
X006397Y005810D03*
X006387Y005810D03*
X006377Y005810D03*
X006367Y005810D03*
X006357Y005810D03*
X006347Y005810D03*
X006337Y005810D03*
X006327Y005810D03*
X006317Y005810D03*
X006307Y005810D03*
X006297Y005810D03*
X006287Y005810D03*
X006277Y005810D03*
X006267Y005810D03*
X006257Y005810D03*
X006257Y004800D03*
X006267Y004800D03*
X006277Y004800D03*
X006287Y004800D03*
X006297Y004800D03*
X006307Y004800D03*
X006317Y004800D03*
X006327Y004800D03*
X006337Y004800D03*
X006347Y004800D03*
X006357Y004800D03*
X006367Y004800D03*
X006377Y004800D03*
X006387Y004800D03*
X006397Y004800D03*
X006407Y004800D03*
X006417Y004800D03*
X006427Y004800D03*
X006437Y004800D03*
X006447Y004800D03*
X006457Y004800D03*
X006467Y004800D03*
X006477Y004800D03*
X006487Y004800D03*
X006497Y004800D03*
X006507Y004800D03*
X006517Y004800D03*
X006527Y004800D03*
X006537Y004800D03*
X006547Y004800D03*
X006557Y004800D03*
X006567Y004800D03*
X006577Y004800D03*
X006587Y004800D03*
X006597Y004800D03*
X006607Y004800D03*
X006617Y004800D03*
X006627Y004800D03*
X006637Y004800D03*
X006647Y004800D03*
X006657Y004800D03*
X006667Y004800D03*
X006677Y004800D03*
X006687Y004800D03*
X006697Y004800D03*
X006707Y004800D03*
X006717Y004800D03*
X006727Y004800D03*
X006737Y004800D03*
X006747Y004800D03*
X006757Y004800D03*
X006767Y004800D03*
X006777Y004800D03*
X006787Y004800D03*
X006797Y004800D03*
X006807Y004800D03*
X006817Y004800D03*
X006827Y004800D03*
X006837Y004800D03*
X006847Y004800D03*
X006857Y004800D03*
X006867Y004800D03*
X006877Y004800D03*
X006887Y004800D03*
X006897Y004800D03*
X006907Y004800D03*
X006917Y004800D03*
X006927Y004800D03*
X006937Y004800D03*
X006947Y004800D03*
X006957Y004800D03*
X006967Y004800D03*
X006977Y004800D03*
X006987Y004800D03*
X006997Y004800D03*
X007007Y004800D03*
X007017Y004800D03*
X007027Y004800D03*
X007037Y004800D03*
X007047Y004800D03*
X007057Y004800D03*
X007067Y004800D03*
X007077Y004800D03*
X007087Y004800D03*
X007097Y004800D03*
X007107Y004800D03*
X007117Y004800D03*
X006697Y002960D03*
X006687Y002960D03*
X006677Y002960D03*
X006667Y002960D03*
X006657Y002960D03*
X006647Y002960D03*
X006637Y002960D03*
X006627Y002960D03*
X006717Y002950D03*
X006727Y002950D03*
X005577Y002370D03*
X004767Y002350D03*
X006537Y002260D03*
X006547Y002260D03*
X006557Y002260D03*
X006567Y002260D03*
X006577Y002260D03*
X006587Y002260D03*
X006597Y002260D03*
X006607Y002260D03*
X006617Y002260D03*
X006627Y002260D03*
X006637Y002260D03*
X006647Y002260D03*
X006657Y002260D03*
X006667Y002260D03*
X006677Y002260D03*
X006687Y002260D03*
X006697Y002260D03*
X006707Y002260D03*
X006717Y002260D03*
X006727Y002260D03*
X006737Y002260D03*
X006747Y002260D03*
X006757Y002260D03*
X006767Y002260D03*
X006777Y002260D03*
X006787Y002260D03*
X006797Y002260D03*
X007057Y002260D03*
X007067Y002260D03*
X007077Y002260D03*
X007087Y002260D03*
X007097Y002260D03*
X007107Y002260D03*
X007117Y002260D03*
X007127Y002260D03*
X007137Y002260D03*
X007147Y002260D03*
X007157Y002260D03*
X007167Y002260D03*
X007177Y002260D03*
X007187Y002260D03*
X007197Y002260D03*
X007207Y002260D03*
X007217Y002260D03*
X007227Y002260D03*
X007237Y002260D03*
X007247Y002260D03*
X007257Y002260D03*
X007267Y002260D03*
X007277Y002260D03*
X007287Y002260D03*
X007297Y002260D03*
X007307Y002260D03*
X007317Y002260D03*
X007327Y002260D03*
X007337Y002260D03*
X007347Y002260D03*
X007357Y002260D03*
X007367Y002260D03*
X007377Y002260D03*
X007387Y002260D03*
X007397Y002260D03*
X007397Y001460D03*
X007387Y001460D03*
X007377Y001460D03*
X007367Y001460D03*
X007357Y001460D03*
X007347Y001460D03*
X007337Y001460D03*
X007327Y001460D03*
X007317Y001460D03*
X007307Y001460D03*
X007297Y001460D03*
X007287Y001460D03*
X007277Y001460D03*
X007267Y001460D03*
X007257Y001460D03*
X007247Y001460D03*
X007237Y001460D03*
X007227Y001460D03*
X007217Y001460D03*
X007207Y001460D03*
X007197Y001460D03*
X007187Y001460D03*
X007177Y001460D03*
X007167Y001460D03*
X007157Y001460D03*
X007147Y001460D03*
X007137Y001460D03*
X007127Y001460D03*
X007117Y001460D03*
X007107Y001460D03*
X007097Y001460D03*
X007087Y001460D03*
X007077Y001460D03*
X007067Y001460D03*
X007057Y001460D03*
X007047Y001460D03*
X007037Y001460D03*
X007027Y001460D03*
X007017Y001460D03*
X007007Y001460D03*
X006997Y001460D03*
X006987Y001460D03*
X006977Y001460D03*
X006967Y001460D03*
X006957Y001460D03*
X006947Y001460D03*
X006937Y001460D03*
X006927Y001460D03*
X006917Y001460D03*
X006907Y001460D03*
X006897Y001460D03*
X006887Y001460D03*
X006877Y001460D03*
X006867Y001460D03*
X006857Y001460D03*
X006847Y001460D03*
X006837Y001460D03*
X006827Y001460D03*
X006817Y001460D03*
X006807Y001460D03*
X006797Y001460D03*
X006787Y001460D03*
X006777Y001460D03*
X006767Y001460D03*
X006757Y001460D03*
X006747Y001460D03*
X006737Y001460D03*
X006727Y001460D03*
X006717Y001460D03*
X006707Y001460D03*
X006697Y001460D03*
X006687Y001460D03*
X006677Y001460D03*
X006667Y001460D03*
X006657Y001460D03*
X006647Y001460D03*
X006637Y001460D03*
X006627Y001460D03*
X006617Y001460D03*
X006607Y001460D03*
X006597Y001460D03*
X006587Y001460D03*
X006577Y001460D03*
X006567Y001460D03*
X006557Y001460D03*
X006547Y001460D03*
X006537Y001460D03*
D15*
X006127Y001925D03*
X004747Y002345D03*
X004227Y001945D03*
X006557Y002925D03*
X007057Y002745D03*
X007077Y002755D03*
X007087Y002765D03*
X007107Y002775D03*
X007117Y002785D03*
X007137Y002795D03*
X007147Y002805D03*
X007157Y002815D03*
X007167Y002815D03*
X007177Y002825D03*
X007187Y002835D03*
X007197Y002835D03*
X007207Y002845D03*
X007217Y002855D03*
X007227Y002855D03*
X007237Y002865D03*
X007247Y002875D03*
X007257Y002875D03*
X007267Y002885D03*
X007277Y002895D03*
X007287Y002895D03*
X007297Y002905D03*
X007307Y002915D03*
X007317Y002915D03*
X007327Y002925D03*
X007337Y002935D03*
X007347Y002935D03*
X007357Y002945D03*
X007367Y002955D03*
X007387Y002965D03*
X007397Y002975D03*
X007027Y003455D03*
X007037Y003465D03*
X006607Y003465D03*
X006597Y003475D03*
X007397Y003855D03*
X007057Y004245D03*
X007047Y004255D03*
X006627Y004265D03*
X006617Y004255D03*
X007057Y008395D03*
X007077Y008405D03*
X007087Y008415D03*
X007107Y008425D03*
X007117Y008435D03*
X007137Y008445D03*
X007147Y008455D03*
X007157Y008465D03*
X007167Y008465D03*
X007177Y008475D03*
X007187Y008485D03*
X007197Y008485D03*
X007207Y008495D03*
X007217Y008505D03*
X007227Y008505D03*
X007237Y008515D03*
X007247Y008525D03*
X007257Y008525D03*
X007267Y008535D03*
X007277Y008545D03*
X007287Y008545D03*
X007297Y008555D03*
X007307Y008565D03*
X007317Y008565D03*
X007327Y008575D03*
X007337Y008585D03*
X007347Y008585D03*
X007357Y008595D03*
X007367Y008605D03*
X007387Y008615D03*
X007397Y008625D03*
X006557Y008575D03*
X034077Y011975D03*
X034087Y011985D03*
X034107Y011995D03*
X034117Y012005D03*
X034127Y012015D03*
X034137Y012015D03*
X034147Y012025D03*
X034157Y012035D03*
X034167Y012035D03*
X034177Y012045D03*
X034187Y012055D03*
X034197Y012055D03*
X034207Y012065D03*
X034217Y012075D03*
X034227Y012075D03*
X034237Y012085D03*
X034247Y012095D03*
X034257Y012095D03*
X034267Y012105D03*
X034277Y012115D03*
X034287Y012115D03*
X034297Y012125D03*
X034307Y012135D03*
X034317Y012135D03*
X034327Y012145D03*
X034337Y012155D03*
X034357Y012165D03*
X034367Y012175D03*
X034387Y012185D03*
X034397Y012195D03*
X034417Y012205D03*
X034917Y012025D03*
X034847Y016335D03*
X034857Y016345D03*
X034427Y016345D03*
X034417Y016355D03*
X034077Y016745D03*
X034437Y017135D03*
X034447Y017145D03*
X034867Y017135D03*
X034877Y017125D03*
X034917Y017675D03*
X034417Y017855D03*
X034397Y017845D03*
X034387Y017835D03*
X034367Y017825D03*
X034357Y017815D03*
X034337Y017805D03*
X034327Y017795D03*
X034317Y017785D03*
X034307Y017785D03*
X034297Y017775D03*
X034287Y017765D03*
X034277Y017765D03*
X034267Y017755D03*
X034257Y017745D03*
X034247Y017745D03*
X034237Y017735D03*
X034227Y017725D03*
X034217Y017725D03*
X034207Y017715D03*
X034197Y017705D03*
X034187Y017705D03*
X034177Y017695D03*
X034167Y017685D03*
X034157Y017685D03*
X034147Y017675D03*
X034137Y017665D03*
X034127Y017665D03*
X034117Y017655D03*
X034107Y017645D03*
X034087Y017635D03*
X034077Y017625D03*
X035347Y018675D03*
X036727Y018255D03*
X037247Y018655D03*
D16*
X037167Y018660D03*
X035427Y018670D03*
X035137Y018060D03*
X034527Y018060D03*
X038827Y016740D03*
X038837Y016740D03*
X034347Y015520D03*
X034337Y015520D03*
X034327Y015520D03*
X034317Y015520D03*
X034307Y015520D03*
X034297Y015520D03*
X034287Y015520D03*
X034277Y015520D03*
X034267Y015520D03*
X034257Y015520D03*
X034247Y015520D03*
X034237Y015520D03*
X034227Y015520D03*
X034217Y015520D03*
X034207Y015520D03*
X034197Y015520D03*
X034187Y015520D03*
X034177Y015520D03*
X034167Y015520D03*
X034157Y015520D03*
X034147Y015520D03*
X034137Y015520D03*
X034127Y015520D03*
X034117Y015520D03*
X034107Y015520D03*
X034097Y015520D03*
X034087Y015520D03*
X034077Y015520D03*
X034077Y014510D03*
X034087Y014510D03*
X034097Y014510D03*
X034107Y014510D03*
X034117Y014510D03*
X034127Y014510D03*
X034137Y014510D03*
X034147Y014510D03*
X034157Y014510D03*
X034167Y014510D03*
X034177Y014510D03*
X034187Y014510D03*
X034197Y014510D03*
X034207Y014510D03*
X034217Y014510D03*
X034227Y014510D03*
X034237Y014510D03*
X034247Y014510D03*
X034257Y014510D03*
X034267Y014510D03*
X034277Y014510D03*
X034287Y014510D03*
X034297Y014510D03*
X034307Y014510D03*
X034317Y014510D03*
X034327Y014510D03*
X034337Y014510D03*
X034347Y014510D03*
X036727Y013150D03*
X035907Y012260D03*
X035137Y012410D03*
X034527Y012410D03*
X038337Y012800D03*
X007397Y006090D03*
X007387Y006090D03*
X007377Y006090D03*
X007367Y006090D03*
X007357Y006090D03*
X007347Y006090D03*
X007337Y006090D03*
X007327Y006090D03*
X007317Y006090D03*
X007307Y006090D03*
X007297Y006090D03*
X007287Y006090D03*
X007277Y006090D03*
X007267Y006090D03*
X007257Y006090D03*
X007247Y006090D03*
X007237Y006090D03*
X007227Y006090D03*
X007217Y006090D03*
X007207Y006090D03*
X007197Y006090D03*
X007187Y006090D03*
X007177Y006090D03*
X007167Y006090D03*
X007157Y006090D03*
X007147Y006090D03*
X007137Y006090D03*
X007127Y006090D03*
X007127Y005080D03*
X007137Y005080D03*
X007147Y005080D03*
X007157Y005080D03*
X007167Y005080D03*
X007177Y005080D03*
X007187Y005080D03*
X007197Y005080D03*
X007207Y005080D03*
X007217Y005080D03*
X007227Y005080D03*
X007237Y005080D03*
X007247Y005080D03*
X007257Y005080D03*
X007267Y005080D03*
X007277Y005080D03*
X007287Y005080D03*
X007297Y005080D03*
X007307Y005080D03*
X007317Y005080D03*
X007327Y005080D03*
X007337Y005080D03*
X007347Y005080D03*
X007357Y005080D03*
X007367Y005080D03*
X007377Y005080D03*
X007387Y005080D03*
X007397Y005080D03*
X002647Y003860D03*
X002637Y003860D03*
X004307Y001940D03*
X006047Y001930D03*
X006337Y002540D03*
X006947Y002540D03*
X004747Y007450D03*
X005567Y008340D03*
X006337Y008190D03*
X006947Y008190D03*
X003137Y007800D03*
D17*
X003087Y007800D03*
X004817Y007480D03*
X004827Y007480D03*
X005497Y008310D03*
X006397Y008220D03*
X006887Y008220D03*
X007137Y007120D03*
X007147Y007120D03*
X007157Y007120D03*
X007167Y007120D03*
X007177Y007120D03*
X007187Y007120D03*
X007197Y007120D03*
X007207Y007120D03*
X007217Y007120D03*
X007227Y007120D03*
X007237Y007120D03*
X007247Y007120D03*
X007257Y007120D03*
X007267Y007120D03*
X007277Y007120D03*
X007287Y007120D03*
X007297Y007120D03*
X007307Y007120D03*
X007317Y007120D03*
X007327Y007120D03*
X007337Y007120D03*
X007347Y007120D03*
X007357Y007120D03*
X007367Y007120D03*
X007377Y007120D03*
X007387Y007120D03*
X007397Y007120D03*
X006037Y003840D03*
X006397Y002570D03*
X006887Y002570D03*
X002717Y003860D03*
X002707Y003860D03*
X034077Y013480D03*
X034087Y013480D03*
X034097Y013480D03*
X034107Y013480D03*
X034117Y013480D03*
X034127Y013480D03*
X034137Y013480D03*
X034147Y013480D03*
X034157Y013480D03*
X034167Y013480D03*
X034177Y013480D03*
X034187Y013480D03*
X034197Y013480D03*
X034207Y013480D03*
X034217Y013480D03*
X034227Y013480D03*
X034237Y013480D03*
X034247Y013480D03*
X034257Y013480D03*
X034267Y013480D03*
X034277Y013480D03*
X034287Y013480D03*
X034297Y013480D03*
X034307Y013480D03*
X034317Y013480D03*
X034327Y013480D03*
X034337Y013480D03*
X034587Y012380D03*
X035077Y012380D03*
X035977Y012290D03*
X036647Y013120D03*
X036657Y013120D03*
X038387Y012800D03*
X038757Y016740D03*
X038767Y016740D03*
X035437Y016760D03*
X035077Y018030D03*
X034587Y018030D03*
D18*
X035857Y018230D03*
X036747Y018260D03*
X034937Y017060D03*
X035207Y016740D03*
X034357Y016420D03*
X034087Y016740D03*
X007387Y003860D03*
X007117Y004180D03*
X006267Y003860D03*
X006537Y003540D03*
X005617Y002370D03*
X004727Y002340D03*
D19*
X006777Y002920D03*
X007377Y002960D03*
X007017Y003450D03*
X006997Y003440D03*
X006637Y003450D03*
X006627Y003460D03*
X006617Y003460D03*
X006637Y004270D03*
X006657Y004280D03*
X007017Y004270D03*
X007027Y004260D03*
X007037Y004260D03*
X006777Y008570D03*
X007377Y008610D03*
X034097Y011990D03*
X034697Y012030D03*
X034817Y016320D03*
X034837Y016330D03*
X034457Y016330D03*
X034447Y016340D03*
X034437Y016340D03*
X034457Y017150D03*
X034477Y017160D03*
X034837Y017150D03*
X034847Y017140D03*
X034857Y017140D03*
X034697Y017680D03*
X034097Y017640D03*
D20*
X034097Y016745D03*
X035197Y016735D03*
X037217Y013345D03*
X035407Y012065D03*
X007377Y003855D03*
X006277Y003865D03*
X004257Y007255D03*
X006067Y008535D03*
D21*
X006007Y008510D03*
X005997Y008510D03*
X004127Y007800D03*
X004117Y007800D03*
X004107Y007800D03*
X004097Y007800D03*
X004087Y007800D03*
X004077Y007800D03*
X004067Y007800D03*
X004057Y007800D03*
X004047Y007800D03*
X004037Y007800D03*
X004027Y007800D03*
X004017Y007800D03*
X004007Y007800D03*
X003997Y007800D03*
X003987Y007800D03*
X003977Y007800D03*
X003967Y007800D03*
X003957Y007800D03*
X003947Y007800D03*
X003937Y007800D03*
X003927Y007800D03*
X003917Y007800D03*
X003907Y007800D03*
X003897Y007800D03*
X003887Y007800D03*
X003877Y007800D03*
X003867Y007800D03*
X003857Y007800D03*
X003847Y007800D03*
X003837Y007800D03*
X003827Y007800D03*
X003817Y007800D03*
X003807Y007800D03*
X003797Y007800D03*
X003787Y007800D03*
X003777Y007800D03*
X003767Y007800D03*
X003757Y007800D03*
X003747Y007800D03*
X003737Y007800D03*
X003727Y007800D03*
X003717Y007800D03*
X003707Y007800D03*
X003697Y007800D03*
X003687Y007800D03*
X003677Y007800D03*
X003667Y007800D03*
X003657Y007800D03*
X003647Y007800D03*
X003637Y007800D03*
X003627Y007800D03*
X003617Y007800D03*
X003607Y007800D03*
X003597Y007800D03*
X003587Y007800D03*
X003577Y007800D03*
X003567Y007800D03*
X003557Y007800D03*
X003547Y007800D03*
X003537Y007800D03*
X003527Y007800D03*
X003517Y007800D03*
X003507Y007800D03*
X003497Y007800D03*
X003487Y007800D03*
X003477Y007800D03*
X003467Y007800D03*
X003457Y007800D03*
X003447Y007800D03*
X003437Y007800D03*
X003427Y007800D03*
X003417Y007800D03*
X003407Y007800D03*
X004317Y007280D03*
X004837Y006490D03*
X004847Y006490D03*
X004857Y006490D03*
X005017Y006480D03*
X005027Y006480D03*
X005037Y006470D03*
X003567Y006560D03*
X003557Y006560D03*
X003547Y006560D03*
X003537Y006560D03*
X003477Y006550D03*
X003447Y006540D03*
X003427Y006530D03*
X002947Y006400D03*
X002767Y006470D03*
X002757Y006470D03*
X002747Y006470D03*
X004987Y004560D03*
X004997Y004560D03*
X005007Y004560D03*
X005017Y004570D03*
X005027Y004570D03*
X005037Y004570D03*
X005047Y004570D03*
X005087Y004580D03*
X005097Y004580D03*
X005317Y004570D03*
X005327Y004570D03*
X005337Y004570D03*
X005347Y004560D03*
X005357Y004560D03*
X005367Y004560D03*
X005397Y004550D03*
X006107Y003840D03*
X006287Y003860D03*
X007367Y003860D03*
X005367Y003130D03*
X005357Y003130D03*
X005347Y003130D03*
X005337Y003120D03*
X005327Y003120D03*
X005317Y003120D03*
X005307Y003120D03*
X005267Y003110D03*
X005257Y003110D03*
X005037Y003120D03*
X005027Y003120D03*
X005017Y003120D03*
X004997Y003130D03*
X004987Y003130D03*
X004957Y003140D03*
X004247Y003850D03*
X003377Y003380D03*
X003367Y003380D03*
X003357Y003390D03*
X003347Y003390D03*
X003337Y003390D03*
X003327Y003400D03*
X003317Y003400D03*
X003307Y003410D03*
X003297Y003410D03*
X003287Y003410D03*
X003277Y003420D03*
X003267Y003420D03*
X003257Y003430D03*
X003247Y003430D03*
X003227Y003440D03*
X003217Y003440D03*
X003197Y003450D03*
X003177Y003460D03*
X003147Y003470D03*
X003127Y003480D03*
X003077Y003500D03*
X002247Y003860D03*
X002237Y003860D03*
X002227Y003860D03*
X002867Y004130D03*
X002887Y004140D03*
X002897Y004140D03*
X002917Y004150D03*
X002937Y004160D03*
X002947Y004160D03*
X002957Y004170D03*
X002967Y004170D03*
X002987Y004180D03*
X002997Y004180D03*
X003007Y004190D03*
X003017Y004190D03*
X003037Y004200D03*
X003047Y004200D03*
X003057Y004210D03*
X003067Y004210D03*
X003087Y004220D03*
X003097Y004220D03*
X003107Y004230D03*
X003117Y004230D03*
X003137Y004240D03*
X003157Y004250D03*
X003167Y004250D03*
X003187Y004260D03*
X003207Y004270D03*
X003237Y004280D03*
X003537Y002440D03*
X003547Y002440D03*
X003557Y002440D03*
X003567Y002440D03*
X003477Y002430D03*
X003447Y002420D03*
X003427Y002410D03*
X002947Y002280D03*
X002767Y002350D03*
X002757Y002350D03*
X002747Y002350D03*
X004977Y001250D03*
X004987Y001250D03*
X004997Y001250D03*
X005017Y001240D03*
X005027Y001240D03*
X005037Y001240D03*
X005087Y001230D03*
X005257Y001230D03*
X005267Y001230D03*
X005317Y001240D03*
X005327Y001240D03*
X005337Y001240D03*
X005347Y001240D03*
X005357Y001250D03*
X005367Y001250D03*
X005377Y001250D03*
X035467Y012090D03*
X035477Y012090D03*
X037347Y012800D03*
X037357Y012800D03*
X037367Y012800D03*
X037377Y012800D03*
X037387Y012800D03*
X037397Y012800D03*
X037407Y012800D03*
X037417Y012800D03*
X037427Y012800D03*
X037437Y012800D03*
X037447Y012800D03*
X037457Y012800D03*
X037467Y012800D03*
X037477Y012800D03*
X037487Y012800D03*
X037497Y012800D03*
X037507Y012800D03*
X037517Y012800D03*
X037527Y012800D03*
X037537Y012800D03*
X037547Y012800D03*
X037557Y012800D03*
X037567Y012800D03*
X037577Y012800D03*
X037587Y012800D03*
X037597Y012800D03*
X037607Y012800D03*
X037617Y012800D03*
X037627Y012800D03*
X037637Y012800D03*
X037647Y012800D03*
X037657Y012800D03*
X037667Y012800D03*
X037677Y012800D03*
X037687Y012800D03*
X037697Y012800D03*
X037707Y012800D03*
X037717Y012800D03*
X037727Y012800D03*
X037737Y012800D03*
X037747Y012800D03*
X037757Y012800D03*
X037767Y012800D03*
X037777Y012800D03*
X037787Y012800D03*
X037797Y012800D03*
X037807Y012800D03*
X037817Y012800D03*
X037827Y012800D03*
X037837Y012800D03*
X037847Y012800D03*
X037857Y012800D03*
X037867Y012800D03*
X037877Y012800D03*
X037887Y012800D03*
X037897Y012800D03*
X037907Y012800D03*
X037917Y012800D03*
X037927Y012800D03*
X037937Y012800D03*
X037947Y012800D03*
X037957Y012800D03*
X037967Y012800D03*
X037977Y012800D03*
X037987Y012800D03*
X037997Y012800D03*
X038007Y012800D03*
X038017Y012800D03*
X038027Y012800D03*
X038037Y012800D03*
X038047Y012800D03*
X038057Y012800D03*
X038067Y012800D03*
X037157Y013320D03*
X036637Y014110D03*
X036627Y014110D03*
X036617Y014110D03*
X036457Y014120D03*
X036447Y014120D03*
X036437Y014130D03*
X037907Y014040D03*
X037917Y014040D03*
X037927Y014040D03*
X037937Y014040D03*
X037997Y014050D03*
X038027Y014060D03*
X038047Y014070D03*
X038527Y014200D03*
X038707Y014130D03*
X038717Y014130D03*
X038727Y014130D03*
X036487Y016040D03*
X036477Y016040D03*
X036467Y016040D03*
X036457Y016030D03*
X036447Y016030D03*
X036437Y016030D03*
X036427Y016030D03*
X036387Y016020D03*
X036377Y016020D03*
X036157Y016030D03*
X036147Y016030D03*
X036137Y016030D03*
X036127Y016040D03*
X036117Y016040D03*
X036107Y016040D03*
X036077Y016050D03*
X035367Y016760D03*
X035187Y016740D03*
X034107Y016740D03*
X036107Y017470D03*
X036117Y017470D03*
X036127Y017470D03*
X036137Y017480D03*
X036147Y017480D03*
X036157Y017480D03*
X036167Y017480D03*
X036207Y017490D03*
X036217Y017490D03*
X036437Y017480D03*
X036447Y017480D03*
X036457Y017480D03*
X036477Y017470D03*
X036487Y017470D03*
X036517Y017460D03*
X037227Y016750D03*
X038097Y017220D03*
X038107Y017220D03*
X038117Y017210D03*
X038127Y017210D03*
X038137Y017210D03*
X038147Y017200D03*
X038157Y017200D03*
X038167Y017190D03*
X038177Y017190D03*
X038187Y017190D03*
X038197Y017180D03*
X038207Y017180D03*
X038217Y017170D03*
X038227Y017170D03*
X038247Y017160D03*
X038257Y017160D03*
X038277Y017150D03*
X038297Y017140D03*
X038327Y017130D03*
X038347Y017120D03*
X038397Y017100D03*
X039227Y016740D03*
X039237Y016740D03*
X039247Y016740D03*
X038607Y016470D03*
X038587Y016460D03*
X038577Y016460D03*
X038557Y016450D03*
X038537Y016440D03*
X038527Y016440D03*
X038517Y016430D03*
X038507Y016430D03*
X038487Y016420D03*
X038477Y016420D03*
X038467Y016410D03*
X038457Y016410D03*
X038437Y016400D03*
X038427Y016400D03*
X038417Y016390D03*
X038407Y016390D03*
X038387Y016380D03*
X038377Y016380D03*
X038367Y016370D03*
X038357Y016370D03*
X038337Y016360D03*
X038317Y016350D03*
X038307Y016350D03*
X038287Y016340D03*
X038267Y016330D03*
X038237Y016320D03*
X037937Y018160D03*
X037927Y018160D03*
X037917Y018160D03*
X037907Y018160D03*
X037997Y018170D03*
X038027Y018180D03*
X038047Y018190D03*
X038527Y018320D03*
X038707Y018250D03*
X038717Y018250D03*
X038727Y018250D03*
X036497Y019350D03*
X036487Y019350D03*
X036477Y019350D03*
X036457Y019360D03*
X036447Y019360D03*
X036437Y019360D03*
X036387Y019370D03*
X036217Y019370D03*
X036207Y019370D03*
X036157Y019360D03*
X036147Y019360D03*
X036137Y019360D03*
X036127Y019360D03*
X036117Y019350D03*
X036107Y019350D03*
X036097Y019350D03*
D22*
X035977Y019300D03*
X035957Y019290D03*
X036617Y019300D03*
X036627Y019290D03*
X036637Y019290D03*
X037837Y018180D03*
X038087Y018220D03*
X038777Y018270D03*
X036627Y017410D03*
X035987Y017420D03*
X035967Y017410D03*
X035177Y016740D03*
X034117Y016740D03*
X035967Y016100D03*
X036587Y016080D03*
X036607Y016090D03*
X036627Y016100D03*
X037347Y015960D03*
X037357Y015960D03*
X037377Y015970D03*
X037397Y015980D03*
X037407Y015980D03*
X037427Y015990D03*
X037447Y016000D03*
X037457Y016000D03*
X037477Y016010D03*
X037497Y016020D03*
X037517Y016030D03*
X037527Y016030D03*
X037547Y016040D03*
X037567Y016050D03*
X037597Y016060D03*
X037617Y016070D03*
X037667Y016090D03*
X039187Y016740D03*
X039197Y016740D03*
X038777Y014150D03*
X038087Y014100D03*
X037837Y014060D03*
X036707Y014140D03*
X036387Y014160D03*
X037107Y013300D03*
X038097Y012800D03*
X038567Y013090D03*
X038587Y013100D03*
X038607Y013110D03*
X038637Y013130D03*
X038657Y013140D03*
X038567Y012510D03*
X038597Y012490D03*
X038617Y012480D03*
X038637Y012470D03*
X038647Y012460D03*
X038667Y012450D03*
X038687Y012440D03*
X038697Y012430D03*
X038707Y012430D03*
X038717Y012420D03*
X038727Y012410D03*
X038737Y012410D03*
X038747Y012400D03*
X038757Y012400D03*
X038767Y012390D03*
X038787Y012380D03*
X038797Y012370D03*
X038807Y012370D03*
X038817Y012360D03*
X038837Y012350D03*
X038857Y012340D03*
X038867Y012330D03*
X038887Y012320D03*
X038937Y012290D03*
X035527Y012110D03*
X035517Y012110D03*
X007357Y003860D03*
X006297Y003860D03*
X005507Y004500D03*
X004887Y004520D03*
X004867Y004510D03*
X004847Y004500D03*
X004127Y004640D03*
X004117Y004640D03*
X004097Y004630D03*
X004077Y004620D03*
X004067Y004620D03*
X004047Y004610D03*
X004027Y004600D03*
X004017Y004600D03*
X003997Y004590D03*
X003977Y004580D03*
X003957Y004570D03*
X003947Y004570D03*
X003927Y004560D03*
X003907Y004550D03*
X003877Y004540D03*
X003857Y004530D03*
X003807Y004510D03*
X002287Y003860D03*
X002277Y003860D03*
X004847Y003190D03*
X005487Y003180D03*
X005507Y003190D03*
X003637Y002420D03*
X003387Y002380D03*
X002697Y002330D03*
X004837Y001310D03*
X004847Y001310D03*
X004857Y001300D03*
X005497Y001300D03*
X005517Y001310D03*
X005087Y006440D03*
X004767Y006460D03*
X003637Y006540D03*
X003387Y006500D03*
X002697Y006450D03*
X004367Y007300D03*
X003377Y007800D03*
X002907Y007510D03*
X002887Y007500D03*
X002867Y007490D03*
X002837Y007470D03*
X002817Y007460D03*
X002907Y008090D03*
X002877Y008110D03*
X002857Y008120D03*
X002837Y008130D03*
X002827Y008140D03*
X002807Y008150D03*
X002787Y008160D03*
X002777Y008170D03*
X002767Y008170D03*
X002757Y008180D03*
X002747Y008190D03*
X002737Y008190D03*
X002727Y008200D03*
X002717Y008200D03*
X002707Y008210D03*
X002687Y008220D03*
X002677Y008230D03*
X002667Y008230D03*
X002657Y008240D03*
X002637Y008250D03*
X002617Y008260D03*
X002607Y008270D03*
X002587Y008280D03*
X002537Y008310D03*
X005947Y008490D03*
X005957Y008490D03*
D23*
X005897Y008470D03*
X004417Y007320D03*
X003347Y007800D03*
X002257Y007130D03*
X002227Y007110D03*
X002677Y006430D03*
X003367Y006470D03*
X003667Y006520D03*
X005117Y006410D03*
X004787Y004460D03*
X005567Y004460D03*
X005577Y004450D03*
X006097Y003840D03*
X006307Y003860D03*
X007347Y003860D03*
X005567Y003230D03*
X005557Y003220D03*
X004787Y003230D03*
X004777Y003240D03*
X004257Y003850D03*
X002337Y003860D03*
X002327Y003860D03*
X002677Y002310D03*
X003367Y002350D03*
X003667Y002400D03*
X004777Y001350D03*
X005567Y001340D03*
X005577Y001350D03*
X035577Y012130D03*
X037057Y013280D03*
X038127Y012800D03*
X039217Y013470D03*
X039247Y013490D03*
X038797Y014170D03*
X038107Y014130D03*
X037807Y014080D03*
X036357Y014190D03*
X036687Y016140D03*
X035907Y016140D03*
X035897Y016150D03*
X035377Y016760D03*
X035167Y016740D03*
X034127Y016740D03*
X035907Y017370D03*
X035917Y017380D03*
X036687Y017370D03*
X036697Y017360D03*
X037217Y016750D03*
X039137Y016740D03*
X039147Y016740D03*
X038797Y018290D03*
X038107Y018250D03*
X037807Y018200D03*
X036697Y019250D03*
X035907Y019260D03*
X035897Y019250D03*
D24*
X035857Y019210D03*
X036737Y019210D03*
X035807Y018270D03*
X035867Y017330D03*
X036737Y017320D03*
X038117Y018280D03*
X039087Y016740D03*
X039097Y016740D03*
X036727Y016180D03*
X035857Y016190D03*
X035157Y016740D03*
X034137Y016740D03*
X036757Y014190D03*
X038117Y014160D03*
X037007Y013260D03*
X038157Y012800D03*
X035627Y012150D03*
X007337Y003860D03*
X006317Y003860D03*
X005617Y004410D03*
X004747Y004420D03*
X004737Y003280D03*
X005607Y003270D03*
X005667Y002330D03*
X005617Y001390D03*
X004737Y001390D03*
X003357Y002320D03*
X002387Y003860D03*
X002377Y003860D03*
X003357Y006440D03*
X004717Y006410D03*
X004467Y007340D03*
X003317Y007800D03*
X005847Y008450D03*
D25*
X005817Y008435D03*
X005807Y008435D03*
X004507Y007355D03*
X003287Y007795D03*
X003697Y006475D03*
X006327Y003865D03*
X007327Y003855D03*
X006087Y001925D03*
X005637Y001415D03*
X004717Y001415D03*
X004267Y001945D03*
X003697Y002355D03*
X034147Y016745D03*
X035147Y016735D03*
X037777Y018245D03*
X037207Y018655D03*
X036757Y019185D03*
X035837Y019185D03*
X035387Y018675D03*
X037777Y014125D03*
X036967Y013245D03*
X038187Y012805D03*
X035667Y012165D03*
X035657Y012165D03*
D26*
X035697Y012180D03*
X035707Y012180D03*
X036927Y013230D03*
X038207Y012800D03*
X036767Y016230D03*
X035137Y016740D03*
X034157Y016740D03*
X036777Y017270D03*
X039017Y016740D03*
X039027Y016740D03*
X007317Y003860D03*
X006337Y003860D03*
X004707Y004370D03*
X004697Y003330D03*
X002457Y003860D03*
X002447Y003860D03*
X004547Y007370D03*
X003267Y007800D03*
X005767Y008420D03*
X005777Y008420D03*
D27*
X005737Y008405D03*
X006277Y008125D03*
X004587Y007385D03*
X004577Y007385D03*
X003237Y007795D03*
X006347Y003865D03*
X007307Y003855D03*
X006277Y002475D03*
X035197Y012475D03*
X035737Y012195D03*
X036887Y013215D03*
X036897Y013215D03*
X038237Y012805D03*
X035127Y016735D03*
X034167Y016745D03*
X035197Y018125D03*
D28*
X035187Y018110D03*
X035807Y019130D03*
X035117Y016740D03*
X034177Y016740D03*
X038947Y016740D03*
X038957Y016740D03*
X036857Y013200D03*
X036847Y013200D03*
X038257Y012800D03*
X035777Y012210D03*
X035187Y012460D03*
X007297Y003860D03*
X006357Y003860D03*
X006287Y002490D03*
X005667Y001470D03*
X002527Y003860D03*
X002517Y003860D03*
X004617Y007400D03*
X004627Y007400D03*
X003217Y007800D03*
X005697Y008390D03*
X006287Y008140D03*
D29*
X007007Y008150D03*
X007017Y008150D03*
X005677Y008380D03*
X005667Y008380D03*
X004647Y007410D03*
X003197Y007800D03*
X002547Y003860D03*
X002537Y003860D03*
X004287Y003850D03*
X006067Y003840D03*
X006367Y003860D03*
X007287Y003860D03*
X007017Y002500D03*
X007007Y002500D03*
X004287Y001940D03*
X034187Y016740D03*
X035107Y016740D03*
X035407Y016760D03*
X037187Y016750D03*
X038927Y016740D03*
X038937Y016740D03*
X037187Y018660D03*
X034467Y018100D03*
X034457Y018100D03*
X036827Y013190D03*
X038277Y012800D03*
X035807Y012220D03*
X035797Y012220D03*
X034467Y012450D03*
X034457Y012450D03*
D30*
X034497Y012435D03*
X035167Y012435D03*
X035837Y012235D03*
X036787Y013175D03*
X038297Y012805D03*
X034197Y016745D03*
X034497Y018085D03*
X035167Y018085D03*
X006977Y008165D03*
X006307Y008165D03*
X005637Y008365D03*
X004687Y007425D03*
X003177Y007795D03*
X007277Y003855D03*
X006977Y002515D03*
X006307Y002515D03*
D31*
X006967Y002525D03*
X007267Y003855D03*
X006387Y003865D03*
X004297Y003845D03*
X004707Y007435D03*
X005607Y008355D03*
X006967Y008175D03*
X003157Y007795D03*
X034207Y016745D03*
X035087Y016735D03*
X037177Y016755D03*
X034507Y018075D03*
X036767Y013165D03*
X035867Y012245D03*
X034507Y012425D03*
X038317Y012805D03*
D32*
X036737Y013155D03*
X035897Y012255D03*
X035887Y012255D03*
X034767Y013515D03*
X034757Y013515D03*
X034747Y013515D03*
X034737Y013515D03*
X034727Y013515D03*
X034717Y013515D03*
X034707Y013515D03*
X034697Y013515D03*
X034687Y013515D03*
X034677Y013515D03*
X034667Y013515D03*
X034657Y013515D03*
X034647Y013515D03*
X034637Y013515D03*
X034627Y013515D03*
X034617Y013515D03*
X034607Y013515D03*
X034597Y013515D03*
X034587Y013515D03*
X034577Y013515D03*
X034567Y013515D03*
X034557Y013515D03*
X034547Y013515D03*
X034537Y013515D03*
X034527Y013515D03*
X034217Y016745D03*
X035077Y016735D03*
X038847Y016735D03*
X007257Y003855D03*
X006397Y003865D03*
X002627Y003865D03*
X006707Y007085D03*
X006717Y007085D03*
X006727Y007085D03*
X006737Y007085D03*
X006747Y007085D03*
X006757Y007085D03*
X006767Y007085D03*
X006777Y007085D03*
X006787Y007085D03*
X006797Y007085D03*
X006807Y007085D03*
X006817Y007085D03*
X006827Y007085D03*
X006837Y007085D03*
X006847Y007085D03*
X006857Y007085D03*
X006867Y007085D03*
X006877Y007085D03*
X006887Y007085D03*
X006897Y007085D03*
X006907Y007085D03*
X006917Y007085D03*
X006927Y007085D03*
X006937Y007085D03*
X006947Y007085D03*
X004737Y007445D03*
X005577Y008345D03*
X005587Y008345D03*
D33*
X005557Y008335D03*
X006347Y008195D03*
X006937Y008195D03*
X004757Y007455D03*
X003127Y007795D03*
X004307Y003845D03*
X006047Y003845D03*
X007247Y003855D03*
X006937Y002545D03*
X006347Y002545D03*
X034537Y012405D03*
X035127Y012405D03*
X035917Y012265D03*
X036717Y013145D03*
X038347Y012805D03*
X037167Y016755D03*
X035427Y016755D03*
X034227Y016745D03*
X034537Y018055D03*
X035127Y018055D03*
D34*
X035107Y018045D03*
X034557Y018045D03*
X034237Y016745D03*
X035057Y016735D03*
X036687Y013135D03*
X035947Y012275D03*
X035937Y012275D03*
X035107Y012395D03*
X034557Y012395D03*
X038367Y012805D03*
X007237Y003855D03*
X006417Y003865D03*
X006367Y002555D03*
X006917Y002555D03*
X004787Y007465D03*
X005527Y008325D03*
X005537Y008325D03*
X006367Y008205D03*
X006917Y008205D03*
X003107Y007795D03*
D35*
X004807Y007475D03*
X005507Y008315D03*
X006387Y008215D03*
X006897Y008215D03*
X006517Y007115D03*
X006507Y007115D03*
X006497Y007115D03*
X006487Y007115D03*
X006477Y007115D03*
X006467Y007115D03*
X006457Y007115D03*
X006447Y007115D03*
X006437Y007115D03*
X006427Y007115D03*
X006417Y007115D03*
X006407Y007115D03*
X006397Y007115D03*
X006387Y007115D03*
X006377Y007115D03*
X006367Y007115D03*
X006357Y007115D03*
X006347Y007115D03*
X006337Y007115D03*
X006327Y007115D03*
X006317Y007115D03*
X006307Y007115D03*
X006297Y007115D03*
X006287Y007115D03*
X006277Y007115D03*
X006267Y007115D03*
X006257Y007115D03*
X006427Y003865D03*
X007227Y003855D03*
X006897Y002565D03*
X006387Y002565D03*
X004317Y003845D03*
X034247Y016745D03*
X035047Y016735D03*
X037157Y016755D03*
X035087Y018035D03*
X034577Y018035D03*
X034957Y013485D03*
X034967Y013485D03*
X034977Y013485D03*
X034987Y013485D03*
X034997Y013485D03*
X035007Y013485D03*
X035017Y013485D03*
X035027Y013485D03*
X035037Y013485D03*
X035047Y013485D03*
X035057Y013485D03*
X035067Y013485D03*
X035077Y013485D03*
X035087Y013485D03*
X035097Y013485D03*
X035107Y013485D03*
X035117Y013485D03*
X035127Y013485D03*
X035137Y013485D03*
X035147Y013485D03*
X035157Y013485D03*
X035167Y013485D03*
X035177Y013485D03*
X035187Y013485D03*
X035197Y013485D03*
X035207Y013485D03*
X035217Y013485D03*
X036667Y013125D03*
X035967Y012285D03*
X035087Y012385D03*
X034577Y012385D03*
D36*
X034597Y012375D03*
X035057Y012375D03*
X035067Y012375D03*
X035987Y012295D03*
X035997Y012295D03*
X036637Y013115D03*
X038397Y012805D03*
X035037Y016735D03*
X034257Y016745D03*
X034597Y018025D03*
X035057Y018025D03*
X035067Y018025D03*
X006877Y008225D03*
X006417Y008225D03*
X006407Y008225D03*
X005487Y008305D03*
X005477Y008305D03*
X004837Y007485D03*
X003077Y007795D03*
X006437Y003865D03*
X007217Y003855D03*
X006877Y002575D03*
X006417Y002575D03*
X006407Y002575D03*
D37*
X006437Y002585D03*
X006447Y002585D03*
X006837Y002585D03*
X006847Y002585D03*
X007207Y003855D03*
X004857Y007495D03*
X005457Y008295D03*
X006437Y008235D03*
X006447Y008235D03*
X006837Y008235D03*
X006847Y008235D03*
X003057Y007795D03*
X034267Y016745D03*
X034627Y018015D03*
X034637Y018015D03*
X035027Y018015D03*
X035037Y018015D03*
X036617Y013105D03*
X036017Y012305D03*
X035037Y012365D03*
X035027Y012365D03*
X034637Y012365D03*
X034627Y012365D03*
X038417Y012805D03*
D38*
X038427Y012800D03*
X036607Y013100D03*
X036597Y013100D03*
X036037Y012310D03*
X036027Y012310D03*
X035017Y012360D03*
X035007Y012360D03*
X034657Y012360D03*
X034647Y012360D03*
X035017Y016740D03*
X035447Y016760D03*
X034277Y016740D03*
X034647Y018010D03*
X034657Y018010D03*
X035007Y018010D03*
X035017Y018010D03*
X037147Y016750D03*
X038707Y016740D03*
X038717Y016740D03*
X038727Y016740D03*
X007197Y003860D03*
X006457Y003860D03*
X006027Y003840D03*
X004327Y003850D03*
X002767Y003860D03*
X002757Y003860D03*
X002747Y003860D03*
X006457Y002590D03*
X006467Y002590D03*
X006817Y002590D03*
X006827Y002590D03*
X004877Y007500D03*
X004867Y007500D03*
X005437Y008290D03*
X005447Y008290D03*
X006457Y008240D03*
X006467Y008240D03*
X006817Y008240D03*
X006827Y008240D03*
X003047Y007800D03*
D39*
X003037Y007800D03*
X004897Y007510D03*
X005417Y008280D03*
X006497Y008250D03*
X006507Y008250D03*
X006517Y008250D03*
X004257Y005610D03*
X002787Y003860D03*
X002777Y003860D03*
X004337Y001940D03*
X006257Y001460D03*
X006267Y001460D03*
X006277Y001460D03*
X006287Y001460D03*
X006297Y001460D03*
X006307Y001460D03*
X006317Y001460D03*
X006327Y001460D03*
X006337Y001460D03*
X006347Y001460D03*
X006357Y001460D03*
X006367Y001460D03*
X006377Y001460D03*
X006387Y001460D03*
X006397Y001460D03*
X006407Y001460D03*
X006417Y001460D03*
X006427Y001460D03*
X006437Y001460D03*
X006447Y001460D03*
X006457Y001460D03*
X006467Y001460D03*
X006477Y001460D03*
X006487Y001460D03*
X006497Y001460D03*
X006507Y001460D03*
X006517Y001460D03*
X006527Y001460D03*
X006517Y002600D03*
X006507Y002600D03*
X006497Y002600D03*
X006467Y003860D03*
X007187Y003860D03*
X034287Y016740D03*
X035007Y016740D03*
X034977Y018000D03*
X034967Y018000D03*
X034957Y018000D03*
X034957Y019140D03*
X034967Y019140D03*
X034977Y019140D03*
X034987Y019140D03*
X034997Y019140D03*
X035007Y019140D03*
X035017Y019140D03*
X035027Y019140D03*
X035037Y019140D03*
X035047Y019140D03*
X035057Y019140D03*
X035067Y019140D03*
X035077Y019140D03*
X035087Y019140D03*
X035097Y019140D03*
X035107Y019140D03*
X035117Y019140D03*
X035127Y019140D03*
X035137Y019140D03*
X035147Y019140D03*
X035157Y019140D03*
X035167Y019140D03*
X035177Y019140D03*
X035187Y019140D03*
X035197Y019140D03*
X035207Y019140D03*
X035217Y019140D03*
X034947Y019140D03*
X037137Y018660D03*
X038687Y016740D03*
X038697Y016740D03*
X037217Y014990D03*
X036577Y013090D03*
X036057Y012320D03*
X034977Y012350D03*
X034967Y012350D03*
X034957Y012350D03*
X038437Y012800D03*
D40*
X038447Y012805D03*
X036567Y013085D03*
X036557Y013085D03*
X036067Y012325D03*
X034947Y012345D03*
X034297Y016745D03*
X034947Y017995D03*
X037137Y016755D03*
X007177Y003855D03*
X006527Y002605D03*
X004337Y003845D03*
X004907Y007515D03*
X004917Y007515D03*
X005407Y008275D03*
X006527Y008255D03*
X003027Y007795D03*
D41*
X004937Y007525D03*
X005377Y008265D03*
X007167Y003855D03*
X006007Y001925D03*
X034307Y016745D03*
X035467Y018675D03*
X036537Y013075D03*
X036097Y012335D03*
D42*
X036107Y012340D03*
X036527Y013070D03*
X038467Y012800D03*
X038477Y012800D03*
X038637Y016740D03*
X038647Y016740D03*
X038657Y016740D03*
X035467Y016760D03*
X034977Y016740D03*
X034317Y016740D03*
X037127Y018660D03*
X007157Y003860D03*
X006497Y003860D03*
X006007Y003840D03*
X002837Y003860D03*
X002827Y003860D03*
X002817Y003860D03*
X004347Y001940D03*
X004947Y007530D03*
X005367Y008260D03*
X003007Y007800D03*
X002997Y007800D03*
D43*
X002987Y007800D03*
X004977Y007540D03*
X005337Y008250D03*
X005347Y008250D03*
X006507Y003860D03*
X006517Y003860D03*
X007137Y003860D03*
X007147Y003860D03*
X005997Y001930D03*
X004357Y001940D03*
X002847Y003860D03*
X034327Y016740D03*
X034337Y016740D03*
X034957Y016740D03*
X034967Y016740D03*
X035477Y018670D03*
X037117Y018660D03*
X038627Y016740D03*
X036497Y013060D03*
X036137Y012350D03*
X036127Y012350D03*
X038487Y012800D03*
D44*
X034927Y012030D03*
X034687Y012040D03*
X034407Y012200D03*
X034377Y012180D03*
X034347Y012160D03*
X034867Y016350D03*
X034877Y016360D03*
X035217Y016740D03*
X034427Y017130D03*
X034687Y017690D03*
X034927Y017680D03*
X034407Y017850D03*
X034377Y017830D03*
X034347Y017810D03*
X035877Y018230D03*
X007127Y008440D03*
X007097Y008420D03*
X007067Y008400D03*
X006787Y008560D03*
X006547Y008570D03*
X006607Y004250D03*
X006597Y004240D03*
X006257Y003860D03*
X007047Y003470D03*
X006787Y002910D03*
X006547Y002920D03*
X007067Y002750D03*
X007097Y002770D03*
X007127Y002790D03*
X005597Y002370D03*
D45*
X004237Y001940D03*
X007127Y003560D03*
X007127Y004160D03*
X006527Y004160D03*
X006077Y008540D03*
X034347Y016440D03*
X034947Y016440D03*
X034347Y017040D03*
X037237Y018660D03*
X035397Y012060D03*
D46*
X035377Y012050D03*
X034937Y016420D03*
X035357Y016760D03*
X034357Y017060D03*
X007117Y003540D03*
X006537Y004180D03*
X006117Y003840D03*
X006097Y008550D03*
D47*
X006547Y004195D03*
X007107Y004195D03*
X007107Y003525D03*
X006547Y003525D03*
X034367Y016405D03*
X034927Y016405D03*
X034927Y017075D03*
X034367Y017075D03*
D48*
X034377Y017090D03*
X034917Y016390D03*
X007097Y003510D03*
X006557Y004210D03*
D49*
X006567Y004215D03*
X007097Y004205D03*
X007087Y003505D03*
X006557Y003515D03*
X006537Y002905D03*
X006537Y008555D03*
X034377Y016395D03*
X034907Y016385D03*
X034917Y017085D03*
X034387Y017095D03*
X034937Y017695D03*
X034937Y012045D03*
D50*
X034677Y012060D03*
X034897Y016370D03*
X034387Y016380D03*
X034397Y017110D03*
X034907Y017100D03*
X034677Y017710D03*
X035867Y018230D03*
X036737Y018250D03*
X007087Y004220D03*
X006577Y004230D03*
X006567Y003500D03*
X007077Y003490D03*
X006797Y002890D03*
X005607Y002370D03*
X004737Y002350D03*
X006797Y008540D03*
D51*
X006587Y004235D03*
X007067Y004235D03*
X007077Y004225D03*
X007067Y003485D03*
X007057Y003475D03*
X006587Y003485D03*
X006577Y003495D03*
X034397Y016375D03*
X034407Y016365D03*
X034887Y016365D03*
X034897Y017105D03*
X034887Y017115D03*
X034417Y017125D03*
X034407Y017115D03*
D52*
X035097Y016740D03*
X034437Y018090D03*
X034427Y018090D03*
X038897Y016740D03*
X038907Y016740D03*
X038917Y016740D03*
X036807Y013180D03*
X036797Y013180D03*
X035827Y012230D03*
X034437Y012440D03*
X034427Y012440D03*
X007047Y008160D03*
X007037Y008160D03*
X005647Y008370D03*
X004677Y007420D03*
X004667Y007420D03*
X006377Y003860D03*
X007037Y002510D03*
X007047Y002510D03*
X002577Y003860D03*
X002567Y003860D03*
X002557Y003860D03*
D53*
X004677Y004305D03*
X005677Y004305D03*
X005677Y003385D03*
X004677Y003385D03*
X006297Y002505D03*
X006987Y002505D03*
X007027Y002505D03*
X004657Y007415D03*
X003187Y007795D03*
X005657Y008375D03*
X006297Y008155D03*
X006987Y008155D03*
X007027Y008155D03*
X034447Y012445D03*
X034487Y012445D03*
X035177Y012445D03*
X035817Y012225D03*
X036817Y013185D03*
X038287Y012805D03*
X036797Y016295D03*
X035797Y016295D03*
X035797Y017215D03*
X036797Y017215D03*
X035177Y018095D03*
X034487Y018095D03*
X034447Y018095D03*
D54*
X034707Y017675D03*
X034717Y017665D03*
X034907Y017665D03*
X034807Y017165D03*
X034797Y017165D03*
X034827Y017155D03*
X034517Y017175D03*
X034497Y017165D03*
X034487Y017165D03*
X034467Y017155D03*
X034467Y016325D03*
X034487Y016315D03*
X034497Y016315D03*
X034777Y016305D03*
X034797Y016315D03*
X034807Y016315D03*
X034827Y016325D03*
X035887Y018225D03*
X034907Y012015D03*
X034717Y012015D03*
X034707Y012025D03*
X006767Y008575D03*
X006757Y008585D03*
X006567Y008585D03*
X006697Y004295D03*
X006677Y004285D03*
X006667Y004285D03*
X006647Y004275D03*
X006977Y004285D03*
X006987Y004285D03*
X007007Y004275D03*
X007007Y003445D03*
X006987Y003435D03*
X006977Y003435D03*
X006957Y003425D03*
X006677Y003435D03*
X006667Y003435D03*
X006647Y003445D03*
X006567Y002935D03*
X006757Y002935D03*
X006767Y002925D03*
X005587Y002375D03*
D55*
X006067Y001925D03*
X006997Y002495D03*
X004637Y007405D03*
X003207Y007795D03*
X005687Y008385D03*
X006997Y008145D03*
X034477Y012455D03*
X035787Y012215D03*
X036837Y013195D03*
X038267Y012805D03*
X034477Y018105D03*
X035407Y018675D03*
D56*
X036717Y018250D03*
X034897Y017660D03*
X034887Y017650D03*
X034877Y017650D03*
X034727Y017660D03*
X034717Y017190D03*
X034757Y017180D03*
X034767Y017180D03*
X034777Y017170D03*
X034787Y017170D03*
X034817Y017160D03*
X034577Y017190D03*
X034547Y017180D03*
X034537Y017180D03*
X034527Y017180D03*
X034507Y017170D03*
X035347Y016760D03*
X034787Y016310D03*
X034767Y016300D03*
X034757Y016300D03*
X034747Y016300D03*
X034717Y016290D03*
X034537Y016300D03*
X034527Y016300D03*
X034517Y016310D03*
X034507Y016310D03*
X034477Y016320D03*
X034727Y012010D03*
X034877Y012000D03*
X034887Y012000D03*
X034897Y012010D03*
X006747Y008590D03*
X006597Y008600D03*
X006587Y008600D03*
X006577Y008590D03*
X006757Y004310D03*
X006727Y004300D03*
X006717Y004300D03*
X006707Y004300D03*
X006687Y004290D03*
X006937Y004300D03*
X006947Y004300D03*
X006957Y004290D03*
X006967Y004290D03*
X006997Y004280D03*
X006127Y003840D03*
X006657Y003440D03*
X006687Y003430D03*
X006697Y003430D03*
X006707Y003420D03*
X006717Y003420D03*
X006757Y003410D03*
X006897Y003410D03*
X006927Y003420D03*
X006937Y003420D03*
X006947Y003420D03*
X006967Y003430D03*
X006747Y002940D03*
X006597Y002950D03*
X006587Y002950D03*
X006577Y002940D03*
X004757Y002350D03*
D57*
X006327Y002530D03*
X006957Y002530D03*
X002617Y003860D03*
X002607Y003860D03*
X004717Y007440D03*
X004727Y007440D03*
X005597Y008350D03*
X006327Y008180D03*
X006957Y008180D03*
X003147Y007800D03*
X034517Y012420D03*
X035147Y012420D03*
X035877Y012250D03*
X036747Y013160D03*
X036757Y013160D03*
X038327Y012800D03*
X038857Y016740D03*
X038867Y016740D03*
X035147Y018070D03*
X034517Y018070D03*
D58*
X034547Y018050D03*
X035117Y018050D03*
X035067Y016740D03*
X038807Y016740D03*
X038817Y016740D03*
X036707Y013140D03*
X036697Y013140D03*
X035927Y012270D03*
X035117Y012400D03*
X034547Y012400D03*
X038357Y012800D03*
X006927Y008200D03*
X006357Y008200D03*
X005547Y008330D03*
X004777Y007460D03*
X004767Y007460D03*
X003117Y007800D03*
X002667Y003860D03*
X002657Y003860D03*
X006407Y003860D03*
X006357Y002550D03*
X006927Y002550D03*
D59*
X006737Y002945D03*
X006707Y002955D03*
X006617Y002955D03*
X006607Y002955D03*
X006727Y003415D03*
X006737Y003415D03*
X006747Y003415D03*
X006767Y003405D03*
X006777Y003405D03*
X006787Y003405D03*
X006797Y003405D03*
X006807Y003405D03*
X006817Y003405D03*
X006827Y003405D03*
X006837Y003405D03*
X006847Y003405D03*
X006857Y003405D03*
X006867Y003405D03*
X006877Y003405D03*
X006887Y003405D03*
X006907Y003415D03*
X006917Y003415D03*
X006917Y004305D03*
X006927Y004305D03*
X006907Y004305D03*
X006897Y004305D03*
X006887Y004315D03*
X006877Y004315D03*
X006867Y004315D03*
X006857Y004315D03*
X006847Y004315D03*
X006837Y004315D03*
X006827Y004315D03*
X006817Y004315D03*
X006807Y004315D03*
X006797Y004315D03*
X006787Y004315D03*
X006777Y004315D03*
X006767Y004315D03*
X006747Y004305D03*
X006737Y004305D03*
X004227Y003845D03*
X006607Y008605D03*
X006617Y008605D03*
X006707Y008605D03*
X006737Y008595D03*
X034737Y012005D03*
X034767Y011995D03*
X034857Y011995D03*
X034867Y011995D03*
X034707Y016285D03*
X034697Y016285D03*
X034687Y016285D03*
X034677Y016285D03*
X034667Y016285D03*
X034657Y016285D03*
X034647Y016285D03*
X034637Y016285D03*
X034627Y016285D03*
X034617Y016285D03*
X034607Y016285D03*
X034597Y016285D03*
X034587Y016285D03*
X034577Y016295D03*
X034567Y016295D03*
X034557Y016295D03*
X034547Y016295D03*
X034727Y016295D03*
X034737Y016295D03*
X034737Y017185D03*
X034747Y017185D03*
X034727Y017185D03*
X034707Y017195D03*
X034697Y017195D03*
X034687Y017195D03*
X034677Y017195D03*
X034667Y017195D03*
X034657Y017195D03*
X034647Y017195D03*
X034637Y017195D03*
X034627Y017195D03*
X034617Y017195D03*
X034607Y017195D03*
X034597Y017195D03*
X034587Y017195D03*
X034567Y017185D03*
X034557Y017185D03*
X034737Y017655D03*
X034767Y017645D03*
X034857Y017645D03*
X034867Y017645D03*
X037247Y016755D03*
D60*
X038777Y016740D03*
X038787Y016740D03*
X038797Y016740D03*
X037157Y018660D03*
X035437Y018670D03*
X035097Y018040D03*
X034567Y018040D03*
X036677Y013130D03*
X035957Y012280D03*
X035097Y012390D03*
X034567Y012390D03*
X038377Y012800D03*
X006907Y008210D03*
X006377Y008210D03*
X005517Y008320D03*
X004797Y007470D03*
X003097Y007800D03*
X002697Y003860D03*
X002687Y003860D03*
X002677Y003860D03*
X004317Y001940D03*
X006037Y001930D03*
X006377Y002560D03*
X006907Y002560D03*
D61*
X006867Y002580D03*
X006857Y002580D03*
X006427Y002580D03*
X006027Y001930D03*
X004327Y001940D03*
X002737Y003860D03*
X002727Y003860D03*
X006447Y003860D03*
X004847Y007490D03*
X005467Y008300D03*
X006427Y008230D03*
X006857Y008230D03*
X006867Y008230D03*
X003067Y007800D03*
X034607Y012370D03*
X034617Y012370D03*
X035047Y012370D03*
X036007Y012300D03*
X036627Y013110D03*
X038407Y012800D03*
X038737Y016740D03*
X038747Y016740D03*
X037147Y018660D03*
X035447Y018670D03*
X035047Y018020D03*
X034617Y018020D03*
X034607Y018020D03*
X035027Y016740D03*
D62*
X034997Y018005D03*
X034987Y018005D03*
X034667Y018005D03*
X035457Y018675D03*
X036587Y013095D03*
X036047Y012315D03*
X034997Y012355D03*
X034987Y012355D03*
X034667Y012355D03*
X006807Y008245D03*
X006487Y008245D03*
X006477Y008245D03*
X005427Y008285D03*
X004887Y007505D03*
X006477Y002595D03*
X006487Y002595D03*
X006807Y002595D03*
X006017Y001925D03*
D63*
X006117Y001925D03*
X005627Y002365D03*
X004717Y002335D03*
X006527Y003555D03*
X006087Y008545D03*
X034947Y017045D03*
X035847Y018235D03*
X035357Y018675D03*
X036757Y018265D03*
X035387Y012055D03*
D64*
X036077Y012330D03*
X036087Y012330D03*
X036547Y013080D03*
X038457Y012800D03*
X038667Y016740D03*
X038677Y016740D03*
X035457Y016760D03*
X034997Y016740D03*
X034987Y016740D03*
X006487Y003860D03*
X006477Y003860D03*
X006017Y003840D03*
X002807Y003860D03*
X002797Y003860D03*
X004927Y007520D03*
X005387Y008270D03*
X005397Y008270D03*
X003017Y007800D03*
D65*
X003167Y007800D03*
X004697Y007430D03*
X005617Y008360D03*
X005627Y008360D03*
X006317Y008170D03*
X006057Y003840D03*
X006317Y002520D03*
X006057Y001930D03*
X004297Y001940D03*
X002597Y003860D03*
X002587Y003860D03*
X035157Y012430D03*
X035847Y012240D03*
X035857Y012240D03*
X036777Y013170D03*
X038307Y012800D03*
X038877Y016740D03*
X038887Y016740D03*
X035417Y016760D03*
X035157Y018080D03*
X035417Y018670D03*
X037177Y018660D03*
D66*
X035827Y019175D03*
X035207Y018145D03*
X035827Y017285D03*
X036767Y017285D03*
X035827Y016225D03*
X036937Y013235D03*
X036947Y013235D03*
X035687Y012175D03*
X035207Y012495D03*
X006267Y008105D03*
X005787Y008425D03*
X004537Y007365D03*
X004527Y007365D03*
X005647Y004375D03*
X005647Y003315D03*
X004707Y003315D03*
X006267Y002455D03*
X005647Y001425D03*
D67*
X005607Y001375D03*
X006257Y002425D03*
X005597Y003255D03*
X004747Y003265D03*
X003687Y002375D03*
X004757Y004435D03*
X005607Y004425D03*
X003687Y006495D03*
X004457Y007335D03*
X006257Y008075D03*
X005867Y008455D03*
X005857Y008455D03*
X035217Y012525D03*
X035607Y012145D03*
X035617Y012145D03*
X037017Y013265D03*
X037787Y014105D03*
X036717Y016165D03*
X035867Y016175D03*
X035877Y017345D03*
X036727Y017335D03*
X037787Y018225D03*
X035867Y019225D03*
X035217Y018175D03*
D68*
X035237Y016740D03*
X006237Y003860D03*
D69*
X006137Y001915D03*
X004217Y001935D03*
X035337Y018685D03*
X037257Y018665D03*
D70*
X036627Y018260D03*
X035977Y018240D03*
X035337Y016760D03*
X037257Y016750D03*
X006137Y003840D03*
X004217Y003850D03*
X004847Y002340D03*
X005497Y002360D03*
D71*
X006107Y001930D03*
X005457Y001280D03*
X005447Y001280D03*
X005437Y001270D03*
X005427Y001270D03*
X004927Y001270D03*
X004917Y001270D03*
X004907Y001280D03*
X004897Y001280D03*
X004877Y001290D03*
X004247Y001940D03*
X003617Y002430D03*
X003607Y002430D03*
X002727Y002340D03*
X002717Y002340D03*
X004107Y003080D03*
X004087Y003090D03*
X004057Y003100D03*
X004037Y003110D03*
X004017Y003120D03*
X004007Y003120D03*
X003987Y003130D03*
X003967Y003140D03*
X003957Y003140D03*
X003937Y003150D03*
X003917Y003160D03*
X003907Y003160D03*
X003897Y003170D03*
X003887Y003170D03*
X003867Y003180D03*
X003857Y003180D03*
X003847Y003190D03*
X003837Y003190D03*
X003827Y003200D03*
X003817Y003200D03*
X003807Y003200D03*
X003797Y003210D03*
X004897Y003160D03*
X004907Y003160D03*
X004927Y003150D03*
X005397Y003140D03*
X005417Y003150D03*
X005427Y003150D03*
X005447Y003160D03*
X005447Y004530D03*
X005457Y004530D03*
X005427Y004540D03*
X004957Y004550D03*
X004937Y004540D03*
X004927Y004540D03*
X004917Y004530D03*
X004907Y004530D03*
X003357Y004330D03*
X002267Y003860D03*
X002257Y003860D03*
X002717Y006460D03*
X002727Y006460D03*
X003607Y006550D03*
X003617Y006550D03*
X004787Y006470D03*
X005067Y006460D03*
X005077Y006450D03*
X004347Y007290D03*
X004337Y007290D03*
X003397Y007800D03*
X005977Y008500D03*
X035497Y012100D03*
X037127Y013310D03*
X037137Y013310D03*
X038077Y012800D03*
X037867Y014050D03*
X037857Y014050D03*
X038747Y014140D03*
X038757Y014140D03*
X036687Y014130D03*
X036407Y014140D03*
X036397Y014150D03*
X036517Y016050D03*
X036537Y016060D03*
X036547Y016060D03*
X036557Y016070D03*
X036567Y016070D03*
X036047Y016060D03*
X036027Y016070D03*
X036017Y016070D03*
X038117Y016270D03*
X039207Y016740D03*
X039217Y016740D03*
X037677Y017390D03*
X037667Y017400D03*
X037657Y017400D03*
X037647Y017400D03*
X037637Y017410D03*
X037627Y017410D03*
X037617Y017420D03*
X037607Y017420D03*
X037587Y017430D03*
X037577Y017430D03*
X037567Y017440D03*
X037557Y017440D03*
X037537Y017450D03*
X037517Y017460D03*
X037507Y017460D03*
X037487Y017470D03*
X037467Y017480D03*
X037457Y017480D03*
X037437Y017490D03*
X037417Y017500D03*
X037387Y017510D03*
X037367Y017520D03*
X036577Y017440D03*
X036567Y017440D03*
X036547Y017450D03*
X036077Y017460D03*
X036057Y017450D03*
X036047Y017450D03*
X036027Y017440D03*
X037857Y018170D03*
X037867Y018170D03*
X037227Y018660D03*
X036597Y019310D03*
X036577Y019320D03*
X036567Y019320D03*
X036557Y019330D03*
X036547Y019330D03*
X036047Y019330D03*
X036037Y019330D03*
X036027Y019320D03*
X036017Y019320D03*
X035367Y018670D03*
X038747Y018260D03*
X038757Y018260D03*
D72*
X037797Y018215D03*
X036717Y017345D03*
X036707Y017355D03*
X035897Y017365D03*
X035887Y016155D03*
X036747Y014175D03*
X037797Y014095D03*
X037047Y013275D03*
X037037Y013275D03*
X038137Y012805D03*
X035587Y012135D03*
X035377Y018675D03*
X035887Y019245D03*
X036707Y019235D03*
X005887Y008465D03*
X004437Y007325D03*
X004427Y007325D03*
X003337Y007795D03*
X003677Y006505D03*
X004727Y006425D03*
X005587Y004445D03*
X005577Y003235D03*
X004767Y003245D03*
X004757Y003255D03*
X003677Y002385D03*
X004767Y001365D03*
X005587Y001355D03*
X006097Y001925D03*
D73*
X002917Y002310D03*
X002907Y002320D03*
X002817Y002350D03*
X002807Y002350D03*
X002797Y002350D03*
X002787Y002350D03*
X002777Y002350D03*
X002907Y003570D03*
X002857Y003590D03*
X002217Y003860D03*
X004707Y005370D03*
X004717Y005370D03*
X004727Y005370D03*
X004737Y005370D03*
X004747Y005370D03*
X004757Y005370D03*
X004767Y005370D03*
X004777Y005370D03*
X004787Y005370D03*
X004797Y005370D03*
X004807Y005370D03*
X004817Y005370D03*
X004827Y005370D03*
X004837Y005370D03*
X004847Y005370D03*
X004857Y005370D03*
X004867Y005370D03*
X004877Y005370D03*
X004887Y005370D03*
X004897Y005370D03*
X004907Y005370D03*
X004917Y005370D03*
X004927Y005370D03*
X004937Y005370D03*
X004947Y005370D03*
X004957Y005370D03*
X004967Y005370D03*
X004977Y005370D03*
X004987Y005370D03*
X004997Y005370D03*
X005007Y005370D03*
X005017Y005370D03*
X005027Y005370D03*
X005037Y005370D03*
X005047Y005370D03*
X005057Y005370D03*
X005067Y005370D03*
X005077Y005370D03*
X005087Y005370D03*
X005097Y005370D03*
X005107Y005370D03*
X005117Y005370D03*
X005127Y005370D03*
X005137Y005370D03*
X005547Y005370D03*
X005557Y005370D03*
X005567Y005370D03*
X005577Y005370D03*
X005587Y005370D03*
X005597Y005370D03*
X005607Y005370D03*
X005617Y005370D03*
X005627Y005370D03*
X005637Y005370D03*
X005647Y005370D03*
X005657Y005370D03*
X005667Y005370D03*
X005677Y005370D03*
X005687Y005370D03*
X005697Y005370D03*
X005707Y005370D03*
X005717Y005370D03*
X005727Y005370D03*
X005737Y005370D03*
X005747Y005370D03*
X005757Y005370D03*
X005767Y005370D03*
X005777Y005370D03*
X005787Y005370D03*
X005797Y005370D03*
X005807Y005370D03*
X005817Y005370D03*
X005827Y005370D03*
X005837Y005370D03*
X005847Y005370D03*
X005857Y005370D03*
X005867Y005370D03*
X005877Y005370D03*
X005887Y005370D03*
X005897Y005370D03*
X005907Y005370D03*
X005917Y005370D03*
X005927Y005370D03*
X005937Y005370D03*
X005947Y005370D03*
X005957Y005370D03*
X005967Y005370D03*
X005977Y005370D03*
X005987Y005370D03*
X005997Y005370D03*
X006007Y005370D03*
X006017Y005370D03*
X006027Y005370D03*
X006037Y005370D03*
X006047Y005370D03*
X006057Y005370D03*
X006067Y005370D03*
X006077Y005370D03*
X006087Y005370D03*
X006097Y005370D03*
X004977Y006490D03*
X004967Y006490D03*
X005097Y007270D03*
X005107Y007270D03*
X005117Y007270D03*
X005127Y007270D03*
X005137Y007270D03*
X005147Y007270D03*
X005157Y007270D03*
X005167Y007270D03*
X005177Y007270D03*
X005187Y007270D03*
X005197Y007270D03*
X005207Y007270D03*
X005217Y007270D03*
X005227Y007270D03*
X005237Y007270D03*
X005247Y007270D03*
X005257Y007270D03*
X005267Y007270D03*
X005277Y007270D03*
X005287Y007270D03*
X005297Y007270D03*
X005307Y007270D03*
X005317Y007270D03*
X005327Y007270D03*
X005337Y007270D03*
X005347Y007270D03*
X005357Y007270D03*
X005367Y007270D03*
X005377Y007270D03*
X005387Y007270D03*
X005397Y007270D03*
X005407Y007270D03*
X005417Y007270D03*
X005427Y007270D03*
X005437Y007270D03*
X005447Y007270D03*
X005457Y007270D03*
X005467Y007270D03*
X005477Y007270D03*
X005487Y007270D03*
X005497Y007270D03*
X005507Y007270D03*
X005517Y007270D03*
X005527Y007270D03*
X005537Y007270D03*
X005547Y007270D03*
X005557Y007270D03*
X005567Y007270D03*
X005577Y007270D03*
X005587Y007270D03*
X005597Y007270D03*
X005607Y007270D03*
X005617Y007270D03*
X005627Y007270D03*
X005637Y007270D03*
X005647Y007270D03*
X005657Y007270D03*
X005667Y007270D03*
X005677Y007270D03*
X005687Y007270D03*
X005697Y007270D03*
X005707Y007270D03*
X005717Y007270D03*
X005727Y007270D03*
X005737Y007270D03*
X005747Y007270D03*
X005757Y007270D03*
X005767Y007270D03*
X005777Y007270D03*
X005787Y007270D03*
X005797Y007270D03*
X005807Y007270D03*
X005817Y007270D03*
X005827Y007270D03*
X005837Y007270D03*
X005847Y007270D03*
X005857Y007270D03*
X005867Y007270D03*
X005877Y007270D03*
X005887Y007270D03*
X005897Y007270D03*
X005907Y007270D03*
X005917Y007270D03*
X005927Y007270D03*
X005937Y007270D03*
X005947Y007270D03*
X005957Y007270D03*
X005967Y007270D03*
X005977Y007270D03*
X005987Y007270D03*
X005997Y007270D03*
X006007Y007270D03*
X006017Y007270D03*
X006027Y007270D03*
X006037Y007270D03*
X006047Y007270D03*
X006057Y007270D03*
X006067Y007270D03*
X006077Y007270D03*
X006087Y007270D03*
X006097Y007270D03*
X004297Y007270D03*
X004287Y007270D03*
X002917Y006430D03*
X002907Y006440D03*
X002817Y006470D03*
X002807Y006470D03*
X002797Y006470D03*
X002787Y006470D03*
X002777Y006470D03*
X004257Y008520D03*
X004267Y008520D03*
X004277Y008520D03*
X004287Y008520D03*
X004297Y008520D03*
X004307Y008520D03*
X004317Y008520D03*
X004327Y008520D03*
X004337Y008520D03*
X004347Y008520D03*
X004357Y008520D03*
X004367Y008520D03*
X004377Y008520D03*
X004387Y008520D03*
X004397Y008520D03*
X004407Y008520D03*
X004417Y008520D03*
X004427Y008520D03*
X004437Y008520D03*
X004447Y008520D03*
X004457Y008520D03*
X004467Y008520D03*
X004477Y008520D03*
X004487Y008520D03*
X004497Y008520D03*
X004507Y008520D03*
X004517Y008520D03*
X004527Y008520D03*
X004537Y008520D03*
X004547Y008520D03*
X004557Y008520D03*
X004567Y008520D03*
X004577Y008520D03*
X004587Y008520D03*
X004597Y008520D03*
X004607Y008520D03*
X004617Y008520D03*
X004627Y008520D03*
X004637Y008520D03*
X004647Y008520D03*
X004657Y008520D03*
X004667Y008520D03*
X004677Y008520D03*
X004687Y008520D03*
X004697Y008520D03*
X004707Y008520D03*
X004717Y008520D03*
X004727Y008520D03*
X004737Y008520D03*
X004747Y008520D03*
X004757Y008520D03*
X004767Y008520D03*
X004777Y008520D03*
X004787Y008520D03*
X004797Y008520D03*
X004807Y008520D03*
X004817Y008520D03*
X004827Y008520D03*
X004837Y008520D03*
X004847Y008520D03*
X004857Y008520D03*
X004867Y008520D03*
X004877Y008520D03*
X004887Y008520D03*
X004897Y008520D03*
X004907Y008520D03*
X004917Y008520D03*
X004927Y008520D03*
X004937Y008520D03*
X004947Y008520D03*
X004957Y008520D03*
X004967Y008520D03*
X004977Y008520D03*
X004987Y008520D03*
X004997Y008520D03*
X005007Y008520D03*
X005017Y008520D03*
X005027Y008520D03*
X005037Y008520D03*
X005047Y008520D03*
X005057Y008520D03*
X005067Y008520D03*
X005077Y008520D03*
X005087Y008520D03*
X005097Y008520D03*
X005107Y008520D03*
X005117Y008520D03*
X005127Y008520D03*
X005137Y008520D03*
X005147Y008520D03*
X005157Y008520D03*
X005167Y008520D03*
X005177Y008520D03*
X005187Y008520D03*
X005197Y008520D03*
X005207Y008520D03*
X005217Y008520D03*
X006027Y008520D03*
X035447Y012080D03*
X036257Y012080D03*
X036267Y012080D03*
X036277Y012080D03*
X036287Y012080D03*
X036297Y012080D03*
X036307Y012080D03*
X036317Y012080D03*
X036327Y012080D03*
X036337Y012080D03*
X036347Y012080D03*
X036357Y012080D03*
X036367Y012080D03*
X036377Y012080D03*
X036387Y012080D03*
X036397Y012080D03*
X036407Y012080D03*
X036417Y012080D03*
X036427Y012080D03*
X036437Y012080D03*
X036447Y012080D03*
X036457Y012080D03*
X036467Y012080D03*
X036477Y012080D03*
X036487Y012080D03*
X036497Y012080D03*
X036507Y012080D03*
X036517Y012080D03*
X036527Y012080D03*
X036537Y012080D03*
X036547Y012080D03*
X036557Y012080D03*
X036567Y012080D03*
X036577Y012080D03*
X036587Y012080D03*
X036597Y012080D03*
X036607Y012080D03*
X036617Y012080D03*
X036627Y012080D03*
X036637Y012080D03*
X036647Y012080D03*
X036657Y012080D03*
X036667Y012080D03*
X036677Y012080D03*
X036687Y012080D03*
X036697Y012080D03*
X036707Y012080D03*
X036717Y012080D03*
X036727Y012080D03*
X036737Y012080D03*
X036747Y012080D03*
X036757Y012080D03*
X036767Y012080D03*
X036777Y012080D03*
X036787Y012080D03*
X036797Y012080D03*
X036807Y012080D03*
X036817Y012080D03*
X036827Y012080D03*
X036837Y012080D03*
X036847Y012080D03*
X036857Y012080D03*
X036867Y012080D03*
X036877Y012080D03*
X036887Y012080D03*
X036897Y012080D03*
X036907Y012080D03*
X036917Y012080D03*
X036927Y012080D03*
X036937Y012080D03*
X036947Y012080D03*
X036957Y012080D03*
X036967Y012080D03*
X036977Y012080D03*
X036987Y012080D03*
X036997Y012080D03*
X037007Y012080D03*
X037017Y012080D03*
X037027Y012080D03*
X037037Y012080D03*
X037047Y012080D03*
X037057Y012080D03*
X037067Y012080D03*
X037077Y012080D03*
X037087Y012080D03*
X037097Y012080D03*
X037107Y012080D03*
X037117Y012080D03*
X037127Y012080D03*
X037137Y012080D03*
X037147Y012080D03*
X037157Y012080D03*
X037167Y012080D03*
X037177Y012080D03*
X037187Y012080D03*
X037197Y012080D03*
X037207Y012080D03*
X037217Y012080D03*
X037187Y013330D03*
X037177Y013330D03*
X036377Y013330D03*
X036367Y013330D03*
X036357Y013330D03*
X036347Y013330D03*
X036337Y013330D03*
X036327Y013330D03*
X036317Y013330D03*
X036307Y013330D03*
X036297Y013330D03*
X036287Y013330D03*
X036277Y013330D03*
X036267Y013330D03*
X036257Y013330D03*
X036247Y013330D03*
X036237Y013330D03*
X036227Y013330D03*
X036217Y013330D03*
X036207Y013330D03*
X036197Y013330D03*
X036187Y013330D03*
X036177Y013330D03*
X036167Y013330D03*
X036157Y013330D03*
X036147Y013330D03*
X036137Y013330D03*
X036127Y013330D03*
X036117Y013330D03*
X036107Y013330D03*
X036097Y013330D03*
X036087Y013330D03*
X036077Y013330D03*
X036067Y013330D03*
X036057Y013330D03*
X036047Y013330D03*
X036037Y013330D03*
X036027Y013330D03*
X036017Y013330D03*
X036007Y013330D03*
X035997Y013330D03*
X035987Y013330D03*
X035977Y013330D03*
X035967Y013330D03*
X035957Y013330D03*
X035947Y013330D03*
X035937Y013330D03*
X035927Y013330D03*
X035917Y013330D03*
X035907Y013330D03*
X035897Y013330D03*
X035887Y013330D03*
X035877Y013330D03*
X035867Y013330D03*
X035857Y013330D03*
X035847Y013330D03*
X035837Y013330D03*
X035827Y013330D03*
X035817Y013330D03*
X035807Y013330D03*
X035797Y013330D03*
X035787Y013330D03*
X035777Y013330D03*
X035767Y013330D03*
X035757Y013330D03*
X035747Y013330D03*
X035737Y013330D03*
X035727Y013330D03*
X035717Y013330D03*
X035707Y013330D03*
X035697Y013330D03*
X035687Y013330D03*
X035677Y013330D03*
X035667Y013330D03*
X035657Y013330D03*
X035647Y013330D03*
X035637Y013330D03*
X035627Y013330D03*
X035617Y013330D03*
X035607Y013330D03*
X035597Y013330D03*
X035587Y013330D03*
X035577Y013330D03*
X035567Y013330D03*
X035557Y013330D03*
X035547Y013330D03*
X035537Y013330D03*
X035527Y013330D03*
X035517Y013330D03*
X035507Y013330D03*
X035497Y013330D03*
X035487Y013330D03*
X035477Y013330D03*
X035467Y013330D03*
X035457Y013330D03*
X035447Y013330D03*
X035437Y013330D03*
X035427Y013330D03*
X035417Y013330D03*
X035407Y013330D03*
X035397Y013330D03*
X035387Y013330D03*
X035377Y013330D03*
X036497Y014110D03*
X036507Y014110D03*
X038557Y014170D03*
X038567Y014160D03*
X038657Y014130D03*
X038667Y014130D03*
X038677Y014130D03*
X038687Y014130D03*
X038697Y014130D03*
X036767Y015230D03*
X036757Y015230D03*
X036747Y015230D03*
X036737Y015230D03*
X036727Y015230D03*
X036717Y015230D03*
X036707Y015230D03*
X036697Y015230D03*
X036687Y015230D03*
X036677Y015230D03*
X036667Y015230D03*
X036657Y015230D03*
X036647Y015230D03*
X036637Y015230D03*
X036627Y015230D03*
X036617Y015230D03*
X036607Y015230D03*
X036597Y015230D03*
X036587Y015230D03*
X036577Y015230D03*
X036567Y015230D03*
X036557Y015230D03*
X036547Y015230D03*
X036537Y015230D03*
X036527Y015230D03*
X036517Y015230D03*
X036507Y015230D03*
X036497Y015230D03*
X036487Y015230D03*
X036477Y015230D03*
X036467Y015230D03*
X036457Y015230D03*
X036447Y015230D03*
X036437Y015230D03*
X036427Y015230D03*
X036417Y015230D03*
X036407Y015230D03*
X036397Y015230D03*
X036387Y015230D03*
X036377Y015230D03*
X036367Y015230D03*
X036357Y015230D03*
X036347Y015230D03*
X036337Y015230D03*
X035927Y015230D03*
X035917Y015230D03*
X035907Y015230D03*
X035897Y015230D03*
X035887Y015230D03*
X035877Y015230D03*
X035867Y015230D03*
X035857Y015230D03*
X035847Y015230D03*
X035837Y015230D03*
X035827Y015230D03*
X035817Y015230D03*
X035807Y015230D03*
X035797Y015230D03*
X035787Y015230D03*
X035777Y015230D03*
X035767Y015230D03*
X035757Y015230D03*
X035747Y015230D03*
X035737Y015230D03*
X035727Y015230D03*
X035717Y015230D03*
X035707Y015230D03*
X035697Y015230D03*
X035687Y015230D03*
X035677Y015230D03*
X035667Y015230D03*
X035657Y015230D03*
X035647Y015230D03*
X035637Y015230D03*
X035627Y015230D03*
X035617Y015230D03*
X035607Y015230D03*
X035597Y015230D03*
X035587Y015230D03*
X035577Y015230D03*
X035567Y015230D03*
X035557Y015230D03*
X035547Y015230D03*
X035537Y015230D03*
X035527Y015230D03*
X035517Y015230D03*
X035507Y015230D03*
X035497Y015230D03*
X035487Y015230D03*
X035477Y015230D03*
X035467Y015230D03*
X035457Y015230D03*
X035447Y015230D03*
X035437Y015230D03*
X035427Y015230D03*
X035417Y015230D03*
X035407Y015230D03*
X035397Y015230D03*
X035387Y015230D03*
X035377Y015230D03*
X038567Y017030D03*
X038617Y017010D03*
X039257Y016740D03*
X038697Y018250D03*
X038687Y018250D03*
X038677Y018250D03*
X038667Y018250D03*
X038657Y018250D03*
X038567Y018280D03*
X038557Y018290D03*
D74*
X038497Y018375D03*
X036787Y018295D03*
X036667Y017385D03*
X036677Y017375D03*
X035927Y017385D03*
X035917Y016135D03*
X035927Y016125D03*
X036667Y016125D03*
X036677Y016135D03*
X038497Y014255D03*
X039087Y013395D03*
X039077Y013385D03*
X039057Y013375D03*
X039037Y013365D03*
X038987Y013335D03*
X039107Y013405D03*
X039117Y013415D03*
X039127Y013415D03*
X039137Y013425D03*
X039147Y013425D03*
X039157Y013435D03*
X039167Y013445D03*
X039177Y013445D03*
X039187Y013455D03*
X039197Y013455D03*
X039207Y013465D03*
X039227Y013475D03*
X039237Y013485D03*
X038117Y012805D03*
X037067Y013285D03*
X036737Y014165D03*
X035377Y014085D03*
X035557Y012125D03*
X035567Y012125D03*
X039217Y012125D03*
X039247Y012105D03*
X036687Y019255D03*
X036677Y019265D03*
X035917Y019265D03*
X005917Y008475D03*
X005907Y008475D03*
X004407Y007315D03*
X003357Y007795D03*
X002487Y007265D03*
X002437Y007235D03*
X002417Y007225D03*
X002397Y007215D03*
X002387Y007205D03*
X002367Y007195D03*
X002357Y007185D03*
X002347Y007185D03*
X002337Y007175D03*
X002327Y007175D03*
X002317Y007165D03*
X002307Y007155D03*
X002297Y007155D03*
X002287Y007145D03*
X002277Y007145D03*
X002267Y007135D03*
X002247Y007125D03*
X002237Y007115D03*
X002977Y006345D03*
X004737Y006435D03*
X006097Y006515D03*
X005547Y004475D03*
X005557Y004465D03*
X004807Y004475D03*
X004797Y004465D03*
X004797Y003225D03*
X004807Y003215D03*
X005547Y003215D03*
X004687Y002305D03*
X002977Y002225D03*
X004787Y001345D03*
X004797Y001335D03*
X005557Y001335D03*
X002257Y008475D03*
X002227Y008495D03*
D75*
X003297Y007800D03*
X004497Y007350D03*
X002657Y006400D03*
X005137Y006370D03*
X004727Y004400D03*
X005637Y004390D03*
X006087Y003840D03*
X005627Y003290D03*
X004717Y003300D03*
X004267Y003850D03*
X002407Y003860D03*
X002397Y003860D03*
X002657Y002280D03*
X005627Y001400D03*
X005827Y008440D03*
X035647Y012160D03*
X036977Y013250D03*
X038177Y012800D03*
X038817Y014200D03*
X036337Y014230D03*
X036747Y016200D03*
X035837Y016210D03*
X035387Y016760D03*
X035847Y017310D03*
X036757Y017300D03*
X037207Y016750D03*
X039067Y016740D03*
X039077Y016740D03*
X038817Y018320D03*
X035847Y019200D03*
D76*
X035927Y019270D03*
X035937Y019280D03*
X036667Y019270D03*
X037817Y018190D03*
X038787Y018280D03*
X036657Y017390D03*
X035947Y017400D03*
X035937Y017390D03*
X035937Y016120D03*
X036647Y016110D03*
X036657Y016120D03*
X039157Y016740D03*
X039167Y016740D03*
X035917Y014450D03*
X035887Y014430D03*
X035857Y014410D03*
X035827Y014390D03*
X035797Y014370D03*
X035767Y014350D03*
X035737Y014330D03*
X035727Y014320D03*
X035707Y014310D03*
X035697Y014300D03*
X035677Y014290D03*
X035667Y014280D03*
X035647Y014270D03*
X035637Y014260D03*
X035617Y014250D03*
X035607Y014240D03*
X035587Y014230D03*
X035577Y014220D03*
X035567Y014210D03*
X035557Y014210D03*
X035547Y014200D03*
X035537Y014190D03*
X035527Y014190D03*
X035517Y014180D03*
X035507Y014170D03*
X035497Y014170D03*
X035487Y014160D03*
X035477Y014150D03*
X035467Y014150D03*
X035457Y014140D03*
X035447Y014130D03*
X035437Y014130D03*
X035427Y014120D03*
X035417Y014110D03*
X035407Y014110D03*
X035397Y014100D03*
X035387Y014090D03*
X036367Y014180D03*
X036727Y014150D03*
X037817Y014070D03*
X038787Y014160D03*
X039097Y013400D03*
X039067Y013380D03*
X039047Y013370D03*
X039027Y013360D03*
X039017Y013350D03*
X039007Y013350D03*
X038997Y013340D03*
X038977Y013330D03*
X038967Y013320D03*
X038957Y013320D03*
X038947Y013310D03*
X038937Y013310D03*
X038927Y013300D03*
X038917Y013290D03*
X038907Y013290D03*
X038897Y013280D03*
X038877Y013270D03*
X038857Y013260D03*
X038847Y013250D03*
X038827Y013240D03*
X038807Y013230D03*
X038777Y013210D03*
X038757Y013200D03*
X037077Y013290D03*
X039037Y012230D03*
X039057Y012220D03*
X039087Y012200D03*
X039107Y012190D03*
X039127Y012180D03*
X039137Y012170D03*
X039147Y012170D03*
X039157Y012160D03*
X039167Y012150D03*
X039177Y012150D03*
X039187Y012140D03*
X039197Y012140D03*
X039207Y012130D03*
X039227Y012120D03*
X039237Y012110D03*
X035547Y012120D03*
X005927Y008480D03*
X004397Y007310D03*
X004747Y006450D03*
X005107Y006420D03*
X005617Y006190D03*
X005647Y006210D03*
X005677Y006230D03*
X005707Y006250D03*
X005737Y006270D03*
X005747Y006280D03*
X005767Y006290D03*
X005777Y006300D03*
X005797Y006310D03*
X005807Y006320D03*
X005827Y006330D03*
X005837Y006340D03*
X005857Y006350D03*
X005867Y006360D03*
X005887Y006370D03*
X005897Y006380D03*
X005907Y006390D03*
X005917Y006390D03*
X005927Y006400D03*
X005937Y006410D03*
X005947Y006410D03*
X005957Y006420D03*
X005967Y006430D03*
X005977Y006430D03*
X005987Y006440D03*
X005997Y006450D03*
X006007Y006450D03*
X006017Y006460D03*
X006027Y006470D03*
X006037Y006470D03*
X006047Y006480D03*
X006057Y006490D03*
X006067Y006490D03*
X006077Y006500D03*
X006087Y006510D03*
X005587Y006170D03*
X005557Y006150D03*
X003657Y006530D03*
X002687Y006440D03*
X002377Y007200D03*
X002407Y007220D03*
X002427Y007230D03*
X002447Y007240D03*
X002457Y007250D03*
X002467Y007250D03*
X002477Y007260D03*
X002497Y007270D03*
X002507Y007280D03*
X002517Y007280D03*
X002527Y007290D03*
X002537Y007290D03*
X002547Y007300D03*
X002557Y007310D03*
X002567Y007310D03*
X002577Y007320D03*
X002597Y007330D03*
X002617Y007340D03*
X002627Y007350D03*
X002647Y007360D03*
X002667Y007370D03*
X002697Y007390D03*
X002717Y007400D03*
X002437Y008370D03*
X002417Y008380D03*
X002387Y008400D03*
X002367Y008410D03*
X002347Y008420D03*
X002337Y008430D03*
X002327Y008430D03*
X002317Y008440D03*
X002307Y008450D03*
X002297Y008450D03*
X002287Y008460D03*
X002277Y008460D03*
X002267Y008470D03*
X002247Y008480D03*
X002237Y008490D03*
X004827Y004490D03*
X004817Y004480D03*
X005537Y004480D03*
X005537Y003210D03*
X005527Y003200D03*
X004817Y003210D03*
X003657Y002410D03*
X002687Y002320D03*
X004807Y001330D03*
X005537Y001320D03*
X005547Y001330D03*
X002317Y003860D03*
X002307Y003860D03*
D77*
X002467Y003860D03*
X002477Y003860D03*
X004277Y003850D03*
X005657Y003330D03*
X006077Y003840D03*
X006077Y001930D03*
X005657Y001450D03*
X004697Y001450D03*
X004277Y001940D03*
X004567Y007380D03*
X003247Y007800D03*
X005747Y008410D03*
X035397Y016760D03*
X035817Y017270D03*
X037197Y016750D03*
X038997Y016740D03*
X039007Y016740D03*
X037197Y018660D03*
X036777Y019150D03*
X035817Y019150D03*
X035397Y018670D03*
X036907Y013220D03*
X038227Y012800D03*
X035727Y012190D03*
D78*
X035427Y012070D03*
X035417Y012070D03*
X037207Y013340D03*
X038587Y014150D03*
X038587Y018270D03*
X036767Y018270D03*
X006057Y008530D03*
X006047Y008530D03*
X004267Y007260D03*
X002887Y006450D03*
X002887Y002330D03*
X004707Y002330D03*
D79*
X005637Y002365D03*
X002897Y002325D03*
X002877Y002335D03*
X002867Y002335D03*
X002857Y002345D03*
X002847Y002345D03*
X002837Y002345D03*
X002827Y002345D03*
X002897Y006445D03*
X002877Y006455D03*
X002867Y006455D03*
X002857Y006465D03*
X002847Y006465D03*
X002837Y006465D03*
X002827Y006465D03*
X004277Y007265D03*
X006037Y008525D03*
X035437Y012075D03*
X037197Y013335D03*
X038577Y014155D03*
X038597Y014145D03*
X038607Y014145D03*
X038617Y014135D03*
X038627Y014135D03*
X038637Y014135D03*
X038647Y014135D03*
X038647Y018255D03*
X038637Y018255D03*
X038627Y018255D03*
X038617Y018255D03*
X038607Y018265D03*
X038597Y018265D03*
X038577Y018275D03*
X035837Y018235D03*
D80*
X036177Y017485D03*
X036187Y017485D03*
X036197Y017485D03*
X036227Y017495D03*
X036237Y017495D03*
X036247Y017495D03*
X036257Y017495D03*
X036267Y017495D03*
X036277Y017495D03*
X036287Y017495D03*
X036297Y017495D03*
X036307Y017495D03*
X036317Y017495D03*
X036327Y017495D03*
X036337Y017495D03*
X036347Y017495D03*
X036357Y017495D03*
X036367Y017495D03*
X036377Y017495D03*
X036387Y017485D03*
X036397Y017485D03*
X036407Y017485D03*
X036417Y017485D03*
X036427Y017485D03*
X036467Y017475D03*
X037947Y018165D03*
X037957Y018165D03*
X037967Y018165D03*
X037977Y018165D03*
X037987Y018165D03*
X038007Y018175D03*
X038017Y018175D03*
X038537Y018305D03*
X038547Y018295D03*
X038547Y019345D03*
X038557Y019345D03*
X038567Y019345D03*
X038577Y019345D03*
X038587Y019345D03*
X038597Y019345D03*
X038607Y019345D03*
X038617Y019345D03*
X038627Y019345D03*
X038637Y019345D03*
X038647Y019345D03*
X038657Y019345D03*
X038667Y019345D03*
X038677Y019345D03*
X038687Y019345D03*
X038697Y019345D03*
X038707Y019345D03*
X038717Y019345D03*
X038727Y019345D03*
X038737Y019345D03*
X038747Y019345D03*
X038757Y019345D03*
X038767Y019345D03*
X038777Y019345D03*
X038787Y019345D03*
X038797Y019345D03*
X038807Y019345D03*
X038817Y019345D03*
X038537Y019345D03*
X038527Y019345D03*
X038517Y019345D03*
X038507Y019345D03*
X038497Y019345D03*
X038117Y019345D03*
X038107Y019345D03*
X038097Y019345D03*
X038087Y019345D03*
X038077Y019345D03*
X038067Y019345D03*
X038057Y019345D03*
X038047Y019345D03*
X038037Y019345D03*
X038027Y019345D03*
X038017Y019345D03*
X038007Y019345D03*
X037997Y019345D03*
X037987Y019345D03*
X037977Y019345D03*
X037967Y019345D03*
X037957Y019345D03*
X037947Y019345D03*
X037937Y019345D03*
X037927Y019345D03*
X037917Y019345D03*
X037907Y019345D03*
X037897Y019345D03*
X037887Y019345D03*
X037877Y019345D03*
X037867Y019345D03*
X037857Y019345D03*
X037847Y019345D03*
X037837Y019345D03*
X037827Y019345D03*
X037817Y019345D03*
X037807Y019345D03*
X037797Y019345D03*
X037787Y019345D03*
X037777Y019345D03*
X036467Y019355D03*
X036427Y019365D03*
X036417Y019365D03*
X036407Y019365D03*
X036397Y019365D03*
X036377Y019375D03*
X036367Y019375D03*
X036357Y019375D03*
X036347Y019375D03*
X036337Y019375D03*
X036327Y019375D03*
X036317Y019375D03*
X036307Y019375D03*
X036297Y019375D03*
X036287Y019375D03*
X036277Y019375D03*
X036267Y019375D03*
X036257Y019375D03*
X036247Y019375D03*
X036237Y019375D03*
X036227Y019375D03*
X036197Y019365D03*
X036187Y019365D03*
X036177Y019365D03*
X036167Y019365D03*
X038237Y017165D03*
X038267Y017155D03*
X038287Y017145D03*
X038307Y017135D03*
X038317Y017135D03*
X038337Y017125D03*
X038357Y017115D03*
X038367Y017115D03*
X038377Y017105D03*
X038387Y017105D03*
X038407Y017095D03*
X038417Y017095D03*
X038427Y017085D03*
X038437Y017085D03*
X038447Y017075D03*
X038457Y017075D03*
X038467Y017075D03*
X038477Y017065D03*
X038487Y017065D03*
X038497Y017055D03*
X038507Y017055D03*
X038517Y017055D03*
X038527Y017045D03*
X038537Y017045D03*
X038547Y017035D03*
X038557Y017035D03*
X038577Y017025D03*
X038587Y017025D03*
X038597Y017015D03*
X038607Y017015D03*
X038617Y016475D03*
X038597Y016465D03*
X038567Y016455D03*
X038547Y016445D03*
X038497Y016425D03*
X036417Y016025D03*
X036407Y016025D03*
X036397Y016025D03*
X036367Y016015D03*
X036357Y016015D03*
X036347Y016015D03*
X036337Y016015D03*
X036327Y016015D03*
X036317Y016015D03*
X036307Y016015D03*
X036297Y016015D03*
X036287Y016015D03*
X036277Y016015D03*
X036267Y016015D03*
X036257Y016015D03*
X036247Y016015D03*
X036237Y016015D03*
X036227Y016015D03*
X036217Y016015D03*
X036207Y016025D03*
X036197Y016025D03*
X036187Y016025D03*
X036177Y016025D03*
X036167Y016025D03*
X037777Y015225D03*
X037787Y015225D03*
X037797Y015225D03*
X037807Y015225D03*
X037817Y015225D03*
X037827Y015225D03*
X037837Y015225D03*
X037847Y015225D03*
X037857Y015225D03*
X037867Y015225D03*
X037877Y015225D03*
X037887Y015225D03*
X037897Y015225D03*
X037907Y015225D03*
X037917Y015225D03*
X037927Y015225D03*
X037937Y015225D03*
X037947Y015225D03*
X037957Y015225D03*
X037967Y015225D03*
X037977Y015225D03*
X037987Y015225D03*
X037997Y015225D03*
X038007Y015225D03*
X038017Y015225D03*
X038027Y015225D03*
X038037Y015225D03*
X038047Y015225D03*
X038057Y015225D03*
X038067Y015225D03*
X038077Y015225D03*
X038087Y015225D03*
X038097Y015225D03*
X038107Y015225D03*
X038117Y015225D03*
X038497Y015225D03*
X038507Y015225D03*
X038517Y015225D03*
X038527Y015225D03*
X038537Y015225D03*
X038547Y015225D03*
X038557Y015225D03*
X038567Y015225D03*
X038577Y015225D03*
X038587Y015225D03*
X038597Y015225D03*
X038607Y015225D03*
X038617Y015225D03*
X038627Y015225D03*
X038637Y015225D03*
X038647Y015225D03*
X038657Y015225D03*
X038667Y015225D03*
X038677Y015225D03*
X038687Y015225D03*
X038697Y015225D03*
X038707Y015225D03*
X038717Y015225D03*
X038727Y015225D03*
X038737Y015225D03*
X038747Y015225D03*
X038757Y015225D03*
X038767Y015225D03*
X038777Y015225D03*
X038787Y015225D03*
X038797Y015225D03*
X038807Y015225D03*
X038817Y015225D03*
X038537Y014185D03*
X038547Y014175D03*
X038017Y014055D03*
X038007Y014055D03*
X037987Y014045D03*
X037977Y014045D03*
X037967Y014045D03*
X037957Y014045D03*
X037947Y014045D03*
X036607Y014105D03*
X036597Y014105D03*
X036587Y014105D03*
X036577Y014105D03*
X036567Y014105D03*
X036557Y014105D03*
X036547Y014105D03*
X036537Y014105D03*
X036527Y014105D03*
X036517Y014105D03*
X036487Y014115D03*
X036477Y014115D03*
X036467Y014115D03*
X037167Y013325D03*
X035457Y012085D03*
X006017Y008515D03*
X004307Y007275D03*
X004867Y006495D03*
X004877Y006495D03*
X004887Y006495D03*
X004897Y006495D03*
X004907Y006495D03*
X004917Y006495D03*
X004927Y006495D03*
X004937Y006495D03*
X004947Y006495D03*
X004957Y006495D03*
X004987Y006485D03*
X004997Y006485D03*
X005007Y006485D03*
X003527Y006555D03*
X003517Y006555D03*
X003507Y006555D03*
X003497Y006555D03*
X003487Y006555D03*
X003467Y006545D03*
X003457Y006545D03*
X002937Y006415D03*
X002927Y006425D03*
X002927Y005375D03*
X002937Y005375D03*
X002947Y005375D03*
X002957Y005375D03*
X002967Y005375D03*
X002977Y005375D03*
X002917Y005375D03*
X002907Y005375D03*
X002897Y005375D03*
X002887Y005375D03*
X002877Y005375D03*
X002867Y005375D03*
X002857Y005375D03*
X002847Y005375D03*
X002837Y005375D03*
X002827Y005375D03*
X002817Y005375D03*
X002807Y005375D03*
X002797Y005375D03*
X002787Y005375D03*
X002777Y005375D03*
X002767Y005375D03*
X002757Y005375D03*
X002747Y005375D03*
X002737Y005375D03*
X002727Y005375D03*
X002717Y005375D03*
X002707Y005375D03*
X002697Y005375D03*
X002687Y005375D03*
X002677Y005375D03*
X002667Y005375D03*
X002657Y005375D03*
X003357Y005375D03*
X003367Y005375D03*
X003377Y005375D03*
X003387Y005375D03*
X003397Y005375D03*
X003407Y005375D03*
X003417Y005375D03*
X003427Y005375D03*
X003437Y005375D03*
X003447Y005375D03*
X003457Y005375D03*
X003467Y005375D03*
X003477Y005375D03*
X003487Y005375D03*
X003497Y005375D03*
X003507Y005375D03*
X003517Y005375D03*
X003527Y005375D03*
X003537Y005375D03*
X003547Y005375D03*
X003557Y005375D03*
X003567Y005375D03*
X003577Y005375D03*
X003587Y005375D03*
X003597Y005375D03*
X003607Y005375D03*
X003617Y005375D03*
X003627Y005375D03*
X003637Y005375D03*
X003647Y005375D03*
X003657Y005375D03*
X003667Y005375D03*
X003677Y005375D03*
X003687Y005375D03*
X003697Y005375D03*
X005057Y004575D03*
X005067Y004575D03*
X005077Y004575D03*
X005107Y004585D03*
X005117Y004585D03*
X005127Y004585D03*
X005137Y004585D03*
X005147Y004585D03*
X005157Y004585D03*
X005167Y004585D03*
X005177Y004585D03*
X005187Y004585D03*
X005197Y004585D03*
X005207Y004585D03*
X005217Y004585D03*
X005227Y004585D03*
X005237Y004585D03*
X005247Y004585D03*
X005257Y004585D03*
X005267Y004575D03*
X005277Y004575D03*
X005287Y004575D03*
X005297Y004575D03*
X005307Y004575D03*
X002977Y004175D03*
X002927Y004155D03*
X002907Y004145D03*
X002877Y004135D03*
X002857Y004125D03*
X002867Y003585D03*
X002877Y003585D03*
X002887Y003575D03*
X002897Y003575D03*
X002917Y003565D03*
X002927Y003565D03*
X002937Y003555D03*
X002947Y003555D03*
X002957Y003545D03*
X002967Y003545D03*
X002977Y003545D03*
X002987Y003535D03*
X002997Y003535D03*
X003007Y003525D03*
X003017Y003525D03*
X003027Y003525D03*
X003037Y003515D03*
X003047Y003515D03*
X003057Y003505D03*
X003067Y003505D03*
X003087Y003495D03*
X003097Y003495D03*
X003107Y003485D03*
X003117Y003485D03*
X003137Y003475D03*
X003157Y003465D03*
X003167Y003465D03*
X003187Y003455D03*
X003207Y003445D03*
X003237Y003435D03*
X003487Y002435D03*
X003497Y002435D03*
X003507Y002435D03*
X003517Y002435D03*
X003527Y002435D03*
X003467Y002425D03*
X003457Y002425D03*
X002937Y002295D03*
X002927Y002305D03*
X002927Y001255D03*
X002937Y001255D03*
X002947Y001255D03*
X002957Y001255D03*
X002967Y001255D03*
X002977Y001255D03*
X002917Y001255D03*
X002907Y001255D03*
X002897Y001255D03*
X002887Y001255D03*
X002877Y001255D03*
X002867Y001255D03*
X002857Y001255D03*
X002847Y001255D03*
X002837Y001255D03*
X002827Y001255D03*
X002817Y001255D03*
X002807Y001255D03*
X002797Y001255D03*
X002787Y001255D03*
X002777Y001255D03*
X002767Y001255D03*
X002757Y001255D03*
X002747Y001255D03*
X002737Y001255D03*
X002727Y001255D03*
X002717Y001255D03*
X002707Y001255D03*
X002697Y001255D03*
X002687Y001255D03*
X002677Y001255D03*
X002667Y001255D03*
X002657Y001255D03*
X003357Y001255D03*
X003367Y001255D03*
X003377Y001255D03*
X003387Y001255D03*
X003397Y001255D03*
X003407Y001255D03*
X003417Y001255D03*
X003427Y001255D03*
X003437Y001255D03*
X003447Y001255D03*
X003457Y001255D03*
X003467Y001255D03*
X003477Y001255D03*
X003487Y001255D03*
X003497Y001255D03*
X003507Y001255D03*
X003517Y001255D03*
X003527Y001255D03*
X003537Y001255D03*
X003547Y001255D03*
X003557Y001255D03*
X003567Y001255D03*
X003577Y001255D03*
X003587Y001255D03*
X003597Y001255D03*
X003607Y001255D03*
X003617Y001255D03*
X003627Y001255D03*
X003637Y001255D03*
X003647Y001255D03*
X003657Y001255D03*
X003667Y001255D03*
X003677Y001255D03*
X003687Y001255D03*
X003697Y001255D03*
X005007Y001245D03*
X005047Y001235D03*
X005057Y001235D03*
X005067Y001235D03*
X005077Y001235D03*
X005097Y001225D03*
X005107Y001225D03*
X005117Y001225D03*
X005127Y001225D03*
X005137Y001225D03*
X005147Y001225D03*
X005157Y001225D03*
X005167Y001225D03*
X005177Y001225D03*
X005187Y001225D03*
X005197Y001225D03*
X005207Y001225D03*
X005217Y001225D03*
X005227Y001225D03*
X005237Y001225D03*
X005247Y001225D03*
X005277Y001235D03*
X005287Y001235D03*
X005297Y001235D03*
X005307Y001235D03*
X005247Y003105D03*
X005237Y003105D03*
X005227Y003105D03*
X005217Y003105D03*
X005207Y003105D03*
X005197Y003105D03*
X005187Y003105D03*
X005177Y003105D03*
X005167Y003105D03*
X005157Y003105D03*
X005147Y003105D03*
X005137Y003105D03*
X005127Y003105D03*
X005117Y003105D03*
X005107Y003105D03*
X005097Y003105D03*
X005087Y003115D03*
X005077Y003115D03*
X005067Y003115D03*
X005057Y003115D03*
X005047Y003115D03*
X005007Y003125D03*
X005277Y003115D03*
X005287Y003115D03*
X005297Y003115D03*
D81*
X005997Y003840D03*
X004357Y003850D03*
X004997Y007550D03*
X005317Y008240D03*
X002967Y007800D03*
X035477Y016760D03*
X037117Y016750D03*
X036477Y013050D03*
X036157Y012360D03*
X038507Y012800D03*
D82*
X036467Y013045D03*
X036457Y013045D03*
X036167Y012365D03*
X037207Y014945D03*
X035487Y018675D03*
X005307Y008235D03*
X005017Y007555D03*
X005007Y007555D03*
X004267Y005655D03*
X005987Y001925D03*
D83*
X004127Y001550D03*
X004367Y003850D03*
X005987Y003840D03*
X004127Y005670D03*
X005047Y007570D03*
X005267Y008220D03*
X002937Y007800D03*
X035487Y016760D03*
X037107Y016750D03*
X037347Y014930D03*
X036427Y013030D03*
X036207Y012380D03*
X038537Y012800D03*
X037347Y019050D03*
D84*
X036537Y019335D03*
X036527Y019335D03*
X036517Y019345D03*
X036507Y019345D03*
X036087Y019345D03*
X036077Y019345D03*
X036067Y019335D03*
X036057Y019335D03*
X035827Y018245D03*
X036777Y018275D03*
X037877Y018165D03*
X037887Y018165D03*
X037897Y018165D03*
X038037Y018185D03*
X038057Y018195D03*
X038067Y018205D03*
X038517Y018325D03*
X038737Y018255D03*
X036557Y017445D03*
X036537Y017455D03*
X036527Y017455D03*
X036507Y017465D03*
X036497Y017465D03*
X036097Y017465D03*
X036087Y017465D03*
X036067Y017455D03*
X038127Y016275D03*
X038137Y016275D03*
X038147Y016285D03*
X038157Y016285D03*
X038167Y016295D03*
X038177Y016295D03*
X038187Y016295D03*
X038197Y016305D03*
X038207Y016305D03*
X038217Y016315D03*
X038227Y016315D03*
X038247Y016325D03*
X038257Y016325D03*
X038277Y016335D03*
X038297Y016345D03*
X038327Y016355D03*
X038347Y016365D03*
X038397Y016385D03*
X038447Y016405D03*
X038107Y016265D03*
X038097Y016265D03*
X036527Y016055D03*
X036507Y016045D03*
X036497Y016045D03*
X036097Y016045D03*
X036087Y016045D03*
X036067Y016055D03*
X036057Y016055D03*
X036037Y016065D03*
X036417Y014135D03*
X036427Y014135D03*
X036647Y014115D03*
X036657Y014115D03*
X036667Y014125D03*
X036677Y014125D03*
X037877Y014045D03*
X037887Y014045D03*
X037897Y014045D03*
X038037Y014065D03*
X038057Y014075D03*
X038067Y014085D03*
X038517Y014205D03*
X038737Y014135D03*
X037147Y013315D03*
X035487Y012095D03*
X005987Y008505D03*
X004327Y007285D03*
X004797Y006475D03*
X004807Y006475D03*
X004817Y006485D03*
X004827Y006485D03*
X005047Y006465D03*
X005057Y006465D03*
X003597Y006555D03*
X003587Y006555D03*
X003577Y006555D03*
X003437Y006535D03*
X003417Y006525D03*
X003407Y006515D03*
X002957Y006395D03*
X002737Y006465D03*
X004947Y004545D03*
X004967Y004555D03*
X004977Y004555D03*
X005377Y004555D03*
X005387Y004555D03*
X005407Y004545D03*
X005417Y004545D03*
X005437Y004535D03*
X003377Y004335D03*
X003367Y004335D03*
X003347Y004325D03*
X003337Y004325D03*
X003327Y004315D03*
X003317Y004315D03*
X003307Y004305D03*
X003297Y004305D03*
X003287Y004305D03*
X003277Y004295D03*
X003267Y004295D03*
X003257Y004285D03*
X003247Y004285D03*
X003227Y004275D03*
X003217Y004275D03*
X003197Y004265D03*
X003177Y004255D03*
X003147Y004245D03*
X003127Y004235D03*
X003077Y004215D03*
X003027Y004195D03*
X004917Y003155D03*
X004937Y003145D03*
X004947Y003145D03*
X004967Y003135D03*
X004977Y003135D03*
X005377Y003135D03*
X005387Y003135D03*
X005407Y003145D03*
X005647Y002355D03*
X004697Y002325D03*
X003597Y002435D03*
X003587Y002435D03*
X003577Y002435D03*
X003437Y002415D03*
X003417Y002405D03*
X003407Y002395D03*
X002957Y002275D03*
X002737Y002345D03*
X004937Y001265D03*
X004947Y001265D03*
X004957Y001255D03*
X004967Y001255D03*
X005387Y001255D03*
X005397Y001255D03*
X005407Y001265D03*
X005417Y001265D03*
D85*
X005977Y001925D03*
X004377Y001935D03*
X005057Y007575D03*
X005067Y007575D03*
X005247Y008215D03*
X005257Y008215D03*
X002927Y007795D03*
X035497Y018675D03*
X037097Y018665D03*
X036417Y013025D03*
X036407Y013025D03*
X036227Y012385D03*
X036217Y012385D03*
X038547Y012805D03*
D86*
X036387Y013015D03*
X036247Y012395D03*
X035497Y016755D03*
X037097Y016755D03*
X035507Y018675D03*
X005977Y003845D03*
X004377Y003845D03*
X005967Y001925D03*
X005087Y007585D03*
X005227Y008205D03*
D87*
X004287Y005700D03*
X002237Y005700D03*
X004387Y003850D03*
X005967Y003840D03*
X004397Y001940D03*
X002237Y001580D03*
X035507Y016760D03*
X037087Y016750D03*
X037187Y014900D03*
X039237Y014900D03*
X037077Y018660D03*
X039237Y019020D03*
D88*
X038507Y018345D03*
X038767Y018265D03*
X038077Y018215D03*
X037847Y018175D03*
X037377Y017515D03*
X037397Y017505D03*
X037407Y017505D03*
X037427Y017495D03*
X037447Y017485D03*
X037477Y017475D03*
X037497Y017465D03*
X037527Y017455D03*
X037547Y017445D03*
X037597Y017425D03*
X037357Y017525D03*
X037347Y017525D03*
X036617Y017415D03*
X036607Y017425D03*
X036597Y017425D03*
X036587Y017435D03*
X036037Y017445D03*
X036017Y017435D03*
X036007Y017435D03*
X035997Y017425D03*
X035977Y016095D03*
X035987Y016085D03*
X035997Y016085D03*
X036007Y016075D03*
X036577Y016075D03*
X036597Y016085D03*
X037367Y015965D03*
X037387Y015975D03*
X037417Y015985D03*
X037437Y015995D03*
X037467Y016005D03*
X037487Y016015D03*
X037507Y016025D03*
X037537Y016035D03*
X037557Y016045D03*
X037577Y016055D03*
X037587Y016055D03*
X037607Y016065D03*
X037627Y016075D03*
X037637Y016075D03*
X037647Y016085D03*
X037657Y016085D03*
X037677Y016095D03*
X038507Y014225D03*
X038767Y014145D03*
X038077Y014095D03*
X037847Y014055D03*
X036697Y014135D03*
X037117Y013305D03*
X038087Y012805D03*
X038577Y012505D03*
X038587Y012495D03*
X038607Y012485D03*
X038627Y012475D03*
X038657Y012455D03*
X038677Y012445D03*
X035507Y012105D03*
X035987Y019305D03*
X035997Y019315D03*
X036007Y019315D03*
X036587Y019315D03*
X036607Y019305D03*
X005967Y008495D03*
X004357Y007295D03*
X003387Y007795D03*
X002897Y008095D03*
X002887Y008105D03*
X002867Y008115D03*
X002847Y008125D03*
X002817Y008145D03*
X002797Y008155D03*
X002707Y006455D03*
X002967Y006375D03*
X003397Y006505D03*
X003627Y006545D03*
X004777Y006465D03*
X004107Y004635D03*
X004087Y004625D03*
X004057Y004615D03*
X004037Y004605D03*
X004007Y004595D03*
X003987Y004585D03*
X003967Y004575D03*
X003937Y004565D03*
X003917Y004555D03*
X003897Y004545D03*
X003887Y004545D03*
X003867Y004535D03*
X003847Y004525D03*
X003837Y004525D03*
X003827Y004515D03*
X003817Y004515D03*
X003797Y004505D03*
X004877Y004515D03*
X004897Y004525D03*
X005467Y004525D03*
X005477Y004515D03*
X005487Y004515D03*
X005497Y004505D03*
X005477Y003175D03*
X005467Y003165D03*
X005457Y003165D03*
X005437Y003155D03*
X004887Y003165D03*
X004877Y003175D03*
X004867Y003175D03*
X004857Y003185D03*
X004127Y003075D03*
X004117Y003075D03*
X004097Y003085D03*
X004077Y003095D03*
X004067Y003095D03*
X004047Y003105D03*
X004027Y003115D03*
X003997Y003125D03*
X003977Y003135D03*
X003947Y003145D03*
X003927Y003155D03*
X003877Y003175D03*
X003627Y002425D03*
X003397Y002385D03*
X002967Y002255D03*
X002707Y002335D03*
X004867Y001295D03*
X004887Y001285D03*
X005467Y001285D03*
X005477Y001285D03*
X005487Y001295D03*
D89*
X005957Y001925D03*
X035517Y018675D03*
D90*
X037357Y019010D03*
X035517Y016760D03*
X037357Y014890D03*
X005957Y003840D03*
X004117Y005710D03*
X004117Y001590D03*
D91*
X004407Y001935D03*
X005947Y001925D03*
X004397Y003845D03*
X035527Y018675D03*
X037067Y018665D03*
X037077Y016755D03*
D92*
X035527Y016760D03*
X005947Y003840D03*
D93*
X004407Y003845D03*
X004417Y001935D03*
X005937Y001925D03*
X002247Y001605D03*
X002247Y005725D03*
X035537Y018675D03*
X037057Y018665D03*
X039227Y018995D03*
X037067Y016755D03*
X039227Y014875D03*
D94*
X037057Y016750D03*
X035537Y016760D03*
X037047Y018660D03*
X005937Y003840D03*
X004417Y003850D03*
X004427Y001940D03*
D95*
X003647Y002415D03*
X003377Y002365D03*
X004827Y003205D03*
X004837Y003195D03*
X005497Y003185D03*
X005517Y003195D03*
X005657Y002345D03*
X005527Y001315D03*
X005507Y001305D03*
X004827Y001315D03*
X004817Y001325D03*
X002297Y003865D03*
X004837Y004495D03*
X004857Y004505D03*
X005517Y004495D03*
X005527Y004485D03*
X005547Y006145D03*
X005567Y006155D03*
X005577Y006165D03*
X005597Y006175D03*
X005607Y006185D03*
X005627Y006195D03*
X005637Y006205D03*
X005657Y006215D03*
X005667Y006225D03*
X005687Y006235D03*
X005697Y006245D03*
X005717Y006255D03*
X005727Y006265D03*
X005757Y006285D03*
X005787Y006305D03*
X005817Y006325D03*
X005847Y006345D03*
X005877Y006365D03*
X005097Y006435D03*
X004757Y006455D03*
X003647Y006535D03*
X003377Y006485D03*
X002747Y007415D03*
X002737Y007415D03*
X002727Y007405D03*
X002707Y007395D03*
X002687Y007385D03*
X002677Y007375D03*
X002657Y007365D03*
X002637Y007355D03*
X002607Y007335D03*
X002587Y007325D03*
X002757Y007425D03*
X002767Y007425D03*
X002777Y007435D03*
X002787Y007445D03*
X002797Y007445D03*
X002807Y007455D03*
X002827Y007465D03*
X002847Y007475D03*
X002857Y007485D03*
X002877Y007495D03*
X002897Y007505D03*
X003367Y007795D03*
X002697Y008215D03*
X002647Y008245D03*
X002627Y008255D03*
X002597Y008275D03*
X002577Y008285D03*
X002567Y008295D03*
X002557Y008295D03*
X002547Y008305D03*
X002527Y008315D03*
X002517Y008325D03*
X002507Y008325D03*
X002497Y008335D03*
X002487Y008335D03*
X002477Y008345D03*
X002467Y008355D03*
X002457Y008355D03*
X002447Y008365D03*
X002427Y008375D03*
X002407Y008385D03*
X002397Y008395D03*
X002377Y008405D03*
X002357Y008415D03*
X004377Y007305D03*
X004387Y007305D03*
X005937Y008485D03*
X035537Y012115D03*
X037087Y013295D03*
X037097Y013295D03*
X038107Y012805D03*
X038577Y013095D03*
X038597Y013105D03*
X038617Y013115D03*
X038627Y013125D03*
X038647Y013135D03*
X038667Y013145D03*
X038677Y013155D03*
X038687Y013155D03*
X038697Y013165D03*
X038707Y013175D03*
X038717Y013175D03*
X038727Y013185D03*
X038737Y013185D03*
X038747Y013195D03*
X038767Y013205D03*
X038787Y013215D03*
X038797Y013225D03*
X038817Y013235D03*
X038837Y013245D03*
X038867Y013265D03*
X038887Y013275D03*
X038777Y012385D03*
X038827Y012355D03*
X038847Y012345D03*
X038877Y012325D03*
X038897Y012315D03*
X038907Y012305D03*
X038917Y012305D03*
X038927Y012295D03*
X038947Y012285D03*
X038957Y012275D03*
X038967Y012275D03*
X038977Y012265D03*
X038987Y012265D03*
X038997Y012255D03*
X039007Y012245D03*
X039017Y012245D03*
X039027Y012235D03*
X039047Y012225D03*
X039067Y012215D03*
X039077Y012205D03*
X039097Y012195D03*
X039117Y012185D03*
X038097Y014115D03*
X037827Y014065D03*
X036717Y014145D03*
X036377Y014165D03*
X035867Y014415D03*
X035877Y014425D03*
X035897Y014435D03*
X035907Y014445D03*
X035927Y014455D03*
X035847Y014405D03*
X035837Y014395D03*
X035817Y014385D03*
X035807Y014375D03*
X035787Y014365D03*
X035777Y014355D03*
X035757Y014345D03*
X035747Y014335D03*
X035717Y014315D03*
X035687Y014295D03*
X035657Y014275D03*
X035627Y014255D03*
X035597Y014235D03*
X035957Y016105D03*
X035947Y016115D03*
X036617Y016095D03*
X036637Y016105D03*
X036647Y017395D03*
X036637Y017405D03*
X035977Y017415D03*
X035957Y017405D03*
X035817Y018255D03*
X035947Y019285D03*
X035967Y019295D03*
X036647Y019285D03*
X036657Y019275D03*
X037827Y018185D03*
X038097Y018235D03*
X039177Y016735D03*
D96*
X037367Y014865D03*
X037167Y014865D03*
X035547Y018675D03*
X037367Y018985D03*
X004307Y005735D03*
X004107Y005735D03*
X005927Y001925D03*
X004107Y001615D03*
D97*
X004437Y001935D03*
X005907Y001925D03*
X005927Y003845D03*
X004427Y003845D03*
X005447Y005755D03*
X005487Y005755D03*
X005497Y005755D03*
X035547Y016755D03*
X037047Y016755D03*
X037037Y018665D03*
X035567Y018675D03*
X035977Y014845D03*
X035987Y014845D03*
X036027Y014845D03*
D98*
X036017Y014855D03*
X036007Y014855D03*
X037157Y014855D03*
X039217Y014855D03*
X035557Y018675D03*
X039217Y018975D03*
X005467Y005745D03*
X005457Y005745D03*
X004317Y005745D03*
X002257Y005745D03*
X005917Y001925D03*
X002257Y001625D03*
D99*
X005897Y001930D03*
X005917Y003840D03*
X005537Y005770D03*
X004337Y005770D03*
X035557Y016760D03*
X035577Y018670D03*
X035937Y014830D03*
X037137Y014830D03*
D100*
X037127Y014820D03*
X037027Y016750D03*
X035567Y016760D03*
X005907Y003840D03*
X004447Y003850D03*
X004347Y005780D03*
D101*
X004357Y005790D03*
X004077Y005790D03*
X005407Y005790D03*
X005897Y003840D03*
X004457Y003850D03*
X004077Y001670D03*
X035577Y016760D03*
X037017Y016750D03*
X037117Y014810D03*
X037397Y014810D03*
X036067Y014810D03*
X037397Y018930D03*
D102*
X037007Y018665D03*
X038337Y018935D03*
X038347Y018935D03*
X039187Y018935D03*
X035587Y018675D03*
X036057Y014815D03*
X038337Y014815D03*
X038347Y014815D03*
X039187Y014815D03*
X005887Y001925D03*
X004467Y001935D03*
X003137Y001665D03*
X003127Y001665D03*
X002287Y001665D03*
X002287Y005785D03*
X003127Y005785D03*
X003137Y005785D03*
X005417Y005785D03*
D103*
X005397Y005800D03*
X004367Y005800D03*
X003147Y005800D03*
X004467Y003850D03*
X005887Y003840D03*
X003147Y001680D03*
X035587Y016760D03*
X037007Y016750D03*
X037107Y014800D03*
X036077Y014800D03*
X038327Y014800D03*
X038327Y018920D03*
D104*
X038357Y018925D03*
X039177Y018925D03*
X036997Y018665D03*
X035597Y018675D03*
X038357Y014805D03*
X039177Y014805D03*
X005877Y001925D03*
X004477Y001935D03*
X003117Y001675D03*
X002297Y001675D03*
X002297Y005795D03*
X003117Y005795D03*
D105*
X004387Y005810D03*
X005877Y003840D03*
X005857Y001920D03*
X035597Y016760D03*
X035617Y018680D03*
X037087Y014790D03*
D106*
X036347Y014200D03*
X037027Y013270D03*
X038147Y012800D03*
X036377Y012750D03*
X036367Y012740D03*
X036357Y012740D03*
X036347Y012730D03*
X036337Y012720D03*
X036327Y012710D03*
X036317Y012710D03*
X036307Y012700D03*
X036297Y012690D03*
X036287Y012680D03*
X036277Y012670D03*
X036267Y012670D03*
X036257Y012660D03*
X035597Y012140D03*
X038807Y014180D03*
X036707Y016160D03*
X036697Y016150D03*
X035877Y016170D03*
X035887Y017350D03*
X037217Y018660D03*
X036727Y019220D03*
X036717Y019230D03*
X035877Y019230D03*
X038807Y018300D03*
X039107Y016740D03*
X039117Y016740D03*
X039127Y016740D03*
X005877Y008460D03*
X005217Y007940D03*
X005207Y007930D03*
X005197Y007930D03*
X005187Y007920D03*
X005177Y007910D03*
X005167Y007900D03*
X005157Y007890D03*
X005147Y007890D03*
X005137Y007880D03*
X005127Y007870D03*
X005117Y007860D03*
X005107Y007860D03*
X005097Y007850D03*
X004447Y007330D03*
X003327Y007800D03*
X002667Y006420D03*
X005127Y006400D03*
X004777Y004450D03*
X004767Y004440D03*
X005597Y004430D03*
X005587Y003250D03*
X004257Y001940D03*
X004747Y001380D03*
X004757Y001370D03*
X005597Y001370D03*
X002667Y002300D03*
X002367Y003860D03*
X002357Y003860D03*
X002347Y003860D03*
D107*
X004487Y001935D03*
X004067Y001685D03*
X003107Y001685D03*
X002307Y001685D03*
X005867Y001925D03*
X005387Y005805D03*
X004377Y005805D03*
X004067Y005805D03*
X003107Y005805D03*
X002307Y005805D03*
X035607Y018675D03*
X036987Y018665D03*
X037407Y018915D03*
X038367Y018915D03*
X039167Y018915D03*
X039167Y014795D03*
X038367Y014795D03*
X037407Y014795D03*
X037097Y014795D03*
X036087Y014795D03*
D108*
X037067Y014775D03*
X038307Y014775D03*
X036987Y016755D03*
X035607Y016755D03*
X035637Y018675D03*
X036967Y018665D03*
X038307Y018895D03*
X005867Y003845D03*
X004487Y003845D03*
X004507Y001935D03*
X003167Y001705D03*
X005837Y001925D03*
X004407Y005825D03*
X003167Y005825D03*
D109*
X003177Y005835D03*
X003067Y005835D03*
X002347Y005835D03*
X004037Y005835D03*
X004427Y005835D03*
X005347Y005835D03*
X005857Y003845D03*
X004497Y003845D03*
X004517Y001935D03*
X004037Y001715D03*
X003177Y001715D03*
X003067Y001715D03*
X002347Y001715D03*
X005827Y001925D03*
X035617Y016755D03*
X036977Y016755D03*
X036957Y018665D03*
X037437Y018885D03*
X038297Y018885D03*
X038407Y018885D03*
X039127Y018885D03*
X035647Y018675D03*
X036127Y014765D03*
X037047Y014765D03*
X037437Y014765D03*
X038297Y014765D03*
X038407Y014765D03*
X039127Y014765D03*
D110*
X039147Y014780D03*
X038387Y014780D03*
X037077Y014780D03*
X036107Y014780D03*
X035627Y018680D03*
X038387Y018900D03*
X039147Y018900D03*
X005367Y005820D03*
X004397Y005820D03*
X003087Y005820D03*
X002327Y005820D03*
X005847Y001920D03*
X003087Y001700D03*
X002327Y001700D03*
D111*
X002357Y001725D03*
X003057Y001725D03*
X003187Y001725D03*
X004027Y001725D03*
X004527Y001935D03*
X005817Y001925D03*
X005847Y003845D03*
X004507Y003845D03*
X004437Y005845D03*
X004027Y005845D03*
X003187Y005845D03*
X003057Y005845D03*
X002357Y005845D03*
X005327Y005845D03*
X035627Y016755D03*
X036967Y016755D03*
X036947Y018665D03*
X037447Y018875D03*
X038287Y018875D03*
X038417Y018875D03*
X039117Y018875D03*
X035657Y018675D03*
X036147Y014755D03*
X037037Y014755D03*
X037447Y014755D03*
X038287Y014755D03*
X038417Y014755D03*
X039117Y014755D03*
D112*
X039097Y014745D03*
X038437Y014745D03*
X038277Y014745D03*
X037457Y014745D03*
X037017Y014745D03*
X036167Y014745D03*
X035637Y016755D03*
X036957Y016755D03*
X035667Y018675D03*
X037457Y018865D03*
X038277Y018865D03*
X038437Y018865D03*
X039097Y018865D03*
X005837Y003845D03*
X004517Y003845D03*
X005807Y001925D03*
X004017Y001735D03*
X003197Y001735D03*
X003037Y001735D03*
X002377Y001735D03*
X002377Y005855D03*
X003037Y005855D03*
X003197Y005855D03*
X004017Y005855D03*
X004457Y005855D03*
X005307Y005855D03*
D113*
X005627Y004405D03*
X004737Y004415D03*
X004727Y003285D03*
X005617Y003275D03*
X004727Y001405D03*
X004487Y007345D03*
X004477Y007345D03*
X003307Y007795D03*
X005837Y008445D03*
X035637Y012155D03*
X036987Y013255D03*
X036997Y013255D03*
X038167Y012805D03*
X036737Y016185D03*
X035847Y016195D03*
X035857Y017325D03*
X036747Y017315D03*
X036747Y019195D03*
D114*
X036927Y018670D03*
X038447Y018860D03*
X039087Y018860D03*
X035647Y016760D03*
X036177Y014740D03*
X037007Y014740D03*
X038447Y014740D03*
X039087Y014740D03*
X005827Y003840D03*
X004547Y001930D03*
X003027Y001740D03*
X002387Y001740D03*
X002387Y005860D03*
X003027Y005860D03*
X004467Y005860D03*
X005297Y005860D03*
D115*
X005277Y005870D03*
X005267Y005870D03*
X004497Y005870D03*
X003997Y005870D03*
X003217Y005870D03*
X003007Y005870D03*
X002407Y005870D03*
X003387Y003860D03*
X003397Y003860D03*
X004537Y003850D03*
X005817Y003840D03*
X003997Y001750D03*
X003217Y001750D03*
X003007Y001750D03*
X002407Y001750D03*
X035657Y016760D03*
X036937Y016750D03*
X038077Y016740D03*
X038087Y016740D03*
X038257Y014730D03*
X038467Y014730D03*
X039067Y014730D03*
X037477Y014730D03*
X036977Y014730D03*
X036207Y014730D03*
X036197Y014730D03*
X037477Y018850D03*
X038257Y018850D03*
X038467Y018850D03*
X039067Y018850D03*
D116*
X039047Y018840D03*
X039037Y018840D03*
X038487Y018840D03*
X038247Y018840D03*
X036817Y018720D03*
X036807Y018730D03*
X035697Y018670D03*
X035667Y016760D03*
X036927Y016750D03*
X038047Y016740D03*
X038057Y016740D03*
X038067Y016740D03*
X038247Y014720D03*
X038487Y014720D03*
X039037Y014720D03*
X039047Y014720D03*
X036957Y014720D03*
X036227Y014720D03*
X005807Y003840D03*
X004547Y003850D03*
X003427Y003860D03*
X003417Y003860D03*
X003407Y003860D03*
X004657Y001880D03*
X004667Y001870D03*
X005777Y001930D03*
X003227Y001760D03*
X002987Y001760D03*
X002437Y001760D03*
X002427Y001760D03*
X002427Y005880D03*
X002437Y005880D03*
X002987Y005880D03*
X003227Y005880D03*
X004517Y005880D03*
X005247Y005880D03*
D117*
X005287Y005865D03*
X004487Y005865D03*
X004477Y005865D03*
X004007Y005865D03*
X003207Y005865D03*
X003017Y005865D03*
X002397Y005865D03*
X004527Y003845D03*
X004557Y001935D03*
X004007Y001745D03*
X003207Y001745D03*
X003017Y001745D03*
X002397Y001745D03*
X005797Y001925D03*
X036187Y014735D03*
X036987Y014735D03*
X036997Y014735D03*
X037467Y014735D03*
X038267Y014735D03*
X038457Y014735D03*
X039077Y014735D03*
X036947Y016755D03*
X036917Y018665D03*
X037467Y018855D03*
X038267Y018855D03*
X038457Y018855D03*
X039077Y018855D03*
X035677Y018675D03*
D118*
X036887Y018670D03*
X037507Y018830D03*
X039017Y018830D03*
X038037Y016740D03*
X038027Y016740D03*
X036917Y016750D03*
X035677Y016760D03*
X036257Y014710D03*
X036927Y014710D03*
X037507Y014710D03*
X039017Y014710D03*
X005797Y003840D03*
X004557Y003850D03*
X003447Y003860D03*
X003437Y003860D03*
X004587Y001930D03*
X003967Y001770D03*
X002457Y001770D03*
X002457Y005890D03*
X003967Y005890D03*
X004547Y005890D03*
X005217Y005890D03*
D119*
X004707Y006390D03*
X004517Y007360D03*
X003277Y007800D03*
X005797Y008430D03*
X004717Y004390D03*
X005637Y003300D03*
X002437Y003860D03*
X002427Y003860D03*
X002417Y003860D03*
X004707Y001430D03*
X035677Y012170D03*
X036957Y013240D03*
X038197Y012800D03*
X036767Y014210D03*
X036757Y016210D03*
X035837Y017300D03*
X039037Y016740D03*
X039047Y016740D03*
X039057Y016740D03*
X036767Y019170D03*
D120*
X037487Y018845D03*
X036907Y018665D03*
X036797Y018745D03*
X035687Y018675D03*
X038477Y018845D03*
X039057Y018845D03*
X039057Y014725D03*
X038477Y014725D03*
X037487Y014725D03*
X036967Y014725D03*
X036217Y014725D03*
X005787Y001925D03*
X004677Y001855D03*
X004567Y001935D03*
X003987Y001755D03*
X002997Y001755D03*
X002417Y001755D03*
X002417Y005875D03*
X002997Y005875D03*
X003987Y005875D03*
X004507Y005875D03*
X005257Y005875D03*
D121*
X005187Y005900D03*
X005177Y005900D03*
X004587Y005900D03*
X004577Y005900D03*
X003947Y005900D03*
X003257Y005900D03*
X002497Y005900D03*
X002487Y005900D03*
X003457Y003860D03*
X003467Y003860D03*
X004567Y003850D03*
X005787Y003840D03*
X005677Y001880D03*
X003947Y001780D03*
X003257Y001780D03*
X002497Y001780D03*
X002487Y001780D03*
X035687Y016760D03*
X036907Y016750D03*
X038007Y016740D03*
X038017Y016740D03*
X035797Y018720D03*
X037527Y018820D03*
X038217Y018820D03*
X038977Y018820D03*
X038987Y018820D03*
X038987Y014700D03*
X038977Y014700D03*
X038217Y014700D03*
X037527Y014700D03*
X036897Y014700D03*
X036887Y014700D03*
X036297Y014700D03*
X036287Y014700D03*
D122*
X036307Y014695D03*
X036317Y014695D03*
X036867Y014695D03*
X036877Y014695D03*
X037537Y014695D03*
X038207Y014695D03*
X038957Y014695D03*
X038967Y014695D03*
X036897Y016755D03*
X035697Y016755D03*
X035727Y018675D03*
X035787Y018705D03*
X037537Y018815D03*
X038207Y018815D03*
X038957Y018815D03*
X038967Y018815D03*
X005777Y003845D03*
X004577Y003845D03*
X005687Y001895D03*
X005747Y001925D03*
X003937Y001785D03*
X003267Y001785D03*
X002517Y001785D03*
X002507Y001785D03*
X002507Y005905D03*
X002517Y005905D03*
X003267Y005905D03*
X003937Y005905D03*
X004597Y005905D03*
X004607Y005905D03*
X005157Y005905D03*
X005167Y005905D03*
D123*
X005227Y005885D03*
X005237Y005885D03*
X004537Y005885D03*
X004527Y005885D03*
X003977Y005885D03*
X003237Y005885D03*
X002447Y005885D03*
X004577Y001935D03*
X004637Y001895D03*
X004647Y001885D03*
X003977Y001765D03*
X003237Y001765D03*
X002447Y001765D03*
X005767Y001925D03*
X036237Y014715D03*
X036247Y014715D03*
X036937Y014715D03*
X036947Y014715D03*
X037497Y014715D03*
X038237Y014715D03*
X039027Y014715D03*
X036897Y018665D03*
X036837Y018705D03*
X036827Y018715D03*
X037497Y018835D03*
X038237Y018835D03*
X039027Y018835D03*
X035707Y018675D03*
D124*
X037557Y018805D03*
X038187Y018805D03*
X038897Y018805D03*
X038907Y018805D03*
X038917Y018805D03*
X036887Y016755D03*
X035707Y016755D03*
X036817Y014685D03*
X036827Y014685D03*
X036837Y014685D03*
X037557Y014685D03*
X038187Y014685D03*
X038897Y014685D03*
X038907Y014685D03*
X038917Y014685D03*
X005767Y003845D03*
X004587Y003845D03*
X004637Y005915D03*
X004647Y005915D03*
X004657Y005915D03*
X003917Y005915D03*
X003287Y005915D03*
X002577Y005915D03*
X002567Y005915D03*
X002557Y005915D03*
X002557Y001795D03*
X002567Y001795D03*
X002577Y001795D03*
X003287Y001795D03*
X003917Y001795D03*
D125*
X003957Y001775D03*
X004597Y001935D03*
X004607Y001925D03*
X004617Y001915D03*
X004627Y001905D03*
X005757Y001925D03*
X003247Y001775D03*
X002477Y001775D03*
X002467Y001775D03*
X002467Y005895D03*
X002477Y005895D03*
X003247Y005895D03*
X003957Y005895D03*
X004557Y005895D03*
X004567Y005895D03*
X005197Y005895D03*
X005207Y005895D03*
X035717Y018675D03*
X036847Y018695D03*
X036857Y018685D03*
X036867Y018675D03*
X036877Y018665D03*
X037517Y018825D03*
X038227Y018825D03*
X038997Y018825D03*
X039007Y018825D03*
X039007Y014705D03*
X038997Y014705D03*
X038227Y014705D03*
X037517Y014705D03*
X036917Y014705D03*
X036907Y014705D03*
X036277Y014705D03*
X036267Y014705D03*
D126*
X036787Y014680D03*
X036797Y014680D03*
X036807Y014680D03*
X037567Y014680D03*
X037577Y014680D03*
X038167Y014680D03*
X038177Y014680D03*
X038837Y014680D03*
X038847Y014680D03*
X038857Y014680D03*
X038867Y014680D03*
X038877Y014680D03*
X038887Y014680D03*
X037967Y016740D03*
X037957Y016740D03*
X036877Y016750D03*
X035717Y016760D03*
X035747Y018670D03*
X035757Y018680D03*
X037567Y018800D03*
X037577Y018800D03*
X038167Y018800D03*
X038177Y018800D03*
X038837Y018800D03*
X038847Y018800D03*
X038857Y018800D03*
X038867Y018800D03*
X038877Y018800D03*
X038887Y018800D03*
X005757Y003840D03*
X004597Y003850D03*
X003517Y003860D03*
X003507Y003860D03*
X005717Y001920D03*
X005727Y001930D03*
X003907Y001800D03*
X003897Y001800D03*
X003307Y001800D03*
X003297Y001800D03*
X002637Y001800D03*
X002627Y001800D03*
X002617Y001800D03*
X002607Y001800D03*
X002597Y001800D03*
X002587Y001800D03*
X002587Y005920D03*
X002597Y005920D03*
X002607Y005920D03*
X002617Y005920D03*
X002627Y005920D03*
X002637Y005920D03*
X003297Y005920D03*
X003307Y005920D03*
X003897Y005920D03*
X003907Y005920D03*
X004667Y005920D03*
X004677Y005920D03*
X004687Y005920D03*
D127*
X004557Y007375D03*
X003257Y007795D03*
X005757Y008415D03*
X005657Y004355D03*
X004697Y004355D03*
X035717Y012185D03*
X036917Y013225D03*
X038217Y012805D03*
X036777Y016245D03*
X035817Y016245D03*
D128*
X035727Y016760D03*
X036867Y016750D03*
X037937Y016740D03*
X037947Y016740D03*
X038147Y018790D03*
X037597Y018790D03*
X037597Y014670D03*
X038147Y014670D03*
X005747Y003840D03*
X004607Y003850D03*
X003537Y003860D03*
X003527Y003860D03*
X003327Y001810D03*
X003877Y001810D03*
X003877Y005930D03*
X003327Y005930D03*
D129*
X003277Y005910D03*
X002547Y005910D03*
X002537Y005910D03*
X002527Y005910D03*
X003927Y005910D03*
X004617Y005910D03*
X004627Y005910D03*
X005147Y005910D03*
X003497Y003860D03*
X003487Y003860D03*
X003477Y003860D03*
X005697Y001900D03*
X005707Y001910D03*
X005737Y001930D03*
X003927Y001790D03*
X003277Y001790D03*
X002547Y001790D03*
X002537Y001790D03*
X002527Y001790D03*
X036327Y014690D03*
X036847Y014690D03*
X036857Y014690D03*
X037547Y014690D03*
X038197Y014690D03*
X038927Y014690D03*
X038937Y014690D03*
X038947Y014690D03*
X037997Y016740D03*
X037987Y016740D03*
X037977Y016740D03*
X035777Y018700D03*
X035767Y018690D03*
X035737Y018670D03*
X037547Y018810D03*
X038197Y018810D03*
X038927Y018810D03*
X038937Y018810D03*
X038947Y018810D03*
D130*
X038137Y018785D03*
X038127Y018785D03*
X037617Y018785D03*
X037607Y018785D03*
X036857Y016755D03*
X035737Y016755D03*
X037607Y014665D03*
X037617Y014665D03*
X038127Y014665D03*
X038137Y014665D03*
X005737Y003845D03*
X004617Y003845D03*
X003867Y001815D03*
X003857Y001815D03*
X003347Y001815D03*
X003337Y001815D03*
X003337Y005935D03*
X003347Y005935D03*
X003857Y005935D03*
X003867Y005935D03*
D131*
X003827Y005945D03*
X003817Y005945D03*
X004627Y003845D03*
X005727Y003845D03*
X003827Y001825D03*
X003817Y001825D03*
X035747Y016755D03*
X036847Y016755D03*
X037647Y018775D03*
X037657Y018775D03*
X037657Y014655D03*
X037647Y014655D03*
D132*
X036877Y013210D03*
X038247Y012800D03*
X035757Y012200D03*
X035747Y012200D03*
X035807Y016260D03*
X036787Y017250D03*
X038967Y016740D03*
X038977Y016740D03*
X038987Y016740D03*
X005727Y008400D03*
X005717Y008400D03*
X004597Y007390D03*
X003227Y007800D03*
X005667Y004340D03*
X004687Y003350D03*
X002507Y003860D03*
X002497Y003860D03*
X002487Y003860D03*
D133*
X003577Y003860D03*
X003587Y003860D03*
X005717Y003840D03*
X003807Y001830D03*
X003797Y001830D03*
X003797Y005950D03*
X003807Y005950D03*
X035757Y016760D03*
X037887Y016740D03*
X037897Y016740D03*
X037677Y018770D03*
X037667Y018770D03*
X037667Y014650D03*
X037677Y014650D03*
D134*
X037717Y014640D03*
X037727Y014640D03*
X037737Y014640D03*
X037867Y016740D03*
X037877Y016740D03*
X035767Y016760D03*
X037717Y018760D03*
X037727Y018760D03*
X037737Y018760D03*
X005707Y003840D03*
X003607Y003860D03*
X003597Y003860D03*
X003737Y001840D03*
X003747Y001840D03*
X003757Y001840D03*
X003757Y005960D03*
X003747Y005960D03*
X003737Y005960D03*
D135*
X004607Y007395D03*
X005707Y008395D03*
X004687Y004335D03*
X005667Y003355D03*
X004687Y001475D03*
X035767Y012205D03*
X036867Y013205D03*
X036787Y016265D03*
X035807Y017245D03*
X036787Y019125D03*
D136*
X037747Y018755D03*
X037757Y018755D03*
X037767Y018755D03*
X036817Y016755D03*
X035777Y016755D03*
X037747Y014635D03*
X037757Y014635D03*
X037767Y014635D03*
X005697Y003845D03*
X004657Y003845D03*
X003727Y001845D03*
X003717Y001845D03*
X003707Y001845D03*
X003707Y005965D03*
X003717Y005965D03*
X003727Y005965D03*
D137*
X003637Y003860D03*
X003627Y003860D03*
X003617Y003860D03*
X004667Y003850D03*
X005687Y003840D03*
X035787Y016760D03*
X036807Y016750D03*
X037837Y016740D03*
X037847Y016740D03*
X037857Y016740D03*
D138*
X035907Y018230D03*
X005567Y002370D03*
D139*
X005557Y002370D03*
X004787Y002350D03*
X035917Y018230D03*
X036687Y018250D03*
D140*
X036677Y018250D03*
X035927Y018230D03*
X005547Y002370D03*
X004797Y002350D03*
D141*
X004807Y002350D03*
X005537Y002370D03*
X035937Y018230D03*
X036667Y018250D03*
D142*
X036657Y018255D03*
X035947Y018235D03*
X005527Y002365D03*
X004817Y002345D03*
D143*
X004447Y001935D03*
X004437Y003845D03*
X005437Y005765D03*
X005517Y005765D03*
X005527Y005765D03*
X035947Y014835D03*
X035957Y014835D03*
X036037Y014835D03*
X037037Y016755D03*
X037027Y018665D03*
D144*
X035967Y018240D03*
X005507Y002360D03*
D145*
X004097Y001640D03*
X002267Y001640D03*
X002267Y005760D03*
X004097Y005760D03*
X004327Y005760D03*
X005507Y005760D03*
X035967Y014840D03*
X037147Y014840D03*
X037377Y014840D03*
X039207Y014840D03*
X039207Y018960D03*
X037377Y018960D03*
D146*
X036617Y018260D03*
X035987Y018240D03*
X005487Y002360D03*
X004857Y002340D03*
D147*
X005477Y002355D03*
X035997Y018245D03*
D148*
X035997Y014850D03*
X005477Y005750D03*
D149*
X005467Y002350D03*
X004877Y002340D03*
X036007Y018250D03*
X036597Y018260D03*
D150*
X036587Y018265D03*
X036017Y018255D03*
X005457Y002345D03*
X004887Y002335D03*
D151*
X004457Y001935D03*
X004087Y001655D03*
X002277Y001655D03*
X002277Y005775D03*
X004087Y005775D03*
X005427Y005775D03*
X036047Y014825D03*
X037387Y014825D03*
X039197Y014825D03*
X037017Y018665D03*
X037387Y018945D03*
X039197Y018945D03*
D152*
X039157Y018905D03*
X038377Y018905D03*
X038317Y018905D03*
X037417Y018905D03*
X036977Y018665D03*
X036997Y016755D03*
X037417Y014785D03*
X038317Y014785D03*
X038377Y014785D03*
X039157Y014785D03*
X036097Y014785D03*
X005377Y005815D03*
X004057Y005815D03*
X003157Y005815D03*
X003097Y005815D03*
X002317Y005815D03*
X004477Y003845D03*
X004497Y001935D03*
X004057Y001695D03*
X003157Y001695D03*
X003097Y001695D03*
X002317Y001695D03*
D153*
X002337Y001710D03*
X003077Y001710D03*
X004047Y001710D03*
X004047Y005830D03*
X004417Y005830D03*
X005357Y005830D03*
X003077Y005830D03*
X002337Y005830D03*
X036117Y014770D03*
X037057Y014770D03*
X037427Y014770D03*
X038397Y014770D03*
X039137Y014770D03*
X039137Y018890D03*
X038397Y018890D03*
X037427Y018890D03*
D154*
X037127Y016755D03*
X036517Y013065D03*
X036507Y013065D03*
X036117Y012345D03*
X005357Y008255D03*
X004967Y007535D03*
X004957Y007535D03*
X004347Y003845D03*
D155*
X005337Y005840D03*
X036137Y014760D03*
D156*
X036487Y013055D03*
X036147Y012355D03*
X038497Y012805D03*
X005327Y008245D03*
X004987Y007545D03*
X002977Y007795D03*
D157*
X003047Y005850D03*
X002367Y005850D03*
X004447Y005850D03*
X005317Y005850D03*
X004537Y001930D03*
X003047Y001730D03*
X002367Y001730D03*
X036157Y014750D03*
X037027Y014750D03*
X038427Y014750D03*
X039107Y014750D03*
X036937Y018670D03*
X038427Y018870D03*
X039107Y018870D03*
D158*
X039247Y019060D03*
X037107Y018660D03*
X039247Y014940D03*
X036447Y013040D03*
X036187Y012370D03*
X036177Y012370D03*
X038517Y012800D03*
X005297Y008230D03*
X005287Y008230D03*
X005027Y007560D03*
X002957Y007800D03*
X002227Y005660D03*
X004367Y001940D03*
X002227Y001540D03*
D159*
X005037Y007565D03*
X005277Y008225D03*
X002947Y007795D03*
X036197Y012375D03*
X036437Y013035D03*
X038527Y012805D03*
D160*
X038557Y012800D03*
X036397Y013020D03*
X036237Y012390D03*
X037197Y014920D03*
X005237Y008210D03*
X005077Y007580D03*
X002917Y007800D03*
X004277Y005680D03*
D161*
X004897Y002330D03*
X036577Y018270D03*
D162*
X036607Y018260D03*
X004867Y002340D03*
D163*
X004837Y002345D03*
X036637Y018255D03*
D164*
X036697Y018250D03*
X004777Y002350D03*
D165*
X003887Y001805D03*
X003317Y001805D03*
X002647Y001805D03*
X002647Y005925D03*
X003317Y005925D03*
X003887Y005925D03*
X004697Y005925D03*
X036777Y014675D03*
X037587Y014675D03*
X038157Y014675D03*
X038827Y014675D03*
X038827Y018795D03*
X038157Y018795D03*
X037587Y018795D03*
D166*
X037687Y018765D03*
X037697Y018765D03*
X037707Y018765D03*
X036837Y016755D03*
X036827Y016755D03*
X037687Y014645D03*
X037697Y014645D03*
X037707Y014645D03*
X004647Y003845D03*
X004637Y003845D03*
X003787Y001835D03*
X003777Y001835D03*
X003767Y001835D03*
X003767Y005955D03*
X003777Y005955D03*
X003787Y005955D03*
D167*
X004387Y001940D03*
X037087Y018660D03*
D168*
X037177Y014880D03*
X004297Y005720D03*
D169*
X004237Y003845D03*
X037237Y016755D03*
D170*
X037907Y016740D03*
X037917Y016740D03*
X037927Y016740D03*
X037637Y018780D03*
X037627Y018780D03*
X037627Y014660D03*
X037637Y014660D03*
X003847Y005940D03*
X003837Y005940D03*
X003567Y003860D03*
X003557Y003860D03*
X003547Y003860D03*
X003837Y001820D03*
X003847Y001820D03*
D171*
X003787Y003860D03*
X037687Y016740D03*
D172*
X037697Y016740D03*
X037707Y016740D03*
X003777Y003860D03*
X003767Y003860D03*
D173*
X003757Y003860D03*
X003747Y003860D03*
X003737Y003860D03*
X037717Y016740D03*
X037727Y016740D03*
X037737Y016740D03*
D174*
X037747Y016740D03*
X037757Y016740D03*
X003727Y003860D03*
X003717Y003860D03*
D175*
X003707Y003860D03*
X003697Y003860D03*
X037767Y016740D03*
X037777Y016740D03*
D176*
X037787Y016735D03*
X003687Y003865D03*
D177*
X003677Y003860D03*
X003667Y003860D03*
X037797Y016740D03*
X037807Y016740D03*
D178*
X037817Y016740D03*
X037827Y016740D03*
X003657Y003860D03*
X003647Y003860D03*
D179*
X014137Y002800D02*
X014947Y002800D01*
X014947Y006800D01*
X014137Y006800D01*
X014137Y008300D02*
X014947Y008300D01*
X014947Y012300D01*
X014137Y012300D01*
X014137Y013800D02*
X014947Y013800D01*
X014947Y017800D01*
X014137Y017800D01*
X026527Y017800D02*
X026527Y013800D01*
X027337Y013800D01*
X027337Y012300D02*
X026527Y012300D01*
X026527Y008300D01*
X027337Y008300D01*
X027337Y006800D02*
X026527Y006800D01*
X026527Y002800D01*
X027337Y002800D01*
X027337Y017800D02*
X026527Y017800D01*
D180*
X022487Y017550D02*
X022237Y017300D01*
X022487Y017050D01*
X022487Y016550D01*
X022237Y016300D01*
X022487Y016050D01*
X022487Y015550D01*
X022237Y015300D01*
X022487Y015050D01*
X022487Y014550D01*
X022237Y014300D01*
X022487Y014050D01*
X022487Y013550D01*
X022237Y013300D01*
X022487Y013050D01*
X022487Y012550D01*
X022237Y012300D01*
X022487Y012050D01*
X022487Y011550D01*
X022237Y011300D01*
X022487Y011050D01*
X022487Y010550D01*
X022237Y010300D01*
X022487Y010050D01*
X022487Y009550D01*
X022237Y009300D01*
X022487Y009050D01*
X022487Y008550D01*
X022237Y008300D01*
X022487Y008050D01*
X022487Y007550D01*
X022237Y007300D01*
X022487Y007050D01*
X022487Y006550D01*
X022237Y006300D01*
X022487Y006050D01*
X022487Y005550D01*
X022237Y005300D01*
X022487Y005050D01*
X022487Y004550D01*
X022237Y004300D01*
X022487Y004050D01*
X022487Y003550D01*
X022237Y003300D01*
X022487Y003050D01*
X022487Y002550D01*
X022237Y002300D01*
X021737Y002300D01*
X021487Y002550D01*
X021487Y003050D01*
X021737Y003300D01*
X021487Y003550D01*
X021487Y004050D01*
X021737Y004300D01*
X022237Y004300D01*
X021737Y004300D02*
X021487Y004550D01*
X021487Y005050D01*
X021737Y005300D01*
X021487Y005550D01*
X021487Y006050D01*
X021737Y006300D01*
X021487Y006550D01*
X021487Y007050D01*
X021737Y007300D01*
X022237Y007300D01*
X021737Y007300D02*
X021487Y007550D01*
X021487Y008050D01*
X021737Y008300D01*
X021487Y008550D01*
X021487Y009050D01*
X021737Y009300D01*
X021487Y009550D01*
X021487Y010050D01*
X021737Y010300D01*
X022237Y010300D01*
X021737Y010300D02*
X021487Y010550D01*
X021487Y011050D01*
X021737Y011300D01*
X021487Y011550D01*
X021487Y012050D01*
X021737Y012300D01*
X021487Y012550D01*
X021487Y013050D01*
X021737Y013300D01*
X022237Y013300D01*
X021737Y013300D02*
X021487Y013550D01*
X021487Y014050D01*
X021737Y014300D01*
X021487Y014550D01*
X021487Y015050D01*
X021737Y015300D01*
X021487Y015550D01*
X021487Y016050D01*
X021737Y016300D01*
X022237Y016300D01*
X021737Y016300D02*
X021487Y016550D01*
X021487Y017050D01*
X021737Y017300D01*
X021487Y017550D01*
X021487Y018050D01*
X021737Y018300D01*
X022237Y018300D01*
X022487Y018050D01*
X022487Y017550D01*
X022237Y017300D02*
X021737Y017300D01*
X019987Y017550D02*
X019987Y018050D01*
X019737Y018300D01*
X019237Y018300D01*
X018987Y018050D01*
X018987Y017550D01*
X019237Y017300D01*
X018987Y017050D01*
X018987Y016550D01*
X019237Y016300D01*
X019737Y016300D01*
X019987Y016550D01*
X019987Y017050D01*
X019737Y017300D01*
X019237Y017300D01*
X019737Y017300D02*
X019987Y017550D01*
X019737Y016300D02*
X019987Y016050D01*
X019987Y015550D01*
X019737Y015300D01*
X019987Y015050D01*
X019987Y014550D01*
X019737Y014300D01*
X019987Y014050D01*
X019987Y013550D01*
X019737Y013300D01*
X019237Y013300D01*
X018987Y013550D01*
X018987Y014050D01*
X019237Y014300D01*
X018987Y014550D01*
X018987Y015050D01*
X019237Y015300D01*
X018987Y015550D01*
X018987Y016050D01*
X019237Y016300D01*
X019237Y015300D02*
X019737Y015300D01*
X019737Y014300D02*
X019237Y014300D01*
X019237Y013300D02*
X018987Y013050D01*
X018987Y012550D01*
X019237Y012300D01*
X018987Y012050D01*
X018987Y011550D01*
X019237Y011300D01*
X018987Y011050D01*
X018987Y010550D01*
X019237Y010300D01*
X019737Y010300D01*
X019987Y010550D01*
X019987Y011050D01*
X019737Y011300D01*
X019237Y011300D01*
X019737Y011300D02*
X019987Y011550D01*
X019987Y012050D01*
X019737Y012300D01*
X019237Y012300D01*
X019737Y012300D02*
X019987Y012550D01*
X019987Y013050D01*
X019737Y013300D01*
X021737Y012300D02*
X022237Y012300D01*
X022237Y011300D02*
X021737Y011300D01*
X019987Y010050D02*
X019737Y010300D01*
X019237Y010300D02*
X018987Y010050D01*
X018987Y009550D01*
X019237Y009300D01*
X018987Y009050D01*
X018987Y008550D01*
X019237Y008300D01*
X018987Y008050D01*
X018987Y007550D01*
X019237Y007300D01*
X019737Y007300D01*
X019987Y007550D01*
X019987Y008050D01*
X019737Y008300D01*
X019237Y008300D01*
X019737Y008300D02*
X019987Y008550D01*
X019987Y009050D01*
X019737Y009300D01*
X019237Y009300D01*
X019737Y009300D02*
X019987Y009550D01*
X019987Y010050D01*
X021737Y009300D02*
X022237Y009300D01*
X022237Y008300D02*
X021737Y008300D01*
X019987Y007050D02*
X019737Y007300D01*
X019987Y007050D02*
X019987Y006550D01*
X019737Y006300D01*
X019987Y006050D01*
X019987Y005550D01*
X019737Y005300D01*
X019987Y005050D01*
X019987Y004550D01*
X019737Y004300D01*
X019237Y004300D01*
X018987Y004550D01*
X018987Y005050D01*
X019237Y005300D01*
X018987Y005550D01*
X018987Y006050D01*
X019237Y006300D01*
X018987Y006550D01*
X018987Y007050D01*
X019237Y007300D01*
X019237Y006300D02*
X019737Y006300D01*
X019737Y005300D02*
X019237Y005300D01*
X019237Y004300D02*
X018987Y004050D01*
X018987Y003550D01*
X019237Y003300D01*
X018987Y003050D01*
X018987Y002550D01*
X019237Y002300D01*
X019737Y002300D01*
X019987Y002550D01*
X019987Y003050D01*
X019737Y003300D01*
X019237Y003300D01*
X019737Y003300D02*
X019987Y003550D01*
X019987Y004050D01*
X019737Y004300D01*
X021737Y005300D02*
X022237Y005300D01*
X022237Y006300D02*
X021737Y006300D01*
X021737Y003300D02*
X022237Y003300D01*
X033527Y003870D02*
X034947Y003870D01*
X034947Y005730D02*
X033527Y005730D01*
X035847Y007039D02*
X035847Y008062D01*
X035849Y008082D01*
X035853Y008102D01*
X035861Y008120D01*
X035871Y008137D01*
X035884Y008153D01*
X035900Y008166D01*
X035917Y008176D01*
X035935Y008184D01*
X035955Y008188D01*
X035975Y008190D01*
X036999Y008190D02*
X037019Y008188D01*
X037039Y008184D01*
X037057Y008176D01*
X037074Y008166D01*
X037090Y008153D01*
X037103Y008137D01*
X037113Y008120D01*
X037121Y008102D01*
X037125Y008082D01*
X037127Y008062D01*
X037127Y007039D01*
X037125Y007019D01*
X037121Y006999D01*
X037113Y006981D01*
X037103Y006964D01*
X037090Y006948D01*
X037074Y006935D01*
X037057Y006925D01*
X037039Y006917D01*
X037019Y006913D01*
X036999Y006911D01*
X035975Y006911D02*
X035955Y006913D01*
X035935Y006917D01*
X035917Y006925D01*
X035900Y006935D01*
X035884Y006948D01*
X035871Y006964D01*
X035861Y006981D01*
X035853Y006999D01*
X035849Y007019D01*
X035847Y007039D01*
X039487Y007050D02*
X039487Y006550D01*
X039737Y006300D01*
X039487Y006050D01*
X039487Y005550D01*
X039737Y005300D01*
X039487Y005050D01*
X039487Y004550D01*
X039737Y004300D01*
X040237Y004300D01*
X040487Y004550D01*
X040487Y005050D01*
X040237Y005300D01*
X039737Y005300D01*
X040237Y005300D02*
X040487Y005550D01*
X040487Y006050D01*
X040237Y006300D01*
X039737Y006300D01*
X040237Y006300D02*
X040487Y006550D01*
X040487Y007050D01*
X040237Y007300D01*
X039737Y007300D01*
X039487Y007550D01*
X039487Y008050D01*
X039737Y008300D01*
X039487Y008550D01*
X039487Y009050D01*
X039737Y009300D01*
X039487Y009550D01*
X039487Y010050D01*
X039737Y010300D01*
X039487Y010550D01*
X039487Y011050D01*
X039737Y011300D01*
X039487Y011550D01*
X039487Y012050D01*
X039737Y012300D01*
X039487Y012550D01*
X039487Y013050D01*
X039737Y013300D01*
X039487Y013550D01*
X039487Y014050D01*
X039737Y014300D01*
X039487Y014550D01*
X039487Y015050D01*
X039737Y015300D01*
X039487Y015550D01*
X039487Y016050D01*
X039737Y016300D01*
X039487Y016550D01*
X039487Y017050D01*
X039737Y017300D01*
X039487Y017550D01*
X039487Y018050D01*
X039737Y018300D01*
X040237Y018300D01*
X040487Y018050D01*
X040487Y017550D01*
X040237Y017300D01*
X040487Y017050D01*
X040487Y016550D01*
X040237Y016300D01*
X039737Y016300D01*
X040237Y016300D02*
X040487Y016050D01*
X040487Y015550D01*
X040237Y015300D01*
X040487Y015050D01*
X040487Y014550D01*
X040237Y014300D01*
X040487Y014050D01*
X040487Y013550D01*
X040237Y013300D01*
X039737Y013300D01*
X040237Y013300D02*
X040487Y013050D01*
X040487Y012550D01*
X040237Y012300D01*
X040487Y012050D01*
X040487Y011550D01*
X040237Y011300D01*
X040487Y011050D01*
X040487Y010550D01*
X040237Y010300D01*
X039737Y010300D01*
X040237Y010300D02*
X040487Y010050D01*
X040487Y009550D01*
X040237Y009300D01*
X040487Y009050D01*
X040487Y008550D01*
X040237Y008300D01*
X040487Y008050D01*
X040487Y007550D01*
X040237Y007300D01*
X039737Y007300D02*
X039487Y007050D01*
X039737Y008300D02*
X040237Y008300D01*
X040237Y009300D02*
X039737Y009300D01*
X039737Y011300D02*
X040237Y011300D01*
X040237Y012300D02*
X039737Y012300D01*
X039737Y014300D02*
X040237Y014300D01*
X040237Y015300D02*
X039737Y015300D01*
X039737Y017300D02*
X040237Y017300D01*
X034947Y011230D02*
X033527Y011230D01*
X033527Y009370D02*
X034947Y009370D01*
X039737Y004300D02*
X039487Y004050D01*
X039487Y003550D01*
X039737Y003300D01*
X039487Y003050D01*
X039487Y002550D01*
X039737Y002300D01*
X040237Y002300D01*
X040487Y002550D01*
X040487Y003050D01*
X040237Y003300D01*
X039737Y003300D01*
X040237Y003300D02*
X040487Y003550D01*
X040487Y004050D01*
X040237Y004300D01*
X022237Y014300D02*
X021737Y014300D01*
X021737Y015300D02*
X022237Y015300D01*
X007947Y014870D02*
X006527Y014870D01*
X005626Y013561D02*
X005626Y012538D01*
X005624Y012518D01*
X005620Y012498D01*
X005612Y012480D01*
X005602Y012463D01*
X005589Y012447D01*
X005573Y012434D01*
X005556Y012424D01*
X005538Y012416D01*
X005518Y012412D01*
X005498Y012410D01*
X004474Y012410D02*
X004454Y012412D01*
X004434Y012416D01*
X004416Y012424D01*
X004399Y012434D01*
X004383Y012447D01*
X004370Y012463D01*
X004360Y012480D01*
X004352Y012498D01*
X004348Y012518D01*
X004346Y012538D01*
X004347Y012538D02*
X004347Y013561D01*
X004346Y013561D02*
X004348Y013581D01*
X004352Y013601D01*
X004360Y013619D01*
X004370Y013636D01*
X004383Y013652D01*
X004399Y013665D01*
X004416Y013675D01*
X004434Y013683D01*
X004454Y013687D01*
X004474Y013689D01*
X005498Y013689D02*
X005518Y013687D01*
X005538Y013683D01*
X005556Y013675D01*
X005573Y013665D01*
X005589Y013652D01*
X005602Y013636D01*
X005612Y013619D01*
X005620Y013601D01*
X005624Y013581D01*
X005626Y013561D01*
X001987Y013550D02*
X001737Y013300D01*
X001987Y013050D01*
X001987Y012550D01*
X001737Y012300D01*
X001987Y012050D01*
X001987Y011550D01*
X001737Y011300D01*
X001987Y011050D01*
X001987Y010550D01*
X001737Y010300D01*
X001987Y010050D01*
X001987Y009550D01*
X001737Y009300D01*
X001987Y009050D01*
X001987Y008550D01*
X001737Y008300D01*
X001987Y008050D01*
X001987Y007550D01*
X001737Y007300D01*
X001987Y007050D01*
X001987Y006550D01*
X001737Y006300D01*
X001987Y006050D01*
X001987Y005550D01*
X001737Y005300D01*
X001987Y005050D01*
X001987Y004550D01*
X001737Y004300D01*
X001987Y004050D01*
X001987Y003550D01*
X001737Y003300D01*
X001987Y003050D01*
X001987Y002550D01*
X001737Y002300D01*
X001237Y002300D01*
X000987Y002550D01*
X000987Y003050D01*
X001237Y003300D01*
X000987Y003550D01*
X000987Y004050D01*
X001237Y004300D01*
X001737Y004300D01*
X001237Y004300D02*
X000987Y004550D01*
X000987Y005050D01*
X001237Y005300D01*
X000987Y005550D01*
X000987Y006050D01*
X001237Y006300D01*
X000987Y006550D01*
X000987Y007050D01*
X001237Y007300D01*
X001737Y007300D01*
X001237Y007300D02*
X000987Y007550D01*
X000987Y008050D01*
X001237Y008300D01*
X000987Y008550D01*
X000987Y009050D01*
X001237Y009300D01*
X000987Y009550D01*
X000987Y010050D01*
X001237Y010300D01*
X001737Y010300D01*
X001237Y010300D02*
X000987Y010550D01*
X000987Y011050D01*
X001237Y011300D01*
X000987Y011550D01*
X000987Y012050D01*
X001237Y012300D01*
X000987Y012550D01*
X000987Y013050D01*
X001237Y013300D01*
X001737Y013300D01*
X001987Y013550D02*
X001987Y014050D01*
X001737Y014300D01*
X001987Y014550D01*
X001987Y015050D01*
X001737Y015300D01*
X001987Y015550D01*
X001987Y016050D01*
X001737Y016300D01*
X001237Y016300D01*
X000987Y016050D01*
X000987Y015550D01*
X001237Y015300D01*
X001737Y015300D01*
X001237Y015300D02*
X000987Y015050D01*
X000987Y014550D01*
X001237Y014300D01*
X001737Y014300D01*
X001237Y014300D02*
X000987Y014050D01*
X000987Y013550D01*
X001237Y013300D01*
X001237Y012300D02*
X001737Y012300D01*
X001737Y011300D02*
X001237Y011300D01*
X001237Y009300D02*
X001737Y009300D01*
X001737Y008300D02*
X001237Y008300D01*
X001237Y006300D02*
X001737Y006300D01*
X001737Y005300D02*
X001237Y005300D01*
X001237Y003300D02*
X001737Y003300D01*
X006527Y009370D02*
X007947Y009370D01*
X007947Y011230D02*
X006527Y011230D01*
X001737Y016300D02*
X001987Y016550D01*
X001987Y017050D01*
X001737Y017300D01*
X001987Y017550D01*
X001987Y018050D01*
X001737Y018300D01*
X001237Y018300D01*
X000987Y018050D01*
X000987Y017550D01*
X001237Y017300D01*
X001737Y017300D01*
X001237Y017300D02*
X000987Y017050D01*
X000987Y016550D01*
X001237Y016300D01*
X006527Y016730D02*
X007947Y016730D01*
D181*
X007570Y015090D02*
X007572Y015105D01*
X007578Y015118D01*
X007587Y015130D01*
X007598Y015139D01*
X007612Y015145D01*
X007627Y015147D01*
X007642Y015145D01*
X007655Y015139D01*
X007667Y015130D01*
X007676Y015119D01*
X007682Y015105D01*
X007684Y015090D01*
X007682Y015075D01*
X007676Y015062D01*
X007667Y015050D01*
X007656Y015041D01*
X007642Y015035D01*
X007627Y015033D01*
X007612Y015035D01*
X007599Y015041D01*
X007587Y015050D01*
X007578Y015061D01*
X007572Y015075D01*
X007570Y015090D01*
X015231Y015154D02*
X015231Y014603D01*
X015743Y014603D01*
X015743Y015154D01*
X015743Y014603D02*
X015743Y014446D01*
X015231Y014446D02*
X015231Y014603D01*
X017107Y013562D02*
X018367Y013562D01*
X018748Y014295D02*
X018748Y015555D01*
X018748Y016045D02*
X018748Y017305D01*
X017725Y017305D02*
X017725Y016045D01*
X017725Y015555D02*
X017725Y014295D01*
X017107Y012538D02*
X018367Y012538D01*
X018748Y011805D02*
X018748Y010545D01*
X018748Y010055D02*
X018748Y008795D01*
X018367Y008062D02*
X017107Y008062D01*
X017725Y008795D02*
X017725Y010055D01*
X017725Y010545D02*
X017725Y011805D01*
X015743Y009654D02*
X015743Y009103D01*
X015231Y009103D01*
X015231Y009654D01*
X015231Y009103D02*
X015231Y008946D01*
X015743Y008946D02*
X015743Y009103D01*
X017107Y007038D02*
X018367Y007038D01*
X018748Y006305D02*
X018748Y005045D01*
X018748Y004555D02*
X018748Y003295D01*
X017725Y003295D02*
X017725Y004555D01*
X017725Y005045D02*
X017725Y006305D01*
X015743Y004154D02*
X015743Y003603D01*
X015231Y003603D01*
X015231Y004154D01*
X015231Y003603D02*
X015231Y003446D01*
X015743Y003446D02*
X015743Y003603D01*
X022725Y003295D02*
X022725Y004555D01*
X022725Y005045D02*
X022725Y006305D01*
X023748Y006305D02*
X023748Y005045D01*
X023748Y004555D02*
X023748Y003295D01*
X025731Y005446D02*
X025731Y005997D01*
X026243Y005997D01*
X026243Y005446D01*
X026243Y005997D02*
X026243Y006154D01*
X025731Y006154D02*
X025731Y005997D01*
X024367Y007038D02*
X023107Y007038D01*
X023107Y008062D02*
X024367Y008062D01*
X023748Y008795D02*
X023748Y010055D01*
X023748Y010545D02*
X023748Y011805D01*
X024367Y012538D02*
X023107Y012538D01*
X022725Y011805D02*
X022725Y010545D01*
X022725Y010055D02*
X022725Y008795D01*
X025731Y010946D02*
X025731Y011497D01*
X026243Y011497D01*
X026243Y010946D01*
X026243Y011497D02*
X026243Y011654D01*
X025731Y011654D02*
X025731Y011497D01*
X024367Y013562D02*
X023107Y013562D01*
X022725Y014295D02*
X022725Y015555D01*
X022725Y016045D02*
X022725Y017305D01*
X023748Y017305D02*
X023748Y016045D01*
X023748Y015555D02*
X023748Y014295D01*
X025731Y016446D02*
X025731Y016997D01*
X026243Y016997D01*
X026243Y016446D01*
X026243Y016997D02*
X026243Y017154D01*
X025731Y017154D02*
X025731Y016997D01*
X033790Y011010D02*
X033792Y011025D01*
X033798Y011038D01*
X033807Y011050D01*
X033818Y011059D01*
X033832Y011065D01*
X033847Y011067D01*
X033862Y011065D01*
X033875Y011059D01*
X033887Y011050D01*
X033896Y011039D01*
X033902Y011025D01*
X033904Y011010D01*
X033902Y010995D01*
X033896Y010982D01*
X033887Y010970D01*
X033876Y010961D01*
X033862Y010955D01*
X033847Y010953D01*
X033832Y010955D01*
X033819Y010961D01*
X033807Y010970D01*
X033798Y010981D01*
X033792Y010995D01*
X033790Y011010D01*
X033790Y005510D02*
X033792Y005525D01*
X033798Y005538D01*
X033807Y005550D01*
X033818Y005559D01*
X033832Y005565D01*
X033847Y005567D01*
X033862Y005565D01*
X033875Y005559D01*
X033887Y005550D01*
X033896Y005539D01*
X033902Y005525D01*
X033904Y005510D01*
X033902Y005495D01*
X033896Y005482D01*
X033887Y005470D01*
X033876Y005461D01*
X033862Y005455D01*
X033847Y005453D01*
X033832Y005455D01*
X033819Y005461D01*
X033807Y005470D01*
X033798Y005481D01*
X033792Y005495D01*
X033790Y005510D01*
X007570Y009590D02*
X007572Y009605D01*
X007578Y009618D01*
X007587Y009630D01*
X007598Y009639D01*
X007612Y009645D01*
X007627Y009647D01*
X007642Y009645D01*
X007655Y009639D01*
X007667Y009630D01*
X007676Y009619D01*
X007682Y009605D01*
X007684Y009590D01*
X007682Y009575D01*
X007676Y009562D01*
X007667Y009550D01*
X007656Y009541D01*
X007642Y009535D01*
X007627Y009533D01*
X007612Y009535D01*
X007599Y009541D01*
X007587Y009550D01*
X007578Y009561D01*
X007572Y009575D01*
X007570Y009590D01*
D182*
X005354Y010800D03*
X005119Y010800D03*
X004854Y010800D03*
X004619Y010800D03*
X004104Y009800D03*
X003869Y009800D03*
X002604Y009800D03*
X002369Y009800D03*
X003869Y008800D03*
X004104Y008800D03*
X006369Y011800D03*
X006604Y011800D03*
X005354Y015300D03*
X005119Y015300D03*
X004854Y015300D03*
X004619Y015300D03*
X003604Y018050D03*
X003369Y018050D03*
X003104Y018050D03*
X002869Y018050D03*
X015119Y013675D03*
X015354Y013675D03*
X015619Y013675D03*
X015854Y013675D03*
X025619Y012425D03*
X025854Y012425D03*
X026119Y012425D03*
X026354Y012425D03*
X034869Y008800D03*
X035104Y008800D03*
X036119Y009800D03*
X036354Y009800D03*
X036619Y009800D03*
X036854Y009800D03*
X037369Y010800D03*
X037604Y010800D03*
X038869Y010800D03*
X039104Y010800D03*
X037604Y011800D03*
X037369Y011800D03*
X026354Y006925D03*
X026119Y006925D03*
X025854Y006925D03*
X025619Y006925D03*
X015854Y008175D03*
X015619Y008175D03*
X015354Y008175D03*
X015119Y008175D03*
X015119Y002675D03*
X015354Y002675D03*
X015619Y002675D03*
X015854Y002675D03*
X036119Y005300D03*
X036354Y005300D03*
X036619Y005300D03*
X036854Y005300D03*
X037869Y002550D03*
X038104Y002550D03*
X038369Y002550D03*
X038604Y002550D03*
X026354Y017925D03*
X026119Y017925D03*
X025854Y017925D03*
X025619Y017925D03*
D183*
X037987Y010006D03*
X037987Y009594D03*
X003487Y010594D03*
X003487Y011006D03*
D184*
X004417Y012739D02*
X004419Y012766D01*
X004425Y012793D01*
X004434Y012819D01*
X004447Y012843D01*
X004463Y012866D01*
X004482Y012885D01*
X004504Y012902D01*
X004528Y012916D01*
X004553Y012926D01*
X004580Y012933D01*
X004607Y012936D01*
X004635Y012935D01*
X004662Y012930D01*
X004688Y012922D01*
X004712Y012910D01*
X004735Y012894D01*
X004756Y012876D01*
X004773Y012855D01*
X004788Y012831D01*
X004799Y012806D01*
X004807Y012780D01*
X004811Y012753D01*
X004811Y012725D01*
X004807Y012698D01*
X004799Y012672D01*
X004788Y012647D01*
X004773Y012623D01*
X004756Y012602D01*
X004735Y012584D01*
X004713Y012568D01*
X004688Y012556D01*
X004662Y012548D01*
X004635Y012543D01*
X004607Y012542D01*
X004580Y012545D01*
X004553Y012552D01*
X004528Y012562D01*
X004504Y012576D01*
X004482Y012593D01*
X004463Y012612D01*
X004447Y012635D01*
X004434Y012659D01*
X004425Y012685D01*
X004419Y012712D01*
X004417Y012739D01*
X036662Y007861D02*
X036664Y007888D01*
X036670Y007915D01*
X036679Y007941D01*
X036692Y007965D01*
X036708Y007988D01*
X036727Y008007D01*
X036749Y008024D01*
X036773Y008038D01*
X036798Y008048D01*
X036825Y008055D01*
X036852Y008058D01*
X036880Y008057D01*
X036907Y008052D01*
X036933Y008044D01*
X036957Y008032D01*
X036980Y008016D01*
X037001Y007998D01*
X037018Y007977D01*
X037033Y007953D01*
X037044Y007928D01*
X037052Y007902D01*
X037056Y007875D01*
X037056Y007847D01*
X037052Y007820D01*
X037044Y007794D01*
X037033Y007769D01*
X037018Y007745D01*
X037001Y007724D01*
X036980Y007706D01*
X036958Y007690D01*
X036933Y007678D01*
X036907Y007670D01*
X036880Y007665D01*
X036852Y007664D01*
X036825Y007667D01*
X036798Y007674D01*
X036773Y007684D01*
X036749Y007698D01*
X036727Y007715D01*
X036708Y007734D01*
X036692Y007757D01*
X036679Y007781D01*
X036670Y007807D01*
X036664Y007834D01*
X036662Y007861D01*
D185*
X036487Y008933D03*
X036487Y009167D03*
X036487Y006167D03*
X036487Y005933D03*
X036487Y004667D03*
X036487Y004433D03*
X004987Y011433D03*
X004987Y011667D03*
X004987Y014433D03*
X004987Y014667D03*
X004987Y015933D03*
X004987Y016167D03*
M02*
