%
M48
M72
T01C0.0130
T02C0.0170
T03C0.0400
T04C0.0900
%
T01
X3237Y1800
X6487Y3800
X5737Y4300
X4487Y5414
X2637Y6050
X2687Y4300
X7862Y5800
X8237Y5800
X8487Y6050
X8737Y5800
X9237Y5800
X9737Y5800
X9987Y6050
X10237Y5800
X9987Y5550
X10237Y5300
X9987Y5050
X10237Y4800
X9987Y4550
X9737Y4800
X9487Y4550
X9237Y4800
X9487Y5050
X9737Y5300
X9487Y5550
X9237Y5300
X8987Y5050
X8737Y4800
X8987Y4550
X8487Y4550
X8737Y4300
X8987Y4050
X9237Y3800
X9487Y3550
X9237Y3300
X8987Y3550
X8737Y3300
X8487Y3550
X8737Y3800
X8487Y4050
X9237Y4300
X9487Y4050
X9737Y4300
X10237Y4300
X10737Y4800
X11237Y4800
X11737Y4800
X11987Y4550
X12237Y4800
X12487Y5050
X12737Y4800
X12987Y4550
X13237Y4800
X13487Y4550
X13737Y4800
X13487Y5050
X13737Y5300
X13487Y5550
X13237Y5300
X12987Y5050
X12737Y5300
X12987Y5550
X12487Y5550
X12237Y5300
X11987Y5050
X11987Y5550
X12237Y5800
X12487Y6050
X12737Y5800
X12987Y6050
X13237Y5800
X13487Y6050
X13737Y5800
X13737Y6300
X13487Y6550
X13237Y6300
X12987Y6550
X12737Y6300
X12487Y6550
X12237Y6300
X11987Y6050
X11987Y6550
X12237Y6800
X12487Y7050
X12737Y6800
X12987Y7050
X13237Y6800
X13487Y7050
X13737Y6800
X13737Y7300
X13237Y7300
X12737Y7300
X12237Y7300
X11987Y7050
X11737Y6800
X11487Y7050
X11737Y7300
X11237Y7300
X10987Y7050
X11237Y6800
X10737Y6800
X10487Y7050
X10737Y7300
X9987Y7050
X10237Y6800
X9987Y6550
X10237Y6300
X8987Y5550
X8737Y5300
X8487Y5050
X8487Y5550
X7987Y7050
X8487Y8050
X8737Y8300
X8987Y8050
X9237Y8300
X9487Y8050
X9737Y8300
X9487Y8550
X8987Y8550
X8737Y8800
X8487Y8550
X8237Y8300
X8237Y8800
X8487Y9050
X9237Y9800
X9487Y10050
X9737Y9800
X9987Y10050
X10237Y9800
X10737Y10300
X11237Y10300
X11737Y10300
X11987Y10550
X12237Y10300
X12487Y10550
X12737Y10300
X12987Y10550
X13237Y10300
X13487Y10550
X13737Y10300
X13487Y10050
X13737Y9800
X13487Y9550
X13737Y9300
X13487Y9050
X13737Y8800
X13487Y8550
X13737Y8300
X13487Y8050
X13237Y8300
X12987Y8050
X12737Y8300
X12987Y8550
X13237Y8800
X12987Y9050
X13237Y9300
X12987Y9550
X13237Y9800
X12987Y10050
X12737Y9300
X12237Y9300
X11987Y9550
X11987Y10050
X12237Y10800
X12487Y11050
X12737Y10800
X12987Y11050
X13237Y10800
X13487Y11050
X13737Y10800
X13737Y11300
X13487Y11550
X13737Y11800
X13487Y12050
X13737Y12300
X13487Y12550
X13237Y12300
X12987Y12050
X13237Y11800
X12987Y11550
X12737Y11800
X12487Y11550
X12237Y11800
X12487Y12050
X12737Y12300
X12987Y12550
X12487Y12550
X12237Y12300
X11987Y12050
X11737Y12300
X11987Y12550
X11487Y12550
X11237Y12300
X10987Y12550
X10737Y12300
X10737Y12800
X11237Y12800
X11737Y12800
X12237Y12800
X12737Y12800
X13237Y12800
X13737Y12800
X13487Y13550
X13737Y13800
X13487Y14050
X13737Y14300
X13487Y14550
X13737Y14800
X13487Y15050
X13737Y15300
X13487Y15550
X13737Y15800
X13487Y16050
X13237Y15800
X12987Y15550
X13237Y15300
X12987Y15050
X13237Y14800
X12987Y14550
X13237Y14300
X12987Y14050
X13237Y13800
X12987Y13550
X12737Y13800
X12487Y13550
X12237Y13800
X11987Y13550
X11737Y13800
X11487Y13550
X11237Y13800
X10987Y13550
X10737Y13800
X10487Y13550
X10237Y13800
X9737Y13800
X9237Y13800
X8737Y13800
X8487Y13550
X8237Y13800
X7987Y13550
X7737Y13800
X7237Y13550
X6737Y13300
X6987Y12800
X7487Y12800
X7737Y13050
X7987Y14050
X8237Y14300
X8487Y14050
X8737Y14300
X8987Y14050
X9487Y14050
X8487Y14550
X7987Y14550
X7737Y14300
X7487Y14050
X7487Y14550
X8987Y15300
X9237Y15550
X9487Y15300
X9737Y15550
X9987Y15300
X10237Y15550
X10737Y15800
X11237Y15800
X11737Y15800
X11987Y15550
X12237Y15800
X12487Y16050
X12737Y15800
X12987Y16050
X13237Y16300
X13487Y16550
X13737Y16300
X13737Y16800
X13487Y17050
X13737Y17300
X13487Y17550
X13737Y17800
X13237Y17800
X12987Y17550
X12737Y17800
X12487Y17550
X12237Y17800
X11987Y17550
X11737Y17800
X11237Y17800
X10737Y17800
X10987Y18300
X11487Y18300
X11987Y18300
X12237Y18550
X11987Y18800
X12237Y19050
X11987Y19300
X12237Y19550
X11737Y19550
X11487Y19300
X11737Y19050
X11487Y18800
X11737Y18550
X11237Y18550
X10987Y18800
X11237Y19050
X10987Y19300
X11237Y19550
X10737Y19550
X10487Y19300
X10737Y19050
X10487Y18800
X10737Y18550
X10237Y18550
X9987Y18800
X10237Y19050
X9987Y19300
X10237Y19550
X9737Y19550
X9487Y19300
X9737Y19050
X9487Y18800
X9737Y18550
X9237Y18550
X9487Y18300
X9987Y18300
X10487Y18300
X9237Y19050
X9237Y19550
X7487Y19300
X6487Y19300
X5487Y19300
X4487Y19300
X3487Y19300
X3237Y17050
X3237Y15550
X4237Y15300
X4237Y14300
X5737Y13550
X3237Y12300
X2487Y12050
X4362Y10800
X4427Y10085
X3537Y9215
X2737Y8300
X3737Y8050
X4987Y8300
X5487Y8300
X5937Y9220
X6477Y9220
X7237Y8050
X10237Y8300
X10487Y8050
X10737Y8300
X10987Y8050
X11237Y8300
X11487Y8050
X11737Y8300
X11987Y8050
X12237Y8300
X12487Y8050
X11987Y8550
X8987Y10050
X11987Y11050
X12237Y11300
X12737Y11300
X13237Y11300
X11987Y11550
X7237Y12050
X5737Y11800
X1987Y10300
X11987Y14050
X12237Y14800
X12737Y14800
X11987Y15050
X11987Y16050
X12237Y16300
X12487Y16550
X12737Y16300
X12987Y16550
X13237Y16800
X12987Y17050
X13237Y17300
X12737Y17300
X12487Y17050
X12737Y16800
X12237Y16800
X11987Y16550
X11987Y17050
X12237Y17300
X13487Y18300
X13737Y18550
X13487Y18800
X13737Y19050
X13487Y19300
X13737Y19550
X14237Y19550
X14487Y19300
X14237Y19050
X14487Y18800
X14237Y18550
X14487Y18300
X15737Y18550
X15987Y18800
X16237Y18550
X16487Y18800
X16737Y18550
X16987Y18800
X17237Y18550
X17487Y18800
X17737Y18550
X17987Y18800
X18237Y18550
X18487Y18800
X18737Y18550
X18487Y18300
X17987Y18300
X17487Y18300
X16987Y18300
X16487Y18300
X15987Y18300
X16237Y19050
X16487Y19300
X16737Y19050
X16987Y19300
X17237Y19050
X17487Y19300
X17737Y19050
X17987Y19300
X18237Y19050
X18487Y19300
X18737Y19050
X18737Y19550
X18237Y19550
X17737Y19550
X17237Y19550
X16737Y19550
X16237Y19550
X15987Y19300
X15737Y19050
X15737Y19550
X18237Y17425
X18487Y17175
X17987Y17175
X17987Y16050
X18237Y15800
X18487Y15550
X17987Y15550
X18487Y16050
X18487Y14425
X17987Y14425
X18237Y14175
X18237Y13300
X18487Y13050
X18237Y12800
X17237Y12800
X16987Y13050
X17237Y13300
X18237Y11925
X18487Y11675
X17987Y11675
X17987Y10550
X18237Y10300
X18487Y10550
X18487Y10050
X17987Y10050
X17987Y8925
X18237Y8675
X18487Y8925
X18237Y7800
X18487Y7550
X18237Y7300
X17237Y7300
X16987Y7550
X17237Y7800
X18237Y6425
X18487Y6175
X17987Y6175
X17987Y5050
X18237Y4800
X18487Y4550
X17987Y4550
X18487Y5050
X18487Y3425
X18237Y3175
X17987Y3425
X17487Y1300
X16487Y1300
X15487Y1300
X14487Y1300
X13487Y1300
X13487Y2550
X13737Y2800
X13487Y3050
X13237Y2800
X12987Y2550
X12737Y2800
X12987Y3050
X13237Y3300
X13487Y3550
X13737Y3300
X13737Y3800
X13487Y4050
X13737Y4300
X13237Y4300
X12987Y4050
X13237Y3800
X12987Y3550
X12737Y3800
X12237Y3800
X11987Y4050
X11987Y3050
X12237Y2800
X12487Y2550
X11987Y2550
X11737Y2800
X11487Y2550
X11237Y2800
X10987Y2550
X10737Y2800
X10487Y2550
X10237Y2800
X9737Y2800
X9487Y2550
X9237Y2800
X9487Y3050
X8987Y3050
X8737Y2800
X8987Y2550
X8487Y2550
X8487Y3050
X8487Y1800
X22737Y1550
X22987Y1300
X23237Y1050
X23487Y1300
X23737Y1050
X23987Y1300
X24237Y1050
X24487Y1300
X24737Y1050
X24987Y1300
X25237Y1050
X25487Y1300
X25737Y1050
X25737Y1550
X25487Y1800
X25737Y2050
X25487Y2300
X24987Y2300
X24487Y2300
X24737Y2050
X24987Y1800
X25237Y1550
X24737Y1550
X24487Y1800
X24237Y1550
X23987Y1800
X24237Y2050
X23737Y2050
X23487Y1800
X23737Y1550
X23237Y1550
X22987Y1800
X23237Y2050
X23487Y2300
X23987Y2300
X22987Y2300
X22737Y2050
X22737Y1050
X25237Y2050
X26987Y1800
X27237Y1550
X26987Y1300
X27237Y1050
X27737Y1050
X27987Y1300
X27737Y1550
X27987Y1800
X27737Y2050
X27237Y2050
X26987Y2300
X27737Y2800
X27987Y3050
X28237Y2800
X28487Y3050
X28737Y2800
X28987Y3050
X29237Y2800
X29487Y3050
X29737Y2800
X30237Y2800
X30737Y2800
X30987Y2300
X31487Y2300
X31737Y2050
X31987Y1800
X32237Y1550
X31987Y1300
X32237Y1050
X31737Y1050
X31487Y1300
X31737Y1550
X31487Y1800
X31237Y1550
X30987Y1300
X31237Y1050
X30737Y1050
X30487Y1300
X30737Y1550
X30987Y1800
X31237Y2050
X30737Y2050
X30487Y1800
X30237Y1550
X29987Y1300
X30237Y1050
X29737Y1050
X29487Y1300
X29737Y1550
X29987Y1800
X30237Y2050
X29737Y2050
X29487Y1800
X29237Y1550
X29237Y1050
X29237Y2050
X29487Y2300
X29987Y2300
X30487Y2300
X31987Y2300
X32237Y2050
X33987Y1300
X34987Y1300
X35987Y1300
X36987Y1300
X37987Y1300
X38237Y3550
X38237Y5050
X37237Y5300
X37237Y6300
X35737Y7050
X34737Y7300
X34237Y7050
X33737Y6800
X33487Y7050
X33237Y6800
X32987Y7050
X32737Y6800
X32237Y6800
X31737Y6800
X31237Y6800
X30987Y7050
X30737Y6800
X30487Y7050
X30237Y6800
X29987Y7050
X29737Y6800
X29487Y7050
X29237Y6800
X28987Y7050
X28737Y6800
X28487Y7050
X28237Y6800
X27987Y7050
X27737Y6800
X27987Y6550
X28237Y6300
X28487Y6050
X28737Y5800
X29237Y5800
X29487Y5550
X29487Y5050
X29737Y4800
X29487Y4550
X29237Y4800
X28987Y4550
X28737Y4800
X28487Y4550
X28237Y4800
X28487Y5050
X28237Y5300
X28487Y5550
X27987Y5550
X27737Y5300
X27987Y5050
X27737Y4800
X27987Y4550
X28237Y4300
X28487Y4050
X28737Y3800
X28987Y3550
X29237Y3300
X29487Y3550
X29237Y3800
X29487Y4050
X29237Y4300
X28987Y4050
X28737Y4300
X28237Y3800
X28487Y3550
X28737Y3300
X28237Y3300
X27987Y3550
X27737Y3300
X27737Y3800
X27987Y4050
X27737Y4300
X30237Y4800
X30737Y4800
X31237Y5050
X31487Y5300
X31737Y5050
X31987Y5300
X32237Y5050
X32487Y5300
X32987Y6050
X33237Y6300
X33487Y6050
X33737Y6300
X33987Y6050
X33987Y6550
X33487Y6550
X32987Y6550
X32737Y6300
X32487Y6550
X31987Y6550
X33737Y7550
X33987Y7800
X34487Y7800
X34237Y8550
X35737Y8800
X37112Y9800
X37047Y10515
X37937Y11385
X38737Y12300
X37737Y12550
X36487Y12300
X35987Y12300
X35537Y11380
X34997Y11380
X33237Y11800
X32987Y11550
X32737Y11800
X32987Y12050
X33237Y12300
X32987Y12550
X32737Y12300
X32487Y12050
X32237Y12300
X32487Y12550
X31987Y12550
X31737Y12300
X31987Y12050
X31237Y12300
X30987Y12550
X30737Y12300
X30487Y12550
X30237Y12300
X29987Y12550
X29737Y12300
X29487Y12050
X29237Y12300
X29487Y12550
X28987Y12550
X28737Y12300
X28487Y12050
X28237Y11800
X28487Y11550
X27987Y11550
X27737Y11800
X27987Y12050
X28237Y12300
X28487Y12550
X27987Y12550
X27737Y12300
X27737Y11300
X27987Y11050
X28237Y10800
X28487Y10550
X28737Y10300
X29237Y10300
X29487Y10550
X29737Y10300
X30237Y10300
X30737Y10300
X31487Y10550
X31737Y10800
X31987Y10550
X32237Y10800
X32487Y10550
X31237Y10800
X29487Y11050
X29237Y11300
X28737Y11300
X28487Y11050
X28237Y11300
X27737Y10800
X27987Y10550
X28237Y10300
X28487Y10050
X28737Y9800
X28987Y9550
X29237Y9300
X29487Y9550
X29237Y9800
X29487Y10050
X28987Y10050
X28237Y9800
X28487Y9550
X28737Y9300
X28237Y9300
X27987Y9550
X27737Y9300
X27987Y9050
X28237Y8800
X28487Y8550
X28737Y8300
X28987Y8050
X29237Y8300
X29487Y8050
X29737Y8300
X29987Y8050
X30237Y8300
X30487Y8050
X30737Y8300
X30737Y7800
X30237Y7800
X29737Y7800
X29237Y7800
X28737Y7800
X28237Y7800
X28487Y8050
X28237Y8300
X27987Y8050
X27737Y8300
X27987Y8550
X27737Y8800
X28487Y9050
X28737Y8800
X28987Y8550
X29237Y8800
X29487Y8550
X29487Y9050
X28987Y9050
X27737Y9800
X27987Y10050
X27737Y10300
X23487Y10050
X22987Y10050
X23237Y10300
X23487Y10550
X22987Y10550
X22987Y11675
X23237Y11925
X23487Y11675
X23237Y12800
X22987Y13050
X23237Y13300
X24237Y13300
X24487Y13050
X24237Y12800
X23237Y14175
X23487Y14425
X22987Y14425
X22987Y15550
X23237Y15800
X23487Y15550
X23487Y16050
X22987Y16050
X22987Y17175
X23237Y17425
X23487Y17175
X23987Y19300
X24987Y19300
X25987Y19300
X26987Y19300
X27987Y19300
X27987Y18050
X28237Y17800
X28487Y17550
X28737Y17800
X28987Y18050
X29237Y17800
X29487Y17550
X29737Y17800
X29987Y18050
X30237Y17800
X30487Y18050
X30737Y17800
X30987Y18050
X31237Y17800
X31737Y17800
X31987Y17550
X32237Y17800
X32487Y17550
X32737Y17800
X32987Y17550
X32737Y17300
X32987Y17050
X32737Y16800
X32987Y16550
X32737Y16300
X32487Y16550
X32237Y16300
X31987Y16550
X32237Y16800
X32487Y17050
X32237Y17300
X31987Y17050
X31737Y16300
X31237Y16300
X31487Y16050
X31737Y15800
X31987Y15550
X32237Y15300
X32487Y15050
X32737Y15300
X32987Y15050
X33237Y14800
X32987Y14550
X32737Y14800
X32237Y14800
X31737Y14800
X31487Y14550
X31237Y14300
X31487Y14050
X31237Y13800
X31487Y13550
X30987Y13550
X30737Y13300
X30487Y13550
X30737Y13800
X30237Y13800
X29987Y13550
X30237Y13300
X29737Y13300
X29487Y13550
X29737Y13800
X29237Y13800
X28987Y13550
X29237Y13300
X28737Y13300
X28487Y13550
X28737Y13800
X28237Y13800
X27987Y13550
X28237Y13300
X27737Y13300
X27737Y13800
X27987Y14050
X28237Y14300
X28487Y14050
X28737Y14300
X28987Y14050
X29237Y14300
X29487Y14050
X29487Y14550
X29237Y14800
X28987Y14550
X28737Y14800
X28487Y14550
X28237Y14800
X27987Y14550
X27737Y14300
X27737Y14800
X27987Y15050
X28237Y15300
X28487Y15050
X28737Y15300
X28987Y15050
X29237Y15300
X29487Y15050
X29487Y15550
X29737Y15800
X29487Y16050
X29237Y15800
X28987Y15550
X28737Y15800
X28487Y15550
X28237Y15800
X28487Y16050
X27987Y16050
X27737Y15800
X27987Y15550
X27737Y15300
X27737Y16300
X27987Y16550
X28237Y16300
X28487Y16550
X28737Y16800
X28487Y17050
X28237Y16800
X27987Y17050
X28237Y17300
X27987Y17550
X27737Y17800
X28487Y18050
X29487Y18050
X27737Y17300
X27737Y16800
X29237Y16800
X29487Y16550
X30237Y15800
X30737Y15800
X31237Y15800
X31487Y15550
X31737Y15300
X31987Y15050
X31487Y15050
X31237Y15300
X32237Y15800
X32487Y15550
X32737Y15800
X32987Y15550
X32987Y16050
X32487Y16050
X31987Y16050
X31237Y14800
X33612Y14800
X33487Y13550
X34237Y12550
X38837Y14550
X36987Y15186
X35737Y16300
X34987Y16800
X32987Y18050
X32487Y18050
X31987Y18050
X32987Y18800
X38237Y18800
X38787Y16300
X39487Y10300
X38987Y8550
X38237Y8300
X29487Y6550
X28487Y6550
X27987Y6050
X28237Y5800
X27737Y5800
X27737Y6300
X27737Y7800
X24487Y7550
X24237Y7300
X24237Y7800
X23237Y7800
X22987Y7550
X23237Y7300
X23237Y6425
X23487Y6175
X22987Y6175
X22987Y5050
X23237Y4800
X23487Y4550
X22987Y4550
X23487Y5050
X23487Y3425
X23237Y3175
X22987Y3425
X27987Y2300
X23237Y8675
X23487Y8925
X22987Y8925
T02
X21112Y9925
X21112Y10175
X21112Y10425
X21112Y10675
X20362Y10675
X20362Y10425
X20362Y10175
X20362Y9925
T03
X19487Y9800
X19487Y8800
X19487Y7800
X19487Y6800
X19487Y5800
X19487Y4800
X19487Y3800
X19487Y2800
X21987Y2800
X21987Y3800
X21987Y4800
X21987Y5800
X21987Y6800
X21987Y7800
X21987Y8800
X21987Y9800
X21987Y10800
X21987Y11800
X21987Y12800
X21987Y13800
X21987Y14800
X21987Y15800
X21987Y16800
X21987Y17800
X19487Y17800
X19487Y16800
X19487Y15800
X19487Y14800
X19487Y13800
X19487Y12800
X19487Y11800
X19487Y10800
X1487Y10800
X1487Y9800
X1487Y8800
X1487Y7800
X1487Y6800
X1487Y5800
X1487Y4800
X1487Y3800
X1487Y2800
X1487Y11800
X1487Y12800
X1487Y13800
X1487Y14800
X1487Y15800
X1487Y16800
X1487Y17800
X39987Y17800
X39987Y16800
X39987Y15800
X39987Y14800
X39987Y13800
X39987Y12800
X39987Y11800
X39987Y10800
X39987Y9800
X39987Y8800
X39987Y7800
X39987Y6800
X39987Y5800
X39987Y4800
X39987Y3800
X39987Y2800
T04
X1487Y1300
X9237Y6550
X19487Y1300
X21987Y1300
X33237Y3300
X39987Y1300
X32737Y8300
X32237Y14050
X39987Y19300
X21987Y19300
X19487Y19300
X8237Y17300
X1487Y19300
X8737Y12300
M30
